<svg xmlns="http://www.w3.org/2000/svg" xmlns:xlink="http://www.w3.org/1999/xlink" width="600" height="400" viewBox="0 0 2400 1600">
<defs>
  <clipPath id="clip280">
    <rect x="0" y="0" width="2400" height="1600"></rect>
  </clipPath>
</defs>
<path clip-path="url(#clip280)" d="M0 1600 L2400 1600 L2400 8.88178e-14 L0 8.88178e-14  Z" fill="#ffffff" fill-rule="evenodd" fill-opacity="1"></path>
<defs>
  <clipPath id="clip281">
    <rect x="480" y="0" width="1681" height="1600"></rect>
  </clipPath>
</defs>
<path clip-path="url(#clip280)" d="M235.283 1423.18 L2352.76 1423.18 L2352.76 123.472 L235.283 123.472  Z" fill="#ffffff" fill-rule="evenodd" fill-opacity="1"></path>
<defs>
  <clipPath id="clip282">
    <rect x="235" y="123" width="2118" height="1301"></rect>
  </clipPath>
</defs>
<polyline clip-path="url(#clip282)" style="stroke:#000000; stroke-linecap:round; stroke-linejoin:round; stroke-width:2; stroke-opacity:0.1; fill:none" points="293.214,1423.18 293.214,123.472 "></polyline>
<polyline clip-path="url(#clip282)" style="stroke:#000000; stroke-linecap:round; stroke-linejoin:round; stroke-width:2; stroke-opacity:0.1; fill:none" points="792.618,1423.18 792.618,123.472 "></polyline>
<polyline clip-path="url(#clip282)" style="stroke:#000000; stroke-linecap:round; stroke-linejoin:round; stroke-width:2; stroke-opacity:0.1; fill:none" points="1292.02,1423.18 1292.02,123.472 "></polyline>
<polyline clip-path="url(#clip282)" style="stroke:#000000; stroke-linecap:round; stroke-linejoin:round; stroke-width:2; stroke-opacity:0.1; fill:none" points="1791.43,1423.18 1791.43,123.472 "></polyline>
<polyline clip-path="url(#clip282)" style="stroke:#000000; stroke-linecap:round; stroke-linejoin:round; stroke-width:2; stroke-opacity:0.1; fill:none" points="2290.83,1423.18 2290.83,123.472 "></polyline>
<polyline clip-path="url(#clip282)" style="stroke:#000000; stroke-linecap:round; stroke-linejoin:round; stroke-width:2; stroke-opacity:0.1; fill:none" points="235.283,1383.96 2352.76,1383.96 "></polyline>
<polyline clip-path="url(#clip282)" style="stroke:#000000; stroke-linecap:round; stroke-linejoin:round; stroke-width:2; stroke-opacity:0.1; fill:none" points="235.283,1078.91 2352.76,1078.91 "></polyline>
<polyline clip-path="url(#clip282)" style="stroke:#000000; stroke-linecap:round; stroke-linejoin:round; stroke-width:2; stroke-opacity:0.1; fill:none" points="235.283,773.859 2352.76,773.859 "></polyline>
<polyline clip-path="url(#clip282)" style="stroke:#000000; stroke-linecap:round; stroke-linejoin:round; stroke-width:2; stroke-opacity:0.1; fill:none" points="235.283,468.81 2352.76,468.81 "></polyline>
<polyline clip-path="url(#clip282)" style="stroke:#000000; stroke-linecap:round; stroke-linejoin:round; stroke-width:2; stroke-opacity:0.1; fill:none" points="235.283,163.76 2352.76,163.76 "></polyline>
<polyline clip-path="url(#clip280)" style="stroke:#000000; stroke-linecap:round; stroke-linejoin:round; stroke-width:4; stroke-opacity:1; fill:none" points="235.283,1423.18 2352.76,1423.18 "></polyline>
<polyline clip-path="url(#clip280)" style="stroke:#000000; stroke-linecap:round; stroke-linejoin:round; stroke-width:4; stroke-opacity:1; fill:none" points="293.214,1423.18 293.214,1404.28 "></polyline>
<polyline clip-path="url(#clip280)" style="stroke:#000000; stroke-linecap:round; stroke-linejoin:round; stroke-width:4; stroke-opacity:1; fill:none" points="792.618,1423.18 792.618,1404.28 "></polyline>
<polyline clip-path="url(#clip280)" style="stroke:#000000; stroke-linecap:round; stroke-linejoin:round; stroke-width:4; stroke-opacity:1; fill:none" points="1292.02,1423.18 1292.02,1404.28 "></polyline>
<polyline clip-path="url(#clip280)" style="stroke:#000000; stroke-linecap:round; stroke-linejoin:round; stroke-width:4; stroke-opacity:1; fill:none" points="1791.43,1423.18 1791.43,1404.28 "></polyline>
<polyline clip-path="url(#clip280)" style="stroke:#000000; stroke-linecap:round; stroke-linejoin:round; stroke-width:4; stroke-opacity:1; fill:none" points="2290.83,1423.18 2290.83,1404.28 "></polyline>
<path clip-path="url(#clip280)" d="M293.214 1454.1 Q289.603 1454.1 287.774 1457.66 Q285.968 1461.2 285.968 1468.33 Q285.968 1475.44 287.774 1479.01 Q289.603 1482.55 293.214 1482.55 Q296.848 1482.55 298.654 1479.01 Q300.482 1475.44 300.482 1468.33 Q300.482 1461.2 298.654 1457.66 Q296.848 1454.1 293.214 1454.1 M293.214 1450.39 Q299.024 1450.39 302.079 1455 Q305.158 1459.58 305.158 1468.33 Q305.158 1477.06 302.079 1481.67 Q299.024 1486.25 293.214 1486.25 Q287.404 1486.25 284.325 1481.67 Q281.269 1477.06 281.269 1468.33 Q281.269 1459.58 284.325 1455 Q287.404 1450.39 293.214 1450.39 Z" fill="#000000" fill-rule="nonzero" fill-opacity="1"></path><path clip-path="url(#clip280)" d="M756.31 1481.64 L772.629 1481.64 L772.629 1485.58 L750.685 1485.58 L750.685 1481.64 Q753.347 1478.89 757.93 1474.26 Q762.537 1469.61 763.717 1468.27 Q765.963 1465.74 766.842 1464.01 Q767.745 1462.25 767.745 1460.56 Q767.745 1457.8 765.801 1456.07 Q763.879 1454.33 760.778 1454.33 Q758.579 1454.33 756.125 1455.09 Q753.694 1455.86 750.917 1457.41 L750.917 1452.69 Q753.741 1451.55 756.194 1450.97 Q758.648 1450.39 760.685 1450.39 Q766.055 1450.39 769.25 1453.08 Q772.444 1455.77 772.444 1460.26 Q772.444 1462.39 771.634 1464.31 Q770.847 1466.2 768.741 1468.8 Q768.162 1469.47 765.06 1472.69 Q761.958 1475.88 756.31 1481.64 Z" fill="#000000" fill-rule="nonzero" fill-opacity="1"></path><path clip-path="url(#clip280)" d="M782.49 1451.02 L800.847 1451.02 L800.847 1454.96 L786.773 1454.96 L786.773 1463.43 Q787.791 1463.08 788.81 1462.92 Q789.828 1462.73 790.847 1462.73 Q796.634 1462.73 800.014 1465.9 Q803.393 1469.08 803.393 1474.49 Q803.393 1480.07 799.921 1483.17 Q796.449 1486.25 790.129 1486.25 Q787.953 1486.25 785.685 1485.88 Q783.44 1485.51 781.032 1484.77 L781.032 1480.07 Q783.115 1481.2 785.338 1481.76 Q787.56 1482.32 790.037 1482.32 Q794.041 1482.32 796.379 1480.21 Q798.717 1478.1 798.717 1474.49 Q798.717 1470.88 796.379 1468.77 Q794.041 1466.67 790.037 1466.67 Q788.162 1466.67 786.287 1467.08 Q784.435 1467.5 782.49 1468.38 L782.49 1451.02 Z" fill="#000000" fill-rule="nonzero" fill-opacity="1"></path><path clip-path="url(#clip280)" d="M822.606 1454.1 Q818.995 1454.1 817.166 1457.66 Q815.361 1461.2 815.361 1468.33 Q815.361 1475.44 817.166 1479.01 Q818.995 1482.55 822.606 1482.55 Q826.24 1482.55 828.046 1479.01 Q829.874 1475.44 829.874 1468.33 Q829.874 1461.2 828.046 1457.66 Q826.24 1454.1 822.606 1454.1 M822.606 1450.39 Q828.416 1450.39 831.472 1455 Q834.55 1459.58 834.55 1468.33 Q834.55 1477.06 831.472 1481.67 Q828.416 1486.25 822.606 1486.25 Q816.796 1486.25 813.717 1481.67 Q810.662 1477.06 810.662 1468.33 Q810.662 1459.58 813.717 1455 Q816.796 1450.39 822.606 1450.39 Z" fill="#000000" fill-rule="nonzero" fill-opacity="1"></path><path clip-path="url(#clip280)" d="M1251.64 1451.02 L1270 1451.02 L1270 1454.96 L1255.92 1454.96 L1255.92 1463.43 Q1256.94 1463.08 1257.96 1462.92 Q1258.98 1462.73 1260 1462.73 Q1265.78 1462.73 1269.16 1465.9 Q1272.54 1469.08 1272.54 1474.49 Q1272.54 1480.07 1269.07 1483.17 Q1265.6 1486.25 1259.28 1486.25 Q1257.1 1486.25 1254.83 1485.88 Q1252.59 1485.51 1250.18 1484.77 L1250.18 1480.07 Q1252.27 1481.2 1254.49 1481.76 Q1256.71 1482.32 1259.19 1482.32 Q1263.19 1482.32 1265.53 1480.21 Q1267.87 1478.1 1267.87 1474.49 Q1267.87 1470.88 1265.53 1468.77 Q1263.19 1466.67 1259.19 1466.67 Q1257.31 1466.67 1255.44 1467.08 Q1253.58 1467.5 1251.64 1468.38 L1251.64 1451.02 Z" fill="#000000" fill-rule="nonzero" fill-opacity="1"></path><path clip-path="url(#clip280)" d="M1291.76 1454.1 Q1288.14 1454.1 1286.32 1457.66 Q1284.51 1461.2 1284.51 1468.33 Q1284.51 1475.44 1286.32 1479.01 Q1288.14 1482.55 1291.76 1482.55 Q1295.39 1482.55 1297.2 1479.01 Q1299.02 1475.44 1299.02 1468.33 Q1299.02 1461.2 1297.2 1457.66 Q1295.39 1454.1 1291.76 1454.1 M1291.76 1450.39 Q1297.57 1450.39 1300.62 1455 Q1303.7 1459.58 1303.7 1468.33 Q1303.7 1477.06 1300.62 1481.67 Q1297.57 1486.25 1291.76 1486.25 Q1285.95 1486.25 1282.87 1481.67 Q1279.81 1477.06 1279.81 1468.33 Q1279.81 1459.58 1282.87 1455 Q1285.95 1450.39 1291.76 1450.39 Z" fill="#000000" fill-rule="nonzero" fill-opacity="1"></path><path clip-path="url(#clip280)" d="M1321.92 1454.1 Q1318.31 1454.1 1316.48 1457.66 Q1314.67 1461.2 1314.67 1468.33 Q1314.67 1475.44 1316.48 1479.01 Q1318.31 1482.55 1321.92 1482.55 Q1325.55 1482.55 1327.36 1479.01 Q1329.19 1475.44 1329.19 1468.33 Q1329.19 1461.2 1327.36 1457.66 Q1325.55 1454.1 1321.92 1454.1 M1321.92 1450.39 Q1327.73 1450.39 1330.78 1455 Q1333.86 1459.58 1333.86 1468.33 Q1333.86 1477.06 1330.78 1481.67 Q1327.73 1486.25 1321.92 1486.25 Q1316.11 1486.25 1313.03 1481.67 Q1309.97 1477.06 1309.97 1468.33 Q1309.97 1459.58 1313.03 1455 Q1316.11 1450.39 1321.92 1450.39 Z" fill="#000000" fill-rule="nonzero" fill-opacity="1"></path><path clip-path="url(#clip280)" d="M1749.7 1451.02 L1771.92 1451.02 L1771.92 1453.01 L1759.38 1485.58 L1754.49 1485.58 L1766.3 1454.96 L1749.7 1454.96 L1749.7 1451.02 Z" fill="#000000" fill-rule="nonzero" fill-opacity="1"></path><path clip-path="url(#clip280)" d="M1781.09 1451.02 L1799.45 1451.02 L1799.45 1454.96 L1785.37 1454.96 L1785.37 1463.43 Q1786.39 1463.08 1787.41 1462.92 Q1788.43 1462.73 1789.45 1462.73 Q1795.23 1462.73 1798.61 1465.9 Q1801.99 1469.08 1801.99 1474.49 Q1801.99 1480.07 1798.52 1483.17 Q1795.05 1486.25 1788.73 1486.25 Q1786.55 1486.25 1784.28 1485.88 Q1782.04 1485.51 1779.63 1484.77 L1779.63 1480.07 Q1781.72 1481.2 1783.94 1481.76 Q1786.16 1482.32 1788.64 1482.32 Q1792.64 1482.32 1794.98 1480.21 Q1797.32 1478.1 1797.32 1474.49 Q1797.32 1470.88 1794.98 1468.77 Q1792.64 1466.67 1788.64 1466.67 Q1786.76 1466.67 1784.89 1467.08 Q1783.03 1467.5 1781.09 1468.38 L1781.09 1451.02 Z" fill="#000000" fill-rule="nonzero" fill-opacity="1"></path><path clip-path="url(#clip280)" d="M1821.21 1454.1 Q1817.59 1454.1 1815.77 1457.66 Q1813.96 1461.2 1813.96 1468.33 Q1813.96 1475.44 1815.77 1479.01 Q1817.59 1482.55 1821.21 1482.55 Q1824.84 1482.55 1826.65 1479.01 Q1828.47 1475.44 1828.47 1468.33 Q1828.47 1461.2 1826.65 1457.66 Q1824.84 1454.1 1821.21 1454.1 M1821.21 1450.39 Q1827.02 1450.39 1830.07 1455 Q1833.15 1459.58 1833.15 1468.33 Q1833.15 1477.06 1830.07 1481.67 Q1827.02 1486.25 1821.21 1486.25 Q1815.4 1486.25 1812.32 1481.67 Q1809.26 1477.06 1809.26 1468.33 Q1809.26 1459.58 1812.32 1455 Q1815.4 1450.39 1821.21 1450.39 Z" fill="#000000" fill-rule="nonzero" fill-opacity="1"></path><path clip-path="url(#clip280)" d="M2235.36 1481.64 L2242.99 1481.64 L2242.99 1455.28 L2234.68 1456.95 L2234.68 1452.69 L2242.95 1451.02 L2247.62 1451.02 L2247.62 1481.64 L2255.26 1481.64 L2255.26 1485.58 L2235.36 1485.58 L2235.36 1481.64 Z" fill="#000000" fill-rule="nonzero" fill-opacity="1"></path><path clip-path="url(#clip280)" d="M2274.71 1454.1 Q2271.1 1454.1 2269.27 1457.66 Q2267.46 1461.2 2267.46 1468.33 Q2267.46 1475.44 2269.27 1479.01 Q2271.1 1482.55 2274.71 1482.55 Q2278.34 1482.55 2280.15 1479.01 Q2281.98 1475.44 2281.98 1468.33 Q2281.98 1461.2 2280.15 1457.66 Q2278.34 1454.1 2274.71 1454.1 M2274.71 1450.39 Q2280.52 1450.39 2283.57 1455 Q2286.65 1459.58 2286.65 1468.33 Q2286.65 1477.06 2283.57 1481.67 Q2280.52 1486.25 2274.71 1486.25 Q2268.9 1486.25 2265.82 1481.67 Q2262.76 1477.06 2262.76 1468.33 Q2262.76 1459.58 2265.82 1455 Q2268.9 1450.39 2274.71 1450.39 Z" fill="#000000" fill-rule="nonzero" fill-opacity="1"></path><path clip-path="url(#clip280)" d="M2304.87 1454.1 Q2301.26 1454.1 2299.43 1457.66 Q2297.62 1461.2 2297.62 1468.33 Q2297.62 1475.44 2299.43 1479.01 Q2301.26 1482.55 2304.87 1482.55 Q2308.5 1482.55 2310.31 1479.01 Q2312.14 1475.44 2312.14 1468.33 Q2312.14 1461.2 2310.31 1457.66 Q2308.5 1454.1 2304.87 1454.1 M2304.87 1450.39 Q2310.68 1450.39 2313.73 1455 Q2316.81 1459.58 2316.81 1468.33 Q2316.81 1477.06 2313.73 1481.67 Q2310.68 1486.25 2304.87 1486.25 Q2299.06 1486.25 2295.98 1481.67 Q2292.92 1477.06 2292.92 1468.33 Q2292.92 1459.58 2295.98 1455 Q2299.06 1450.39 2304.87 1450.39 Z" fill="#000000" fill-rule="nonzero" fill-opacity="1"></path><path clip-path="url(#clip280)" d="M2335.03 1454.1 Q2331.42 1454.1 2329.59 1457.66 Q2327.79 1461.2 2327.79 1468.33 Q2327.79 1475.44 2329.59 1479.01 Q2331.42 1482.55 2335.03 1482.55 Q2338.67 1482.55 2340.47 1479.01 Q2342.3 1475.44 2342.3 1468.33 Q2342.3 1461.2 2340.47 1457.66 Q2338.67 1454.1 2335.03 1454.1 M2335.03 1450.39 Q2340.84 1450.39 2343.9 1455 Q2346.98 1459.58 2346.98 1468.33 Q2346.98 1477.06 2343.9 1481.67 Q2340.84 1486.25 2335.03 1486.25 Q2329.22 1486.25 2326.14 1481.67 Q2323.09 1477.06 2323.09 1468.33 Q2323.09 1459.58 2326.14 1455 Q2329.22 1450.39 2335.03 1450.39 Z" fill="#000000" fill-rule="nonzero" fill-opacity="1"></path><path clip-path="url(#clip280)" d="M1233.18 1522.27 L1233.18 1532.4 L1245.24 1532.4 L1245.24 1536.95 L1233.18 1536.95 L1233.18 1556.3 Q1233.18 1560.66 1234.36 1561.9 Q1235.57 1563.14 1239.23 1563.14 L1245.24 1563.14 L1245.24 1568.04 L1239.23 1568.04 Q1232.45 1568.04 1229.87 1565.53 Q1227.29 1562.98 1227.29 1556.3 L1227.29 1536.95 L1222.99 1536.95 L1222.99 1532.4 L1227.29 1532.4 L1227.29 1522.27 L1233.18 1522.27 Z" fill="#000000" fill-rule="nonzero" fill-opacity="1"></path><path clip-path="url(#clip280)" d="M1252.94 1532.4 L1258.8 1532.4 L1258.8 1568.04 L1252.94 1568.04 L1252.94 1532.4 M1252.94 1518.52 L1258.8 1518.52 L1258.8 1525.93 L1252.94 1525.93 L1252.94 1518.52 Z" fill="#000000" fill-rule="nonzero" fill-opacity="1"></path><path clip-path="url(#clip280)" d="M1298.81 1539.24 Q1301.01 1535.29 1304.06 1533.41 Q1307.12 1531.54 1311.25 1531.54 Q1316.82 1531.54 1319.85 1535.45 Q1322.87 1539.33 1322.87 1546.53 L1322.87 1568.04 L1316.98 1568.04 L1316.98 1546.72 Q1316.98 1541.59 1315.17 1539.11 Q1313.36 1536.63 1309.63 1536.63 Q1305.08 1536.63 1302.44 1539.65 Q1299.8 1542.68 1299.8 1547.9 L1299.8 1568.04 L1293.91 1568.04 L1293.91 1546.72 Q1293.91 1541.56 1292.09 1539.11 Q1290.28 1536.63 1286.49 1536.63 Q1282 1536.63 1279.36 1539.68 Q1276.72 1542.71 1276.72 1547.9 L1276.72 1568.04 L1270.83 1568.04 L1270.83 1532.4 L1276.72 1532.4 L1276.72 1537.93 Q1278.73 1534.66 1281.53 1533.1 Q1284.33 1531.54 1288.18 1531.54 Q1292.06 1531.54 1294.77 1533.51 Q1297.5 1535.48 1298.81 1539.24 Z" fill="#000000" fill-rule="nonzero" fill-opacity="1"></path><path clip-path="url(#clip280)" d="M1365.04 1548.76 L1365.04 1551.62 L1338.12 1551.62 Q1338.5 1557.67 1341.75 1560.85 Q1345.02 1564 1350.85 1564 Q1354.22 1564 1357.37 1563.17 Q1360.56 1562.35 1363.68 1560.69 L1363.68 1566.23 Q1360.53 1567.57 1357.21 1568.27 Q1353.9 1568.97 1350.5 1568.97 Q1341.97 1568.97 1336.97 1564 Q1332.01 1559.04 1332.01 1550.57 Q1332.01 1541.82 1336.72 1536.69 Q1341.46 1531.54 1349.48 1531.54 Q1356.67 1531.54 1360.84 1536.18 Q1365.04 1540.8 1365.04 1548.76 M1359.19 1547.04 Q1359.12 1542.23 1356.48 1539.37 Q1353.87 1536.5 1349.54 1536.5 Q1344.64 1536.5 1341.68 1539.27 Q1338.75 1542.04 1338.31 1547.07 L1359.19 1547.04 Z" fill="#000000" fill-rule="nonzero" fill-opacity="1"></path><polyline clip-path="url(#clip280)" style="stroke:#000000; stroke-linecap:round; stroke-linejoin:round; stroke-width:4; stroke-opacity:1; fill:none" points="235.283,1423.18 235.283,123.472 "></polyline>
<polyline clip-path="url(#clip280)" style="stroke:#000000; stroke-linecap:round; stroke-linejoin:round; stroke-width:4; stroke-opacity:1; fill:none" points="235.283,1383.96 254.18,1383.96 "></polyline>
<polyline clip-path="url(#clip280)" style="stroke:#000000; stroke-linecap:round; stroke-linejoin:round; stroke-width:4; stroke-opacity:1; fill:none" points="235.283,1078.91 254.18,1078.91 "></polyline>
<polyline clip-path="url(#clip280)" style="stroke:#000000; stroke-linecap:round; stroke-linejoin:round; stroke-width:4; stroke-opacity:1; fill:none" points="235.283,773.859 254.18,773.859 "></polyline>
<polyline clip-path="url(#clip280)" style="stroke:#000000; stroke-linecap:round; stroke-linejoin:round; stroke-width:4; stroke-opacity:1; fill:none" points="235.283,468.81 254.18,468.81 "></polyline>
<polyline clip-path="url(#clip280)" style="stroke:#000000; stroke-linecap:round; stroke-linejoin:round; stroke-width:4; stroke-opacity:1; fill:none" points="235.283,163.76 254.18,163.76 "></polyline>
<path clip-path="url(#clip280)" d="M187.338 1369.76 Q183.727 1369.76 181.899 1373.32 Q180.093 1376.86 180.093 1383.99 Q180.093 1391.1 181.899 1394.66 Q183.727 1398.21 187.338 1398.21 Q190.973 1398.21 192.778 1394.66 Q194.607 1391.1 194.607 1383.99 Q194.607 1376.86 192.778 1373.32 Q190.973 1369.76 187.338 1369.76 M187.338 1366.05 Q193.149 1366.05 196.204 1370.66 Q199.283 1375.24 199.283 1383.99 Q199.283 1392.72 196.204 1397.33 Q193.149 1401.91 187.338 1401.91 Q181.528 1401.91 178.45 1397.33 Q175.394 1392.72 175.394 1383.99 Q175.394 1375.24 178.45 1370.66 Q181.528 1366.05 187.338 1366.05 Z" fill="#000000" fill-rule="nonzero" fill-opacity="1"></path><path clip-path="url(#clip280)" d="M121.043 1092.25 L137.362 1092.25 L137.362 1096.19 L115.418 1096.19 L115.418 1092.25 Q118.08 1089.5 122.663 1084.87 Q127.269 1080.22 128.45 1078.87 Q130.695 1076.35 131.575 1074.61 Q132.478 1072.86 132.478 1071.17 Q132.478 1068.41 130.533 1066.67 Q128.612 1064.94 125.51 1064.94 Q123.311 1064.94 120.857 1065.7 Q118.427 1066.47 115.649 1068.02 L115.649 1063.29 Q118.473 1062.16 120.927 1061.58 Q123.38 1061 125.418 1061 Q130.788 1061 133.982 1063.69 Q137.177 1066.37 137.177 1070.86 Q137.177 1072.99 136.367 1074.92 Q135.579 1076.81 133.473 1079.41 Q132.894 1080.08 129.792 1083.29 Q126.691 1086.49 121.043 1092.25 Z" fill="#000000" fill-rule="nonzero" fill-opacity="1"></path><path clip-path="url(#clip280)" d="M157.177 1064.71 Q153.566 1064.71 151.737 1068.27 Q149.931 1071.81 149.931 1078.94 Q149.931 1086.05 151.737 1089.61 Q153.566 1093.16 157.177 1093.16 Q160.811 1093.16 162.616 1089.61 Q164.445 1086.05 164.445 1078.94 Q164.445 1071.81 162.616 1068.27 Q160.811 1064.71 157.177 1064.71 M157.177 1061 Q162.987 1061 166.042 1065.61 Q169.121 1070.19 169.121 1078.94 Q169.121 1087.67 166.042 1092.28 Q162.987 1096.86 157.177 1096.86 Q151.366 1096.86 148.288 1092.28 Q145.232 1087.67 145.232 1078.94 Q145.232 1070.19 148.288 1065.61 Q151.366 1061 157.177 1061 Z" fill="#000000" fill-rule="nonzero" fill-opacity="1"></path><path clip-path="url(#clip280)" d="M187.338 1064.71 Q183.727 1064.71 181.899 1068.27 Q180.093 1071.81 180.093 1078.94 Q180.093 1086.05 181.899 1089.61 Q183.727 1093.16 187.338 1093.16 Q190.973 1093.16 192.778 1089.61 Q194.607 1086.05 194.607 1078.94 Q194.607 1071.81 192.778 1068.27 Q190.973 1064.71 187.338 1064.71 M187.338 1061 Q193.149 1061 196.204 1065.61 Q199.283 1070.19 199.283 1078.94 Q199.283 1087.67 196.204 1092.28 Q193.149 1096.86 187.338 1096.86 Q181.528 1096.86 178.45 1092.28 Q175.394 1087.67 175.394 1078.94 Q175.394 1070.19 178.45 1065.61 Q181.528 1061 187.338 1061 Z" fill="#000000" fill-rule="nonzero" fill-opacity="1"></path><path clip-path="url(#clip280)" d="M129.862 760.653 L118.056 779.102 L129.862 779.102 L129.862 760.653 M128.635 756.579 L134.515 756.579 L134.515 779.102 L139.445 779.102 L139.445 782.991 L134.515 782.991 L134.515 791.139 L129.862 791.139 L129.862 782.991 L114.26 782.991 L114.26 778.477 L128.635 756.579 Z" fill="#000000" fill-rule="nonzero" fill-opacity="1"></path><path clip-path="url(#clip280)" d="M157.177 759.658 Q153.566 759.658 151.737 763.222 Q149.931 766.764 149.931 773.894 Q149.931 781 151.737 784.565 Q153.566 788.107 157.177 788.107 Q160.811 788.107 162.616 784.565 Q164.445 781 164.445 773.894 Q164.445 766.764 162.616 763.222 Q160.811 759.658 157.177 759.658 M157.177 755.954 Q162.987 755.954 166.042 760.56 Q169.121 765.144 169.121 773.894 Q169.121 782.621 166.042 787.227 Q162.987 791.81 157.177 791.81 Q151.366 791.81 148.288 787.227 Q145.232 782.621 145.232 773.894 Q145.232 765.144 148.288 760.56 Q151.366 755.954 157.177 755.954 Z" fill="#000000" fill-rule="nonzero" fill-opacity="1"></path><path clip-path="url(#clip280)" d="M187.338 759.658 Q183.727 759.658 181.899 763.222 Q180.093 766.764 180.093 773.894 Q180.093 781 181.899 784.565 Q183.727 788.107 187.338 788.107 Q190.973 788.107 192.778 784.565 Q194.607 781 194.607 773.894 Q194.607 766.764 192.778 763.222 Q190.973 759.658 187.338 759.658 M187.338 755.954 Q193.149 755.954 196.204 760.56 Q199.283 765.144 199.283 773.894 Q199.283 782.621 196.204 787.227 Q193.149 791.81 187.338 791.81 Q181.528 791.81 178.45 787.227 Q175.394 782.621 175.394 773.894 Q175.394 765.144 178.45 760.56 Q181.528 755.954 187.338 755.954 Z" fill="#000000" fill-rule="nonzero" fill-opacity="1"></path><path clip-path="url(#clip280)" d="M127.593 466.946 Q124.445 466.946 122.593 469.099 Q120.765 471.252 120.765 475.002 Q120.765 478.729 122.593 480.905 Q124.445 483.057 127.593 483.057 Q130.742 483.057 132.57 480.905 Q134.422 478.729 134.422 475.002 Q134.422 471.252 132.57 469.099 Q130.742 466.946 127.593 466.946 M136.876 452.294 L136.876 456.553 Q135.117 455.719 133.311 455.28 Q131.529 454.84 129.769 454.84 Q125.14 454.84 122.686 457.965 Q120.255 461.09 119.908 467.409 Q121.274 465.395 123.334 464.331 Q125.394 463.243 127.871 463.243 Q133.08 463.243 136.089 466.414 Q139.121 469.562 139.121 475.002 Q139.121 480.326 135.973 483.543 Q132.825 486.761 127.593 486.761 Q121.598 486.761 118.427 482.178 Q115.256 477.571 115.256 468.844 Q115.256 460.65 119.144 455.789 Q123.033 450.905 129.584 450.905 Q131.343 450.905 133.126 451.252 Q134.931 451.599 136.876 452.294 Z" fill="#000000" fill-rule="nonzero" fill-opacity="1"></path><path clip-path="url(#clip280)" d="M157.177 454.608 Q153.566 454.608 151.737 458.173 Q149.931 461.715 149.931 468.844 Q149.931 475.951 151.737 479.516 Q153.566 483.057 157.177 483.057 Q160.811 483.057 162.616 479.516 Q164.445 475.951 164.445 468.844 Q164.445 461.715 162.616 458.173 Q160.811 454.608 157.177 454.608 M157.177 450.905 Q162.987 450.905 166.042 455.511 Q169.121 460.094 169.121 468.844 Q169.121 477.571 166.042 482.178 Q162.987 486.761 157.177 486.761 Q151.366 486.761 148.288 482.178 Q145.232 477.571 145.232 468.844 Q145.232 460.094 148.288 455.511 Q151.366 450.905 157.177 450.905 Z" fill="#000000" fill-rule="nonzero" fill-opacity="1"></path><path clip-path="url(#clip280)" d="M187.338 454.608 Q183.727 454.608 181.899 458.173 Q180.093 461.715 180.093 468.844 Q180.093 475.951 181.899 479.516 Q183.727 483.057 187.338 483.057 Q190.973 483.057 192.778 479.516 Q194.607 475.951 194.607 468.844 Q194.607 461.715 192.778 458.173 Q190.973 454.608 187.338 454.608 M187.338 450.905 Q193.149 450.905 196.204 455.511 Q199.283 460.094 199.283 468.844 Q199.283 477.571 196.204 482.178 Q193.149 486.761 187.338 486.761 Q181.528 486.761 178.45 482.178 Q175.394 477.571 175.394 468.844 Q175.394 460.094 178.45 455.511 Q181.528 450.905 187.338 450.905 Z" fill="#000000" fill-rule="nonzero" fill-opacity="1"></path><path clip-path="url(#clip280)" d="M127.015 164.628 Q123.681 164.628 121.76 166.411 Q119.862 168.193 119.862 171.318 Q119.862 174.443 121.76 176.226 Q123.681 178.008 127.015 178.008 Q130.348 178.008 132.269 176.226 Q134.191 174.42 134.191 171.318 Q134.191 168.193 132.269 166.411 Q130.371 164.628 127.015 164.628 M122.339 162.638 Q119.33 161.897 117.64 159.837 Q115.973 157.777 115.973 154.814 Q115.973 150.67 118.913 148.263 Q121.876 145.855 127.015 145.855 Q132.177 145.855 135.117 148.263 Q138.056 150.67 138.056 154.814 Q138.056 157.777 136.367 159.837 Q134.7 161.897 131.714 162.638 Q135.093 163.425 136.968 165.716 Q138.867 168.008 138.867 171.318 Q138.867 176.341 135.788 179.026 Q132.732 181.712 127.015 181.712 Q121.297 181.712 118.218 179.026 Q115.163 176.341 115.163 171.318 Q115.163 168.008 117.061 165.716 Q118.959 163.425 122.339 162.638 M120.626 155.253 Q120.626 157.939 122.293 159.443 Q123.982 160.948 127.015 160.948 Q130.024 160.948 131.714 159.443 Q133.427 157.939 133.427 155.253 Q133.427 152.568 131.714 151.064 Q130.024 149.559 127.015 149.559 Q123.982 149.559 122.293 151.064 Q120.626 152.568 120.626 155.253 Z" fill="#000000" fill-rule="nonzero" fill-opacity="1"></path><path clip-path="url(#clip280)" d="M157.177 149.559 Q153.566 149.559 151.737 153.124 Q149.931 156.666 149.931 163.795 Q149.931 170.902 151.737 174.466 Q153.566 178.008 157.177 178.008 Q160.811 178.008 162.616 174.466 Q164.445 170.902 164.445 163.795 Q164.445 156.666 162.616 153.124 Q160.811 149.559 157.177 149.559 M157.177 145.855 Q162.987 145.855 166.042 150.462 Q169.121 155.045 169.121 163.795 Q169.121 172.522 166.042 177.128 Q162.987 181.712 157.177 181.712 Q151.366 181.712 148.288 177.128 Q145.232 172.522 145.232 163.795 Q145.232 155.045 148.288 150.462 Q151.366 145.855 157.177 145.855 Z" fill="#000000" fill-rule="nonzero" fill-opacity="1"></path><path clip-path="url(#clip280)" d="M187.338 149.559 Q183.727 149.559 181.899 153.124 Q180.093 156.666 180.093 163.795 Q180.093 170.902 181.899 174.466 Q183.727 178.008 187.338 178.008 Q190.973 178.008 192.778 174.466 Q194.607 170.902 194.607 163.795 Q194.607 156.666 192.778 153.124 Q190.973 149.559 187.338 149.559 M187.338 145.855 Q193.149 145.855 196.204 150.462 Q199.283 155.045 199.283 163.795 Q199.283 172.522 196.204 177.128 Q193.149 181.712 187.338 181.712 Q181.528 181.712 178.45 177.128 Q175.394 172.522 175.394 163.795 Q175.394 155.045 178.45 150.462 Q181.528 145.855 187.338 145.855 Z" fill="#000000" fill-rule="nonzero" fill-opacity="1"></path><path clip-path="url(#clip280)" d="M44.7161 911.525 L47.5806 911.525 L47.5806 938.452 Q53.6281 938.07 56.8109 934.824 Q59.9619 931.546 59.9619 925.721 Q59.9619 922.347 59.1344 919.196 Q58.3069 916.013 56.6518 912.894 L62.1899 912.894 Q63.5267 916.045 64.227 919.355 Q64.9272 922.665 64.9272 926.071 Q64.9272 934.601 59.9619 939.598 Q54.9967 944.563 46.5303 944.563 Q37.7774 944.563 32.6531 939.853 Q27.4968 935.11 27.4968 927.09 Q27.4968 919.896 32.1438 915.727 Q36.7589 911.525 44.7161 911.525 M42.9973 917.382 Q38.1912 917.446 35.3266 920.087 Q32.4621 922.697 32.4621 927.026 Q32.4621 931.928 35.2312 934.888 Q38.0002 937.816 43.0292 938.261 L42.9973 917.382 Z" fill="#000000" fill-rule="nonzero" fill-opacity="1"></path><path clip-path="url(#clip280)" d="M28.3562 873.427 L45.7028 886.317 L64.0042 872.758 L64.0042 879.665 L49.9996 890.041 L64.0042 900.417 L64.0042 907.324 L45.3526 893.479 L28.3562 906.146 L28.3562 899.24 L41.0558 889.787 L28.3562 880.334 L28.3562 873.427 Z" fill="#000000" fill-rule="nonzero" fill-opacity="1"></path><path clip-path="url(#clip280)" d="M58.657 858.817 L77.5631 858.817 L77.5631 864.706 L28.3562 864.706 L28.3562 858.817 L33.7671 858.817 Q30.5842 856.971 29.0564 854.17 Q27.4968 851.338 27.4968 847.423 Q27.4968 840.93 32.6531 836.888 Q37.8093 832.814 46.212 832.814 Q54.6147 832.814 59.771 836.888 Q64.9272 840.93 64.9272 847.423 Q64.9272 851.338 63.3994 854.17 Q61.8398 856.971 58.657 858.817 M46.212 838.893 Q39.7508 838.893 36.0905 841.566 Q32.3984 844.208 32.3984 848.855 Q32.3984 853.502 36.0905 856.176 Q39.7508 858.817 46.212 858.817 Q52.6732 858.817 56.3653 856.176 Q60.0256 853.502 60.0256 848.855 Q60.0256 844.208 56.3653 841.566 Q52.6732 838.893 46.212 838.893 Z" fill="#000000" fill-rule="nonzero" fill-opacity="1"></path><path clip-path="url(#clip280)" d="M33.8307 802.449 Q33.2578 803.436 33.0032 804.613 Q32.7167 805.759 32.7167 807.16 Q32.7167 812.125 35.9632 814.799 Q39.1779 817.44 45.2253 817.44 L64.0042 817.44 L64.0042 823.329 L28.3562 823.329 L28.3562 817.44 L33.8944 817.44 Q30.6479 815.594 29.0883 812.634 Q27.4968 809.674 27.4968 805.441 Q27.4968 804.836 27.5923 804.104 Q27.656 803.372 27.8151 802.481 L33.8307 802.449 Z" fill="#000000" fill-rule="nonzero" fill-opacity="1"></path><path clip-path="url(#clip280)" d="M44.7161 767.247 L47.5806 767.247 L47.5806 794.174 Q53.6281 793.792 56.8109 790.545 Q59.9619 787.267 59.9619 781.442 Q59.9619 778.068 59.1344 774.917 Q58.3069 771.735 56.6518 768.615 L62.1899 768.615 Q63.5267 771.766 64.227 775.077 Q64.9272 778.387 64.9272 781.792 Q64.9272 790.322 59.9619 795.32 Q54.9967 800.285 46.5303 800.285 Q37.7774 800.285 32.6531 795.574 Q27.4968 790.832 27.4968 782.811 Q27.4968 775.618 32.1438 771.448 Q36.7589 767.247 44.7161 767.247 M42.9973 773.103 Q38.1912 773.167 35.3266 775.809 Q32.4621 778.419 32.4621 782.747 Q32.4621 787.649 35.2312 790.609 Q38.0002 793.537 43.0292 793.983 L42.9973 773.103 Z" fill="#000000" fill-rule="nonzero" fill-opacity="1"></path><path clip-path="url(#clip280)" d="M29.4065 734.909 L34.9447 734.909 Q33.6716 737.392 33.035 740.065 Q32.3984 742.739 32.3984 745.603 Q32.3984 749.964 33.7352 752.16 Q35.072 754.324 37.7456 754.324 Q39.7826 754.324 40.9603 752.765 Q42.1061 751.205 43.1565 746.495 L43.6021 744.489 Q44.9389 738.251 47.3897 735.641 Q49.8086 732.999 54.1691 732.999 Q59.1344 732.999 62.0308 736.946 Q64.9272 740.861 64.9272 747.736 Q64.9272 750.6 64.3543 753.72 Q63.8132 756.807 62.6992 760.244 L56.6518 760.244 Q58.3387 756.998 59.198 753.847 Q60.0256 750.696 60.0256 747.609 Q60.0256 743.471 58.6251 741.243 Q57.1929 739.015 54.6147 739.015 Q52.2276 739.015 50.9545 740.638 Q49.6813 742.23 48.5037 747.672 L48.0262 749.709 Q46.8804 755.152 44.5251 757.571 Q42.138 759.99 38.0002 759.99 Q32.9713 759.99 30.2341 756.425 Q27.4968 752.86 27.4968 746.304 Q27.4968 743.057 27.9743 740.192 Q28.4517 737.328 29.4065 734.909 Z" fill="#000000" fill-rule="nonzero" fill-opacity="1"></path><path clip-path="url(#clip280)" d="M29.4065 700.948 L34.9447 700.948 Q33.6716 703.431 33.035 706.104 Q32.3984 708.778 32.3984 711.642 Q32.3984 716.003 33.7352 718.199 Q35.072 720.363 37.7456 720.363 Q39.7826 720.363 40.9603 718.804 Q42.1061 717.244 43.1565 712.533 L43.6021 710.528 Q44.9389 704.29 47.3897 701.68 Q49.8086 699.038 54.1691 699.038 Q59.1344 699.038 62.0308 702.985 Q64.9272 706.9 64.9272 713.775 Q64.9272 716.639 64.3543 719.759 Q63.8132 722.846 62.6992 726.283 L56.6518 726.283 Q58.3387 723.037 59.198 719.886 Q60.0256 716.735 60.0256 713.647 Q60.0256 709.51 58.6251 707.282 Q57.1929 705.054 54.6147 705.054 Q52.2276 705.054 50.9545 706.677 Q49.6813 708.268 48.5037 713.711 L48.0262 715.748 Q46.8804 721.191 44.5251 723.61 Q42.138 726.029 38.0002 726.029 Q32.9713 726.029 30.2341 722.464 Q27.4968 718.899 27.4968 712.343 Q27.4968 709.096 27.9743 706.231 Q28.4517 703.367 29.4065 700.948 Z" fill="#000000" fill-rule="nonzero" fill-opacity="1"></path><path clip-path="url(#clip280)" d="M28.3562 689.712 L28.3562 683.856 L64.0042 683.856 L64.0042 689.712 L28.3562 689.712 M14.479 689.712 L14.479 683.856 L21.895 683.856 L21.895 689.712 L14.479 689.712 Z" fill="#000000" fill-rule="nonzero" fill-opacity="1"></path><path clip-path="url(#clip280)" d="M32.4621 657.788 Q32.4621 662.499 36.1542 665.236 Q39.8145 667.974 46.212 667.974 Q52.6095 667.974 56.3017 665.268 Q59.9619 662.531 59.9619 657.788 Q59.9619 653.11 56.2698 650.372 Q52.5777 647.635 46.212 647.635 Q39.8781 647.635 36.186 650.372 Q32.4621 653.11 32.4621 657.788 M27.4968 657.788 Q27.4968 650.15 32.4621 645.789 Q37.4273 641.429 46.212 641.429 Q54.9649 641.429 59.9619 645.789 Q64.9272 650.15 64.9272 657.788 Q64.9272 665.459 59.9619 669.82 Q54.9649 674.148 46.212 674.148 Q37.4273 674.148 32.4621 669.82 Q27.4968 665.459 27.4968 657.788 Z" fill="#000000" fill-rule="nonzero" fill-opacity="1"></path><path clip-path="url(#clip280)" d="M42.4881 602.088 L64.0042 602.088 L64.0042 607.945 L42.679 607.945 Q37.6183 607.945 35.1038 609.918 Q32.5894 611.892 32.5894 615.838 Q32.5894 620.581 35.6131 623.318 Q38.6368 626.055 43.8567 626.055 L64.0042 626.055 L64.0042 631.944 L28.3562 631.944 L28.3562 626.055 L33.8944 626.055 Q30.6797 623.955 29.0883 621.122 Q27.4968 618.257 27.4968 614.533 Q27.4968 608.391 31.3163 605.24 Q35.1038 602.088 42.4881 602.088 Z" fill="#000000" fill-rule="nonzero" fill-opacity="1"></path><path clip-path="url(#clip280)" d="M878.457 12.096 L910.581 12.096 L910.581 18.9825 L885.952 18.9825 L885.952 33.8088 Q887.734 33.2012 889.516 32.9176 Q891.299 32.5936 893.081 32.5936 Q903.208 32.5936 909.123 38.1433 Q915.037 43.6931 915.037 53.1722 Q915.037 62.9348 908.961 68.3631 Q902.884 73.7508 891.825 73.7508 Q888.018 73.7508 884.048 73.1026 Q880.118 72.4545 875.905 71.1582 L875.905 62.9348 Q879.551 64.9198 883.44 65.892 Q887.329 66.8642 891.663 66.8642 Q898.671 66.8642 902.763 63.1779 Q906.854 59.4916 906.854 53.1722 Q906.854 46.8528 902.763 43.1664 Q898.671 39.4801 891.663 39.4801 Q888.382 39.4801 885.101 40.2093 Q881.86 40.9384 878.457 42.4778 L878.457 12.096 Z" fill="#000000" fill-rule="nonzero" fill-opacity="1"></path><path clip-path="url(#clip280)" d="M974.059 32.4315 Q968.063 32.4315 964.58 37.1306 Q961.096 41.7891 961.096 49.9314 Q961.096 58.0738 964.539 62.7728 Q968.023 67.4314 974.059 67.4314 Q980.014 67.4314 983.497 62.7323 Q986.981 58.0333 986.981 49.9314 Q986.981 41.8701 983.497 37.1711 Q980.014 32.4315 974.059 32.4315 M974.059 26.1121 Q983.781 26.1121 989.331 32.4315 Q994.88 38.7509 994.88 49.9314 Q994.88 61.0714 989.331 67.4314 Q983.781 73.7508 974.059 73.7508 Q964.296 73.7508 958.746 67.4314 Q953.237 61.0714 953.237 49.9314 Q953.237 38.7509 958.746 32.4315 Q964.296 26.1121 974.059 26.1121 Z" fill="#000000" fill-rule="nonzero" fill-opacity="1"></path><path clip-path="url(#clip280)" d="M1036.16 28.5427 L1036.16 35.5912 Q1033 33.9709 1029.6 33.1607 Q1026.19 32.3505 1022.55 32.3505 Q1017 32.3505 1014.2 34.0519 Q1011.45 35.7533 1011.45 39.156 Q1011.45 41.7486 1013.43 43.2475 Q1015.42 44.7058 1021.41 46.0426 L1023.97 46.6097 Q1031.91 48.3111 1035.23 51.4303 Q1038.59 54.509 1038.59 60.0587 Q1038.59 66.3781 1033.57 70.0644 Q1028.58 73.7508 1019.83 73.7508 Q1016.19 73.7508 1012.22 73.0216 Q1008.29 72.3329 1003.91 70.9151 L1003.91 63.2184 Q1008.05 65.3654 1012.06 66.4591 Q1016.07 67.5124 1020 67.5124 Q1025.26 67.5124 1028.1 65.73 Q1030.93 63.9071 1030.93 60.6258 Q1030.93 57.5877 1028.87 55.9673 Q1026.84 54.3469 1019.91 52.8481 L1017.32 52.2405 Q1010.4 50.7821 1007.32 47.7845 Q1004.24 44.7463 1004.24 39.4801 Q1004.24 33.0797 1008.77 29.5959 Q1013.31 26.1121 1021.66 26.1121 Q1025.79 26.1121 1029.43 26.7198 Q1033.08 27.3274 1036.16 28.5427 Z" fill="#000000" fill-rule="nonzero" fill-opacity="1"></path><path clip-path="url(#clip280)" d="M1083.11 28.9478 L1083.11 35.9153 Q1079.95 34.1734 1076.75 33.3227 Q1073.59 32.4315 1070.35 32.4315 Q1063.1 32.4315 1059.09 37.0496 Q1055.08 41.6271 1055.08 49.9314 Q1055.08 58.2358 1059.09 62.8538 Q1063.1 67.4314 1070.35 67.4314 Q1073.59 67.4314 1076.75 66.5807 Q1079.95 65.6895 1083.11 63.9476 L1083.11 70.8341 Q1079.99 72.2924 1076.63 73.0216 Q1073.31 73.7508 1069.54 73.7508 Q1059.29 73.7508 1053.25 67.3098 Q1047.22 60.8689 1047.22 49.9314 Q1047.22 38.832 1053.29 32.472 Q1059.41 26.1121 1070.02 26.1121 Q1073.47 26.1121 1076.75 26.8413 Q1080.03 27.5299 1083.11 28.9478 Z" fill="#000000" fill-rule="nonzero" fill-opacity="1"></path><path clip-path="url(#clip280)" d="M1096.07 27.2059 L1103.53 27.2059 L1103.53 72.576 L1096.07 72.576 L1096.07 27.2059 M1096.07 9.54393 L1103.53 9.54393 L1103.53 18.9825 L1096.07 18.9825 L1096.07 9.54393 Z" fill="#000000" fill-rule="nonzero" fill-opacity="1"></path><path clip-path="url(#clip280)" d="M1119.12 9.54393 L1126.58 9.54393 L1126.58 72.576 L1119.12 72.576 L1119.12 9.54393 Z" fill="#000000" fill-rule="nonzero" fill-opacity="1"></path><path clip-path="url(#clip280)" d="M1162.79 49.7694 Q1153.76 49.7694 1150.27 51.8354 Q1146.79 53.9013 1146.79 58.8839 Q1146.79 62.8538 1149.38 65.2034 Q1152.01 67.5124 1156.51 67.5124 Q1162.71 67.5124 1166.44 63.1374 Q1170.2 58.7219 1170.2 51.4303 L1170.2 49.7694 L1162.79 49.7694 M1177.66 46.6907 L1177.66 72.576 L1170.2 72.576 L1170.2 65.6895 Q1167.65 69.8214 1163.84 71.8063 Q1160.04 73.7508 1154.53 73.7508 Q1147.56 73.7508 1143.43 69.8619 Q1139.34 65.9325 1139.34 59.3701 Q1139.34 51.7138 1144.44 47.825 Q1149.58 43.9361 1159.75 43.9361 L1170.2 43.9361 L1170.2 43.2069 Q1170.2 38.0623 1166.8 35.2672 Q1163.44 32.4315 1157.32 32.4315 Q1153.43 32.4315 1149.75 33.3632 Q1146.06 34.295 1142.66 36.1584 L1142.66 29.2718 Q1146.75 27.692 1150.6 26.9223 Q1154.45 26.1121 1158.09 26.1121 Q1167.93 26.1121 1172.8 31.2163 Q1177.66 36.3204 1177.66 46.6907 Z" fill="#000000" fill-rule="nonzero" fill-opacity="1"></path><path clip-path="url(#clip280)" d="M1200.38 14.324 L1200.38 27.2059 L1215.74 27.2059 L1215.74 32.9987 L1200.38 32.9987 L1200.38 57.6282 Q1200.38 63.1779 1201.88 64.7578 Q1203.42 66.3376 1208.08 66.3376 L1215.74 66.3376 L1215.74 72.576 L1208.08 72.576 Q1199.45 72.576 1196.17 69.3758 Q1192.89 66.1351 1192.89 57.6282 L1192.89 32.9987 L1187.42 32.9987 L1187.42 27.2059 L1192.89 27.2059 L1192.89 14.324 L1200.38 14.324 Z" fill="#000000" fill-rule="nonzero" fill-opacity="1"></path><path clip-path="url(#clip280)" d="M1225.54 27.2059 L1232.99 27.2059 L1232.99 72.576 L1225.54 72.576 L1225.54 27.2059 M1225.54 9.54393 L1232.99 9.54393 L1232.99 18.9825 L1225.54 18.9825 L1225.54 9.54393 Z" fill="#000000" fill-rule="nonzero" fill-opacity="1"></path><path clip-path="url(#clip280)" d="M1266.17 32.4315 Q1260.17 32.4315 1256.69 37.1306 Q1253.21 41.7891 1253.21 49.9314 Q1253.21 58.0738 1256.65 62.7728 Q1260.13 67.4314 1266.17 67.4314 Q1272.12 67.4314 1275.61 62.7323 Q1279.09 58.0333 1279.09 49.9314 Q1279.09 41.8701 1275.61 37.1711 Q1272.12 32.4315 1266.17 32.4315 M1266.17 26.1121 Q1275.89 26.1121 1281.44 32.4315 Q1286.99 38.7509 1286.99 49.9314 Q1286.99 61.0714 1281.44 67.4314 Q1275.89 73.7508 1266.17 73.7508 Q1256.41 73.7508 1250.86 67.4314 Q1245.35 61.0714 1245.35 49.9314 Q1245.35 38.7509 1250.86 32.4315 Q1256.41 26.1121 1266.17 26.1121 Z" fill="#000000" fill-rule="nonzero" fill-opacity="1"></path><path clip-path="url(#clip280)" d="M1337.06 45.1919 L1337.06 72.576 L1329.61 72.576 L1329.61 45.4349 Q1329.61 38.994 1327.1 35.7938 Q1324.58 32.5936 1319.56 32.5936 Q1313.52 32.5936 1310.04 36.4419 Q1306.56 40.2903 1306.56 46.9338 L1306.56 72.576 L1299.06 72.576 L1299.06 27.2059 L1306.56 27.2059 L1306.56 34.2544 Q1309.23 30.163 1312.84 28.1376 Q1316.48 26.1121 1321.22 26.1121 Q1329.04 26.1121 1333.05 30.9732 Q1337.06 35.7938 1337.06 45.1919 Z" fill="#000000" fill-rule="nonzero" fill-opacity="1"></path><path clip-path="url(#clip280)" d="M1380.85 28.5427 L1380.85 35.5912 Q1377.69 33.9709 1374.29 33.1607 Q1370.89 32.3505 1367.24 32.3505 Q1361.69 32.3505 1358.89 34.0519 Q1356.14 35.7533 1356.14 39.156 Q1356.14 41.7486 1358.12 43.2475 Q1360.11 44.7058 1366.11 46.0426 L1368.66 46.6097 Q1376.6 48.3111 1379.92 51.4303 Q1383.28 54.509 1383.28 60.0587 Q1383.28 66.3781 1378.26 70.0644 Q1373.28 73.7508 1364.53 73.7508 Q1360.88 73.7508 1356.91 73.0216 Q1352.98 72.3329 1348.61 70.9151 L1348.61 63.2184 Q1352.74 65.3654 1356.75 66.4591 Q1360.76 67.5124 1364.69 67.5124 Q1369.95 67.5124 1372.79 65.73 Q1375.62 63.9071 1375.62 60.6258 Q1375.62 57.5877 1373.56 55.9673 Q1371.53 54.3469 1364.61 52.8481 L1362.01 52.2405 Q1355.09 50.7821 1352.01 47.7845 Q1348.93 44.7463 1348.93 39.4801 Q1348.93 33.0797 1353.47 29.5959 Q1358 26.1121 1366.35 26.1121 Q1370.48 26.1121 1374.13 26.7198 Q1377.77 27.3274 1380.85 28.5427 Z" fill="#000000" fill-rule="nonzero" fill-opacity="1"></path><path clip-path="url(#clip280)" d="M1451.38 34.0924 L1451.38 9.54393 L1458.83 9.54393 L1458.83 72.576 L1451.38 72.576 L1451.38 65.7705 Q1449.03 69.8214 1445.42 71.8063 Q1441.86 73.7508 1436.83 73.7508 Q1428.61 73.7508 1423.43 67.1883 Q1418.28 60.6258 1418.28 49.9314 Q1418.28 39.2371 1423.43 32.6746 Q1428.61 26.1121 1436.83 26.1121 Q1441.86 26.1121 1445.42 28.0971 Q1449.03 30.0415 1451.38 34.0924 M1425.98 49.9314 Q1425.98 58.1548 1429.34 62.8538 Q1432.74 67.5124 1438.66 67.5124 Q1444.57 67.5124 1447.97 62.8538 Q1451.38 58.1548 1451.38 49.9314 Q1451.38 41.7081 1447.97 37.0496 Q1444.57 32.3505 1438.66 32.3505 Q1432.74 32.3505 1429.34 37.0496 Q1425.98 41.7081 1425.98 49.9314 Z" fill="#000000" fill-rule="nonzero" fill-opacity="1"></path><path clip-path="url(#clip280)" d="M1512.99 48.0275 L1512.99 51.6733 L1478.72 51.6733 Q1479.21 59.3701 1483.34 63.421 Q1487.51 67.4314 1494.92 67.4314 Q1499.22 67.4314 1503.23 66.3781 Q1507.28 65.3249 1511.25 63.2184 L1511.25 70.267 Q1507.24 71.9684 1503.03 72.8596 Q1498.81 73.7508 1494.48 73.7508 Q1483.62 73.7508 1477.26 67.4314 Q1470.94 61.1119 1470.94 50.3365 Q1470.94 39.1965 1476.94 32.6746 Q1482.97 26.1121 1493.18 26.1121 Q1502.34 26.1121 1507.64 32.0264 Q1512.99 37.9003 1512.99 48.0275 M1505.54 45.84 Q1505.46 39.7232 1502.09 36.0774 Q1498.77 32.4315 1493.26 32.4315 Q1487.02 32.4315 1483.26 35.9558 Q1479.53 39.4801 1478.96 45.8805 L1505.54 45.84 Z" fill="#000000" fill-rule="nonzero" fill-opacity="1"></path><path clip-path="url(#clip280)" d="M1554.15 28.5427 L1554.15 35.5912 Q1550.99 33.9709 1547.59 33.1607 Q1544.18 32.3505 1540.54 32.3505 Q1534.99 32.3505 1532.19 34.0519 Q1529.44 35.7533 1529.44 39.156 Q1529.44 41.7486 1531.42 43.2475 Q1533.41 44.7058 1539.4 46.0426 L1541.95 46.6097 Q1549.89 48.3111 1553.22 51.4303 Q1556.58 54.509 1556.58 60.0587 Q1556.58 66.3781 1551.56 70.0644 Q1546.57 73.7508 1537.82 73.7508 Q1534.18 73.7508 1530.21 73.0216 Q1526.28 72.3329 1521.9 70.9151 L1521.9 63.2184 Q1526.03 65.3654 1530.05 66.4591 Q1534.06 67.5124 1537.99 67.5124 Q1543.25 67.5124 1546.09 65.73 Q1548.92 63.9071 1548.92 60.6258 Q1548.92 57.5877 1546.86 55.9673 Q1544.83 54.3469 1537.9 52.8481 L1535.31 52.2405 Q1528.38 50.7821 1525.31 47.7845 Q1522.23 44.7463 1522.23 39.4801 Q1522.23 33.0797 1526.76 29.5959 Q1531.3 26.1121 1539.65 26.1121 Q1543.78 26.1121 1547.42 26.7198 Q1551.07 27.3274 1554.15 28.5427 Z" fill="#000000" fill-rule="nonzero" fill-opacity="1"></path><path clip-path="url(#clip280)" d="M1568.45 27.2059 L1575.9 27.2059 L1575.9 72.576 L1568.45 72.576 L1568.45 27.2059 M1568.45 9.54393 L1575.9 9.54393 L1575.9 18.9825 L1568.45 18.9825 L1568.45 9.54393 Z" fill="#000000" fill-rule="nonzero" fill-opacity="1"></path><path clip-path="url(#clip280)" d="M1617.79 34.1734 Q1616.53 33.4443 1615.03 33.1202 Q1613.57 32.7556 1611.79 32.7556 Q1605.47 32.7556 1602.07 36.8875 Q1598.71 40.9789 1598.71 48.6757 L1598.71 72.576 L1591.21 72.576 L1591.21 27.2059 L1598.71 27.2059 L1598.71 34.2544 Q1601.06 30.1225 1604.83 28.1376 Q1608.59 26.1121 1613.98 26.1121 Q1614.75 26.1121 1615.68 26.2337 Q1616.61 26.3147 1617.75 26.5172 L1617.79 34.1734 Z" fill="#000000" fill-rule="nonzero" fill-opacity="1"></path><path clip-path="url(#clip280)" d="M1662.59 48.0275 L1662.59 51.6733 L1628.32 51.6733 Q1628.81 59.3701 1632.94 63.421 Q1637.11 67.4314 1644.52 67.4314 Q1648.82 67.4314 1652.83 66.3781 Q1656.88 65.3249 1660.85 63.2184 L1660.85 70.267 Q1656.84 71.9684 1652.63 72.8596 Q1648.41 73.7508 1644.08 73.7508 Q1633.22 73.7508 1626.86 67.4314 Q1620.54 61.1119 1620.54 50.3365 Q1620.54 39.1965 1626.54 32.6746 Q1632.57 26.1121 1642.78 26.1121 Q1651.94 26.1121 1657.24 32.0264 Q1662.59 37.9003 1662.59 48.0275 M1655.14 45.84 Q1655.06 39.7232 1651.69 36.0774 Q1648.37 32.4315 1642.86 32.4315 Q1636.62 32.4315 1632.86 35.9558 Q1629.13 39.4801 1628.56 45.8805 L1655.14 45.84 Z" fill="#000000" fill-rule="nonzero" fill-opacity="1"></path><path clip-path="url(#clip280)" d="M1704.68 34.0924 L1704.68 9.54393 L1712.13 9.54393 L1712.13 72.576 L1704.68 72.576 L1704.68 65.7705 Q1702.33 69.8214 1698.72 71.8063 Q1695.16 73.7508 1690.14 73.7508 Q1681.91 73.7508 1676.73 67.1883 Q1671.58 60.6258 1671.58 49.9314 Q1671.58 39.2371 1676.73 32.6746 Q1681.91 26.1121 1690.14 26.1121 Q1695.16 26.1121 1698.72 28.0971 Q1702.33 30.0415 1704.68 34.0924 M1679.28 49.9314 Q1679.28 58.1548 1682.64 62.8538 Q1686.05 67.5124 1691.96 67.5124 Q1697.87 67.5124 1701.28 62.8538 Q1704.68 58.1548 1704.68 49.9314 Q1704.68 41.7081 1701.28 37.0496 Q1697.87 32.3505 1691.96 32.3505 Q1686.05 32.3505 1682.64 37.0496 Q1679.28 41.7081 1679.28 49.9314 Z" fill="#000000" fill-rule="nonzero" fill-opacity="1"></path><polyline clip-path="url(#clip282)" style="stroke:#009af9; stroke-linecap:round; stroke-linejoin:round; stroke-width:4; stroke-opacity:1; fill:none" points="295.211,303.868 297.209,296.269 299.207,282.583 301.204,290.837 303.202,280.601 305.199,257.073 307.197,228.744 309.195,219.516 311.192,238.492 313.19,256.59 315.187,289.377 317.185,239.76 319.183,224.697 321.18,224.094 323.178,287.745 325.176,368.21 327.173,445.114 329.171,506.897 331.168,586.479 333.166,633.908 335.164,690.806 337.161,739.061 339.159,803.494 341.157,847.073 343.154,881.825 345.152,924.299 347.149,962.251 349.147,991.575 351.145,1018.89 353.142,1036.78 355.14,1065.72 357.137,1084.18 359.135,1096.31 361.133,1118.17 363.13,1134.67 365.128,1145.06 367.126,1158.16 369.123,1175.68 371.121,1195.06 373.118,1207.15 375.116,1219.61 377.114,1224.83 379.111,1227.57 381.109,1235.7 383.106,1244.26 385.104,1252.96 387.102,1265.7 389.099,1282.53 391.097,1288.27 393.095,1292.92 395.092,1300.96 397.09,1303.12 399.087,1311.65 401.085,1324.41 403.083,1326.33 405.08,1333.17 407.078,1334.36 409.075,1339.8 411.073,1343.45 413.071,1350.02 415.068,1349.74 417.066,1351.53 419.064,1353.59 421.061,1356.25 423.059,1358.8 425.056,1360.12 427.054,1364.46 429.052,1368.51 431.049,1370.67 433.047,1373.09 435.044,1374.54 437.042,1375.4 439.04,1376.22 441.037,1376.32 443.035,1377.07 445.033,1377.38 447.03,1378.64 449.028,1378.5 451.025,1379.24 453.023,1379.38 455.021,1379.55 457.018,1379.64 459.016,1379.41 461.013,1380.18 463.011,1379.85 465.009,1379.66 467.006,1379.99 469.004,1379.71 471.002,1380.24 472.999,1380.62 474.997,1379.88 476.994,1381.07 478.992,1381.18 480.99,1381.29 482.987,1381.44 484.985,1381.57 486.982,1381.4 488.98,1381.66 490.978,1380.98 492.975,1381.05 494.973,1381.33 496.971,1382.25 498.968,1382.57 500.966,1382.86 502.963,1382.94 504.961,1383.33 506.959,1383.17 508.956,1383.62 510.954,1383.75 512.951,1383.7 514.949,1383.42 516.947,1383.08 518.944,1383.02 520.942,1383.49 522.94,1382.97 524.937,1382.9 526.935,1382.31 528.932,1382.08 530.93,1382.28 532.928,1381.54 534.925,1381.25 536.923,1381.56 538.92,1381.43 540.918,1382.41 542.916,1382.43 544.913,1382.54 546.911,1382.04 548.909,1382.74 550.906,1382.34 552.904,1382.17 554.901,1382.13 556.899,1382.15 558.897,1382.16 560.894,1382.17 562.892,1382.01 564.89,1380.76 566.887,1380.09 568.885,1379.92 570.882,1379.44 572.88,1378.3 574.878,1380.16 576.875,1382.25 578.873,1381.81 580.87,1381.2 582.868,1378.19 584.866,1376.13 586.863,1373.84 588.861,1369.63 590.859,1370.34 592.856,1359.81 594.854,1339.29 596.851,1310.42 598.849,1258.57 600.847,1184.26 602.844,1122.78 604.842,1041.43 606.839,969.048 608.837,926.349 610.835,879.755 612.832,817.724 614.83,766.389 616.828,732.573 618.825,671.099 620.823,635.559 622.82,609.078 624.818,595.667 626.816,556.564 628.813,548.419 630.811,522.969 632.808,487.367 634.806,474.132 636.804,426.663 638.801,397.876 640.799,396.001 642.797,375.521 644.794,382.76 646.792,372.32 648.789,361.735 650.787,351.593 652.785,360.732 654.782,341.354 656.78,344.479 658.777,316.763 660.775,318.057 662.773,296.47 664.77,301.39 666.768,271.385 668.766,260.939 670.763,274.361 672.761,289.348 674.758,271 676.756,263.25 678.754,239.513 680.751,255.273 682.749,282.323 684.746,242.626 686.744,243.08 688.742,251.321 690.739,219.685 692.737,218.695 694.735,197.685 696.732,201.986 698.73,163.005 700.727,178.754 702.725,187.385 704.723,183.102 706.72,163.983 708.718,184.847 710.715,182.629 712.713,160.256 714.711,166.651 716.708,194.197 718.706,275.306 720.704,334.986 722.701,397.182 724.699,462.573 726.696,523.686 728.694,590.255 730.692,632.298 732.689,686.205 734.687,723.042 736.684,775.346 738.682,814.907 740.68,857.144 742.677,885.134 744.675,909.443 746.673,935.096 748.67,969.182 750.668,997.455 752.665,1025.56 754.663,1061.32 756.661,1085.96 758.658,1113.82 760.656,1134.4 762.653,1149.12 764.651,1169.57 766.649,1171.78 768.646,1189.05 770.644,1199.19 772.642,1218.43 774.639,1228.35 776.637,1233.17 778.634,1237.72 780.632,1241.68 782.63,1248.12 784.627,1257.47 786.625,1268.69 788.623,1270.33 790.62,1275.38 792.618,1287.56 794.615,1292.7 796.613,1297.87 798.611,1304.56 800.608,1313.28 802.606,1317.76 804.603,1322.63 806.601,1326.56 808.599,1330.09 810.596,1331.86 812.594,1334.16 814.592,1339.97 816.589,1343.89 818.587,1349.1 820.584,1351.63 822.582,1357.93 824.58,1360.87 826.577,1360.38 828.575,1361.82 830.572,1358.98 832.57,1357.02 834.568,1357.75 836.565,1356.75 838.563,1357.4 840.561,1360.63 842.558,1362.78 844.556,1368.5 846.553,1369.65 848.551,1369.87 850.549,1370.3 852.546,1369.72 854.544,1370.25 856.541,1370.34 858.539,1371.52 860.537,1371.79 862.534,1375.65 864.532,1377.22 866.53,1378.12 868.527,1378.4 870.525,1380.05 872.522,1380.78 874.52,1382.1 876.518,1381.87 878.515,1381.89 880.513,1382.31 882.51,1381.87 884.508,1381.52 886.506,1380.79 888.503,1381.07 890.501,1382.25 892.499,1381.71 894.496,1382.42 896.494,1382.73 898.491,1382.85 900.489,1382.79 902.487,1383.63 904.484,1383.93 906.482,1383.81 908.479,1383.88 910.477,1383.92 912.475,1383.92 914.472,1383.95 916.47,1383.93 918.468,1383.94 920.465,1383.95 922.463,1384 924.46,1383.99 926.458,1384.07 928.456,1384.09 930.453,1384 932.451,1383.96 934.448,1383.97 936.446,1383.92 938.444,1383.98 940.441,1384.04 942.439,1383.98 944.437,1384.02 946.434,1384.03 948.432,1384.11 950.429,1384.22 952.427,1384.3 954.425,1384.26 956.422,1384.31 958.42,1384.24 960.417,1384.09 962.415,1383.7 964.413,1383.75 966.41,1383.7 968.408,1383.58 970.406,1383.26 972.403,1383.13 974.401,1383.26 976.398,1383.01 978.396,1382.66 980.394,1382.63 982.391,1382.44 984.389,1382.16 986.386,1382.5 988.384,1382.47 990.382,1383.71 992.379,1383.57 994.377,1383.02 996.375,1381.78 998.372,1380.27 1000.37,1379.65 1002.37,1379.9 1004.37,1379.42 1006.36,1380.93 1008.36,1379.68 1010.36,1380.6 1012.36,1378.58 1014.35,1377.58 1016.35,1377.36 1018.35,1378.01 1020.35,1368.56 1022.34,1362.73 1024.34,1362.43 1026.34,1357.9 1028.34,1354.69 1030.33,1334.65 1032.33,1317.08 1034.33,1280.45 1036.33,1256.03 1038.32,1230.77 1040.32,1214.96 1042.32,1175.89 1044.32,1137.22 1046.31,1095.16 1048.31,1047.45 1050.31,994.676 1052.31,939.303 1054.31,895.64 1056.3,856.04 1058.3,811.963 1060.3,744.113 1062.3,722.281 1064.29,683.274 1066.29,656.235 1068.29,630.279 1070.29,589.436 1072.28,563.707 1074.28,553.379 1076.28,559.773 1078.28,528.902 1080.27,517.904 1082.27,463.847 1084.27,439.319 1086.27,395.503 1088.26,406.296 1090.26,395.007 1092.26,391.502 1094.26,380.861 1096.26,392.2 1098.25,379.136 1100.25,378.699 1102.25,351.148 1104.25,326.112 1106.24,311.334 1108.24,311.218 1110.24,291.512 1112.24,274.159 1114.23,262.83 1116.23,263.748 1118.23,251.686 1120.23,231.295 1122.22,256.133 1124.22,273.004 1126.22,240.016 1128.22,237.317 1130.21,220.564 1132.21,215.063 1134.21,184.085 1136.21,185.986 1138.21,187.325 1140.2,171.595 1142.2,177.518 1144.2,174.708 1146.2,193.65 1148.19,212.75 1150.19,230.65 1152.19,241.699 1154.19,233.798 1156.18,246.162 1158.18,283.523 1160.18,356.289 1162.18,446.52 1164.17,516.617 1166.17,594.243 1168.17,652.335 1170.17,716.901 1172.16,766.593 1174.16,805 1176.16,842.114 1178.16,890.597 1180.16,925.132 1182.15,953.22 1184.15,985.606 1186.15,1025.45 1188.15,1064.44 1190.14,1078.47 1192.14,1101.23 1194.14,1122.8 1196.14,1148.15 1198.13,1164.2 1200.13,1180.99 1202.13,1199.98 1204.13,1210.97 1206.12,1219.81 1208.12,1225.19 1210.12,1233.36 1212.12,1241.6 1214.11,1247.16 1216.11,1258.74 1218.11,1263.54 1220.11,1269.62 1222.11,1274.62 1224.1,1276.44 1226.1,1285.62 1228.1,1292.31 1230.1,1299.08 1232.09,1306.28 1234.09,1305.37 1236.09,1312.45 1238.09,1320.61 1240.08,1324.04 1242.08,1322.96 1244.08,1324.38 1246.08,1328.03 1248.07,1332.74 1250.07,1335.57 1252.07,1341.88 1254.07,1347.18 1256.06,1351.62 1258.06,1351.62 1260.06,1351.83 1262.06,1356.26 1264.06,1355.29 1266.05,1357.26 1268.05,1359.55 1270.05,1362.65 1272.05,1361.59 1274.04,1365.44 1276.04,1366.48 1278.04,1365.8 1280.04,1366.19 1282.03,1368.22 1284.03,1366.32 1286.03,1366.99 1288.03,1369.31 1290.02,1369.54 1292.02,1370.78 1294.02,1372.98 1296.02,1374.3 1298.01,1376.02 1300.01,1377.31 1302.01,1376.27 1304.01,1376.39 1306.01,1375.72 1308,1376.97 1310,1377.1 1312,1377.95 1314,1377.42 1315.99,1377.28 1317.99,1378.11 1319.99,1378.32 1321.99,1378.69 1323.98,1379.66 1325.98,1379.55 1327.98,1380.05 1329.98,1380.56 1331.97,1380.17 1333.97,1379.91 1335.97,1379.82 1337.97,1380.54 1339.96,1380.71 1341.96,1380.25 1343.96,1380.2 1345.96,1381.76 1347.96,1381.65 1349.95,1381.6 1351.95,1381.51 1353.95,1381.54 1355.95,1381.74 1357.94,1381.62 1359.94,1382.31 1361.94,1382.02 1363.94,1381.69 1365.93,1382.16 1367.93,1381.94 1369.93,1382.54 1371.93,1382.97 1373.92,1382.92 1375.92,1383.03 1377.92,1382.81 1379.92,1383.06 1381.91,1383.02 1383.91,1382.76 1385.91,1382.73 1387.91,1382.93 1389.9,1382.87 1391.9,1383.53 1393.9,1383.83 1395.9,1384.06 1397.9,1384.09 1399.89,1383.84 1401.89,1383.86 1403.89,1383.88 1405.89,1383.67 1407.88,1383.64 1409.88,1384.08 1411.88,1384.07 1413.88,1383.69 1415.87,1383.62 1417.87,1383.44 1419.87,1383.29 1421.87,1383.07 1423.86,1381.04 1425.86,1382.83 1427.86,1382.95 1429.86,1377.2 1431.85,1372.93 1433.85,1347.71 1435.85,1340.44 1437.85,1339.41 1439.85,1332.75 1441.84,1328.24 1443.84,1296.54 1445.84,1269.41 1447.84,1231.42 1449.83,1213.68 1451.83,1151.36 1453.83,1086.77 1455.83,1024.41 1457.82,982.696 1459.82,950.255 1461.82,934.073 1463.82,913.617 1465.81,862.87 1467.81,824.612 1469.81,829.467 1471.81,840.789 1473.8,801 1475.8,749.053 1477.8,721.613 1479.8,707.073 1481.8,688.672 1483.79,663.034 1485.79,641.425 1487.79,627.557 1489.79,591.891 1491.78,544.787 1493.78,508.832 1495.78,484.964 1497.78,472.139 1499.77,443.367 1501.77,417.429 1503.77,416.594 1505.77,417.134 1507.76,398.037 1509.76,389.785 1511.76,371.629 1513.76,332.484 1515.75,348.456 1517.75,356.315 1519.75,338.35 1521.75,344.716 1523.75,347.807 1525.74,355.412 1527.74,358.081 1529.74,369.036 1531.74,338.737 1533.73,363.795 1535.73,352.317 1537.73,350.694 1539.73,320.257 1541.72,296.894 1543.72,306.623 1545.72,289.435 1547.72,293.999 1549.71,302.966 1551.71,295.133 1553.71,302.334 1555.71,305.568 1557.7,321.687 1559.7,320.896 1561.7,350.702 1563.7,416.015 1565.7,489.118 1567.69,548.182 1569.69,613.262 1571.69,673.242 1573.69,736.774 1575.68,772.779 1577.68,814.31 1579.68,853.218 1581.68,903.181 1583.67,932.289 1585.67,960.698 1587.67,993.195 1589.67,1034.21 1591.66,1052.02 1593.66,1080.55 1595.66,1092.57 1597.66,1108.12 1599.65,1122.9 1601.65,1141.17 1603.65,1154.11 1605.65,1175.81 1607.65,1192.42 1609.64,1206.96 1611.64,1213 1613.64,1232 1615.64,1239.79 1617.63,1254.66 1619.63,1260.48 1621.63,1266.15 1623.63,1273.02 1625.62,1278.75 1627.62,1288.96 1629.62,1291.92 1631.62,1297.72 1633.61,1299.66 1635.61,1302.33 1637.61,1303.78 1639.61,1307.43 1641.6,1312.72 1643.6,1317.69 1645.6,1325.3 1647.6,1324.34 1649.6,1326.7 1651.59,1330.74 1653.59,1333.87 1655.59,1336.48 1657.59,1335.99 1659.58,1342.4 1661.58,1347.48 1663.58,1350.11 1665.58,1351.63 1667.57,1354.38 1669.57,1358.2 1671.57,1358.91 1673.57,1362.07 1675.56,1364.77 1677.56,1365.04 1679.56,1364.63 1681.56,1363.32 1683.55,1365.95 1685.55,1367.34 1687.55,1367.89 1689.55,1366.93 1691.54,1367.22 1693.54,1367.57 1695.54,1368.24 1697.54,1370.11 1699.54,1369.78 1701.53,1369.62 1703.53,1371.2 1705.53,1371.3 1707.53,1371.61 1709.52,1371.92 1711.52,1370.97 1713.52,1371.81 1715.52,1370.83 1717.51,1374.08 1719.51,1373.79 1721.51,1376.21 1723.51,1375.28 1725.5,1375.84 1727.5,1378 1729.5,1378.34 1731.5,1379.49 1733.49,1379.97 1735.49,1380.73 1737.49,1380.33 1739.49,1381.2 1741.49,1381.24 1743.48,1382.04 1745.48,1382.37 1747.48,1383.05 1749.48,1383.14 1751.47,1383.47 1753.47,1383.67 1755.47,1383.75 1757.47,1384 1759.46,1384 1761.46,1383.96 1763.46,1383.94 1765.46,1384.02 1767.45,1384.13 1769.45,1383.98 1771.45,1383.96 1773.45,1383.96 1775.44,1383.97 1777.44,1383.98 1779.44,1384.08 1781.44,1383.98 1783.44,1383.98 1785.43,1384.01 1787.43,1383.94 1789.43,1383.87 1791.43,1383.73 1793.42,1383.81 1795.42,1383.73 1797.42,1383.68 1799.42,1383.93 1801.41,1383.87 1803.41,1383.94 1805.41,1383.9 1807.41,1383.84 1809.4,1383.82 1811.4,1383.9 1813.4,1384 1815.4,1383.87 1817.39,1383.88 1819.39,1383.99 1821.39,1384.02 1823.39,1383.73 1825.39,1383.79 1827.38,1383.85 1829.38,1383.68 1831.38,1384.31 1833.38,1384.56 1835.37,1384.42 1837.37,1383.98 1839.37,1384.05 1841.37,1384.61 1843.36,1384.47 1845.36,1384.89 1847.36,1384.97 1849.36,1385.02 1851.35,1385.4 1853.35,1384.74 1855.35,1385.61 1857.35,1385.35 1859.34,1385.48 1861.34,1385.65 1863.34,1386.4 1865.34,1386.05 1867.34,1383.66 1869.33,1381.64 1871.33,1378.44 1873.33,1372.18 1875.33,1366.82 1877.32,1350.68 1879.32,1330.92 1881.32,1319.75 1883.32,1296.71 1885.31,1282.97 1887.31,1254.54 1889.31,1228.26 1891.31,1182.59 1893.3,1123.2 1895.3,1064.48 1897.3,1025.31 1899.3,974.809 1901.29,921.239 1903.29,884.673 1905.29,846.169 1907.29,810.017 1909.29,791.35 1911.28,754.459 1913.28,725.535 1915.28,715.349 1917.28,670.699 1919.27,641.808 1921.27,616.13 1923.27,577.574 1925.27,550.394 1927.26,537.14 1929.26,497.686 1931.26,499.123 1933.26,479.072 1935.25,457.018 1937.25,437.664 1939.25,431.099 1941.25,422.065 1943.24,417.869 1945.24,412.809 1947.24,398.215 1949.24,412.487 1951.24,397.051 1953.23,367.597 1955.23,366.302 1957.23,338.461 1959.23,340.967 1961.22,324.979 1963.22,327.895 1965.22,325.182 1967.22,324.702 1969.21,325.994 1971.21,321.859 1973.21,308.91 1975.21,297.325 1977.2,257.9 1979.2,242.109 1981.2,240.523 1983.2,225.515 1985.19,210.125 1987.19,206.661 1989.19,213.2 1991.19,213.533 1993.19,188.092 1995.18,211.422 1997.18,224.273 1999.18,219.836 2001.18,195.043 2003.17,219.651 2005.17,239.118 2007.17,238.623 2009.17,240.556 2011.16,273.474 2013.16,328.892 2015.16,399.564 2017.16,458.367 2019.15,531.583 2021.15,599.427 2023.15,658.692 2025.15,715.276 2027.14,769.768 2029.14,809.843 2031.14,852.902 2033.14,873.901 2035.13,911.857 2037.13,947.419 2039.13,972.577 2041.13,997.321 2043.13,1018.3 2045.12,1054.91 2047.12,1079.67 2049.12,1104 2051.12,1122.99 2053.11,1137.59 2055.11,1146.69 2057.11,1166.56 2059.11,1174.67 2061.1,1193.14 2063.1,1202.48 2065.1,1211.07 2067.1,1225.64 2069.09,1240.71 2071.09,1254.55 2073.09,1259.47 2075.09,1267.47 2077.08,1274.66 2079.08,1282.49 2081.08,1293.16 2083.08,1297.16 2085.08,1299.12 2087.07,1307.3 2089.07,1315.63 2091.07,1320.24 2093.07,1322.8 2095.06,1329.63 2097.06,1330.91 2099.06,1331.25 2101.06,1337.84 2103.05,1341.58 2105.05,1342.45 2107.05,1346.16 2109.05,1345.17 2111.04,1351.53 2113.04,1351.84 2115.04,1353.84 2117.04,1352.04 2119.03,1356.91 2121.03,1361.16 2123.03,1365.72 2125.03,1367.33 2127.03,1367.66 2129.02,1368.71 2131.02,1370.7 2133.02,1372.65 2135.02,1373.66 2137.01,1375.4 2139.01,1377.11 2141.01,1378.16 2143.01,1379.74 2145,1379.83 2147,1379.79 2149,1382.29 2151,1382.19 2152.99,1382.32 2154.99,1382.06 2156.99,1382.97 2158.99,1383.35 2160.98,1383.58 2162.98,1383.8 2164.98,1383.85 2166.98,1383.8 2168.98,1383.73 2170.97,1383.65 2172.97,1383.65 2174.97,1383.69 2176.97,1383.93 2178.96,1383.9 2180.96,1383.95 2182.96,1384 2184.96,1383.91 2186.95,1383.84 2188.95,1383.86 2190.95,1383.91 2192.95,1383.72 2194.94,1383.88 2196.94,1383.78 2198.94,1383.98 2200.94,1384.02 2202.93,1384.04 2204.93,1383.94 2206.93,1383.96 2208.93,1383.98 2210.93,1383.99 2212.92,1384.02 2214.92,1384.01 2216.92,1384.09 2218.92,1383.81 2220.91,1383.99 2222.91,1384.02 2224.91,1384.04 2226.91,1384.01 2228.9,1383.99 2230.9,1384.08 2232.9,1383.89 2234.9,1383.73 2236.89,1383.77 2238.89,1384.03 2240.89,1383.83 2242.89,1383.53 2244.88,1383.36 2246.88,1383.53 2248.88,1383.49 2250.88,1383 2252.88,1383.75 2254.87,1384.32 2256.87,1383.83 2258.87,1380.1 2260.87,1378.82 2262.86,1374.23 2264.86,1367.48 2266.86,1349.51 2268.86,1329.77 2270.85,1308.68 2272.85,1262.41 2274.85,1212.81 2276.85,1189.01 2278.84,1158.24 2280.84,1122.3 2282.84,1075.55 2284.84,1004.05 2286.83,943.72 2288.83,893.696 2290.83,828.993 2292.83,773.864 "></polyline>
</svg>