<svg xmlns="http://www.w3.org/2000/svg" xmlns:xlink="http://www.w3.org/1999/xlink" width="600" height="400" viewBox="0 0 2400 1600">
<defs>
  <clipPath id="clip920">
    <rect x="0" y="0" width="2400" height="1600"></rect>
  </clipPath>
</defs>
<path clip-path="url(#clip920)" d="M0 1600 L2400 1600 L2400 8.88178e-14 L0 8.88178e-14  Z" fill="#ffffff" fill-rule="evenodd" fill-opacity="1"></path>
<defs>
  <clipPath id="clip921">
    <rect x="480" y="0" width="1681" height="1600"></rect>
  </clipPath>
</defs>
<path clip-path="url(#clip920)" d="M235.283 1423.18 L2352.76 1423.18 L2352.76 123.472 L235.283 123.472  Z" fill="#ffffff" fill-rule="evenodd" fill-opacity="1"></path>
<defs>
  <clipPath id="clip922">
    <rect x="235" y="123" width="2118" height="1301"></rect>
  </clipPath>
</defs>
<polyline clip-path="url(#clip922)" style="stroke:#000000; stroke-linecap:round; stroke-linejoin:round; stroke-width:2; stroke-opacity:0.1; fill:none" points="293.214,1423.18 293.214,123.472 "></polyline>
<polyline clip-path="url(#clip922)" style="stroke:#000000; stroke-linecap:round; stroke-linejoin:round; stroke-width:2; stroke-opacity:0.1; fill:none" points="792.618,1423.18 792.618,123.472 "></polyline>
<polyline clip-path="url(#clip922)" style="stroke:#000000; stroke-linecap:round; stroke-linejoin:round; stroke-width:2; stroke-opacity:0.1; fill:none" points="1292.02,1423.18 1292.02,123.472 "></polyline>
<polyline clip-path="url(#clip922)" style="stroke:#000000; stroke-linecap:round; stroke-linejoin:round; stroke-width:2; stroke-opacity:0.1; fill:none" points="1791.43,1423.18 1791.43,123.472 "></polyline>
<polyline clip-path="url(#clip922)" style="stroke:#000000; stroke-linecap:round; stroke-linejoin:round; stroke-width:2; stroke-opacity:0.1; fill:none" points="2290.83,1423.18 2290.83,123.472 "></polyline>
<polyline clip-path="url(#clip922)" style="stroke:#000000; stroke-linecap:round; stroke-linejoin:round; stroke-width:2; stroke-opacity:0.1; fill:none" points="235.283,1383.93 2352.76,1383.93 "></polyline>
<polyline clip-path="url(#clip922)" style="stroke:#000000; stroke-linecap:round; stroke-linejoin:round; stroke-width:2; stroke-opacity:0.1; fill:none" points="235.283,1159.15 2352.76,1159.15 "></polyline>
<polyline clip-path="url(#clip922)" style="stroke:#000000; stroke-linecap:round; stroke-linejoin:round; stroke-width:2; stroke-opacity:0.1; fill:none" points="235.283,934.379 2352.76,934.379 "></polyline>
<polyline clip-path="url(#clip922)" style="stroke:#000000; stroke-linecap:round; stroke-linejoin:round; stroke-width:2; stroke-opacity:0.1; fill:none" points="235.283,709.605 2352.76,709.605 "></polyline>
<polyline clip-path="url(#clip922)" style="stroke:#000000; stroke-linecap:round; stroke-linejoin:round; stroke-width:2; stroke-opacity:0.1; fill:none" points="235.283,484.831 2352.76,484.831 "></polyline>
<polyline clip-path="url(#clip922)" style="stroke:#000000; stroke-linecap:round; stroke-linejoin:round; stroke-width:2; stroke-opacity:0.1; fill:none" points="235.283,260.056 2352.76,260.056 "></polyline>
<polyline clip-path="url(#clip920)" style="stroke:#000000; stroke-linecap:round; stroke-linejoin:round; stroke-width:4; stroke-opacity:1; fill:none" points="235.283,1423.18 2352.76,1423.18 "></polyline>
<polyline clip-path="url(#clip920)" style="stroke:#000000; stroke-linecap:round; stroke-linejoin:round; stroke-width:4; stroke-opacity:1; fill:none" points="293.214,1423.18 293.214,1404.28 "></polyline>
<polyline clip-path="url(#clip920)" style="stroke:#000000; stroke-linecap:round; stroke-linejoin:round; stroke-width:4; stroke-opacity:1; fill:none" points="792.618,1423.18 792.618,1404.28 "></polyline>
<polyline clip-path="url(#clip920)" style="stroke:#000000; stroke-linecap:round; stroke-linejoin:round; stroke-width:4; stroke-opacity:1; fill:none" points="1292.02,1423.18 1292.02,1404.28 "></polyline>
<polyline clip-path="url(#clip920)" style="stroke:#000000; stroke-linecap:round; stroke-linejoin:round; stroke-width:4; stroke-opacity:1; fill:none" points="1791.43,1423.18 1791.43,1404.28 "></polyline>
<polyline clip-path="url(#clip920)" style="stroke:#000000; stroke-linecap:round; stroke-linejoin:round; stroke-width:4; stroke-opacity:1; fill:none" points="2290.83,1423.18 2290.83,1404.28 "></polyline>
<path clip-path="url(#clip920)" d="M293.214 1454.1 Q289.603 1454.1 287.774 1457.66 Q285.968 1461.2 285.968 1468.33 Q285.968 1475.44 287.774 1479.01 Q289.603 1482.55 293.214 1482.55 Q296.848 1482.55 298.654 1479.01 Q300.482 1475.44 300.482 1468.33 Q300.482 1461.2 298.654 1457.66 Q296.848 1454.1 293.214 1454.1 M293.214 1450.39 Q299.024 1450.39 302.079 1455 Q305.158 1459.58 305.158 1468.33 Q305.158 1477.06 302.079 1481.67 Q299.024 1486.25 293.214 1486.25 Q287.404 1486.25 284.325 1481.67 Q281.269 1477.06 281.269 1468.33 Q281.269 1459.58 284.325 1455 Q287.404 1450.39 293.214 1450.39 Z" fill="#000000" fill-rule="nonzero" fill-opacity="1"></path><path clip-path="url(#clip920)" d="M756.31 1481.64 L772.629 1481.64 L772.629 1485.58 L750.685 1485.58 L750.685 1481.64 Q753.347 1478.89 757.93 1474.26 Q762.537 1469.61 763.717 1468.27 Q765.963 1465.74 766.842 1464.01 Q767.745 1462.25 767.745 1460.56 Q767.745 1457.8 765.801 1456.07 Q763.879 1454.33 760.778 1454.33 Q758.579 1454.33 756.125 1455.09 Q753.694 1455.86 750.917 1457.41 L750.917 1452.69 Q753.741 1451.55 756.194 1450.97 Q758.648 1450.39 760.685 1450.39 Q766.055 1450.39 769.25 1453.08 Q772.444 1455.77 772.444 1460.26 Q772.444 1462.39 771.634 1464.31 Q770.847 1466.2 768.741 1468.8 Q768.162 1469.47 765.06 1472.69 Q761.958 1475.88 756.31 1481.64 Z" fill="#000000" fill-rule="nonzero" fill-opacity="1"></path><path clip-path="url(#clip920)" d="M782.49 1451.02 L800.847 1451.02 L800.847 1454.96 L786.773 1454.96 L786.773 1463.43 Q787.791 1463.08 788.81 1462.92 Q789.828 1462.73 790.847 1462.73 Q796.634 1462.73 800.014 1465.9 Q803.393 1469.08 803.393 1474.49 Q803.393 1480.07 799.921 1483.17 Q796.449 1486.25 790.129 1486.25 Q787.953 1486.25 785.685 1485.88 Q783.44 1485.51 781.032 1484.77 L781.032 1480.07 Q783.115 1481.2 785.338 1481.76 Q787.56 1482.32 790.037 1482.32 Q794.041 1482.32 796.379 1480.21 Q798.717 1478.1 798.717 1474.49 Q798.717 1470.88 796.379 1468.77 Q794.041 1466.67 790.037 1466.67 Q788.162 1466.67 786.287 1467.08 Q784.435 1467.5 782.49 1468.38 L782.49 1451.02 Z" fill="#000000" fill-rule="nonzero" fill-opacity="1"></path><path clip-path="url(#clip920)" d="M822.606 1454.1 Q818.995 1454.1 817.166 1457.66 Q815.361 1461.2 815.361 1468.33 Q815.361 1475.44 817.166 1479.01 Q818.995 1482.55 822.606 1482.55 Q826.24 1482.55 828.046 1479.01 Q829.874 1475.44 829.874 1468.33 Q829.874 1461.2 828.046 1457.66 Q826.24 1454.1 822.606 1454.1 M822.606 1450.39 Q828.416 1450.39 831.472 1455 Q834.55 1459.58 834.55 1468.33 Q834.55 1477.06 831.472 1481.67 Q828.416 1486.25 822.606 1486.25 Q816.796 1486.25 813.717 1481.67 Q810.662 1477.06 810.662 1468.33 Q810.662 1459.58 813.717 1455 Q816.796 1450.39 822.606 1450.39 Z" fill="#000000" fill-rule="nonzero" fill-opacity="1"></path><path clip-path="url(#clip920)" d="M1251.64 1451.02 L1270 1451.02 L1270 1454.96 L1255.92 1454.96 L1255.92 1463.43 Q1256.94 1463.08 1257.96 1462.92 Q1258.98 1462.73 1260 1462.73 Q1265.78 1462.73 1269.16 1465.9 Q1272.54 1469.08 1272.54 1474.49 Q1272.54 1480.07 1269.07 1483.17 Q1265.6 1486.25 1259.28 1486.25 Q1257.1 1486.25 1254.83 1485.88 Q1252.59 1485.51 1250.18 1484.77 L1250.18 1480.07 Q1252.27 1481.2 1254.49 1481.76 Q1256.71 1482.32 1259.19 1482.32 Q1263.19 1482.32 1265.53 1480.21 Q1267.87 1478.1 1267.87 1474.49 Q1267.87 1470.88 1265.53 1468.77 Q1263.19 1466.67 1259.19 1466.67 Q1257.31 1466.67 1255.44 1467.08 Q1253.58 1467.5 1251.64 1468.38 L1251.64 1451.02 Z" fill="#000000" fill-rule="nonzero" fill-opacity="1"></path><path clip-path="url(#clip920)" d="M1291.76 1454.1 Q1288.14 1454.1 1286.32 1457.66 Q1284.51 1461.2 1284.51 1468.33 Q1284.51 1475.44 1286.32 1479.01 Q1288.14 1482.55 1291.76 1482.55 Q1295.39 1482.55 1297.2 1479.01 Q1299.02 1475.44 1299.02 1468.33 Q1299.02 1461.2 1297.2 1457.66 Q1295.39 1454.1 1291.76 1454.1 M1291.76 1450.39 Q1297.57 1450.39 1300.62 1455 Q1303.7 1459.58 1303.7 1468.33 Q1303.7 1477.06 1300.62 1481.67 Q1297.57 1486.25 1291.76 1486.25 Q1285.95 1486.25 1282.87 1481.67 Q1279.81 1477.06 1279.81 1468.33 Q1279.81 1459.58 1282.87 1455 Q1285.95 1450.39 1291.76 1450.39 Z" fill="#000000" fill-rule="nonzero" fill-opacity="1"></path><path clip-path="url(#clip920)" d="M1321.92 1454.1 Q1318.31 1454.1 1316.48 1457.66 Q1314.67 1461.2 1314.67 1468.33 Q1314.67 1475.44 1316.48 1479.01 Q1318.31 1482.55 1321.92 1482.55 Q1325.55 1482.55 1327.36 1479.01 Q1329.19 1475.44 1329.19 1468.33 Q1329.19 1461.2 1327.36 1457.66 Q1325.55 1454.1 1321.92 1454.1 M1321.92 1450.39 Q1327.73 1450.39 1330.78 1455 Q1333.86 1459.58 1333.86 1468.33 Q1333.86 1477.06 1330.78 1481.67 Q1327.73 1486.25 1321.92 1486.25 Q1316.11 1486.25 1313.03 1481.67 Q1309.97 1477.06 1309.97 1468.33 Q1309.97 1459.58 1313.03 1455 Q1316.11 1450.39 1321.92 1450.39 Z" fill="#000000" fill-rule="nonzero" fill-opacity="1"></path><path clip-path="url(#clip920)" d="M1749.7 1451.02 L1771.92 1451.02 L1771.92 1453.01 L1759.38 1485.58 L1754.49 1485.58 L1766.3 1454.96 L1749.7 1454.96 L1749.7 1451.02 Z" fill="#000000" fill-rule="nonzero" fill-opacity="1"></path><path clip-path="url(#clip920)" d="M1781.09 1451.02 L1799.45 1451.02 L1799.45 1454.96 L1785.37 1454.96 L1785.37 1463.43 Q1786.39 1463.08 1787.41 1462.92 Q1788.43 1462.73 1789.45 1462.73 Q1795.23 1462.73 1798.61 1465.9 Q1801.99 1469.08 1801.99 1474.49 Q1801.99 1480.07 1798.52 1483.17 Q1795.05 1486.25 1788.73 1486.25 Q1786.55 1486.25 1784.28 1485.88 Q1782.04 1485.51 1779.63 1484.77 L1779.63 1480.07 Q1781.72 1481.2 1783.94 1481.76 Q1786.16 1482.32 1788.64 1482.32 Q1792.64 1482.32 1794.98 1480.21 Q1797.32 1478.1 1797.32 1474.49 Q1797.32 1470.88 1794.98 1468.77 Q1792.64 1466.67 1788.64 1466.67 Q1786.76 1466.67 1784.89 1467.08 Q1783.03 1467.5 1781.09 1468.38 L1781.09 1451.02 Z" fill="#000000" fill-rule="nonzero" fill-opacity="1"></path><path clip-path="url(#clip920)" d="M1821.21 1454.1 Q1817.59 1454.1 1815.77 1457.66 Q1813.96 1461.2 1813.96 1468.33 Q1813.96 1475.44 1815.77 1479.01 Q1817.59 1482.55 1821.21 1482.55 Q1824.84 1482.55 1826.65 1479.01 Q1828.47 1475.44 1828.47 1468.33 Q1828.47 1461.2 1826.65 1457.66 Q1824.84 1454.1 1821.21 1454.1 M1821.21 1450.39 Q1827.02 1450.39 1830.07 1455 Q1833.15 1459.58 1833.15 1468.33 Q1833.15 1477.06 1830.07 1481.67 Q1827.02 1486.25 1821.21 1486.25 Q1815.4 1486.25 1812.32 1481.67 Q1809.26 1477.06 1809.26 1468.33 Q1809.26 1459.58 1812.32 1455 Q1815.4 1450.39 1821.21 1450.39 Z" fill="#000000" fill-rule="nonzero" fill-opacity="1"></path><path clip-path="url(#clip920)" d="M2235.36 1481.64 L2242.99 1481.64 L2242.99 1455.28 L2234.68 1456.95 L2234.68 1452.69 L2242.95 1451.02 L2247.62 1451.02 L2247.62 1481.64 L2255.26 1481.64 L2255.26 1485.58 L2235.36 1485.58 L2235.36 1481.64 Z" fill="#000000" fill-rule="nonzero" fill-opacity="1"></path><path clip-path="url(#clip920)" d="M2274.71 1454.1 Q2271.1 1454.1 2269.27 1457.66 Q2267.46 1461.2 2267.46 1468.33 Q2267.46 1475.44 2269.27 1479.01 Q2271.1 1482.55 2274.71 1482.55 Q2278.34 1482.55 2280.15 1479.01 Q2281.98 1475.44 2281.98 1468.33 Q2281.98 1461.2 2280.15 1457.66 Q2278.34 1454.1 2274.71 1454.1 M2274.71 1450.39 Q2280.52 1450.39 2283.57 1455 Q2286.65 1459.58 2286.65 1468.33 Q2286.65 1477.06 2283.57 1481.67 Q2280.52 1486.25 2274.71 1486.25 Q2268.9 1486.25 2265.82 1481.67 Q2262.76 1477.06 2262.76 1468.33 Q2262.76 1459.58 2265.82 1455 Q2268.9 1450.39 2274.71 1450.39 Z" fill="#000000" fill-rule="nonzero" fill-opacity="1"></path><path clip-path="url(#clip920)" d="M2304.87 1454.1 Q2301.26 1454.1 2299.43 1457.66 Q2297.62 1461.2 2297.62 1468.33 Q2297.62 1475.44 2299.43 1479.01 Q2301.26 1482.55 2304.87 1482.55 Q2308.5 1482.55 2310.31 1479.01 Q2312.14 1475.44 2312.14 1468.33 Q2312.14 1461.2 2310.31 1457.66 Q2308.5 1454.1 2304.87 1454.1 M2304.87 1450.39 Q2310.68 1450.39 2313.73 1455 Q2316.81 1459.58 2316.81 1468.33 Q2316.81 1477.06 2313.73 1481.67 Q2310.68 1486.25 2304.87 1486.25 Q2299.06 1486.25 2295.98 1481.67 Q2292.92 1477.06 2292.92 1468.33 Q2292.92 1459.58 2295.98 1455 Q2299.06 1450.39 2304.87 1450.39 Z" fill="#000000" fill-rule="nonzero" fill-opacity="1"></path><path clip-path="url(#clip920)" d="M2335.03 1454.1 Q2331.42 1454.1 2329.59 1457.66 Q2327.79 1461.2 2327.79 1468.33 Q2327.79 1475.44 2329.59 1479.01 Q2331.42 1482.55 2335.03 1482.55 Q2338.67 1482.55 2340.47 1479.01 Q2342.3 1475.44 2342.3 1468.33 Q2342.3 1461.2 2340.47 1457.66 Q2338.67 1454.1 2335.03 1454.1 M2335.03 1450.39 Q2340.84 1450.39 2343.9 1455 Q2346.98 1459.58 2346.98 1468.33 Q2346.98 1477.06 2343.9 1481.67 Q2340.84 1486.25 2335.03 1486.25 Q2329.22 1486.25 2326.14 1481.67 Q2323.09 1477.06 2323.09 1468.33 Q2323.09 1459.58 2326.14 1455 Q2329.22 1450.39 2335.03 1450.39 Z" fill="#000000" fill-rule="nonzero" fill-opacity="1"></path><path clip-path="url(#clip920)" d="M1233.18 1522.27 L1233.18 1532.4 L1245.24 1532.4 L1245.24 1536.95 L1233.18 1536.95 L1233.18 1556.3 Q1233.18 1560.66 1234.36 1561.9 Q1235.57 1563.14 1239.23 1563.14 L1245.24 1563.14 L1245.24 1568.04 L1239.23 1568.04 Q1232.45 1568.04 1229.87 1565.53 Q1227.29 1562.98 1227.29 1556.3 L1227.29 1536.95 L1222.99 1536.95 L1222.99 1532.4 L1227.29 1532.4 L1227.29 1522.27 L1233.18 1522.27 Z" fill="#000000" fill-rule="nonzero" fill-opacity="1"></path><path clip-path="url(#clip920)" d="M1252.94 1532.4 L1258.8 1532.4 L1258.8 1568.04 L1252.94 1568.04 L1252.94 1532.4 M1252.94 1518.52 L1258.8 1518.52 L1258.8 1525.93 L1252.94 1525.93 L1252.94 1518.52 Z" fill="#000000" fill-rule="nonzero" fill-opacity="1"></path><path clip-path="url(#clip920)" d="M1298.81 1539.24 Q1301.01 1535.29 1304.06 1533.41 Q1307.12 1531.54 1311.25 1531.54 Q1316.82 1531.54 1319.85 1535.45 Q1322.87 1539.33 1322.87 1546.53 L1322.87 1568.04 L1316.98 1568.04 L1316.98 1546.72 Q1316.98 1541.59 1315.17 1539.11 Q1313.36 1536.63 1309.63 1536.63 Q1305.08 1536.63 1302.44 1539.65 Q1299.8 1542.68 1299.8 1547.9 L1299.8 1568.04 L1293.91 1568.04 L1293.91 1546.72 Q1293.91 1541.56 1292.09 1539.11 Q1290.28 1536.63 1286.49 1536.63 Q1282 1536.63 1279.36 1539.68 Q1276.72 1542.71 1276.72 1547.9 L1276.72 1568.04 L1270.83 1568.04 L1270.83 1532.4 L1276.72 1532.4 L1276.72 1537.93 Q1278.73 1534.66 1281.53 1533.1 Q1284.33 1531.54 1288.18 1531.54 Q1292.06 1531.54 1294.77 1533.51 Q1297.5 1535.48 1298.81 1539.24 Z" fill="#000000" fill-rule="nonzero" fill-opacity="1"></path><path clip-path="url(#clip920)" d="M1365.04 1548.76 L1365.04 1551.62 L1338.12 1551.62 Q1338.5 1557.67 1341.75 1560.85 Q1345.02 1564 1350.85 1564 Q1354.22 1564 1357.37 1563.17 Q1360.56 1562.35 1363.68 1560.69 L1363.68 1566.23 Q1360.53 1567.57 1357.21 1568.27 Q1353.9 1568.97 1350.5 1568.97 Q1341.97 1568.97 1336.97 1564 Q1332.01 1559.04 1332.01 1550.57 Q1332.01 1541.82 1336.72 1536.69 Q1341.46 1531.54 1349.48 1531.54 Q1356.67 1531.54 1360.84 1536.18 Q1365.04 1540.8 1365.04 1548.76 M1359.19 1547.04 Q1359.12 1542.23 1356.48 1539.37 Q1353.87 1536.5 1349.54 1536.5 Q1344.64 1536.5 1341.68 1539.27 Q1338.75 1542.04 1338.31 1547.07 L1359.19 1547.04 Z" fill="#000000" fill-rule="nonzero" fill-opacity="1"></path><polyline clip-path="url(#clip920)" style="stroke:#000000; stroke-linecap:round; stroke-linejoin:round; stroke-width:4; stroke-opacity:1; fill:none" points="235.283,1423.18 235.283,123.472 "></polyline>
<polyline clip-path="url(#clip920)" style="stroke:#000000; stroke-linecap:round; stroke-linejoin:round; stroke-width:4; stroke-opacity:1; fill:none" points="235.283,1383.93 254.18,1383.93 "></polyline>
<polyline clip-path="url(#clip920)" style="stroke:#000000; stroke-linecap:round; stroke-linejoin:round; stroke-width:4; stroke-opacity:1; fill:none" points="235.283,1159.15 254.18,1159.15 "></polyline>
<polyline clip-path="url(#clip920)" style="stroke:#000000; stroke-linecap:round; stroke-linejoin:round; stroke-width:4; stroke-opacity:1; fill:none" points="235.283,934.379 254.18,934.379 "></polyline>
<polyline clip-path="url(#clip920)" style="stroke:#000000; stroke-linecap:round; stroke-linejoin:round; stroke-width:4; stroke-opacity:1; fill:none" points="235.283,709.605 254.18,709.605 "></polyline>
<polyline clip-path="url(#clip920)" style="stroke:#000000; stroke-linecap:round; stroke-linejoin:round; stroke-width:4; stroke-opacity:1; fill:none" points="235.283,484.831 254.18,484.831 "></polyline>
<polyline clip-path="url(#clip920)" style="stroke:#000000; stroke-linecap:round; stroke-linejoin:round; stroke-width:4; stroke-opacity:1; fill:none" points="235.283,260.056 254.18,260.056 "></polyline>
<path clip-path="url(#clip920)" d="M187.338 1369.73 Q183.727 1369.73 181.899 1373.29 Q180.093 1376.83 180.093 1383.96 Q180.093 1391.07 181.899 1394.63 Q183.727 1398.18 187.338 1398.18 Q190.973 1398.18 192.778 1394.63 Q194.607 1391.07 194.607 1383.96 Q194.607 1376.83 192.778 1373.29 Q190.973 1369.73 187.338 1369.73 M187.338 1366.02 Q193.149 1366.02 196.204 1370.63 Q199.283 1375.21 199.283 1383.96 Q199.283 1392.69 196.204 1397.3 Q193.149 1401.88 187.338 1401.88 Q181.528 1401.88 178.45 1397.3 Q175.394 1392.69 175.394 1383.96 Q175.394 1375.21 178.45 1370.63 Q181.528 1366.02 187.338 1366.02 Z" fill="#000000" fill-rule="nonzero" fill-opacity="1"></path><path clip-path="url(#clip920)" d="M117.825 1172.5 L125.464 1172.5 L125.464 1146.13 L117.154 1147.8 L117.154 1143.54 L125.418 1141.87 L130.093 1141.87 L130.093 1172.5 L137.732 1172.5 L137.732 1176.43 L117.825 1176.43 L117.825 1172.5 Z" fill="#000000" fill-rule="nonzero" fill-opacity="1"></path><path clip-path="url(#clip920)" d="M157.177 1144.95 Q153.566 1144.95 151.737 1148.52 Q149.931 1152.06 149.931 1159.19 Q149.931 1166.29 151.737 1169.86 Q153.566 1173.4 157.177 1173.4 Q160.811 1173.4 162.616 1169.86 Q164.445 1166.29 164.445 1159.19 Q164.445 1152.06 162.616 1148.52 Q160.811 1144.95 157.177 1144.95 M157.177 1141.25 Q162.987 1141.25 166.042 1145.85 Q169.121 1150.44 169.121 1159.19 Q169.121 1167.91 166.042 1172.52 Q162.987 1177.1 157.177 1177.1 Q151.366 1177.1 148.288 1172.52 Q145.232 1167.91 145.232 1159.19 Q145.232 1150.44 148.288 1145.85 Q151.366 1141.25 157.177 1141.25 Z" fill="#000000" fill-rule="nonzero" fill-opacity="1"></path><path clip-path="url(#clip920)" d="M187.338 1144.95 Q183.727 1144.95 181.899 1148.52 Q180.093 1152.06 180.093 1159.19 Q180.093 1166.29 181.899 1169.86 Q183.727 1173.4 187.338 1173.4 Q190.973 1173.4 192.778 1169.86 Q194.607 1166.29 194.607 1159.19 Q194.607 1152.06 192.778 1148.52 Q190.973 1144.95 187.338 1144.95 M187.338 1141.25 Q193.149 1141.25 196.204 1145.85 Q199.283 1150.44 199.283 1159.19 Q199.283 1167.91 196.204 1172.52 Q193.149 1177.1 187.338 1177.1 Q181.528 1177.1 178.45 1172.52 Q175.394 1167.91 175.394 1159.19 Q175.394 1150.44 178.45 1145.85 Q181.528 1141.25 187.338 1141.25 Z" fill="#000000" fill-rule="nonzero" fill-opacity="1"></path><path clip-path="url(#clip920)" d="M121.043 947.724 L137.362 947.724 L137.362 951.659 L115.418 951.659 L115.418 947.724 Q118.08 944.969 122.663 940.34 Q127.269 935.687 128.45 934.344 Q130.695 931.821 131.575 930.085 Q132.478 928.326 132.478 926.636 Q132.478 923.881 130.533 922.145 Q128.612 920.409 125.51 920.409 Q123.311 920.409 120.857 921.173 Q118.427 921.937 115.649 923.488 L115.649 918.766 Q118.473 917.632 120.927 917.053 Q123.38 916.474 125.418 916.474 Q130.788 916.474 133.982 919.159 Q137.177 921.844 137.177 926.335 Q137.177 928.465 136.367 930.386 Q135.579 932.284 133.473 934.877 Q132.894 935.548 129.792 938.766 Q126.691 941.96 121.043 947.724 Z" fill="#000000" fill-rule="nonzero" fill-opacity="1"></path><path clip-path="url(#clip920)" d="M157.177 920.178 Q153.566 920.178 151.737 923.743 Q149.931 927.284 149.931 934.414 Q149.931 941.52 151.737 945.085 Q153.566 948.627 157.177 948.627 Q160.811 948.627 162.616 945.085 Q164.445 941.52 164.445 934.414 Q164.445 927.284 162.616 923.743 Q160.811 920.178 157.177 920.178 M157.177 916.474 Q162.987 916.474 166.042 921.081 Q169.121 925.664 169.121 934.414 Q169.121 943.141 166.042 947.747 Q162.987 952.33 157.177 952.33 Q151.366 952.33 148.288 947.747 Q145.232 943.141 145.232 934.414 Q145.232 925.664 148.288 921.081 Q151.366 916.474 157.177 916.474 Z" fill="#000000" fill-rule="nonzero" fill-opacity="1"></path><path clip-path="url(#clip920)" d="M187.338 920.178 Q183.727 920.178 181.899 923.743 Q180.093 927.284 180.093 934.414 Q180.093 941.52 181.899 945.085 Q183.727 948.627 187.338 948.627 Q190.973 948.627 192.778 945.085 Q194.607 941.52 194.607 934.414 Q194.607 927.284 192.778 923.743 Q190.973 920.178 187.338 920.178 M187.338 916.474 Q193.149 916.474 196.204 921.081 Q199.283 925.664 199.283 934.414 Q199.283 943.141 196.204 947.747 Q193.149 952.33 187.338 952.33 Q181.528 952.33 178.45 947.747 Q175.394 943.141 175.394 934.414 Q175.394 925.664 178.45 921.081 Q181.528 916.474 187.338 916.474 Z" fill="#000000" fill-rule="nonzero" fill-opacity="1"></path><path clip-path="url(#clip920)" d="M131.181 708.251 Q134.538 708.968 136.413 711.237 Q138.311 713.505 138.311 716.839 Q138.311 721.954 134.792 724.755 Q131.274 727.556 124.793 727.556 Q122.617 727.556 120.302 727.116 Q118.01 726.7 115.556 725.843 L115.556 721.329 Q117.501 722.464 119.816 723.042 Q122.13 723.621 124.654 723.621 Q129.052 723.621 131.343 721.885 Q133.658 720.149 133.658 716.839 Q133.658 713.783 131.505 712.07 Q129.376 710.334 125.556 710.334 L121.529 710.334 L121.529 706.491 L125.742 706.491 Q129.191 706.491 131.019 705.126 Q132.848 703.737 132.848 701.144 Q132.848 698.482 130.95 697.07 Q129.075 695.635 125.556 695.635 Q123.635 695.635 121.436 696.052 Q119.237 696.468 116.598 697.348 L116.598 693.181 Q119.26 692.441 121.575 692.07 Q123.913 691.7 125.973 691.7 Q131.297 691.7 134.399 694.13 Q137.501 696.538 137.501 700.658 Q137.501 703.529 135.857 705.519 Q134.214 707.487 131.181 708.251 Z" fill="#000000" fill-rule="nonzero" fill-opacity="1"></path><path clip-path="url(#clip920)" d="M157.177 695.404 Q153.566 695.404 151.737 698.968 Q149.931 702.51 149.931 709.64 Q149.931 716.746 151.737 720.311 Q153.566 723.852 157.177 723.852 Q160.811 723.852 162.616 720.311 Q164.445 716.746 164.445 709.64 Q164.445 702.51 162.616 698.968 Q160.811 695.404 157.177 695.404 M157.177 691.7 Q162.987 691.7 166.042 696.306 Q169.121 700.89 169.121 709.64 Q169.121 718.366 166.042 722.973 Q162.987 727.556 157.177 727.556 Q151.366 727.556 148.288 722.973 Q145.232 718.366 145.232 709.64 Q145.232 700.89 148.288 696.306 Q151.366 691.7 157.177 691.7 Z" fill="#000000" fill-rule="nonzero" fill-opacity="1"></path><path clip-path="url(#clip920)" d="M187.338 695.404 Q183.727 695.404 181.899 698.968 Q180.093 702.51 180.093 709.64 Q180.093 716.746 181.899 720.311 Q183.727 723.852 187.338 723.852 Q190.973 723.852 192.778 720.311 Q194.607 716.746 194.607 709.64 Q194.607 702.51 192.778 698.968 Q190.973 695.404 187.338 695.404 M187.338 691.7 Q193.149 691.7 196.204 696.306 Q199.283 700.89 199.283 709.64 Q199.283 718.366 196.204 722.973 Q193.149 727.556 187.338 727.556 Q181.528 727.556 178.45 722.973 Q175.394 718.366 175.394 709.64 Q175.394 700.89 178.45 696.306 Q181.528 691.7 187.338 691.7 Z" fill="#000000" fill-rule="nonzero" fill-opacity="1"></path><path clip-path="url(#clip920)" d="M129.862 471.625 L118.056 490.074 L129.862 490.074 L129.862 471.625 M128.635 467.551 L134.515 467.551 L134.515 490.074 L139.445 490.074 L139.445 493.963 L134.515 493.963 L134.515 502.111 L129.862 502.111 L129.862 493.963 L114.26 493.963 L114.26 489.449 L128.635 467.551 Z" fill="#000000" fill-rule="nonzero" fill-opacity="1"></path><path clip-path="url(#clip920)" d="M157.177 470.629 Q153.566 470.629 151.737 474.194 Q149.931 477.736 149.931 484.865 Q149.931 491.972 151.737 495.537 Q153.566 499.078 157.177 499.078 Q160.811 499.078 162.616 495.537 Q164.445 491.972 164.445 484.865 Q164.445 477.736 162.616 474.194 Q160.811 470.629 157.177 470.629 M157.177 466.926 Q162.987 466.926 166.042 471.532 Q169.121 476.115 169.121 484.865 Q169.121 493.592 166.042 498.199 Q162.987 502.782 157.177 502.782 Q151.366 502.782 148.288 498.199 Q145.232 493.592 145.232 484.865 Q145.232 476.115 148.288 471.532 Q151.366 466.926 157.177 466.926 Z" fill="#000000" fill-rule="nonzero" fill-opacity="1"></path><path clip-path="url(#clip920)" d="M187.338 470.629 Q183.727 470.629 181.899 474.194 Q180.093 477.736 180.093 484.865 Q180.093 491.972 181.899 495.537 Q183.727 499.078 187.338 499.078 Q190.973 499.078 192.778 495.537 Q194.607 491.972 194.607 484.865 Q194.607 477.736 192.778 474.194 Q190.973 470.629 187.338 470.629 M187.338 466.926 Q193.149 466.926 196.204 471.532 Q199.283 476.115 199.283 484.865 Q199.283 493.592 196.204 498.199 Q193.149 502.782 187.338 502.782 Q181.528 502.782 178.45 498.199 Q175.394 493.592 175.394 484.865 Q175.394 476.115 178.45 471.532 Q181.528 466.926 187.338 466.926 Z" fill="#000000" fill-rule="nonzero" fill-opacity="1"></path><path clip-path="url(#clip920)" d="M117.061 242.776 L135.417 242.776 L135.417 246.712 L121.343 246.712 L121.343 255.184 Q122.362 254.837 123.38 254.674 Q124.399 254.489 125.418 254.489 Q131.205 254.489 134.584 257.661 Q137.964 260.832 137.964 266.248 Q137.964 271.827 134.492 274.929 Q131.019 278.008 124.7 278.008 Q122.524 278.008 120.255 277.637 Q118.01 277.267 115.603 276.526 L115.603 271.827 Q117.686 272.961 119.908 273.517 Q122.13 274.073 124.607 274.073 Q128.612 274.073 130.95 271.966 Q133.288 269.86 133.288 266.248 Q133.288 262.637 130.95 260.531 Q128.612 258.424 124.607 258.424 Q122.732 258.424 120.857 258.841 Q119.006 259.258 117.061 260.137 L117.061 242.776 Z" fill="#000000" fill-rule="nonzero" fill-opacity="1"></path><path clip-path="url(#clip920)" d="M157.177 245.855 Q153.566 245.855 151.737 249.42 Q149.931 252.962 149.931 260.091 Q149.931 267.198 151.737 270.762 Q153.566 274.304 157.177 274.304 Q160.811 274.304 162.616 270.762 Q164.445 267.198 164.445 260.091 Q164.445 252.962 162.616 249.42 Q160.811 245.855 157.177 245.855 M157.177 242.151 Q162.987 242.151 166.042 246.758 Q169.121 251.341 169.121 260.091 Q169.121 268.818 166.042 273.424 Q162.987 278.008 157.177 278.008 Q151.366 278.008 148.288 273.424 Q145.232 268.818 145.232 260.091 Q145.232 251.341 148.288 246.758 Q151.366 242.151 157.177 242.151 Z" fill="#000000" fill-rule="nonzero" fill-opacity="1"></path><path clip-path="url(#clip920)" d="M187.338 245.855 Q183.727 245.855 181.899 249.42 Q180.093 252.962 180.093 260.091 Q180.093 267.198 181.899 270.762 Q183.727 274.304 187.338 274.304 Q190.973 274.304 192.778 270.762 Q194.607 267.198 194.607 260.091 Q194.607 252.962 192.778 249.42 Q190.973 245.855 187.338 245.855 M187.338 242.151 Q193.149 242.151 196.204 246.758 Q199.283 251.341 199.283 260.091 Q199.283 268.818 196.204 273.424 Q193.149 278.008 187.338 278.008 Q181.528 278.008 178.45 273.424 Q175.394 268.818 175.394 260.091 Q175.394 251.341 178.45 246.758 Q181.528 242.151 187.338 242.151 Z" fill="#000000" fill-rule="nonzero" fill-opacity="1"></path><path clip-path="url(#clip920)" d="M44.7161 911.525 L47.5806 911.525 L47.5806 938.452 Q53.6281 938.07 56.8109 934.824 Q59.9619 931.546 59.9619 925.721 Q59.9619 922.347 59.1344 919.196 Q58.3069 916.013 56.6518 912.894 L62.1899 912.894 Q63.5267 916.045 64.227 919.355 Q64.9272 922.665 64.9272 926.071 Q64.9272 934.601 59.9619 939.598 Q54.9967 944.563 46.5303 944.563 Q37.7774 944.563 32.6531 939.853 Q27.4968 935.11 27.4968 927.09 Q27.4968 919.896 32.1438 915.727 Q36.7589 911.525 44.7161 911.525 M42.9973 917.382 Q38.1912 917.446 35.3266 920.087 Q32.4621 922.697 32.4621 927.026 Q32.4621 931.928 35.2312 934.888 Q38.0002 937.816 43.0292 938.261 L42.9973 917.382 Z" fill="#000000" fill-rule="nonzero" fill-opacity="1"></path><path clip-path="url(#clip920)" d="M28.3562 873.427 L45.7028 886.317 L64.0042 872.758 L64.0042 879.665 L49.9996 890.041 L64.0042 900.417 L64.0042 907.324 L45.3526 893.479 L28.3562 906.146 L28.3562 899.24 L41.0558 889.787 L28.3562 880.334 L28.3562 873.427 Z" fill="#000000" fill-rule="nonzero" fill-opacity="1"></path><path clip-path="url(#clip920)" d="M58.657 858.817 L77.5631 858.817 L77.5631 864.706 L28.3562 864.706 L28.3562 858.817 L33.7671 858.817 Q30.5842 856.971 29.0564 854.17 Q27.4968 851.338 27.4968 847.423 Q27.4968 840.93 32.6531 836.888 Q37.8093 832.814 46.212 832.814 Q54.6147 832.814 59.771 836.888 Q64.9272 840.93 64.9272 847.423 Q64.9272 851.338 63.3994 854.17 Q61.8398 856.971 58.657 858.817 M46.212 838.893 Q39.7508 838.893 36.0905 841.566 Q32.3984 844.208 32.3984 848.855 Q32.3984 853.502 36.0905 856.176 Q39.7508 858.817 46.212 858.817 Q52.6732 858.817 56.3653 856.176 Q60.0256 853.502 60.0256 848.855 Q60.0256 844.208 56.3653 841.566 Q52.6732 838.893 46.212 838.893 Z" fill="#000000" fill-rule="nonzero" fill-opacity="1"></path><path clip-path="url(#clip920)" d="M33.8307 802.449 Q33.2578 803.436 33.0032 804.613 Q32.7167 805.759 32.7167 807.16 Q32.7167 812.125 35.9632 814.799 Q39.1779 817.44 45.2253 817.44 L64.0042 817.44 L64.0042 823.329 L28.3562 823.329 L28.3562 817.44 L33.8944 817.44 Q30.6479 815.594 29.0883 812.634 Q27.4968 809.674 27.4968 805.441 Q27.4968 804.836 27.5923 804.104 Q27.656 803.372 27.8151 802.481 L33.8307 802.449 Z" fill="#000000" fill-rule="nonzero" fill-opacity="1"></path><path clip-path="url(#clip920)" d="M44.7161 767.247 L47.5806 767.247 L47.5806 794.174 Q53.6281 793.792 56.8109 790.545 Q59.9619 787.267 59.9619 781.442 Q59.9619 778.068 59.1344 774.917 Q58.3069 771.735 56.6518 768.615 L62.1899 768.615 Q63.5267 771.766 64.227 775.077 Q64.9272 778.387 64.9272 781.792 Q64.9272 790.322 59.9619 795.32 Q54.9967 800.285 46.5303 800.285 Q37.7774 800.285 32.6531 795.574 Q27.4968 790.832 27.4968 782.811 Q27.4968 775.618 32.1438 771.448 Q36.7589 767.247 44.7161 767.247 M42.9973 773.103 Q38.1912 773.167 35.3266 775.809 Q32.4621 778.419 32.4621 782.747 Q32.4621 787.649 35.2312 790.609 Q38.0002 793.537 43.0292 793.983 L42.9973 773.103 Z" fill="#000000" fill-rule="nonzero" fill-opacity="1"></path><path clip-path="url(#clip920)" d="M29.4065 734.909 L34.9447 734.909 Q33.6716 737.392 33.035 740.065 Q32.3984 742.739 32.3984 745.603 Q32.3984 749.964 33.7352 752.16 Q35.072 754.324 37.7456 754.324 Q39.7826 754.324 40.9603 752.765 Q42.1061 751.205 43.1565 746.495 L43.6021 744.489 Q44.9389 738.251 47.3897 735.641 Q49.8086 732.999 54.1691 732.999 Q59.1344 732.999 62.0308 736.946 Q64.9272 740.861 64.9272 747.736 Q64.9272 750.6 64.3543 753.72 Q63.8132 756.807 62.6992 760.244 L56.6518 760.244 Q58.3387 756.998 59.198 753.847 Q60.0256 750.696 60.0256 747.609 Q60.0256 743.471 58.6251 741.243 Q57.1929 739.015 54.6147 739.015 Q52.2276 739.015 50.9545 740.638 Q49.6813 742.23 48.5037 747.672 L48.0262 749.709 Q46.8804 755.152 44.5251 757.571 Q42.138 759.99 38.0002 759.99 Q32.9713 759.99 30.2341 756.425 Q27.4968 752.86 27.4968 746.304 Q27.4968 743.057 27.9743 740.192 Q28.4517 737.328 29.4065 734.909 Z" fill="#000000" fill-rule="nonzero" fill-opacity="1"></path><path clip-path="url(#clip920)" d="M29.4065 700.948 L34.9447 700.948 Q33.6716 703.431 33.035 706.104 Q32.3984 708.778 32.3984 711.642 Q32.3984 716.003 33.7352 718.199 Q35.072 720.363 37.7456 720.363 Q39.7826 720.363 40.9603 718.804 Q42.1061 717.244 43.1565 712.533 L43.6021 710.528 Q44.9389 704.29 47.3897 701.68 Q49.8086 699.038 54.1691 699.038 Q59.1344 699.038 62.0308 702.985 Q64.9272 706.9 64.9272 713.775 Q64.9272 716.639 64.3543 719.759 Q63.8132 722.846 62.6992 726.283 L56.6518 726.283 Q58.3387 723.037 59.198 719.886 Q60.0256 716.735 60.0256 713.647 Q60.0256 709.51 58.6251 707.282 Q57.1929 705.054 54.6147 705.054 Q52.2276 705.054 50.9545 706.677 Q49.6813 708.268 48.5037 713.711 L48.0262 715.748 Q46.8804 721.191 44.5251 723.61 Q42.138 726.029 38.0002 726.029 Q32.9713 726.029 30.2341 722.464 Q27.4968 718.899 27.4968 712.343 Q27.4968 709.096 27.9743 706.231 Q28.4517 703.367 29.4065 700.948 Z" fill="#000000" fill-rule="nonzero" fill-opacity="1"></path><path clip-path="url(#clip920)" d="M28.3562 689.712 L28.3562 683.856 L64.0042 683.856 L64.0042 689.712 L28.3562 689.712 M14.479 689.712 L14.479 683.856 L21.895 683.856 L21.895 689.712 L14.479 689.712 Z" fill="#000000" fill-rule="nonzero" fill-opacity="1"></path><path clip-path="url(#clip920)" d="M32.4621 657.788 Q32.4621 662.499 36.1542 665.236 Q39.8145 667.974 46.212 667.974 Q52.6095 667.974 56.3017 665.268 Q59.9619 662.531 59.9619 657.788 Q59.9619 653.11 56.2698 650.372 Q52.5777 647.635 46.212 647.635 Q39.8781 647.635 36.186 650.372 Q32.4621 653.11 32.4621 657.788 M27.4968 657.788 Q27.4968 650.15 32.4621 645.789 Q37.4273 641.429 46.212 641.429 Q54.9649 641.429 59.9619 645.789 Q64.9272 650.15 64.9272 657.788 Q64.9272 665.459 59.9619 669.82 Q54.9649 674.148 46.212 674.148 Q37.4273 674.148 32.4621 669.82 Q27.4968 665.459 27.4968 657.788 Z" fill="#000000" fill-rule="nonzero" fill-opacity="1"></path><path clip-path="url(#clip920)" d="M42.4881 602.088 L64.0042 602.088 L64.0042 607.945 L42.679 607.945 Q37.6183 607.945 35.1038 609.918 Q32.5894 611.892 32.5894 615.838 Q32.5894 620.581 35.6131 623.318 Q38.6368 626.055 43.8567 626.055 L64.0042 626.055 L64.0042 631.944 L28.3562 631.944 L28.3562 626.055 L33.8944 626.055 Q30.6797 623.955 29.0883 621.122 Q27.4968 618.257 27.4968 614.533 Q27.4968 608.391 31.3163 605.24 Q35.1038 602.088 42.4881 602.088 Z" fill="#000000" fill-rule="nonzero" fill-opacity="1"></path><path clip-path="url(#clip920)" d="M896.261 43.8551 Q890.428 43.8551 887.066 46.9743 Q883.744 50.0935 883.744 55.5622 Q883.744 61.0309 887.066 64.1501 Q890.428 67.2693 896.261 67.2693 Q902.094 67.2693 905.457 64.1501 Q908.819 60.9904 908.819 55.5622 Q908.819 50.0935 905.457 46.9743 Q902.135 43.8551 896.261 43.8551 M888.078 40.3713 Q882.812 39.075 879.855 35.4697 Q876.938 31.8644 876.938 26.6793 Q876.938 19.4281 882.083 15.2152 Q887.268 11.0023 896.261 11.0023 Q905.295 11.0023 910.439 15.2152 Q915.584 19.4281 915.584 26.6793 Q915.584 31.8644 912.627 35.4697 Q909.71 39.075 904.484 40.3713 Q910.399 41.7486 913.68 45.759 Q917.002 49.7694 917.002 55.5622 Q917.002 64.3527 911.614 69.0517 Q906.267 73.7508 896.261 73.7508 Q886.255 73.7508 880.868 69.0517 Q875.52 64.3527 875.52 55.5622 Q875.52 49.7694 878.842 45.759 Q882.164 41.7486 888.078 40.3713 M885.081 27.4489 Q885.081 32.148 887.997 34.7811 Q890.954 37.4142 896.261 37.4142 Q901.527 37.4142 904.484 34.7811 Q907.482 32.148 907.482 27.4489 Q907.482 22.7499 904.484 20.1168 Q901.527 17.4837 896.261 17.4837 Q890.954 17.4837 887.997 20.1168 Q885.081 22.7499 885.081 27.4489 Z" fill="#000000" fill-rule="nonzero" fill-opacity="1"></path><path clip-path="url(#clip920)" d="M974.444 32.4315 Q968.448 32.4315 964.964 37.1306 Q961.481 41.7891 961.481 49.9314 Q961.481 58.0738 964.924 62.7728 Q968.408 67.4314 974.444 67.4314 Q980.398 67.4314 983.882 62.7323 Q987.366 58.0333 987.366 49.9314 Q987.366 41.8701 983.882 37.1711 Q980.398 32.4315 974.444 32.4315 M974.444 26.1121 Q984.166 26.1121 989.715 32.4315 Q995.265 38.7509 995.265 49.9314 Q995.265 61.0714 989.715 67.4314 Q984.166 73.7508 974.444 73.7508 Q964.681 73.7508 959.131 67.4314 Q953.622 61.0714 953.622 49.9314 Q953.622 38.7509 959.131 32.4315 Q964.681 26.1121 974.444 26.1121 Z" fill="#000000" fill-rule="nonzero" fill-opacity="1"></path><path clip-path="url(#clip920)" d="M1036.54 28.5427 L1036.54 35.5912 Q1033.38 33.9709 1029.98 33.1607 Q1026.58 32.3505 1022.93 32.3505 Q1017.38 32.3505 1014.59 34.0519 Q1011.83 35.7533 1011.83 39.156 Q1011.83 41.7486 1013.82 43.2475 Q1015.8 44.7058 1021.8 46.0426 L1024.35 46.6097 Q1032.29 48.3111 1035.61 51.4303 Q1038.97 54.509 1038.97 60.0587 Q1038.97 66.3781 1033.95 70.0644 Q1028.97 73.7508 1020.22 73.7508 Q1016.57 73.7508 1012.6 73.0216 Q1008.67 72.3329 1004.3 70.9151 L1004.3 63.2184 Q1008.43 65.3654 1012.44 66.4591 Q1016.45 67.5124 1020.38 67.5124 Q1025.65 67.5124 1028.48 65.73 Q1031.32 63.9071 1031.32 60.6258 Q1031.32 57.5877 1029.25 55.9673 Q1027.23 54.3469 1020.3 52.8481 L1017.71 52.2405 Q1010.78 50.7821 1007.7 47.7845 Q1004.62 44.7463 1004.62 39.4801 Q1004.62 33.0797 1009.16 29.5959 Q1013.7 26.1121 1022.04 26.1121 Q1026.17 26.1121 1029.82 26.7198 Q1033.47 27.3274 1036.54 28.5427 Z" fill="#000000" fill-rule="nonzero" fill-opacity="1"></path><path clip-path="url(#clip920)" d="M1083.49 28.9478 L1083.49 35.9153 Q1080.33 34.1734 1077.13 33.3227 Q1073.97 32.4315 1070.73 32.4315 Q1063.48 32.4315 1059.47 37.0496 Q1055.46 41.6271 1055.46 49.9314 Q1055.46 58.2358 1059.47 62.8538 Q1063.48 67.4314 1070.73 67.4314 Q1073.97 67.4314 1077.13 66.5807 Q1080.33 65.6895 1083.49 63.9476 L1083.49 70.8341 Q1080.37 72.2924 1077.01 73.0216 Q1073.69 73.7508 1069.92 73.7508 Q1059.67 73.7508 1053.64 67.3098 Q1047.6 60.8689 1047.6 49.9314 Q1047.6 38.832 1053.68 32.472 Q1059.8 26.1121 1070.41 26.1121 Q1073.85 26.1121 1077.13 26.8413 Q1080.42 27.5299 1083.49 28.9478 Z" fill="#000000" fill-rule="nonzero" fill-opacity="1"></path><path clip-path="url(#clip920)" d="M1096.46 27.2059 L1103.91 27.2059 L1103.91 72.576 L1096.46 72.576 L1096.46 27.2059 M1096.46 9.54393 L1103.91 9.54393 L1103.91 18.9825 L1096.46 18.9825 L1096.46 9.54393 Z" fill="#000000" fill-rule="nonzero" fill-opacity="1"></path><path clip-path="url(#clip920)" d="M1119.51 9.54393 L1126.96 9.54393 L1126.96 72.576 L1119.51 72.576 L1119.51 9.54393 Z" fill="#000000" fill-rule="nonzero" fill-opacity="1"></path><path clip-path="url(#clip920)" d="M1163.18 49.7694 Q1154.14 49.7694 1150.66 51.8354 Q1147.17 53.9013 1147.17 58.8839 Q1147.17 62.8538 1149.77 65.2034 Q1152.4 67.5124 1156.9 67.5124 Q1163.09 67.5124 1166.82 63.1374 Q1170.59 58.7219 1170.59 51.4303 L1170.59 49.7694 L1163.18 49.7694 M1178.04 46.6907 L1178.04 72.576 L1170.59 72.576 L1170.59 65.6895 Q1168.04 69.8214 1164.23 71.8063 Q1160.42 73.7508 1154.91 73.7508 Q1147.94 73.7508 1143.81 69.8619 Q1139.72 65.9325 1139.72 59.3701 Q1139.72 51.7138 1144.82 47.825 Q1149.97 43.9361 1160.14 43.9361 L1170.59 43.9361 L1170.59 43.2069 Q1170.59 38.0623 1167.19 35.2672 Q1163.82 32.4315 1157.71 32.4315 Q1153.82 32.4315 1150.13 33.3632 Q1146.44 34.295 1143.04 36.1584 L1143.04 29.2718 Q1147.13 27.692 1150.98 26.9223 Q1154.83 26.1121 1158.48 26.1121 Q1168.32 26.1121 1173.18 31.2163 Q1178.04 36.3204 1178.04 46.6907 Z" fill="#000000" fill-rule="nonzero" fill-opacity="1"></path><path clip-path="url(#clip920)" d="M1200.77 14.324 L1200.77 27.2059 L1216.12 27.2059 L1216.12 32.9987 L1200.77 32.9987 L1200.77 57.6282 Q1200.77 63.1779 1202.27 64.7578 Q1203.81 66.3376 1208.46 66.3376 L1216.12 66.3376 L1216.12 72.576 L1208.46 72.576 Q1199.84 72.576 1196.55 69.3758 Q1193.27 66.1351 1193.27 57.6282 L1193.27 32.9987 L1187.8 32.9987 L1187.8 27.2059 L1193.27 27.2059 L1193.27 14.324 L1200.77 14.324 Z" fill="#000000" fill-rule="nonzero" fill-opacity="1"></path><path clip-path="url(#clip920)" d="M1225.92 27.2059 L1233.38 27.2059 L1233.38 72.576 L1225.92 72.576 L1225.92 27.2059 M1225.92 9.54393 L1233.38 9.54393 L1233.38 18.9825 L1225.92 18.9825 L1225.92 9.54393 Z" fill="#000000" fill-rule="nonzero" fill-opacity="1"></path><path clip-path="url(#clip920)" d="M1266.55 32.4315 Q1260.56 32.4315 1257.08 37.1306 Q1253.59 41.7891 1253.59 49.9314 Q1253.59 58.0738 1257.03 62.7728 Q1260.52 67.4314 1266.55 67.4314 Q1272.51 67.4314 1275.99 62.7323 Q1279.48 58.0333 1279.48 49.9314 Q1279.48 41.8701 1275.99 37.1711 Q1272.51 32.4315 1266.55 32.4315 M1266.55 26.1121 Q1276.28 26.1121 1281.83 32.4315 Q1287.38 38.7509 1287.38 49.9314 Q1287.38 61.0714 1281.83 67.4314 Q1276.28 73.7508 1266.55 73.7508 Q1256.79 73.7508 1251.24 67.4314 Q1245.73 61.0714 1245.73 49.9314 Q1245.73 38.7509 1251.24 32.4315 Q1256.79 26.1121 1266.55 26.1121 Z" fill="#000000" fill-rule="nonzero" fill-opacity="1"></path><path clip-path="url(#clip920)" d="M1337.45 45.1919 L1337.45 72.576 L1329.99 72.576 L1329.99 45.4349 Q1329.99 38.994 1327.48 35.7938 Q1324.97 32.5936 1319.95 32.5936 Q1313.91 32.5936 1310.43 36.4419 Q1306.94 40.2903 1306.94 46.9338 L1306.94 72.576 L1299.45 72.576 L1299.45 27.2059 L1306.94 27.2059 L1306.94 34.2544 Q1309.62 30.163 1313.22 28.1376 Q1316.87 26.1121 1321.61 26.1121 Q1329.42 26.1121 1333.43 30.9732 Q1337.45 35.7938 1337.45 45.1919 Z" fill="#000000" fill-rule="nonzero" fill-opacity="1"></path><path clip-path="url(#clip920)" d="M1381.24 28.5427 L1381.24 35.5912 Q1378.08 33.9709 1374.67 33.1607 Q1371.27 32.3505 1367.62 32.3505 Q1362.07 32.3505 1359.28 34.0519 Q1356.52 35.7533 1356.52 39.156 Q1356.52 41.7486 1358.51 43.2475 Q1360.49 44.7058 1366.49 46.0426 L1369.04 46.6097 Q1376.98 48.3111 1380.3 51.4303 Q1383.67 54.509 1383.67 60.0587 Q1383.67 66.3781 1378.64 70.0644 Q1373.66 73.7508 1364.91 73.7508 Q1361.26 73.7508 1357.29 73.0216 Q1353.37 72.3329 1348.99 70.9151 L1348.99 63.2184 Q1353.12 65.3654 1357.13 66.4591 Q1361.14 67.5124 1365.07 67.5124 Q1370.34 67.5124 1373.17 65.73 Q1376.01 63.9071 1376.01 60.6258 Q1376.01 57.5877 1373.94 55.9673 Q1371.92 54.3469 1364.99 52.8481 L1362.4 52.2405 Q1355.47 50.7821 1352.39 47.7845 Q1349.31 44.7463 1349.31 39.4801 Q1349.31 33.0797 1353.85 29.5959 Q1358.39 26.1121 1366.73 26.1121 Q1370.87 26.1121 1374.51 26.7198 Q1378.16 27.3274 1381.24 28.5427 Z" fill="#000000" fill-rule="nonzero" fill-opacity="1"></path><path clip-path="url(#clip920)" d="M1451.76 34.0924 L1451.76 9.54393 L1459.22 9.54393 L1459.22 72.576 L1451.76 72.576 L1451.76 65.7705 Q1449.41 69.8214 1445.81 71.8063 Q1442.24 73.7508 1437.22 73.7508 Q1429 73.7508 1423.81 67.1883 Q1418.67 60.6258 1418.67 49.9314 Q1418.67 39.2371 1423.81 32.6746 Q1429 26.1121 1437.22 26.1121 Q1442.24 26.1121 1445.81 28.0971 Q1449.41 30.0415 1451.76 34.0924 M1426.36 49.9314 Q1426.36 58.1548 1429.72 62.8538 Q1433.13 67.5124 1439.04 67.5124 Q1444.96 67.5124 1448.36 62.8538 Q1451.76 58.1548 1451.76 49.9314 Q1451.76 41.7081 1448.36 37.0496 Q1444.96 32.3505 1439.04 32.3505 Q1433.13 32.3505 1429.72 37.0496 Q1426.36 41.7081 1426.36 49.9314 Z" fill="#000000" fill-rule="nonzero" fill-opacity="1"></path><path clip-path="url(#clip920)" d="M1513.38 48.0275 L1513.38 51.6733 L1479.11 51.6733 Q1479.59 59.3701 1483.72 63.421 Q1487.9 67.4314 1495.31 67.4314 Q1499.6 67.4314 1503.61 66.3781 Q1507.66 65.3249 1511.63 63.2184 L1511.63 70.267 Q1507.62 71.9684 1503.41 72.8596 Q1499.2 73.7508 1494.86 73.7508 Q1484.01 73.7508 1477.65 67.4314 Q1471.33 61.1119 1471.33 50.3365 Q1471.33 39.1965 1477.32 32.6746 Q1483.36 26.1121 1493.57 26.1121 Q1502.72 26.1121 1508.03 32.0264 Q1513.38 37.9003 1513.38 48.0275 M1505.92 45.84 Q1505.84 39.7232 1502.48 36.0774 Q1499.16 32.4315 1493.65 32.4315 Q1487.41 32.4315 1483.64 35.9558 Q1479.92 39.4801 1479.35 45.8805 L1505.92 45.84 Z" fill="#000000" fill-rule="nonzero" fill-opacity="1"></path><path clip-path="url(#clip920)" d="M1554.53 28.5427 L1554.53 35.5912 Q1551.37 33.9709 1547.97 33.1607 Q1544.57 32.3505 1540.92 32.3505 Q1535.37 32.3505 1532.58 34.0519 Q1529.82 35.7533 1529.82 39.156 Q1529.82 41.7486 1531.81 43.2475 Q1533.79 44.7058 1539.79 46.0426 L1542.34 46.6097 Q1550.28 48.3111 1553.6 51.4303 Q1556.96 54.509 1556.96 60.0587 Q1556.96 66.3781 1551.94 70.0644 Q1546.96 73.7508 1538.21 73.7508 Q1534.56 73.7508 1530.59 73.0216 Q1526.66 72.3329 1522.29 70.9151 L1522.29 63.2184 Q1526.42 65.3654 1530.43 66.4591 Q1534.44 67.5124 1538.37 67.5124 Q1543.64 67.5124 1546.47 65.73 Q1549.31 63.9071 1549.31 60.6258 Q1549.31 57.5877 1547.24 55.9673 Q1545.22 54.3469 1538.29 52.8481 L1535.7 52.2405 Q1528.77 50.7821 1525.69 47.7845 Q1522.61 44.7463 1522.61 39.4801 Q1522.61 33.0797 1527.15 29.5959 Q1531.69 26.1121 1540.03 26.1121 Q1544.16 26.1121 1547.81 26.7198 Q1551.45 27.3274 1554.53 28.5427 Z" fill="#000000" fill-rule="nonzero" fill-opacity="1"></path><path clip-path="url(#clip920)" d="M1568.83 27.2059 L1576.29 27.2059 L1576.29 72.576 L1568.83 72.576 L1568.83 27.2059 M1568.83 9.54393 L1576.29 9.54393 L1576.29 18.9825 L1568.83 18.9825 L1568.83 9.54393 Z" fill="#000000" fill-rule="nonzero" fill-opacity="1"></path><path clip-path="url(#clip920)" d="M1618.17 34.1734 Q1616.92 33.4443 1615.42 33.1202 Q1613.96 32.7556 1612.18 32.7556 Q1605.86 32.7556 1602.46 36.8875 Q1599.09 40.9789 1599.09 48.6757 L1599.09 72.576 L1591.6 72.576 L1591.6 27.2059 L1599.09 27.2059 L1599.09 34.2544 Q1601.44 30.1225 1605.21 28.1376 Q1608.98 26.1121 1614.36 26.1121 Q1615.13 26.1121 1616.07 26.2337 Q1617 26.3147 1618.13 26.5172 L1618.17 34.1734 Z" fill="#000000" fill-rule="nonzero" fill-opacity="1"></path><path clip-path="url(#clip920)" d="M1662.98 48.0275 L1662.98 51.6733 L1628.71 51.6733 Q1629.19 59.3701 1633.32 63.421 Q1637.5 67.4314 1644.91 67.4314 Q1649.2 67.4314 1653.21 66.3781 Q1657.26 65.3249 1661.23 63.2184 L1661.23 70.267 Q1657.22 71.9684 1653.01 72.8596 Q1648.8 73.7508 1644.46 73.7508 Q1633.61 73.7508 1627.25 67.4314 Q1620.93 61.1119 1620.93 50.3365 Q1620.93 39.1965 1626.92 32.6746 Q1632.96 26.1121 1643.17 26.1121 Q1652.32 26.1121 1657.63 32.0264 Q1662.98 37.9003 1662.98 48.0275 M1655.52 45.84 Q1655.44 39.7232 1652.08 36.0774 Q1648.76 32.4315 1643.25 32.4315 Q1637.01 32.4315 1633.24 35.9558 Q1629.52 39.4801 1628.95 45.8805 L1655.52 45.84 Z" fill="#000000" fill-rule="nonzero" fill-opacity="1"></path><path clip-path="url(#clip920)" d="M1705.06 34.0924 L1705.06 9.54393 L1712.52 9.54393 L1712.52 72.576 L1705.06 72.576 L1705.06 65.7705 Q1702.72 69.8214 1699.11 71.8063 Q1695.55 73.7508 1690.52 73.7508 Q1682.3 73.7508 1677.11 67.1883 Q1671.97 60.6258 1671.97 49.9314 Q1671.97 39.2371 1677.11 32.6746 Q1682.3 26.1121 1690.52 26.1121 Q1695.55 26.1121 1699.11 28.0971 Q1702.72 30.0415 1705.06 34.0924 M1679.67 49.9314 Q1679.67 58.1548 1683.03 62.8538 Q1686.43 67.5124 1692.34 67.5124 Q1698.26 67.5124 1701.66 62.8538 Q1705.06 58.1548 1705.06 49.9314 Q1705.06 41.7081 1701.66 37.0496 Q1698.26 32.3505 1692.34 32.3505 Q1686.43 32.3505 1683.03 37.0496 Q1679.67 41.7081 1679.67 49.9314 Z" fill="#000000" fill-rule="nonzero" fill-opacity="1"></path><polyline clip-path="url(#clip922)" style="stroke:#009af9; stroke-linecap:round; stroke-linejoin:round; stroke-width:4; stroke-opacity:1; fill:none" points="295.211,257.327 297.209,292.951 299.207,405.286 301.204,529.061 303.202,614.312 305.199,681.889 307.197,777.778 309.195,839.484 311.192,930.212 313.19,985.9 315.187,1033.66 317.185,1068.63 319.183,1098.25 321.18,1136.22 323.178,1160.17 325.176,1175.95 327.173,1197.85 329.171,1211.88 331.168,1228.14 333.166,1249.72 335.164,1269.9 337.161,1281.11 339.159,1296.41 341.157,1310.6 343.154,1318.86 345.152,1321.63 347.149,1328.45 349.147,1334.93 351.145,1339.83 353.142,1343.92 355.14,1349.31 357.137,1351.92 359.135,1353.27 361.133,1359.82 363.13,1359.11 365.128,1361.56 367.126,1363.08 369.123,1362.93 371.121,1363.58 373.118,1364.66 375.116,1364.57 377.114,1363.62 379.111,1366.46 381.109,1369.26 383.106,1370.23 385.104,1372.39 387.102,1376.9 389.099,1377.44 391.097,1377.82 393.095,1379.02 395.092,1380.15 397.09,1381.67 399.087,1381.86 401.085,1381.61 403.083,1381.34 405.08,1382.02 407.078,1383.06 409.075,1383.65 411.073,1383.61 413.071,1383.61 415.068,1383.04 417.066,1383.24 419.064,1383.44 421.061,1383.83 423.059,1383.8 425.056,1383.82 427.054,1383.86 429.052,1383.64 431.049,1383.63 433.047,1383.95 435.044,1384.04 437.042,1383.99 439.04,1383.88 441.037,1383.76 443.035,1383.61 445.033,1383.66 447.03,1383.76 449.028,1383.63 451.025,1383.76 453.023,1383.72 455.021,1383.78 457.018,1383.94 459.016,1384.1 461.013,1384.5 463.011,1384.18 465.009,1384.02 467.006,1383.49 469.004,1380.73 471.002,1382.12 472.999,1384.19 474.997,1383.18 476.994,1379.92 478.992,1374.53 480.99,1348.37 482.987,1330.72 484.985,1248.78 486.982,1166.99 488.98,1099.53 490.978,1012.43 492.975,927.537 494.973,837.011 496.971,768.988 498.968,679.869 500.966,618.426 502.963,569.578 504.961,570.006 506.959,527.221 508.956,521.032 510.954,479.534 512.951,483.296 514.949,436.947 516.947,444.292 518.944,425.7 520.942,384.415 522.94,393.316 524.937,392.208 526.935,359.83 528.932,336.349 530.93,343.737 532.928,353.287 534.925,321.342 536.923,316.144 538.92,281.237 540.918,287.555 542.916,302.629 544.913,277.545 546.911,296.463 548.909,386.968 550.906,495.129 552.904,572.366 554.901,649.009 556.899,732.427 558.897,772.43 560.894,843.017 562.892,897.605 564.89,967.932 566.887,1025.31 568.885,1060.2 570.882,1081.28 572.88,1106.75 574.878,1140.13 576.875,1166.21 578.873,1186.86 580.87,1210.03 582.868,1230.82 584.866,1245.75 586.863,1264.84 588.861,1288.59 590.859,1302.86 592.856,1308.77 594.854,1317.76 596.851,1322 598.849,1325.54 600.847,1339.73 602.844,1346.94 604.842,1351.23 606.839,1352.85 608.837,1351.55 610.835,1352.63 612.832,1355.51 614.83,1351.65 616.828,1351.36 618.825,1355.76 620.823,1356.22 622.82,1359.5 624.818,1363.2 626.816,1365.18 628.813,1366.39 630.811,1370.13 632.808,1372.01 634.806,1374.77 636.804,1375.34 638.801,1376.73 640.799,1378.69 642.797,1378.17 644.794,1380.29 646.792,1380.09 648.789,1380.65 650.787,1381.8 652.785,1383.86 654.782,1383.98 656.78,1383.99 658.777,1384.18 660.775,1383.97 662.773,1384.01 664.77,1384.14 666.768,1383.95 668.766,1384.01 670.763,1383.71 672.761,1384.04 674.758,1384.08 676.756,1384.01 678.754,1384.1 680.751,1384.36 682.749,1384.19 684.746,1383.93 686.744,1384.01 688.742,1383.97 690.739,1384 692.737,1384.12 694.735,1384.3 696.732,1384.39 698.73,1384.33 700.727,1384.35 702.725,1384.37 704.723,1384.91 706.72,1385.32 708.718,1386 710.715,1386.4 712.713,1380.17 714.711,1372.53 716.708,1367.03 718.706,1280.43 720.704,1173.12 722.701,1084.02 724.699,1025.77 726.696,942 728.694,865.427 730.692,785.658 732.689,741.221 734.687,677.513 736.684,631.964 738.682,591.573 740.68,540.386 742.677,480.672 744.675,428.174 746.673,395.478 748.67,368.131 750.668,366.074 752.665,304.519 754.663,280.128 756.661,297.344 758.658,313.161 760.656,324.33 762.653,313.671 764.651,275.014 766.649,230.92 768.646,223.748 770.644,248.889 772.642,254.874 774.639,249.017 776.637,254.642 778.634,269.85 780.632,271.002 782.63,270.117 784.627,260.608 786.625,248.11 788.623,236.91 790.62,225.717 792.618,222.397 794.615,225.285 796.613,189.92 798.611,178.377 800.608,160.256 802.606,190.477 804.603,202.133 806.601,323.353 808.599,437.742 810.596,502.731 812.594,602.499 814.592,668.074 816.589,752.959 818.587,824.67 820.584,909.281 822.582,954.038 824.58,1011.78 826.577,1045.48 828.575,1082.4 830.572,1121.06 832.57,1136.41 834.568,1158.38 836.565,1197.35 838.563,1219.24 840.561,1244.63 842.558,1257.54 844.556,1267.93 846.553,1285.46 848.551,1295.18 850.549,1305.06 852.546,1313.49 854.544,1320.31 856.541,1328.69 858.539,1326.48 860.537,1330.32 862.534,1333.78 864.532,1344.64 866.53,1351.2 868.527,1357.09 870.525,1358.2 872.522,1359.33 874.52,1359.17 876.518,1359.21 878.515,1366.26 880.513,1366.16 882.51,1370.15 884.508,1372.6 886.506,1373.53 888.503,1375.18 890.501,1377.23 892.499,1377.24 894.496,1380.09 896.494,1379.61 898.491,1378.38 900.489,1377.71 902.487,1379 904.484,1378.96 906.482,1379.17 908.479,1379.1 910.477,1380.75 912.475,1383.02 914.472,1383.79 916.47,1383.94 918.468,1383.83 920.465,1383.82 922.463,1384.05 924.46,1384.46 926.458,1384.77 928.456,1384.77 930.453,1384.94 932.451,1384.69 934.448,1384.36 936.446,1384.02 938.444,1384.08 940.441,1384.08 942.439,1383.82 944.437,1383.96 946.434,1383.96 948.432,1383.71 950.429,1383.95 952.427,1383.31 954.425,1383.75 956.422,1382.3 958.42,1375.07 960.417,1359.21 962.415,1356.12 964.413,1329.29 966.41,1280.35 968.408,1246.85 970.406,1213.02 972.403,1128.23 974.401,1012.98 976.398,949.341 978.396,901.694 980.394,842.92 982.391,780.543 984.389,690.124 986.386,686.891 988.384,661.907 990.382,629.605 992.379,532.381 994.377,467.342 996.375,442.473 998.372,411.677 1000.37,398.333 1002.37,392.19 1004.37,366.896 1006.36,358.903 1008.36,326.658 1010.36,334.485 1012.36,337.36 1014.35,307.717 1016.35,302.373 1018.35,293.526 1020.35,257.085 1022.34,237.541 1024.34,214.462 1026.34,239.351 1028.34,308.442 1030.33,355.819 1032.33,337.286 1034.33,289.31 1036.33,282.991 1038.32,403.935 1040.32,504.327 1042.32,616.618 1044.32,706.578 1046.31,789.741 1048.31,874.751 1050.31,933.946 1052.31,994.134 1054.31,1042.19 1056.3,1081.39 1058.3,1123.88 1060.3,1143.31 1062.3,1155.79 1064.29,1159.35 1066.29,1176.4 1068.29,1211.97 1070.29,1236.56 1072.28,1247.29 1074.28,1248.98 1076.28,1260.71 1078.28,1278.82 1080.27,1285.61 1082.27,1295.35 1084.27,1302.56 1086.27,1320.95 1088.26,1331.02 1090.26,1333.09 1092.26,1342.71 1094.26,1346.03 1096.26,1347.64 1098.25,1351.05 1100.25,1353.58 1102.25,1356.55 1104.25,1360.16 1106.24,1363.78 1108.24,1366.59 1110.24,1371.83 1112.24,1374.73 1114.23,1375.42 1116.23,1377.63 1118.23,1378.35 1120.23,1378.05 1122.22,1377.78 1124.22,1377.87 1126.22,1378.52 1128.22,1378.31 1130.21,1379.56 1132.21,1380.27 1134.21,1381.1 1136.21,1382.03 1138.21,1381.71 1140.2,1381.53 1142.2,1382.55 1144.2,1381.8 1146.2,1381.8 1148.19,1383.46 1150.19,1383.63 1152.19,1383.68 1154.19,1383.4 1156.18,1383.83 1158.18,1383.78 1160.18,1383.82 1162.18,1383.63 1164.17,1383.59 1166.17,1384 1168.17,1383.79 1170.17,1383.89 1172.16,1383.95 1174.16,1383.96 1176.16,1383.98 1178.16,1383.96 1180.16,1383.99 1182.15,1383.86 1184.15,1383.78 1186.15,1383.63 1188.15,1383.57 1190.14,1382.86 1192.14,1383.76 1194.14,1381.97 1196.14,1382 1198.13,1382.55 1200.13,1381.57 1202.13,1380.08 1204.13,1380.87 1206.12,1380.76 1208.12,1370.01 1210.12,1370.78 1212.12,1353.55 1214.11,1357.35 1216.11,1344.84 1218.11,1298.74 1220.11,1292.05 1222.11,1293.31 1224.1,1280.1 1226.1,1285.81 1228.1,1280.14 1230.1,1254.39 1232.09,1230.13 1234.09,1100.61 1236.09,997.887 1238.09,913.446 1240.08,799.39 1242.08,760.02 1244.08,692.773 1246.08,655.402 1248.07,644.4 1250.07,568.31 1252.07,554.609 1254.07,517.737 1256.06,495.983 1258.06,496.745 1260.06,441.767 1262.06,452.643 1264.06,382.446 1266.05,359.386 1268.05,335.157 1270.05,322.238 1272.05,287.495 1274.04,272.06 1276.04,251.963 1278.04,263.714 1280.04,270.988 1282.03,250.878 1284.03,271.683 1286.03,268.681 1288.03,235.281 1290.02,261.343 1292.02,201.787 1294.02,242.471 1296.02,296.106 1298.01,426.118 1300.01,523.784 1302.01,616.629 1304.01,677.243 1306.01,746.9 1308,834.175 1310,891.32 1312,950.326 1314,993.613 1315.99,1037.25 1317.99,1078.61 1319.99,1089.8 1321.99,1132.33 1323.98,1155.33 1325.98,1174.25 1327.98,1200.25 1329.98,1216.19 1331.97,1239.51 1333.97,1252.25 1335.97,1263.68 1337.97,1277.47 1339.96,1284.46 1341.96,1293.74 1343.96,1304.51 1345.96,1314.2 1347.96,1314.36 1349.95,1328.67 1351.95,1333.09 1353.95,1336.72 1355.95,1337.7 1357.94,1343.76 1359.94,1349.58 1361.94,1349.31 1363.94,1352 1365.93,1354.59 1367.93,1355.41 1369.93,1360.42 1371.93,1364.24 1373.92,1363.88 1375.92,1367.58 1377.92,1371.26 1379.92,1372.03 1381.91,1376.12 1383.91,1378.68 1385.91,1378.75 1387.91,1379.91 1389.9,1377.48 1391.9,1377.16 1393.9,1377.1 1395.9,1377.75 1397.9,1379.52 1399.89,1380.82 1401.89,1381.03 1403.89,1381.37 1405.89,1381.14 1407.88,1380.99 1409.88,1381.07 1411.88,1381.99 1413.88,1383.29 1415.87,1383.37 1417.87,1383.52 1419.87,1383.5 1421.87,1383.87 1423.86,1383.77 1425.86,1383.75 1427.86,1383.77 1429.86,1383.81 1431.85,1383.96 1433.85,1383.69 1435.85,1383.6 1437.85,1383.5 1439.85,1383.93 1441.84,1383.99 1443.84,1384.04 1445.84,1383.58 1447.84,1383.58 1449.83,1383.94 1451.83,1383.8 1453.83,1383.77 1455.83,1383.59 1457.82,1383.78 1459.82,1383.26 1461.82,1383.33 1463.82,1382.6 1465.81,1379.9 1467.81,1375.16 1469.81,1339.81 1471.81,1251.91 1473.8,1188.66 1475.8,1099.17 1477.8,1014.91 1479.8,939.399 1481.8,906.067 1483.79,856.307 1485.79,737.392 1487.79,702.523 1489.79,645.384 1491.78,608.058 1493.78,574.003 1495.78,497.305 1497.78,467.106 1499.77,475.307 1501.77,429.166 1503.77,440.278 1505.77,427.922 1507.76,385.085 1509.76,309.043 1511.76,306.869 1513.76,285.926 1515.75,264.955 1517.75,279.379 1519.75,261.211 1521.75,254.459 1523.75,259.723 1525.74,257.236 1527.74,285.71 1529.74,300.998 1531.74,282.928 1533.73,268.182 1535.73,281.551 1537.73,269.538 1539.73,258.639 1541.72,241.762 1543.72,223.697 1545.72,212.835 1547.72,188.539 1549.71,265.55 1551.71,294.789 1553.71,437.166 1555.71,546.596 1557.7,648.924 1559.7,741.779 1561.7,811.504 1563.7,861.886 1565.7,909.735 1567.69,957.287 1569.69,998.095 1571.69,1054.85 1573.69,1090.02 1575.68,1132.68 1577.68,1169.75 1579.68,1189.69 1581.68,1209.16 1583.67,1237.56 1585.67,1249.31 1587.67,1254.68 1589.67,1272.74 1591.66,1281.57 1593.66,1294.47 1595.66,1310.46 1597.66,1312.17 1599.65,1319.83 1601.65,1327.06 1603.65,1331.69 1605.65,1345.28 1607.65,1351.74 1609.64,1360.35 1611.64,1363.58 1613.64,1363.01 1615.64,1365.86 1617.63,1368.13 1619.63,1372.11 1621.63,1372.28 1623.63,1372.65 1625.62,1372.18 1627.62,1373.12 1629.62,1371.8 1631.62,1372.46 1633.61,1377.04 1635.61,1376.88 1637.61,1379.22 1639.61,1379.18 1641.6,1380.5 1643.6,1381.51 1645.6,1381.65 1647.6,1381.83 1649.6,1381.65 1651.59,1382.38 1653.59,1382.74 1655.59,1382.73 1657.59,1382.35 1659.58,1382.06 1661.58,1382.41 1663.58,1383.2 1665.58,1383.32 1667.57,1383.33 1669.57,1383.37 1671.57,1382.78 1673.57,1382.96 1675.56,1382.43 1677.56,1382.52 1679.56,1382.7 1681.56,1382.31 1683.55,1382.6 1685.55,1382.26 1687.55,1383.73 1689.55,1383.89 1691.54,1383.79 1693.54,1383.66 1695.54,1383.72 1697.54,1384.21 1699.54,1381.47 1701.53,1382.57 1703.53,1383.72 1705.53,1380.07 1707.53,1371.85 1709.52,1361.82 1711.52,1356.23 1713.52,1334.29 1715.52,1298.72 1717.51,1284.34 1719.51,1262.95 1721.51,1244.61 1723.51,1222.71 1725.5,1213.52 1727.5,1203.11 1729.5,1140.53 1731.5,1143.7 1733.49,1116.12 1735.49,1042.99 1737.49,954.209 1739.49,863 1741.49,766.06 1743.48,721.261 1745.48,672.208 1747.48,624.123 1749.48,607.407 1751.47,594.252 1753.47,596.038 1755.47,523.852 1757.47,511.999 1759.46,490.458 1761.46,449.624 1763.46,430.013 1765.46,408.393 1767.45,401.917 1769.45,382.749 1771.45,378.968 1773.45,392.19 1775.44,460.876 1777.44,521.844 1779.44,625.708 1781.44,696.227 1783.44,756.207 1785.43,811.711 1787.43,886.14 1789.43,926.866 1791.43,977.059 1793.42,1024.29 1795.42,1046.65 1797.42,1083.85 1799.42,1121.38 1801.41,1143.83 1803.41,1178.1 1805.41,1209.39 1807.41,1239.13 1809.4,1251.95 1811.4,1270.22 1813.4,1277.75 1815.4,1282.21 1817.39,1294.92 1819.39,1294.87 1821.39,1305.61 1823.39,1323.78 1825.39,1331.3 1827.38,1334.91 1829.38,1339.83 1831.38,1343.63 1833.38,1344.46 1835.37,1347.21 1837.37,1351.65 1839.37,1350.86 1841.37,1353.49 1843.36,1359.71 1845.36,1361.75 1847.36,1367.61 1849.36,1368.36 1851.35,1370.1 1853.35,1371.5 1855.35,1372.64 1857.35,1375.94 1859.34,1374.8 1861.34,1375.14 1863.34,1375.67 1865.34,1375.22 1867.34,1377.11 1869.33,1377.28 1871.33,1379.02 1873.33,1379.39 1875.33,1381.03 1877.32,1379.93 1879.32,1381.36 1881.32,1382.61 1883.32,1383.07 1885.31,1383.55 1887.31,1383.94 1889.31,1383.96 1891.31,1383.87 1893.3,1383.89 1895.3,1383.98 1897.3,1384.09 1899.3,1384.33 1901.29,1384.08 1903.29,1383.54 1905.29,1383.65 1907.29,1383.71 1909.29,1383.16 1911.28,1383.7 1913.28,1384.15 1915.28,1384.08 1917.28,1383.65 1919.27,1384.04 1921.27,1384.08 1923.27,1383.87 1925.27,1383.84 1927.26,1383.57 1929.26,1383.66 1931.26,1384.28 1933.26,1383.91 1935.25,1384.36 1937.25,1383.4 1939.25,1382.69 1941.25,1386.25 1943.24,1384.8 1945.24,1366.88 1947.24,1351.3 1949.24,1263.81 1951.24,1172.84 1953.23,1088.45 1955.23,1002.77 1957.23,937.413 1959.23,850.817 1961.22,776.972 1963.22,737.411 1965.22,676.614 1967.22,650.713 1969.21,599.233 1971.21,575.237 1973.21,560.33 1975.21,531.276 1977.2,545.403 1979.2,506.66 1981.2,497.365 1983.2,481.732 1985.19,439.185 1987.19,428.149 1989.19,391.85 1991.19,353.128 1993.19,331.131 1995.18,303.07 1997.18,313.644 1999.18,280.069 2001.18,274.092 2003.17,238.759 2005.17,263.543 2007.17,262.93 2009.17,267.01 2011.16,305.319 2013.16,310.355 2015.16,317.219 2017.16,340.473 2019.15,425.943 2021.15,532.11 2023.15,610.038 2025.15,693.489 2027.14,743.604 2029.14,827.691 2031.14,890.696 2033.14,945.977 2035.13,985.965 2037.13,1038 2039.13,1062.74 2041.13,1095.43 2043.13,1129.32 2045.12,1152.4 2047.12,1192.75 2049.12,1210.21 2051.12,1243.83 2053.11,1260.47 2055.11,1261.87 2057.11,1282.72 2059.11,1291.91 2061.1,1298.14 2063.1,1305.07 2065.1,1309.66 2067.1,1324 2069.09,1328.66 2071.09,1337.42 2073.09,1338.84 2075.09,1344.91 2077.08,1351.73 2079.08,1357.94 2081.08,1357.1 2083.08,1364.09 2085.08,1366.51 2087.07,1368.86 2089.07,1372.19 2091.07,1373.77 2093.07,1374.71 2095.06,1374.04 2097.06,1375.36 2099.06,1375.6 2101.06,1374.71 2103.05,1374.05 2105.05,1371.71 2107.05,1373.52 2109.05,1372.25 2111.04,1373.53 2113.04,1374.22 2115.04,1372.78 2117.04,1376.19 2119.03,1378.07 2121.03,1378.54 2123.03,1378.54 2125.03,1378.48 2127.03,1376.34 2129.02,1376.14 2131.02,1380.05 2133.02,1380.26 2135.02,1382.01 2137.01,1382.27 2139.01,1381.96 2141.01,1382.45 2143.01,1382.8 2145,1383.02 2147,1382.75 2149,1382.67 2151,1382.82 2152.99,1382.77 2154.99,1383.48 2156.99,1383.35 2158.99,1382.59 2160.98,1382.41 2162.98,1383.39 2164.98,1381.88 2166.98,1382.72 2168.98,1381.99 2170.97,1381.42 2172.97,1383.16 2174.97,1383.89 2176.97,1383.88 2178.96,1382.99 2180.96,1379.8 2182.96,1375.2 2184.96,1371.66 2186.95,1368.03 2188.95,1367.69 2190.95,1362.53 2192.95,1325.01 2194.94,1263.88 2196.94,1172.97 2198.94,1119.93 2200.94,1038.47 2202.93,1042 2204.93,966.299 2206.93,892.16 2208.93,847.286 2210.93,798.104 2212.92,709.866 2214.92,697.063 2216.92,645.482 2218.92,613.066 2220.91,601.845 2222.91,593.036 2224.91,571.959 2226.91,583.835 2228.9,607.281 2230.9,528.529 2232.9,485.306 2234.9,518.425 2236.89,498.83 2238.89,462.787 2240.89,418.571 2242.89,395.851 2244.88,392.51 2246.88,378.511 2248.88,403.751 2250.88,414.804 2252.88,393.76 2254.87,381.248 2256.87,386.059 2258.87,353.013 2260.87,341.444 2262.86,339.88 2264.86,370.074 2266.86,503.217 2268.86,601.726 2270.85,673.572 2272.85,748.386 2274.85,812.957 2276.85,878.034 2278.84,935.648 2280.84,980.001 2282.84,1030 2284.84,1071.97 2286.83,1111.59 2288.83,1133.28 2290.83,1169.06 2292.83,1188.15 "></polyline>
</svg>