<svg xmlns="http://www.w3.org/2000/svg" xmlns:xlink="http://www.w3.org/1999/xlink" width="600" height="400" viewBox="0 0 2400 1600">
<defs>
  <clipPath id="clip080">
    <rect x="0" y="0" width="2400" height="1600"></rect>
  </clipPath>
</defs>
<path clip-path="url(#clip080)" d="M0 1600 L2400 1600 L2400 8.88178e-14 L0 8.88178e-14  Z" fill="#ffffff" fill-rule="evenodd" fill-opacity="1"></path>
<defs>
  <clipPath id="clip081">
    <rect x="480" y="0" width="1681" height="1600"></rect>
  </clipPath>
</defs>
<path clip-path="url(#clip080)" d="M235.283 1423.18 L2352.76 1423.18 L2352.76 123.472 L235.283 123.472  Z" fill="#ffffff" fill-rule="evenodd" fill-opacity="1"></path>
<defs>
  <clipPath id="clip082">
    <rect x="235" y="123" width="2118" height="1301"></rect>
  </clipPath>
</defs>
<polyline clip-path="url(#clip082)" style="stroke:#000000; stroke-linecap:round; stroke-linejoin:round; stroke-width:2; stroke-opacity:0.1; fill:none" points="293.214,1423.18 293.214,123.472 "></polyline>
<polyline clip-path="url(#clip082)" style="stroke:#000000; stroke-linecap:round; stroke-linejoin:round; stroke-width:2; stroke-opacity:0.1; fill:none" points="792.618,1423.18 792.618,123.472 "></polyline>
<polyline clip-path="url(#clip082)" style="stroke:#000000; stroke-linecap:round; stroke-linejoin:round; stroke-width:2; stroke-opacity:0.1; fill:none" points="1292.02,1423.18 1292.02,123.472 "></polyline>
<polyline clip-path="url(#clip082)" style="stroke:#000000; stroke-linecap:round; stroke-linejoin:round; stroke-width:2; stroke-opacity:0.1; fill:none" points="1791.43,1423.18 1791.43,123.472 "></polyline>
<polyline clip-path="url(#clip082)" style="stroke:#000000; stroke-linecap:round; stroke-linejoin:round; stroke-width:2; stroke-opacity:0.1; fill:none" points="2290.83,1423.18 2290.83,123.472 "></polyline>
<polyline clip-path="url(#clip082)" style="stroke:#000000; stroke-linecap:round; stroke-linejoin:round; stroke-width:2; stroke-opacity:0.1; fill:none" points="235.283,1383.67 2352.76,1383.67 "></polyline>
<polyline clip-path="url(#clip082)" style="stroke:#000000; stroke-linecap:round; stroke-linejoin:round; stroke-width:2; stroke-opacity:0.1; fill:none" points="235.283,1184.42 2352.76,1184.42 "></polyline>
<polyline clip-path="url(#clip082)" style="stroke:#000000; stroke-linecap:round; stroke-linejoin:round; stroke-width:2; stroke-opacity:0.1; fill:none" points="235.283,985.177 2352.76,985.177 "></polyline>
<polyline clip-path="url(#clip082)" style="stroke:#000000; stroke-linecap:round; stroke-linejoin:round; stroke-width:2; stroke-opacity:0.1; fill:none" points="235.283,785.929 2352.76,785.929 "></polyline>
<polyline clip-path="url(#clip082)" style="stroke:#000000; stroke-linecap:round; stroke-linejoin:round; stroke-width:2; stroke-opacity:0.1; fill:none" points="235.283,586.681 2352.76,586.681 "></polyline>
<polyline clip-path="url(#clip082)" style="stroke:#000000; stroke-linecap:round; stroke-linejoin:round; stroke-width:2; stroke-opacity:0.1; fill:none" points="235.283,387.433 2352.76,387.433 "></polyline>
<polyline clip-path="url(#clip082)" style="stroke:#000000; stroke-linecap:round; stroke-linejoin:round; stroke-width:2; stroke-opacity:0.1; fill:none" points="235.283,188.185 2352.76,188.185 "></polyline>
<polyline clip-path="url(#clip080)" style="stroke:#000000; stroke-linecap:round; stroke-linejoin:round; stroke-width:4; stroke-opacity:1; fill:none" points="235.283,1423.18 2352.76,1423.18 "></polyline>
<polyline clip-path="url(#clip080)" style="stroke:#000000; stroke-linecap:round; stroke-linejoin:round; stroke-width:4; stroke-opacity:1; fill:none" points="293.214,1423.18 293.214,1404.28 "></polyline>
<polyline clip-path="url(#clip080)" style="stroke:#000000; stroke-linecap:round; stroke-linejoin:round; stroke-width:4; stroke-opacity:1; fill:none" points="792.618,1423.18 792.618,1404.28 "></polyline>
<polyline clip-path="url(#clip080)" style="stroke:#000000; stroke-linecap:round; stroke-linejoin:round; stroke-width:4; stroke-opacity:1; fill:none" points="1292.02,1423.18 1292.02,1404.28 "></polyline>
<polyline clip-path="url(#clip080)" style="stroke:#000000; stroke-linecap:round; stroke-linejoin:round; stroke-width:4; stroke-opacity:1; fill:none" points="1791.43,1423.18 1791.43,1404.28 "></polyline>
<polyline clip-path="url(#clip080)" style="stroke:#000000; stroke-linecap:round; stroke-linejoin:round; stroke-width:4; stroke-opacity:1; fill:none" points="2290.83,1423.18 2290.83,1404.28 "></polyline>
<path clip-path="url(#clip080)" d="M293.214 1454.1 Q289.603 1454.1 287.774 1457.66 Q285.968 1461.2 285.968 1468.33 Q285.968 1475.44 287.774 1479.01 Q289.603 1482.55 293.214 1482.55 Q296.848 1482.55 298.654 1479.01 Q300.482 1475.44 300.482 1468.33 Q300.482 1461.2 298.654 1457.66 Q296.848 1454.1 293.214 1454.1 M293.214 1450.39 Q299.024 1450.39 302.079 1455 Q305.158 1459.58 305.158 1468.33 Q305.158 1477.06 302.079 1481.67 Q299.024 1486.25 293.214 1486.25 Q287.404 1486.25 284.325 1481.67 Q281.269 1477.06 281.269 1468.33 Q281.269 1459.58 284.325 1455 Q287.404 1450.39 293.214 1450.39 Z" fill="#000000" fill-rule="nonzero" fill-opacity="1"></path><path clip-path="url(#clip080)" d="M756.31 1481.64 L772.629 1481.64 L772.629 1485.58 L750.685 1485.58 L750.685 1481.64 Q753.347 1478.89 757.93 1474.26 Q762.537 1469.61 763.717 1468.27 Q765.963 1465.74 766.842 1464.01 Q767.745 1462.25 767.745 1460.56 Q767.745 1457.8 765.801 1456.07 Q763.879 1454.33 760.778 1454.33 Q758.579 1454.33 756.125 1455.09 Q753.694 1455.86 750.917 1457.41 L750.917 1452.69 Q753.741 1451.55 756.194 1450.97 Q758.648 1450.39 760.685 1450.39 Q766.055 1450.39 769.25 1453.08 Q772.444 1455.77 772.444 1460.26 Q772.444 1462.39 771.634 1464.31 Q770.847 1466.2 768.741 1468.8 Q768.162 1469.47 765.06 1472.69 Q761.958 1475.88 756.31 1481.64 Z" fill="#000000" fill-rule="nonzero" fill-opacity="1"></path><path clip-path="url(#clip080)" d="M782.49 1451.02 L800.847 1451.02 L800.847 1454.96 L786.773 1454.96 L786.773 1463.43 Q787.791 1463.08 788.81 1462.92 Q789.828 1462.73 790.847 1462.73 Q796.634 1462.73 800.014 1465.9 Q803.393 1469.08 803.393 1474.49 Q803.393 1480.07 799.921 1483.17 Q796.449 1486.25 790.129 1486.25 Q787.953 1486.25 785.685 1485.88 Q783.44 1485.51 781.032 1484.77 L781.032 1480.07 Q783.115 1481.2 785.338 1481.76 Q787.56 1482.32 790.037 1482.32 Q794.041 1482.32 796.379 1480.21 Q798.717 1478.1 798.717 1474.49 Q798.717 1470.88 796.379 1468.77 Q794.041 1466.67 790.037 1466.67 Q788.162 1466.67 786.287 1467.08 Q784.435 1467.5 782.49 1468.38 L782.49 1451.02 Z" fill="#000000" fill-rule="nonzero" fill-opacity="1"></path><path clip-path="url(#clip080)" d="M822.606 1454.1 Q818.995 1454.1 817.166 1457.66 Q815.361 1461.2 815.361 1468.33 Q815.361 1475.44 817.166 1479.01 Q818.995 1482.55 822.606 1482.55 Q826.24 1482.55 828.046 1479.01 Q829.874 1475.44 829.874 1468.33 Q829.874 1461.2 828.046 1457.66 Q826.24 1454.1 822.606 1454.1 M822.606 1450.39 Q828.416 1450.39 831.472 1455 Q834.55 1459.58 834.55 1468.33 Q834.55 1477.06 831.472 1481.67 Q828.416 1486.25 822.606 1486.25 Q816.796 1486.25 813.717 1481.67 Q810.662 1477.06 810.662 1468.33 Q810.662 1459.58 813.717 1455 Q816.796 1450.39 822.606 1450.39 Z" fill="#000000" fill-rule="nonzero" fill-opacity="1"></path><path clip-path="url(#clip080)" d="M1251.64 1451.02 L1270 1451.02 L1270 1454.96 L1255.92 1454.96 L1255.92 1463.43 Q1256.94 1463.08 1257.96 1462.92 Q1258.98 1462.73 1260 1462.73 Q1265.78 1462.73 1269.16 1465.9 Q1272.54 1469.08 1272.54 1474.49 Q1272.54 1480.07 1269.07 1483.17 Q1265.6 1486.25 1259.28 1486.25 Q1257.1 1486.25 1254.83 1485.88 Q1252.59 1485.51 1250.18 1484.77 L1250.18 1480.07 Q1252.27 1481.2 1254.49 1481.76 Q1256.71 1482.32 1259.19 1482.32 Q1263.19 1482.32 1265.53 1480.21 Q1267.87 1478.1 1267.87 1474.49 Q1267.87 1470.88 1265.53 1468.77 Q1263.19 1466.67 1259.19 1466.67 Q1257.31 1466.67 1255.44 1467.08 Q1253.58 1467.5 1251.64 1468.38 L1251.64 1451.02 Z" fill="#000000" fill-rule="nonzero" fill-opacity="1"></path><path clip-path="url(#clip080)" d="M1291.76 1454.1 Q1288.14 1454.1 1286.32 1457.66 Q1284.51 1461.2 1284.51 1468.33 Q1284.51 1475.44 1286.32 1479.01 Q1288.14 1482.55 1291.76 1482.55 Q1295.39 1482.55 1297.2 1479.01 Q1299.02 1475.44 1299.02 1468.33 Q1299.02 1461.2 1297.2 1457.66 Q1295.39 1454.1 1291.76 1454.1 M1291.76 1450.39 Q1297.57 1450.39 1300.62 1455 Q1303.7 1459.58 1303.7 1468.33 Q1303.7 1477.06 1300.62 1481.67 Q1297.57 1486.25 1291.76 1486.25 Q1285.95 1486.25 1282.87 1481.67 Q1279.81 1477.06 1279.81 1468.33 Q1279.81 1459.58 1282.87 1455 Q1285.95 1450.39 1291.76 1450.39 Z" fill="#000000" fill-rule="nonzero" fill-opacity="1"></path><path clip-path="url(#clip080)" d="M1321.92 1454.1 Q1318.31 1454.1 1316.48 1457.66 Q1314.67 1461.2 1314.67 1468.33 Q1314.67 1475.44 1316.48 1479.01 Q1318.31 1482.55 1321.92 1482.55 Q1325.55 1482.55 1327.36 1479.01 Q1329.19 1475.44 1329.19 1468.33 Q1329.19 1461.2 1327.36 1457.66 Q1325.55 1454.1 1321.92 1454.1 M1321.92 1450.39 Q1327.73 1450.39 1330.78 1455 Q1333.86 1459.58 1333.86 1468.33 Q1333.86 1477.06 1330.78 1481.67 Q1327.73 1486.25 1321.92 1486.25 Q1316.11 1486.25 1313.03 1481.67 Q1309.97 1477.06 1309.97 1468.33 Q1309.97 1459.58 1313.03 1455 Q1316.11 1450.39 1321.92 1450.39 Z" fill="#000000" fill-rule="nonzero" fill-opacity="1"></path><path clip-path="url(#clip080)" d="M1749.7 1451.02 L1771.92 1451.02 L1771.92 1453.01 L1759.38 1485.58 L1754.49 1485.58 L1766.3 1454.96 L1749.7 1454.96 L1749.7 1451.02 Z" fill="#000000" fill-rule="nonzero" fill-opacity="1"></path><path clip-path="url(#clip080)" d="M1781.09 1451.02 L1799.45 1451.02 L1799.45 1454.96 L1785.37 1454.96 L1785.37 1463.43 Q1786.39 1463.08 1787.41 1462.92 Q1788.43 1462.73 1789.45 1462.73 Q1795.23 1462.73 1798.61 1465.9 Q1801.99 1469.08 1801.99 1474.49 Q1801.99 1480.07 1798.52 1483.17 Q1795.05 1486.25 1788.73 1486.25 Q1786.55 1486.25 1784.28 1485.88 Q1782.04 1485.51 1779.63 1484.77 L1779.63 1480.07 Q1781.72 1481.2 1783.94 1481.76 Q1786.16 1482.32 1788.64 1482.32 Q1792.64 1482.32 1794.98 1480.21 Q1797.32 1478.1 1797.32 1474.49 Q1797.32 1470.88 1794.98 1468.77 Q1792.64 1466.67 1788.64 1466.67 Q1786.76 1466.67 1784.89 1467.08 Q1783.03 1467.5 1781.09 1468.38 L1781.09 1451.02 Z" fill="#000000" fill-rule="nonzero" fill-opacity="1"></path><path clip-path="url(#clip080)" d="M1821.21 1454.1 Q1817.59 1454.1 1815.77 1457.66 Q1813.96 1461.2 1813.96 1468.33 Q1813.96 1475.44 1815.77 1479.01 Q1817.59 1482.55 1821.21 1482.55 Q1824.84 1482.55 1826.65 1479.01 Q1828.47 1475.44 1828.47 1468.33 Q1828.47 1461.2 1826.65 1457.66 Q1824.84 1454.1 1821.21 1454.1 M1821.21 1450.39 Q1827.02 1450.39 1830.07 1455 Q1833.15 1459.58 1833.15 1468.33 Q1833.15 1477.06 1830.07 1481.67 Q1827.02 1486.25 1821.21 1486.25 Q1815.4 1486.25 1812.32 1481.67 Q1809.26 1477.06 1809.26 1468.33 Q1809.26 1459.58 1812.32 1455 Q1815.4 1450.39 1821.21 1450.39 Z" fill="#000000" fill-rule="nonzero" fill-opacity="1"></path><path clip-path="url(#clip080)" d="M2235.36 1481.64 L2242.99 1481.64 L2242.99 1455.28 L2234.68 1456.95 L2234.68 1452.69 L2242.95 1451.02 L2247.62 1451.02 L2247.62 1481.64 L2255.26 1481.64 L2255.26 1485.58 L2235.36 1485.58 L2235.36 1481.64 Z" fill="#000000" fill-rule="nonzero" fill-opacity="1"></path><path clip-path="url(#clip080)" d="M2274.71 1454.1 Q2271.1 1454.1 2269.27 1457.66 Q2267.46 1461.2 2267.46 1468.33 Q2267.46 1475.44 2269.27 1479.01 Q2271.1 1482.55 2274.71 1482.55 Q2278.34 1482.55 2280.15 1479.01 Q2281.98 1475.44 2281.98 1468.33 Q2281.98 1461.2 2280.15 1457.66 Q2278.34 1454.1 2274.71 1454.1 M2274.71 1450.39 Q2280.52 1450.39 2283.57 1455 Q2286.65 1459.58 2286.65 1468.33 Q2286.65 1477.06 2283.57 1481.67 Q2280.52 1486.25 2274.71 1486.25 Q2268.9 1486.25 2265.82 1481.67 Q2262.76 1477.06 2262.76 1468.33 Q2262.76 1459.58 2265.82 1455 Q2268.9 1450.39 2274.71 1450.39 Z" fill="#000000" fill-rule="nonzero" fill-opacity="1"></path><path clip-path="url(#clip080)" d="M2304.87 1454.1 Q2301.26 1454.1 2299.43 1457.66 Q2297.62 1461.2 2297.62 1468.33 Q2297.62 1475.44 2299.43 1479.01 Q2301.26 1482.55 2304.87 1482.55 Q2308.5 1482.55 2310.31 1479.01 Q2312.14 1475.44 2312.14 1468.33 Q2312.14 1461.2 2310.31 1457.66 Q2308.5 1454.1 2304.87 1454.1 M2304.87 1450.39 Q2310.68 1450.39 2313.73 1455 Q2316.81 1459.58 2316.81 1468.33 Q2316.81 1477.06 2313.73 1481.67 Q2310.68 1486.25 2304.87 1486.25 Q2299.06 1486.25 2295.98 1481.67 Q2292.92 1477.06 2292.92 1468.33 Q2292.92 1459.58 2295.98 1455 Q2299.06 1450.39 2304.87 1450.39 Z" fill="#000000" fill-rule="nonzero" fill-opacity="1"></path><path clip-path="url(#clip080)" d="M2335.03 1454.1 Q2331.42 1454.1 2329.59 1457.66 Q2327.79 1461.2 2327.79 1468.33 Q2327.79 1475.44 2329.59 1479.01 Q2331.42 1482.55 2335.03 1482.55 Q2338.67 1482.55 2340.47 1479.01 Q2342.3 1475.44 2342.3 1468.33 Q2342.3 1461.2 2340.47 1457.66 Q2338.67 1454.1 2335.03 1454.1 M2335.03 1450.39 Q2340.84 1450.39 2343.9 1455 Q2346.98 1459.58 2346.98 1468.33 Q2346.98 1477.06 2343.9 1481.67 Q2340.84 1486.25 2335.03 1486.25 Q2329.22 1486.25 2326.14 1481.67 Q2323.09 1477.06 2323.09 1468.33 Q2323.09 1459.58 2326.14 1455 Q2329.22 1450.39 2335.03 1450.39 Z" fill="#000000" fill-rule="nonzero" fill-opacity="1"></path><path clip-path="url(#clip080)" d="M1233.18 1522.27 L1233.18 1532.4 L1245.24 1532.4 L1245.24 1536.95 L1233.18 1536.95 L1233.18 1556.3 Q1233.18 1560.66 1234.36 1561.9 Q1235.57 1563.14 1239.23 1563.14 L1245.24 1563.14 L1245.24 1568.04 L1239.23 1568.04 Q1232.45 1568.04 1229.87 1565.53 Q1227.29 1562.98 1227.29 1556.3 L1227.29 1536.95 L1222.99 1536.95 L1222.99 1532.4 L1227.29 1532.4 L1227.29 1522.27 L1233.18 1522.27 Z" fill="#000000" fill-rule="nonzero" fill-opacity="1"></path><path clip-path="url(#clip080)" d="M1252.94 1532.4 L1258.8 1532.4 L1258.8 1568.04 L1252.94 1568.04 L1252.94 1532.4 M1252.94 1518.52 L1258.8 1518.52 L1258.8 1525.93 L1252.94 1525.93 L1252.94 1518.52 Z" fill="#000000" fill-rule="nonzero" fill-opacity="1"></path><path clip-path="url(#clip080)" d="M1298.81 1539.24 Q1301.01 1535.29 1304.06 1533.41 Q1307.12 1531.54 1311.25 1531.54 Q1316.82 1531.54 1319.85 1535.45 Q1322.87 1539.33 1322.87 1546.53 L1322.87 1568.04 L1316.98 1568.04 L1316.98 1546.72 Q1316.98 1541.59 1315.17 1539.11 Q1313.36 1536.63 1309.63 1536.63 Q1305.08 1536.63 1302.44 1539.65 Q1299.8 1542.68 1299.8 1547.9 L1299.8 1568.04 L1293.91 1568.04 L1293.91 1546.72 Q1293.91 1541.56 1292.09 1539.11 Q1290.28 1536.63 1286.49 1536.63 Q1282 1536.63 1279.36 1539.68 Q1276.72 1542.71 1276.72 1547.9 L1276.72 1568.04 L1270.83 1568.04 L1270.83 1532.4 L1276.72 1532.4 L1276.72 1537.93 Q1278.73 1534.66 1281.53 1533.1 Q1284.33 1531.54 1288.18 1531.54 Q1292.06 1531.54 1294.77 1533.51 Q1297.5 1535.48 1298.81 1539.24 Z" fill="#000000" fill-rule="nonzero" fill-opacity="1"></path><path clip-path="url(#clip080)" d="M1365.04 1548.76 L1365.04 1551.62 L1338.12 1551.62 Q1338.5 1557.67 1341.75 1560.85 Q1345.02 1564 1350.85 1564 Q1354.22 1564 1357.37 1563.17 Q1360.56 1562.35 1363.68 1560.69 L1363.68 1566.23 Q1360.53 1567.57 1357.21 1568.27 Q1353.9 1568.97 1350.5 1568.97 Q1341.97 1568.97 1336.97 1564 Q1332.01 1559.04 1332.01 1550.57 Q1332.01 1541.82 1336.72 1536.69 Q1341.46 1531.54 1349.48 1531.54 Q1356.67 1531.54 1360.84 1536.18 Q1365.04 1540.8 1365.04 1548.76 M1359.19 1547.04 Q1359.12 1542.23 1356.48 1539.37 Q1353.87 1536.5 1349.54 1536.5 Q1344.64 1536.5 1341.68 1539.27 Q1338.75 1542.04 1338.31 1547.07 L1359.19 1547.04 Z" fill="#000000" fill-rule="nonzero" fill-opacity="1"></path><polyline clip-path="url(#clip080)" style="stroke:#000000; stroke-linecap:round; stroke-linejoin:round; stroke-width:4; stroke-opacity:1; fill:none" points="235.283,1423.18 235.283,123.472 "></polyline>
<polyline clip-path="url(#clip080)" style="stroke:#000000; stroke-linecap:round; stroke-linejoin:round; stroke-width:4; stroke-opacity:1; fill:none" points="235.283,1383.67 254.18,1383.67 "></polyline>
<polyline clip-path="url(#clip080)" style="stroke:#000000; stroke-linecap:round; stroke-linejoin:round; stroke-width:4; stroke-opacity:1; fill:none" points="235.283,1184.42 254.18,1184.42 "></polyline>
<polyline clip-path="url(#clip080)" style="stroke:#000000; stroke-linecap:round; stroke-linejoin:round; stroke-width:4; stroke-opacity:1; fill:none" points="235.283,985.177 254.18,985.177 "></polyline>
<polyline clip-path="url(#clip080)" style="stroke:#000000; stroke-linecap:round; stroke-linejoin:round; stroke-width:4; stroke-opacity:1; fill:none" points="235.283,785.929 254.18,785.929 "></polyline>
<polyline clip-path="url(#clip080)" style="stroke:#000000; stroke-linecap:round; stroke-linejoin:round; stroke-width:4; stroke-opacity:1; fill:none" points="235.283,586.681 254.18,586.681 "></polyline>
<polyline clip-path="url(#clip080)" style="stroke:#000000; stroke-linecap:round; stroke-linejoin:round; stroke-width:4; stroke-opacity:1; fill:none" points="235.283,387.433 254.18,387.433 "></polyline>
<polyline clip-path="url(#clip080)" style="stroke:#000000; stroke-linecap:round; stroke-linejoin:round; stroke-width:4; stroke-opacity:1; fill:none" points="235.283,188.185 254.18,188.185 "></polyline>
<path clip-path="url(#clip080)" d="M187.338 1369.47 Q183.727 1369.47 181.899 1373.04 Q180.093 1376.58 180.093 1383.71 Q180.093 1390.81 181.899 1394.38 Q183.727 1397.92 187.338 1397.92 Q190.973 1397.92 192.778 1394.38 Q194.607 1390.81 194.607 1383.71 Q194.607 1376.58 192.778 1373.04 Q190.973 1369.47 187.338 1369.47 M187.338 1365.77 Q193.149 1365.77 196.204 1370.37 Q199.283 1374.96 199.283 1383.71 Q199.283 1392.43 196.204 1397.04 Q193.149 1401.62 187.338 1401.62 Q181.528 1401.62 178.45 1397.04 Q175.394 1392.43 175.394 1383.71 Q175.394 1374.96 178.45 1370.37 Q181.528 1365.77 187.338 1365.77 Z" fill="#000000" fill-rule="nonzero" fill-opacity="1"></path><path clip-path="url(#clip080)" d="M117.825 1197.77 L125.464 1197.77 L125.464 1171.4 L117.154 1173.07 L117.154 1168.81 L125.418 1167.14 L130.093 1167.14 L130.093 1197.77 L137.732 1197.77 L137.732 1201.7 L117.825 1201.7 L117.825 1197.77 Z" fill="#000000" fill-rule="nonzero" fill-opacity="1"></path><path clip-path="url(#clip080)" d="M157.177 1170.22 Q153.566 1170.22 151.737 1173.79 Q149.931 1177.33 149.931 1184.46 Q149.931 1191.57 151.737 1195.13 Q153.566 1198.67 157.177 1198.67 Q160.811 1198.67 162.616 1195.13 Q164.445 1191.57 164.445 1184.46 Q164.445 1177.33 162.616 1173.79 Q160.811 1170.22 157.177 1170.22 M157.177 1166.52 Q162.987 1166.52 166.042 1171.13 Q169.121 1175.71 169.121 1184.46 Q169.121 1193.19 166.042 1197.79 Q162.987 1202.38 157.177 1202.38 Q151.366 1202.38 148.288 1197.79 Q145.232 1193.19 145.232 1184.46 Q145.232 1175.71 148.288 1171.13 Q151.366 1166.52 157.177 1166.52 Z" fill="#000000" fill-rule="nonzero" fill-opacity="1"></path><path clip-path="url(#clip080)" d="M187.338 1170.22 Q183.727 1170.22 181.899 1173.79 Q180.093 1177.33 180.093 1184.46 Q180.093 1191.57 181.899 1195.13 Q183.727 1198.67 187.338 1198.67 Q190.973 1198.67 192.778 1195.13 Q194.607 1191.57 194.607 1184.46 Q194.607 1177.33 192.778 1173.79 Q190.973 1170.22 187.338 1170.22 M187.338 1166.52 Q193.149 1166.52 196.204 1171.13 Q199.283 1175.71 199.283 1184.46 Q199.283 1193.19 196.204 1197.79 Q193.149 1202.38 187.338 1202.38 Q181.528 1202.38 178.45 1197.79 Q175.394 1193.19 175.394 1184.46 Q175.394 1175.71 178.45 1171.13 Q181.528 1166.52 187.338 1166.52 Z" fill="#000000" fill-rule="nonzero" fill-opacity="1"></path><path clip-path="url(#clip080)" d="M121.043 998.521 L137.362 998.521 L137.362 1002.46 L115.418 1002.46 L115.418 998.521 Q118.08 995.767 122.663 991.137 Q127.269 986.484 128.45 985.142 Q130.695 982.619 131.575 980.883 Q132.478 979.123 132.478 977.434 Q132.478 974.679 130.533 972.943 Q128.612 971.207 125.51 971.207 Q123.311 971.207 120.857 971.971 Q118.427 972.735 115.649 974.285 L115.649 969.563 Q118.473 968.429 120.927 967.85 Q123.38 967.272 125.418 967.272 Q130.788 967.272 133.982 969.957 Q137.177 972.642 137.177 977.133 Q137.177 979.262 136.367 981.184 Q135.579 983.082 133.473 985.674 Q132.894 986.346 129.792 989.563 Q126.691 992.758 121.043 998.521 Z" fill="#000000" fill-rule="nonzero" fill-opacity="1"></path><path clip-path="url(#clip080)" d="M157.177 970.975 Q153.566 970.975 151.737 974.54 Q149.931 978.082 149.931 985.211 Q149.931 992.318 151.737 995.883 Q153.566 999.424 157.177 999.424 Q160.811 999.424 162.616 995.883 Q164.445 992.318 164.445 985.211 Q164.445 978.082 162.616 974.54 Q160.811 970.975 157.177 970.975 M157.177 967.272 Q162.987 967.272 166.042 971.878 Q169.121 976.461 169.121 985.211 Q169.121 993.938 166.042 998.545 Q162.987 1003.13 157.177 1003.13 Q151.366 1003.13 148.288 998.545 Q145.232 993.938 145.232 985.211 Q145.232 976.461 148.288 971.878 Q151.366 967.272 157.177 967.272 Z" fill="#000000" fill-rule="nonzero" fill-opacity="1"></path><path clip-path="url(#clip080)" d="M187.338 970.975 Q183.727 970.975 181.899 974.54 Q180.093 978.082 180.093 985.211 Q180.093 992.318 181.899 995.883 Q183.727 999.424 187.338 999.424 Q190.973 999.424 192.778 995.883 Q194.607 992.318 194.607 985.211 Q194.607 978.082 192.778 974.54 Q190.973 970.975 187.338 970.975 M187.338 967.272 Q193.149 967.272 196.204 971.878 Q199.283 976.461 199.283 985.211 Q199.283 993.938 196.204 998.545 Q193.149 1003.13 187.338 1003.13 Q181.528 1003.13 178.45 998.545 Q175.394 993.938 175.394 985.211 Q175.394 976.461 178.45 971.878 Q181.528 967.272 187.338 967.272 Z" fill="#000000" fill-rule="nonzero" fill-opacity="1"></path><path clip-path="url(#clip080)" d="M131.181 784.575 Q134.538 785.292 136.413 787.561 Q138.311 789.829 138.311 793.162 Q138.311 798.278 134.792 801.079 Q131.274 803.88 124.793 803.88 Q122.617 803.88 120.302 803.44 Q118.01 803.024 115.556 802.167 L115.556 797.653 Q117.501 798.787 119.816 799.366 Q122.13 799.945 124.654 799.945 Q129.052 799.945 131.343 798.209 Q133.658 796.473 133.658 793.162 Q133.658 790.107 131.505 788.394 Q129.376 786.658 125.556 786.658 L121.529 786.658 L121.529 782.815 L125.742 782.815 Q129.191 782.815 131.019 781.45 Q132.848 780.061 132.848 777.468 Q132.848 774.806 130.95 773.394 Q129.075 771.959 125.556 771.959 Q123.635 771.959 121.436 772.376 Q119.237 772.792 116.598 773.672 L116.598 769.505 Q119.26 768.764 121.575 768.394 Q123.913 768.024 125.973 768.024 Q131.297 768.024 134.399 770.454 Q137.501 772.862 137.501 776.982 Q137.501 779.852 135.857 781.843 Q134.214 783.811 131.181 784.575 Z" fill="#000000" fill-rule="nonzero" fill-opacity="1"></path><path clip-path="url(#clip080)" d="M157.177 771.727 Q153.566 771.727 151.737 775.292 Q149.931 778.834 149.931 785.963 Q149.931 793.07 151.737 796.635 Q153.566 800.176 157.177 800.176 Q160.811 800.176 162.616 796.635 Q164.445 793.07 164.445 785.963 Q164.445 778.834 162.616 775.292 Q160.811 771.727 157.177 771.727 M157.177 768.024 Q162.987 768.024 166.042 772.63 Q169.121 777.213 169.121 785.963 Q169.121 794.69 166.042 799.297 Q162.987 803.88 157.177 803.88 Q151.366 803.88 148.288 799.297 Q145.232 794.69 145.232 785.963 Q145.232 777.213 148.288 772.63 Q151.366 768.024 157.177 768.024 Z" fill="#000000" fill-rule="nonzero" fill-opacity="1"></path><path clip-path="url(#clip080)" d="M187.338 771.727 Q183.727 771.727 181.899 775.292 Q180.093 778.834 180.093 785.963 Q180.093 793.07 181.899 796.635 Q183.727 800.176 187.338 800.176 Q190.973 800.176 192.778 796.635 Q194.607 793.07 194.607 785.963 Q194.607 778.834 192.778 775.292 Q190.973 771.727 187.338 771.727 M187.338 768.024 Q193.149 768.024 196.204 772.63 Q199.283 777.213 199.283 785.963 Q199.283 794.69 196.204 799.297 Q193.149 803.88 187.338 803.88 Q181.528 803.88 178.45 799.297 Q175.394 794.69 175.394 785.963 Q175.394 777.213 178.45 772.63 Q181.528 768.024 187.338 768.024 Z" fill="#000000" fill-rule="nonzero" fill-opacity="1"></path><path clip-path="url(#clip080)" d="M129.862 573.475 L118.056 591.924 L129.862 591.924 L129.862 573.475 M128.635 569.401 L134.515 569.401 L134.515 591.924 L139.445 591.924 L139.445 595.813 L134.515 595.813 L134.515 603.961 L129.862 603.961 L129.862 595.813 L114.26 595.813 L114.26 591.299 L128.635 569.401 Z" fill="#000000" fill-rule="nonzero" fill-opacity="1"></path><path clip-path="url(#clip080)" d="M157.177 572.48 Q153.566 572.48 151.737 576.044 Q149.931 579.586 149.931 586.716 Q149.931 593.822 151.737 597.387 Q153.566 600.928 157.177 600.928 Q160.811 600.928 162.616 597.387 Q164.445 593.822 164.445 586.716 Q164.445 579.586 162.616 576.044 Q160.811 572.48 157.177 572.48 M157.177 568.776 Q162.987 568.776 166.042 573.382 Q169.121 577.966 169.121 586.716 Q169.121 595.442 166.042 600.049 Q162.987 604.632 157.177 604.632 Q151.366 604.632 148.288 600.049 Q145.232 595.442 145.232 586.716 Q145.232 577.966 148.288 573.382 Q151.366 568.776 157.177 568.776 Z" fill="#000000" fill-rule="nonzero" fill-opacity="1"></path><path clip-path="url(#clip080)" d="M187.338 572.48 Q183.727 572.48 181.899 576.044 Q180.093 579.586 180.093 586.716 Q180.093 593.822 181.899 597.387 Q183.727 600.928 187.338 600.928 Q190.973 600.928 192.778 597.387 Q194.607 593.822 194.607 586.716 Q194.607 579.586 192.778 576.044 Q190.973 572.48 187.338 572.48 M187.338 568.776 Q193.149 568.776 196.204 573.382 Q199.283 577.966 199.283 586.716 Q199.283 595.442 196.204 600.049 Q193.149 604.632 187.338 604.632 Q181.528 604.632 178.45 600.049 Q175.394 595.442 175.394 586.716 Q175.394 577.966 178.45 573.382 Q181.528 568.776 187.338 568.776 Z" fill="#000000" fill-rule="nonzero" fill-opacity="1"></path><path clip-path="url(#clip080)" d="M117.061 370.153 L135.417 370.153 L135.417 374.088 L121.343 374.088 L121.343 382.56 Q122.362 382.213 123.38 382.051 Q124.399 381.866 125.418 381.866 Q131.205 381.866 134.584 385.037 Q137.964 388.208 137.964 393.625 Q137.964 399.204 134.492 402.306 Q131.019 405.384 124.7 405.384 Q122.524 405.384 120.255 405.014 Q118.01 404.644 115.603 403.903 L115.603 399.204 Q117.686 400.338 119.908 400.894 Q122.13 401.449 124.607 401.449 Q128.612 401.449 130.95 399.343 Q133.288 397.236 133.288 393.625 Q133.288 390.014 130.95 387.908 Q128.612 385.801 124.607 385.801 Q122.732 385.801 120.857 386.218 Q119.006 386.634 117.061 387.514 L117.061 370.153 Z" fill="#000000" fill-rule="nonzero" fill-opacity="1"></path><path clip-path="url(#clip080)" d="M157.177 373.232 Q153.566 373.232 151.737 376.796 Q149.931 380.338 149.931 387.468 Q149.931 394.574 151.737 398.139 Q153.566 401.681 157.177 401.681 Q160.811 401.681 162.616 398.139 Q164.445 394.574 164.445 387.468 Q164.445 380.338 162.616 376.796 Q160.811 373.232 157.177 373.232 M157.177 369.528 Q162.987 369.528 166.042 374.134 Q169.121 378.718 169.121 387.468 Q169.121 396.194 166.042 400.801 Q162.987 405.384 157.177 405.384 Q151.366 405.384 148.288 400.801 Q145.232 396.194 145.232 387.468 Q145.232 378.718 148.288 374.134 Q151.366 369.528 157.177 369.528 Z" fill="#000000" fill-rule="nonzero" fill-opacity="1"></path><path clip-path="url(#clip080)" d="M187.338 373.232 Q183.727 373.232 181.899 376.796 Q180.093 380.338 180.093 387.468 Q180.093 394.574 181.899 398.139 Q183.727 401.681 187.338 401.681 Q190.973 401.681 192.778 398.139 Q194.607 394.574 194.607 387.468 Q194.607 380.338 192.778 376.796 Q190.973 373.232 187.338 373.232 M187.338 369.528 Q193.149 369.528 196.204 374.134 Q199.283 378.718 199.283 387.468 Q199.283 396.194 196.204 400.801 Q193.149 405.384 187.338 405.384 Q181.528 405.384 178.45 400.801 Q175.394 396.194 175.394 387.468 Q175.394 378.718 178.45 374.134 Q181.528 369.528 187.338 369.528 Z" fill="#000000" fill-rule="nonzero" fill-opacity="1"></path><path clip-path="url(#clip080)" d="M127.593 186.322 Q124.445 186.322 122.593 188.474 Q120.765 190.627 120.765 194.377 Q120.765 198.104 122.593 200.28 Q124.445 202.433 127.593 202.433 Q130.742 202.433 132.57 200.28 Q134.422 198.104 134.422 194.377 Q134.422 190.627 132.57 188.474 Q130.742 186.322 127.593 186.322 M136.876 171.669 L136.876 175.928 Q135.117 175.095 133.311 174.655 Q131.529 174.215 129.769 174.215 Q125.14 174.215 122.686 177.34 Q120.255 180.465 119.908 186.785 Q121.274 184.771 123.334 183.706 Q125.394 182.618 127.871 182.618 Q133.08 182.618 136.089 185.789 Q139.121 188.937 139.121 194.377 Q139.121 199.701 135.973 202.919 Q132.825 206.136 127.593 206.136 Q121.598 206.136 118.427 201.553 Q115.256 196.947 115.256 188.22 Q115.256 180.025 119.144 175.164 Q123.033 170.28 129.584 170.28 Q131.343 170.28 133.126 170.627 Q134.931 170.975 136.876 171.669 Z" fill="#000000" fill-rule="nonzero" fill-opacity="1"></path><path clip-path="url(#clip080)" d="M157.177 173.984 Q153.566 173.984 151.737 177.549 Q149.931 181.09 149.931 188.22 Q149.931 195.326 151.737 198.891 Q153.566 202.433 157.177 202.433 Q160.811 202.433 162.616 198.891 Q164.445 195.326 164.445 188.22 Q164.445 181.09 162.616 177.549 Q160.811 173.984 157.177 173.984 M157.177 170.28 Q162.987 170.28 166.042 174.887 Q169.121 179.47 169.121 188.22 Q169.121 196.947 166.042 201.553 Q162.987 206.136 157.177 206.136 Q151.366 206.136 148.288 201.553 Q145.232 196.947 145.232 188.22 Q145.232 179.47 148.288 174.887 Q151.366 170.28 157.177 170.28 Z" fill="#000000" fill-rule="nonzero" fill-opacity="1"></path><path clip-path="url(#clip080)" d="M187.338 173.984 Q183.727 173.984 181.899 177.549 Q180.093 181.09 180.093 188.22 Q180.093 195.326 181.899 198.891 Q183.727 202.433 187.338 202.433 Q190.973 202.433 192.778 198.891 Q194.607 195.326 194.607 188.22 Q194.607 181.09 192.778 177.549 Q190.973 173.984 187.338 173.984 M187.338 170.28 Q193.149 170.28 196.204 174.887 Q199.283 179.47 199.283 188.22 Q199.283 196.947 196.204 201.553 Q193.149 206.136 187.338 206.136 Q181.528 206.136 178.45 201.553 Q175.394 196.947 175.394 188.22 Q175.394 179.47 178.45 174.887 Q181.528 170.28 187.338 170.28 Z" fill="#000000" fill-rule="nonzero" fill-opacity="1"></path><path clip-path="url(#clip080)" d="M44.7161 911.525 L47.5806 911.525 L47.5806 938.452 Q53.6281 938.07 56.8109 934.824 Q59.9619 931.546 59.9619 925.721 Q59.9619 922.347 59.1344 919.196 Q58.3069 916.013 56.6518 912.894 L62.1899 912.894 Q63.5267 916.045 64.227 919.355 Q64.9272 922.665 64.9272 926.071 Q64.9272 934.601 59.9619 939.598 Q54.9967 944.563 46.5303 944.563 Q37.7774 944.563 32.6531 939.853 Q27.4968 935.11 27.4968 927.09 Q27.4968 919.896 32.1438 915.727 Q36.7589 911.525 44.7161 911.525 M42.9973 917.382 Q38.1912 917.446 35.3266 920.087 Q32.4621 922.697 32.4621 927.026 Q32.4621 931.928 35.2312 934.888 Q38.0002 937.816 43.0292 938.261 L42.9973 917.382 Z" fill="#000000" fill-rule="nonzero" fill-opacity="1"></path><path clip-path="url(#clip080)" d="M28.3562 873.427 L45.7028 886.317 L64.0042 872.758 L64.0042 879.665 L49.9996 890.041 L64.0042 900.417 L64.0042 907.324 L45.3526 893.479 L28.3562 906.146 L28.3562 899.24 L41.0558 889.787 L28.3562 880.334 L28.3562 873.427 Z" fill="#000000" fill-rule="nonzero" fill-opacity="1"></path><path clip-path="url(#clip080)" d="M58.657 858.817 L77.5631 858.817 L77.5631 864.706 L28.3562 864.706 L28.3562 858.817 L33.7671 858.817 Q30.5842 856.971 29.0564 854.17 Q27.4968 851.338 27.4968 847.423 Q27.4968 840.93 32.6531 836.888 Q37.8093 832.814 46.212 832.814 Q54.6147 832.814 59.771 836.888 Q64.9272 840.93 64.9272 847.423 Q64.9272 851.338 63.3994 854.17 Q61.8398 856.971 58.657 858.817 M46.212 838.893 Q39.7508 838.893 36.0905 841.566 Q32.3984 844.208 32.3984 848.855 Q32.3984 853.502 36.0905 856.176 Q39.7508 858.817 46.212 858.817 Q52.6732 858.817 56.3653 856.176 Q60.0256 853.502 60.0256 848.855 Q60.0256 844.208 56.3653 841.566 Q52.6732 838.893 46.212 838.893 Z" fill="#000000" fill-rule="nonzero" fill-opacity="1"></path><path clip-path="url(#clip080)" d="M33.8307 802.449 Q33.2578 803.436 33.0032 804.613 Q32.7167 805.759 32.7167 807.16 Q32.7167 812.125 35.9632 814.799 Q39.1779 817.44 45.2253 817.44 L64.0042 817.44 L64.0042 823.329 L28.3562 823.329 L28.3562 817.44 L33.8944 817.44 Q30.6479 815.594 29.0883 812.634 Q27.4968 809.674 27.4968 805.441 Q27.4968 804.836 27.5923 804.104 Q27.656 803.372 27.8151 802.481 L33.8307 802.449 Z" fill="#000000" fill-rule="nonzero" fill-opacity="1"></path><path clip-path="url(#clip080)" d="M44.7161 767.247 L47.5806 767.247 L47.5806 794.174 Q53.6281 793.792 56.8109 790.545 Q59.9619 787.267 59.9619 781.442 Q59.9619 778.068 59.1344 774.917 Q58.3069 771.735 56.6518 768.615 L62.1899 768.615 Q63.5267 771.766 64.227 775.077 Q64.9272 778.387 64.9272 781.792 Q64.9272 790.322 59.9619 795.32 Q54.9967 800.285 46.5303 800.285 Q37.7774 800.285 32.6531 795.574 Q27.4968 790.832 27.4968 782.811 Q27.4968 775.618 32.1438 771.448 Q36.7589 767.247 44.7161 767.247 M42.9973 773.103 Q38.1912 773.167 35.3266 775.809 Q32.4621 778.419 32.4621 782.747 Q32.4621 787.649 35.2312 790.609 Q38.0002 793.537 43.0292 793.983 L42.9973 773.103 Z" fill="#000000" fill-rule="nonzero" fill-opacity="1"></path><path clip-path="url(#clip080)" d="M29.4065 734.909 L34.9447 734.909 Q33.6716 737.392 33.035 740.065 Q32.3984 742.739 32.3984 745.603 Q32.3984 749.964 33.7352 752.16 Q35.072 754.324 37.7456 754.324 Q39.7826 754.324 40.9603 752.765 Q42.1061 751.205 43.1565 746.495 L43.6021 744.489 Q44.9389 738.251 47.3897 735.641 Q49.8086 732.999 54.1691 732.999 Q59.1344 732.999 62.0308 736.946 Q64.9272 740.861 64.9272 747.736 Q64.9272 750.6 64.3543 753.72 Q63.8132 756.807 62.6992 760.244 L56.6518 760.244 Q58.3387 756.998 59.198 753.847 Q60.0256 750.696 60.0256 747.609 Q60.0256 743.471 58.6251 741.243 Q57.1929 739.015 54.6147 739.015 Q52.2276 739.015 50.9545 740.638 Q49.6813 742.23 48.5037 747.672 L48.0262 749.709 Q46.8804 755.152 44.5251 757.571 Q42.138 759.99 38.0002 759.99 Q32.9713 759.99 30.2341 756.425 Q27.4968 752.86 27.4968 746.304 Q27.4968 743.057 27.9743 740.192 Q28.4517 737.328 29.4065 734.909 Z" fill="#000000" fill-rule="nonzero" fill-opacity="1"></path><path clip-path="url(#clip080)" d="M29.4065 700.948 L34.9447 700.948 Q33.6716 703.431 33.035 706.104 Q32.3984 708.778 32.3984 711.642 Q32.3984 716.003 33.7352 718.199 Q35.072 720.363 37.7456 720.363 Q39.7826 720.363 40.9603 718.804 Q42.1061 717.244 43.1565 712.533 L43.6021 710.528 Q44.9389 704.29 47.3897 701.68 Q49.8086 699.038 54.1691 699.038 Q59.1344 699.038 62.0308 702.985 Q64.9272 706.9 64.9272 713.775 Q64.9272 716.639 64.3543 719.759 Q63.8132 722.846 62.6992 726.283 L56.6518 726.283 Q58.3387 723.037 59.198 719.886 Q60.0256 716.735 60.0256 713.647 Q60.0256 709.51 58.6251 707.282 Q57.1929 705.054 54.6147 705.054 Q52.2276 705.054 50.9545 706.677 Q49.6813 708.268 48.5037 713.711 L48.0262 715.748 Q46.8804 721.191 44.5251 723.61 Q42.138 726.029 38.0002 726.029 Q32.9713 726.029 30.2341 722.464 Q27.4968 718.899 27.4968 712.343 Q27.4968 709.096 27.9743 706.231 Q28.4517 703.367 29.4065 700.948 Z" fill="#000000" fill-rule="nonzero" fill-opacity="1"></path><path clip-path="url(#clip080)" d="M28.3562 689.712 L28.3562 683.856 L64.0042 683.856 L64.0042 689.712 L28.3562 689.712 M14.479 689.712 L14.479 683.856 L21.895 683.856 L21.895 689.712 L14.479 689.712 Z" fill="#000000" fill-rule="nonzero" fill-opacity="1"></path><path clip-path="url(#clip080)" d="M32.4621 657.788 Q32.4621 662.499 36.1542 665.236 Q39.8145 667.974 46.212 667.974 Q52.6095 667.974 56.3017 665.268 Q59.9619 662.531 59.9619 657.788 Q59.9619 653.11 56.2698 650.372 Q52.5777 647.635 46.212 647.635 Q39.8781 647.635 36.186 650.372 Q32.4621 653.11 32.4621 657.788 M27.4968 657.788 Q27.4968 650.15 32.4621 645.789 Q37.4273 641.429 46.212 641.429 Q54.9649 641.429 59.9619 645.789 Q64.9272 650.15 64.9272 657.788 Q64.9272 665.459 59.9619 669.82 Q54.9649 674.148 46.212 674.148 Q37.4273 674.148 32.4621 669.82 Q27.4968 665.459 27.4968 657.788 Z" fill="#000000" fill-rule="nonzero" fill-opacity="1"></path><path clip-path="url(#clip080)" d="M42.4881 602.088 L64.0042 602.088 L64.0042 607.945 L42.679 607.945 Q37.6183 607.945 35.1038 609.918 Q32.5894 611.892 32.5894 615.838 Q32.5894 620.581 35.6131 623.318 Q38.6368 626.055 43.8567 626.055 L64.0042 626.055 L64.0042 631.944 L28.3562 631.944 L28.3562 626.055 L33.8944 626.055 Q30.6797 623.955 29.0883 621.122 Q27.4968 618.257 27.4968 614.533 Q27.4968 608.391 31.3163 605.24 Q35.1038 602.088 42.4881 602.088 Z" fill="#000000" fill-rule="nonzero" fill-opacity="1"></path><path clip-path="url(#clip080)" d="M876.108 12.096 L914.997 12.096 L914.997 15.5798 L893.041 72.576 L884.493 72.576 L905.153 18.9825 L876.108 18.9825 L876.108 12.096 Z" fill="#000000" fill-rule="nonzero" fill-opacity="1"></path><path clip-path="url(#clip080)" d="M973.856 32.4315 Q967.861 32.4315 964.377 37.1306 Q960.893 41.7891 960.893 49.9314 Q960.893 58.0738 964.337 62.7728 Q967.82 67.4314 973.856 67.4314 Q979.811 67.4314 983.295 62.7323 Q986.779 58.0333 986.779 49.9314 Q986.779 41.8701 983.295 37.1711 Q979.811 32.4315 973.856 32.4315 M973.856 26.1121 Q983.578 26.1121 989.128 32.4315 Q994.678 38.7509 994.678 49.9314 Q994.678 61.0714 989.128 67.4314 Q983.578 73.7508 973.856 73.7508 Q964.093 73.7508 958.544 67.4314 Q953.035 61.0714 953.035 49.9314 Q953.035 38.7509 958.544 32.4315 Q964.093 26.1121 973.856 26.1121 Z" fill="#000000" fill-rule="nonzero" fill-opacity="1"></path><path clip-path="url(#clip080)" d="M1035.96 28.5427 L1035.96 35.5912 Q1032.8 33.9709 1029.39 33.1607 Q1025.99 32.3505 1022.35 32.3505 Q1016.8 32.3505 1014 34.0519 Q1011.25 35.7533 1011.25 39.156 Q1011.25 41.7486 1013.23 43.2475 Q1015.22 44.7058 1021.21 46.0426 L1023.76 46.6097 Q1031.7 48.3111 1035.02 51.4303 Q1038.39 54.509 1038.39 60.0587 Q1038.39 66.3781 1033.36 70.0644 Q1028.38 73.7508 1019.63 73.7508 Q1015.99 73.7508 1012.02 73.0216 Q1008.09 72.3329 1003.71 70.9151 L1003.71 63.2184 Q1007.84 65.3654 1011.85 66.4591 Q1015.86 67.5124 1019.79 67.5124 Q1025.06 67.5124 1027.9 65.73 Q1030.73 63.9071 1030.73 60.6258 Q1030.73 57.5877 1028.66 55.9673 Q1026.64 54.3469 1019.71 52.8481 L1017.12 52.2405 Q1010.19 50.7821 1007.11 47.7845 Q1004.04 44.7463 1004.04 39.4801 Q1004.04 33.0797 1008.57 29.5959 Q1013.11 26.1121 1021.45 26.1121 Q1025.59 26.1121 1029.23 26.7198 Q1032.88 27.3274 1035.96 28.5427 Z" fill="#000000" fill-rule="nonzero" fill-opacity="1"></path><path clip-path="url(#clip080)" d="M1082.91 28.9478 L1082.91 35.9153 Q1079.75 34.1734 1076.55 33.3227 Q1073.39 32.4315 1070.15 32.4315 Q1062.9 32.4315 1058.88 37.0496 Q1054.87 41.6271 1054.87 49.9314 Q1054.87 58.2358 1058.88 62.8538 Q1062.9 67.4314 1070.15 67.4314 Q1073.39 67.4314 1076.55 66.5807 Q1079.75 65.6895 1082.91 63.9476 L1082.91 70.8341 Q1079.79 72.2924 1076.43 73.0216 Q1073.1 73.7508 1069.34 73.7508 Q1059.09 73.7508 1053.05 67.3098 Q1047.02 60.8689 1047.02 49.9314 Q1047.02 38.832 1053.09 32.472 Q1059.21 26.1121 1069.82 26.1121 Q1073.27 26.1121 1076.55 26.8413 Q1079.83 27.5299 1082.91 28.9478 Z" fill="#000000" fill-rule="nonzero" fill-opacity="1"></path><path clip-path="url(#clip080)" d="M1095.87 27.2059 L1103.32 27.2059 L1103.32 72.576 L1095.87 72.576 L1095.87 27.2059 M1095.87 9.54393 L1103.32 9.54393 L1103.32 18.9825 L1095.87 18.9825 L1095.87 9.54393 Z" fill="#000000" fill-rule="nonzero" fill-opacity="1"></path><path clip-path="url(#clip080)" d="M1118.92 9.54393 L1126.37 9.54393 L1126.37 72.576 L1118.92 72.576 L1118.92 9.54393 Z" fill="#000000" fill-rule="nonzero" fill-opacity="1"></path><path clip-path="url(#clip080)" d="M1162.59 49.7694 Q1153.55 49.7694 1150.07 51.8354 Q1146.59 53.9013 1146.59 58.8839 Q1146.59 62.8538 1149.18 65.2034 Q1151.81 67.5124 1156.31 67.5124 Q1162.51 67.5124 1166.23 63.1374 Q1170 58.7219 1170 51.4303 L1170 49.7694 L1162.59 49.7694 M1177.45 46.6907 L1177.45 72.576 L1170 72.576 L1170 65.6895 Q1167.45 69.8214 1163.64 71.8063 Q1159.83 73.7508 1154.32 73.7508 Q1147.36 73.7508 1143.22 69.8619 Q1139.13 65.9325 1139.13 59.3701 Q1139.13 51.7138 1144.24 47.825 Q1149.38 43.9361 1159.55 43.9361 L1170 43.9361 L1170 43.2069 Q1170 38.0623 1166.6 35.2672 Q1163.24 32.4315 1157.12 32.4315 Q1153.23 32.4315 1149.54 33.3632 Q1145.86 34.295 1142.45 36.1584 L1142.45 29.2718 Q1146.55 27.692 1150.39 26.9223 Q1154.24 26.1121 1157.89 26.1121 Q1167.73 26.1121 1172.59 31.2163 Q1177.45 36.3204 1177.45 46.6907 Z" fill="#000000" fill-rule="nonzero" fill-opacity="1"></path><path clip-path="url(#clip080)" d="M1200.18 14.324 L1200.18 27.2059 L1215.53 27.2059 L1215.53 32.9987 L1200.18 32.9987 L1200.18 57.6282 Q1200.18 63.1779 1201.68 64.7578 Q1203.22 66.3376 1207.88 66.3376 L1215.53 66.3376 L1215.53 72.576 L1207.88 72.576 Q1199.25 72.576 1195.97 69.3758 Q1192.69 66.1351 1192.69 57.6282 L1192.69 32.9987 L1187.22 32.9987 L1187.22 27.2059 L1192.69 27.2059 L1192.69 14.324 L1200.18 14.324 Z" fill="#000000" fill-rule="nonzero" fill-opacity="1"></path><path clip-path="url(#clip080)" d="M1225.34 27.2059 L1232.79 27.2059 L1232.79 72.576 L1225.34 72.576 L1225.34 27.2059 M1225.34 9.54393 L1232.79 9.54393 L1232.79 18.9825 L1225.34 18.9825 L1225.34 9.54393 Z" fill="#000000" fill-rule="nonzero" fill-opacity="1"></path><path clip-path="url(#clip080)" d="M1265.97 32.4315 Q1259.97 32.4315 1256.49 37.1306 Q1253 41.7891 1253 49.9314 Q1253 58.0738 1256.45 62.7728 Q1259.93 67.4314 1265.97 67.4314 Q1271.92 67.4314 1275.41 62.7323 Q1278.89 58.0333 1278.89 49.9314 Q1278.89 41.8701 1275.41 37.1711 Q1271.92 32.4315 1265.97 32.4315 M1265.97 26.1121 Q1275.69 26.1121 1281.24 32.4315 Q1286.79 38.7509 1286.79 49.9314 Q1286.79 61.0714 1281.24 67.4314 Q1275.69 73.7508 1265.97 73.7508 Q1256.2 73.7508 1250.65 67.4314 Q1245.15 61.0714 1245.15 49.9314 Q1245.15 38.7509 1250.65 32.4315 Q1256.2 26.1121 1265.97 26.1121 Z" fill="#000000" fill-rule="nonzero" fill-opacity="1"></path><path clip-path="url(#clip080)" d="M1336.86 45.1919 L1336.86 72.576 L1329.4 72.576 L1329.4 45.4349 Q1329.4 38.994 1326.89 35.7938 Q1324.38 32.5936 1319.36 32.5936 Q1313.32 32.5936 1309.84 36.4419 Q1306.35 40.2903 1306.35 46.9338 L1306.35 72.576 L1298.86 72.576 L1298.86 27.2059 L1306.35 27.2059 L1306.35 34.2544 Q1309.03 30.163 1312.63 28.1376 Q1316.28 26.1121 1321.02 26.1121 Q1328.84 26.1121 1332.85 30.9732 Q1336.86 35.7938 1336.86 45.1919 Z" fill="#000000" fill-rule="nonzero" fill-opacity="1"></path><path clip-path="url(#clip080)" d="M1380.65 28.5427 L1380.65 35.5912 Q1377.49 33.9709 1374.09 33.1607 Q1370.68 32.3505 1367.04 32.3505 Q1361.49 32.3505 1358.69 34.0519 Q1355.94 35.7533 1355.94 39.156 Q1355.94 41.7486 1357.92 43.2475 Q1359.91 44.7058 1365.9 46.0426 L1368.45 46.6097 Q1376.39 48.3111 1379.72 51.4303 Q1383.08 54.509 1383.08 60.0587 Q1383.08 66.3781 1378.06 70.0644 Q1373.07 73.7508 1364.32 73.7508 Q1360.68 73.7508 1356.71 73.0216 Q1352.78 72.3329 1348.4 70.9151 L1348.4 63.2184 Q1352.53 65.3654 1356.55 66.4591 Q1360.56 67.5124 1364.48 67.5124 Q1369.75 67.5124 1372.59 65.73 Q1375.42 63.9071 1375.42 60.6258 Q1375.42 57.5877 1373.36 55.9673 Q1371.33 54.3469 1364.4 52.8481 L1361.81 52.2405 Q1354.88 50.7821 1351.81 47.7845 Q1348.73 44.7463 1348.73 39.4801 Q1348.73 33.0797 1353.26 29.5959 Q1357.8 26.1121 1366.15 26.1121 Q1370.28 26.1121 1373.92 26.7198 Q1377.57 27.3274 1380.65 28.5427 Z" fill="#000000" fill-rule="nonzero" fill-opacity="1"></path><path clip-path="url(#clip080)" d="M1451.17 34.0924 L1451.17 9.54393 L1458.63 9.54393 L1458.63 72.576 L1451.17 72.576 L1451.17 65.7705 Q1448.82 69.8214 1445.22 71.8063 Q1441.65 73.7508 1436.63 73.7508 Q1428.41 73.7508 1423.22 67.1883 Q1418.08 60.6258 1418.08 49.9314 Q1418.08 39.2371 1423.22 32.6746 Q1428.41 26.1121 1436.63 26.1121 Q1441.65 26.1121 1445.22 28.0971 Q1448.82 30.0415 1451.17 34.0924 M1425.78 49.9314 Q1425.78 58.1548 1429.14 62.8538 Q1432.54 67.5124 1438.45 67.5124 Q1444.37 67.5124 1447.77 62.8538 Q1451.17 58.1548 1451.17 49.9314 Q1451.17 41.7081 1447.77 37.0496 Q1444.37 32.3505 1438.45 32.3505 Q1432.54 32.3505 1429.14 37.0496 Q1425.78 41.7081 1425.78 49.9314 Z" fill="#000000" fill-rule="nonzero" fill-opacity="1"></path><path clip-path="url(#clip080)" d="M1512.79 48.0275 L1512.79 51.6733 L1478.52 51.6733 Q1479 59.3701 1483.14 63.421 Q1487.31 67.4314 1494.72 67.4314 Q1499.02 67.4314 1503.03 66.3781 Q1507.08 65.3249 1511.05 63.2184 L1511.05 70.267 Q1507.04 71.9684 1502.82 72.8596 Q1498.61 73.7508 1494.28 73.7508 Q1483.42 73.7508 1477.06 67.4314 Q1470.74 61.1119 1470.74 50.3365 Q1470.74 39.1965 1476.74 32.6746 Q1482.77 26.1121 1492.98 26.1121 Q1502.13 26.1121 1507.44 32.0264 Q1512.79 37.9003 1512.79 48.0275 M1505.33 45.84 Q1505.25 39.7232 1501.89 36.0774 Q1498.57 32.4315 1493.06 32.4315 Q1486.82 32.4315 1483.05 35.9558 Q1479.33 39.4801 1478.76 45.8805 L1505.33 45.84 Z" fill="#000000" fill-rule="nonzero" fill-opacity="1"></path><path clip-path="url(#clip080)" d="M1553.95 28.5427 L1553.95 35.5912 Q1550.79 33.9709 1547.38 33.1607 Q1543.98 32.3505 1540.33 32.3505 Q1534.78 32.3505 1531.99 34.0519 Q1529.24 35.7533 1529.24 39.156 Q1529.24 41.7486 1531.22 43.2475 Q1533.21 44.7058 1539.2 46.0426 L1541.75 46.6097 Q1549.69 48.3111 1553.01 51.4303 Q1556.38 54.509 1556.38 60.0587 Q1556.38 66.3781 1551.35 70.0644 Q1546.37 73.7508 1537.62 73.7508 Q1533.97 73.7508 1530 73.0216 Q1526.08 72.3329 1521.7 70.9151 L1521.7 63.2184 Q1525.83 65.3654 1529.84 66.4591 Q1533.85 67.5124 1537.78 67.5124 Q1543.05 67.5124 1545.88 65.73 Q1548.72 63.9071 1548.72 60.6258 Q1548.72 57.5877 1546.65 55.9673 Q1544.63 54.3469 1537.7 52.8481 L1535.11 52.2405 Q1528.18 50.7821 1525.1 47.7845 Q1522.02 44.7463 1522.02 39.4801 Q1522.02 33.0797 1526.56 29.5959 Q1531.1 26.1121 1539.44 26.1121 Q1543.58 26.1121 1547.22 26.7198 Q1550.87 27.3274 1553.95 28.5427 Z" fill="#000000" fill-rule="nonzero" fill-opacity="1"></path><path clip-path="url(#clip080)" d="M1568.25 27.2059 L1575.7 27.2059 L1575.7 72.576 L1568.25 72.576 L1568.25 27.2059 M1568.25 9.54393 L1575.7 9.54393 L1575.7 18.9825 L1568.25 18.9825 L1568.25 9.54393 Z" fill="#000000" fill-rule="nonzero" fill-opacity="1"></path><path clip-path="url(#clip080)" d="M1617.59 34.1734 Q1616.33 33.4443 1614.83 33.1202 Q1613.37 32.7556 1611.59 32.7556 Q1605.27 32.7556 1601.87 36.8875 Q1598.51 40.9789 1598.51 48.6757 L1598.51 72.576 L1591.01 72.576 L1591.01 27.2059 L1598.51 27.2059 L1598.51 34.2544 Q1600.86 30.1225 1604.62 28.1376 Q1608.39 26.1121 1613.78 26.1121 Q1614.55 26.1121 1615.48 26.2337 Q1616.41 26.3147 1617.54 26.5172 L1617.59 34.1734 Z" fill="#000000" fill-rule="nonzero" fill-opacity="1"></path><path clip-path="url(#clip080)" d="M1662.39 48.0275 L1662.39 51.6733 L1628.12 51.6733 Q1628.6 59.3701 1632.74 63.421 Q1636.91 67.4314 1644.32 67.4314 Q1648.62 67.4314 1652.63 66.3781 Q1656.68 65.3249 1660.65 63.2184 L1660.65 70.267 Q1656.64 71.9684 1652.42 72.8596 Q1648.21 73.7508 1643.88 73.7508 Q1633.02 73.7508 1626.66 67.4314 Q1620.34 61.1119 1620.34 50.3365 Q1620.34 39.1965 1626.34 32.6746 Q1632.37 26.1121 1642.58 26.1121 Q1651.73 26.1121 1657.04 32.0264 Q1662.39 37.9003 1662.39 48.0275 M1654.93 45.84 Q1654.85 39.7232 1651.49 36.0774 Q1648.17 32.4315 1642.66 32.4315 Q1636.42 32.4315 1632.65 35.9558 Q1628.93 39.4801 1628.36 45.8805 L1654.93 45.84 Z" fill="#000000" fill-rule="nonzero" fill-opacity="1"></path><path clip-path="url(#clip080)" d="M1704.48 34.0924 L1704.48 9.54393 L1711.93 9.54393 L1711.93 72.576 L1704.48 72.576 L1704.48 65.7705 Q1702.13 69.8214 1698.52 71.8063 Q1694.96 73.7508 1689.93 73.7508 Q1681.71 73.7508 1676.53 67.1883 Q1671.38 60.6258 1671.38 49.9314 Q1671.38 39.2371 1676.53 32.6746 Q1681.71 26.1121 1689.93 26.1121 Q1694.96 26.1121 1698.52 28.0971 Q1702.13 30.0415 1704.48 34.0924 M1679.08 49.9314 Q1679.08 58.1548 1682.44 62.8538 Q1685.84 67.5124 1691.76 67.5124 Q1697.67 67.5124 1701.07 62.8538 Q1704.48 58.1548 1704.48 49.9314 Q1704.48 41.7081 1701.07 37.0496 Q1697.67 32.3505 1691.76 32.3505 Q1685.84 32.3505 1682.44 37.0496 Q1679.08 41.7081 1679.08 49.9314 Z" fill="#000000" fill-rule="nonzero" fill-opacity="1"></path><polyline clip-path="url(#clip082)" style="stroke:#009af9; stroke-linecap:round; stroke-linejoin:round; stroke-width:4; stroke-opacity:1; fill:none" points="295.211,1382.63 297.209,1383.08 299.207,1382.2 301.204,1380.82 303.202,1381.84 305.199,1378.09 307.197,1370.94 309.195,1365.07 311.192,1338.08 313.19,1318.75 315.187,1295.83 317.185,1283.69 319.183,1253.25 321.18,1210.09 323.178,1163.37 325.176,1123.69 327.173,1064.24 329.171,1051.11 331.168,1017.04 333.166,964.855 335.164,928.522 337.161,944.498 339.159,964.605 341.157,980.431 343.154,977.487 345.152,1010.44 347.149,1000.44 349.147,1002.72 351.145,989.93 353.142,959.999 355.14,927.483 357.137,873.079 359.135,829.063 361.133,803.351 363.13,741.425 365.128,713.318 367.126,677.56 369.123,673.999 371.121,669.403 373.118,671.274 375.116,676.713 377.114,654.299 379.111,643.754 381.109,584.379 383.106,573.092 385.104,564.668 387.102,534.187 389.099,491.542 391.097,479.559 393.095,462.927 395.092,429.017 397.09,451.112 399.087,461.866 401.085,448.404 403.083,490.114 405.08,569.174 407.078,654.606 409.075,699.993 411.073,753.401 413.071,810.936 415.068,867.391 417.066,907.79 419.064,971.529 421.061,1006.98 423.059,1041.09 425.056,1084.61 427.054,1107.15 429.052,1147.57 431.049,1156.42 433.047,1175.58 435.044,1206.33 437.042,1224.4 439.04,1243.01 441.037,1253.88 443.035,1261.81 445.033,1277.07 447.03,1287.05 449.028,1295.63 451.025,1305.7 453.023,1316.52 455.021,1328.66 457.018,1334.81 459.016,1342.61 461.013,1345.92 463.011,1345.47 465.009,1346.28 467.006,1349.58 469.004,1349.73 471.002,1351.61 472.999,1353.22 474.997,1355.57 476.994,1358.56 478.992,1359.34 480.99,1359.53 482.987,1361.54 484.985,1364.96 486.982,1363.32 488.98,1362.29 490.978,1361.66 492.975,1366.69 494.973,1369.03 496.971,1371.11 498.968,1373.41 500.966,1373.85 502.963,1373.04 504.961,1373.42 506.959,1376.07 508.956,1377.17 510.954,1375.63 512.951,1376.28 514.949,1377.06 516.947,1376.08 518.944,1376.23 520.942,1376.64 522.94,1376.5 524.937,1378.24 526.935,1378.77 528.932,1378.74 530.93,1378.21 532.928,1378.19 534.925,1379.24 536.923,1381.21 538.92,1381.3 540.918,1380.93 542.916,1382.62 544.913,1382.98 546.911,1383.15 548.909,1383.77 550.906,1383.67 552.904,1383.66 554.901,1383.64 556.899,1383.64 558.897,1383.76 560.894,1383.53 562.892,1383.62 564.89,1383.56 566.887,1383.42 568.885,1383.57 570.882,1383.61 572.88,1383.86 574.878,1383.7 576.875,1383.75 578.873,1383.94 580.87,1383.94 582.868,1384.17 584.866,1383.97 586.863,1384.17 588.861,1383.47 590.859,1382.94 592.856,1382.15 594.854,1381.53 596.851,1381.09 598.849,1380.79 600.847,1380.71 602.844,1380.74 604.842,1381.23 606.839,1370 608.837,1358.32 610.835,1342.87 612.832,1280.74 614.83,1220.53 616.828,1183.75 618.825,1088.25 620.823,1007.28 622.82,927.199 624.818,850.044 626.816,781.978 628.813,722.76 630.811,692.978 632.808,646.432 634.806,630.225 636.804,622.016 638.801,587.334 640.799,552.5 642.797,482.333 644.794,409.758 646.792,379.542 648.789,373.364 650.787,375.852 652.785,350.659 654.782,318.993 656.78,310.924 658.777,294.887 660.775,226.815 662.773,217.049 664.77,262.177 666.768,258.93 668.766,294.746 670.763,303.764 672.761,356.459 674.758,359.448 676.756,333.129 678.754,333.12 680.751,304.17 682.749,307.007 684.746,288.527 686.744,298.79 688.742,278.81 690.739,238.535 692.737,213.43 694.735,231.061 696.732,237.97 698.73,269 700.727,273.405 702.725,289.5 704.723,343.07 706.72,371.27 708.718,355.016 710.715,379.847 712.713,489.297 714.711,560.501 716.708,613.93 718.706,696.294 720.704,781.091 722.701,826.026 724.699,895.92 726.696,937.35 728.694,970.424 730.692,1001.45 732.689,1030.88 734.687,1067.38 736.684,1085.34 738.682,1102.75 740.68,1123.24 742.677,1150.23 744.675,1169.45 746.673,1186.27 748.67,1201 750.668,1223.52 752.665,1239.76 754.663,1255.92 756.661,1266.33 758.658,1279.34 760.656,1286.37 762.653,1300.61 764.651,1303.82 766.649,1307.49 768.646,1313.39 770.644,1320.6 772.642,1324.43 774.639,1328.59 776.637,1332.58 778.634,1340.27 780.632,1342.51 782.63,1347.74 784.627,1350.9 786.625,1355.37 788.623,1357.62 790.62,1361.15 792.618,1361.91 794.615,1366.1 796.613,1370.75 798.611,1374.4 800.608,1374.39 802.606,1377.51 804.603,1378.66 806.601,1377.92 808.599,1378.79 810.596,1380.65 812.594,1379.97 814.592,1379.16 816.589,1380.42 818.587,1382.2 820.584,1382.44 822.582,1382.79 824.58,1382.43 826.577,1382.75 828.575,1383.61 830.572,1383.55 832.57,1383.57 834.568,1383.63 836.565,1383.56 838.563,1383.69 840.561,1383.63 842.558,1383.74 844.556,1383.89 846.553,1383.89 848.551,1383.75 850.549,1383.75 852.546,1383.54 854.544,1383.7 856.541,1383.6 858.539,1383.58 860.537,1383.72 862.534,1383.67 864.532,1383.69 866.53,1383.8 868.527,1383.51 870.525,1383.38 872.522,1383.42 874.52,1383.66 876.518,1383.63 878.515,1383.73 880.513,1383.85 882.51,1383.65 884.508,1383.47 886.506,1383.73 888.503,1383.63 890.501,1383.59 892.499,1384.33 894.496,1383.66 896.494,1383.43 898.491,1385.86 900.489,1385.79 902.487,1385.53 904.484,1386.4 906.482,1384.68 908.479,1384.84 910.477,1383.34 912.475,1383.26 914.472,1383.54 916.47,1383.53 918.468,1383.13 920.465,1379.35 922.463,1375.3 924.46,1375.07 926.458,1373.27 928.456,1375.63 930.453,1374.98 932.451,1367.3 934.448,1352.62 936.446,1326.13 938.444,1307.19 940.441,1294.72 942.439,1226.6 944.437,1198.94 946.434,1168.32 948.432,1094.46 950.429,1030.99 952.427,947.607 954.425,892.562 956.422,814.126 958.42,750.262 960.417,702.371 962.415,671.71 964.413,661.208 966.41,565.13 968.408,533.917 970.406,503.749 972.403,486.912 974.401,473.591 976.398,460.784 978.396,438.686 980.394,409.897 982.391,374.806 984.389,368.413 986.386,313.598 988.384,317.989 990.382,298.267 992.379,270.524 994.377,261.842 996.375,246.312 998.372,244.014 1000.37,265.042 1002.37,273.095 1004.37,255.564 1006.36,264.627 1008.36,231.979 1010.36,258.884 1012.36,280.481 1014.35,283.184 1016.35,299.46 1018.35,281.175 1020.35,290.5 1022.34,356.127 1024.34,435.513 1026.34,536.127 1028.34,613.868 1030.33,652.812 1032.33,714.474 1034.33,775.448 1036.33,838.199 1038.32,894.957 1040.32,953.96 1042.32,987.363 1044.32,1014.14 1046.31,1047.95 1048.31,1077.39 1050.31,1109.21 1052.31,1139.48 1054.31,1158.85 1056.3,1185.52 1058.3,1212.14 1060.3,1234.72 1062.3,1257.47 1064.29,1268.45 1066.29,1283.13 1068.29,1298.43 1070.29,1306.84 1072.28,1314.1 1074.28,1319.98 1076.28,1326.07 1078.28,1333.03 1080.27,1339.83 1082.27,1348.78 1084.27,1353.96 1086.27,1353.78 1088.26,1358.96 1090.26,1359.1 1092.26,1359.58 1094.26,1361.75 1096.26,1365.24 1098.25,1368.52 1100.25,1368.67 1102.25,1373.14 1104.25,1374.71 1106.24,1372.73 1108.24,1373.85 1110.24,1373.63 1112.24,1377.02 1114.23,1378.72 1116.23,1378.42 1118.23,1379.12 1120.23,1380 1122.22,1381.39 1124.22,1380.47 1126.22,1380.38 1128.22,1379.44 1130.21,1379.12 1132.21,1379.73 1134.21,1381.35 1136.21,1382.09 1138.21,1381.74 1140.2,1382.14 1142.2,1382.84 1144.2,1383.25 1146.2,1382.42 1148.19,1382.38 1150.19,1382.4 1152.19,1381.75 1154.19,1382.17 1156.18,1382.41 1158.18,1382.69 1160.18,1383.64 1162.18,1383.62 1164.17,1383.53 1166.17,1383.42 1168.17,1383.44 1170.17,1383.66 1172.16,1383.79 1174.16,1383.8 1176.16,1383.99 1178.16,1383.73 1180.16,1384 1182.15,1383.72 1184.15,1383.59 1186.15,1383.69 1188.15,1383.71 1190.14,1383.63 1192.14,1384.31 1194.14,1383.38 1196.14,1382.81 1198.13,1382.98 1200.13,1382.59 1202.13,1383.32 1204.13,1382.99 1206.12,1384.06 1208.12,1385.94 1210.12,1382.25 1212.12,1381.26 1214.11,1377.15 1216.11,1375.43 1218.11,1372.45 1220.11,1353.21 1222.11,1349.29 1224.1,1338.57 1226.1,1283.09 1228.1,1216.92 1230.1,1161.67 1232.09,1063.59 1234.09,1001.96 1236.09,954.835 1238.09,917.79 1240.08,865.539 1242.08,816.907 1244.08,775.71 1246.08,729.303 1248.07,686.086 1250.07,644.439 1252.07,620.092 1254.07,598.299 1256.06,588.304 1258.06,570.84 1260.06,570.405 1262.06,550.258 1264.06,544.583 1266.05,523.922 1268.05,459.603 1270.05,460.115 1272.05,444.071 1274.04,451.647 1276.04,416.915 1278.04,405.643 1280.04,381.248 1282.03,334.3 1284.03,308.467 1286.03,303.017 1288.03,289.733 1290.02,260.643 1292.02,227.449 1294.02,212.992 1296.02,214.093 1298.01,213.853 1300.01,173.24 1302.01,202.311 1304.01,201.796 1306.01,232.497 1308,209.453 1310,207.301 1312,292.125 1314,383.887 1315.99,455.781 1317.99,537.367 1319.99,616.899 1321.99,686.817 1323.98,738.396 1325.98,776.72 1327.98,827.112 1329.98,895.156 1331.97,950.889 1333.97,997.578 1335.97,1031.46 1337.97,1054.51 1339.96,1081.4 1341.96,1110.9 1343.96,1130.34 1345.96,1154.04 1347.96,1171.84 1349.95,1191.76 1351.95,1213.22 1353.95,1237.25 1355.95,1249.2 1357.94,1258.59 1359.94,1264.83 1361.94,1276.95 1363.94,1284.21 1365.93,1296.79 1367.93,1298.27 1369.93,1307.63 1371.93,1315.94 1373.92,1322.68 1375.92,1326.01 1377.92,1325.91 1379.92,1331.86 1381.91,1338.94 1383.91,1341.96 1385.91,1344.42 1387.91,1347.37 1389.9,1351.71 1391.9,1357.16 1393.9,1362.75 1395.9,1364.91 1397.9,1365.92 1399.89,1365.07 1401.89,1368.65 1403.89,1369.35 1405.89,1369.31 1407.88,1370.28 1409.88,1371.91 1411.88,1375.59 1413.88,1377.11 1415.87,1378.07 1417.87,1378.33 1419.87,1377.95 1421.87,1376.24 1423.86,1376.62 1425.86,1375.86 1427.86,1376.47 1429.86,1375.31 1431.85,1378.25 1433.85,1379.48 1435.85,1379.45 1437.85,1380.44 1439.85,1380.88 1441.84,1381.3 1443.84,1381 1445.84,1382.01 1447.84,1382.23 1449.83,1382.85 1451.83,1383.85 1453.83,1383.79 1455.83,1383.87 1457.82,1383.69 1459.82,1383.68 1461.82,1383.72 1463.82,1383.69 1465.81,1383.76 1467.81,1383.88 1469.81,1383.58 1471.81,1383.51 1473.8,1383.26 1475.8,1383.26 1477.8,1383.66 1479.8,1383.65 1481.8,1383.71 1483.79,1383.77 1485.79,1383.6 1487.79,1383.82 1489.79,1383.59 1491.78,1383.48 1493.78,1383.08 1495.78,1382.69 1497.78,1382.87 1499.77,1381.44 1501.77,1383.23 1503.77,1382.29 1505.77,1381.91 1507.76,1380.56 1509.76,1385.55 1511.76,1378.05 1513.76,1379.12 1515.75,1375.56 1517.75,1370.58 1519.75,1357.59 1521.75,1318.69 1523.75,1263.21 1525.74,1218.06 1527.74,1196.46 1529.74,1134.17 1531.74,1076.79 1533.73,1023.83 1535.73,936.87 1537.73,865.981 1539.73,826.191 1541.72,747.193 1543.72,717.333 1545.72,670.592 1547.72,636.769 1549.71,608.728 1551.71,585.928 1553.71,532.119 1555.71,488.935 1557.7,466.381 1559.7,438.317 1561.7,423.006 1563.7,405.732 1565.7,399.895 1567.69,366.681 1569.69,348.705 1571.69,364.165 1573.69,351.38 1575.68,347.699 1577.68,360.352 1579.68,308.875 1581.68,325.295 1583.67,314.544 1585.67,320.617 1587.67,286.873 1589.67,279.905 1591.66,273.159 1593.66,277.51 1595.66,244.208 1597.66,230.882 1599.65,234.959 1601.65,210.361 1603.65,230.825 1605.65,212.517 1607.65,219.456 1609.64,244.583 1611.64,242.786 1613.64,240.87 1615.64,245.305 1617.63,237.3 1619.63,298.621 1621.63,387.547 1623.63,479.988 1625.62,546.247 1627.62,607.915 1629.62,687.896 1631.62,761.519 1633.61,797.201 1635.61,865.502 1637.61,902.397 1639.61,939.3 1641.6,995.076 1643.6,1027.7 1645.6,1046.13 1647.6,1076.7 1649.6,1105.59 1651.59,1131.82 1653.59,1154.4 1655.59,1178.13 1657.59,1200.08 1659.58,1216.53 1661.58,1237.91 1663.58,1252.91 1665.58,1262.75 1667.57,1277.47 1669.57,1284.73 1671.57,1293.25 1673.57,1298.91 1675.56,1307.1 1677.56,1319.96 1679.56,1328.65 1681.56,1335.35 1683.55,1342.32 1685.55,1345.88 1687.55,1347.38 1689.55,1346.52 1691.54,1347.59 1693.54,1350.1 1695.54,1355.1 1697.54,1361.91 1699.54,1362.19 1701.53,1359.62 1703.53,1360.76 1705.53,1362.65 1707.53,1362.84 1709.52,1361.84 1711.52,1365.94 1713.52,1368.09 1715.52,1369.66 1717.51,1369.62 1719.51,1372.1 1721.51,1372.39 1723.51,1371.59 1725.5,1372.78 1727.5,1372.94 1729.5,1374.55 1731.5,1377.82 1733.49,1378.51 1735.49,1377.16 1737.49,1379 1739.49,1379.43 1741.49,1380.98 1743.48,1380.11 1745.48,1379.76 1747.48,1380.04 1749.48,1379.63 1751.47,1380.49 1753.47,1382.45 1755.47,1381.99 1757.47,1382.29 1759.46,1382.2 1761.46,1382.75 1763.46,1381.9 1765.46,1382.7 1767.45,1383.27 1769.45,1383.22 1771.45,1383.87 1773.45,1383.85 1775.44,1383.6 1777.44,1383.59 1779.44,1383.43 1781.44,1383.52 1783.44,1383.35 1785.43,1383.38 1787.43,1383.45 1789.43,1383.32 1791.43,1383.14 1793.42,1383.18 1795.42,1383.53 1797.42,1383.66 1799.42,1383.53 1801.41,1383.58 1803.41,1383.2 1805.41,1383.12 1807.41,1383.42 1809.4,1383.73 1811.4,1383.25 1813.4,1384.18 1815.4,1383.99 1817.39,1383.59 1819.39,1384.15 1821.39,1381.8 1823.39,1378.6 1825.39,1365.62 1827.38,1366.67 1829.38,1361.28 1831.38,1360.29 1833.38,1336.25 1835.37,1313.06 1837.37,1268.5 1839.37,1164.12 1841.37,1096.93 1843.36,1003.06 1845.36,963.547 1847.36,914.154 1849.36,854.093 1851.35,803.575 1853.35,721.198 1855.35,704.788 1857.35,669.028 1859.34,615.755 1861.34,575.265 1863.34,525.511 1865.34,496.814 1867.34,483.929 1869.33,479.131 1871.33,447.756 1873.33,449.009 1875.33,411.007 1877.32,358.147 1879.32,312.49 1881.32,268.565 1883.32,279.675 1885.31,251.715 1887.31,280.364 1889.31,242.661 1891.31,258.858 1893.3,239.285 1895.3,244.615 1897.3,249.302 1899.3,239.178 1901.29,242.455 1903.29,161.121 1905.29,160.256 1907.29,178.885 1909.29,167.506 1911.28,252.536 1913.28,238.67 1915.28,341.678 1917.28,456.206 1919.27,563.183 1921.27,651.43 1923.27,726.799 1925.27,792.139 1927.26,863.382 1929.26,914.02 1931.26,961.602 1933.26,993.247 1935.25,1022.64 1937.25,1062.17 1939.25,1087.01 1941.25,1112.12 1943.24,1125.83 1945.24,1155.08 1947.24,1180.56 1949.24,1189.97 1951.24,1213.08 1953.23,1224.6 1955.23,1238.34 1957.23,1244.43 1959.23,1254.39 1961.22,1265.65 1963.22,1281.26 1965.22,1290.66 1967.22,1303.97 1969.21,1302.68 1971.21,1316.04 1973.21,1321.7 1975.21,1332.17 1977.2,1337.93 1979.2,1339.8 1981.2,1346.24 1983.2,1348.66 1985.19,1356.24 1987.19,1356.8 1989.19,1362.36 1991.19,1366.24 1993.19,1363.71 1995.18,1365.15 1997.18,1369.18 1999.18,1369.68 2001.18,1369.77 2003.17,1371.96 2005.17,1373.99 2007.17,1374.78 2009.17,1377.43 2011.16,1373.41 2013.16,1372.2 2015.16,1371.9 2017.16,1375.59 2019.15,1377.33 2021.15,1376.93 2023.15,1378.33 2025.15,1379.5 2027.14,1379.96 2029.14,1381.46 2031.14,1381.03 2033.14,1381.81 2035.13,1382.77 2037.13,1382.22 2039.13,1383.14 2041.13,1382.75 2043.13,1382.54 2045.12,1383.2 2047.12,1383.19 2049.12,1383.03 2051.12,1384.02 2053.11,1384.31 2055.11,1384.57 2057.11,1384.52 2059.11,1385.27 2061.1,1384.95 2063.1,1384.54 2065.1,1384.05 2067.1,1383.42 2069.09,1383.77 2071.09,1383.73 2073.09,1383.61 2075.09,1383.69 2077.08,1383.77 2079.08,1383.78 2081.08,1383.97 2083.08,1383.86 2085.08,1383.78 2087.07,1383.59 2089.07,1382.91 2091.07,1383.13 2093.07,1382.66 2095.06,1382.51 2097.06,1381.59 2099.06,1378.02 2101.06,1376.78 2103.05,1374.89 2105.05,1372.08 2107.05,1366.33 2109.05,1357.27 2111.04,1324.35 2113.04,1321 2115.04,1304.9 2117.04,1276.67 2119.03,1261.77 2121.03,1188.78 2123.03,1120.6 2125.03,1055.76 2127.03,1008.79 2129.02,935.719 2131.02,920.491 2133.02,920.949 2135.02,922.969 2137.01,887.823 2139.01,838.841 2141.01,819.346 2143.01,779.671 2145,754.896 2147,698.981 2149,651.738 2151,597.356 2152.99,541.885 2154.99,490.649 2156.99,483.173 2158.99,486.005 2160.98,487.067 2162.98,553.621 2164.98,602.615 2166.98,624.34 2168.98,618.255 2170.97,563.322 2172.97,537.059 2174.97,506.414 2176.97,476.92 2178.96,476.975 2180.96,444.455 2182.96,421.332 2184.96,397.812 2186.95,372.17 2188.95,440.552 2190.95,490.114 2192.95,529.513 2194.94,563.308 2196.94,556.342 2198.94,556.767 2200.94,555.508 2202.93,591.991 2204.93,658.589 2206.93,711.351 2208.93,765.085 2210.93,827.624 2212.92,869.993 2214.92,922.356 2216.92,977.004 2218.92,1020.37 2220.91,1051.43 2222.91,1097.27 2224.91,1125.09 2226.91,1149.33 2228.9,1166.38 2230.9,1192.58 2232.9,1209.98 2234.9,1216.74 2236.89,1239.52 2238.89,1248.38 2240.89,1264.07 2242.89,1280.63 2244.88,1290.79 2246.88,1294.62 2248.88,1308.18 2250.88,1314.79 2252.88,1322.01 2254.87,1329.91 2256.87,1336.46 2258.87,1340.15 2260.87,1345.93 2262.86,1349.58 2264.86,1352.6 2266.86,1358.19 2268.86,1361.33 2270.85,1363.72 2272.85,1364.98 2274.85,1364.93 2276.85,1367.73 2278.84,1369.13 2280.84,1373.16 2282.84,1373.67 2284.84,1374.53 2286.83,1375.86 2288.83,1374.49 2290.83,1374.81 2292.83,1375.76 "></polyline>
</svg>