<svg xmlns="http://www.w3.org/2000/svg" xmlns:xlink="http://www.w3.org/1999/xlink" width="600" height="400" viewBox="0 0 2400 1600">
<defs>
  <clipPath id="clip040">
    <rect x="0" y="0" width="2400" height="1600"></rect>
  </clipPath>
</defs>
<path clip-path="url(#clip040)" d="M0 1600 L2400 1600 L2400 8.88178e-14 L0 8.88178e-14  Z" fill="#ffffff" fill-rule="evenodd" fill-opacity="1"></path>
<defs>
  <clipPath id="clip041">
    <rect x="480" y="0" width="1681" height="1600"></rect>
  </clipPath>
</defs>
<path clip-path="url(#clip040)" d="M235.283 1423.18 L2352.76 1423.18 L2352.76 123.472 L235.283 123.472  Z" fill="#ffffff" fill-rule="evenodd" fill-opacity="1"></path>
<defs>
  <clipPath id="clip042">
    <rect x="235" y="123" width="2118" height="1301"></rect>
  </clipPath>
</defs>
<polyline clip-path="url(#clip042)" style="stroke:#000000; stroke-linecap:round; stroke-linejoin:round; stroke-width:2; stroke-opacity:0.1; fill:none" points="293.214,1423.18 293.214,123.472 "></polyline>
<polyline clip-path="url(#clip042)" style="stroke:#000000; stroke-linecap:round; stroke-linejoin:round; stroke-width:2; stroke-opacity:0.1; fill:none" points="792.618,1423.18 792.618,123.472 "></polyline>
<polyline clip-path="url(#clip042)" style="stroke:#000000; stroke-linecap:round; stroke-linejoin:round; stroke-width:2; stroke-opacity:0.1; fill:none" points="1292.02,1423.18 1292.02,123.472 "></polyline>
<polyline clip-path="url(#clip042)" style="stroke:#000000; stroke-linecap:round; stroke-linejoin:round; stroke-width:2; stroke-opacity:0.1; fill:none" points="1791.43,1423.18 1791.43,123.472 "></polyline>
<polyline clip-path="url(#clip042)" style="stroke:#000000; stroke-linecap:round; stroke-linejoin:round; stroke-width:2; stroke-opacity:0.1; fill:none" points="2290.83,1423.18 2290.83,123.472 "></polyline>
<polyline clip-path="url(#clip042)" style="stroke:#000000; stroke-linecap:round; stroke-linejoin:round; stroke-width:2; stroke-opacity:0.1; fill:none" points="235.283,1383.79 2352.76,1383.79 "></polyline>
<polyline clip-path="url(#clip042)" style="stroke:#000000; stroke-linecap:round; stroke-linejoin:round; stroke-width:2; stroke-opacity:0.1; fill:none" points="235.283,1137.88 2352.76,1137.88 "></polyline>
<polyline clip-path="url(#clip042)" style="stroke:#000000; stroke-linecap:round; stroke-linejoin:round; stroke-width:2; stroke-opacity:0.1; fill:none" points="235.283,891.967 2352.76,891.967 "></polyline>
<polyline clip-path="url(#clip042)" style="stroke:#000000; stroke-linecap:round; stroke-linejoin:round; stroke-width:2; stroke-opacity:0.1; fill:none" points="235.283,646.056 2352.76,646.056 "></polyline>
<polyline clip-path="url(#clip042)" style="stroke:#000000; stroke-linecap:round; stroke-linejoin:round; stroke-width:2; stroke-opacity:0.1; fill:none" points="235.283,400.145 2352.76,400.145 "></polyline>
<polyline clip-path="url(#clip042)" style="stroke:#000000; stroke-linecap:round; stroke-linejoin:round; stroke-width:2; stroke-opacity:0.1; fill:none" points="235.283,154.234 2352.76,154.234 "></polyline>
<polyline clip-path="url(#clip040)" style="stroke:#000000; stroke-linecap:round; stroke-linejoin:round; stroke-width:4; stroke-opacity:1; fill:none" points="235.283,1423.18 2352.76,1423.18 "></polyline>
<polyline clip-path="url(#clip040)" style="stroke:#000000; stroke-linecap:round; stroke-linejoin:round; stroke-width:4; stroke-opacity:1; fill:none" points="293.214,1423.18 293.214,1404.28 "></polyline>
<polyline clip-path="url(#clip040)" style="stroke:#000000; stroke-linecap:round; stroke-linejoin:round; stroke-width:4; stroke-opacity:1; fill:none" points="792.618,1423.18 792.618,1404.28 "></polyline>
<polyline clip-path="url(#clip040)" style="stroke:#000000; stroke-linecap:round; stroke-linejoin:round; stroke-width:4; stroke-opacity:1; fill:none" points="1292.02,1423.18 1292.02,1404.28 "></polyline>
<polyline clip-path="url(#clip040)" style="stroke:#000000; stroke-linecap:round; stroke-linejoin:round; stroke-width:4; stroke-opacity:1; fill:none" points="1791.43,1423.18 1791.43,1404.28 "></polyline>
<polyline clip-path="url(#clip040)" style="stroke:#000000; stroke-linecap:round; stroke-linejoin:round; stroke-width:4; stroke-opacity:1; fill:none" points="2290.83,1423.18 2290.83,1404.28 "></polyline>
<path clip-path="url(#clip040)" d="M293.214 1454.1 Q289.603 1454.1 287.774 1457.66 Q285.968 1461.2 285.968 1468.33 Q285.968 1475.44 287.774 1479.01 Q289.603 1482.55 293.214 1482.55 Q296.848 1482.55 298.654 1479.01 Q300.482 1475.44 300.482 1468.33 Q300.482 1461.2 298.654 1457.66 Q296.848 1454.1 293.214 1454.1 M293.214 1450.39 Q299.024 1450.39 302.079 1455 Q305.158 1459.58 305.158 1468.33 Q305.158 1477.06 302.079 1481.67 Q299.024 1486.25 293.214 1486.25 Q287.404 1486.25 284.325 1481.67 Q281.269 1477.06 281.269 1468.33 Q281.269 1459.58 284.325 1455 Q287.404 1450.39 293.214 1450.39 Z" fill="#000000" fill-rule="nonzero" fill-opacity="1"></path><path clip-path="url(#clip040)" d="M756.31 1481.64 L772.629 1481.64 L772.629 1485.58 L750.685 1485.58 L750.685 1481.64 Q753.347 1478.89 757.93 1474.26 Q762.537 1469.61 763.717 1468.27 Q765.963 1465.74 766.842 1464.01 Q767.745 1462.25 767.745 1460.56 Q767.745 1457.8 765.801 1456.07 Q763.879 1454.33 760.778 1454.33 Q758.579 1454.33 756.125 1455.09 Q753.694 1455.86 750.917 1457.41 L750.917 1452.69 Q753.741 1451.55 756.194 1450.97 Q758.648 1450.39 760.685 1450.39 Q766.055 1450.39 769.25 1453.08 Q772.444 1455.77 772.444 1460.26 Q772.444 1462.39 771.634 1464.31 Q770.847 1466.2 768.741 1468.8 Q768.162 1469.47 765.06 1472.69 Q761.958 1475.88 756.31 1481.64 Z" fill="#000000" fill-rule="nonzero" fill-opacity="1"></path><path clip-path="url(#clip040)" d="M782.49 1451.02 L800.847 1451.02 L800.847 1454.96 L786.773 1454.96 L786.773 1463.43 Q787.791 1463.08 788.81 1462.92 Q789.828 1462.73 790.847 1462.73 Q796.634 1462.73 800.014 1465.9 Q803.393 1469.08 803.393 1474.49 Q803.393 1480.07 799.921 1483.17 Q796.449 1486.25 790.129 1486.25 Q787.953 1486.25 785.685 1485.88 Q783.44 1485.51 781.032 1484.77 L781.032 1480.07 Q783.115 1481.2 785.338 1481.76 Q787.56 1482.32 790.037 1482.32 Q794.041 1482.32 796.379 1480.21 Q798.717 1478.1 798.717 1474.49 Q798.717 1470.88 796.379 1468.77 Q794.041 1466.67 790.037 1466.67 Q788.162 1466.67 786.287 1467.08 Q784.435 1467.5 782.49 1468.38 L782.49 1451.02 Z" fill="#000000" fill-rule="nonzero" fill-opacity="1"></path><path clip-path="url(#clip040)" d="M822.606 1454.1 Q818.995 1454.1 817.166 1457.66 Q815.361 1461.2 815.361 1468.33 Q815.361 1475.44 817.166 1479.01 Q818.995 1482.55 822.606 1482.55 Q826.24 1482.55 828.046 1479.01 Q829.874 1475.44 829.874 1468.33 Q829.874 1461.2 828.046 1457.66 Q826.24 1454.1 822.606 1454.1 M822.606 1450.39 Q828.416 1450.39 831.472 1455 Q834.55 1459.58 834.55 1468.33 Q834.55 1477.06 831.472 1481.67 Q828.416 1486.25 822.606 1486.25 Q816.796 1486.25 813.717 1481.67 Q810.662 1477.06 810.662 1468.33 Q810.662 1459.58 813.717 1455 Q816.796 1450.39 822.606 1450.39 Z" fill="#000000" fill-rule="nonzero" fill-opacity="1"></path><path clip-path="url(#clip040)" d="M1251.64 1451.02 L1270 1451.02 L1270 1454.96 L1255.92 1454.96 L1255.92 1463.43 Q1256.94 1463.08 1257.96 1462.92 Q1258.98 1462.73 1260 1462.73 Q1265.78 1462.73 1269.16 1465.9 Q1272.54 1469.08 1272.54 1474.49 Q1272.54 1480.07 1269.07 1483.17 Q1265.6 1486.25 1259.28 1486.25 Q1257.1 1486.25 1254.83 1485.88 Q1252.59 1485.51 1250.18 1484.77 L1250.18 1480.07 Q1252.27 1481.2 1254.49 1481.76 Q1256.71 1482.32 1259.19 1482.32 Q1263.19 1482.32 1265.53 1480.21 Q1267.87 1478.1 1267.87 1474.49 Q1267.87 1470.88 1265.53 1468.77 Q1263.19 1466.67 1259.19 1466.67 Q1257.31 1466.67 1255.44 1467.08 Q1253.58 1467.5 1251.64 1468.38 L1251.64 1451.02 Z" fill="#000000" fill-rule="nonzero" fill-opacity="1"></path><path clip-path="url(#clip040)" d="M1291.76 1454.1 Q1288.14 1454.1 1286.32 1457.66 Q1284.51 1461.2 1284.51 1468.33 Q1284.51 1475.44 1286.32 1479.01 Q1288.14 1482.55 1291.76 1482.55 Q1295.39 1482.55 1297.2 1479.01 Q1299.02 1475.44 1299.02 1468.33 Q1299.02 1461.2 1297.2 1457.66 Q1295.39 1454.1 1291.76 1454.1 M1291.76 1450.39 Q1297.57 1450.39 1300.62 1455 Q1303.7 1459.58 1303.7 1468.33 Q1303.7 1477.06 1300.62 1481.67 Q1297.57 1486.25 1291.76 1486.25 Q1285.95 1486.25 1282.87 1481.67 Q1279.81 1477.06 1279.81 1468.33 Q1279.81 1459.58 1282.87 1455 Q1285.95 1450.39 1291.76 1450.39 Z" fill="#000000" fill-rule="nonzero" fill-opacity="1"></path><path clip-path="url(#clip040)" d="M1321.92 1454.1 Q1318.31 1454.1 1316.48 1457.66 Q1314.67 1461.2 1314.67 1468.33 Q1314.67 1475.44 1316.48 1479.01 Q1318.31 1482.55 1321.92 1482.55 Q1325.55 1482.55 1327.36 1479.01 Q1329.19 1475.44 1329.19 1468.33 Q1329.19 1461.2 1327.36 1457.66 Q1325.55 1454.1 1321.92 1454.1 M1321.92 1450.39 Q1327.73 1450.39 1330.78 1455 Q1333.86 1459.58 1333.86 1468.33 Q1333.86 1477.06 1330.78 1481.67 Q1327.73 1486.25 1321.92 1486.25 Q1316.11 1486.25 1313.03 1481.67 Q1309.97 1477.06 1309.97 1468.33 Q1309.97 1459.58 1313.03 1455 Q1316.11 1450.39 1321.92 1450.39 Z" fill="#000000" fill-rule="nonzero" fill-opacity="1"></path><path clip-path="url(#clip040)" d="M1749.7 1451.02 L1771.92 1451.02 L1771.92 1453.01 L1759.38 1485.58 L1754.49 1485.58 L1766.3 1454.96 L1749.7 1454.96 L1749.7 1451.02 Z" fill="#000000" fill-rule="nonzero" fill-opacity="1"></path><path clip-path="url(#clip040)" d="M1781.09 1451.02 L1799.45 1451.02 L1799.45 1454.96 L1785.37 1454.96 L1785.37 1463.43 Q1786.39 1463.08 1787.41 1462.92 Q1788.43 1462.73 1789.45 1462.73 Q1795.23 1462.73 1798.61 1465.9 Q1801.99 1469.08 1801.99 1474.49 Q1801.99 1480.07 1798.52 1483.17 Q1795.05 1486.25 1788.73 1486.25 Q1786.55 1486.25 1784.28 1485.88 Q1782.04 1485.51 1779.63 1484.77 L1779.63 1480.07 Q1781.72 1481.2 1783.94 1481.76 Q1786.16 1482.32 1788.64 1482.32 Q1792.64 1482.32 1794.98 1480.21 Q1797.32 1478.1 1797.32 1474.49 Q1797.32 1470.88 1794.98 1468.77 Q1792.64 1466.67 1788.64 1466.67 Q1786.76 1466.67 1784.89 1467.08 Q1783.03 1467.5 1781.09 1468.38 L1781.09 1451.02 Z" fill="#000000" fill-rule="nonzero" fill-opacity="1"></path><path clip-path="url(#clip040)" d="M1821.21 1454.1 Q1817.59 1454.1 1815.77 1457.66 Q1813.96 1461.2 1813.96 1468.33 Q1813.96 1475.44 1815.77 1479.01 Q1817.59 1482.55 1821.21 1482.55 Q1824.84 1482.55 1826.65 1479.01 Q1828.47 1475.44 1828.47 1468.33 Q1828.47 1461.2 1826.65 1457.66 Q1824.84 1454.1 1821.21 1454.1 M1821.21 1450.39 Q1827.02 1450.39 1830.07 1455 Q1833.15 1459.58 1833.15 1468.33 Q1833.15 1477.06 1830.07 1481.67 Q1827.02 1486.25 1821.21 1486.25 Q1815.4 1486.25 1812.32 1481.67 Q1809.26 1477.06 1809.26 1468.33 Q1809.26 1459.58 1812.32 1455 Q1815.4 1450.39 1821.21 1450.39 Z" fill="#000000" fill-rule="nonzero" fill-opacity="1"></path><path clip-path="url(#clip040)" d="M2235.36 1481.64 L2242.99 1481.64 L2242.99 1455.28 L2234.68 1456.95 L2234.68 1452.69 L2242.95 1451.02 L2247.62 1451.02 L2247.62 1481.64 L2255.26 1481.64 L2255.26 1485.58 L2235.36 1485.58 L2235.36 1481.64 Z" fill="#000000" fill-rule="nonzero" fill-opacity="1"></path><path clip-path="url(#clip040)" d="M2274.71 1454.1 Q2271.1 1454.1 2269.27 1457.66 Q2267.46 1461.2 2267.46 1468.33 Q2267.46 1475.44 2269.27 1479.01 Q2271.1 1482.55 2274.71 1482.55 Q2278.34 1482.55 2280.15 1479.01 Q2281.98 1475.44 2281.98 1468.33 Q2281.98 1461.2 2280.15 1457.66 Q2278.34 1454.1 2274.71 1454.1 M2274.71 1450.39 Q2280.52 1450.39 2283.57 1455 Q2286.65 1459.58 2286.65 1468.33 Q2286.65 1477.06 2283.57 1481.67 Q2280.52 1486.25 2274.71 1486.25 Q2268.9 1486.25 2265.82 1481.67 Q2262.76 1477.06 2262.76 1468.33 Q2262.76 1459.58 2265.82 1455 Q2268.9 1450.39 2274.71 1450.39 Z" fill="#000000" fill-rule="nonzero" fill-opacity="1"></path><path clip-path="url(#clip040)" d="M2304.87 1454.1 Q2301.26 1454.1 2299.43 1457.66 Q2297.62 1461.2 2297.62 1468.33 Q2297.62 1475.44 2299.43 1479.01 Q2301.26 1482.55 2304.87 1482.55 Q2308.5 1482.55 2310.31 1479.01 Q2312.14 1475.44 2312.14 1468.33 Q2312.14 1461.2 2310.31 1457.66 Q2308.5 1454.1 2304.87 1454.1 M2304.87 1450.39 Q2310.68 1450.39 2313.73 1455 Q2316.81 1459.58 2316.81 1468.33 Q2316.81 1477.06 2313.73 1481.67 Q2310.68 1486.25 2304.87 1486.25 Q2299.06 1486.25 2295.98 1481.67 Q2292.92 1477.06 2292.92 1468.33 Q2292.92 1459.58 2295.98 1455 Q2299.06 1450.39 2304.87 1450.39 Z" fill="#000000" fill-rule="nonzero" fill-opacity="1"></path><path clip-path="url(#clip040)" d="M2335.03 1454.1 Q2331.42 1454.1 2329.59 1457.66 Q2327.79 1461.2 2327.79 1468.33 Q2327.79 1475.44 2329.59 1479.01 Q2331.42 1482.55 2335.03 1482.55 Q2338.67 1482.55 2340.47 1479.01 Q2342.3 1475.44 2342.3 1468.33 Q2342.3 1461.2 2340.47 1457.66 Q2338.67 1454.1 2335.03 1454.1 M2335.03 1450.39 Q2340.84 1450.39 2343.9 1455 Q2346.98 1459.58 2346.98 1468.33 Q2346.98 1477.06 2343.9 1481.67 Q2340.84 1486.25 2335.03 1486.25 Q2329.22 1486.25 2326.14 1481.67 Q2323.09 1477.06 2323.09 1468.33 Q2323.09 1459.58 2326.14 1455 Q2329.22 1450.39 2335.03 1450.39 Z" fill="#000000" fill-rule="nonzero" fill-opacity="1"></path><path clip-path="url(#clip040)" d="M1233.18 1522.27 L1233.18 1532.4 L1245.24 1532.4 L1245.24 1536.95 L1233.18 1536.95 L1233.18 1556.3 Q1233.18 1560.66 1234.36 1561.9 Q1235.57 1563.14 1239.23 1563.14 L1245.24 1563.14 L1245.24 1568.04 L1239.23 1568.04 Q1232.45 1568.04 1229.87 1565.53 Q1227.29 1562.98 1227.29 1556.3 L1227.29 1536.95 L1222.99 1536.95 L1222.99 1532.4 L1227.29 1532.4 L1227.29 1522.27 L1233.18 1522.27 Z" fill="#000000" fill-rule="nonzero" fill-opacity="1"></path><path clip-path="url(#clip040)" d="M1252.94 1532.4 L1258.8 1532.4 L1258.8 1568.04 L1252.94 1568.04 L1252.94 1532.4 M1252.94 1518.52 L1258.8 1518.52 L1258.8 1525.93 L1252.94 1525.93 L1252.94 1518.52 Z" fill="#000000" fill-rule="nonzero" fill-opacity="1"></path><path clip-path="url(#clip040)" d="M1298.81 1539.24 Q1301.01 1535.29 1304.06 1533.41 Q1307.12 1531.54 1311.25 1531.54 Q1316.82 1531.54 1319.85 1535.45 Q1322.87 1539.33 1322.87 1546.53 L1322.87 1568.04 L1316.98 1568.04 L1316.98 1546.72 Q1316.98 1541.59 1315.17 1539.11 Q1313.36 1536.63 1309.63 1536.63 Q1305.08 1536.63 1302.44 1539.65 Q1299.8 1542.68 1299.8 1547.9 L1299.8 1568.04 L1293.91 1568.04 L1293.91 1546.72 Q1293.91 1541.56 1292.09 1539.11 Q1290.28 1536.63 1286.49 1536.63 Q1282 1536.63 1279.36 1539.68 Q1276.72 1542.71 1276.72 1547.9 L1276.72 1568.04 L1270.83 1568.04 L1270.83 1532.4 L1276.72 1532.4 L1276.72 1537.93 Q1278.73 1534.66 1281.53 1533.1 Q1284.33 1531.54 1288.18 1531.54 Q1292.06 1531.54 1294.77 1533.51 Q1297.5 1535.48 1298.81 1539.24 Z" fill="#000000" fill-rule="nonzero" fill-opacity="1"></path><path clip-path="url(#clip040)" d="M1365.04 1548.76 L1365.04 1551.62 L1338.12 1551.62 Q1338.5 1557.67 1341.75 1560.85 Q1345.02 1564 1350.85 1564 Q1354.22 1564 1357.37 1563.17 Q1360.56 1562.35 1363.68 1560.69 L1363.68 1566.23 Q1360.53 1567.57 1357.21 1568.27 Q1353.9 1568.97 1350.5 1568.97 Q1341.97 1568.97 1336.97 1564 Q1332.01 1559.04 1332.01 1550.57 Q1332.01 1541.82 1336.72 1536.69 Q1341.46 1531.54 1349.48 1531.54 Q1356.67 1531.54 1360.84 1536.18 Q1365.04 1540.8 1365.04 1548.76 M1359.19 1547.04 Q1359.12 1542.23 1356.48 1539.37 Q1353.87 1536.5 1349.54 1536.5 Q1344.64 1536.5 1341.68 1539.27 Q1338.75 1542.04 1338.31 1547.07 L1359.19 1547.04 Z" fill="#000000" fill-rule="nonzero" fill-opacity="1"></path><polyline clip-path="url(#clip040)" style="stroke:#000000; stroke-linecap:round; stroke-linejoin:round; stroke-width:4; stroke-opacity:1; fill:none" points="235.283,1423.18 235.283,123.472 "></polyline>
<polyline clip-path="url(#clip040)" style="stroke:#000000; stroke-linecap:round; stroke-linejoin:round; stroke-width:4; stroke-opacity:1; fill:none" points="235.283,1383.79 254.18,1383.79 "></polyline>
<polyline clip-path="url(#clip040)" style="stroke:#000000; stroke-linecap:round; stroke-linejoin:round; stroke-width:4; stroke-opacity:1; fill:none" points="235.283,1137.88 254.18,1137.88 "></polyline>
<polyline clip-path="url(#clip040)" style="stroke:#000000; stroke-linecap:round; stroke-linejoin:round; stroke-width:4; stroke-opacity:1; fill:none" points="235.283,891.967 254.18,891.967 "></polyline>
<polyline clip-path="url(#clip040)" style="stroke:#000000; stroke-linecap:round; stroke-linejoin:round; stroke-width:4; stroke-opacity:1; fill:none" points="235.283,646.056 254.18,646.056 "></polyline>
<polyline clip-path="url(#clip040)" style="stroke:#000000; stroke-linecap:round; stroke-linejoin:round; stroke-width:4; stroke-opacity:1; fill:none" points="235.283,400.145 254.18,400.145 "></polyline>
<polyline clip-path="url(#clip040)" style="stroke:#000000; stroke-linecap:round; stroke-linejoin:round; stroke-width:4; stroke-opacity:1; fill:none" points="235.283,154.234 254.18,154.234 "></polyline>
<path clip-path="url(#clip040)" d="M187.338 1369.59 Q183.727 1369.59 181.899 1373.15 Q180.093 1376.69 180.093 1383.82 Q180.093 1390.93 181.899 1394.49 Q183.727 1398.04 187.338 1398.04 Q190.973 1398.04 192.778 1394.49 Q194.607 1390.93 194.607 1383.82 Q194.607 1376.69 192.778 1373.15 Q190.973 1369.59 187.338 1369.59 M187.338 1365.88 Q193.149 1365.88 196.204 1370.49 Q199.283 1375.07 199.283 1383.82 Q199.283 1392.55 196.204 1397.16 Q193.149 1401.74 187.338 1401.74 Q181.528 1401.74 178.45 1397.16 Q175.394 1392.55 175.394 1383.82 Q175.394 1375.07 178.45 1370.49 Q181.528 1365.88 187.338 1365.88 Z" fill="#000000" fill-rule="nonzero" fill-opacity="1"></path><path clip-path="url(#clip040)" d="M117.825 1151.22 L125.464 1151.22 L125.464 1124.86 L117.154 1126.52 L117.154 1122.26 L125.418 1120.6 L130.093 1120.6 L130.093 1151.22 L137.732 1151.22 L137.732 1155.16 L117.825 1155.16 L117.825 1151.22 Z" fill="#000000" fill-rule="nonzero" fill-opacity="1"></path><path clip-path="url(#clip040)" d="M157.177 1123.68 Q153.566 1123.68 151.737 1127.24 Q149.931 1130.78 149.931 1137.91 Q149.931 1145.02 151.737 1148.58 Q153.566 1152.13 157.177 1152.13 Q160.811 1152.13 162.616 1148.58 Q164.445 1145.02 164.445 1137.91 Q164.445 1130.78 162.616 1127.24 Q160.811 1123.68 157.177 1123.68 M157.177 1119.97 Q162.987 1119.97 166.042 1124.58 Q169.121 1129.16 169.121 1137.91 Q169.121 1146.64 166.042 1151.25 Q162.987 1155.83 157.177 1155.83 Q151.366 1155.83 148.288 1151.25 Q145.232 1146.64 145.232 1137.91 Q145.232 1129.16 148.288 1124.58 Q151.366 1119.97 157.177 1119.97 Z" fill="#000000" fill-rule="nonzero" fill-opacity="1"></path><path clip-path="url(#clip040)" d="M187.338 1123.68 Q183.727 1123.68 181.899 1127.24 Q180.093 1130.78 180.093 1137.91 Q180.093 1145.02 181.899 1148.58 Q183.727 1152.13 187.338 1152.13 Q190.973 1152.13 192.778 1148.58 Q194.607 1145.02 194.607 1137.91 Q194.607 1130.78 192.778 1127.24 Q190.973 1123.68 187.338 1123.68 M187.338 1119.97 Q193.149 1119.97 196.204 1124.58 Q199.283 1129.16 199.283 1137.91 Q199.283 1146.64 196.204 1151.25 Q193.149 1155.83 187.338 1155.83 Q181.528 1155.83 178.45 1151.25 Q175.394 1146.64 175.394 1137.91 Q175.394 1129.16 178.45 1124.58 Q181.528 1119.97 187.338 1119.97 Z" fill="#000000" fill-rule="nonzero" fill-opacity="1"></path><path clip-path="url(#clip040)" d="M121.043 905.312 L137.362 905.312 L137.362 909.247 L115.418 909.247 L115.418 905.312 Q118.08 902.557 122.663 897.928 Q127.269 893.275 128.45 891.932 Q130.695 889.409 131.575 887.673 Q132.478 885.914 132.478 884.224 Q132.478 881.469 130.533 879.733 Q128.612 877.997 125.51 877.997 Q123.311 877.997 120.857 878.761 Q118.427 879.525 115.649 881.076 L115.649 876.354 Q118.473 875.219 120.927 874.641 Q123.38 874.062 125.418 874.062 Q130.788 874.062 133.982 876.747 Q137.177 879.432 137.177 883.923 Q137.177 886.053 136.367 887.974 Q135.579 889.872 133.473 892.465 Q132.894 893.136 129.792 896.353 Q126.691 899.548 121.043 905.312 Z" fill="#000000" fill-rule="nonzero" fill-opacity="1"></path><path clip-path="url(#clip040)" d="M157.177 877.766 Q153.566 877.766 151.737 881.33 Q149.931 884.872 149.931 892.002 Q149.931 899.108 151.737 902.673 Q153.566 906.214 157.177 906.214 Q160.811 906.214 162.616 902.673 Q164.445 899.108 164.445 892.002 Q164.445 884.872 162.616 881.33 Q160.811 877.766 157.177 877.766 M157.177 874.062 Q162.987 874.062 166.042 878.668 Q169.121 883.252 169.121 892.002 Q169.121 900.728 166.042 905.335 Q162.987 909.918 157.177 909.918 Q151.366 909.918 148.288 905.335 Q145.232 900.728 145.232 892.002 Q145.232 883.252 148.288 878.668 Q151.366 874.062 157.177 874.062 Z" fill="#000000" fill-rule="nonzero" fill-opacity="1"></path><path clip-path="url(#clip040)" d="M187.338 877.766 Q183.727 877.766 181.899 881.33 Q180.093 884.872 180.093 892.002 Q180.093 899.108 181.899 902.673 Q183.727 906.214 187.338 906.214 Q190.973 906.214 192.778 902.673 Q194.607 899.108 194.607 892.002 Q194.607 884.872 192.778 881.33 Q190.973 877.766 187.338 877.766 M187.338 874.062 Q193.149 874.062 196.204 878.668 Q199.283 883.252 199.283 892.002 Q199.283 900.728 196.204 905.335 Q193.149 909.918 187.338 909.918 Q181.528 909.918 178.45 905.335 Q175.394 900.728 175.394 892.002 Q175.394 883.252 178.45 878.668 Q181.528 874.062 187.338 874.062 Z" fill="#000000" fill-rule="nonzero" fill-opacity="1"></path><path clip-path="url(#clip040)" d="M131.181 644.702 Q134.538 645.419 136.413 647.688 Q138.311 649.956 138.311 653.29 Q138.311 658.405 134.792 661.206 Q131.274 664.007 124.793 664.007 Q122.617 664.007 120.302 663.567 Q118.01 663.151 115.556 662.294 L115.556 657.78 Q117.501 658.915 119.816 659.493 Q122.13 660.072 124.654 660.072 Q129.052 660.072 131.343 658.336 Q133.658 656.6 133.658 653.29 Q133.658 650.234 131.505 648.521 Q129.376 646.785 125.556 646.785 L121.529 646.785 L121.529 642.943 L125.742 642.943 Q129.191 642.943 131.019 641.577 Q132.848 640.188 132.848 637.595 Q132.848 634.933 130.95 633.521 Q129.075 632.086 125.556 632.086 Q123.635 632.086 121.436 632.503 Q119.237 632.919 116.598 633.799 L116.598 629.632 Q119.26 628.892 121.575 628.521 Q123.913 628.151 125.973 628.151 Q131.297 628.151 134.399 630.581 Q137.501 632.989 137.501 637.109 Q137.501 639.98 135.857 641.97 Q134.214 643.938 131.181 644.702 Z" fill="#000000" fill-rule="nonzero" fill-opacity="1"></path><path clip-path="url(#clip040)" d="M157.177 631.855 Q153.566 631.855 151.737 635.419 Q149.931 638.961 149.931 646.091 Q149.931 653.197 151.737 656.762 Q153.566 660.304 157.177 660.304 Q160.811 660.304 162.616 656.762 Q164.445 653.197 164.445 646.091 Q164.445 638.961 162.616 635.419 Q160.811 631.855 157.177 631.855 M157.177 628.151 Q162.987 628.151 166.042 632.757 Q169.121 637.341 169.121 646.091 Q169.121 654.817 166.042 659.424 Q162.987 664.007 157.177 664.007 Q151.366 664.007 148.288 659.424 Q145.232 654.817 145.232 646.091 Q145.232 637.341 148.288 632.757 Q151.366 628.151 157.177 628.151 Z" fill="#000000" fill-rule="nonzero" fill-opacity="1"></path><path clip-path="url(#clip040)" d="M187.338 631.855 Q183.727 631.855 181.899 635.419 Q180.093 638.961 180.093 646.091 Q180.093 653.197 181.899 656.762 Q183.727 660.304 187.338 660.304 Q190.973 660.304 192.778 656.762 Q194.607 653.197 194.607 646.091 Q194.607 638.961 192.778 635.419 Q190.973 631.855 187.338 631.855 M187.338 628.151 Q193.149 628.151 196.204 632.757 Q199.283 637.341 199.283 646.091 Q199.283 654.817 196.204 659.424 Q193.149 664.007 187.338 664.007 Q181.528 664.007 178.45 659.424 Q175.394 654.817 175.394 646.091 Q175.394 637.341 178.45 632.757 Q181.528 628.151 187.338 628.151 Z" fill="#000000" fill-rule="nonzero" fill-opacity="1"></path><path clip-path="url(#clip040)" d="M129.862 386.939 L118.056 405.388 L129.862 405.388 L129.862 386.939 M128.635 382.865 L134.515 382.865 L134.515 405.388 L139.445 405.388 L139.445 409.277 L134.515 409.277 L134.515 417.425 L129.862 417.425 L129.862 409.277 L114.26 409.277 L114.26 404.763 L128.635 382.865 Z" fill="#000000" fill-rule="nonzero" fill-opacity="1"></path><path clip-path="url(#clip040)" d="M157.177 385.944 Q153.566 385.944 151.737 389.508 Q149.931 393.05 149.931 400.18 Q149.931 407.286 151.737 410.851 Q153.566 414.393 157.177 414.393 Q160.811 414.393 162.616 410.851 Q164.445 407.286 164.445 400.18 Q164.445 393.05 162.616 389.508 Q160.811 385.944 157.177 385.944 M157.177 382.24 Q162.987 382.24 166.042 386.846 Q169.121 391.43 169.121 400.18 Q169.121 408.907 166.042 413.513 Q162.987 418.096 157.177 418.096 Q151.366 418.096 148.288 413.513 Q145.232 408.907 145.232 400.18 Q145.232 391.43 148.288 386.846 Q151.366 382.24 157.177 382.24 Z" fill="#000000" fill-rule="nonzero" fill-opacity="1"></path><path clip-path="url(#clip040)" d="M187.338 385.944 Q183.727 385.944 181.899 389.508 Q180.093 393.05 180.093 400.18 Q180.093 407.286 181.899 410.851 Q183.727 414.393 187.338 414.393 Q190.973 414.393 192.778 410.851 Q194.607 407.286 194.607 400.18 Q194.607 393.05 192.778 389.508 Q190.973 385.944 187.338 385.944 M187.338 382.24 Q193.149 382.24 196.204 386.846 Q199.283 391.43 199.283 400.18 Q199.283 408.907 196.204 413.513 Q193.149 418.096 187.338 418.096 Q181.528 418.096 178.45 413.513 Q175.394 408.907 175.394 400.18 Q175.394 391.43 178.45 386.846 Q181.528 382.24 187.338 382.24 Z" fill="#000000" fill-rule="nonzero" fill-opacity="1"></path><path clip-path="url(#clip040)" d="M117.061 136.954 L135.417 136.954 L135.417 140.889 L121.343 140.889 L121.343 149.361 Q122.362 149.014 123.38 148.852 Q124.399 148.667 125.418 148.667 Q131.205 148.667 134.584 151.838 Q137.964 155.01 137.964 160.426 Q137.964 166.005 134.492 169.107 Q131.019 172.185 124.7 172.185 Q122.524 172.185 120.255 171.815 Q118.01 171.445 115.603 170.704 L115.603 166.005 Q117.686 167.139 119.908 167.695 Q122.13 168.25 124.607 168.25 Q128.612 168.25 130.95 166.144 Q133.288 164.037 133.288 160.426 Q133.288 156.815 130.95 154.709 Q128.612 152.602 124.607 152.602 Q122.732 152.602 120.857 153.019 Q119.006 153.435 117.061 154.315 L117.061 136.954 Z" fill="#000000" fill-rule="nonzero" fill-opacity="1"></path><path clip-path="url(#clip040)" d="M157.177 140.033 Q153.566 140.033 151.737 143.598 Q149.931 147.139 149.931 154.269 Q149.931 161.375 151.737 164.94 Q153.566 168.482 157.177 168.482 Q160.811 168.482 162.616 164.94 Q164.445 161.375 164.445 154.269 Q164.445 147.139 162.616 143.598 Q160.811 140.033 157.177 140.033 M157.177 136.329 Q162.987 136.329 166.042 140.936 Q169.121 145.519 169.121 154.269 Q169.121 162.996 166.042 167.602 Q162.987 172.185 157.177 172.185 Q151.366 172.185 148.288 167.602 Q145.232 162.996 145.232 154.269 Q145.232 145.519 148.288 140.936 Q151.366 136.329 157.177 136.329 Z" fill="#000000" fill-rule="nonzero" fill-opacity="1"></path><path clip-path="url(#clip040)" d="M187.338 140.033 Q183.727 140.033 181.899 143.598 Q180.093 147.139 180.093 154.269 Q180.093 161.375 181.899 164.94 Q183.727 168.482 187.338 168.482 Q190.973 168.482 192.778 164.94 Q194.607 161.375 194.607 154.269 Q194.607 147.139 192.778 143.598 Q190.973 140.033 187.338 140.033 M187.338 136.329 Q193.149 136.329 196.204 140.936 Q199.283 145.519 199.283 154.269 Q199.283 162.996 196.204 167.602 Q193.149 172.185 187.338 172.185 Q181.528 172.185 178.45 167.602 Q175.394 162.996 175.394 154.269 Q175.394 145.519 178.45 140.936 Q181.528 136.329 187.338 136.329 Z" fill="#000000" fill-rule="nonzero" fill-opacity="1"></path><path clip-path="url(#clip040)" d="M44.7161 911.525 L47.5806 911.525 L47.5806 938.452 Q53.6281 938.07 56.8109 934.824 Q59.9619 931.546 59.9619 925.721 Q59.9619 922.347 59.1344 919.196 Q58.3069 916.013 56.6518 912.894 L62.1899 912.894 Q63.5267 916.045 64.227 919.355 Q64.9272 922.665 64.9272 926.071 Q64.9272 934.601 59.9619 939.598 Q54.9967 944.563 46.5303 944.563 Q37.7774 944.563 32.6531 939.853 Q27.4968 935.11 27.4968 927.09 Q27.4968 919.896 32.1438 915.727 Q36.7589 911.525 44.7161 911.525 M42.9973 917.382 Q38.1912 917.446 35.3266 920.087 Q32.4621 922.697 32.4621 927.026 Q32.4621 931.928 35.2312 934.888 Q38.0002 937.816 43.0292 938.261 L42.9973 917.382 Z" fill="#000000" fill-rule="nonzero" fill-opacity="1"></path><path clip-path="url(#clip040)" d="M28.3562 873.427 L45.7028 886.317 L64.0042 872.758 L64.0042 879.665 L49.9996 890.041 L64.0042 900.417 L64.0042 907.324 L45.3526 893.479 L28.3562 906.146 L28.3562 899.24 L41.0558 889.787 L28.3562 880.334 L28.3562 873.427 Z" fill="#000000" fill-rule="nonzero" fill-opacity="1"></path><path clip-path="url(#clip040)" d="M58.657 858.817 L77.5631 858.817 L77.5631 864.706 L28.3562 864.706 L28.3562 858.817 L33.7671 858.817 Q30.5842 856.971 29.0564 854.17 Q27.4968 851.338 27.4968 847.423 Q27.4968 840.93 32.6531 836.888 Q37.8093 832.814 46.212 832.814 Q54.6147 832.814 59.771 836.888 Q64.9272 840.93 64.9272 847.423 Q64.9272 851.338 63.3994 854.17 Q61.8398 856.971 58.657 858.817 M46.212 838.893 Q39.7508 838.893 36.0905 841.566 Q32.3984 844.208 32.3984 848.855 Q32.3984 853.502 36.0905 856.176 Q39.7508 858.817 46.212 858.817 Q52.6732 858.817 56.3653 856.176 Q60.0256 853.502 60.0256 848.855 Q60.0256 844.208 56.3653 841.566 Q52.6732 838.893 46.212 838.893 Z" fill="#000000" fill-rule="nonzero" fill-opacity="1"></path><path clip-path="url(#clip040)" d="M33.8307 802.449 Q33.2578 803.436 33.0032 804.613 Q32.7167 805.759 32.7167 807.16 Q32.7167 812.125 35.9632 814.799 Q39.1779 817.44 45.2253 817.44 L64.0042 817.44 L64.0042 823.329 L28.3562 823.329 L28.3562 817.44 L33.8944 817.44 Q30.6479 815.594 29.0883 812.634 Q27.4968 809.674 27.4968 805.441 Q27.4968 804.836 27.5923 804.104 Q27.656 803.372 27.8151 802.481 L33.8307 802.449 Z" fill="#000000" fill-rule="nonzero" fill-opacity="1"></path><path clip-path="url(#clip040)" d="M44.7161 767.247 L47.5806 767.247 L47.5806 794.174 Q53.6281 793.792 56.8109 790.545 Q59.9619 787.267 59.9619 781.442 Q59.9619 778.068 59.1344 774.917 Q58.3069 771.735 56.6518 768.615 L62.1899 768.615 Q63.5267 771.766 64.227 775.077 Q64.9272 778.387 64.9272 781.792 Q64.9272 790.322 59.9619 795.32 Q54.9967 800.285 46.5303 800.285 Q37.7774 800.285 32.6531 795.574 Q27.4968 790.832 27.4968 782.811 Q27.4968 775.618 32.1438 771.448 Q36.7589 767.247 44.7161 767.247 M42.9973 773.103 Q38.1912 773.167 35.3266 775.809 Q32.4621 778.419 32.4621 782.747 Q32.4621 787.649 35.2312 790.609 Q38.0002 793.537 43.0292 793.983 L42.9973 773.103 Z" fill="#000000" fill-rule="nonzero" fill-opacity="1"></path><path clip-path="url(#clip040)" d="M29.4065 734.909 L34.9447 734.909 Q33.6716 737.392 33.035 740.065 Q32.3984 742.739 32.3984 745.603 Q32.3984 749.964 33.7352 752.16 Q35.072 754.324 37.7456 754.324 Q39.7826 754.324 40.9603 752.765 Q42.1061 751.205 43.1565 746.495 L43.6021 744.489 Q44.9389 738.251 47.3897 735.641 Q49.8086 732.999 54.1691 732.999 Q59.1344 732.999 62.0308 736.946 Q64.9272 740.861 64.9272 747.736 Q64.9272 750.6 64.3543 753.72 Q63.8132 756.807 62.6992 760.244 L56.6518 760.244 Q58.3387 756.998 59.198 753.847 Q60.0256 750.696 60.0256 747.609 Q60.0256 743.471 58.6251 741.243 Q57.1929 739.015 54.6147 739.015 Q52.2276 739.015 50.9545 740.638 Q49.6813 742.23 48.5037 747.672 L48.0262 749.709 Q46.8804 755.152 44.5251 757.571 Q42.138 759.99 38.0002 759.99 Q32.9713 759.99 30.2341 756.425 Q27.4968 752.86 27.4968 746.304 Q27.4968 743.057 27.9743 740.192 Q28.4517 737.328 29.4065 734.909 Z" fill="#000000" fill-rule="nonzero" fill-opacity="1"></path><path clip-path="url(#clip040)" d="M29.4065 700.948 L34.9447 700.948 Q33.6716 703.431 33.035 706.104 Q32.3984 708.778 32.3984 711.642 Q32.3984 716.003 33.7352 718.199 Q35.072 720.363 37.7456 720.363 Q39.7826 720.363 40.9603 718.804 Q42.1061 717.244 43.1565 712.533 L43.6021 710.528 Q44.9389 704.29 47.3897 701.68 Q49.8086 699.038 54.1691 699.038 Q59.1344 699.038 62.0308 702.985 Q64.9272 706.9 64.9272 713.775 Q64.9272 716.639 64.3543 719.759 Q63.8132 722.846 62.6992 726.283 L56.6518 726.283 Q58.3387 723.037 59.198 719.886 Q60.0256 716.735 60.0256 713.647 Q60.0256 709.51 58.6251 707.282 Q57.1929 705.054 54.6147 705.054 Q52.2276 705.054 50.9545 706.677 Q49.6813 708.268 48.5037 713.711 L48.0262 715.748 Q46.8804 721.191 44.5251 723.61 Q42.138 726.029 38.0002 726.029 Q32.9713 726.029 30.2341 722.464 Q27.4968 718.899 27.4968 712.343 Q27.4968 709.096 27.9743 706.231 Q28.4517 703.367 29.4065 700.948 Z" fill="#000000" fill-rule="nonzero" fill-opacity="1"></path><path clip-path="url(#clip040)" d="M28.3562 689.712 L28.3562 683.856 L64.0042 683.856 L64.0042 689.712 L28.3562 689.712 M14.479 689.712 L14.479 683.856 L21.895 683.856 L21.895 689.712 L14.479 689.712 Z" fill="#000000" fill-rule="nonzero" fill-opacity="1"></path><path clip-path="url(#clip040)" d="M32.4621 657.788 Q32.4621 662.499 36.1542 665.236 Q39.8145 667.974 46.212 667.974 Q52.6095 667.974 56.3017 665.268 Q59.9619 662.531 59.9619 657.788 Q59.9619 653.11 56.2698 650.372 Q52.5777 647.635 46.212 647.635 Q39.8781 647.635 36.186 650.372 Q32.4621 653.11 32.4621 657.788 M27.4968 657.788 Q27.4968 650.15 32.4621 645.789 Q37.4273 641.429 46.212 641.429 Q54.9649 641.429 59.9619 645.789 Q64.9272 650.15 64.9272 657.788 Q64.9272 665.459 59.9619 669.82 Q54.9649 674.148 46.212 674.148 Q37.4273 674.148 32.4621 669.82 Q27.4968 665.459 27.4968 657.788 Z" fill="#000000" fill-rule="nonzero" fill-opacity="1"></path><path clip-path="url(#clip040)" d="M42.4881 602.088 L64.0042 602.088 L64.0042 607.945 L42.679 607.945 Q37.6183 607.945 35.1038 609.918 Q32.5894 611.892 32.5894 615.838 Q32.5894 620.581 35.6131 623.318 Q38.6368 626.055 43.8567 626.055 L64.0042 626.055 L64.0042 631.944 L28.3562 631.944 L28.3562 626.055 L33.8944 626.055 Q30.6797 623.955 29.0883 621.122 Q27.4968 618.257 27.4968 614.533 Q27.4968 608.391 31.3163 605.24 Q35.1038 602.088 42.4881 602.088 Z" fill="#000000" fill-rule="nonzero" fill-opacity="1"></path><path clip-path="url(#clip040)" d="M879.207 71.3202 L879.207 63.8666 Q882.285 65.3249 885.445 66.0946 Q888.605 66.8642 891.643 66.8642 Q899.745 66.8642 903.998 61.436 Q908.292 55.9673 908.9 44.8678 Q906.55 48.3516 902.945 50.215 Q899.34 52.0784 894.965 52.0784 Q885.891 52.0784 880.584 46.6097 Q875.318 41.1005 875.318 31.5808 Q875.318 22.2638 880.827 16.633 Q886.336 11.0023 895.491 11.0023 Q905.983 11.0023 911.492 19.0636 Q917.042 27.0843 917.042 42.3968 Q917.042 56.6965 910.237 65.2439 Q903.472 73.7508 892.008 73.7508 Q888.929 73.7508 885.769 73.1431 Q882.61 72.5355 879.207 71.3202 M895.491 45.678 Q901.001 45.678 904.201 41.9107 Q907.442 38.1433 907.442 31.5808 Q907.442 25.0589 904.201 21.2916 Q901.001 17.4837 895.491 17.4837 Q889.982 17.4837 886.741 21.2916 Q883.541 25.0589 883.541 31.5808 Q883.541 38.1433 886.741 41.9107 Q889.982 45.678 895.491 45.678 Z" fill="#000000" fill-rule="nonzero" fill-opacity="1"></path><path clip-path="url(#clip040)" d="M974.646 32.4315 Q968.651 32.4315 965.167 37.1306 Q961.683 41.7891 961.683 49.9314 Q961.683 58.0738 965.126 62.7728 Q968.61 67.4314 974.646 67.4314 Q980.601 67.4314 984.085 62.7323 Q987.568 58.0333 987.568 49.9314 Q987.568 41.8701 984.085 37.1711 Q980.601 32.4315 974.646 32.4315 M974.646 26.1121 Q984.368 26.1121 989.918 32.4315 Q995.468 38.7509 995.468 49.9314 Q995.468 61.0714 989.918 67.4314 Q984.368 73.7508 974.646 73.7508 Q964.883 73.7508 959.334 67.4314 Q953.824 61.0714 953.824 49.9314 Q953.824 38.7509 959.334 32.4315 Q964.883 26.1121 974.646 26.1121 Z" fill="#000000" fill-rule="nonzero" fill-opacity="1"></path><path clip-path="url(#clip040)" d="M1036.75 28.5427 L1036.75 35.5912 Q1033.59 33.9709 1030.18 33.1607 Q1026.78 32.3505 1023.14 32.3505 Q1017.59 32.3505 1014.79 34.0519 Q1012.04 35.7533 1012.04 39.156 Q1012.04 41.7486 1014.02 43.2475 Q1016.01 44.7058 1022 46.0426 L1024.55 46.6097 Q1032.49 48.3111 1035.81 51.4303 Q1039.18 54.509 1039.18 60.0587 Q1039.18 66.3781 1034.15 70.0644 Q1029.17 73.7508 1020.42 73.7508 Q1016.78 73.7508 1012.81 73.0216 Q1008.88 72.3329 1004.5 70.9151 L1004.5 63.2184 Q1008.63 65.3654 1012.64 66.4591 Q1016.65 67.5124 1020.58 67.5124 Q1025.85 67.5124 1028.69 65.73 Q1031.52 63.9071 1031.52 60.6258 Q1031.52 57.5877 1029.45 55.9673 Q1027.43 54.3469 1020.5 52.8481 L1017.91 52.2405 Q1010.98 50.7821 1007.9 47.7845 Q1004.83 44.7463 1004.83 39.4801 Q1004.83 33.0797 1009.36 29.5959 Q1013.9 26.1121 1022.24 26.1121 Q1026.38 26.1121 1030.02 26.7198 Q1033.67 27.3274 1036.75 28.5427 Z" fill="#000000" fill-rule="nonzero" fill-opacity="1"></path><path clip-path="url(#clip040)" d="M1083.7 28.9478 L1083.7 35.9153 Q1080.54 34.1734 1077.34 33.3227 Q1074.18 32.4315 1070.94 32.4315 Q1063.68 32.4315 1059.67 37.0496 Q1055.66 41.6271 1055.66 49.9314 Q1055.66 58.2358 1059.67 62.8538 Q1063.68 67.4314 1070.94 67.4314 Q1074.18 67.4314 1077.34 66.5807 Q1080.54 65.6895 1083.7 63.9476 L1083.7 70.8341 Q1080.58 72.2924 1077.21 73.0216 Q1073.89 73.7508 1070.13 73.7508 Q1059.88 73.7508 1053.84 67.3098 Q1047.81 60.8689 1047.81 49.9314 Q1047.81 38.832 1053.88 32.472 Q1060 26.1121 1070.61 26.1121 Q1074.06 26.1121 1077.34 26.8413 Q1080.62 27.5299 1083.7 28.9478 Z" fill="#000000" fill-rule="nonzero" fill-opacity="1"></path><path clip-path="url(#clip040)" d="M1096.66 27.2059 L1104.11 27.2059 L1104.11 72.576 L1096.66 72.576 L1096.66 27.2059 M1096.66 9.54393 L1104.11 9.54393 L1104.11 18.9825 L1096.66 18.9825 L1096.66 9.54393 Z" fill="#000000" fill-rule="nonzero" fill-opacity="1"></path><path clip-path="url(#clip040)" d="M1119.71 9.54393 L1127.16 9.54393 L1127.16 72.576 L1119.71 72.576 L1119.71 9.54393 Z" fill="#000000" fill-rule="nonzero" fill-opacity="1"></path><path clip-path="url(#clip040)" d="M1163.38 49.7694 Q1154.34 49.7694 1150.86 51.8354 Q1147.38 53.9013 1147.38 58.8839 Q1147.38 62.8538 1149.97 65.2034 Q1152.6 67.5124 1157.1 67.5124 Q1163.3 67.5124 1167.02 63.1374 Q1170.79 58.7219 1170.79 51.4303 L1170.79 49.7694 L1163.38 49.7694 M1178.24 46.6907 L1178.24 72.576 L1170.79 72.576 L1170.79 65.6895 Q1168.24 69.8214 1164.43 71.8063 Q1160.62 73.7508 1155.11 73.7508 Q1148.15 73.7508 1144.01 69.8619 Q1139.92 65.9325 1139.92 59.3701 Q1139.92 51.7138 1145.03 47.825 Q1150.17 43.9361 1160.34 43.9361 L1170.79 43.9361 L1170.79 43.2069 Q1170.79 38.0623 1167.39 35.2672 Q1164.03 32.4315 1157.91 32.4315 Q1154.02 32.4315 1150.33 33.3632 Q1146.65 34.295 1143.24 36.1584 L1143.24 29.2718 Q1147.34 27.692 1151.18 26.9223 Q1155.03 26.1121 1158.68 26.1121 Q1168.52 26.1121 1173.38 31.2163 Q1178.24 36.3204 1178.24 46.6907 Z" fill="#000000" fill-rule="nonzero" fill-opacity="1"></path><path clip-path="url(#clip040)" d="M1200.97 14.324 L1200.97 27.2059 L1216.32 27.2059 L1216.32 32.9987 L1200.97 32.9987 L1200.97 57.6282 Q1200.97 63.1779 1202.47 64.7578 Q1204.01 66.3376 1208.67 66.3376 L1216.32 66.3376 L1216.32 72.576 L1208.67 72.576 Q1200.04 72.576 1196.76 69.3758 Q1193.48 66.1351 1193.48 57.6282 L1193.48 32.9987 L1188.01 32.9987 L1188.01 27.2059 L1193.48 27.2059 L1193.48 14.324 L1200.97 14.324 Z" fill="#000000" fill-rule="nonzero" fill-opacity="1"></path><path clip-path="url(#clip040)" d="M1226.13 27.2059 L1233.58 27.2059 L1233.58 72.576 L1226.13 72.576 L1226.13 27.2059 M1226.13 9.54393 L1233.58 9.54393 L1233.58 18.9825 L1226.13 18.9825 L1226.13 9.54393 Z" fill="#000000" fill-rule="nonzero" fill-opacity="1"></path><path clip-path="url(#clip040)" d="M1266.76 32.4315 Q1260.76 32.4315 1257.28 37.1306 Q1253.79 41.7891 1253.79 49.9314 Q1253.79 58.0738 1257.24 62.7728 Q1260.72 67.4314 1266.76 67.4314 Q1272.71 67.4314 1276.2 62.7323 Q1279.68 58.0333 1279.68 49.9314 Q1279.68 41.8701 1276.2 37.1711 Q1272.71 32.4315 1266.76 32.4315 M1266.76 26.1121 Q1276.48 26.1121 1282.03 32.4315 Q1287.58 38.7509 1287.58 49.9314 Q1287.58 61.0714 1282.03 67.4314 Q1276.48 73.7508 1266.76 73.7508 Q1256.99 73.7508 1251.44 67.4314 Q1245.94 61.0714 1245.94 49.9314 Q1245.94 38.7509 1251.44 32.4315 Q1256.99 26.1121 1266.76 26.1121 Z" fill="#000000" fill-rule="nonzero" fill-opacity="1"></path><path clip-path="url(#clip040)" d="M1337.65 45.1919 L1337.65 72.576 L1330.19 72.576 L1330.19 45.4349 Q1330.19 38.994 1327.68 35.7938 Q1325.17 32.5936 1320.15 32.5936 Q1314.11 32.5936 1310.63 36.4419 Q1307.14 40.2903 1307.14 46.9338 L1307.14 72.576 L1299.65 72.576 L1299.65 27.2059 L1307.14 27.2059 L1307.14 34.2544 Q1309.82 30.163 1313.42 28.1376 Q1317.07 26.1121 1321.81 26.1121 Q1329.63 26.1121 1333.64 30.9732 Q1337.65 35.7938 1337.65 45.1919 Z" fill="#000000" fill-rule="nonzero" fill-opacity="1"></path><path clip-path="url(#clip040)" d="M1381.44 28.5427 L1381.44 35.5912 Q1378.28 33.9709 1374.88 33.1607 Q1371.47 32.3505 1367.83 32.3505 Q1362.28 32.3505 1359.48 34.0519 Q1356.73 35.7533 1356.73 39.156 Q1356.73 41.7486 1358.71 43.2475 Q1360.7 44.7058 1366.69 46.0426 L1369.24 46.6097 Q1377.18 48.3111 1380.51 51.4303 Q1383.87 54.509 1383.87 60.0587 Q1383.87 66.3781 1378.85 70.0644 Q1373.86 73.7508 1365.11 73.7508 Q1361.47 73.7508 1357.5 73.0216 Q1353.57 72.3329 1349.19 70.9151 L1349.19 63.2184 Q1353.32 65.3654 1357.34 66.4591 Q1361.35 67.5124 1365.27 67.5124 Q1370.54 67.5124 1373.38 65.73 Q1376.21 63.9071 1376.21 60.6258 Q1376.21 57.5877 1374.15 55.9673 Q1372.12 54.3469 1365.19 52.8481 L1362.6 52.2405 Q1355.67 50.7821 1352.6 47.7845 Q1349.52 44.7463 1349.52 39.4801 Q1349.52 33.0797 1354.05 29.5959 Q1358.59 26.1121 1366.94 26.1121 Q1371.07 26.1121 1374.71 26.7198 Q1378.36 27.3274 1381.44 28.5427 Z" fill="#000000" fill-rule="nonzero" fill-opacity="1"></path><path clip-path="url(#clip040)" d="M1451.96 34.0924 L1451.96 9.54393 L1459.42 9.54393 L1459.42 72.576 L1451.96 72.576 L1451.96 65.7705 Q1449.61 69.8214 1446.01 71.8063 Q1442.44 73.7508 1437.42 73.7508 Q1429.2 73.7508 1424.01 67.1883 Q1418.87 60.6258 1418.87 49.9314 Q1418.87 39.2371 1424.01 32.6746 Q1429.2 26.1121 1437.42 26.1121 Q1442.44 26.1121 1446.01 28.0971 Q1449.61 30.0415 1451.96 34.0924 M1426.56 49.9314 Q1426.56 58.1548 1429.93 62.8538 Q1433.33 67.5124 1439.24 67.5124 Q1445.16 67.5124 1448.56 62.8538 Q1451.96 58.1548 1451.96 49.9314 Q1451.96 41.7081 1448.56 37.0496 Q1445.16 32.3505 1439.24 32.3505 Q1433.33 32.3505 1429.93 37.0496 Q1426.56 41.7081 1426.56 49.9314 Z" fill="#000000" fill-rule="nonzero" fill-opacity="1"></path><path clip-path="url(#clip040)" d="M1513.58 48.0275 L1513.58 51.6733 L1479.31 51.6733 Q1479.79 59.3701 1483.93 63.421 Q1488.1 67.4314 1495.51 67.4314 Q1499.81 67.4314 1503.82 66.3781 Q1507.87 65.3249 1511.84 63.2184 L1511.84 70.267 Q1507.83 71.9684 1503.61 72.8596 Q1499.4 73.7508 1495.07 73.7508 Q1484.21 73.7508 1477.85 67.4314 Q1471.53 61.1119 1471.53 50.3365 Q1471.53 39.1965 1477.53 32.6746 Q1483.56 26.1121 1493.77 26.1121 Q1502.92 26.1121 1508.23 32.0264 Q1513.58 37.9003 1513.58 48.0275 M1506.12 45.84 Q1506.04 39.7232 1502.68 36.0774 Q1499.36 32.4315 1493.85 32.4315 Q1487.61 32.4315 1483.84 35.9558 Q1480.12 39.4801 1479.55 45.8805 L1506.12 45.84 Z" fill="#000000" fill-rule="nonzero" fill-opacity="1"></path><path clip-path="url(#clip040)" d="M1554.74 28.5427 L1554.74 35.5912 Q1551.58 33.9709 1548.17 33.1607 Q1544.77 32.3505 1541.12 32.3505 Q1535.57 32.3505 1532.78 34.0519 Q1530.03 35.7533 1530.03 39.156 Q1530.03 41.7486 1532.01 43.2475 Q1533.99 44.7058 1539.99 46.0426 L1542.54 46.6097 Q1550.48 48.3111 1553.8 51.4303 Q1557.17 54.509 1557.17 60.0587 Q1557.17 66.3781 1552.14 70.0644 Q1547.16 73.7508 1538.41 73.7508 Q1534.76 73.7508 1530.79 73.0216 Q1526.87 72.3329 1522.49 70.9151 L1522.49 63.2184 Q1526.62 65.3654 1530.63 66.4591 Q1534.64 67.5124 1538.57 67.5124 Q1543.84 67.5124 1546.67 65.73 Q1549.51 63.9071 1549.51 60.6258 Q1549.51 57.5877 1547.44 55.9673 Q1545.42 54.3469 1538.49 52.8481 L1535.9 52.2405 Q1528.97 50.7821 1525.89 47.7845 Q1522.81 44.7463 1522.81 39.4801 Q1522.81 33.0797 1527.35 29.5959 Q1531.89 26.1121 1540.23 26.1121 Q1544.37 26.1121 1548.01 26.7198 Q1551.66 27.3274 1554.74 28.5427 Z" fill="#000000" fill-rule="nonzero" fill-opacity="1"></path><path clip-path="url(#clip040)" d="M1569.04 27.2059 L1576.49 27.2059 L1576.49 72.576 L1569.04 72.576 L1569.04 27.2059 M1569.04 9.54393 L1576.49 9.54393 L1576.49 18.9825 L1569.04 18.9825 L1569.04 9.54393 Z" fill="#000000" fill-rule="nonzero" fill-opacity="1"></path><path clip-path="url(#clip040)" d="M1618.38 34.1734 Q1617.12 33.4443 1615.62 33.1202 Q1614.16 32.7556 1612.38 32.7556 Q1606.06 32.7556 1602.66 36.8875 Q1599.3 40.9789 1599.3 48.6757 L1599.3 72.576 L1591.8 72.576 L1591.8 27.2059 L1599.3 27.2059 L1599.3 34.2544 Q1601.65 30.1225 1605.41 28.1376 Q1609.18 26.1121 1614.57 26.1121 Q1615.34 26.1121 1616.27 26.2337 Q1617.2 26.3147 1618.33 26.5172 L1618.38 34.1734 Z" fill="#000000" fill-rule="nonzero" fill-opacity="1"></path><path clip-path="url(#clip040)" d="M1663.18 48.0275 L1663.18 51.6733 L1628.91 51.6733 Q1629.39 59.3701 1633.53 63.421 Q1637.7 67.4314 1645.11 67.4314 Q1649.41 67.4314 1653.42 66.3781 Q1657.47 65.3249 1661.44 63.2184 L1661.44 70.267 Q1657.43 71.9684 1653.21 72.8596 Q1649 73.7508 1644.67 73.7508 Q1633.81 73.7508 1627.45 67.4314 Q1621.13 61.1119 1621.13 50.3365 Q1621.13 39.1965 1627.13 32.6746 Q1633.16 26.1121 1643.37 26.1121 Q1652.52 26.1121 1657.83 32.0264 Q1663.18 37.9003 1663.18 48.0275 M1655.72 45.84 Q1655.64 39.7232 1652.28 36.0774 Q1648.96 32.4315 1643.45 32.4315 Q1637.21 32.4315 1633.44 35.9558 Q1629.72 39.4801 1629.15 45.8805 L1655.72 45.84 Z" fill="#000000" fill-rule="nonzero" fill-opacity="1"></path><path clip-path="url(#clip040)" d="M1705.27 34.0924 L1705.27 9.54393 L1712.72 9.54393 L1712.72 72.576 L1705.27 72.576 L1705.27 65.7705 Q1702.92 69.8214 1699.31 71.8063 Q1695.75 73.7508 1690.72 73.7508 Q1682.5 73.7508 1677.32 67.1883 Q1672.17 60.6258 1672.17 49.9314 Q1672.17 39.2371 1677.32 32.6746 Q1682.5 26.1121 1690.72 26.1121 Q1695.75 26.1121 1699.31 28.0971 Q1702.92 30.0415 1705.27 34.0924 M1679.87 49.9314 Q1679.87 58.1548 1683.23 62.8538 Q1686.63 67.5124 1692.55 67.5124 Q1698.46 67.5124 1701.86 62.8538 Q1705.27 58.1548 1705.27 49.9314 Q1705.27 41.7081 1701.86 37.0496 Q1698.46 32.3505 1692.55 32.3505 Q1686.63 32.3505 1683.23 37.0496 Q1679.87 41.7081 1679.87 49.9314 Z" fill="#000000" fill-rule="nonzero" fill-opacity="1"></path><polyline clip-path="url(#clip042)" style="stroke:#009af9; stroke-linecap:round; stroke-linejoin:round; stroke-width:4; stroke-opacity:1; fill:none" points="295.211,307.467 297.209,319.035 299.207,330.604 301.204,294.019 303.202,280.057 305.199,230.987 307.197,234.811 309.195,204.306 311.192,214.488 313.19,211.4 315.187,210.753 317.185,211.998 319.183,168.028 321.18,172.841 323.178,169.933 325.176,189.354 327.173,173.071 329.171,177.479 331.168,217.545 333.166,220.993 335.164,226.805 337.161,186.04 339.159,164.74 341.157,322.449 343.154,475.282 345.152,601.414 347.149,674.398 349.147,760.863 351.145,806.823 353.142,869.181 355.14,955.251 357.137,1012.07 359.135,1059.09 361.133,1122.09 363.13,1149.42 365.128,1185.24 367.126,1202.15 369.123,1217.81 371.121,1234.36 373.118,1240.6 375.116,1262.06 377.114,1278.81 379.111,1289.92 381.109,1301.11 383.106,1308.89 385.104,1313.73 387.102,1320.4 389.099,1328.5 391.097,1335.88 393.095,1345.24 395.092,1344.93 397.09,1343.14 399.087,1348.81 401.085,1348.47 403.083,1349.73 405.08,1356.43 407.078,1358.27 409.075,1362.52 411.073,1367.44 413.071,1368.15 415.068,1373.78 417.066,1374.56 419.064,1374.89 421.061,1375.94 423.059,1376.69 425.056,1377.87 427.054,1377.69 429.052,1378.54 431.049,1380.67 433.047,1379.93 435.044,1380.76 437.042,1382.18 439.04,1383.62 441.037,1383.56 443.035,1383.39 445.033,1384.03 447.03,1383.91 449.028,1383.94 451.025,1384.12 453.023,1383.78 455.021,1383.76 457.018,1383.59 459.016,1383.47 461.013,1383.14 463.011,1383.54 465.009,1383.77 467.006,1383.74 469.004,1383.79 471.002,1383.81 472.999,1383.89 474.997,1383.74 476.994,1384.13 478.992,1383.55 480.99,1383.51 482.987,1383.46 484.985,1384.09 486.982,1383.25 488.98,1384.76 490.978,1385.19 492.975,1380.78 494.973,1376.8 496.971,1372.18 498.968,1366.83 500.966,1353.56 502.963,1335.46 504.961,1286.38 506.959,1183.46 508.956,1079.71 510.954,979.406 512.951,882.693 514.949,788.777 516.947,735.895 518.944,662.448 520.942,630.275 522.94,607.927 524.937,556 526.935,562.52 528.932,526.428 530.93,477.38 532.928,431.96 534.925,411.54 536.923,386.398 538.92,356.287 540.918,375.917 542.916,375.087 544.913,320.694 546.911,336.19 548.909,328.759 550.906,294.296 552.904,265.897 554.901,232.987 556.899,202.704 558.897,229.934 560.894,211.425 562.892,192.853 564.89,178.553 566.887,218.674 568.885,232.506 570.882,338.021 572.88,457.172 574.878,521.064 576.875,619.288 578.873,729.117 580.87,789.999 582.868,877.256 584.866,929.842 586.863,1009.41 588.861,1072.91 590.859,1123.03 592.856,1151.45 594.854,1169.41 596.851,1199.67 598.849,1218.46 600.847,1233.53 602.844,1254.98 604.842,1260.67 606.839,1281.3 608.837,1298.56 610.835,1309.21 612.832,1316.24 614.83,1327.46 616.828,1329.9 618.825,1331.12 620.823,1346.31 622.82,1350 624.818,1349.15 626.816,1354.52 628.813,1360.82 630.811,1364.47 632.808,1365.25 634.806,1364.88 636.804,1370.08 638.801,1373.5 640.799,1373.32 642.797,1375.4 644.794,1379.45 646.792,1377.87 648.789,1379.15 650.787,1379.22 652.785,1380.92 654.782,1380.61 656.78,1381.66 658.777,1382.29 660.775,1382.97 662.773,1382.4 664.77,1381.85 666.768,1382.24 668.766,1383.38 670.763,1384.06 672.761,1383.74 674.758,1383.62 676.756,1383.52 678.754,1383.73 680.751,1383.88 682.749,1383.67 684.746,1383.69 686.744,1383.64 688.742,1383.39 690.739,1383.93 692.737,1384.07 694.735,1383.78 696.732,1383.79 698.73,1383.62 700.727,1383.97 702.725,1383.27 704.723,1382.43 706.72,1382.39 708.718,1383.69 710.715,1384.24 712.713,1382.83 714.711,1381.72 716.708,1381.6 718.706,1382.09 720.704,1379.94 722.701,1380.07 724.699,1379.06 726.696,1380.93 728.694,1371.71 730.692,1349.29 732.689,1335.96 734.687,1336.45 736.684,1304.22 738.682,1298.75 740.68,1293.97 742.677,1278.87 744.675,1267.91 746.673,1267.14 748.67,1249.91 750.668,1250.51 752.665,1242.58 754.663,1174.32 756.661,1102.04 758.658,1000.04 760.656,921.659 762.653,826.441 764.651,770.392 766.649,715.721 768.646,662.609 770.644,617.226 772.642,576.371 774.639,533.895 776.637,519.366 778.634,495.612 780.632,415.576 782.63,359.209 784.627,338.848 786.625,326.836 788.623,320.367 790.62,311.714 792.618,285.023 794.615,280.087 796.613,317.023 798.611,285.057 800.608,273.066 802.606,279.147 804.603,350.94 806.601,422.499 808.599,546.843 810.596,669.558 812.594,783.451 814.592,844.347 816.589,906.266 818.587,978.193 820.584,1032.86 822.582,1060.52 824.58,1096.89 826.577,1132.31 828.575,1157.04 830.572,1201.33 832.57,1222.63 834.568,1246.08 836.565,1256.17 838.563,1279.26 840.561,1291.9 842.558,1299.82 844.556,1303.34 846.553,1307.47 848.551,1318.1 850.549,1333.04 852.546,1338.23 854.544,1340.8 856.541,1345.11 858.539,1353.68 860.537,1362.5 862.534,1364.22 864.532,1366.26 866.53,1368.89 868.527,1372.37 870.525,1372.2 872.522,1375.71 874.52,1377.41 876.518,1377.42 878.515,1378.46 880.513,1378.25 882.51,1378.5 884.508,1379.51 886.506,1379.27 888.503,1376.53 890.501,1377.15 892.499,1377.46 894.496,1381.31 896.494,1381.22 898.491,1381.46 900.489,1381.16 902.487,1381.81 904.484,1382.46 906.482,1382.05 908.479,1381.8 910.477,1381.93 912.475,1381.38 914.472,1382 916.47,1383.35 918.468,1382.87 920.465,1382.95 922.463,1383.27 924.46,1382.37 926.458,1381.81 928.456,1381.29 930.453,1381.93 932.451,1385.67 934.448,1386.4 936.446,1383.48 938.444,1373.64 940.441,1359.61 942.439,1292.73 944.437,1210.24 946.434,1159.75 948.432,1112.49 950.429,1023.73 952.427,994.035 954.425,861.896 956.422,778.288 958.42,753.952 960.417,698.514 962.415,623.906 964.413,614.496 966.41,547.061 968.408,540.692 970.406,504.984 972.403,444.673 974.401,425.523 976.398,383.18 978.396,409.07 980.394,438.886 982.391,406.921 984.389,398.031 986.386,380.093 988.384,384.509 990.382,341.422 992.379,299.73 994.377,310.5 996.375,297.04 998.372,234.226 1000.37,266.6 1002.37,270.473 1004.37,267.216 1006.36,257.716 1008.36,256.13 1010.36,269.228 1012.36,389.095 1014.35,540.422 1016.35,653.817 1018.35,761.666 1020.35,853.137 1022.34,919.146 1024.34,963.85 1026.34,1032.97 1028.34,1085.06 1030.33,1122.97 1032.33,1172.8 1034.33,1193.01 1036.33,1203.78 1038.32,1234.37 1040.32,1258.74 1042.32,1274.43 1044.32,1290.83 1046.31,1298.26 1048.31,1309.79 1050.31,1316.44 1052.31,1323.48 1054.31,1322.82 1056.3,1333.57 1058.3,1343.74 1060.3,1351.59 1062.3,1347.71 1064.29,1351.74 1066.29,1355.6 1068.29,1359.78 1070.29,1365.03 1072.28,1367.28 1074.28,1369.24 1076.28,1371.2 1078.28,1372.71 1080.27,1375.12 1082.27,1372.44 1084.27,1372.46 1086.27,1375.08 1088.26,1373.57 1090.26,1376.26 1092.26,1375.76 1094.26,1375.59 1096.26,1374.45 1098.25,1374.54 1100.25,1374.59 1102.25,1375.38 1104.25,1376.45 1106.24,1377.18 1108.24,1376.73 1110.24,1377.92 1112.24,1379.87 1114.23,1380.76 1116.23,1380.87 1118.23,1382.59 1120.23,1382.46 1122.22,1381.91 1124.22,1382.29 1126.22,1383.21 1128.22,1383.94 1130.21,1384.27 1132.21,1383.5 1134.21,1382.86 1136.21,1382.14 1138.21,1381.33 1140.2,1381.75 1142.2,1379.85 1144.2,1376.64 1146.2,1376.34 1148.19,1373.68 1150.19,1374.32 1152.19,1375.74 1154.19,1367.25 1156.18,1348.44 1158.18,1264.96 1160.18,1152.27 1162.18,1037.11 1164.17,978.937 1166.17,896.598 1168.17,796.714 1170.17,726.316 1172.16,676.035 1174.16,587.227 1176.16,541.099 1178.16,525.599 1180.16,487.215 1182.15,439.254 1184.15,374.808 1186.15,362.308 1188.15,355.979 1190.14,354.625 1192.14,355.448 1194.14,380.306 1196.14,392.953 1198.13,421.514 1200.13,406.013 1202.13,359.584 1204.13,331.907 1206.12,308.675 1208.12,269.686 1210.12,311.806 1212.12,263.355 1214.11,273.929 1216.11,258.95 1218.11,221.031 1220.11,180.452 1222.11,199.069 1224.1,205.891 1226.1,335.721 1228.1,414.632 1230.1,532.366 1232.09,615.461 1234.09,693.55 1236.09,762.842 1238.09,827.536 1240.08,911.416 1242.08,975.255 1244.08,998.062 1246.08,1053.56 1248.07,1093.59 1250.07,1130.16 1252.07,1158.62 1254.07,1178.08 1256.06,1201.8 1258.06,1225.37 1260.06,1243.58 1262.06,1247.1 1264.06,1260.25 1266.05,1276.12 1268.05,1298.38 1270.05,1318.19 1272.05,1324.44 1274.04,1333.12 1276.04,1340.8 1278.04,1341.37 1280.04,1347.3 1282.03,1355.22 1284.03,1361.57 1286.03,1357.98 1288.03,1361.05 1290.02,1366.8 1292.02,1367.26 1294.02,1371.02 1296.02,1372.69 1298.01,1372.97 1300.01,1374 1302.01,1374.09 1304.01,1374.38 1306.01,1376.39 1308,1377.52 1310,1380.22 1312,1379.01 1314,1379.43 1315.99,1378.38 1317.99,1382.01 1319.99,1383.56 1321.99,1383.17 1323.98,1383.54 1325.98,1383.42 1327.98,1383.35 1329.98,1383.75 1331.97,1383.86 1333.97,1383.88 1335.97,1384.13 1337.97,1383.85 1339.96,1383.64 1341.96,1384.06 1343.96,1383.9 1345.96,1383.87 1347.96,1384.1 1349.95,1383.38 1351.95,1383.62 1353.95,1383.75 1355.95,1383.95 1357.94,1384.08 1359.94,1383.43 1361.94,1383.67 1363.94,1383.86 1365.93,1381.82 1367.93,1382.44 1369.93,1379.08 1371.93,1369.62 1373.92,1353.18 1375.92,1347.85 1377.92,1350.4 1379.92,1333.86 1381.91,1284.94 1383.91,1158.91 1385.91,1080.08 1387.91,1004.85 1389.9,952.489 1391.9,901.156 1393.9,815.741 1395.9,746.308 1397.9,741.133 1399.89,697.912 1401.89,678.527 1403.89,656.899 1405.89,574.265 1407.88,548.027 1409.88,516.735 1411.88,487.795 1413.88,470.24 1415.87,439.768 1417.87,397.895 1419.87,341.28 1421.87,306.351 1423.86,345.898 1425.86,310.6 1427.86,319.643 1429.86,262.238 1431.85,232.068 1433.85,240.184 1435.85,203.21 1437.85,244.496 1439.85,275.997 1441.84,310.481 1443.84,321.295 1445.84,331.975 1447.84,332.422 1449.83,345.664 1451.83,331.297 1453.83,399.63 1455.83,491.94 1457.82,561.056 1459.82,668.119 1461.82,756.595 1463.82,820.842 1465.81,866.384 1467.81,924.246 1469.81,980.003 1471.81,1018.74 1473.8,1044.2 1475.8,1084.63 1477.8,1119.1 1479.8,1171.92 1481.8,1200.48 1483.79,1240.51 1485.79,1258.36 1487.79,1279.19 1489.79,1293.81 1491.78,1298.08 1493.78,1308.85 1495.78,1325.94 1497.78,1332.6 1499.77,1337.8 1501.77,1341.33 1503.77,1343.28 1505.77,1345.77 1507.76,1350.67 1509.76,1352.38 1511.76,1354.99 1513.76,1358.98 1515.75,1360.63 1517.75,1362.03 1519.75,1366 1521.75,1372.68 1523.75,1371.42 1525.74,1368.6 1527.74,1370.24 1529.74,1371.78 1531.74,1371.7 1533.73,1372.9 1535.73,1375.38 1537.73,1377.87 1539.73,1377.78 1541.72,1378.77 1543.72,1377.58 1545.72,1378.25 1547.72,1378.47 1549.71,1378.85 1551.71,1377.42 1553.71,1378.97 1555.71,1380.46 1557.7,1380.69 1559.7,1380.96 1561.7,1381.65 1563.7,1380.64 1565.7,1382.26 1567.69,1381.87 1569.69,1382.2 1571.69,1382.18 1573.69,1382.77 1575.68,1383.45 1577.68,1383.41 1579.68,1383.07 1581.68,1382.86 1583.67,1382.92 1585.67,1382.79 1587.67,1381.88 1589.67,1382.22 1591.66,1371.99 1593.66,1363.57 1595.66,1366.88 1597.66,1360.74 1599.65,1358.62 1601.65,1355.71 1603.65,1341.43 1605.65,1329.14 1607.65,1313.81 1609.64,1311.39 1611.64,1305.19 1613.64,1267.07 1615.64,1206.14 1617.63,1106.15 1619.63,981.465 1621.63,926.118 1623.63,824.796 1625.62,749.842 1627.62,704.401 1629.62,658.332 1631.62,637.243 1633.61,609.376 1635.61,575.006 1637.61,569.73 1639.61,510.583 1641.6,498.735 1643.6,425.954 1645.6,404.302 1647.6,397.271 1649.6,369.107 1651.59,388.8 1653.59,385.865 1655.59,340.149 1657.59,313.857 1659.58,272.986 1661.58,284.043 1663.58,279.107 1665.58,259.652 1667.57,268.272 1669.57,267.548 1671.57,315.726 1673.57,409.304 1675.56,498.737 1677.56,587.242 1679.56,697.844 1681.56,768.17 1683.55,823.7 1685.55,879.39 1687.55,926.933 1689.55,987.843 1691.54,1029.73 1693.54,1083.18 1695.54,1113.73 1697.54,1151.34 1699.54,1187.16 1701.53,1229.06 1703.53,1250.76 1705.53,1262.37 1707.53,1279.28 1709.52,1284.35 1711.52,1296.49 1713.52,1298.51 1715.52,1314.84 1717.51,1323.58 1719.51,1327.41 1721.51,1329.91 1723.51,1337.05 1725.5,1346.25 1727.5,1354.02 1729.5,1361.27 1731.5,1365.69 1733.49,1370.26 1735.49,1370.25 1737.49,1373.18 1739.49,1373.97 1741.49,1380.2 1743.48,1379.88 1745.48,1381.6 1747.48,1382.25 1749.48,1382.48 1751.47,1382.65 1753.47,1382.52 1755.47,1383.24 1757.47,1383.42 1759.46,1383.29 1761.46,1383.23 1763.46,1383.42 1765.46,1383.4 1767.45,1383.59 1769.45,1383.01 1771.45,1383.01 1773.45,1382.58 1775.44,1382.59 1777.44,1381.69 1779.44,1383.02 1781.44,1383.07 1783.44,1381.69 1785.43,1380.75 1787.43,1379.51 1789.43,1379.93 1791.43,1379.69 1793.42,1379.26 1795.42,1379.29 1797.42,1365.88 1799.42,1351.16 1801.41,1222.52 1803.41,1127.86 1805.41,1067.21 1807.41,982.497 1809.4,872.606 1811.4,770.719 1813.4,722.667 1815.4,697.278 1817.39,669.384 1819.39,631.092 1821.39,627.19 1823.39,693.642 1825.39,713.913 1827.38,700.081 1829.38,654.511 1831.38,622.268 1833.38,573.256 1835.37,555.562 1837.37,532.227 1839.37,483.642 1841.37,439.67 1843.36,440.96 1845.36,428.783 1847.36,435.356 1849.36,394.021 1851.35,355.812 1853.35,397.914 1855.35,394.23 1857.35,342.839 1859.34,347.077 1861.34,368.021 1863.34,398.835 1865.34,424.044 1867.34,404.653 1869.33,407.56 1871.33,382.617 1873.33,357.128 1875.33,367.85 1877.32,365.41 1879.32,398.403 1881.32,530.976 1883.32,650.701 1885.31,724.828 1887.31,792.952 1889.31,875.891 1891.31,952.053 1893.3,984.614 1895.3,1034.67 1897.3,1082.88 1899.3,1126.07 1901.29,1150.19 1903.29,1173.04 1905.29,1199.62 1907.29,1231.25 1909.29,1252.39 1911.28,1256.55 1913.28,1269.95 1915.28,1295.32 1917.28,1308.75 1919.27,1324.82 1921.27,1333.02 1923.27,1340.85 1925.27,1345.9 1927.26,1351.96 1929.26,1356.07 1931.26,1360.44 1933.26,1361.19 1935.25,1363.78 1937.25,1368.53 1939.25,1370.47 1941.25,1372.23 1943.24,1374.17 1945.24,1374.59 1947.24,1377.74 1949.24,1378.69 1951.24,1378.04 1953.23,1381.24 1955.23,1381.58 1957.23,1382.24 1959.23,1382.5 1961.22,1382.44 1963.22,1382.28 1965.22,1380.99 1967.22,1381.48 1969.21,1381.03 1971.21,1381.91 1973.21,1381.24 1975.21,1379.85 1977.2,1378.94 1979.2,1378.99 1981.2,1379.39 1983.2,1379.68 1985.19,1381.58 1987.19,1381.31 1989.19,1380.35 1991.19,1381.9 1993.19,1381.67 1995.18,1384.04 1997.18,1384.09 1999.18,1384.17 2001.18,1383.51 2003.17,1383.01 2005.17,1383.64 2007.17,1384.15 2009.17,1383.72 2011.16,1382.91 2013.16,1383.18 2015.16,1383.88 2017.16,1384.04 2019.15,1382.51 2021.15,1381.07 2023.15,1377.41 2025.15,1376.23 2027.14,1338.97 2029.14,1314.88 2031.14,1272.72 2033.14,1142.42 2035.13,1021.33 2037.13,949.06 2039.13,872.265 2041.13,774.14 2043.13,725.859 2045.12,695.447 2047.12,663.881 2049.12,653.594 2051.12,603.39 2053.11,549.683 2055.11,513.918 2057.11,461.523 2059.11,448.53 2061.1,457.677 2063.1,422.86 2065.1,429.653 2067.1,405.039 2069.09,375.594 2071.09,388.394 2073.09,337.388 2075.09,360.142 2077.08,291.707 2079.08,307.004 2081.08,311.557 2083.08,275.519 2085.08,262.146 2087.07,210.199 2089.07,208.225 2091.07,216.342 2093.07,174.255 2095.06,190.287 2097.06,160.256 2099.06,169.428 2101.06,186.388 2103.05,242.135 2105.05,375.975 2107.05,492.189 2109.05,579.135 2111.04,662.181 2113.04,742.26 2115.04,813.014 2117.04,898.548 2119.03,964.375 2121.03,1017.38 2123.03,1055.81 2125.03,1100.25 2127.03,1147.63 2129.02,1164.69 2131.02,1190.31 2133.02,1194.77 2135.02,1220.86 2137.01,1246.24 2139.01,1255.87 2141.01,1273 2143.01,1285.15 2145,1291.55 2147,1311.43 2149,1326.13 2151,1331.14 2152.99,1339.4 2154.99,1344.33 2156.99,1346.17 2158.99,1347.28 2160.98,1355.77 2162.98,1364.16 2164.98,1366.13 2166.98,1371.27 2168.98,1374.16 2170.97,1374.23 2172.97,1376.23 2174.97,1378.14 2176.97,1376.88 2178.96,1379.19 2180.96,1379.34 2182.96,1379.19 2184.96,1380.67 2186.95,1382.07 2188.95,1384.06 2190.95,1384.22 2192.95,1384.2 2194.94,1383.64 2196.94,1383.63 2198.94,1383.8 2200.94,1383.84 2202.93,1384 2204.93,1384 2206.93,1383.68 2208.93,1383.82 2210.93,1383.86 2212.92,1384.1 2214.92,1383.96 2216.92,1383.88 2218.92,1383.79 2220.91,1383.93 2222.91,1383.72 2224.91,1383.98 2226.91,1383.74 2228.9,1383.99 2230.9,1384.03 2232.9,1384.7 2234.9,1384.14 2236.89,1383.95 2238.89,1385.22 2240.89,1385.26 2242.89,1384.05 2244.88,1380.28 2246.88,1366.53 2248.88,1320.52 2250.88,1306.02 2252.88,1290.91 2254.87,1264.44 2256.87,1238.96 2258.87,1248.1 2260.87,1244.31 2262.86,1259.21 2264.86,1251.37 2266.86,1245.91 2268.86,1168.53 2270.85,1104.25 2272.85,1022.23 2274.85,945.854 2276.85,875.341 2278.84,809.958 2280.84,746.644 2282.84,638.485 2284.84,561.935 2286.83,494.693 2288.83,511.742 2290.83,543.104 2292.83,528.971 "></polyline>
</svg>