<svg xmlns="http://www.w3.org/2000/svg" xmlns:xlink="http://www.w3.org/1999/xlink" width="600" height="400" viewBox="0 0 2400 1600">
<defs>
  <clipPath id="clip320">
    <rect x="0" y="0" width="2400" height="1600"></rect>
  </clipPath>
</defs>
<path clip-path="url(#clip320)" d="M0 1600 L2400 1600 L2400 8.88178e-14 L0 8.88178e-14  Z" fill="#ffffff" fill-rule="evenodd" fill-opacity="1"></path>
<defs>
  <clipPath id="clip321">
    <rect x="480" y="0" width="1681" height="1600"></rect>
  </clipPath>
</defs>
<path clip-path="url(#clip320)" d="M235.283 1423.18 L2352.76 1423.18 L2352.76 123.472 L235.283 123.472  Z" fill="#ffffff" fill-rule="evenodd" fill-opacity="1"></path>
<defs>
  <clipPath id="clip322">
    <rect x="235" y="123" width="2118" height="1301"></rect>
  </clipPath>
</defs>
<polyline clip-path="url(#clip322)" style="stroke:#000000; stroke-linecap:round; stroke-linejoin:round; stroke-width:2; stroke-opacity:0.1; fill:none" points="293.214,1423.18 293.214,123.472 "></polyline>
<polyline clip-path="url(#clip322)" style="stroke:#000000; stroke-linecap:round; stroke-linejoin:round; stroke-width:2; stroke-opacity:0.1; fill:none" points="792.618,1423.18 792.618,123.472 "></polyline>
<polyline clip-path="url(#clip322)" style="stroke:#000000; stroke-linecap:round; stroke-linejoin:round; stroke-width:2; stroke-opacity:0.1; fill:none" points="1292.02,1423.18 1292.02,123.472 "></polyline>
<polyline clip-path="url(#clip322)" style="stroke:#000000; stroke-linecap:round; stroke-linejoin:round; stroke-width:2; stroke-opacity:0.1; fill:none" points="1791.43,1423.18 1791.43,123.472 "></polyline>
<polyline clip-path="url(#clip322)" style="stroke:#000000; stroke-linecap:round; stroke-linejoin:round; stroke-width:2; stroke-opacity:0.1; fill:none" points="2290.83,1423.18 2290.83,123.472 "></polyline>
<polyline clip-path="url(#clip322)" style="stroke:#000000; stroke-linecap:round; stroke-linejoin:round; stroke-width:2; stroke-opacity:0.1; fill:none" points="235.283,1385.28 2352.76,1385.28 "></polyline>
<polyline clip-path="url(#clip322)" style="stroke:#000000; stroke-linecap:round; stroke-linejoin:round; stroke-width:2; stroke-opacity:0.1; fill:none" points="235.283,1124.01 2352.76,1124.01 "></polyline>
<polyline clip-path="url(#clip322)" style="stroke:#000000; stroke-linecap:round; stroke-linejoin:round; stroke-width:2; stroke-opacity:0.1; fill:none" points="235.283,862.735 2352.76,862.735 "></polyline>
<polyline clip-path="url(#clip322)" style="stroke:#000000; stroke-linecap:round; stroke-linejoin:round; stroke-width:2; stroke-opacity:0.1; fill:none" points="235.283,601.461 2352.76,601.461 "></polyline>
<polyline clip-path="url(#clip322)" style="stroke:#000000; stroke-linecap:round; stroke-linejoin:round; stroke-width:2; stroke-opacity:0.1; fill:none" points="235.283,340.188 2352.76,340.188 "></polyline>
<polyline clip-path="url(#clip320)" style="stroke:#000000; stroke-linecap:round; stroke-linejoin:round; stroke-width:4; stroke-opacity:1; fill:none" points="235.283,1423.18 2352.76,1423.18 "></polyline>
<polyline clip-path="url(#clip320)" style="stroke:#000000; stroke-linecap:round; stroke-linejoin:round; stroke-width:4; stroke-opacity:1; fill:none" points="293.214,1423.18 293.214,1404.28 "></polyline>
<polyline clip-path="url(#clip320)" style="stroke:#000000; stroke-linecap:round; stroke-linejoin:round; stroke-width:4; stroke-opacity:1; fill:none" points="792.618,1423.18 792.618,1404.28 "></polyline>
<polyline clip-path="url(#clip320)" style="stroke:#000000; stroke-linecap:round; stroke-linejoin:round; stroke-width:4; stroke-opacity:1; fill:none" points="1292.02,1423.18 1292.02,1404.28 "></polyline>
<polyline clip-path="url(#clip320)" style="stroke:#000000; stroke-linecap:round; stroke-linejoin:round; stroke-width:4; stroke-opacity:1; fill:none" points="1791.43,1423.18 1791.43,1404.28 "></polyline>
<polyline clip-path="url(#clip320)" style="stroke:#000000; stroke-linecap:round; stroke-linejoin:round; stroke-width:4; stroke-opacity:1; fill:none" points="2290.83,1423.18 2290.83,1404.28 "></polyline>
<path clip-path="url(#clip320)" d="M293.214 1454.1 Q289.603 1454.1 287.774 1457.66 Q285.968 1461.2 285.968 1468.33 Q285.968 1475.44 287.774 1479.01 Q289.603 1482.55 293.214 1482.55 Q296.848 1482.55 298.654 1479.01 Q300.482 1475.44 300.482 1468.33 Q300.482 1461.2 298.654 1457.66 Q296.848 1454.1 293.214 1454.1 M293.214 1450.39 Q299.024 1450.39 302.079 1455 Q305.158 1459.58 305.158 1468.33 Q305.158 1477.06 302.079 1481.67 Q299.024 1486.25 293.214 1486.25 Q287.404 1486.25 284.325 1481.67 Q281.269 1477.06 281.269 1468.33 Q281.269 1459.58 284.325 1455 Q287.404 1450.39 293.214 1450.39 Z" fill="#000000" fill-rule="nonzero" fill-opacity="1"></path><path clip-path="url(#clip320)" d="M756.31 1481.64 L772.629 1481.64 L772.629 1485.58 L750.685 1485.58 L750.685 1481.64 Q753.347 1478.89 757.93 1474.26 Q762.537 1469.61 763.717 1468.27 Q765.963 1465.74 766.842 1464.01 Q767.745 1462.25 767.745 1460.56 Q767.745 1457.8 765.801 1456.07 Q763.879 1454.33 760.778 1454.33 Q758.579 1454.33 756.125 1455.09 Q753.694 1455.86 750.917 1457.41 L750.917 1452.69 Q753.741 1451.55 756.194 1450.97 Q758.648 1450.39 760.685 1450.39 Q766.055 1450.39 769.25 1453.08 Q772.444 1455.77 772.444 1460.26 Q772.444 1462.39 771.634 1464.31 Q770.847 1466.2 768.741 1468.8 Q768.162 1469.47 765.06 1472.69 Q761.958 1475.88 756.31 1481.64 Z" fill="#000000" fill-rule="nonzero" fill-opacity="1"></path><path clip-path="url(#clip320)" d="M782.49 1451.02 L800.847 1451.02 L800.847 1454.96 L786.773 1454.96 L786.773 1463.43 Q787.791 1463.08 788.81 1462.92 Q789.828 1462.73 790.847 1462.73 Q796.634 1462.73 800.014 1465.9 Q803.393 1469.08 803.393 1474.49 Q803.393 1480.07 799.921 1483.17 Q796.449 1486.25 790.129 1486.25 Q787.953 1486.25 785.685 1485.88 Q783.44 1485.51 781.032 1484.77 L781.032 1480.07 Q783.115 1481.2 785.338 1481.76 Q787.56 1482.32 790.037 1482.32 Q794.041 1482.32 796.379 1480.21 Q798.717 1478.1 798.717 1474.49 Q798.717 1470.88 796.379 1468.77 Q794.041 1466.67 790.037 1466.67 Q788.162 1466.67 786.287 1467.08 Q784.435 1467.5 782.49 1468.38 L782.49 1451.02 Z" fill="#000000" fill-rule="nonzero" fill-opacity="1"></path><path clip-path="url(#clip320)" d="M822.606 1454.1 Q818.995 1454.1 817.166 1457.66 Q815.361 1461.2 815.361 1468.33 Q815.361 1475.44 817.166 1479.01 Q818.995 1482.55 822.606 1482.55 Q826.24 1482.55 828.046 1479.01 Q829.874 1475.44 829.874 1468.33 Q829.874 1461.2 828.046 1457.66 Q826.24 1454.1 822.606 1454.1 M822.606 1450.39 Q828.416 1450.39 831.472 1455 Q834.55 1459.58 834.55 1468.33 Q834.55 1477.06 831.472 1481.67 Q828.416 1486.25 822.606 1486.25 Q816.796 1486.25 813.717 1481.67 Q810.662 1477.06 810.662 1468.33 Q810.662 1459.58 813.717 1455 Q816.796 1450.39 822.606 1450.39 Z" fill="#000000" fill-rule="nonzero" fill-opacity="1"></path><path clip-path="url(#clip320)" d="M1251.64 1451.02 L1270 1451.02 L1270 1454.96 L1255.92 1454.96 L1255.92 1463.43 Q1256.94 1463.08 1257.96 1462.92 Q1258.98 1462.73 1260 1462.73 Q1265.78 1462.73 1269.16 1465.9 Q1272.54 1469.08 1272.54 1474.49 Q1272.54 1480.07 1269.07 1483.17 Q1265.6 1486.25 1259.28 1486.25 Q1257.1 1486.25 1254.83 1485.88 Q1252.59 1485.51 1250.18 1484.77 L1250.18 1480.07 Q1252.27 1481.2 1254.49 1481.76 Q1256.71 1482.32 1259.19 1482.32 Q1263.19 1482.32 1265.53 1480.21 Q1267.87 1478.1 1267.87 1474.49 Q1267.87 1470.88 1265.53 1468.77 Q1263.19 1466.67 1259.19 1466.67 Q1257.31 1466.67 1255.44 1467.08 Q1253.58 1467.5 1251.64 1468.38 L1251.64 1451.02 Z" fill="#000000" fill-rule="nonzero" fill-opacity="1"></path><path clip-path="url(#clip320)" d="M1291.76 1454.1 Q1288.14 1454.1 1286.32 1457.66 Q1284.51 1461.2 1284.51 1468.33 Q1284.51 1475.44 1286.32 1479.01 Q1288.14 1482.55 1291.76 1482.55 Q1295.39 1482.55 1297.2 1479.01 Q1299.02 1475.44 1299.02 1468.33 Q1299.02 1461.2 1297.2 1457.66 Q1295.39 1454.1 1291.76 1454.1 M1291.76 1450.39 Q1297.57 1450.39 1300.62 1455 Q1303.7 1459.58 1303.7 1468.33 Q1303.7 1477.06 1300.62 1481.67 Q1297.57 1486.25 1291.76 1486.25 Q1285.95 1486.25 1282.87 1481.67 Q1279.81 1477.06 1279.81 1468.33 Q1279.81 1459.58 1282.87 1455 Q1285.95 1450.39 1291.76 1450.39 Z" fill="#000000" fill-rule="nonzero" fill-opacity="1"></path><path clip-path="url(#clip320)" d="M1321.92 1454.1 Q1318.31 1454.1 1316.48 1457.66 Q1314.67 1461.2 1314.67 1468.33 Q1314.67 1475.44 1316.48 1479.01 Q1318.31 1482.55 1321.92 1482.55 Q1325.55 1482.55 1327.36 1479.01 Q1329.19 1475.44 1329.19 1468.33 Q1329.19 1461.2 1327.36 1457.66 Q1325.55 1454.1 1321.92 1454.1 M1321.92 1450.39 Q1327.73 1450.39 1330.78 1455 Q1333.86 1459.58 1333.86 1468.33 Q1333.86 1477.06 1330.78 1481.67 Q1327.73 1486.25 1321.92 1486.25 Q1316.11 1486.25 1313.03 1481.67 Q1309.97 1477.06 1309.97 1468.33 Q1309.97 1459.58 1313.03 1455 Q1316.11 1450.39 1321.92 1450.39 Z" fill="#000000" fill-rule="nonzero" fill-opacity="1"></path><path clip-path="url(#clip320)" d="M1749.7 1451.02 L1771.92 1451.02 L1771.92 1453.01 L1759.38 1485.58 L1754.49 1485.58 L1766.3 1454.96 L1749.7 1454.96 L1749.7 1451.02 Z" fill="#000000" fill-rule="nonzero" fill-opacity="1"></path><path clip-path="url(#clip320)" d="M1781.09 1451.02 L1799.45 1451.02 L1799.45 1454.96 L1785.37 1454.96 L1785.37 1463.43 Q1786.39 1463.08 1787.41 1462.92 Q1788.43 1462.73 1789.45 1462.73 Q1795.23 1462.73 1798.61 1465.9 Q1801.99 1469.08 1801.99 1474.49 Q1801.99 1480.07 1798.52 1483.17 Q1795.05 1486.25 1788.73 1486.25 Q1786.55 1486.25 1784.28 1485.88 Q1782.04 1485.51 1779.63 1484.77 L1779.63 1480.07 Q1781.72 1481.2 1783.94 1481.76 Q1786.16 1482.32 1788.64 1482.32 Q1792.64 1482.32 1794.98 1480.21 Q1797.32 1478.1 1797.32 1474.49 Q1797.32 1470.88 1794.98 1468.77 Q1792.64 1466.67 1788.64 1466.67 Q1786.76 1466.67 1784.89 1467.08 Q1783.03 1467.5 1781.09 1468.38 L1781.09 1451.02 Z" fill="#000000" fill-rule="nonzero" fill-opacity="1"></path><path clip-path="url(#clip320)" d="M1821.21 1454.1 Q1817.59 1454.1 1815.77 1457.66 Q1813.96 1461.2 1813.96 1468.33 Q1813.96 1475.44 1815.77 1479.01 Q1817.59 1482.55 1821.21 1482.55 Q1824.84 1482.55 1826.65 1479.01 Q1828.47 1475.44 1828.47 1468.33 Q1828.47 1461.2 1826.65 1457.66 Q1824.84 1454.1 1821.21 1454.1 M1821.21 1450.39 Q1827.02 1450.39 1830.07 1455 Q1833.15 1459.58 1833.15 1468.33 Q1833.15 1477.06 1830.07 1481.67 Q1827.02 1486.25 1821.21 1486.25 Q1815.4 1486.25 1812.32 1481.67 Q1809.26 1477.06 1809.26 1468.33 Q1809.26 1459.58 1812.32 1455 Q1815.4 1450.39 1821.21 1450.39 Z" fill="#000000" fill-rule="nonzero" fill-opacity="1"></path><path clip-path="url(#clip320)" d="M2235.36 1481.64 L2242.99 1481.64 L2242.99 1455.28 L2234.68 1456.95 L2234.68 1452.69 L2242.95 1451.02 L2247.62 1451.02 L2247.62 1481.64 L2255.26 1481.64 L2255.26 1485.58 L2235.36 1485.58 L2235.36 1481.64 Z" fill="#000000" fill-rule="nonzero" fill-opacity="1"></path><path clip-path="url(#clip320)" d="M2274.71 1454.1 Q2271.1 1454.1 2269.27 1457.66 Q2267.46 1461.2 2267.46 1468.33 Q2267.46 1475.44 2269.27 1479.01 Q2271.1 1482.55 2274.71 1482.55 Q2278.34 1482.55 2280.15 1479.01 Q2281.98 1475.44 2281.98 1468.33 Q2281.98 1461.2 2280.15 1457.66 Q2278.34 1454.1 2274.71 1454.1 M2274.71 1450.39 Q2280.52 1450.39 2283.57 1455 Q2286.65 1459.58 2286.65 1468.33 Q2286.65 1477.06 2283.57 1481.67 Q2280.52 1486.25 2274.71 1486.25 Q2268.9 1486.25 2265.82 1481.67 Q2262.76 1477.06 2262.76 1468.33 Q2262.76 1459.58 2265.82 1455 Q2268.9 1450.39 2274.71 1450.39 Z" fill="#000000" fill-rule="nonzero" fill-opacity="1"></path><path clip-path="url(#clip320)" d="M2304.87 1454.1 Q2301.26 1454.1 2299.43 1457.66 Q2297.62 1461.2 2297.62 1468.33 Q2297.62 1475.44 2299.43 1479.01 Q2301.26 1482.55 2304.87 1482.55 Q2308.5 1482.55 2310.31 1479.01 Q2312.14 1475.44 2312.14 1468.33 Q2312.14 1461.2 2310.31 1457.66 Q2308.5 1454.1 2304.87 1454.1 M2304.87 1450.39 Q2310.68 1450.39 2313.73 1455 Q2316.81 1459.58 2316.81 1468.33 Q2316.81 1477.06 2313.73 1481.67 Q2310.68 1486.25 2304.87 1486.25 Q2299.06 1486.25 2295.98 1481.67 Q2292.92 1477.06 2292.92 1468.33 Q2292.92 1459.58 2295.98 1455 Q2299.06 1450.39 2304.87 1450.39 Z" fill="#000000" fill-rule="nonzero" fill-opacity="1"></path><path clip-path="url(#clip320)" d="M2335.03 1454.1 Q2331.42 1454.1 2329.59 1457.66 Q2327.79 1461.2 2327.79 1468.33 Q2327.79 1475.44 2329.59 1479.01 Q2331.42 1482.55 2335.03 1482.55 Q2338.67 1482.55 2340.47 1479.01 Q2342.3 1475.44 2342.3 1468.33 Q2342.3 1461.2 2340.47 1457.66 Q2338.67 1454.1 2335.03 1454.1 M2335.03 1450.39 Q2340.84 1450.39 2343.9 1455 Q2346.98 1459.58 2346.98 1468.33 Q2346.98 1477.06 2343.9 1481.67 Q2340.84 1486.25 2335.03 1486.25 Q2329.22 1486.25 2326.14 1481.67 Q2323.09 1477.06 2323.09 1468.33 Q2323.09 1459.58 2326.14 1455 Q2329.22 1450.39 2335.03 1450.39 Z" fill="#000000" fill-rule="nonzero" fill-opacity="1"></path><path clip-path="url(#clip320)" d="M1233.18 1522.27 L1233.18 1532.4 L1245.24 1532.4 L1245.24 1536.95 L1233.18 1536.95 L1233.18 1556.3 Q1233.18 1560.66 1234.36 1561.9 Q1235.57 1563.14 1239.23 1563.14 L1245.24 1563.14 L1245.24 1568.04 L1239.23 1568.04 Q1232.45 1568.04 1229.87 1565.53 Q1227.29 1562.98 1227.29 1556.3 L1227.29 1536.95 L1222.99 1536.95 L1222.99 1532.4 L1227.29 1532.4 L1227.29 1522.27 L1233.18 1522.27 Z" fill="#000000" fill-rule="nonzero" fill-opacity="1"></path><path clip-path="url(#clip320)" d="M1252.94 1532.4 L1258.8 1532.4 L1258.8 1568.04 L1252.94 1568.04 L1252.94 1532.4 M1252.94 1518.52 L1258.8 1518.52 L1258.8 1525.93 L1252.94 1525.93 L1252.94 1518.52 Z" fill="#000000" fill-rule="nonzero" fill-opacity="1"></path><path clip-path="url(#clip320)" d="M1298.81 1539.24 Q1301.01 1535.29 1304.06 1533.41 Q1307.12 1531.54 1311.25 1531.54 Q1316.82 1531.54 1319.85 1535.45 Q1322.87 1539.33 1322.87 1546.53 L1322.87 1568.04 L1316.98 1568.04 L1316.98 1546.72 Q1316.98 1541.59 1315.17 1539.11 Q1313.36 1536.63 1309.63 1536.63 Q1305.08 1536.63 1302.44 1539.65 Q1299.8 1542.68 1299.8 1547.9 L1299.8 1568.04 L1293.91 1568.04 L1293.91 1546.72 Q1293.91 1541.56 1292.09 1539.11 Q1290.28 1536.63 1286.49 1536.63 Q1282 1536.63 1279.36 1539.68 Q1276.72 1542.71 1276.72 1547.9 L1276.72 1568.04 L1270.83 1568.04 L1270.83 1532.4 L1276.72 1532.4 L1276.72 1537.93 Q1278.73 1534.66 1281.53 1533.1 Q1284.33 1531.54 1288.18 1531.54 Q1292.06 1531.54 1294.77 1533.51 Q1297.5 1535.48 1298.81 1539.24 Z" fill="#000000" fill-rule="nonzero" fill-opacity="1"></path><path clip-path="url(#clip320)" d="M1365.04 1548.76 L1365.04 1551.62 L1338.12 1551.62 Q1338.5 1557.67 1341.75 1560.85 Q1345.02 1564 1350.85 1564 Q1354.22 1564 1357.37 1563.17 Q1360.56 1562.35 1363.68 1560.69 L1363.68 1566.23 Q1360.53 1567.57 1357.21 1568.27 Q1353.9 1568.97 1350.5 1568.97 Q1341.97 1568.97 1336.97 1564 Q1332.01 1559.04 1332.01 1550.57 Q1332.01 1541.82 1336.72 1536.69 Q1341.46 1531.54 1349.48 1531.54 Q1356.67 1531.54 1360.84 1536.18 Q1365.04 1540.8 1365.04 1548.76 M1359.19 1547.04 Q1359.12 1542.23 1356.48 1539.37 Q1353.87 1536.5 1349.54 1536.5 Q1344.64 1536.5 1341.68 1539.27 Q1338.75 1542.04 1338.31 1547.07 L1359.19 1547.04 Z" fill="#000000" fill-rule="nonzero" fill-opacity="1"></path><polyline clip-path="url(#clip320)" style="stroke:#000000; stroke-linecap:round; stroke-linejoin:round; stroke-width:4; stroke-opacity:1; fill:none" points="235.283,1423.18 235.283,123.472 "></polyline>
<polyline clip-path="url(#clip320)" style="stroke:#000000; stroke-linecap:round; stroke-linejoin:round; stroke-width:4; stroke-opacity:1; fill:none" points="235.283,1385.28 254.18,1385.28 "></polyline>
<polyline clip-path="url(#clip320)" style="stroke:#000000; stroke-linecap:round; stroke-linejoin:round; stroke-width:4; stroke-opacity:1; fill:none" points="235.283,1124.01 254.18,1124.01 "></polyline>
<polyline clip-path="url(#clip320)" style="stroke:#000000; stroke-linecap:round; stroke-linejoin:round; stroke-width:4; stroke-opacity:1; fill:none" points="235.283,862.735 254.18,862.735 "></polyline>
<polyline clip-path="url(#clip320)" style="stroke:#000000; stroke-linecap:round; stroke-linejoin:round; stroke-width:4; stroke-opacity:1; fill:none" points="235.283,601.461 254.18,601.461 "></polyline>
<polyline clip-path="url(#clip320)" style="stroke:#000000; stroke-linecap:round; stroke-linejoin:round; stroke-width:4; stroke-opacity:1; fill:none" points="235.283,340.188 254.18,340.188 "></polyline>
<path clip-path="url(#clip320)" d="M187.338 1371.08 Q183.727 1371.08 181.899 1374.65 Q180.093 1378.19 180.093 1385.32 Q180.093 1392.42 181.899 1395.99 Q183.727 1399.53 187.338 1399.53 Q190.973 1399.53 192.778 1395.99 Q194.607 1392.42 194.607 1385.32 Q194.607 1378.19 192.778 1374.65 Q190.973 1371.08 187.338 1371.08 M187.338 1367.38 Q193.149 1367.38 196.204 1371.98 Q199.283 1376.57 199.283 1385.32 Q199.283 1394.04 196.204 1398.65 Q193.149 1403.23 187.338 1403.23 Q181.528 1403.23 178.45 1398.65 Q175.394 1394.04 175.394 1385.32 Q175.394 1376.57 178.45 1371.98 Q181.528 1367.38 187.338 1367.38 Z" fill="#000000" fill-rule="nonzero" fill-opacity="1"></path><path clip-path="url(#clip320)" d="M121.043 1137.35 L137.362 1137.35 L137.362 1141.29 L115.418 1141.29 L115.418 1137.35 Q118.08 1134.6 122.663 1129.97 Q127.269 1125.32 128.45 1123.97 Q130.695 1121.45 131.575 1119.71 Q132.478 1117.96 132.478 1116.27 Q132.478 1113.51 130.533 1111.77 Q128.612 1110.04 125.51 1110.04 Q123.311 1110.04 120.857 1110.8 Q118.427 1111.57 115.649 1113.12 L115.649 1108.4 Q118.473 1107.26 120.927 1106.68 Q123.38 1106.1 125.418 1106.1 Q130.788 1106.1 133.982 1108.79 Q137.177 1111.47 137.177 1115.96 Q137.177 1118.09 136.367 1120.02 Q135.579 1121.91 133.473 1124.51 Q132.894 1125.18 129.792 1128.39 Q126.691 1131.59 121.043 1137.35 Z" fill="#000000" fill-rule="nonzero" fill-opacity="1"></path><path clip-path="url(#clip320)" d="M157.177 1109.81 Q153.566 1109.81 151.737 1113.37 Q149.931 1116.91 149.931 1124.04 Q149.931 1131.15 151.737 1134.71 Q153.566 1138.26 157.177 1138.26 Q160.811 1138.26 162.616 1134.71 Q164.445 1131.15 164.445 1124.04 Q164.445 1116.91 162.616 1113.37 Q160.811 1109.81 157.177 1109.81 M157.177 1106.1 Q162.987 1106.1 166.042 1110.71 Q169.121 1115.29 169.121 1124.04 Q169.121 1132.77 166.042 1137.38 Q162.987 1141.96 157.177 1141.96 Q151.366 1141.96 148.288 1137.38 Q145.232 1132.77 145.232 1124.04 Q145.232 1115.29 148.288 1110.71 Q151.366 1106.1 157.177 1106.1 Z" fill="#000000" fill-rule="nonzero" fill-opacity="1"></path><path clip-path="url(#clip320)" d="M187.338 1109.81 Q183.727 1109.81 181.899 1113.37 Q180.093 1116.91 180.093 1124.04 Q180.093 1131.15 181.899 1134.71 Q183.727 1138.26 187.338 1138.26 Q190.973 1138.26 192.778 1134.71 Q194.607 1131.15 194.607 1124.04 Q194.607 1116.91 192.778 1113.37 Q190.973 1109.81 187.338 1109.81 M187.338 1106.1 Q193.149 1106.1 196.204 1110.71 Q199.283 1115.29 199.283 1124.04 Q199.283 1132.77 196.204 1137.38 Q193.149 1141.96 187.338 1141.96 Q181.528 1141.96 178.45 1137.38 Q175.394 1132.77 175.394 1124.04 Q175.394 1115.29 178.45 1110.71 Q181.528 1106.1 187.338 1106.1 Z" fill="#000000" fill-rule="nonzero" fill-opacity="1"></path><path clip-path="url(#clip320)" d="M129.862 849.529 L118.056 867.978 L129.862 867.978 L129.862 849.529 M128.635 845.455 L134.515 845.455 L134.515 867.978 L139.445 867.978 L139.445 871.867 L134.515 871.867 L134.515 880.015 L129.862 880.015 L129.862 871.867 L114.26 871.867 L114.26 867.353 L128.635 845.455 Z" fill="#000000" fill-rule="nonzero" fill-opacity="1"></path><path clip-path="url(#clip320)" d="M157.177 848.534 Q153.566 848.534 151.737 852.098 Q149.931 855.64 149.931 862.77 Q149.931 869.876 151.737 873.441 Q153.566 876.982 157.177 876.982 Q160.811 876.982 162.616 873.441 Q164.445 869.876 164.445 862.77 Q164.445 855.64 162.616 852.098 Q160.811 848.534 157.177 848.534 M157.177 844.83 Q162.987 844.83 166.042 849.436 Q169.121 854.02 169.121 862.77 Q169.121 871.496 166.042 876.103 Q162.987 880.686 157.177 880.686 Q151.366 880.686 148.288 876.103 Q145.232 871.496 145.232 862.77 Q145.232 854.02 148.288 849.436 Q151.366 844.83 157.177 844.83 Z" fill="#000000" fill-rule="nonzero" fill-opacity="1"></path><path clip-path="url(#clip320)" d="M187.338 848.534 Q183.727 848.534 181.899 852.098 Q180.093 855.64 180.093 862.77 Q180.093 869.876 181.899 873.441 Q183.727 876.982 187.338 876.982 Q190.973 876.982 192.778 873.441 Q194.607 869.876 194.607 862.77 Q194.607 855.64 192.778 852.098 Q190.973 848.534 187.338 848.534 M187.338 844.83 Q193.149 844.83 196.204 849.436 Q199.283 854.02 199.283 862.77 Q199.283 871.496 196.204 876.103 Q193.149 880.686 187.338 880.686 Q181.528 880.686 178.45 876.103 Q175.394 871.496 175.394 862.77 Q175.394 854.02 178.45 849.436 Q181.528 844.83 187.338 844.83 Z" fill="#000000" fill-rule="nonzero" fill-opacity="1"></path><path clip-path="url(#clip320)" d="M127.593 599.598 Q124.445 599.598 122.593 601.751 Q120.765 603.903 120.765 607.653 Q120.765 611.38 122.593 613.556 Q124.445 615.709 127.593 615.709 Q130.742 615.709 132.57 613.556 Q134.422 611.38 134.422 607.653 Q134.422 603.903 132.57 601.751 Q130.742 599.598 127.593 599.598 M136.876 584.945 L136.876 589.204 Q135.117 588.371 133.311 587.931 Q131.529 587.492 129.769 587.492 Q125.14 587.492 122.686 590.616 Q120.255 593.741 119.908 600.061 Q121.274 598.047 123.334 596.982 Q125.394 595.894 127.871 595.894 Q133.08 595.894 136.089 599.066 Q139.121 602.214 139.121 607.653 Q139.121 612.977 135.973 616.195 Q132.825 619.413 127.593 619.413 Q121.598 619.413 118.427 614.829 Q115.256 610.223 115.256 601.496 Q115.256 593.302 119.144 588.441 Q123.033 583.556 129.584 583.556 Q131.343 583.556 133.126 583.904 Q134.931 584.251 136.876 584.945 Z" fill="#000000" fill-rule="nonzero" fill-opacity="1"></path><path clip-path="url(#clip320)" d="M157.177 587.26 Q153.566 587.26 151.737 590.825 Q149.931 594.366 149.931 601.496 Q149.931 608.603 151.737 612.167 Q153.566 615.709 157.177 615.709 Q160.811 615.709 162.616 612.167 Q164.445 608.603 164.445 601.496 Q164.445 594.366 162.616 590.825 Q160.811 587.26 157.177 587.26 M157.177 583.556 Q162.987 583.556 166.042 588.163 Q169.121 592.746 169.121 601.496 Q169.121 610.223 166.042 614.829 Q162.987 619.413 157.177 619.413 Q151.366 619.413 148.288 614.829 Q145.232 610.223 145.232 601.496 Q145.232 592.746 148.288 588.163 Q151.366 583.556 157.177 583.556 Z" fill="#000000" fill-rule="nonzero" fill-opacity="1"></path><path clip-path="url(#clip320)" d="M187.338 587.26 Q183.727 587.26 181.899 590.825 Q180.093 594.366 180.093 601.496 Q180.093 608.603 181.899 612.167 Q183.727 615.709 187.338 615.709 Q190.973 615.709 192.778 612.167 Q194.607 608.603 194.607 601.496 Q194.607 594.366 192.778 590.825 Q190.973 587.26 187.338 587.26 M187.338 583.556 Q193.149 583.556 196.204 588.163 Q199.283 592.746 199.283 601.496 Q199.283 610.223 196.204 614.829 Q193.149 619.413 187.338 619.413 Q181.528 619.413 178.45 614.829 Q175.394 610.223 175.394 601.496 Q175.394 592.746 178.45 588.163 Q181.528 583.556 187.338 583.556 Z" fill="#000000" fill-rule="nonzero" fill-opacity="1"></path><path clip-path="url(#clip320)" d="M127.015 341.056 Q123.681 341.056 121.76 342.838 Q119.862 344.621 119.862 347.746 Q119.862 350.871 121.76 352.653 Q123.681 354.435 127.015 354.435 Q130.348 354.435 132.269 352.653 Q134.191 350.847 134.191 347.746 Q134.191 344.621 132.269 342.838 Q130.371 341.056 127.015 341.056 M122.339 339.065 Q119.33 338.324 117.64 336.264 Q115.973 334.204 115.973 331.241 Q115.973 327.098 118.913 324.69 Q121.876 322.283 127.015 322.283 Q132.177 322.283 135.117 324.69 Q138.056 327.098 138.056 331.241 Q138.056 334.204 136.367 336.264 Q134.7 338.324 131.714 339.065 Q135.093 339.852 136.968 342.144 Q138.867 344.435 138.867 347.746 Q138.867 352.769 135.788 355.454 Q132.732 358.139 127.015 358.139 Q121.297 358.139 118.218 355.454 Q115.163 352.769 115.163 347.746 Q115.163 344.435 117.061 342.144 Q118.959 339.852 122.339 339.065 M120.626 331.681 Q120.626 334.366 122.293 335.871 Q123.982 337.375 127.015 337.375 Q130.024 337.375 131.714 335.871 Q133.427 334.366 133.427 331.681 Q133.427 328.996 131.714 327.491 Q130.024 325.987 127.015 325.987 Q123.982 325.987 122.293 327.491 Q120.626 328.996 120.626 331.681 Z" fill="#000000" fill-rule="nonzero" fill-opacity="1"></path><path clip-path="url(#clip320)" d="M157.177 325.987 Q153.566 325.987 151.737 329.551 Q149.931 333.093 149.931 340.223 Q149.931 347.329 151.737 350.894 Q153.566 354.435 157.177 354.435 Q160.811 354.435 162.616 350.894 Q164.445 347.329 164.445 340.223 Q164.445 333.093 162.616 329.551 Q160.811 325.987 157.177 325.987 M157.177 322.283 Q162.987 322.283 166.042 326.889 Q169.121 331.473 169.121 340.223 Q169.121 348.949 166.042 353.556 Q162.987 358.139 157.177 358.139 Q151.366 358.139 148.288 353.556 Q145.232 348.949 145.232 340.223 Q145.232 331.473 148.288 326.889 Q151.366 322.283 157.177 322.283 Z" fill="#000000" fill-rule="nonzero" fill-opacity="1"></path><path clip-path="url(#clip320)" d="M187.338 325.987 Q183.727 325.987 181.899 329.551 Q180.093 333.093 180.093 340.223 Q180.093 347.329 181.899 350.894 Q183.727 354.435 187.338 354.435 Q190.973 354.435 192.778 350.894 Q194.607 347.329 194.607 340.223 Q194.607 333.093 192.778 329.551 Q190.973 325.987 187.338 325.987 M187.338 322.283 Q193.149 322.283 196.204 326.889 Q199.283 331.473 199.283 340.223 Q199.283 348.949 196.204 353.556 Q193.149 358.139 187.338 358.139 Q181.528 358.139 178.45 353.556 Q175.394 348.949 175.394 340.223 Q175.394 331.473 178.45 326.889 Q181.528 322.283 187.338 322.283 Z" fill="#000000" fill-rule="nonzero" fill-opacity="1"></path><path clip-path="url(#clip320)" d="M44.7161 911.525 L47.5806 911.525 L47.5806 938.452 Q53.6281 938.07 56.8109 934.824 Q59.9619 931.546 59.9619 925.721 Q59.9619 922.347 59.1344 919.196 Q58.3069 916.013 56.6518 912.894 L62.1899 912.894 Q63.5267 916.045 64.227 919.355 Q64.9272 922.665 64.9272 926.071 Q64.9272 934.601 59.9619 939.598 Q54.9967 944.563 46.5303 944.563 Q37.7774 944.563 32.6531 939.853 Q27.4968 935.11 27.4968 927.09 Q27.4968 919.896 32.1438 915.727 Q36.7589 911.525 44.7161 911.525 M42.9973 917.382 Q38.1912 917.446 35.3266 920.087 Q32.4621 922.697 32.4621 927.026 Q32.4621 931.928 35.2312 934.888 Q38.0002 937.816 43.0292 938.261 L42.9973 917.382 Z" fill="#000000" fill-rule="nonzero" fill-opacity="1"></path><path clip-path="url(#clip320)" d="M28.3562 873.427 L45.7028 886.317 L64.0042 872.758 L64.0042 879.665 L49.9996 890.041 L64.0042 900.417 L64.0042 907.324 L45.3526 893.479 L28.3562 906.146 L28.3562 899.24 L41.0558 889.787 L28.3562 880.334 L28.3562 873.427 Z" fill="#000000" fill-rule="nonzero" fill-opacity="1"></path><path clip-path="url(#clip320)" d="M58.657 858.817 L77.5631 858.817 L77.5631 864.706 L28.3562 864.706 L28.3562 858.817 L33.7671 858.817 Q30.5842 856.971 29.0564 854.17 Q27.4968 851.338 27.4968 847.423 Q27.4968 840.93 32.6531 836.888 Q37.8093 832.814 46.212 832.814 Q54.6147 832.814 59.771 836.888 Q64.9272 840.93 64.9272 847.423 Q64.9272 851.338 63.3994 854.17 Q61.8398 856.971 58.657 858.817 M46.212 838.893 Q39.7508 838.893 36.0905 841.566 Q32.3984 844.208 32.3984 848.855 Q32.3984 853.502 36.0905 856.176 Q39.7508 858.817 46.212 858.817 Q52.6732 858.817 56.3653 856.176 Q60.0256 853.502 60.0256 848.855 Q60.0256 844.208 56.3653 841.566 Q52.6732 838.893 46.212 838.893 Z" fill="#000000" fill-rule="nonzero" fill-opacity="1"></path><path clip-path="url(#clip320)" d="M33.8307 802.449 Q33.2578 803.436 33.0032 804.613 Q32.7167 805.759 32.7167 807.16 Q32.7167 812.125 35.9632 814.799 Q39.1779 817.44 45.2253 817.44 L64.0042 817.44 L64.0042 823.329 L28.3562 823.329 L28.3562 817.44 L33.8944 817.44 Q30.6479 815.594 29.0883 812.634 Q27.4968 809.674 27.4968 805.441 Q27.4968 804.836 27.5923 804.104 Q27.656 803.372 27.8151 802.481 L33.8307 802.449 Z" fill="#000000" fill-rule="nonzero" fill-opacity="1"></path><path clip-path="url(#clip320)" d="M44.7161 767.247 L47.5806 767.247 L47.5806 794.174 Q53.6281 793.792 56.8109 790.545 Q59.9619 787.267 59.9619 781.442 Q59.9619 778.068 59.1344 774.917 Q58.3069 771.735 56.6518 768.615 L62.1899 768.615 Q63.5267 771.766 64.227 775.077 Q64.9272 778.387 64.9272 781.792 Q64.9272 790.322 59.9619 795.32 Q54.9967 800.285 46.5303 800.285 Q37.7774 800.285 32.6531 795.574 Q27.4968 790.832 27.4968 782.811 Q27.4968 775.618 32.1438 771.448 Q36.7589 767.247 44.7161 767.247 M42.9973 773.103 Q38.1912 773.167 35.3266 775.809 Q32.4621 778.419 32.4621 782.747 Q32.4621 787.649 35.2312 790.609 Q38.0002 793.537 43.0292 793.983 L42.9973 773.103 Z" fill="#000000" fill-rule="nonzero" fill-opacity="1"></path><path clip-path="url(#clip320)" d="M29.4065 734.909 L34.9447 734.909 Q33.6716 737.392 33.035 740.065 Q32.3984 742.739 32.3984 745.603 Q32.3984 749.964 33.7352 752.16 Q35.072 754.324 37.7456 754.324 Q39.7826 754.324 40.9603 752.765 Q42.1061 751.205 43.1565 746.495 L43.6021 744.489 Q44.9389 738.251 47.3897 735.641 Q49.8086 732.999 54.1691 732.999 Q59.1344 732.999 62.0308 736.946 Q64.9272 740.861 64.9272 747.736 Q64.9272 750.6 64.3543 753.72 Q63.8132 756.807 62.6992 760.244 L56.6518 760.244 Q58.3387 756.998 59.198 753.847 Q60.0256 750.696 60.0256 747.609 Q60.0256 743.471 58.6251 741.243 Q57.1929 739.015 54.6147 739.015 Q52.2276 739.015 50.9545 740.638 Q49.6813 742.23 48.5037 747.672 L48.0262 749.709 Q46.8804 755.152 44.5251 757.571 Q42.138 759.99 38.0002 759.99 Q32.9713 759.99 30.2341 756.425 Q27.4968 752.86 27.4968 746.304 Q27.4968 743.057 27.9743 740.192 Q28.4517 737.328 29.4065 734.909 Z" fill="#000000" fill-rule="nonzero" fill-opacity="1"></path><path clip-path="url(#clip320)" d="M29.4065 700.948 L34.9447 700.948 Q33.6716 703.431 33.035 706.104 Q32.3984 708.778 32.3984 711.642 Q32.3984 716.003 33.7352 718.199 Q35.072 720.363 37.7456 720.363 Q39.7826 720.363 40.9603 718.804 Q42.1061 717.244 43.1565 712.533 L43.6021 710.528 Q44.9389 704.29 47.3897 701.68 Q49.8086 699.038 54.1691 699.038 Q59.1344 699.038 62.0308 702.985 Q64.9272 706.9 64.9272 713.775 Q64.9272 716.639 64.3543 719.759 Q63.8132 722.846 62.6992 726.283 L56.6518 726.283 Q58.3387 723.037 59.198 719.886 Q60.0256 716.735 60.0256 713.647 Q60.0256 709.51 58.6251 707.282 Q57.1929 705.054 54.6147 705.054 Q52.2276 705.054 50.9545 706.677 Q49.6813 708.268 48.5037 713.711 L48.0262 715.748 Q46.8804 721.191 44.5251 723.61 Q42.138 726.029 38.0002 726.029 Q32.9713 726.029 30.2341 722.464 Q27.4968 718.899 27.4968 712.343 Q27.4968 709.096 27.9743 706.231 Q28.4517 703.367 29.4065 700.948 Z" fill="#000000" fill-rule="nonzero" fill-opacity="1"></path><path clip-path="url(#clip320)" d="M28.3562 689.712 L28.3562 683.856 L64.0042 683.856 L64.0042 689.712 L28.3562 689.712 M14.479 689.712 L14.479 683.856 L21.895 683.856 L21.895 689.712 L14.479 689.712 Z" fill="#000000" fill-rule="nonzero" fill-opacity="1"></path><path clip-path="url(#clip320)" d="M32.4621 657.788 Q32.4621 662.499 36.1542 665.236 Q39.8145 667.974 46.212 667.974 Q52.6095 667.974 56.3017 665.268 Q59.9619 662.531 59.9619 657.788 Q59.9619 653.11 56.2698 650.372 Q52.5777 647.635 46.212 647.635 Q39.8781 647.635 36.186 650.372 Q32.4621 653.11 32.4621 657.788 M27.4968 657.788 Q27.4968 650.15 32.4621 645.789 Q37.4273 641.429 46.212 641.429 Q54.9649 641.429 59.9619 645.789 Q64.9272 650.15 64.9272 657.788 Q64.9272 665.459 59.9619 669.82 Q54.9649 674.148 46.212 674.148 Q37.4273 674.148 32.4621 669.82 Q27.4968 665.459 27.4968 657.788 Z" fill="#000000" fill-rule="nonzero" fill-opacity="1"></path><path clip-path="url(#clip320)" d="M42.4881 602.088 L64.0042 602.088 L64.0042 607.945 L42.679 607.945 Q37.6183 607.945 35.1038 609.918 Q32.5894 611.892 32.5894 615.838 Q32.5894 620.581 35.6131 623.318 Q38.6368 626.055 43.8567 626.055 L64.0042 626.055 L64.0042 631.944 L28.3562 631.944 L28.3562 626.055 L33.8944 626.055 Q30.6797 623.955 29.0883 621.122 Q27.4968 618.257 27.4968 614.533 Q27.4968 608.391 31.3163 605.24 Q35.1038 602.088 42.4881 602.088 Z" fill="#000000" fill-rule="nonzero" fill-opacity="1"></path><path clip-path="url(#clip320)" d="M902.034 19.2256 L881.374 51.5113 L902.034 51.5113 L902.034 19.2256 M899.887 12.096 L910.176 12.096 L910.176 51.5113 L918.804 51.5113 L918.804 58.3168 L910.176 58.3168 L910.176 72.576 L902.034 72.576 L902.034 58.3168 L874.731 58.3168 L874.731 50.4176 L899.887 12.096 Z" fill="#000000" fill-rule="nonzero" fill-opacity="1"></path><path clip-path="url(#clip320)" d="M975.233 32.4315 Q969.238 32.4315 965.754 37.1306 Q962.271 41.7891 962.271 49.9314 Q962.271 58.0738 965.714 62.7728 Q969.198 67.4314 975.233 67.4314 Q981.188 67.4314 984.672 62.7323 Q988.156 58.0333 988.156 49.9314 Q988.156 41.8701 984.672 37.1711 Q981.188 32.4315 975.233 32.4315 M975.233 26.1121 Q984.956 26.1121 990.505 32.4315 Q996.055 38.7509 996.055 49.9314 Q996.055 61.0714 990.505 67.4314 Q984.956 73.7508 975.233 73.7508 Q965.471 73.7508 959.921 67.4314 Q954.412 61.0714 954.412 49.9314 Q954.412 38.7509 959.921 32.4315 Q965.471 26.1121 975.233 26.1121 Z" fill="#000000" fill-rule="nonzero" fill-opacity="1"></path><path clip-path="url(#clip320)" d="M1037.33 28.5427 L1037.33 35.5912 Q1034.17 33.9709 1030.77 33.1607 Q1027.37 32.3505 1023.72 32.3505 Q1018.17 32.3505 1015.38 34.0519 Q1012.62 35.7533 1012.62 39.156 Q1012.62 41.7486 1014.61 43.2475 Q1016.59 44.7058 1022.59 46.0426 L1025.14 46.6097 Q1033.08 48.3111 1036.4 51.4303 Q1039.76 54.509 1039.76 60.0587 Q1039.76 66.3781 1034.74 70.0644 Q1029.76 73.7508 1021.01 73.7508 Q1017.36 73.7508 1013.39 73.0216 Q1009.46 72.3329 1005.09 70.9151 L1005.09 63.2184 Q1009.22 65.3654 1013.23 66.4591 Q1017.24 67.5124 1021.17 67.5124 Q1026.44 67.5124 1029.27 65.73 Q1032.11 63.9071 1032.11 60.6258 Q1032.11 57.5877 1030.04 55.9673 Q1028.02 54.3469 1021.09 52.8481 L1018.5 52.2405 Q1011.57 50.7821 1008.49 47.7845 Q1005.41 44.7463 1005.41 39.4801 Q1005.41 33.0797 1009.95 29.5959 Q1014.49 26.1121 1022.83 26.1121 Q1026.96 26.1121 1030.61 26.7198 Q1034.26 27.3274 1037.33 28.5427 Z" fill="#000000" fill-rule="nonzero" fill-opacity="1"></path><path clip-path="url(#clip320)" d="M1084.28 28.9478 L1084.28 35.9153 Q1081.12 34.1734 1077.92 33.3227 Q1074.76 32.4315 1071.52 32.4315 Q1064.27 32.4315 1060.26 37.0496 Q1056.25 41.6271 1056.25 49.9314 Q1056.25 58.2358 1060.26 62.8538 Q1064.27 67.4314 1071.52 67.4314 Q1074.76 67.4314 1077.92 66.5807 Q1081.12 65.6895 1084.28 63.9476 L1084.28 70.8341 Q1081.16 72.2924 1077.8 73.0216 Q1074.48 73.7508 1070.71 73.7508 Q1060.46 73.7508 1054.43 67.3098 Q1048.39 60.8689 1048.39 49.9314 Q1048.39 38.832 1054.47 32.472 Q1060.59 26.1121 1071.2 26.1121 Q1074.64 26.1121 1077.92 26.8413 Q1081.21 27.5299 1084.28 28.9478 Z" fill="#000000" fill-rule="nonzero" fill-opacity="1"></path><path clip-path="url(#clip320)" d="M1097.25 27.2059 L1104.7 27.2059 L1104.7 72.576 L1097.25 72.576 L1097.25 27.2059 M1097.25 9.54393 L1104.7 9.54393 L1104.7 18.9825 L1097.25 18.9825 L1097.25 9.54393 Z" fill="#000000" fill-rule="nonzero" fill-opacity="1"></path><path clip-path="url(#clip320)" d="M1120.3 9.54393 L1127.75 9.54393 L1127.75 72.576 L1120.3 72.576 L1120.3 9.54393 Z" fill="#000000" fill-rule="nonzero" fill-opacity="1"></path><path clip-path="url(#clip320)" d="M1163.97 49.7694 Q1154.93 49.7694 1151.45 51.8354 Q1147.96 53.9013 1147.96 58.8839 Q1147.96 62.8538 1150.56 65.2034 Q1153.19 67.5124 1157.69 67.5124 Q1163.88 67.5124 1167.61 63.1374 Q1171.38 58.7219 1171.38 51.4303 L1171.38 49.7694 L1163.97 49.7694 M1178.83 46.6907 L1178.83 72.576 L1171.38 72.576 L1171.38 65.6895 Q1168.83 69.8214 1165.02 71.8063 Q1161.21 73.7508 1155.7 73.7508 Q1148.73 73.7508 1144.6 69.8619 Q1140.51 65.9325 1140.51 59.3701 Q1140.51 51.7138 1145.61 47.825 Q1150.76 43.9361 1160.93 43.9361 L1171.38 43.9361 L1171.38 43.2069 Q1171.38 38.0623 1167.98 35.2672 Q1164.61 32.4315 1158.5 32.4315 Q1154.61 32.4315 1150.92 33.3632 Q1147.23 34.295 1143.83 36.1584 L1143.83 29.2718 Q1147.92 27.692 1151.77 26.9223 Q1155.62 26.1121 1159.27 26.1121 Q1169.11 26.1121 1173.97 31.2163 Q1178.83 36.3204 1178.83 46.6907 Z" fill="#000000" fill-rule="nonzero" fill-opacity="1"></path><path clip-path="url(#clip320)" d="M1201.56 14.324 L1201.56 27.2059 L1216.91 27.2059 L1216.91 32.9987 L1201.56 32.9987 L1201.56 57.6282 Q1201.56 63.1779 1203.06 64.7578 Q1204.6 66.3376 1209.25 66.3376 L1216.91 66.3376 L1216.91 72.576 L1209.25 72.576 Q1200.63 72.576 1197.34 69.3758 Q1194.06 66.1351 1194.06 57.6282 L1194.06 32.9987 L1188.59 32.9987 L1188.59 27.2059 L1194.06 27.2059 L1194.06 14.324 L1201.56 14.324 Z" fill="#000000" fill-rule="nonzero" fill-opacity="1"></path><path clip-path="url(#clip320)" d="M1226.71 27.2059 L1234.17 27.2059 L1234.17 72.576 L1226.71 72.576 L1226.71 27.2059 M1226.71 9.54393 L1234.17 9.54393 L1234.17 18.9825 L1226.71 18.9825 L1226.71 9.54393 Z" fill="#000000" fill-rule="nonzero" fill-opacity="1"></path><path clip-path="url(#clip320)" d="M1267.34 32.4315 Q1261.35 32.4315 1257.87 37.1306 Q1254.38 41.7891 1254.38 49.9314 Q1254.38 58.0738 1257.82 62.7728 Q1261.31 67.4314 1267.34 67.4314 Q1273.3 67.4314 1276.78 62.7323 Q1280.27 58.0333 1280.27 49.9314 Q1280.27 41.8701 1276.78 37.1711 Q1273.3 32.4315 1267.34 32.4315 M1267.34 26.1121 Q1277.07 26.1121 1282.62 32.4315 Q1288.17 38.7509 1288.17 49.9314 Q1288.17 61.0714 1282.62 67.4314 Q1277.07 73.7508 1267.34 73.7508 Q1257.58 73.7508 1252.03 67.4314 Q1246.52 61.0714 1246.52 49.9314 Q1246.52 38.7509 1252.03 32.4315 Q1257.58 26.1121 1267.34 26.1121 Z" fill="#000000" fill-rule="nonzero" fill-opacity="1"></path><path clip-path="url(#clip320)" d="M1338.23 45.1919 L1338.23 72.576 L1330.78 72.576 L1330.78 45.4349 Q1330.78 38.994 1328.27 35.7938 Q1325.76 32.5936 1320.74 32.5936 Q1314.7 32.5936 1311.22 36.4419 Q1307.73 40.2903 1307.73 46.9338 L1307.73 72.576 L1300.24 72.576 L1300.24 27.2059 L1307.73 27.2059 L1307.73 34.2544 Q1310.41 30.163 1314.01 28.1376 Q1317.66 26.1121 1322.4 26.1121 Q1330.21 26.1121 1334.22 30.9732 Q1338.23 35.7938 1338.23 45.1919 Z" fill="#000000" fill-rule="nonzero" fill-opacity="1"></path><path clip-path="url(#clip320)" d="M1382.03 28.5427 L1382.03 35.5912 Q1378.87 33.9709 1375.46 33.1607 Q1372.06 32.3505 1368.41 32.3505 Q1362.86 32.3505 1360.07 34.0519 Q1357.31 35.7533 1357.31 39.156 Q1357.31 41.7486 1359.3 43.2475 Q1361.28 44.7058 1367.28 46.0426 L1369.83 46.6097 Q1377.77 48.3111 1381.09 51.4303 Q1384.46 54.509 1384.46 60.0587 Q1384.46 66.3781 1379.43 70.0644 Q1374.45 73.7508 1365.7 73.7508 Q1362.05 73.7508 1358.08 73.0216 Q1354.16 72.3329 1349.78 70.9151 L1349.78 63.2184 Q1353.91 65.3654 1357.92 66.4591 Q1361.93 67.5124 1365.86 67.5124 Q1371.13 67.5124 1373.96 65.73 Q1376.8 63.9071 1376.8 60.6258 Q1376.8 57.5877 1374.73 55.9673 Q1372.71 54.3469 1365.78 52.8481 L1363.19 52.2405 Q1356.26 50.7821 1353.18 47.7845 Q1350.1 44.7463 1350.1 39.4801 Q1350.1 33.0797 1354.64 29.5959 Q1359.18 26.1121 1367.52 26.1121 Q1371.65 26.1121 1375.3 26.7198 Q1378.95 27.3274 1382.03 28.5427 Z" fill="#000000" fill-rule="nonzero" fill-opacity="1"></path><path clip-path="url(#clip320)" d="M1452.55 34.0924 L1452.55 9.54393 L1460.01 9.54393 L1460.01 72.576 L1452.55 72.576 L1452.55 65.7705 Q1450.2 69.8214 1446.6 71.8063 Q1443.03 73.7508 1438.01 73.7508 Q1429.79 73.7508 1424.6 67.1883 Q1419.46 60.6258 1419.46 49.9314 Q1419.46 39.2371 1424.6 32.6746 Q1429.79 26.1121 1438.01 26.1121 Q1443.03 26.1121 1446.6 28.0971 Q1450.2 30.0415 1452.55 34.0924 M1427.15 49.9314 Q1427.15 58.1548 1430.51 62.8538 Q1433.92 67.5124 1439.83 67.5124 Q1445.75 67.5124 1449.15 62.8538 Q1452.55 58.1548 1452.55 49.9314 Q1452.55 41.7081 1449.15 37.0496 Q1445.75 32.3505 1439.83 32.3505 Q1433.92 32.3505 1430.51 37.0496 Q1427.15 41.7081 1427.15 49.9314 Z" fill="#000000" fill-rule="nonzero" fill-opacity="1"></path><path clip-path="url(#clip320)" d="M1514.17 48.0275 L1514.17 51.6733 L1479.9 51.6733 Q1480.38 59.3701 1484.51 63.421 Q1488.69 67.4314 1496.1 67.4314 Q1500.39 67.4314 1504.4 66.3781 Q1508.45 65.3249 1512.42 63.2184 L1512.42 70.267 Q1508.41 71.9684 1504.2 72.8596 Q1499.99 73.7508 1495.65 73.7508 Q1484.8 73.7508 1478.44 67.4314 Q1472.12 61.1119 1472.12 50.3365 Q1472.12 39.1965 1478.11 32.6746 Q1484.15 26.1121 1494.36 26.1121 Q1503.51 26.1121 1508.82 32.0264 Q1514.17 37.9003 1514.17 48.0275 M1506.71 45.84 Q1506.63 39.7232 1503.27 36.0774 Q1499.95 32.4315 1494.44 32.4315 Q1488.2 32.4315 1484.43 35.9558 Q1480.71 39.4801 1480.14 45.8805 L1506.71 45.84 Z" fill="#000000" fill-rule="nonzero" fill-opacity="1"></path><path clip-path="url(#clip320)" d="M1555.32 28.5427 L1555.32 35.5912 Q1552.16 33.9709 1548.76 33.1607 Q1545.36 32.3505 1541.71 32.3505 Q1536.16 32.3505 1533.37 34.0519 Q1530.61 35.7533 1530.61 39.156 Q1530.61 41.7486 1532.6 43.2475 Q1534.58 44.7058 1540.58 46.0426 L1543.13 46.6097 Q1551.07 48.3111 1554.39 51.4303 Q1557.75 54.509 1557.75 60.0587 Q1557.75 66.3781 1552.73 70.0644 Q1547.75 73.7508 1539 73.7508 Q1535.35 73.7508 1531.38 73.0216 Q1527.45 72.3329 1523.08 70.9151 L1523.08 63.2184 Q1527.21 65.3654 1531.22 66.4591 Q1535.23 67.5124 1539.16 67.5124 Q1544.43 67.5124 1547.26 65.73 Q1550.1 63.9071 1550.1 60.6258 Q1550.1 57.5877 1548.03 55.9673 Q1546.01 54.3469 1539.08 52.8481 L1536.49 52.2405 Q1529.56 50.7821 1526.48 47.7845 Q1523.4 44.7463 1523.4 39.4801 Q1523.4 33.0797 1527.94 29.5959 Q1532.48 26.1121 1540.82 26.1121 Q1544.95 26.1121 1548.6 26.7198 Q1552.24 27.3274 1555.32 28.5427 Z" fill="#000000" fill-rule="nonzero" fill-opacity="1"></path><path clip-path="url(#clip320)" d="M1569.62 27.2059 L1577.08 27.2059 L1577.08 72.576 L1569.62 72.576 L1569.62 27.2059 M1569.62 9.54393 L1577.08 9.54393 L1577.08 18.9825 L1569.62 18.9825 L1569.62 9.54393 Z" fill="#000000" fill-rule="nonzero" fill-opacity="1"></path><path clip-path="url(#clip320)" d="M1618.96 34.1734 Q1617.71 33.4443 1616.21 33.1202 Q1614.75 32.7556 1612.97 32.7556 Q1606.65 32.7556 1603.25 36.8875 Q1599.88 40.9789 1599.88 48.6757 L1599.88 72.576 L1592.39 72.576 L1592.39 27.2059 L1599.88 27.2059 L1599.88 34.2544 Q1602.23 30.1225 1606 28.1376 Q1609.77 26.1121 1615.15 26.1121 Q1615.92 26.1121 1616.86 26.2337 Q1617.79 26.3147 1618.92 26.5172 L1618.96 34.1734 Z" fill="#000000" fill-rule="nonzero" fill-opacity="1"></path><path clip-path="url(#clip320)" d="M1663.77 48.0275 L1663.77 51.6733 L1629.5 51.6733 Q1629.98 59.3701 1634.11 63.421 Q1638.29 67.4314 1645.7 67.4314 Q1649.99 67.4314 1654 66.3781 Q1658.05 65.3249 1662.02 63.2184 L1662.02 70.267 Q1658.01 71.9684 1653.8 72.8596 Q1649.59 73.7508 1645.25 73.7508 Q1634.4 73.7508 1628.04 67.4314 Q1621.72 61.1119 1621.72 50.3365 Q1621.72 39.1965 1627.71 32.6746 Q1633.75 26.1121 1643.96 26.1121 Q1653.11 26.1121 1658.42 32.0264 Q1663.77 37.9003 1663.77 48.0275 M1656.31 45.84 Q1656.23 39.7232 1652.87 36.0774 Q1649.55 32.4315 1644.04 32.4315 Q1637.8 32.4315 1634.03 35.9558 Q1630.31 39.4801 1629.74 45.8805 L1656.31 45.84 Z" fill="#000000" fill-rule="nonzero" fill-opacity="1"></path><path clip-path="url(#clip320)" d="M1705.85 34.0924 L1705.85 9.54393 L1713.31 9.54393 L1713.31 72.576 L1705.85 72.576 L1705.85 65.7705 Q1703.51 69.8214 1699.9 71.8063 Q1696.33 73.7508 1691.31 73.7508 Q1683.09 73.7508 1677.9 67.1883 Q1672.76 60.6258 1672.76 49.9314 Q1672.76 39.2371 1677.9 32.6746 Q1683.09 26.1121 1691.31 26.1121 Q1696.33 26.1121 1699.9 28.0971 Q1703.51 30.0415 1705.85 34.0924 M1680.46 49.9314 Q1680.46 58.1548 1683.82 62.8538 Q1687.22 67.5124 1693.13 67.5124 Q1699.05 67.5124 1702.45 62.8538 Q1705.85 58.1548 1705.85 49.9314 Q1705.85 41.7081 1702.45 37.0496 Q1699.05 32.3505 1693.13 32.3505 Q1687.22 32.3505 1683.82 37.0496 Q1680.46 41.7081 1680.46 49.9314 Z" fill="#000000" fill-rule="nonzero" fill-opacity="1"></path><polyline clip-path="url(#clip322)" style="stroke:#009af9; stroke-linecap:round; stroke-linejoin:round; stroke-width:4; stroke-opacity:1; fill:none" points="295.211,1384.78 297.209,1385.1 299.207,1384.95 301.204,1385.03 303.202,1385.12 305.199,1385.23 307.197,1385.29 309.195,1385.21 311.192,1385.26 313.19,1385.25 315.187,1385.25 317.185,1385.32 319.183,1385.36 321.18,1385.3 323.178,1385.3 325.176,1385.3 327.173,1385.26 329.171,1385.27 331.168,1385.28 333.166,1385.27 335.164,1385.3 337.161,1385.31 339.159,1385.31 341.157,1385.36 343.154,1385.46 345.152,1385.42 347.149,1385.52 349.147,1385.44 351.145,1385.53 353.142,1385.51 355.14,1385.51 357.137,1385.43 359.135,1385.3 361.133,1385.34 363.13,1385.27 365.128,1385.26 367.126,1385.28 369.123,1385.26 371.121,1385.25 373.118,1385.18 375.116,1385.14 377.114,1385.38 379.111,1385.41 381.109,1385.25 383.106,1385.17 385.104,1385.18 387.102,1385.11 389.099,1385.09 391.097,1385.01 393.095,1384.96 395.092,1384.42 397.09,1383.91 399.087,1384.2 401.085,1383.69 403.083,1383.97 405.08,1380.85 407.078,1376.14 409.075,1371.56 411.073,1358.44 413.071,1338.16 415.068,1305.75 417.066,1251.49 419.064,1207.96 421.061,1163.26 423.059,1153.43 425.056,1155.15 427.054,1127.59 429.052,1085.77 431.049,1041.77 433.047,987.287 435.044,974.332 437.042,947.92 439.04,919.061 441.037,883.61 443.035,845.375 445.033,823.797 447.03,792.602 449.028,749.259 451.025,722.01 453.023,701.592 455.021,677.617 457.018,640.679 459.016,614.244 461.013,584.165 463.011,549.35 465.009,525.017 467.006,512.363 469.004,506.906 471.002,502.063 472.999,492.261 474.997,474.231 476.994,460.896 478.992,466.974 480.99,475.742 482.987,440.136 484.985,402.316 486.982,377.402 488.98,343.548 490.978,343.949 492.975,348.218 494.973,312.421 496.971,303.958 498.968,299.877 500.966,305.435 502.963,285.851 504.961,263.445 506.959,268.025 508.956,259.489 510.954,258.263 512.951,261.006 514.949,262.991 516.947,259.9 518.944,236.03 520.942,217.116 522.94,208.759 524.937,211.326 526.935,210.964 528.932,208.307 530.93,199.98 532.928,216.57 534.925,206.142 536.923,185.583 538.92,172.525 540.918,164.957 542.916,172.29 544.913,189.012 546.911,168.258 548.909,183.893 550.906,172.709 552.904,189.103 554.901,199.864 556.899,199.902 558.897,202.4 560.894,224.378 562.892,287.243 564.89,339.534 566.887,413.484 568.885,471.244 570.882,528.773 572.88,571.009 574.878,632.36 576.875,694.652 578.873,736.018 580.87,770.117 582.868,799.428 584.866,838.169 586.863,874.189 588.861,891.881 590.859,922.561 592.856,955.852 594.854,984.871 596.851,1013.9 598.849,1037.68 600.847,1060.21 602.844,1081.13 604.842,1107.75 606.839,1126.28 608.837,1139.58 610.835,1157.78 612.832,1172.96 614.83,1185.44 616.828,1193.44 618.825,1203.52 620.823,1212.93 622.82,1231.9 624.818,1240.26 626.816,1246.87 628.813,1253.78 630.811,1262 632.808,1274.13 634.806,1283.89 636.804,1289.29 638.801,1295.15 640.799,1298.58 642.797,1304.74 644.794,1313.36 646.792,1318.09 648.789,1322.79 650.787,1323.39 652.785,1328.31 654.782,1331.92 656.78,1333.83 658.777,1336.7 660.775,1338.74 662.773,1342.4 664.77,1345.94 666.768,1349.29 668.766,1352.14 670.763,1353.54 672.761,1356.95 674.758,1360.27 676.756,1362.18 678.754,1363.28 680.751,1362.66 682.749,1366.54 684.746,1367.09 686.744,1368.15 688.742,1368.25 690.739,1369.46 692.737,1370.56 694.735,1373.49 696.732,1372.03 698.73,1373.13 700.727,1374.8 702.725,1374.69 704.723,1375.66 706.72,1376.84 708.718,1377.42 710.715,1377.31 712.713,1377.42 714.711,1377.97 716.708,1379.14 718.706,1379.26 720.704,1378.88 722.701,1380.25 724.699,1380.4 726.696,1380.83 728.694,1381.08 730.692,1381.65 732.689,1381.92 734.687,1381.89 736.684,1382.26 738.682,1382.4 740.68,1382.45 742.677,1382.26 744.675,1382.57 746.673,1382.83 748.67,1382.32 750.668,1382.59 752.665,1383.09 754.663,1382.84 756.661,1383.02 758.658,1383.42 760.656,1383.49 762.653,1384.2 764.651,1384.01 766.649,1384.03 768.646,1384.2 770.644,1384.16 772.642,1384.72 774.639,1384.83 776.637,1384.87 778.634,1384.75 780.632,1385.1 782.63,1385.21 784.627,1385.26 786.625,1385.34 788.623,1385.36 790.62,1385.35 792.618,1385.32 794.615,1385.32 796.613,1385.31 798.611,1385.26 800.608,1385.28 802.606,1385.29 804.603,1385.29 806.601,1385.27 808.599,1385.3 810.596,1385.37 812.594,1385.36 814.592,1385.27 816.589,1385.25 818.587,1385.2 820.584,1385.14 822.582,1385.17 824.58,1385.15 826.577,1385.13 828.575,1385.15 830.572,1385.12 832.57,1385.09 834.568,1385.15 836.565,1385.17 838.563,1385.34 840.561,1385.3 842.558,1385.42 844.556,1385.62 846.553,1385.62 848.551,1385.8 850.549,1385.99 852.546,1385.4 854.544,1385.11 856.541,1384.29 858.539,1384.52 860.537,1382.76 862.534,1381.32 864.532,1379.29 866.53,1377.15 868.527,1374.46 870.525,1375.86 872.522,1365.55 874.52,1365.71 876.518,1367.54 878.515,1351.38 880.513,1340.37 882.51,1314.89 884.508,1280.3 886.506,1256.8 888.503,1223.07 890.501,1187.98 892.499,1172.69 894.496,1143.02 896.494,1109.69 898.491,1075.67 900.489,1025.71 902.487,989.002 904.484,930.358 906.482,913.362 908.479,877.549 910.477,828.855 912.475,802.452 914.472,772.346 916.47,726.83 918.468,708.987 920.465,674.066 922.463,646.994 924.46,612.563 926.458,596.94 928.456,574.608 930.453,555.129 932.451,530.932 934.448,508.837 936.446,489.622 938.444,464.316 940.441,439.289 942.439,405.708 944.437,391.616 946.434,356.586 948.432,342.616 950.429,353.954 952.427,339.675 954.425,327.032 956.422,320.91 958.42,336.257 960.417,303.987 962.415,304.544 964.413,326.544 966.41,328.203 968.408,308.568 970.406,299.628 972.403,295.811 974.401,293.32 976.398,271.748 978.396,269.606 980.394,290.15 982.391,286.513 984.389,276.375 986.386,284.628 988.384,307.851 990.382,293.795 992.379,281.312 994.377,272.727 996.375,270.512 998.372,255.684 1000.37,228.575 1002.37,222.278 1004.37,218.5 1006.36,212.862 1008.36,202.283 1010.36,180.312 1012.36,173.058 1014.35,177.554 1016.35,177.63 1018.35,170.291 1020.35,162.641 1022.34,160.256 1024.34,171.725 1026.34,188.093 1028.34,167.794 1030.33,166.981 1032.33,217.965 1034.33,268.007 1036.33,319.833 1038.32,369.599 1040.32,438.565 1042.32,481.36 1044.32,526.724 1046.31,595.662 1048.31,639.203 1050.31,688.993 1052.31,741.431 1054.31,756.793 1056.3,792.008 1058.3,825.298 1060.3,870.546 1062.3,906.379 1064.29,934.898 1066.29,967.287 1068.29,1003.79 1070.29,1022.62 1072.28,1044.39 1074.28,1063.52 1076.28,1076.18 1078.28,1090.11 1080.27,1103.29 1082.27,1129.01 1084.27,1148.86 1086.27,1160.77 1088.26,1173.99 1090.26,1185.29 1092.26,1195.49 1094.26,1199.16 1096.26,1212.89 1098.25,1227.03 1100.25,1236.04 1102.25,1245.74 1104.25,1254.74 1106.24,1266.34 1108.24,1273.79 1110.24,1284.12 1112.24,1288.85 1114.23,1297.52 1116.23,1297.49 1118.23,1304.74 1120.23,1311.49 1122.22,1315.2 1124.22,1321.24 1126.22,1326.52 1128.22,1328.65 1130.21,1329.68 1132.21,1334.44 1134.21,1337.46 1136.21,1339.02 1138.21,1341.65 1140.2,1342.53 1142.2,1346.68 1144.2,1348.04 1146.2,1349.76 1148.19,1352.55 1150.19,1354.13 1152.19,1356.05 1154.19,1356.63 1156.18,1360.31 1158.18,1361.27 1160.18,1361.02 1162.18,1361.81 1164.17,1362.15 1166.17,1362.41 1168.17,1364.72 1170.17,1366.56 1172.16,1367.72 1174.16,1367.05 1176.16,1369.98 1178.16,1369.32 1180.16,1369.07 1182.15,1369.58 1184.15,1371.48 1186.15,1372.36 1188.15,1375.02 1190.14,1376.03 1192.14,1377.94 1194.14,1378.47 1196.14,1379.36 1198.13,1379.49 1200.13,1379.33 1202.13,1380.23 1204.13,1380.37 1206.12,1380.71 1208.12,1381.52 1210.12,1382.12 1212.12,1382.65 1214.11,1382.21 1216.11,1381.58 1218.11,1382.19 1220.11,1382.49 1222.11,1383.05 1224.1,1383.62 1226.1,1383.56 1228.1,1383.41 1230.1,1383.81 1232.09,1383.85 1234.09,1383.45 1236.09,1383.56 1238.09,1382.9 1240.08,1383.17 1242.08,1382.99 1244.08,1383.44 1246.08,1382.93 1248.07,1383.06 1250.07,1383.29 1252.07,1383.43 1254.07,1383.74 1256.06,1384.11 1258.06,1384.13 1260.06,1384.11 1262.06,1384.06 1264.06,1383.63 1266.05,1383.81 1268.05,1383.68 1270.05,1383.68 1272.05,1383.97 1274.04,1384.13 1276.04,1384.14 1278.04,1384.23 1280.04,1384.45 1282.03,1384.22 1284.03,1384.05 1286.03,1384.92 1288.03,1384.73 1290.02,1384.98 1292.02,1385.03 1294.02,1384.95 1296.02,1384.9 1298.01,1384.84 1300.01,1385.01 1302.01,1385.17 1304.01,1385.07 1306.01,1385.31 1308,1385.28 1310,1385.29 1312,1385.33 1314,1385.36 1315.99,1385.37 1317.99,1385.39 1319.99,1385.34 1321.99,1385.21 1323.98,1385.11 1325.98,1385.04 1327.98,1384.89 1329.98,1385.24 1331.97,1385.32 1333.97,1385.32 1335.97,1385.23 1337.97,1385.22 1339.96,1385.42 1341.96,1385.52 1343.96,1385.52 1345.96,1385.27 1347.96,1385.49 1349.95,1386.17 1351.95,1386.4 1353.95,1385.03 1355.95,1384 1357.94,1385.68 1359.94,1385.48 1361.94,1384.03 1363.94,1382.52 1365.93,1382.11 1367.93,1381.58 1369.93,1383.36 1371.93,1381.11 1373.92,1379.93 1375.92,1380.16 1377.92,1381.79 1379.92,1383.88 1381.91,1382.41 1383.91,1381.88 1385.91,1382.08 1387.91,1381.83 1389.9,1381.92 1391.9,1381.55 1393.9,1380.28 1395.9,1380.14 1397.9,1378.9 1399.89,1372.94 1401.89,1369.28 1403.89,1355.87 1405.89,1351.66 1407.88,1347.02 1409.88,1342.71 1411.88,1323.29 1413.88,1306.39 1415.87,1291.8 1417.87,1282.36 1419.87,1239.68 1421.87,1200.02 1423.86,1146.05 1425.86,1088.55 1427.86,1040.91 1429.86,1001.4 1431.85,964.323 1433.85,911.109 1435.85,869.642 1437.85,832.886 1439.85,795.687 1441.84,760.827 1443.84,736.069 1445.84,707.304 1447.84,673.775 1449.83,635.362 1451.83,624.898 1453.83,606.622 1455.83,577.759 1457.82,565.838 1459.82,518.697 1461.82,494.445 1463.82,472.329 1465.81,475.838 1467.81,469.26 1469.81,464.985 1471.81,427.861 1473.8,416.648 1475.8,386.655 1477.8,363.54 1479.8,342.089 1481.8,315.97 1483.79,301.704 1485.79,284.95 1487.79,294.476 1489.79,298.902 1491.78,287.182 1493.78,291.649 1495.78,301.511 1497.78,284.868 1499.77,261.979 1501.77,269.996 1503.77,294.838 1505.77,290.694 1507.76,295.28 1509.76,290.17 1511.76,279.122 1513.76,275.343 1515.75,254.257 1517.75,263.75 1519.75,266.378 1521.75,259.79 1523.75,252.539 1525.74,259.223 1527.74,284.337 1529.74,282.302 1531.74,287.513 1533.73,269.054 1535.73,306.149 1537.73,363.546 1539.73,411.972 1541.72,485.246 1543.72,544.505 1545.72,595.668 1547.72,650.346 1549.71,691.186 1551.71,718.774 1553.71,769.621 1555.71,807.833 1557.7,845.868 1559.7,868.42 1561.7,895.726 1563.7,919.366 1565.7,951.738 1567.69,973.363 1569.69,1001.69 1571.69,1030.67 1573.69,1053.16 1575.68,1071.35 1577.68,1098.37 1579.68,1110.71 1581.68,1121.43 1583.67,1131.47 1585.67,1144.02 1587.67,1159.27 1589.67,1166.05 1591.66,1176.86 1593.66,1182.5 1595.66,1198.16 1597.66,1204.74 1599.65,1215.07 1601.65,1227.55 1603.65,1237.34 1605.65,1246.57 1607.65,1250.59 1609.64,1255.45 1611.64,1265.01 1613.64,1274.14 1615.64,1275.87 1617.63,1281.4 1619.63,1297.99 1621.63,1305.03 1623.63,1311.48 1625.62,1323.86 1627.62,1329.91 1629.62,1328.8 1631.62,1330.05 1633.61,1334.19 1635.61,1337.98 1637.61,1340.06 1639.61,1342.85 1641.6,1351.04 1643.6,1352.68 1645.6,1354.3 1647.6,1355.92 1649.6,1359.44 1651.59,1361.9 1653.59,1364 1655.59,1364.92 1657.59,1364.52 1659.58,1364.91 1661.58,1365.58 1663.58,1363.66 1665.58,1363.35 1667.57,1364.51 1669.57,1366.47 1671.57,1367.23 1673.57,1368.64 1675.56,1369.86 1677.56,1369.83 1679.56,1371.22 1681.56,1373.9 1683.55,1375.02 1685.55,1374.13 1687.55,1374.9 1689.55,1374.47 1691.54,1375.15 1693.54,1375.92 1695.54,1377.49 1697.54,1378.43 1699.54,1378.48 1701.53,1379.78 1703.53,1380.32 1705.53,1380.2 1707.53,1380.79 1709.52,1381.3 1711.52,1381.36 1713.52,1381.73 1715.52,1382.08 1717.51,1382.28 1719.51,1383 1721.51,1382.66 1723.51,1382.31 1725.5,1382.85 1727.5,1382.95 1729.5,1383.62 1731.5,1383.81 1733.49,1383.95 1735.49,1384.01 1737.49,1384.05 1739.49,1383.97 1741.49,1383.93 1743.48,1383.44 1745.48,1383.93 1747.48,1384.46 1749.48,1384.47 1751.47,1384.62 1753.47,1384.66 1755.47,1384.93 1757.47,1384.81 1759.46,1385.19 1761.46,1385.14 1763.46,1385.15 1765.46,1385.13 1767.45,1385.13 1769.45,1385.16 1771.45,1385.32 1773.45,1385.28 1775.44,1385.28 1777.44,1385.27 1779.44,1385.25 1781.44,1385.29 1783.44,1385.3 1785.43,1385.36 1787.43,1385.34 1789.43,1385.3 1791.43,1385.25 1793.42,1385.27 1795.42,1385.32 1797.42,1385.18 1799.42,1385.23 1801.41,1385.13 1803.41,1385.08 1805.41,1384.88 1807.41,1384.97 1809.4,1384.77 1811.4,1384.64 1813.4,1384.43 1815.4,1384.54 1817.39,1384.76 1819.39,1384.8 1821.39,1384.86 1823.39,1384.91 1825.39,1385 1827.38,1385.1 1829.38,1385.01 1831.38,1384.77 1833.38,1384.87 1835.37,1385.08 1837.37,1385.31 1839.37,1385.8 1841.37,1384.24 1843.36,1385.07 1845.36,1384.5 1847.36,1383.6 1849.36,1383.7 1851.35,1383.65 1853.35,1384.23 1855.35,1384.42 1857.35,1384.82 1859.34,1385.22 1861.34,1384.53 1863.34,1383.63 1865.34,1382.94 1867.34,1382.67 1869.33,1376.69 1871.33,1373.54 1873.33,1374.24 1875.33,1376.61 1877.32,1370.32 1879.32,1360.77 1881.32,1349.51 1883.32,1344.11 1885.31,1339.33 1887.31,1320.37 1889.31,1311.2 1891.31,1293.4 1893.3,1252.2 1895.3,1224.59 1897.3,1186.79 1899.3,1153.48 1901.29,1120.12 1903.29,1078.94 1905.29,1038.52 1907.29,981.328 1909.29,960.839 1911.28,904.034 1913.28,874.32 1915.28,835.02 1917.28,799.726 1919.27,780.758 1921.27,765.013 1923.27,723.107 1925.27,683.722 1927.26,656.738 1929.26,616.066 1931.26,583.098 1933.26,562.385 1935.25,562.15 1937.25,560.491 1939.25,518.014 1941.25,509.684 1943.24,485.472 1945.24,472.724 1947.24,437.562 1949.24,416.384 1951.24,402.004 1953.23,388.676 1955.23,384.624 1957.23,362.018 1959.23,358.373 1961.22,398.798 1963.22,402.508 1965.22,404.397 1967.22,399.231 1969.21,371.691 1971.21,343.195 1973.21,323.408 1975.21,338.472 1977.2,349.005 1979.2,324.58 1981.2,324.322 1983.2,315.458 1985.19,304.159 1987.19,283.433 1989.19,296.769 1991.19,267.904 1993.19,244.092 1995.18,253.896 1997.18,239.253 1999.18,228.348 2001.18,210.915 2003.17,215.915 2005.17,236.643 2007.17,246.621 2009.17,252.59 2011.16,255.723 2013.16,261.44 2015.16,251.275 2017.16,250.312 2019.15,258.763 2021.15,225.879 2023.15,220.946 2025.15,222.288 2027.14,281.91 2029.14,340.067 2031.14,411.639 2033.14,462.681 2035.13,521.028 2037.13,563.9 2039.13,616.001 2041.13,648.028 2043.13,692.438 2045.12,741.941 2047.12,765.615 2049.12,808.651 2051.12,848.021 2053.11,895.043 2055.11,930.671 2057.11,953.1 2059.11,977.356 2061.1,997.158 2063.1,1011.44 2065.1,1032.33 2067.1,1045.16 2069.09,1061.8 2071.09,1076.61 2073.09,1093.62 2075.09,1112.79 2077.08,1128.02 2079.08,1137.21 2081.08,1157.92 2083.08,1174.01 2085.08,1185.61 2087.07,1192.19 2089.07,1198.7 2091.07,1205.68 2093.07,1216.52 2095.06,1225.21 2097.06,1227.09 2099.06,1244.75 2101.06,1255.95 2103.05,1262.17 2105.05,1270.04 2107.05,1280.11 2109.05,1284.89 2111.04,1296.46 2113.04,1306.05 2115.04,1306.11 2117.04,1314.58 2119.03,1316 2121.03,1319.42 2123.03,1326.78 2125.03,1333.45 2127.03,1337.1 2129.02,1338.75 2131.02,1339.62 2133.02,1341.16 2135.02,1340.08 2137.01,1340.92 2139.01,1342.85 2141.01,1348.36 2143.01,1349.01 2145,1350.63 2147,1355.76 2149,1355.48 2151,1355.97 2152.99,1356.15 2154.99,1357.63 2156.99,1358.11 2158.99,1358.32 2160.98,1360.13 2162.98,1360.12 2164.98,1365.72 2166.98,1367.22 2168.98,1368.83 2170.97,1368.67 2172.97,1369.08 2174.97,1371.26 2176.97,1372.2 2178.96,1374.81 2180.96,1374.65 2182.96,1375.67 2184.96,1377.24 2186.95,1378.18 2188.95,1378.08 2190.95,1379.79 2192.95,1380.18 2194.94,1380.58 2196.94,1380.41 2198.94,1380.82 2200.94,1381 2202.93,1381.19 2204.93,1381.13 2206.93,1380.99 2208.93,1380.92 2210.93,1381.27 2212.92,1381.71 2214.92,1382.94 2216.92,1382.98 2218.92,1382.74 2220.91,1383.05 2222.91,1382.64 2224.91,1383.39 2226.91,1383.03 2228.9,1383.19 2230.9,1383.44 2232.9,1383.68 2234.9,1383.51 2236.89,1383.6 2238.89,1383.94 2240.89,1384.02 2242.89,1383.76 2244.88,1383.82 2246.88,1384.3 2248.88,1384.4 2250.88,1384.88 2252.88,1384.73 2254.87,1384.87 2256.87,1384.87 2258.87,1384.94 2260.87,1385.01 2262.86,1385.01 2264.86,1385.24 2266.86,1385.27 2268.86,1385.25 2270.85,1385.25 2272.85,1385.17 2274.85,1385.29 2276.85,1385.28 2278.84,1385.28 2280.84,1385.27 2282.84,1385.27 2284.84,1385.3 2286.83,1385.29 2288.83,1385.27 2290.83,1385.3 2292.83,1385.23 "></polyline>
</svg>