<svg xmlns="http://www.w3.org/2000/svg" xmlns:xlink="http://www.w3.org/1999/xlink" width="600" height="400" viewBox="0 0 2400 1600">
<defs>
  <clipPath id="clip160">
    <rect x="0" y="0" width="2400" height="1600"></rect>
  </clipPath>
</defs>
<path clip-path="url(#clip160)" d="M0 1600 L2400 1600 L2400 8.88178e-14 L0 8.88178e-14  Z" fill="#ffffff" fill-rule="evenodd" fill-opacity="1"></path>
<defs>
  <clipPath id="clip161">
    <rect x="480" y="0" width="1681" height="1600"></rect>
  </clipPath>
</defs>
<path clip-path="url(#clip160)" d="M235.283 1423.18 L2352.76 1423.18 L2352.76 123.472 L235.283 123.472  Z" fill="#ffffff" fill-rule="evenodd" fill-opacity="1"></path>
<defs>
  <clipPath id="clip162">
    <rect x="235" y="123" width="2118" height="1301"></rect>
  </clipPath>
</defs>
<polyline clip-path="url(#clip162)" style="stroke:#000000; stroke-linecap:round; stroke-linejoin:round; stroke-width:2; stroke-opacity:0.1; fill:none" points="293.214,1423.18 293.214,123.472 "></polyline>
<polyline clip-path="url(#clip162)" style="stroke:#000000; stroke-linecap:round; stroke-linejoin:round; stroke-width:2; stroke-opacity:0.1; fill:none" points="792.618,1423.18 792.618,123.472 "></polyline>
<polyline clip-path="url(#clip162)" style="stroke:#000000; stroke-linecap:round; stroke-linejoin:round; stroke-width:2; stroke-opacity:0.1; fill:none" points="1292.02,1423.18 1292.02,123.472 "></polyline>
<polyline clip-path="url(#clip162)" style="stroke:#000000; stroke-linecap:round; stroke-linejoin:round; stroke-width:2; stroke-opacity:0.1; fill:none" points="1791.43,1423.18 1791.43,123.472 "></polyline>
<polyline clip-path="url(#clip162)" style="stroke:#000000; stroke-linecap:round; stroke-linejoin:round; stroke-width:2; stroke-opacity:0.1; fill:none" points="2290.83,1423.18 2290.83,123.472 "></polyline>
<polyline clip-path="url(#clip162)" style="stroke:#000000; stroke-linecap:round; stroke-linejoin:round; stroke-width:2; stroke-opacity:0.1; fill:none" points="235.283,1381.35 2352.76,1381.35 "></polyline>
<polyline clip-path="url(#clip162)" style="stroke:#000000; stroke-linecap:round; stroke-linejoin:round; stroke-width:2; stroke-opacity:0.1; fill:none" points="235.283,1070.66 2352.76,1070.66 "></polyline>
<polyline clip-path="url(#clip162)" style="stroke:#000000; stroke-linecap:round; stroke-linejoin:round; stroke-width:2; stroke-opacity:0.1; fill:none" points="235.283,759.962 2352.76,759.962 "></polyline>
<polyline clip-path="url(#clip162)" style="stroke:#000000; stroke-linecap:round; stroke-linejoin:round; stroke-width:2; stroke-opacity:0.1; fill:none" points="235.283,449.267 2352.76,449.267 "></polyline>
<polyline clip-path="url(#clip162)" style="stroke:#000000; stroke-linecap:round; stroke-linejoin:round; stroke-width:2; stroke-opacity:0.1; fill:none" points="235.283,138.573 2352.76,138.573 "></polyline>
<polyline clip-path="url(#clip160)" style="stroke:#000000; stroke-linecap:round; stroke-linejoin:round; stroke-width:4; stroke-opacity:1; fill:none" points="235.283,1423.18 2352.76,1423.18 "></polyline>
<polyline clip-path="url(#clip160)" style="stroke:#000000; stroke-linecap:round; stroke-linejoin:round; stroke-width:4; stroke-opacity:1; fill:none" points="293.214,1423.18 293.214,1404.28 "></polyline>
<polyline clip-path="url(#clip160)" style="stroke:#000000; stroke-linecap:round; stroke-linejoin:round; stroke-width:4; stroke-opacity:1; fill:none" points="792.618,1423.18 792.618,1404.28 "></polyline>
<polyline clip-path="url(#clip160)" style="stroke:#000000; stroke-linecap:round; stroke-linejoin:round; stroke-width:4; stroke-opacity:1; fill:none" points="1292.02,1423.18 1292.02,1404.28 "></polyline>
<polyline clip-path="url(#clip160)" style="stroke:#000000; stroke-linecap:round; stroke-linejoin:round; stroke-width:4; stroke-opacity:1; fill:none" points="1791.43,1423.18 1791.43,1404.28 "></polyline>
<polyline clip-path="url(#clip160)" style="stroke:#000000; stroke-linecap:round; stroke-linejoin:round; stroke-width:4; stroke-opacity:1; fill:none" points="2290.83,1423.18 2290.83,1404.28 "></polyline>
<path clip-path="url(#clip160)" d="M293.214 1454.1 Q289.603 1454.1 287.774 1457.66 Q285.968 1461.2 285.968 1468.33 Q285.968 1475.44 287.774 1479.01 Q289.603 1482.55 293.214 1482.55 Q296.848 1482.55 298.654 1479.01 Q300.482 1475.44 300.482 1468.33 Q300.482 1461.2 298.654 1457.66 Q296.848 1454.1 293.214 1454.1 M293.214 1450.39 Q299.024 1450.39 302.079 1455 Q305.158 1459.58 305.158 1468.33 Q305.158 1477.06 302.079 1481.67 Q299.024 1486.25 293.214 1486.25 Q287.404 1486.25 284.325 1481.67 Q281.269 1477.06 281.269 1468.33 Q281.269 1459.58 284.325 1455 Q287.404 1450.39 293.214 1450.39 Z" fill="#000000" fill-rule="nonzero" fill-opacity="1"></path><path clip-path="url(#clip160)" d="M756.31 1481.64 L772.629 1481.64 L772.629 1485.58 L750.685 1485.58 L750.685 1481.64 Q753.347 1478.89 757.93 1474.26 Q762.537 1469.61 763.717 1468.27 Q765.963 1465.74 766.842 1464.01 Q767.745 1462.25 767.745 1460.56 Q767.745 1457.8 765.801 1456.07 Q763.879 1454.33 760.778 1454.33 Q758.579 1454.33 756.125 1455.09 Q753.694 1455.86 750.917 1457.41 L750.917 1452.69 Q753.741 1451.55 756.194 1450.97 Q758.648 1450.39 760.685 1450.39 Q766.055 1450.39 769.25 1453.08 Q772.444 1455.77 772.444 1460.26 Q772.444 1462.39 771.634 1464.31 Q770.847 1466.2 768.741 1468.8 Q768.162 1469.47 765.06 1472.69 Q761.958 1475.88 756.31 1481.64 Z" fill="#000000" fill-rule="nonzero" fill-opacity="1"></path><path clip-path="url(#clip160)" d="M782.49 1451.02 L800.847 1451.02 L800.847 1454.96 L786.773 1454.96 L786.773 1463.43 Q787.791 1463.08 788.81 1462.92 Q789.828 1462.73 790.847 1462.73 Q796.634 1462.73 800.014 1465.9 Q803.393 1469.08 803.393 1474.49 Q803.393 1480.07 799.921 1483.17 Q796.449 1486.25 790.129 1486.25 Q787.953 1486.25 785.685 1485.88 Q783.44 1485.51 781.032 1484.77 L781.032 1480.07 Q783.115 1481.2 785.338 1481.76 Q787.56 1482.32 790.037 1482.32 Q794.041 1482.32 796.379 1480.21 Q798.717 1478.1 798.717 1474.49 Q798.717 1470.88 796.379 1468.77 Q794.041 1466.67 790.037 1466.67 Q788.162 1466.67 786.287 1467.08 Q784.435 1467.5 782.49 1468.38 L782.49 1451.02 Z" fill="#000000" fill-rule="nonzero" fill-opacity="1"></path><path clip-path="url(#clip160)" d="M822.606 1454.1 Q818.995 1454.1 817.166 1457.66 Q815.361 1461.2 815.361 1468.33 Q815.361 1475.44 817.166 1479.01 Q818.995 1482.55 822.606 1482.55 Q826.24 1482.55 828.046 1479.01 Q829.874 1475.44 829.874 1468.33 Q829.874 1461.2 828.046 1457.66 Q826.24 1454.1 822.606 1454.1 M822.606 1450.39 Q828.416 1450.39 831.472 1455 Q834.55 1459.58 834.55 1468.33 Q834.55 1477.06 831.472 1481.67 Q828.416 1486.25 822.606 1486.25 Q816.796 1486.25 813.717 1481.67 Q810.662 1477.06 810.662 1468.33 Q810.662 1459.58 813.717 1455 Q816.796 1450.39 822.606 1450.39 Z" fill="#000000" fill-rule="nonzero" fill-opacity="1"></path><path clip-path="url(#clip160)" d="M1251.64 1451.02 L1270 1451.02 L1270 1454.96 L1255.92 1454.96 L1255.92 1463.43 Q1256.94 1463.08 1257.96 1462.92 Q1258.98 1462.73 1260 1462.73 Q1265.78 1462.73 1269.16 1465.9 Q1272.54 1469.08 1272.54 1474.49 Q1272.54 1480.07 1269.07 1483.17 Q1265.6 1486.25 1259.28 1486.25 Q1257.1 1486.25 1254.83 1485.88 Q1252.59 1485.51 1250.18 1484.77 L1250.18 1480.07 Q1252.27 1481.2 1254.49 1481.76 Q1256.71 1482.32 1259.19 1482.32 Q1263.19 1482.32 1265.53 1480.21 Q1267.87 1478.1 1267.87 1474.49 Q1267.87 1470.88 1265.53 1468.77 Q1263.19 1466.67 1259.19 1466.67 Q1257.31 1466.67 1255.44 1467.08 Q1253.58 1467.5 1251.64 1468.38 L1251.64 1451.02 Z" fill="#000000" fill-rule="nonzero" fill-opacity="1"></path><path clip-path="url(#clip160)" d="M1291.76 1454.1 Q1288.14 1454.1 1286.32 1457.66 Q1284.51 1461.2 1284.51 1468.33 Q1284.51 1475.44 1286.32 1479.01 Q1288.14 1482.55 1291.76 1482.55 Q1295.39 1482.55 1297.2 1479.01 Q1299.02 1475.44 1299.02 1468.33 Q1299.02 1461.2 1297.2 1457.66 Q1295.39 1454.1 1291.76 1454.1 M1291.76 1450.39 Q1297.57 1450.39 1300.62 1455 Q1303.7 1459.58 1303.7 1468.33 Q1303.7 1477.06 1300.62 1481.67 Q1297.57 1486.25 1291.76 1486.25 Q1285.95 1486.25 1282.87 1481.67 Q1279.81 1477.06 1279.81 1468.33 Q1279.81 1459.58 1282.87 1455 Q1285.95 1450.39 1291.76 1450.39 Z" fill="#000000" fill-rule="nonzero" fill-opacity="1"></path><path clip-path="url(#clip160)" d="M1321.92 1454.1 Q1318.31 1454.1 1316.48 1457.66 Q1314.67 1461.2 1314.67 1468.33 Q1314.67 1475.44 1316.48 1479.01 Q1318.31 1482.55 1321.92 1482.55 Q1325.55 1482.55 1327.36 1479.01 Q1329.19 1475.44 1329.19 1468.33 Q1329.19 1461.2 1327.36 1457.66 Q1325.55 1454.1 1321.92 1454.1 M1321.92 1450.39 Q1327.73 1450.39 1330.78 1455 Q1333.86 1459.58 1333.86 1468.33 Q1333.86 1477.06 1330.78 1481.67 Q1327.73 1486.25 1321.92 1486.25 Q1316.11 1486.25 1313.03 1481.67 Q1309.97 1477.06 1309.97 1468.33 Q1309.97 1459.58 1313.03 1455 Q1316.11 1450.39 1321.92 1450.39 Z" fill="#000000" fill-rule="nonzero" fill-opacity="1"></path><path clip-path="url(#clip160)" d="M1749.7 1451.02 L1771.92 1451.02 L1771.92 1453.01 L1759.38 1485.58 L1754.49 1485.58 L1766.3 1454.96 L1749.7 1454.96 L1749.7 1451.02 Z" fill="#000000" fill-rule="nonzero" fill-opacity="1"></path><path clip-path="url(#clip160)" d="M1781.09 1451.02 L1799.45 1451.02 L1799.45 1454.96 L1785.37 1454.96 L1785.37 1463.43 Q1786.39 1463.08 1787.41 1462.92 Q1788.43 1462.73 1789.45 1462.73 Q1795.23 1462.73 1798.61 1465.9 Q1801.99 1469.08 1801.99 1474.49 Q1801.99 1480.07 1798.52 1483.17 Q1795.05 1486.25 1788.73 1486.25 Q1786.55 1486.25 1784.28 1485.88 Q1782.04 1485.51 1779.63 1484.77 L1779.63 1480.07 Q1781.72 1481.2 1783.94 1481.76 Q1786.16 1482.32 1788.64 1482.32 Q1792.64 1482.32 1794.98 1480.21 Q1797.32 1478.1 1797.32 1474.49 Q1797.32 1470.88 1794.98 1468.77 Q1792.64 1466.67 1788.64 1466.67 Q1786.76 1466.67 1784.89 1467.08 Q1783.03 1467.5 1781.09 1468.38 L1781.09 1451.02 Z" fill="#000000" fill-rule="nonzero" fill-opacity="1"></path><path clip-path="url(#clip160)" d="M1821.21 1454.1 Q1817.59 1454.1 1815.77 1457.66 Q1813.96 1461.2 1813.96 1468.33 Q1813.96 1475.44 1815.77 1479.01 Q1817.59 1482.55 1821.21 1482.55 Q1824.84 1482.55 1826.65 1479.01 Q1828.47 1475.44 1828.47 1468.33 Q1828.47 1461.2 1826.65 1457.66 Q1824.84 1454.1 1821.21 1454.1 M1821.21 1450.39 Q1827.02 1450.39 1830.07 1455 Q1833.15 1459.58 1833.15 1468.33 Q1833.15 1477.06 1830.07 1481.67 Q1827.02 1486.25 1821.21 1486.25 Q1815.4 1486.25 1812.32 1481.67 Q1809.26 1477.06 1809.26 1468.33 Q1809.26 1459.58 1812.32 1455 Q1815.4 1450.39 1821.21 1450.39 Z" fill="#000000" fill-rule="nonzero" fill-opacity="1"></path><path clip-path="url(#clip160)" d="M2235.36 1481.64 L2242.99 1481.64 L2242.99 1455.28 L2234.68 1456.95 L2234.68 1452.69 L2242.95 1451.02 L2247.62 1451.02 L2247.62 1481.64 L2255.26 1481.64 L2255.26 1485.58 L2235.36 1485.58 L2235.36 1481.64 Z" fill="#000000" fill-rule="nonzero" fill-opacity="1"></path><path clip-path="url(#clip160)" d="M2274.71 1454.1 Q2271.1 1454.1 2269.27 1457.66 Q2267.46 1461.2 2267.46 1468.33 Q2267.46 1475.44 2269.27 1479.01 Q2271.1 1482.55 2274.71 1482.55 Q2278.34 1482.55 2280.15 1479.01 Q2281.98 1475.44 2281.98 1468.33 Q2281.98 1461.2 2280.15 1457.66 Q2278.34 1454.1 2274.71 1454.1 M2274.71 1450.39 Q2280.52 1450.39 2283.57 1455 Q2286.65 1459.58 2286.65 1468.33 Q2286.65 1477.06 2283.57 1481.67 Q2280.52 1486.25 2274.71 1486.25 Q2268.9 1486.25 2265.82 1481.67 Q2262.76 1477.06 2262.76 1468.33 Q2262.76 1459.58 2265.82 1455 Q2268.9 1450.39 2274.71 1450.39 Z" fill="#000000" fill-rule="nonzero" fill-opacity="1"></path><path clip-path="url(#clip160)" d="M2304.87 1454.1 Q2301.26 1454.1 2299.43 1457.66 Q2297.62 1461.2 2297.62 1468.33 Q2297.62 1475.44 2299.43 1479.01 Q2301.26 1482.55 2304.87 1482.55 Q2308.5 1482.55 2310.31 1479.01 Q2312.14 1475.44 2312.14 1468.33 Q2312.14 1461.2 2310.31 1457.66 Q2308.5 1454.1 2304.87 1454.1 M2304.87 1450.39 Q2310.68 1450.39 2313.73 1455 Q2316.81 1459.58 2316.81 1468.33 Q2316.81 1477.06 2313.73 1481.67 Q2310.68 1486.25 2304.87 1486.25 Q2299.06 1486.25 2295.98 1481.67 Q2292.92 1477.06 2292.92 1468.33 Q2292.92 1459.58 2295.98 1455 Q2299.06 1450.39 2304.87 1450.39 Z" fill="#000000" fill-rule="nonzero" fill-opacity="1"></path><path clip-path="url(#clip160)" d="M2335.03 1454.1 Q2331.42 1454.1 2329.59 1457.66 Q2327.79 1461.2 2327.79 1468.33 Q2327.79 1475.44 2329.59 1479.01 Q2331.42 1482.55 2335.03 1482.55 Q2338.67 1482.55 2340.47 1479.01 Q2342.3 1475.44 2342.3 1468.33 Q2342.3 1461.2 2340.47 1457.66 Q2338.67 1454.1 2335.03 1454.1 M2335.03 1450.39 Q2340.84 1450.39 2343.9 1455 Q2346.98 1459.58 2346.98 1468.33 Q2346.98 1477.06 2343.9 1481.67 Q2340.84 1486.25 2335.03 1486.25 Q2329.22 1486.25 2326.14 1481.67 Q2323.09 1477.06 2323.09 1468.33 Q2323.09 1459.58 2326.14 1455 Q2329.22 1450.39 2335.03 1450.39 Z" fill="#000000" fill-rule="nonzero" fill-opacity="1"></path><path clip-path="url(#clip160)" d="M1233.18 1522.27 L1233.18 1532.4 L1245.24 1532.4 L1245.24 1536.95 L1233.18 1536.95 L1233.18 1556.3 Q1233.18 1560.66 1234.36 1561.9 Q1235.57 1563.14 1239.23 1563.14 L1245.24 1563.14 L1245.24 1568.04 L1239.23 1568.04 Q1232.45 1568.04 1229.87 1565.53 Q1227.29 1562.98 1227.29 1556.3 L1227.29 1536.95 L1222.99 1536.95 L1222.99 1532.4 L1227.29 1532.4 L1227.29 1522.27 L1233.18 1522.27 Z" fill="#000000" fill-rule="nonzero" fill-opacity="1"></path><path clip-path="url(#clip160)" d="M1252.94 1532.4 L1258.8 1532.4 L1258.8 1568.04 L1252.94 1568.04 L1252.94 1532.4 M1252.94 1518.52 L1258.8 1518.52 L1258.8 1525.93 L1252.94 1525.93 L1252.94 1518.52 Z" fill="#000000" fill-rule="nonzero" fill-opacity="1"></path><path clip-path="url(#clip160)" d="M1298.81 1539.24 Q1301.01 1535.29 1304.06 1533.41 Q1307.12 1531.54 1311.25 1531.54 Q1316.82 1531.54 1319.85 1535.45 Q1322.87 1539.33 1322.87 1546.53 L1322.87 1568.04 L1316.98 1568.04 L1316.98 1546.72 Q1316.98 1541.59 1315.17 1539.11 Q1313.36 1536.63 1309.63 1536.63 Q1305.08 1536.63 1302.44 1539.65 Q1299.8 1542.68 1299.8 1547.9 L1299.8 1568.04 L1293.91 1568.04 L1293.91 1546.72 Q1293.91 1541.56 1292.09 1539.11 Q1290.28 1536.63 1286.49 1536.63 Q1282 1536.63 1279.36 1539.68 Q1276.72 1542.71 1276.72 1547.9 L1276.72 1568.04 L1270.83 1568.04 L1270.83 1532.4 L1276.72 1532.4 L1276.72 1537.93 Q1278.73 1534.66 1281.53 1533.1 Q1284.33 1531.54 1288.18 1531.54 Q1292.06 1531.54 1294.77 1533.51 Q1297.5 1535.48 1298.81 1539.24 Z" fill="#000000" fill-rule="nonzero" fill-opacity="1"></path><path clip-path="url(#clip160)" d="M1365.04 1548.76 L1365.04 1551.62 L1338.12 1551.62 Q1338.5 1557.67 1341.75 1560.85 Q1345.02 1564 1350.85 1564 Q1354.22 1564 1357.37 1563.17 Q1360.56 1562.35 1363.68 1560.69 L1363.68 1566.23 Q1360.53 1567.57 1357.21 1568.27 Q1353.9 1568.97 1350.5 1568.97 Q1341.97 1568.97 1336.97 1564 Q1332.01 1559.04 1332.01 1550.57 Q1332.01 1541.82 1336.72 1536.69 Q1341.46 1531.54 1349.48 1531.54 Q1356.67 1531.54 1360.84 1536.18 Q1365.04 1540.8 1365.04 1548.76 M1359.19 1547.04 Q1359.12 1542.23 1356.48 1539.37 Q1353.87 1536.5 1349.54 1536.5 Q1344.64 1536.5 1341.68 1539.27 Q1338.75 1542.04 1338.31 1547.07 L1359.19 1547.04 Z" fill="#000000" fill-rule="nonzero" fill-opacity="1"></path><polyline clip-path="url(#clip160)" style="stroke:#000000; stroke-linecap:round; stroke-linejoin:round; stroke-width:4; stroke-opacity:1; fill:none" points="235.283,1423.18 235.283,123.472 "></polyline>
<polyline clip-path="url(#clip160)" style="stroke:#000000; stroke-linecap:round; stroke-linejoin:round; stroke-width:4; stroke-opacity:1; fill:none" points="235.283,1381.35 254.18,1381.35 "></polyline>
<polyline clip-path="url(#clip160)" style="stroke:#000000; stroke-linecap:round; stroke-linejoin:round; stroke-width:4; stroke-opacity:1; fill:none" points="235.283,1070.66 254.18,1070.66 "></polyline>
<polyline clip-path="url(#clip160)" style="stroke:#000000; stroke-linecap:round; stroke-linejoin:round; stroke-width:4; stroke-opacity:1; fill:none" points="235.283,759.962 254.18,759.962 "></polyline>
<polyline clip-path="url(#clip160)" style="stroke:#000000; stroke-linecap:round; stroke-linejoin:round; stroke-width:4; stroke-opacity:1; fill:none" points="235.283,449.267 254.18,449.267 "></polyline>
<polyline clip-path="url(#clip160)" style="stroke:#000000; stroke-linecap:round; stroke-linejoin:round; stroke-width:4; stroke-opacity:1; fill:none" points="235.283,138.573 254.18,138.573 "></polyline>
<path clip-path="url(#clip160)" d="M187.338 1367.15 Q183.727 1367.15 181.899 1370.71 Q180.093 1374.26 180.093 1381.38 Q180.093 1388.49 181.899 1392.06 Q183.727 1395.6 187.338 1395.6 Q190.973 1395.6 192.778 1392.06 Q194.607 1388.49 194.607 1381.38 Q194.607 1374.26 192.778 1370.71 Q190.973 1367.15 187.338 1367.15 M187.338 1363.45 Q193.149 1363.45 196.204 1368.05 Q199.283 1372.64 199.283 1381.38 Q199.283 1390.11 196.204 1394.72 Q193.149 1399.3 187.338 1399.3 Q181.528 1399.3 178.45 1394.72 Q175.394 1390.11 175.394 1381.38 Q175.394 1372.64 178.45 1368.05 Q181.528 1363.45 187.338 1363.45 Z" fill="#000000" fill-rule="nonzero" fill-opacity="1"></path><path clip-path="url(#clip160)" d="M117.825 1084 L125.464 1084 L125.464 1057.64 L117.154 1059.3 L117.154 1055.04 L125.418 1053.38 L130.093 1053.38 L130.093 1084 L137.732 1084 L137.732 1087.94 L117.825 1087.94 L117.825 1084 Z" fill="#000000" fill-rule="nonzero" fill-opacity="1"></path><path clip-path="url(#clip160)" d="M157.177 1056.45 Q153.566 1056.45 151.737 1060.02 Q149.931 1063.56 149.931 1070.69 Q149.931 1077.8 151.737 1081.36 Q153.566 1084.9 157.177 1084.9 Q160.811 1084.9 162.616 1081.36 Q164.445 1077.8 164.445 1070.69 Q164.445 1063.56 162.616 1060.02 Q160.811 1056.45 157.177 1056.45 M157.177 1052.75 Q162.987 1052.75 166.042 1057.36 Q169.121 1061.94 169.121 1070.69 Q169.121 1079.42 166.042 1084.02 Q162.987 1088.61 157.177 1088.61 Q151.366 1088.61 148.288 1084.02 Q145.232 1079.42 145.232 1070.69 Q145.232 1061.94 148.288 1057.36 Q151.366 1052.75 157.177 1052.75 Z" fill="#000000" fill-rule="nonzero" fill-opacity="1"></path><path clip-path="url(#clip160)" d="M187.338 1056.45 Q183.727 1056.45 181.899 1060.02 Q180.093 1063.56 180.093 1070.69 Q180.093 1077.8 181.899 1081.36 Q183.727 1084.9 187.338 1084.9 Q190.973 1084.9 192.778 1081.36 Q194.607 1077.8 194.607 1070.69 Q194.607 1063.56 192.778 1060.02 Q190.973 1056.45 187.338 1056.45 M187.338 1052.75 Q193.149 1052.75 196.204 1057.36 Q199.283 1061.94 199.283 1070.69 Q199.283 1079.42 196.204 1084.02 Q193.149 1088.61 187.338 1088.61 Q181.528 1088.61 178.45 1084.02 Q175.394 1079.42 175.394 1070.69 Q175.394 1061.94 178.45 1057.36 Q181.528 1052.75 187.338 1052.75 Z" fill="#000000" fill-rule="nonzero" fill-opacity="1"></path><path clip-path="url(#clip160)" d="M121.043 773.307 L137.362 773.307 L137.362 777.242 L115.418 777.242 L115.418 773.307 Q118.08 770.552 122.663 765.922 Q127.269 761.27 128.45 759.927 Q130.695 757.404 131.575 755.668 Q132.478 753.908 132.478 752.219 Q132.478 749.464 130.533 747.728 Q128.612 745.992 125.51 745.992 Q123.311 745.992 120.857 746.756 Q118.427 747.52 115.649 749.071 L115.649 744.348 Q118.473 743.214 120.927 742.635 Q123.38 742.057 125.418 742.057 Q130.788 742.057 133.982 744.742 Q137.177 747.427 137.177 751.918 Q137.177 754.047 136.367 755.969 Q135.579 757.867 133.473 760.459 Q132.894 761.131 129.792 764.348 Q126.691 767.543 121.043 773.307 Z" fill="#000000" fill-rule="nonzero" fill-opacity="1"></path><path clip-path="url(#clip160)" d="M157.177 745.76 Q153.566 745.76 151.737 749.325 Q149.931 752.867 149.931 759.996 Q149.931 767.103 151.737 770.668 Q153.566 774.209 157.177 774.209 Q160.811 774.209 162.616 770.668 Q164.445 767.103 164.445 759.996 Q164.445 752.867 162.616 749.325 Q160.811 745.76 157.177 745.76 M157.177 742.057 Q162.987 742.057 166.042 746.663 Q169.121 751.246 169.121 759.996 Q169.121 768.723 166.042 773.33 Q162.987 777.913 157.177 777.913 Q151.366 777.913 148.288 773.33 Q145.232 768.723 145.232 759.996 Q145.232 751.246 148.288 746.663 Q151.366 742.057 157.177 742.057 Z" fill="#000000" fill-rule="nonzero" fill-opacity="1"></path><path clip-path="url(#clip160)" d="M187.338 745.76 Q183.727 745.76 181.899 749.325 Q180.093 752.867 180.093 759.996 Q180.093 767.103 181.899 770.668 Q183.727 774.209 187.338 774.209 Q190.973 774.209 192.778 770.668 Q194.607 767.103 194.607 759.996 Q194.607 752.867 192.778 749.325 Q190.973 745.76 187.338 745.76 M187.338 742.057 Q193.149 742.057 196.204 746.663 Q199.283 751.246 199.283 759.996 Q199.283 768.723 196.204 773.33 Q193.149 777.913 187.338 777.913 Q181.528 777.913 178.45 773.33 Q175.394 768.723 175.394 759.996 Q175.394 751.246 178.45 746.663 Q181.528 742.057 187.338 742.057 Z" fill="#000000" fill-rule="nonzero" fill-opacity="1"></path><path clip-path="url(#clip160)" d="M131.181 447.913 Q134.538 448.631 136.413 450.899 Q138.311 453.168 138.311 456.501 Q138.311 461.617 134.792 464.418 Q131.274 467.219 124.793 467.219 Q122.617 467.219 120.302 466.779 Q118.01 466.362 115.556 465.506 L115.556 460.992 Q117.501 462.126 119.816 462.705 Q122.13 463.284 124.654 463.284 Q129.052 463.284 131.343 461.547 Q133.658 459.811 133.658 456.501 Q133.658 453.446 131.505 451.733 Q129.376 449.997 125.556 449.997 L121.529 449.997 L121.529 446.154 L125.742 446.154 Q129.191 446.154 131.019 444.788 Q132.848 443.399 132.848 440.807 Q132.848 438.145 130.95 436.733 Q129.075 435.298 125.556 435.298 Q123.635 435.298 121.436 435.714 Q119.237 436.131 116.598 437.011 L116.598 432.844 Q119.26 432.103 121.575 431.733 Q123.913 431.362 125.973 431.362 Q131.297 431.362 134.399 433.793 Q137.501 436.2 137.501 440.321 Q137.501 443.191 135.857 445.182 Q134.214 447.149 131.181 447.913 Z" fill="#000000" fill-rule="nonzero" fill-opacity="1"></path><path clip-path="url(#clip160)" d="M157.177 435.066 Q153.566 435.066 151.737 438.631 Q149.931 442.173 149.931 449.302 Q149.931 456.409 151.737 459.973 Q153.566 463.515 157.177 463.515 Q160.811 463.515 162.616 459.973 Q164.445 456.409 164.445 449.302 Q164.445 442.173 162.616 438.631 Q160.811 435.066 157.177 435.066 M157.177 431.362 Q162.987 431.362 166.042 435.969 Q169.121 440.552 169.121 449.302 Q169.121 458.029 166.042 462.635 Q162.987 467.219 157.177 467.219 Q151.366 467.219 148.288 462.635 Q145.232 458.029 145.232 449.302 Q145.232 440.552 148.288 435.969 Q151.366 431.362 157.177 431.362 Z" fill="#000000" fill-rule="nonzero" fill-opacity="1"></path><path clip-path="url(#clip160)" d="M187.338 435.066 Q183.727 435.066 181.899 438.631 Q180.093 442.173 180.093 449.302 Q180.093 456.409 181.899 459.973 Q183.727 463.515 187.338 463.515 Q190.973 463.515 192.778 459.973 Q194.607 456.409 194.607 449.302 Q194.607 442.173 192.778 438.631 Q190.973 435.066 187.338 435.066 M187.338 431.362 Q193.149 431.362 196.204 435.969 Q199.283 440.552 199.283 449.302 Q199.283 458.029 196.204 462.635 Q193.149 467.219 187.338 467.219 Q181.528 467.219 178.45 462.635 Q175.394 458.029 175.394 449.302 Q175.394 440.552 178.45 435.969 Q181.528 431.362 187.338 431.362 Z" fill="#000000" fill-rule="nonzero" fill-opacity="1"></path><path clip-path="url(#clip160)" d="M129.862 125.367 L118.056 143.816 L129.862 143.816 L129.862 125.367 M128.635 121.293 L134.515 121.293 L134.515 143.816 L139.445 143.816 L139.445 147.705 L134.515 147.705 L134.515 155.853 L129.862 155.853 L129.862 147.705 L114.26 147.705 L114.26 143.191 L128.635 121.293 Z" fill="#000000" fill-rule="nonzero" fill-opacity="1"></path><path clip-path="url(#clip160)" d="M157.177 124.372 Q153.566 124.372 151.737 127.937 Q149.931 131.478 149.931 138.608 Q149.931 145.714 151.737 149.279 Q153.566 152.821 157.177 152.821 Q160.811 152.821 162.616 149.279 Q164.445 145.714 164.445 138.608 Q164.445 131.478 162.616 127.937 Q160.811 124.372 157.177 124.372 M157.177 120.668 Q162.987 120.668 166.042 125.275 Q169.121 129.858 169.121 138.608 Q169.121 147.335 166.042 151.941 Q162.987 156.524 157.177 156.524 Q151.366 156.524 148.288 151.941 Q145.232 147.335 145.232 138.608 Q145.232 129.858 148.288 125.275 Q151.366 120.668 157.177 120.668 Z" fill="#000000" fill-rule="nonzero" fill-opacity="1"></path><path clip-path="url(#clip160)" d="M187.338 124.372 Q183.727 124.372 181.899 127.937 Q180.093 131.478 180.093 138.608 Q180.093 145.714 181.899 149.279 Q183.727 152.821 187.338 152.821 Q190.973 152.821 192.778 149.279 Q194.607 145.714 194.607 138.608 Q194.607 131.478 192.778 127.937 Q190.973 124.372 187.338 124.372 M187.338 120.668 Q193.149 120.668 196.204 125.275 Q199.283 129.858 199.283 138.608 Q199.283 147.335 196.204 151.941 Q193.149 156.524 187.338 156.524 Q181.528 156.524 178.45 151.941 Q175.394 147.335 175.394 138.608 Q175.394 129.858 178.45 125.275 Q181.528 120.668 187.338 120.668 Z" fill="#000000" fill-rule="nonzero" fill-opacity="1"></path><path clip-path="url(#clip160)" d="M44.7161 911.525 L47.5806 911.525 L47.5806 938.452 Q53.6281 938.07 56.8109 934.824 Q59.9619 931.546 59.9619 925.721 Q59.9619 922.347 59.1344 919.196 Q58.3069 916.013 56.6518 912.894 L62.1899 912.894 Q63.5267 916.045 64.227 919.355 Q64.9272 922.665 64.9272 926.071 Q64.9272 934.601 59.9619 939.598 Q54.9967 944.563 46.5303 944.563 Q37.7774 944.563 32.6531 939.853 Q27.4968 935.11 27.4968 927.09 Q27.4968 919.896 32.1438 915.727 Q36.7589 911.525 44.7161 911.525 M42.9973 917.382 Q38.1912 917.446 35.3266 920.087 Q32.4621 922.697 32.4621 927.026 Q32.4621 931.928 35.2312 934.888 Q38.0002 937.816 43.0292 938.261 L42.9973 917.382 Z" fill="#000000" fill-rule="nonzero" fill-opacity="1"></path><path clip-path="url(#clip160)" d="M28.3562 873.427 L45.7028 886.317 L64.0042 872.758 L64.0042 879.665 L49.9996 890.041 L64.0042 900.417 L64.0042 907.324 L45.3526 893.479 L28.3562 906.146 L28.3562 899.24 L41.0558 889.787 L28.3562 880.334 L28.3562 873.427 Z" fill="#000000" fill-rule="nonzero" fill-opacity="1"></path><path clip-path="url(#clip160)" d="M58.657 858.817 L77.5631 858.817 L77.5631 864.706 L28.3562 864.706 L28.3562 858.817 L33.7671 858.817 Q30.5842 856.971 29.0564 854.17 Q27.4968 851.338 27.4968 847.423 Q27.4968 840.93 32.6531 836.888 Q37.8093 832.814 46.212 832.814 Q54.6147 832.814 59.771 836.888 Q64.9272 840.93 64.9272 847.423 Q64.9272 851.338 63.3994 854.17 Q61.8398 856.971 58.657 858.817 M46.212 838.893 Q39.7508 838.893 36.0905 841.566 Q32.3984 844.208 32.3984 848.855 Q32.3984 853.502 36.0905 856.176 Q39.7508 858.817 46.212 858.817 Q52.6732 858.817 56.3653 856.176 Q60.0256 853.502 60.0256 848.855 Q60.0256 844.208 56.3653 841.566 Q52.6732 838.893 46.212 838.893 Z" fill="#000000" fill-rule="nonzero" fill-opacity="1"></path><path clip-path="url(#clip160)" d="M33.8307 802.449 Q33.2578 803.436 33.0032 804.613 Q32.7167 805.759 32.7167 807.16 Q32.7167 812.125 35.9632 814.799 Q39.1779 817.44 45.2253 817.44 L64.0042 817.44 L64.0042 823.329 L28.3562 823.329 L28.3562 817.44 L33.8944 817.44 Q30.6479 815.594 29.0883 812.634 Q27.4968 809.674 27.4968 805.441 Q27.4968 804.836 27.5923 804.104 Q27.656 803.372 27.8151 802.481 L33.8307 802.449 Z" fill="#000000" fill-rule="nonzero" fill-opacity="1"></path><path clip-path="url(#clip160)" d="M44.7161 767.247 L47.5806 767.247 L47.5806 794.174 Q53.6281 793.792 56.8109 790.545 Q59.9619 787.267 59.9619 781.442 Q59.9619 778.068 59.1344 774.917 Q58.3069 771.735 56.6518 768.615 L62.1899 768.615 Q63.5267 771.766 64.227 775.077 Q64.9272 778.387 64.9272 781.792 Q64.9272 790.322 59.9619 795.32 Q54.9967 800.285 46.5303 800.285 Q37.7774 800.285 32.6531 795.574 Q27.4968 790.832 27.4968 782.811 Q27.4968 775.618 32.1438 771.448 Q36.7589 767.247 44.7161 767.247 M42.9973 773.103 Q38.1912 773.167 35.3266 775.809 Q32.4621 778.419 32.4621 782.747 Q32.4621 787.649 35.2312 790.609 Q38.0002 793.537 43.0292 793.983 L42.9973 773.103 Z" fill="#000000" fill-rule="nonzero" fill-opacity="1"></path><path clip-path="url(#clip160)" d="M29.4065 734.909 L34.9447 734.909 Q33.6716 737.392 33.035 740.065 Q32.3984 742.739 32.3984 745.603 Q32.3984 749.964 33.7352 752.16 Q35.072 754.324 37.7456 754.324 Q39.7826 754.324 40.9603 752.765 Q42.1061 751.205 43.1565 746.495 L43.6021 744.489 Q44.9389 738.251 47.3897 735.641 Q49.8086 732.999 54.1691 732.999 Q59.1344 732.999 62.0308 736.946 Q64.9272 740.861 64.9272 747.736 Q64.9272 750.6 64.3543 753.72 Q63.8132 756.807 62.6992 760.244 L56.6518 760.244 Q58.3387 756.998 59.198 753.847 Q60.0256 750.696 60.0256 747.609 Q60.0256 743.471 58.6251 741.243 Q57.1929 739.015 54.6147 739.015 Q52.2276 739.015 50.9545 740.638 Q49.6813 742.23 48.5037 747.672 L48.0262 749.709 Q46.8804 755.152 44.5251 757.571 Q42.138 759.99 38.0002 759.99 Q32.9713 759.99 30.2341 756.425 Q27.4968 752.86 27.4968 746.304 Q27.4968 743.057 27.9743 740.192 Q28.4517 737.328 29.4065 734.909 Z" fill="#000000" fill-rule="nonzero" fill-opacity="1"></path><path clip-path="url(#clip160)" d="M29.4065 700.948 L34.9447 700.948 Q33.6716 703.431 33.035 706.104 Q32.3984 708.778 32.3984 711.642 Q32.3984 716.003 33.7352 718.199 Q35.072 720.363 37.7456 720.363 Q39.7826 720.363 40.9603 718.804 Q42.1061 717.244 43.1565 712.533 L43.6021 710.528 Q44.9389 704.29 47.3897 701.68 Q49.8086 699.038 54.1691 699.038 Q59.1344 699.038 62.0308 702.985 Q64.9272 706.9 64.9272 713.775 Q64.9272 716.639 64.3543 719.759 Q63.8132 722.846 62.6992 726.283 L56.6518 726.283 Q58.3387 723.037 59.198 719.886 Q60.0256 716.735 60.0256 713.647 Q60.0256 709.51 58.6251 707.282 Q57.1929 705.054 54.6147 705.054 Q52.2276 705.054 50.9545 706.677 Q49.6813 708.268 48.5037 713.711 L48.0262 715.748 Q46.8804 721.191 44.5251 723.61 Q42.138 726.029 38.0002 726.029 Q32.9713 726.029 30.2341 722.464 Q27.4968 718.899 27.4968 712.343 Q27.4968 709.096 27.9743 706.231 Q28.4517 703.367 29.4065 700.948 Z" fill="#000000" fill-rule="nonzero" fill-opacity="1"></path><path clip-path="url(#clip160)" d="M28.3562 689.712 L28.3562 683.856 L64.0042 683.856 L64.0042 689.712 L28.3562 689.712 M14.479 689.712 L14.479 683.856 L21.895 683.856 L21.895 689.712 L14.479 689.712 Z" fill="#000000" fill-rule="nonzero" fill-opacity="1"></path><path clip-path="url(#clip160)" d="M32.4621 657.788 Q32.4621 662.499 36.1542 665.236 Q39.8145 667.974 46.212 667.974 Q52.6095 667.974 56.3017 665.268 Q59.9619 662.531 59.9619 657.788 Q59.9619 653.11 56.2698 650.372 Q52.5777 647.635 46.212 647.635 Q39.8781 647.635 36.186 650.372 Q32.4621 653.11 32.4621 657.788 M27.4968 657.788 Q27.4968 650.15 32.4621 645.789 Q37.4273 641.429 46.212 641.429 Q54.9649 641.429 59.9619 645.789 Q64.9272 650.15 64.9272 657.788 Q64.9272 665.459 59.9619 669.82 Q54.9649 674.148 46.212 674.148 Q37.4273 674.148 32.4621 669.82 Q27.4968 665.459 27.4968 657.788 Z" fill="#000000" fill-rule="nonzero" fill-opacity="1"></path><path clip-path="url(#clip160)" d="M42.4881 602.088 L64.0042 602.088 L64.0042 607.945 L42.679 607.945 Q37.6183 607.945 35.1038 609.918 Q32.5894 611.892 32.5894 615.838 Q32.5894 620.581 35.6131 623.318 Q38.6368 626.055 43.8567 626.055 L64.0042 626.055 L64.0042 631.944 L28.3562 631.944 L28.3562 626.055 L33.8944 626.055 Q30.6797 623.955 29.0883 621.122 Q27.4968 618.257 27.4968 614.533 Q27.4968 608.391 31.3163 605.24 Q35.1038 602.088 42.4881 602.088 Z" fill="#000000" fill-rule="nonzero" fill-opacity="1"></path><path clip-path="url(#clip160)" d="M852.045 65.6895 L865.413 65.6895 L865.413 19.5497 L850.871 22.4663 L850.871 15.0127 L865.332 12.096 L873.515 12.096 L873.515 65.6895 L886.883 65.6895 L886.883 72.576 L852.045 72.576 L852.045 65.6895 Z" fill="#000000" fill-rule="nonzero" fill-opacity="1"></path><path clip-path="url(#clip160)" d="M910.46 65.6895 L939.018 65.6895 L939.018 72.576 L900.616 72.576 L900.616 65.6895 Q905.274 60.8689 913.295 52.7671 Q921.356 44.6248 923.422 42.2752 Q927.352 37.8598 928.891 34.8216 Q930.471 31.7429 930.471 28.7857 Q930.471 23.9651 927.068 20.927 Q923.706 17.8888 918.278 17.8888 Q914.429 17.8888 910.135 19.2256 Q905.882 20.5624 901.021 23.2765 L901.021 15.0127 Q905.963 13.0277 910.257 12.015 Q914.551 11.0023 918.116 11.0023 Q927.514 11.0023 933.104 15.7013 Q938.694 20.4004 938.694 28.2591 Q938.694 31.9859 937.276 35.3482 Q935.899 38.6699 932.213 43.2069 Q931.2 44.3817 925.772 50.0125 Q920.344 55.6027 910.46 65.6895 Z" fill="#000000" fill-rule="nonzero" fill-opacity="1"></path><path clip-path="url(#clip160)" d="M999.093 32.4315 Q993.098 32.4315 989.614 37.1306 Q986.13 41.7891 986.13 49.9314 Q986.13 58.0738 989.574 62.7728 Q993.057 67.4314 999.093 67.4314 Q1005.05 67.4314 1008.53 62.7323 Q1012.02 58.0333 1012.02 49.9314 Q1012.02 41.8701 1008.53 37.1711 Q1005.05 32.4315 999.093 32.4315 M999.093 26.1121 Q1008.82 26.1121 1014.37 32.4315 Q1019.91 38.7509 1019.91 49.9314 Q1019.91 61.0714 1014.37 67.4314 Q1008.82 73.7508 999.093 73.7508 Q989.331 73.7508 983.781 67.4314 Q978.272 61.0714 978.272 49.9314 Q978.272 38.7509 983.781 32.4315 Q989.331 26.1121 999.093 26.1121 Z" fill="#000000" fill-rule="nonzero" fill-opacity="1"></path><path clip-path="url(#clip160)" d="M1061.19 28.5427 L1061.19 35.5912 Q1058.03 33.9709 1054.63 33.1607 Q1051.23 32.3505 1047.58 32.3505 Q1042.03 32.3505 1039.24 34.0519 Q1036.48 35.7533 1036.48 39.156 Q1036.48 41.7486 1038.47 43.2475 Q1040.45 44.7058 1046.45 46.0426 L1049 46.6097 Q1056.94 48.3111 1060.26 51.4303 Q1063.62 54.509 1063.62 60.0587 Q1063.62 66.3781 1058.6 70.0644 Q1053.62 73.7508 1044.87 73.7508 Q1041.22 73.7508 1037.25 73.0216 Q1033.32 72.3329 1028.95 70.9151 L1028.95 63.2184 Q1033.08 65.3654 1037.09 66.4591 Q1041.1 67.5124 1045.03 67.5124 Q1050.3 67.5124 1053.13 65.73 Q1055.97 63.9071 1055.97 60.6258 Q1055.97 57.5877 1053.9 55.9673 Q1051.88 54.3469 1044.95 52.8481 L1042.36 52.2405 Q1035.43 50.7821 1032.35 47.7845 Q1029.27 44.7463 1029.27 39.4801 Q1029.27 33.0797 1033.81 29.5959 Q1038.35 26.1121 1046.69 26.1121 Q1050.82 26.1121 1054.47 26.7198 Q1058.11 27.3274 1061.19 28.5427 Z" fill="#000000" fill-rule="nonzero" fill-opacity="1"></path><path clip-path="url(#clip160)" d="M1108.14 28.9478 L1108.14 35.9153 Q1104.98 34.1734 1101.78 33.3227 Q1098.62 32.4315 1095.38 32.4315 Q1088.13 32.4315 1084.12 37.0496 Q1080.11 41.6271 1080.11 49.9314 Q1080.11 58.2358 1084.12 62.8538 Q1088.13 67.4314 1095.38 67.4314 Q1098.62 67.4314 1101.78 66.5807 Q1104.98 65.6895 1108.14 63.9476 L1108.14 70.8341 Q1105.02 72.2924 1101.66 73.0216 Q1098.34 73.7508 1094.57 73.7508 Q1084.32 73.7508 1078.29 67.3098 Q1072.25 60.8689 1072.25 49.9314 Q1072.25 38.832 1078.33 32.472 Q1084.45 26.1121 1095.06 26.1121 Q1098.5 26.1121 1101.78 26.8413 Q1105.06 27.5299 1108.14 28.9478 Z" fill="#000000" fill-rule="nonzero" fill-opacity="1"></path><path clip-path="url(#clip160)" d="M1121.11 27.2059 L1128.56 27.2059 L1128.56 72.576 L1121.11 72.576 L1121.11 27.2059 M1121.11 9.54393 L1128.56 9.54393 L1128.56 18.9825 L1121.11 18.9825 L1121.11 9.54393 Z" fill="#000000" fill-rule="nonzero" fill-opacity="1"></path><path clip-path="url(#clip160)" d="M1144.16 9.54393 L1151.61 9.54393 L1151.61 72.576 L1144.16 72.576 L1144.16 9.54393 Z" fill="#000000" fill-rule="nonzero" fill-opacity="1"></path><path clip-path="url(#clip160)" d="M1187.82 49.7694 Q1178.79 49.7694 1175.31 51.8354 Q1171.82 53.9013 1171.82 58.8839 Q1171.82 62.8538 1174.42 65.2034 Q1177.05 67.5124 1181.55 67.5124 Q1187.74 67.5124 1191.47 63.1374 Q1195.24 58.7219 1195.24 51.4303 L1195.24 49.7694 L1187.82 49.7694 M1202.69 46.6907 L1202.69 72.576 L1195.24 72.576 L1195.24 65.6895 Q1192.69 69.8214 1188.88 71.8063 Q1185.07 73.7508 1179.56 73.7508 Q1172.59 73.7508 1168.46 69.8619 Q1164.37 65.9325 1164.37 59.3701 Q1164.37 51.7138 1169.47 47.825 Q1174.62 43.9361 1184.79 43.9361 L1195.24 43.9361 L1195.24 43.2069 Q1195.24 38.0623 1191.84 35.2672 Q1188.47 32.4315 1182.36 32.4315 Q1178.47 32.4315 1174.78 33.3632 Q1171.09 34.295 1167.69 36.1584 L1167.69 29.2718 Q1171.78 27.692 1175.63 26.9223 Q1179.48 26.1121 1183.13 26.1121 Q1192.97 26.1121 1197.83 31.2163 Q1202.69 36.3204 1202.69 46.6907 Z" fill="#000000" fill-rule="nonzero" fill-opacity="1"></path><path clip-path="url(#clip160)" d="M1225.42 14.324 L1225.42 27.2059 L1240.77 27.2059 L1240.77 32.9987 L1225.42 32.9987 L1225.42 57.6282 Q1225.42 63.1779 1226.92 64.7578 Q1228.46 66.3376 1233.11 66.3376 L1240.77 66.3376 L1240.77 72.576 L1233.11 72.576 Q1224.49 72.576 1221.2 69.3758 Q1217.92 66.1351 1217.92 57.6282 L1217.92 32.9987 L1212.45 32.9987 L1212.45 27.2059 L1217.92 27.2059 L1217.92 14.324 L1225.42 14.324 Z" fill="#000000" fill-rule="nonzero" fill-opacity="1"></path><path clip-path="url(#clip160)" d="M1250.57 27.2059 L1258.03 27.2059 L1258.03 72.576 L1250.57 72.576 L1250.57 27.2059 M1250.57 9.54393 L1258.03 9.54393 L1258.03 18.9825 L1250.57 18.9825 L1250.57 9.54393 Z" fill="#000000" fill-rule="nonzero" fill-opacity="1"></path><path clip-path="url(#clip160)" d="M1291.2 32.4315 Q1285.21 32.4315 1281.72 37.1306 Q1278.24 41.7891 1278.24 49.9314 Q1278.24 58.0738 1281.68 62.7728 Q1285.17 67.4314 1291.2 67.4314 Q1297.16 67.4314 1300.64 62.7323 Q1304.13 58.0333 1304.13 49.9314 Q1304.13 41.8701 1300.64 37.1711 Q1297.16 32.4315 1291.2 32.4315 M1291.2 26.1121 Q1300.93 26.1121 1306.48 32.4315 Q1312.03 38.7509 1312.03 49.9314 Q1312.03 61.0714 1306.48 67.4314 Q1300.93 73.7508 1291.2 73.7508 Q1281.44 73.7508 1275.89 67.4314 Q1270.38 61.0714 1270.38 49.9314 Q1270.38 38.7509 1275.89 32.4315 Q1281.44 26.1121 1291.2 26.1121 Z" fill="#000000" fill-rule="nonzero" fill-opacity="1"></path><path clip-path="url(#clip160)" d="M1362.09 45.1919 L1362.09 72.576 L1354.64 72.576 L1354.64 45.4349 Q1354.64 38.994 1352.13 35.7938 Q1349.62 32.5936 1344.59 32.5936 Q1338.56 32.5936 1335.08 36.4419 Q1331.59 40.2903 1331.59 46.9338 L1331.59 72.576 L1324.1 72.576 L1324.1 27.2059 L1331.59 27.2059 L1331.59 34.2544 Q1334.27 30.163 1337.87 28.1376 Q1341.52 26.1121 1346.26 26.1121 Q1354.07 26.1121 1358.08 30.9732 Q1362.09 35.7938 1362.09 45.1919 Z" fill="#000000" fill-rule="nonzero" fill-opacity="1"></path><path clip-path="url(#clip160)" d="M1405.89 28.5427 L1405.89 35.5912 Q1402.73 33.9709 1399.32 33.1607 Q1395.92 32.3505 1392.27 32.3505 Q1386.72 32.3505 1383.93 34.0519 Q1381.17 35.7533 1381.17 39.156 Q1381.17 41.7486 1383.16 43.2475 Q1385.14 44.7058 1391.14 46.0426 L1393.69 46.6097 Q1401.63 48.3111 1404.95 51.4303 Q1408.32 54.509 1408.32 60.0587 Q1408.32 66.3781 1403.29 70.0644 Q1398.31 73.7508 1389.56 73.7508 Q1385.91 73.7508 1381.94 73.0216 Q1378.01 72.3329 1373.64 70.9151 L1373.64 63.2184 Q1377.77 65.3654 1381.78 66.4591 Q1385.79 67.5124 1389.72 67.5124 Q1394.99 67.5124 1397.82 65.73 Q1400.66 63.9071 1400.66 60.6258 Q1400.66 57.5877 1398.59 55.9673 Q1396.57 54.3469 1389.64 52.8481 L1387.05 52.2405 Q1380.12 50.7821 1377.04 47.7845 Q1373.96 44.7463 1373.96 39.4801 Q1373.96 33.0797 1378.5 29.5959 Q1383.04 26.1121 1391.38 26.1121 Q1395.51 26.1121 1399.16 26.7198 Q1402.81 27.3274 1405.89 28.5427 Z" fill="#000000" fill-rule="nonzero" fill-opacity="1"></path><path clip-path="url(#clip160)" d="M1476.41 34.0924 L1476.41 9.54393 L1483.87 9.54393 L1483.87 72.576 L1476.41 72.576 L1476.41 65.7705 Q1474.06 69.8214 1470.46 71.8063 Q1466.89 73.7508 1461.87 73.7508 Q1453.65 73.7508 1448.46 67.1883 Q1443.32 60.6258 1443.32 49.9314 Q1443.32 39.2371 1448.46 32.6746 Q1453.65 26.1121 1461.87 26.1121 Q1466.89 26.1121 1470.46 28.0971 Q1474.06 30.0415 1476.41 34.0924 M1451.01 49.9314 Q1451.01 58.1548 1454.37 62.8538 Q1457.78 67.5124 1463.69 67.5124 Q1469.61 67.5124 1473.01 62.8538 Q1476.41 58.1548 1476.41 49.9314 Q1476.41 41.7081 1473.01 37.0496 Q1469.61 32.3505 1463.69 32.3505 Q1457.78 32.3505 1454.37 37.0496 Q1451.01 41.7081 1451.01 49.9314 Z" fill="#000000" fill-rule="nonzero" fill-opacity="1"></path><path clip-path="url(#clip160)" d="M1538.03 48.0275 L1538.03 51.6733 L1503.75 51.6733 Q1504.24 59.3701 1508.37 63.421 Q1512.55 67.4314 1519.96 67.4314 Q1524.25 67.4314 1528.26 66.3781 Q1532.31 65.3249 1536.28 63.2184 L1536.28 70.267 Q1532.27 71.9684 1528.06 72.8596 Q1523.85 73.7508 1519.51 73.7508 Q1508.66 73.7508 1502.3 67.4314 Q1495.98 61.1119 1495.98 50.3365 Q1495.98 39.1965 1501.97 32.6746 Q1508.01 26.1121 1518.22 26.1121 Q1527.37 26.1121 1532.68 32.0264 Q1538.03 37.9003 1538.03 48.0275 M1530.57 45.84 Q1530.49 39.7232 1527.13 36.0774 Q1523.81 32.4315 1518.3 32.4315 Q1512.06 32.4315 1508.29 35.9558 Q1504.57 39.4801 1504 45.8805 L1530.57 45.84 Z" fill="#000000" fill-rule="nonzero" fill-opacity="1"></path><path clip-path="url(#clip160)" d="M1579.18 28.5427 L1579.18 35.5912 Q1576.02 33.9709 1572.62 33.1607 Q1569.22 32.3505 1565.57 32.3505 Q1560.02 32.3505 1557.23 34.0519 Q1554.47 35.7533 1554.47 39.156 Q1554.47 41.7486 1556.46 43.2475 Q1558.44 44.7058 1564.44 46.0426 L1566.99 46.6097 Q1574.93 48.3111 1578.25 51.4303 Q1581.61 54.509 1581.61 60.0587 Q1581.61 66.3781 1576.59 70.0644 Q1571.61 73.7508 1562.86 73.7508 Q1559.21 73.7508 1555.24 73.0216 Q1551.31 72.3329 1546.94 70.9151 L1546.94 63.2184 Q1551.07 65.3654 1555.08 66.4591 Q1559.09 67.5124 1563.02 67.5124 Q1568.29 67.5124 1571.12 65.73 Q1573.96 63.9071 1573.96 60.6258 Q1573.96 57.5877 1571.89 55.9673 Q1569.87 54.3469 1562.94 52.8481 L1560.35 52.2405 Q1553.42 50.7821 1550.34 47.7845 Q1547.26 44.7463 1547.26 39.4801 Q1547.26 33.0797 1551.8 29.5959 Q1556.34 26.1121 1564.68 26.1121 Q1568.81 26.1121 1572.46 26.7198 Q1576.1 27.3274 1579.18 28.5427 Z" fill="#000000" fill-rule="nonzero" fill-opacity="1"></path><path clip-path="url(#clip160)" d="M1593.48 27.2059 L1600.94 27.2059 L1600.94 72.576 L1593.48 72.576 L1593.48 27.2059 M1593.48 9.54393 L1600.94 9.54393 L1600.94 18.9825 L1593.48 18.9825 L1593.48 9.54393 Z" fill="#000000" fill-rule="nonzero" fill-opacity="1"></path><path clip-path="url(#clip160)" d="M1642.82 34.1734 Q1641.57 33.4443 1640.07 33.1202 Q1638.61 32.7556 1636.83 32.7556 Q1630.51 32.7556 1627.1 36.8875 Q1623.74 40.9789 1623.74 48.6757 L1623.74 72.576 L1616.25 72.576 L1616.25 27.2059 L1623.74 27.2059 L1623.74 34.2544 Q1626.09 30.1225 1629.86 28.1376 Q1633.63 26.1121 1639.01 26.1121 Q1639.78 26.1121 1640.72 26.2337 Q1641.65 26.3147 1642.78 26.5172 L1642.82 34.1734 Z" fill="#000000" fill-rule="nonzero" fill-opacity="1"></path><path clip-path="url(#clip160)" d="M1687.63 48.0275 L1687.63 51.6733 L1653.35 51.6733 Q1653.84 59.3701 1657.97 63.421 Q1662.15 67.4314 1669.56 67.4314 Q1673.85 67.4314 1677.86 66.3781 Q1681.91 65.3249 1685.88 63.2184 L1685.88 70.267 Q1681.87 71.9684 1677.66 72.8596 Q1673.45 73.7508 1669.11 73.7508 Q1658.26 73.7508 1651.9 67.4314 Q1645.58 61.1119 1645.58 50.3365 Q1645.58 39.1965 1651.57 32.6746 Q1657.61 26.1121 1667.82 26.1121 Q1676.97 26.1121 1682.28 32.0264 Q1687.63 37.9003 1687.63 48.0275 M1680.17 45.84 Q1680.09 39.7232 1676.73 36.0774 Q1673.41 32.4315 1667.9 32.4315 Q1661.66 32.4315 1657.89 35.9558 Q1654.17 39.4801 1653.6 45.8805 L1680.17 45.84 Z" fill="#000000" fill-rule="nonzero" fill-opacity="1"></path><path clip-path="url(#clip160)" d="M1729.71 34.0924 L1729.71 9.54393 L1737.17 9.54393 L1737.17 72.576 L1729.71 72.576 L1729.71 65.7705 Q1727.36 69.8214 1723.76 71.8063 Q1720.19 73.7508 1715.17 73.7508 Q1706.95 73.7508 1701.76 67.1883 Q1696.62 60.6258 1696.62 49.9314 Q1696.62 39.2371 1701.76 32.6746 Q1706.95 26.1121 1715.17 26.1121 Q1720.19 26.1121 1723.76 28.0971 Q1727.36 30.0415 1729.71 34.0924 M1704.32 49.9314 Q1704.32 58.1548 1707.68 62.8538 Q1711.08 67.5124 1716.99 67.5124 Q1722.91 67.5124 1726.31 62.8538 Q1729.71 58.1548 1729.71 49.9314 Q1729.71 41.7081 1726.31 37.0496 Q1722.91 32.3505 1716.99 32.3505 Q1711.08 32.3505 1707.68 37.0496 Q1704.32 41.7081 1704.32 49.9314 Z" fill="#000000" fill-rule="nonzero" fill-opacity="1"></path><polyline clip-path="url(#clip162)" style="stroke:#009af9; stroke-linecap:round; stroke-linejoin:round; stroke-width:4; stroke-opacity:1; fill:none" points="295.211,1380.54 297.209,1380.65 299.207,1380.82 301.204,1381.31 303.202,1382.1 305.199,1381.13 307.197,1380.83 309.195,1380.78 311.192,1360.77 313.19,1315.73 315.187,1262.28 317.185,1109.94 319.183,974.669 321.18,885.325 323.178,794.993 325.176,703.1 327.173,614.53 329.171,579.935 331.168,547.47 333.166,468.705 335.164,423.006 337.161,382.909 339.159,351.759 341.157,360.587 343.154,361.386 345.152,377.367 347.149,317.532 349.147,318.772 351.145,356.452 353.142,306.551 355.14,276.594 357.137,290.907 359.135,302.768 361.133,408.735 363.13,504.875 365.128,629.025 367.126,604.059 369.123,589.534 371.121,677.85 373.118,768.817 375.116,883.744 377.114,962.681 379.111,1043.52 381.109,1048.05 383.106,1114.12 385.104,1168.04 387.102,1191.69 389.099,1200.24 391.097,1240.22 393.095,1260.93 395.092,1273.5 397.09,1292.8 399.087,1302.98 401.085,1310.77 403.083,1312.74 405.08,1314.05 407.078,1315.06 409.075,1317.55 411.073,1327.71 413.071,1327.89 415.068,1341.93 417.066,1353.13 419.064,1358.16 421.061,1365.57 423.059,1367.97 425.056,1374.66 427.054,1376.43 429.052,1380.76 431.049,1381.88 433.047,1382.03 435.044,1380.76 437.042,1379.69 439.04,1380.21 441.037,1379.32 443.035,1377.65 445.033,1377.3 447.03,1377.17 449.028,1376.82 451.025,1379.24 453.023,1379.09 455.021,1378.51 457.018,1377.36 459.016,1379.67 461.013,1379.42 463.011,1377.47 465.009,1380.24 467.006,1380.86 469.004,1382.15 471.002,1382.89 472.999,1384.16 474.997,1383.86 476.994,1382.47 478.992,1381.84 480.99,1384.59 482.987,1365.64 484.985,1300.29 486.982,1217.25 488.98,1083.6 490.978,960.901 492.975,895.984 494.973,891.252 496.971,867.077 498.968,783.484 500.966,708.994 502.963,658.151 504.961,634.05 506.959,555.687 508.956,532.893 510.954,468.95 512.951,465.697 514.949,417.713 516.947,449.914 518.944,452.223 520.942,465.012 522.94,430.441 524.937,435.492 526.935,447.384 528.932,408.372 530.93,391.48 532.928,397.501 534.925,395.513 536.923,431.91 538.92,501.963 540.918,621.444 542.916,719.379 544.913,780.297 546.911,832.859 548.909,868.806 550.906,965.775 552.904,1027.56 554.901,1085.41 556.899,1115.64 558.897,1149.4 560.894,1197.31 562.892,1234.72 564.89,1253.89 566.887,1269.28 568.885,1290.75 570.882,1313.7 572.88,1318.03 574.878,1335.44 576.875,1349.19 578.873,1352.09 580.87,1361.28 582.868,1365.09 584.866,1365.18 586.863,1366.64 588.861,1372.09 590.859,1372.89 592.856,1377.92 594.854,1377.73 596.851,1375.86 598.849,1377.97 600.847,1377.04 602.844,1378.49 604.842,1378.27 606.839,1379.07 608.837,1380.15 610.835,1380.51 612.832,1380.13 614.83,1380.97 616.828,1381.39 618.825,1381.49 620.823,1381.47 622.82,1381.31 624.818,1380.97 626.816,1381.52 628.813,1380.99 630.811,1380.52 632.808,1380.48 634.806,1378.5 636.804,1380.82 638.801,1379.01 640.799,1379.25 642.797,1376.04 644.794,1371.16 646.792,1375.04 648.789,1374.02 650.787,1375.32 652.785,1350.81 654.782,1340.83 656.78,1321.72 658.777,1156.85 660.775,1009.55 662.773,904.069 664.77,859.47 666.768,824.736 668.766,732.823 670.763,721.416 672.761,664.36 674.758,598.187 676.756,533.306 678.754,554.922 680.751,517.062 682.749,534.315 684.746,485.981 686.744,445.883 688.742,440.635 690.739,383.691 692.737,354.305 694.735,388.408 696.732,403.859 698.73,380.485 700.727,431.114 702.725,420.618 704.723,546.466 706.72,666.32 708.718,771.761 710.715,841.218 712.713,922.447 714.711,985.838 716.708,1079.4 718.706,1137.21 720.704,1163.15 722.701,1200.71 724.699,1226.32 726.696,1247 728.694,1257.87 730.692,1275.61 732.689,1292.66 734.687,1308.19 736.684,1313.85 738.682,1319.94 740.68,1325.89 742.677,1332.64 744.675,1333.23 746.673,1344.07 748.67,1345.58 750.668,1355.48 752.665,1357.82 754.663,1360.24 756.661,1358.78 758.658,1362.68 760.656,1364.28 762.653,1370.89 764.651,1370.34 766.649,1373.16 768.646,1373.88 770.644,1370.36 772.642,1374 774.639,1377.57 776.637,1377.86 778.634,1379.51 780.632,1378 782.63,1379.81 784.627,1380.12 786.625,1380.42 788.623,1379.39 790.62,1378.78 792.618,1377.6 794.615,1378.71 796.613,1379.06 798.611,1380.34 800.608,1380.47 802.606,1380.33 804.603,1380.94 806.601,1380.95 808.599,1380.28 810.596,1379.68 812.594,1375.99 814.592,1373.75 816.589,1372.3 818.587,1369.86 820.584,1370.63 822.582,1366.33 824.58,1369.62 826.577,1268.19 828.575,1237.05 830.572,1175.2 832.57,1023.16 834.568,899.921 836.565,765.652 838.563,731.557 840.561,644.993 842.558,621.081 844.556,559.737 846.553,608.467 848.551,580.857 850.549,566.966 852.546,521.305 854.544,434.106 856.541,382.127 858.539,334.807 860.537,330.304 862.534,303.365 864.532,300.4 866.53,365.729 868.527,346.898 870.525,518.418 872.522,643.023 874.52,746.472 876.518,832.842 878.515,931.463 880.513,1001.64 882.51,1065.3 884.508,1114.85 886.506,1113.54 888.503,1167.93 890.501,1193.43 892.499,1229.49 894.496,1245.39 896.494,1279.83 898.491,1291.64 900.489,1302.68 902.487,1318.56 904.484,1321.43 906.482,1331.2 908.479,1343.08 910.477,1349.85 912.475,1359.35 914.472,1358.28 916.47,1355.32 918.468,1361.74 920.465,1363.7 922.463,1365.23 924.46,1368.88 926.458,1376.01 928.456,1373.4 930.453,1373.2 932.451,1373.78 934.448,1374.55 936.446,1377.95 938.444,1380.71 940.441,1380.62 942.439,1381.32 944.437,1381.46 946.434,1381.36 948.432,1381.37 950.429,1381.19 952.427,1380.88 954.425,1381.42 956.422,1381.27 958.42,1380.89 960.417,1380.45 962.415,1381.39 964.413,1381.16 966.41,1379.99 968.408,1380.67 970.406,1360.22 972.403,1268.77 974.401,1198.71 976.398,1135.32 978.396,1020.73 980.394,893.056 982.391,773.498 984.389,741.676 986.386,710.62 988.384,650.371 990.382,577.078 992.379,557.254 994.377,489.434 996.375,439.604 998.372,429.292 1000.37,393.45 1002.37,332.403 1004.37,323.975 1006.36,345.415 1008.36,321.101 1010.36,352.139 1012.36,351.722 1014.35,342.055 1016.35,308.554 1018.35,301.661 1020.35,274.187 1022.34,213.44 1024.34,180.356 1026.34,200.526 1028.34,195.592 1030.33,160.256 1032.33,222.762 1034.33,401.339 1036.33,545.93 1038.32,666.821 1040.32,743.218 1042.32,812.151 1044.32,877.183 1046.31,952.004 1048.31,1024.77 1050.31,1066.38 1052.31,1117.19 1054.31,1154.16 1056.3,1186.78 1058.3,1219.81 1060.3,1258.18 1062.3,1278.14 1064.29,1295.43 1066.29,1310.61 1068.29,1320.44 1070.29,1319.14 1072.28,1328.99 1074.28,1336.93 1076.28,1353 1078.28,1356.89 1080.27,1358.61 1082.27,1365.39 1084.27,1366.91 1086.27,1372.83 1088.26,1373.84 1090.26,1375.15 1092.26,1377.15 1094.26,1376.17 1096.26,1378.33 1098.25,1378.6 1100.25,1379.45 1102.25,1380.03 1104.25,1379.07 1106.24,1380.09 1108.24,1379.95 1110.24,1379.5 1112.24,1379.61 1114.23,1381.46 1116.23,1381.75 1118.23,1381.6 1120.23,1381.29 1122.22,1381.47 1124.22,1381.57 1126.22,1381.56 1128.22,1381.54 1130.21,1381.27 1132.21,1381.23 1134.21,1381.24 1136.21,1381.03 1138.21,1381 1140.2,1381.8 1142.2,1382.27 1144.2,1382.13 1146.2,1381.31 1148.19,1386.4 1150.19,1364.45 1152.19,1355.27 1154.19,1287.23 1156.18,1175.58 1158.18,1008.83 1160.18,841.102 1162.18,784.801 1164.17,700.931 1166.17,674.839 1168.17,625.672 1170.17,528.894 1172.16,494.108 1174.16,447.958 1176.16,374.206 1178.16,380.839 1180.16,379.764 1182.15,373.063 1184.15,311.333 1186.15,305.236 1188.15,288.441 1190.14,306.633 1192.14,345.329 1194.14,337.8 1196.14,321.794 1198.13,310.3 1200.13,301.893 1202.13,282.78 1204.13,278.361 1206.12,357.318 1208.12,487.301 1210.12,627.867 1212.12,735.474 1214.11,806.151 1216.11,861.502 1218.11,920.172 1220.11,982.133 1222.11,1035.89 1224.1,1091.07 1226.1,1145.5 1228.1,1161.43 1230.1,1208.2 1232.09,1242.76 1234.09,1257.48 1236.09,1285.43 1238.09,1286.59 1240.08,1304.52 1242.08,1314.18 1244.08,1315.14 1246.08,1325.84 1248.07,1343.77 1250.07,1351.81 1252.07,1359.15 1254.07,1358.58 1256.06,1359.22 1258.06,1361.11 1260.06,1359.83 1262.06,1361.26 1264.06,1367.84 1266.05,1371.56 1268.05,1374.7 1270.05,1377.66 1272.05,1377.01 1274.04,1377.98 1276.04,1377.94 1278.04,1379.23 1280.04,1379.98 1282.03,1379.61 1284.03,1380.92 1286.03,1381.12 1288.03,1381.02 1290.02,1381.41 1292.02,1381.56 1294.02,1381.44 1296.02,1381.27 1298.01,1381.02 1300.01,1381.23 1302.01,1381.08 1304.01,1381.4 1306.01,1381.17 1308,1381.51 1310,1381.38 1312,1381.27 1314,1381.03 1315.99,1381.74 1317.99,1381.46 1319.99,1370.77 1321.99,1369.72 1323.98,1365 1325.98,1347.99 1327.98,1315.03 1329.98,1305.64 1331.97,1234.66 1333.97,1175.3 1335.97,1093.44 1337.97,957.725 1339.96,875.454 1341.96,766.152 1343.96,689.872 1345.96,607.802 1347.96,518.583 1349.95,509.749 1351.95,529.115 1353.95,527.289 1355.95,471.338 1357.94,427.888 1359.94,423.478 1361.94,356.082 1363.94,344.778 1365.93,383.849 1367.93,352.811 1369.93,362.664 1371.93,462.157 1373.92,617.823 1375.92,701.813 1377.92,791.065 1379.92,875.155 1381.91,943.206 1383.91,1014.03 1385.91,1099.71 1387.91,1130.87 1389.9,1171.18 1391.9,1210.86 1393.9,1230.29 1395.9,1260.72 1397.9,1294.58 1399.89,1317.25 1401.89,1334.99 1403.89,1335.27 1405.89,1343.22 1407.88,1345.03 1409.88,1348.59 1411.88,1354.87 1413.88,1362.72 1415.87,1358.59 1417.87,1362.34 1419.87,1364.42 1421.87,1366.78 1423.86,1368.33 1425.86,1367.41 1427.86,1368.73 1429.86,1376.11 1431.85,1376.76 1433.85,1376.04 1435.85,1379.44 1437.85,1379.31 1439.85,1380.64 1441.84,1380.63 1443.84,1380.31 1445.84,1381.02 1447.84,1380.9 1449.83,1380.63 1451.83,1380.37 1453.83,1379.59 1455.83,1379.36 1457.82,1378.56 1459.82,1381.66 1461.82,1380.82 1463.82,1381.73 1465.81,1382.54 1467.81,1381.96 1469.81,1383.07 1471.81,1381.38 1473.8,1377.42 1475.8,1288.66 1477.8,1208.26 1479.8,1054.25 1481.8,941.896 1483.79,835.077 1485.79,738.837 1487.79,661.131 1489.79,601.689 1491.78,608.645 1493.78,545.186 1495.78,513.006 1497.78,531.557 1499.77,479.47 1501.77,409.52 1503.77,344.252 1505.77,321.311 1507.76,357.114 1509.76,349.383 1511.76,354.823 1513.76,322.375 1515.75,268.88 1517.75,280.215 1519.75,307.974 1521.75,302.477 1523.75,292.367 1525.74,316.057 1527.74,285.583 1529.74,239.821 1531.74,307.29 1533.73,454.643 1535.73,608.276 1537.73,728.629 1539.73,831.551 1541.72,912.859 1543.72,953.699 1545.72,999.37 1547.72,1040.55 1549.71,1080.71 1551.71,1120.41 1553.71,1148.85 1555.71,1189.8 1557.7,1213.17 1559.7,1241.83 1561.7,1269.34 1563.7,1288.43 1565.7,1294.56 1567.69,1316.13 1569.69,1323.28 1571.69,1325.83 1573.69,1346.12 1575.68,1356.35 1577.68,1360.24 1579.68,1358.44 1581.68,1356.24 1583.67,1355.68 1585.67,1361.83 1587.67,1370.82 1589.67,1370.52 1591.66,1374.43 1593.66,1372.98 1595.66,1375.24 1597.66,1375.75 1599.65,1381.18 1601.65,1381.2 1603.65,1380.99 1605.65,1380.95 1607.65,1381.54 1609.64,1381.7 1611.64,1381.49 1613.64,1381.42 1615.64,1381.49 1617.63,1381.7 1619.63,1382.08 1621.63,1382.52 1623.63,1380.66 1625.62,1380.84 1627.62,1380.77 1629.62,1381.87 1631.62,1381.65 1633.61,1381.55 1635.61,1382.77 1637.61,1364.93 1639.61,1362.11 1641.6,1363.12 1643.6,1341.89 1645.6,1316.21 1647.6,1227.43 1649.6,1185.67 1651.59,1183.07 1653.59,1100.92 1655.59,1104.91 1657.59,1097.69 1659.58,1083.91 1661.58,1024.16 1663.58,979.395 1665.58,956.768 1667.57,859.385 1669.57,743.999 1671.57,629.659 1673.57,590.256 1675.56,527.175 1677.56,448.174 1679.56,413.602 1681.56,396.758 1683.55,342.347 1685.55,302.762 1687.55,345.072 1689.55,533.579 1691.54,678.962 1693.54,767.518 1695.54,850.622 1697.54,938.368 1699.54,997.191 1701.53,1054.52 1703.53,1085.12 1705.53,1127.19 1707.53,1156.46 1709.52,1188.82 1711.52,1220.88 1713.52,1248.96 1715.52,1265.2 1717.51,1273.74 1719.51,1288.57 1721.51,1297.34 1723.51,1308.72 1725.5,1323.15 1727.5,1334.05 1729.5,1345.44 1731.5,1356.31 1733.49,1357.27 1735.49,1352.97 1737.49,1352.8 1739.49,1351.87 1741.49,1363.83 1743.48,1366.79 1745.48,1369.24 1747.48,1372.6 1749.48,1372.18 1751.47,1375.23 1753.47,1375.87 1755.47,1378.73 1757.47,1379.91 1759.46,1378.51 1761.46,1377.88 1763.46,1378.49 1765.46,1375.93 1767.45,1373.93 1769.45,1377.49 1771.45,1377.88 1773.45,1380.48 1775.44,1379.91 1777.44,1378.47 1779.44,1380.6 1781.44,1380.18 1783.44,1381.27 1785.43,1381.06 1787.43,1381.08 1789.43,1380.96 1791.43,1381.9 1793.42,1379.81 1795.42,1373.45 1797.42,1371.04 1799.42,1375.76 1801.41,1369.65 1803.41,1368.16 1805.41,1352.18 1807.41,1329.51 1809.4,1313.64 1811.4,1306.61 1813.4,1309.83 1815.4,1324.77 1817.39,1322.3 1819.39,1271.67 1821.39,1126.12 1823.39,952.141 1825.39,870.441 1827.38,805.535 1829.38,710.821 1831.38,635.095 1833.38,586.41 1835.37,539.656 1837.37,470.914 1839.37,446.156 1841.37,399.86 1843.36,388.382 1845.36,331.491 1847.36,344.446 1849.36,353.987 1851.35,378.238 1853.35,418.648 1855.35,528.507 1857.35,657.26 1859.34,792.635 1861.34,888.854 1863.34,958.879 1865.34,1013.14 1867.34,1055.65 1869.33,1107.37 1871.33,1139.87 1873.33,1170.83 1875.33,1198.99 1877.32,1224.81 1879.32,1246.4 1881.32,1270.62 1883.32,1279.17 1885.31,1283.5 1887.31,1287.93 1889.31,1305.88 1891.31,1309.28 1893.3,1326.16 1895.3,1332.98 1897.3,1348.13 1899.3,1354.51 1901.29,1358.09 1903.29,1362.4 1905.29,1365.47 1907.29,1366.68 1909.29,1366.99 1911.28,1370.22 1913.28,1367.43 1915.28,1370.12 1917.28,1372.52 1919.27,1372.48 1921.27,1374.05 1923.27,1374.32 1925.27,1375.02 1927.26,1376.16 1929.26,1375.32 1931.26,1378.61 1933.26,1378.46 1935.25,1380.02 1937.25,1379.44 1939.25,1379.33 1941.25,1380.62 1943.24,1380.16 1945.24,1380.1 1947.24,1380.56 1949.24,1380.96 1951.24,1381.27 1953.23,1381.33 1955.23,1380.6 1957.23,1379.55 1959.23,1379.39 1961.22,1380.72 1963.22,1380.55 1965.22,1380.16 1967.22,1381.22 1969.21,1379.94 1971.21,1379.71 1973.21,1378.14 1975.21,1362.59 1977.2,1287.84 1979.2,1170.92 1981.2,1028.83 1983.2,927.843 1985.19,819.007 1987.19,724.35 1989.19,619.527 1991.19,587.763 1993.19,542.095 1995.18,499.31 1997.18,467.346 1999.18,491.062 2001.18,464.696 2003.17,458.663 2005.17,429.398 2007.17,403.404 2009.17,398.321 2011.16,354.533 2013.16,308.909 2015.16,314.413 2017.16,316.829 2019.15,310.316 2021.15,300.755 2023.15,333.824 2025.15,331.591 2027.14,338.378 2029.14,337.868 2031.14,329.53 2033.14,314.3 2035.13,489.632 2037.13,611.379 2039.13,709.347 2041.13,816.576 2043.13,935.318 2045.12,999.933 2047.12,1053.27 2049.12,1099.54 2051.12,1132.92 2053.11,1160.76 2055.11,1190.58 2057.11,1222.38 2059.11,1247.07 2061.1,1278.99 2063.1,1303.84 2065.1,1315.64 2067.1,1309.72 2069.09,1328.15 2071.09,1334.71 2073.09,1346.9 2075.09,1353.96 2077.08,1363.56 2079.08,1367.26 2081.08,1366.86 2083.08,1370.59 2085.08,1372.27 2087.07,1375.11 2089.07,1376.41 2091.07,1377.83 2093.07,1380.76 2095.06,1380.46 2097.06,1379.88 2099.06,1379.55 2101.06,1378.83 2103.05,1378.21 2105.05,1377.75 2107.05,1378.03 2109.05,1379.19 2111.04,1379.62 2113.04,1378.75 2115.04,1380.56 2117.04,1380.19 2119.03,1378.13 2121.03,1376.45 2123.03,1378.45 2125.03,1379.61 2127.03,1379.11 2129.02,1379 2131.02,1379.36 2133.02,1377.88 2135.02,1376.75 2137.01,1377.4 2139.01,1376.37 2141.01,1375.62 2143.01,1372.62 2145,1374.35 2147,1374.12 2149,1373.7 2151,1349.74 2152.99,1332.36 2154.99,1330.31 2156.99,1319.8 2158.99,1297.61 2160.98,1254.67 2162.98,1223.51 2164.98,1209.98 2166.98,1207.19 2168.98,1221.11 2170.97,1235.62 2172.97,1160.13 2174.97,1113.39 2176.97,1061.02 2178.96,953.537 2180.96,878.708 2182.96,757.045 2184.96,690.836 2186.95,675.874 2188.95,685.17 2190.95,665.346 2192.95,622.511 2194.94,593.767 2196.94,518.421 2198.94,549.574 2200.94,534.093 2202.93,633.908 2204.93,767.765 2206.93,809.985 2208.93,919.53 2210.93,1007.01 2212.92,1067.89 2214.92,1114.46 2216.92,1178.07 2218.92,1229.45 2220.91,1253.05 2222.91,1263.16 2224.91,1288.33 2226.91,1311.96 2228.9,1330.79 2230.9,1337.55 2232.9,1340.67 2234.9,1346.99 2236.89,1354.64 2238.89,1361.79 2240.89,1364.75 2242.89,1366.56 2244.88,1370.95 2246.88,1371.1 2248.88,1372.23 2250.88,1375.61 2252.88,1376.56 2254.87,1376.71 2256.87,1378.82 2258.87,1377.96 2260.87,1376.66 2262.86,1380.06 2264.86,1380.91 2266.86,1381.34 2268.86,1381.42 2270.85,1381.64 2272.85,1381.23 2274.85,1381.11 2276.85,1381.56 2278.84,1381.29 2280.84,1381.32 2282.84,1381.54 2284.84,1381.31 2286.83,1381.53 2288.83,1381.64 2290.83,1380.42 2292.83,1381.19 "></polyline>
</svg>