<svg xmlns="http://www.w3.org/2000/svg" xmlns:xlink="http://www.w3.org/1999/xlink" width="600" height="400" viewBox="0 0 2400 1600">
<defs>
  <clipPath id="clip120">
    <rect x="0" y="0" width="2400" height="1600"></rect>
  </clipPath>
</defs>
<path clip-path="url(#clip120)" d="M0 1600 L2400 1600 L2400 8.88178e-14 L0 8.88178e-14  Z" fill="#ffffff" fill-rule="evenodd" fill-opacity="1"></path>
<defs>
  <clipPath id="clip121">
    <rect x="480" y="0" width="1681" height="1600"></rect>
  </clipPath>
</defs>
<path clip-path="url(#clip120)" d="M235.283 1423.18 L2352.76 1423.18 L2352.76 123.472 L235.283 123.472  Z" fill="#ffffff" fill-rule="evenodd" fill-opacity="1"></path>
<defs>
  <clipPath id="clip122">
    <rect x="235" y="123" width="2118" height="1301"></rect>
  </clipPath>
</defs>
<polyline clip-path="url(#clip122)" style="stroke:#000000; stroke-linecap:round; stroke-linejoin:round; stroke-width:2; stroke-opacity:0.1; fill:none" points="293.214,1423.18 293.214,123.472 "></polyline>
<polyline clip-path="url(#clip122)" style="stroke:#000000; stroke-linecap:round; stroke-linejoin:round; stroke-width:2; stroke-opacity:0.1; fill:none" points="792.618,1423.18 792.618,123.472 "></polyline>
<polyline clip-path="url(#clip122)" style="stroke:#000000; stroke-linecap:round; stroke-linejoin:round; stroke-width:2; stroke-opacity:0.1; fill:none" points="1292.02,1423.18 1292.02,123.472 "></polyline>
<polyline clip-path="url(#clip122)" style="stroke:#000000; stroke-linecap:round; stroke-linejoin:round; stroke-width:2; stroke-opacity:0.1; fill:none" points="1791.43,1423.18 1791.43,123.472 "></polyline>
<polyline clip-path="url(#clip122)" style="stroke:#000000; stroke-linecap:round; stroke-linejoin:round; stroke-width:2; stroke-opacity:0.1; fill:none" points="2290.83,1423.18 2290.83,123.472 "></polyline>
<polyline clip-path="url(#clip122)" style="stroke:#000000; stroke-linecap:round; stroke-linejoin:round; stroke-width:2; stroke-opacity:0.1; fill:none" points="235.283,1384 2352.76,1384 "></polyline>
<polyline clip-path="url(#clip122)" style="stroke:#000000; stroke-linecap:round; stroke-linejoin:round; stroke-width:2; stroke-opacity:0.1; fill:none" points="235.283,1043.63 2352.76,1043.63 "></polyline>
<polyline clip-path="url(#clip122)" style="stroke:#000000; stroke-linecap:round; stroke-linejoin:round; stroke-width:2; stroke-opacity:0.1; fill:none" points="235.283,703.265 2352.76,703.265 "></polyline>
<polyline clip-path="url(#clip122)" style="stroke:#000000; stroke-linecap:round; stroke-linejoin:round; stroke-width:2; stroke-opacity:0.1; fill:none" points="235.283,362.896 2352.76,362.896 "></polyline>
<polyline clip-path="url(#clip120)" style="stroke:#000000; stroke-linecap:round; stroke-linejoin:round; stroke-width:4; stroke-opacity:1; fill:none" points="235.283,1423.18 2352.76,1423.18 "></polyline>
<polyline clip-path="url(#clip120)" style="stroke:#000000; stroke-linecap:round; stroke-linejoin:round; stroke-width:4; stroke-opacity:1; fill:none" points="293.214,1423.18 293.214,1404.28 "></polyline>
<polyline clip-path="url(#clip120)" style="stroke:#000000; stroke-linecap:round; stroke-linejoin:round; stroke-width:4; stroke-opacity:1; fill:none" points="792.618,1423.18 792.618,1404.28 "></polyline>
<polyline clip-path="url(#clip120)" style="stroke:#000000; stroke-linecap:round; stroke-linejoin:round; stroke-width:4; stroke-opacity:1; fill:none" points="1292.02,1423.18 1292.02,1404.28 "></polyline>
<polyline clip-path="url(#clip120)" style="stroke:#000000; stroke-linecap:round; stroke-linejoin:round; stroke-width:4; stroke-opacity:1; fill:none" points="1791.43,1423.18 1791.43,1404.28 "></polyline>
<polyline clip-path="url(#clip120)" style="stroke:#000000; stroke-linecap:round; stroke-linejoin:round; stroke-width:4; stroke-opacity:1; fill:none" points="2290.83,1423.18 2290.83,1404.28 "></polyline>
<path clip-path="url(#clip120)" d="M293.214 1454.1 Q289.603 1454.1 287.774 1457.66 Q285.968 1461.2 285.968 1468.33 Q285.968 1475.44 287.774 1479.01 Q289.603 1482.55 293.214 1482.55 Q296.848 1482.55 298.654 1479.01 Q300.482 1475.44 300.482 1468.33 Q300.482 1461.2 298.654 1457.66 Q296.848 1454.1 293.214 1454.1 M293.214 1450.39 Q299.024 1450.39 302.079 1455 Q305.158 1459.58 305.158 1468.33 Q305.158 1477.06 302.079 1481.67 Q299.024 1486.25 293.214 1486.25 Q287.404 1486.25 284.325 1481.67 Q281.269 1477.06 281.269 1468.33 Q281.269 1459.58 284.325 1455 Q287.404 1450.39 293.214 1450.39 Z" fill="#000000" fill-rule="nonzero" fill-opacity="1"></path><path clip-path="url(#clip120)" d="M756.31 1481.64 L772.629 1481.64 L772.629 1485.58 L750.685 1485.58 L750.685 1481.64 Q753.347 1478.89 757.93 1474.26 Q762.537 1469.61 763.717 1468.27 Q765.963 1465.74 766.842 1464.01 Q767.745 1462.25 767.745 1460.56 Q767.745 1457.8 765.801 1456.07 Q763.879 1454.33 760.778 1454.33 Q758.579 1454.33 756.125 1455.09 Q753.694 1455.86 750.917 1457.41 L750.917 1452.69 Q753.741 1451.55 756.194 1450.97 Q758.648 1450.39 760.685 1450.39 Q766.055 1450.39 769.25 1453.08 Q772.444 1455.77 772.444 1460.26 Q772.444 1462.39 771.634 1464.31 Q770.847 1466.2 768.741 1468.8 Q768.162 1469.47 765.06 1472.69 Q761.958 1475.88 756.31 1481.64 Z" fill="#000000" fill-rule="nonzero" fill-opacity="1"></path><path clip-path="url(#clip120)" d="M782.49 1451.02 L800.847 1451.02 L800.847 1454.96 L786.773 1454.96 L786.773 1463.43 Q787.791 1463.08 788.81 1462.92 Q789.828 1462.73 790.847 1462.73 Q796.634 1462.73 800.014 1465.9 Q803.393 1469.08 803.393 1474.49 Q803.393 1480.07 799.921 1483.17 Q796.449 1486.25 790.129 1486.25 Q787.953 1486.25 785.685 1485.88 Q783.44 1485.51 781.032 1484.77 L781.032 1480.07 Q783.115 1481.2 785.338 1481.76 Q787.56 1482.32 790.037 1482.32 Q794.041 1482.32 796.379 1480.21 Q798.717 1478.1 798.717 1474.49 Q798.717 1470.88 796.379 1468.77 Q794.041 1466.67 790.037 1466.67 Q788.162 1466.67 786.287 1467.08 Q784.435 1467.5 782.49 1468.38 L782.49 1451.02 Z" fill="#000000" fill-rule="nonzero" fill-opacity="1"></path><path clip-path="url(#clip120)" d="M822.606 1454.1 Q818.995 1454.1 817.166 1457.66 Q815.361 1461.2 815.361 1468.33 Q815.361 1475.44 817.166 1479.01 Q818.995 1482.55 822.606 1482.55 Q826.24 1482.55 828.046 1479.01 Q829.874 1475.44 829.874 1468.33 Q829.874 1461.2 828.046 1457.66 Q826.24 1454.1 822.606 1454.1 M822.606 1450.39 Q828.416 1450.39 831.472 1455 Q834.55 1459.58 834.55 1468.33 Q834.55 1477.06 831.472 1481.67 Q828.416 1486.25 822.606 1486.25 Q816.796 1486.25 813.717 1481.67 Q810.662 1477.06 810.662 1468.33 Q810.662 1459.58 813.717 1455 Q816.796 1450.39 822.606 1450.39 Z" fill="#000000" fill-rule="nonzero" fill-opacity="1"></path><path clip-path="url(#clip120)" d="M1251.64 1451.02 L1270 1451.02 L1270 1454.96 L1255.92 1454.96 L1255.92 1463.43 Q1256.94 1463.08 1257.96 1462.92 Q1258.98 1462.73 1260 1462.73 Q1265.78 1462.73 1269.16 1465.9 Q1272.54 1469.08 1272.54 1474.49 Q1272.54 1480.07 1269.07 1483.17 Q1265.6 1486.25 1259.28 1486.25 Q1257.1 1486.25 1254.83 1485.88 Q1252.59 1485.51 1250.18 1484.77 L1250.18 1480.07 Q1252.27 1481.2 1254.49 1481.76 Q1256.71 1482.32 1259.19 1482.32 Q1263.19 1482.32 1265.53 1480.21 Q1267.87 1478.1 1267.87 1474.49 Q1267.87 1470.88 1265.53 1468.77 Q1263.19 1466.67 1259.19 1466.67 Q1257.31 1466.67 1255.44 1467.08 Q1253.58 1467.5 1251.64 1468.38 L1251.64 1451.02 Z" fill="#000000" fill-rule="nonzero" fill-opacity="1"></path><path clip-path="url(#clip120)" d="M1291.76 1454.1 Q1288.14 1454.1 1286.32 1457.66 Q1284.51 1461.2 1284.51 1468.33 Q1284.51 1475.44 1286.32 1479.01 Q1288.14 1482.55 1291.76 1482.55 Q1295.39 1482.55 1297.2 1479.01 Q1299.02 1475.44 1299.02 1468.33 Q1299.02 1461.2 1297.2 1457.66 Q1295.39 1454.1 1291.76 1454.1 M1291.76 1450.39 Q1297.57 1450.39 1300.62 1455 Q1303.7 1459.58 1303.7 1468.33 Q1303.7 1477.06 1300.62 1481.67 Q1297.57 1486.25 1291.76 1486.25 Q1285.95 1486.25 1282.87 1481.67 Q1279.81 1477.06 1279.81 1468.33 Q1279.81 1459.58 1282.87 1455 Q1285.95 1450.39 1291.76 1450.39 Z" fill="#000000" fill-rule="nonzero" fill-opacity="1"></path><path clip-path="url(#clip120)" d="M1321.92 1454.1 Q1318.31 1454.1 1316.48 1457.66 Q1314.67 1461.2 1314.67 1468.33 Q1314.67 1475.44 1316.48 1479.01 Q1318.31 1482.55 1321.92 1482.55 Q1325.55 1482.55 1327.36 1479.01 Q1329.19 1475.44 1329.19 1468.33 Q1329.19 1461.2 1327.36 1457.66 Q1325.55 1454.1 1321.92 1454.1 M1321.92 1450.39 Q1327.73 1450.39 1330.78 1455 Q1333.86 1459.58 1333.86 1468.33 Q1333.86 1477.06 1330.78 1481.67 Q1327.73 1486.25 1321.92 1486.25 Q1316.11 1486.25 1313.03 1481.67 Q1309.97 1477.06 1309.97 1468.33 Q1309.97 1459.58 1313.03 1455 Q1316.11 1450.39 1321.92 1450.39 Z" fill="#000000" fill-rule="nonzero" fill-opacity="1"></path><path clip-path="url(#clip120)" d="M1749.7 1451.02 L1771.92 1451.02 L1771.92 1453.01 L1759.38 1485.58 L1754.49 1485.58 L1766.3 1454.96 L1749.7 1454.96 L1749.7 1451.02 Z" fill="#000000" fill-rule="nonzero" fill-opacity="1"></path><path clip-path="url(#clip120)" d="M1781.09 1451.02 L1799.45 1451.02 L1799.45 1454.96 L1785.37 1454.96 L1785.37 1463.43 Q1786.39 1463.08 1787.41 1462.92 Q1788.43 1462.73 1789.45 1462.73 Q1795.23 1462.73 1798.61 1465.9 Q1801.99 1469.08 1801.99 1474.49 Q1801.99 1480.07 1798.52 1483.17 Q1795.05 1486.25 1788.73 1486.25 Q1786.55 1486.25 1784.28 1485.88 Q1782.04 1485.51 1779.63 1484.77 L1779.63 1480.07 Q1781.72 1481.2 1783.94 1481.76 Q1786.16 1482.32 1788.64 1482.32 Q1792.64 1482.32 1794.98 1480.21 Q1797.32 1478.1 1797.32 1474.49 Q1797.32 1470.88 1794.98 1468.77 Q1792.64 1466.67 1788.64 1466.67 Q1786.76 1466.67 1784.89 1467.08 Q1783.03 1467.5 1781.09 1468.38 L1781.09 1451.02 Z" fill="#000000" fill-rule="nonzero" fill-opacity="1"></path><path clip-path="url(#clip120)" d="M1821.21 1454.1 Q1817.59 1454.1 1815.77 1457.66 Q1813.96 1461.2 1813.96 1468.33 Q1813.96 1475.44 1815.77 1479.01 Q1817.59 1482.55 1821.21 1482.55 Q1824.84 1482.55 1826.65 1479.01 Q1828.47 1475.44 1828.47 1468.33 Q1828.47 1461.2 1826.65 1457.66 Q1824.84 1454.1 1821.21 1454.1 M1821.21 1450.39 Q1827.02 1450.39 1830.07 1455 Q1833.15 1459.58 1833.15 1468.33 Q1833.15 1477.06 1830.07 1481.67 Q1827.02 1486.25 1821.21 1486.25 Q1815.4 1486.25 1812.32 1481.67 Q1809.26 1477.06 1809.26 1468.33 Q1809.26 1459.58 1812.32 1455 Q1815.4 1450.39 1821.21 1450.39 Z" fill="#000000" fill-rule="nonzero" fill-opacity="1"></path><path clip-path="url(#clip120)" d="M2235.36 1481.64 L2242.99 1481.64 L2242.99 1455.28 L2234.68 1456.95 L2234.68 1452.69 L2242.95 1451.02 L2247.62 1451.02 L2247.62 1481.64 L2255.26 1481.64 L2255.26 1485.58 L2235.36 1485.58 L2235.36 1481.64 Z" fill="#000000" fill-rule="nonzero" fill-opacity="1"></path><path clip-path="url(#clip120)" d="M2274.71 1454.1 Q2271.1 1454.1 2269.27 1457.66 Q2267.46 1461.2 2267.46 1468.33 Q2267.46 1475.44 2269.27 1479.01 Q2271.1 1482.55 2274.71 1482.55 Q2278.34 1482.55 2280.15 1479.01 Q2281.98 1475.44 2281.98 1468.33 Q2281.98 1461.2 2280.15 1457.66 Q2278.34 1454.1 2274.71 1454.1 M2274.71 1450.39 Q2280.52 1450.39 2283.57 1455 Q2286.65 1459.58 2286.65 1468.33 Q2286.65 1477.06 2283.57 1481.67 Q2280.52 1486.25 2274.71 1486.25 Q2268.9 1486.25 2265.82 1481.67 Q2262.76 1477.06 2262.76 1468.33 Q2262.76 1459.58 2265.82 1455 Q2268.9 1450.39 2274.71 1450.39 Z" fill="#000000" fill-rule="nonzero" fill-opacity="1"></path><path clip-path="url(#clip120)" d="M2304.87 1454.1 Q2301.26 1454.1 2299.43 1457.66 Q2297.62 1461.2 2297.62 1468.33 Q2297.62 1475.44 2299.43 1479.01 Q2301.26 1482.55 2304.87 1482.55 Q2308.5 1482.55 2310.31 1479.01 Q2312.14 1475.44 2312.14 1468.33 Q2312.14 1461.2 2310.31 1457.66 Q2308.5 1454.1 2304.87 1454.1 M2304.87 1450.39 Q2310.68 1450.39 2313.73 1455 Q2316.81 1459.58 2316.81 1468.33 Q2316.81 1477.06 2313.73 1481.67 Q2310.68 1486.25 2304.87 1486.25 Q2299.06 1486.25 2295.98 1481.67 Q2292.92 1477.06 2292.92 1468.33 Q2292.92 1459.58 2295.98 1455 Q2299.06 1450.39 2304.87 1450.39 Z" fill="#000000" fill-rule="nonzero" fill-opacity="1"></path><path clip-path="url(#clip120)" d="M2335.03 1454.1 Q2331.42 1454.1 2329.59 1457.66 Q2327.79 1461.2 2327.79 1468.33 Q2327.79 1475.44 2329.59 1479.01 Q2331.42 1482.55 2335.03 1482.55 Q2338.67 1482.55 2340.47 1479.01 Q2342.3 1475.44 2342.3 1468.33 Q2342.3 1461.2 2340.47 1457.66 Q2338.67 1454.1 2335.03 1454.1 M2335.03 1450.39 Q2340.84 1450.39 2343.9 1455 Q2346.98 1459.58 2346.98 1468.33 Q2346.98 1477.06 2343.9 1481.67 Q2340.84 1486.25 2335.03 1486.25 Q2329.22 1486.25 2326.14 1481.67 Q2323.09 1477.06 2323.09 1468.33 Q2323.09 1459.58 2326.14 1455 Q2329.22 1450.39 2335.03 1450.39 Z" fill="#000000" fill-rule="nonzero" fill-opacity="1"></path><path clip-path="url(#clip120)" d="M1233.18 1522.27 L1233.18 1532.4 L1245.24 1532.4 L1245.24 1536.95 L1233.18 1536.95 L1233.18 1556.3 Q1233.18 1560.66 1234.36 1561.9 Q1235.57 1563.14 1239.23 1563.14 L1245.24 1563.14 L1245.24 1568.04 L1239.23 1568.04 Q1232.45 1568.04 1229.87 1565.53 Q1227.29 1562.98 1227.29 1556.3 L1227.29 1536.95 L1222.99 1536.95 L1222.99 1532.4 L1227.29 1532.4 L1227.29 1522.27 L1233.18 1522.27 Z" fill="#000000" fill-rule="nonzero" fill-opacity="1"></path><path clip-path="url(#clip120)" d="M1252.94 1532.4 L1258.8 1532.4 L1258.8 1568.04 L1252.94 1568.04 L1252.94 1532.4 M1252.94 1518.52 L1258.8 1518.52 L1258.8 1525.93 L1252.94 1525.93 L1252.94 1518.52 Z" fill="#000000" fill-rule="nonzero" fill-opacity="1"></path><path clip-path="url(#clip120)" d="M1298.81 1539.24 Q1301.01 1535.29 1304.06 1533.41 Q1307.12 1531.54 1311.25 1531.54 Q1316.82 1531.54 1319.85 1535.45 Q1322.87 1539.33 1322.87 1546.53 L1322.87 1568.04 L1316.98 1568.04 L1316.98 1546.72 Q1316.98 1541.59 1315.17 1539.11 Q1313.36 1536.63 1309.63 1536.63 Q1305.08 1536.63 1302.44 1539.65 Q1299.8 1542.68 1299.8 1547.9 L1299.8 1568.04 L1293.91 1568.04 L1293.91 1546.72 Q1293.91 1541.56 1292.09 1539.11 Q1290.28 1536.63 1286.49 1536.63 Q1282 1536.63 1279.36 1539.68 Q1276.72 1542.71 1276.72 1547.9 L1276.72 1568.04 L1270.83 1568.04 L1270.83 1532.4 L1276.72 1532.4 L1276.72 1537.93 Q1278.73 1534.66 1281.53 1533.1 Q1284.33 1531.54 1288.18 1531.54 Q1292.06 1531.54 1294.77 1533.51 Q1297.5 1535.48 1298.81 1539.24 Z" fill="#000000" fill-rule="nonzero" fill-opacity="1"></path><path clip-path="url(#clip120)" d="M1365.04 1548.76 L1365.04 1551.62 L1338.12 1551.62 Q1338.5 1557.67 1341.75 1560.85 Q1345.02 1564 1350.85 1564 Q1354.22 1564 1357.37 1563.17 Q1360.56 1562.35 1363.68 1560.69 L1363.68 1566.23 Q1360.53 1567.57 1357.21 1568.27 Q1353.9 1568.97 1350.5 1568.97 Q1341.97 1568.97 1336.97 1564 Q1332.01 1559.04 1332.01 1550.57 Q1332.01 1541.82 1336.72 1536.69 Q1341.46 1531.54 1349.48 1531.54 Q1356.67 1531.54 1360.84 1536.18 Q1365.04 1540.8 1365.04 1548.76 M1359.19 1547.04 Q1359.12 1542.23 1356.48 1539.37 Q1353.87 1536.5 1349.54 1536.5 Q1344.64 1536.5 1341.68 1539.27 Q1338.75 1542.04 1338.31 1547.07 L1359.19 1547.04 Z" fill="#000000" fill-rule="nonzero" fill-opacity="1"></path><polyline clip-path="url(#clip120)" style="stroke:#000000; stroke-linecap:round; stroke-linejoin:round; stroke-width:4; stroke-opacity:1; fill:none" points="235.283,1423.18 235.283,123.472 "></polyline>
<polyline clip-path="url(#clip120)" style="stroke:#000000; stroke-linecap:round; stroke-linejoin:round; stroke-width:4; stroke-opacity:1; fill:none" points="235.283,1384 254.18,1384 "></polyline>
<polyline clip-path="url(#clip120)" style="stroke:#000000; stroke-linecap:round; stroke-linejoin:round; stroke-width:4; stroke-opacity:1; fill:none" points="235.283,1043.63 254.18,1043.63 "></polyline>
<polyline clip-path="url(#clip120)" style="stroke:#000000; stroke-linecap:round; stroke-linejoin:round; stroke-width:4; stroke-opacity:1; fill:none" points="235.283,703.265 254.18,703.265 "></polyline>
<polyline clip-path="url(#clip120)" style="stroke:#000000; stroke-linecap:round; stroke-linejoin:round; stroke-width:4; stroke-opacity:1; fill:none" points="235.283,362.896 254.18,362.896 "></polyline>
<path clip-path="url(#clip120)" d="M187.338 1369.8 Q183.727 1369.8 181.899 1373.37 Q180.093 1376.91 180.093 1384.04 Q180.093 1391.14 181.899 1394.71 Q183.727 1398.25 187.338 1398.25 Q190.973 1398.25 192.778 1394.71 Q194.607 1391.14 194.607 1384.04 Q194.607 1376.91 192.778 1373.37 Q190.973 1369.8 187.338 1369.8 M187.338 1366.1 Q193.149 1366.1 196.204 1370.7 Q199.283 1375.29 199.283 1384.04 Q199.283 1392.76 196.204 1397.37 Q193.149 1401.95 187.338 1401.95 Q181.528 1401.95 178.45 1397.37 Q175.394 1392.76 175.394 1384.04 Q175.394 1375.29 178.45 1370.7 Q181.528 1366.1 187.338 1366.1 Z" fill="#000000" fill-rule="nonzero" fill-opacity="1"></path><path clip-path="url(#clip120)" d="M121.043 1056.98 L137.362 1056.98 L137.362 1060.91 L115.418 1060.91 L115.418 1056.98 Q118.08 1054.22 122.663 1049.59 Q127.269 1044.94 128.45 1043.6 Q130.695 1041.08 131.575 1039.34 Q132.478 1037.58 132.478 1035.89 Q132.478 1033.14 130.533 1031.4 Q128.612 1029.66 125.51 1029.66 Q123.311 1029.66 120.857 1030.43 Q118.427 1031.19 115.649 1032.74 L115.649 1028.02 Q118.473 1026.89 120.927 1026.31 Q123.38 1025.73 125.418 1025.73 Q130.788 1025.73 133.982 1028.41 Q137.177 1031.1 137.177 1035.59 Q137.177 1037.72 136.367 1039.64 Q135.579 1041.54 133.473 1044.13 Q132.894 1044.8 129.792 1048.02 Q126.691 1051.22 121.043 1056.98 Z" fill="#000000" fill-rule="nonzero" fill-opacity="1"></path><path clip-path="url(#clip120)" d="M157.177 1029.43 Q153.566 1029.43 151.737 1033 Q149.931 1036.54 149.931 1043.67 Q149.931 1050.78 151.737 1054.34 Q153.566 1057.88 157.177 1057.88 Q160.811 1057.88 162.616 1054.34 Q164.445 1050.78 164.445 1043.67 Q164.445 1036.54 162.616 1033 Q160.811 1029.43 157.177 1029.43 M157.177 1025.73 Q162.987 1025.73 166.042 1030.34 Q169.121 1034.92 169.121 1043.67 Q169.121 1052.4 166.042 1057 Q162.987 1061.59 157.177 1061.59 Q151.366 1061.59 148.288 1057 Q145.232 1052.4 145.232 1043.67 Q145.232 1034.92 148.288 1030.34 Q151.366 1025.73 157.177 1025.73 Z" fill="#000000" fill-rule="nonzero" fill-opacity="1"></path><path clip-path="url(#clip120)" d="M187.338 1029.43 Q183.727 1029.43 181.899 1033 Q180.093 1036.54 180.093 1043.67 Q180.093 1050.78 181.899 1054.34 Q183.727 1057.88 187.338 1057.88 Q190.973 1057.88 192.778 1054.34 Q194.607 1050.78 194.607 1043.67 Q194.607 1036.54 192.778 1033 Q190.973 1029.43 187.338 1029.43 M187.338 1025.73 Q193.149 1025.73 196.204 1030.34 Q199.283 1034.92 199.283 1043.67 Q199.283 1052.4 196.204 1057 Q193.149 1061.59 187.338 1061.59 Q181.528 1061.59 178.45 1057 Q175.394 1052.4 175.394 1043.67 Q175.394 1034.92 178.45 1030.34 Q181.528 1025.73 187.338 1025.73 Z" fill="#000000" fill-rule="nonzero" fill-opacity="1"></path><path clip-path="url(#clip120)" d="M129.862 690.059 L118.056 708.508 L129.862 708.508 L129.862 690.059 M128.635 685.985 L134.515 685.985 L134.515 708.508 L139.445 708.508 L139.445 712.397 L134.515 712.397 L134.515 720.545 L129.862 720.545 L129.862 712.397 L114.26 712.397 L114.26 707.883 L128.635 685.985 Z" fill="#000000" fill-rule="nonzero" fill-opacity="1"></path><path clip-path="url(#clip120)" d="M157.177 689.064 Q153.566 689.064 151.737 692.629 Q149.931 696.17 149.931 703.3 Q149.931 710.406 151.737 713.971 Q153.566 717.513 157.177 717.513 Q160.811 717.513 162.616 713.971 Q164.445 710.406 164.445 703.3 Q164.445 696.17 162.616 692.629 Q160.811 689.064 157.177 689.064 M157.177 685.36 Q162.987 685.36 166.042 689.966 Q169.121 694.55 169.121 703.3 Q169.121 712.027 166.042 716.633 Q162.987 721.216 157.177 721.216 Q151.366 721.216 148.288 716.633 Q145.232 712.027 145.232 703.3 Q145.232 694.55 148.288 689.966 Q151.366 685.36 157.177 685.36 Z" fill="#000000" fill-rule="nonzero" fill-opacity="1"></path><path clip-path="url(#clip120)" d="M187.338 689.064 Q183.727 689.064 181.899 692.629 Q180.093 696.17 180.093 703.3 Q180.093 710.406 181.899 713.971 Q183.727 717.513 187.338 717.513 Q190.973 717.513 192.778 713.971 Q194.607 710.406 194.607 703.3 Q194.607 696.17 192.778 692.629 Q190.973 689.064 187.338 689.064 M187.338 685.36 Q193.149 685.36 196.204 689.966 Q199.283 694.55 199.283 703.3 Q199.283 712.027 196.204 716.633 Q193.149 721.216 187.338 721.216 Q181.528 721.216 178.45 716.633 Q175.394 712.027 175.394 703.3 Q175.394 694.55 178.45 689.966 Q181.528 685.36 187.338 685.36 Z" fill="#000000" fill-rule="nonzero" fill-opacity="1"></path><path clip-path="url(#clip120)" d="M127.593 361.033 Q124.445 361.033 122.593 363.185 Q120.765 365.338 120.765 369.088 Q120.765 372.815 122.593 374.991 Q124.445 377.144 127.593 377.144 Q130.742 377.144 132.57 374.991 Q134.422 372.815 134.422 369.088 Q134.422 365.338 132.57 363.185 Q130.742 361.033 127.593 361.033 M136.876 346.38 L136.876 350.639 Q135.117 349.806 133.311 349.366 Q131.529 348.926 129.769 348.926 Q125.14 348.926 122.686 352.051 Q120.255 355.176 119.908 361.496 Q121.274 359.482 123.334 358.417 Q125.394 357.329 127.871 357.329 Q133.08 357.329 136.089 360.5 Q139.121 363.648 139.121 369.088 Q139.121 374.412 135.973 377.63 Q132.825 380.847 127.593 380.847 Q121.598 380.847 118.427 376.264 Q115.256 371.657 115.256 362.931 Q115.256 354.736 119.144 349.875 Q123.033 344.991 129.584 344.991 Q131.343 344.991 133.126 345.338 Q134.931 345.685 136.876 346.38 Z" fill="#000000" fill-rule="nonzero" fill-opacity="1"></path><path clip-path="url(#clip120)" d="M157.177 348.695 Q153.566 348.695 151.737 352.259 Q149.931 355.801 149.931 362.931 Q149.931 370.037 151.737 373.602 Q153.566 377.144 157.177 377.144 Q160.811 377.144 162.616 373.602 Q164.445 370.037 164.445 362.931 Q164.445 355.801 162.616 352.259 Q160.811 348.695 157.177 348.695 M157.177 344.991 Q162.987 344.991 166.042 349.597 Q169.121 354.181 169.121 362.931 Q169.121 371.657 166.042 376.264 Q162.987 380.847 157.177 380.847 Q151.366 380.847 148.288 376.264 Q145.232 371.657 145.232 362.931 Q145.232 354.181 148.288 349.597 Q151.366 344.991 157.177 344.991 Z" fill="#000000" fill-rule="nonzero" fill-opacity="1"></path><path clip-path="url(#clip120)" d="M187.338 348.695 Q183.727 348.695 181.899 352.259 Q180.093 355.801 180.093 362.931 Q180.093 370.037 181.899 373.602 Q183.727 377.144 187.338 377.144 Q190.973 377.144 192.778 373.602 Q194.607 370.037 194.607 362.931 Q194.607 355.801 192.778 352.259 Q190.973 348.695 187.338 348.695 M187.338 344.991 Q193.149 344.991 196.204 349.597 Q199.283 354.181 199.283 362.931 Q199.283 371.657 196.204 376.264 Q193.149 380.847 187.338 380.847 Q181.528 380.847 178.45 376.264 Q175.394 371.657 175.394 362.931 Q175.394 354.181 178.45 349.597 Q181.528 344.991 187.338 344.991 Z" fill="#000000" fill-rule="nonzero" fill-opacity="1"></path><path clip-path="url(#clip120)" d="M44.7161 911.525 L47.5806 911.525 L47.5806 938.452 Q53.6281 938.07 56.8109 934.824 Q59.9619 931.546 59.9619 925.721 Q59.9619 922.347 59.1344 919.196 Q58.3069 916.013 56.6518 912.894 L62.1899 912.894 Q63.5267 916.045 64.227 919.355 Q64.9272 922.665 64.9272 926.071 Q64.9272 934.601 59.9619 939.598 Q54.9967 944.563 46.5303 944.563 Q37.7774 944.563 32.6531 939.853 Q27.4968 935.11 27.4968 927.09 Q27.4968 919.896 32.1438 915.727 Q36.7589 911.525 44.7161 911.525 M42.9973 917.382 Q38.1912 917.446 35.3266 920.087 Q32.4621 922.697 32.4621 927.026 Q32.4621 931.928 35.2312 934.888 Q38.0002 937.816 43.0292 938.261 L42.9973 917.382 Z" fill="#000000" fill-rule="nonzero" fill-opacity="1"></path><path clip-path="url(#clip120)" d="M28.3562 873.427 L45.7028 886.317 L64.0042 872.758 L64.0042 879.665 L49.9996 890.041 L64.0042 900.417 L64.0042 907.324 L45.3526 893.479 L28.3562 906.146 L28.3562 899.24 L41.0558 889.787 L28.3562 880.334 L28.3562 873.427 Z" fill="#000000" fill-rule="nonzero" fill-opacity="1"></path><path clip-path="url(#clip120)" d="M58.657 858.817 L77.5631 858.817 L77.5631 864.706 L28.3562 864.706 L28.3562 858.817 L33.7671 858.817 Q30.5842 856.971 29.0564 854.17 Q27.4968 851.338 27.4968 847.423 Q27.4968 840.93 32.6531 836.888 Q37.8093 832.814 46.212 832.814 Q54.6147 832.814 59.771 836.888 Q64.9272 840.93 64.9272 847.423 Q64.9272 851.338 63.3994 854.17 Q61.8398 856.971 58.657 858.817 M46.212 838.893 Q39.7508 838.893 36.0905 841.566 Q32.3984 844.208 32.3984 848.855 Q32.3984 853.502 36.0905 856.176 Q39.7508 858.817 46.212 858.817 Q52.6732 858.817 56.3653 856.176 Q60.0256 853.502 60.0256 848.855 Q60.0256 844.208 56.3653 841.566 Q52.6732 838.893 46.212 838.893 Z" fill="#000000" fill-rule="nonzero" fill-opacity="1"></path><path clip-path="url(#clip120)" d="M33.8307 802.449 Q33.2578 803.436 33.0032 804.613 Q32.7167 805.759 32.7167 807.16 Q32.7167 812.125 35.9632 814.799 Q39.1779 817.44 45.2253 817.44 L64.0042 817.44 L64.0042 823.329 L28.3562 823.329 L28.3562 817.44 L33.8944 817.44 Q30.6479 815.594 29.0883 812.634 Q27.4968 809.674 27.4968 805.441 Q27.4968 804.836 27.5923 804.104 Q27.656 803.372 27.8151 802.481 L33.8307 802.449 Z" fill="#000000" fill-rule="nonzero" fill-opacity="1"></path><path clip-path="url(#clip120)" d="M44.7161 767.247 L47.5806 767.247 L47.5806 794.174 Q53.6281 793.792 56.8109 790.545 Q59.9619 787.267 59.9619 781.442 Q59.9619 778.068 59.1344 774.917 Q58.3069 771.735 56.6518 768.615 L62.1899 768.615 Q63.5267 771.766 64.227 775.077 Q64.9272 778.387 64.9272 781.792 Q64.9272 790.322 59.9619 795.32 Q54.9967 800.285 46.5303 800.285 Q37.7774 800.285 32.6531 795.574 Q27.4968 790.832 27.4968 782.811 Q27.4968 775.618 32.1438 771.448 Q36.7589 767.247 44.7161 767.247 M42.9973 773.103 Q38.1912 773.167 35.3266 775.809 Q32.4621 778.419 32.4621 782.747 Q32.4621 787.649 35.2312 790.609 Q38.0002 793.537 43.0292 793.983 L42.9973 773.103 Z" fill="#000000" fill-rule="nonzero" fill-opacity="1"></path><path clip-path="url(#clip120)" d="M29.4065 734.909 L34.9447 734.909 Q33.6716 737.392 33.035 740.065 Q32.3984 742.739 32.3984 745.603 Q32.3984 749.964 33.7352 752.16 Q35.072 754.324 37.7456 754.324 Q39.7826 754.324 40.9603 752.765 Q42.1061 751.205 43.1565 746.495 L43.6021 744.489 Q44.9389 738.251 47.3897 735.641 Q49.8086 732.999 54.1691 732.999 Q59.1344 732.999 62.0308 736.946 Q64.9272 740.861 64.9272 747.736 Q64.9272 750.6 64.3543 753.72 Q63.8132 756.807 62.6992 760.244 L56.6518 760.244 Q58.3387 756.998 59.198 753.847 Q60.0256 750.696 60.0256 747.609 Q60.0256 743.471 58.6251 741.243 Q57.1929 739.015 54.6147 739.015 Q52.2276 739.015 50.9545 740.638 Q49.6813 742.23 48.5037 747.672 L48.0262 749.709 Q46.8804 755.152 44.5251 757.571 Q42.138 759.99 38.0002 759.99 Q32.9713 759.99 30.2341 756.425 Q27.4968 752.86 27.4968 746.304 Q27.4968 743.057 27.9743 740.192 Q28.4517 737.328 29.4065 734.909 Z" fill="#000000" fill-rule="nonzero" fill-opacity="1"></path><path clip-path="url(#clip120)" d="M29.4065 700.948 L34.9447 700.948 Q33.6716 703.431 33.035 706.104 Q32.3984 708.778 32.3984 711.642 Q32.3984 716.003 33.7352 718.199 Q35.072 720.363 37.7456 720.363 Q39.7826 720.363 40.9603 718.804 Q42.1061 717.244 43.1565 712.533 L43.6021 710.528 Q44.9389 704.29 47.3897 701.68 Q49.8086 699.038 54.1691 699.038 Q59.1344 699.038 62.0308 702.985 Q64.9272 706.9 64.9272 713.775 Q64.9272 716.639 64.3543 719.759 Q63.8132 722.846 62.6992 726.283 L56.6518 726.283 Q58.3387 723.037 59.198 719.886 Q60.0256 716.735 60.0256 713.647 Q60.0256 709.51 58.6251 707.282 Q57.1929 705.054 54.6147 705.054 Q52.2276 705.054 50.9545 706.677 Q49.6813 708.268 48.5037 713.711 L48.0262 715.748 Q46.8804 721.191 44.5251 723.61 Q42.138 726.029 38.0002 726.029 Q32.9713 726.029 30.2341 722.464 Q27.4968 718.899 27.4968 712.343 Q27.4968 709.096 27.9743 706.231 Q28.4517 703.367 29.4065 700.948 Z" fill="#000000" fill-rule="nonzero" fill-opacity="1"></path><path clip-path="url(#clip120)" d="M28.3562 689.712 L28.3562 683.856 L64.0042 683.856 L64.0042 689.712 L28.3562 689.712 M14.479 689.712 L14.479 683.856 L21.895 683.856 L21.895 689.712 L14.479 689.712 Z" fill="#000000" fill-rule="nonzero" fill-opacity="1"></path><path clip-path="url(#clip120)" d="M32.4621 657.788 Q32.4621 662.499 36.1542 665.236 Q39.8145 667.974 46.212 667.974 Q52.6095 667.974 56.3017 665.268 Q59.9619 662.531 59.9619 657.788 Q59.9619 653.11 56.2698 650.372 Q52.5777 647.635 46.212 647.635 Q39.8781 647.635 36.186 650.372 Q32.4621 653.11 32.4621 657.788 M27.4968 657.788 Q27.4968 650.15 32.4621 645.789 Q37.4273 641.429 46.212 641.429 Q54.9649 641.429 59.9619 645.789 Q64.9272 650.15 64.9272 657.788 Q64.9272 665.459 59.9619 669.82 Q54.9649 674.148 46.212 674.148 Q37.4273 674.148 32.4621 669.82 Q27.4968 665.459 27.4968 657.788 Z" fill="#000000" fill-rule="nonzero" fill-opacity="1"></path><path clip-path="url(#clip120)" d="M42.4881 602.088 L64.0042 602.088 L64.0042 607.945 L42.679 607.945 Q37.6183 607.945 35.1038 609.918 Q32.5894 611.892 32.5894 615.838 Q32.5894 620.581 35.6131 623.318 Q38.6368 626.055 43.8567 626.055 L64.0042 626.055 L64.0042 631.944 L28.3562 631.944 L28.3562 626.055 L33.8944 626.055 Q30.6797 623.955 29.0883 621.122 Q27.4968 618.257 27.4968 614.533 Q27.4968 608.391 31.3163 605.24 Q35.1038 602.088 42.4881 602.088 Z" fill="#000000" fill-rule="nonzero" fill-opacity="1"></path><path clip-path="url(#clip120)" d="M897.193 39.075 Q891.684 39.075 888.443 42.8424 Q885.243 46.6097 885.243 53.1722 Q885.243 59.6941 888.443 63.502 Q891.684 67.2693 897.193 67.2693 Q902.702 67.2693 905.902 63.502 Q909.143 59.6941 909.143 53.1722 Q909.143 46.6097 905.902 42.8424 Q902.702 39.075 897.193 39.075 M913.437 13.4328 L913.437 20.8865 Q910.358 19.4281 907.199 18.6585 Q904.079 17.8888 901.001 17.8888 Q892.899 17.8888 888.605 23.3575 Q884.351 28.8262 883.744 39.8852 Q886.134 36.3609 889.739 34.4975 Q893.344 32.5936 897.679 32.5936 Q906.793 32.5936 912.06 38.1433 Q917.366 43.6525 917.366 53.1722 Q917.366 62.4892 911.857 68.12 Q906.348 73.7508 897.193 73.7508 Q886.701 73.7508 881.151 65.73 Q875.601 57.6687 875.601 42.3968 Q875.601 28.0566 882.407 19.5497 Q889.213 11.0023 900.677 11.0023 Q903.755 11.0023 906.874 11.6099 Q910.034 12.2175 913.437 13.4328 Z" fill="#000000" fill-rule="nonzero" fill-opacity="1"></path><path clip-path="url(#clip120)" d="M974.363 32.4315 Q968.367 32.4315 964.883 37.1306 Q961.4 41.7891 961.4 49.9314 Q961.4 58.0738 964.843 62.7728 Q968.327 67.4314 974.363 67.4314 Q980.317 67.4314 983.801 62.7323 Q987.285 58.0333 987.285 49.9314 Q987.285 41.8701 983.801 37.1711 Q980.317 32.4315 974.363 32.4315 M974.363 26.1121 Q984.085 26.1121 989.634 32.4315 Q995.184 38.7509 995.184 49.9314 Q995.184 61.0714 989.634 67.4314 Q984.085 73.7508 974.363 73.7508 Q964.6 73.7508 959.05 67.4314 Q953.541 61.0714 953.541 49.9314 Q953.541 38.7509 959.05 32.4315 Q964.6 26.1121 974.363 26.1121 Z" fill="#000000" fill-rule="nonzero" fill-opacity="1"></path><path clip-path="url(#clip120)" d="M1036.46 28.5427 L1036.46 35.5912 Q1033.3 33.9709 1029.9 33.1607 Q1026.5 32.3505 1022.85 32.3505 Q1017.3 32.3505 1014.51 34.0519 Q1011.75 35.7533 1011.75 39.156 Q1011.75 41.7486 1013.74 43.2475 Q1015.72 44.7058 1021.72 46.0426 L1024.27 46.6097 Q1032.21 48.3111 1035.53 51.4303 Q1038.89 54.509 1038.89 60.0587 Q1038.89 66.3781 1033.87 70.0644 Q1028.89 73.7508 1020.14 73.7508 Q1016.49 73.7508 1012.52 73.0216 Q1008.59 72.3329 1004.22 70.9151 L1004.22 63.2184 Q1008.35 65.3654 1012.36 66.4591 Q1016.37 67.5124 1020.3 67.5124 Q1025.57 67.5124 1028.4 65.73 Q1031.24 63.9071 1031.24 60.6258 Q1031.24 57.5877 1029.17 55.9673 Q1027.15 54.3469 1020.22 52.8481 L1017.63 52.2405 Q1010.7 50.7821 1007.62 47.7845 Q1004.54 44.7463 1004.54 39.4801 Q1004.54 33.0797 1009.08 29.5959 Q1013.62 26.1121 1021.96 26.1121 Q1026.09 26.1121 1029.74 26.7198 Q1033.38 27.3274 1036.46 28.5427 Z" fill="#000000" fill-rule="nonzero" fill-opacity="1"></path><path clip-path="url(#clip120)" d="M1083.41 28.9478 L1083.41 35.9153 Q1080.25 34.1734 1077.05 33.3227 Q1073.89 32.4315 1070.65 32.4315 Q1063.4 32.4315 1059.39 37.0496 Q1055.38 41.6271 1055.38 49.9314 Q1055.38 58.2358 1059.39 62.8538 Q1063.4 67.4314 1070.65 67.4314 Q1073.89 67.4314 1077.05 66.5807 Q1080.25 65.6895 1083.41 63.9476 L1083.41 70.8341 Q1080.29 72.2924 1076.93 73.0216 Q1073.61 73.7508 1069.84 73.7508 Q1059.59 73.7508 1053.56 67.3098 Q1047.52 60.8689 1047.52 49.9314 Q1047.52 38.832 1053.6 32.472 Q1059.72 26.1121 1070.33 26.1121 Q1073.77 26.1121 1077.05 26.8413 Q1080.33 27.5299 1083.41 28.9478 Z" fill="#000000" fill-rule="nonzero" fill-opacity="1"></path><path clip-path="url(#clip120)" d="M1096.38 27.2059 L1103.83 27.2059 L1103.83 72.576 L1096.38 72.576 L1096.38 27.2059 M1096.38 9.54393 L1103.83 9.54393 L1103.83 18.9825 L1096.38 18.9825 L1096.38 9.54393 Z" fill="#000000" fill-rule="nonzero" fill-opacity="1"></path><path clip-path="url(#clip120)" d="M1119.43 9.54393 L1126.88 9.54393 L1126.88 72.576 L1119.43 72.576 L1119.43 9.54393 Z" fill="#000000" fill-rule="nonzero" fill-opacity="1"></path><path clip-path="url(#clip120)" d="M1163.09 49.7694 Q1154.06 49.7694 1150.58 51.8354 Q1147.09 53.9013 1147.09 58.8839 Q1147.09 62.8538 1149.69 65.2034 Q1152.32 67.5124 1156.82 67.5124 Q1163.01 67.5124 1166.74 63.1374 Q1170.51 58.7219 1170.51 51.4303 L1170.51 49.7694 L1163.09 49.7694 M1177.96 46.6907 L1177.96 72.576 L1170.51 72.576 L1170.51 65.6895 Q1167.96 69.8214 1164.15 71.8063 Q1160.34 73.7508 1154.83 73.7508 Q1147.86 73.7508 1143.73 69.8619 Q1139.64 65.9325 1139.64 59.3701 Q1139.64 51.7138 1144.74 47.825 Q1149.89 43.9361 1160.06 43.9361 L1170.51 43.9361 L1170.51 43.2069 Q1170.51 38.0623 1167.1 35.2672 Q1163.74 32.4315 1157.63 32.4315 Q1153.74 32.4315 1150.05 33.3632 Q1146.36 34.295 1142.96 36.1584 L1142.96 29.2718 Q1147.05 27.692 1150.9 26.9223 Q1154.75 26.1121 1158.4 26.1121 Q1168.24 26.1121 1173.1 31.2163 Q1177.96 36.3204 1177.96 46.6907 Z" fill="#000000" fill-rule="nonzero" fill-opacity="1"></path><path clip-path="url(#clip120)" d="M1200.69 14.324 L1200.69 27.2059 L1216.04 27.2059 L1216.04 32.9987 L1200.69 32.9987 L1200.69 57.6282 Q1200.69 63.1779 1202.19 64.7578 Q1203.72 66.3376 1208.38 66.3376 L1216.04 66.3376 L1216.04 72.576 L1208.38 72.576 Q1199.75 72.576 1196.47 69.3758 Q1193.19 66.1351 1193.19 57.6282 L1193.19 32.9987 L1187.72 32.9987 L1187.72 27.2059 L1193.19 27.2059 L1193.19 14.324 L1200.69 14.324 Z" fill="#000000" fill-rule="nonzero" fill-opacity="1"></path><path clip-path="url(#clip120)" d="M1225.84 27.2059 L1233.3 27.2059 L1233.3 72.576 L1225.84 72.576 L1225.84 27.2059 M1225.84 9.54393 L1233.3 9.54393 L1233.3 18.9825 L1225.84 18.9825 L1225.84 9.54393 Z" fill="#000000" fill-rule="nonzero" fill-opacity="1"></path><path clip-path="url(#clip120)" d="M1266.47 32.4315 Q1260.48 32.4315 1256.99 37.1306 Q1253.51 41.7891 1253.51 49.9314 Q1253.51 58.0738 1256.95 62.7728 Q1260.44 67.4314 1266.47 67.4314 Q1272.43 67.4314 1275.91 62.7323 Q1279.4 58.0333 1279.4 49.9314 Q1279.4 41.8701 1275.91 37.1711 Q1272.43 32.4315 1266.47 32.4315 M1266.47 26.1121 Q1276.2 26.1121 1281.75 32.4315 Q1287.29 38.7509 1287.29 49.9314 Q1287.29 61.0714 1281.75 67.4314 Q1276.2 73.7508 1266.47 73.7508 Q1256.71 73.7508 1251.16 67.4314 Q1245.65 61.0714 1245.65 49.9314 Q1245.65 38.7509 1251.16 32.4315 Q1256.71 26.1121 1266.47 26.1121 Z" fill="#000000" fill-rule="nonzero" fill-opacity="1"></path><path clip-path="url(#clip120)" d="M1337.36 45.1919 L1337.36 72.576 L1329.91 72.576 L1329.91 45.4349 Q1329.91 38.994 1327.4 35.7938 Q1324.89 32.5936 1319.86 32.5936 Q1313.83 32.5936 1310.34 36.4419 Q1306.86 40.2903 1306.86 46.9338 L1306.86 72.576 L1299.37 72.576 L1299.37 27.2059 L1306.86 27.2059 L1306.86 34.2544 Q1309.53 30.163 1313.14 28.1376 Q1316.79 26.1121 1321.53 26.1121 Q1329.34 26.1121 1333.35 30.9732 Q1337.36 35.7938 1337.36 45.1919 Z" fill="#000000" fill-rule="nonzero" fill-opacity="1"></path><path clip-path="url(#clip120)" d="M1381.15 28.5427 L1381.15 35.5912 Q1377.99 33.9709 1374.59 33.1607 Q1371.19 32.3505 1367.54 32.3505 Q1361.99 32.3505 1359.2 34.0519 Q1356.44 35.7533 1356.44 39.156 Q1356.44 41.7486 1358.43 43.2475 Q1360.41 44.7058 1366.41 46.0426 L1368.96 46.6097 Q1376.9 48.3111 1380.22 51.4303 Q1383.58 54.509 1383.58 60.0587 Q1383.58 66.3781 1378.56 70.0644 Q1373.58 73.7508 1364.83 73.7508 Q1361.18 73.7508 1357.21 73.0216 Q1353.28 72.3329 1348.91 70.9151 L1348.91 63.2184 Q1353.04 65.3654 1357.05 66.4591 Q1361.06 67.5124 1364.99 67.5124 Q1370.26 67.5124 1373.09 65.73 Q1375.93 63.9071 1375.93 60.6258 Q1375.93 57.5877 1373.86 55.9673 Q1371.84 54.3469 1364.91 52.8481 L1362.32 52.2405 Q1355.39 50.7821 1352.31 47.7845 Q1349.23 44.7463 1349.23 39.4801 Q1349.23 33.0797 1353.77 29.5959 Q1358.31 26.1121 1366.65 26.1121 Q1370.78 26.1121 1374.43 26.7198 Q1378.08 27.3274 1381.15 28.5427 Z" fill="#000000" fill-rule="nonzero" fill-opacity="1"></path><path clip-path="url(#clip120)" d="M1451.68 34.0924 L1451.68 9.54393 L1459.13 9.54393 L1459.13 72.576 L1451.68 72.576 L1451.68 65.7705 Q1449.33 69.8214 1445.73 71.8063 Q1442.16 73.7508 1437.14 73.7508 Q1428.91 73.7508 1423.73 67.1883 Q1418.58 60.6258 1418.58 49.9314 Q1418.58 39.2371 1423.73 32.6746 Q1428.91 26.1121 1437.14 26.1121 Q1442.16 26.1121 1445.73 28.0971 Q1449.33 30.0415 1451.68 34.0924 M1426.28 49.9314 Q1426.28 58.1548 1429.64 62.8538 Q1433.05 67.5124 1438.96 67.5124 Q1444.88 67.5124 1448.28 62.8538 Q1451.68 58.1548 1451.68 49.9314 Q1451.68 41.7081 1448.28 37.0496 Q1444.88 32.3505 1438.96 32.3505 Q1433.05 32.3505 1429.64 37.0496 Q1426.28 41.7081 1426.28 49.9314 Z" fill="#000000" fill-rule="nonzero" fill-opacity="1"></path><path clip-path="url(#clip120)" d="M1513.29 48.0275 L1513.29 51.6733 L1479.02 51.6733 Q1479.51 59.3701 1483.64 63.421 Q1487.81 67.4314 1495.23 67.4314 Q1499.52 67.4314 1503.53 66.3781 Q1507.58 65.3249 1511.55 63.2184 L1511.55 70.267 Q1507.54 71.9684 1503.33 72.8596 Q1499.12 73.7508 1494.78 73.7508 Q1483.93 73.7508 1477.57 67.4314 Q1471.25 61.1119 1471.25 50.3365 Q1471.25 39.1965 1477.24 32.6746 Q1483.28 26.1121 1493.49 26.1121 Q1502.64 26.1121 1507.95 32.0264 Q1513.29 37.9003 1513.29 48.0275 M1505.84 45.84 Q1505.76 39.7232 1502.4 36.0774 Q1499.08 32.4315 1493.57 32.4315 Q1487.33 32.4315 1483.56 35.9558 Q1479.83 39.4801 1479.27 45.8805 L1505.84 45.84 Z" fill="#000000" fill-rule="nonzero" fill-opacity="1"></path><path clip-path="url(#clip120)" d="M1554.45 28.5427 L1554.45 35.5912 Q1551.29 33.9709 1547.89 33.1607 Q1544.49 32.3505 1540.84 32.3505 Q1535.29 32.3505 1532.5 34.0519 Q1529.74 35.7533 1529.74 39.156 Q1529.74 41.7486 1531.73 43.2475 Q1533.71 44.7058 1539.71 46.0426 L1542.26 46.6097 Q1550.2 48.3111 1553.52 51.4303 Q1556.88 54.509 1556.88 60.0587 Q1556.88 66.3781 1551.86 70.0644 Q1546.88 73.7508 1538.13 73.7508 Q1534.48 73.7508 1530.51 73.0216 Q1526.58 72.3329 1522.21 70.9151 L1522.21 63.2184 Q1526.34 65.3654 1530.35 66.4591 Q1534.36 67.5124 1538.29 67.5124 Q1543.56 67.5124 1546.39 65.73 Q1549.23 63.9071 1549.23 60.6258 Q1549.23 57.5877 1547.16 55.9673 Q1545.13 54.3469 1538.21 52.8481 L1535.62 52.2405 Q1528.69 50.7821 1525.61 47.7845 Q1522.53 44.7463 1522.53 39.4801 Q1522.53 33.0797 1527.07 29.5959 Q1531.6 26.1121 1539.95 26.1121 Q1544.08 26.1121 1547.73 26.7198 Q1551.37 27.3274 1554.45 28.5427 Z" fill="#000000" fill-rule="nonzero" fill-opacity="1"></path><path clip-path="url(#clip120)" d="M1568.75 27.2059 L1576.21 27.2059 L1576.21 72.576 L1568.75 72.576 L1568.75 27.2059 M1568.75 9.54393 L1576.21 9.54393 L1576.21 18.9825 L1568.75 18.9825 L1568.75 9.54393 Z" fill="#000000" fill-rule="nonzero" fill-opacity="1"></path><path clip-path="url(#clip120)" d="M1618.09 34.1734 Q1616.84 33.4443 1615.34 33.1202 Q1613.88 32.7556 1612.1 32.7556 Q1605.78 32.7556 1602.37 36.8875 Q1599.01 40.9789 1599.01 48.6757 L1599.01 72.576 L1591.52 72.576 L1591.52 27.2059 L1599.01 27.2059 L1599.01 34.2544 Q1601.36 30.1225 1605.13 28.1376 Q1608.9 26.1121 1614.28 26.1121 Q1615.05 26.1121 1615.99 26.2337 Q1616.92 26.3147 1618.05 26.5172 L1618.09 34.1734 Z" fill="#000000" fill-rule="nonzero" fill-opacity="1"></path><path clip-path="url(#clip120)" d="M1662.89 48.0275 L1662.89 51.6733 L1628.62 51.6733 Q1629.11 59.3701 1633.24 63.421 Q1637.41 67.4314 1644.83 67.4314 Q1649.12 67.4314 1653.13 66.3781 Q1657.18 65.3249 1661.15 63.2184 L1661.15 70.267 Q1657.14 71.9684 1652.93 72.8596 Q1648.72 73.7508 1644.38 73.7508 Q1633.53 73.7508 1627.17 67.4314 Q1620.85 61.1119 1620.85 50.3365 Q1620.85 39.1965 1626.84 32.6746 Q1632.88 26.1121 1643.09 26.1121 Q1652.24 26.1121 1657.55 32.0264 Q1662.89 37.9003 1662.89 48.0275 M1655.44 45.84 Q1655.36 39.7232 1652 36.0774 Q1648.68 32.4315 1643.17 32.4315 Q1636.93 32.4315 1633.16 35.9558 Q1629.43 39.4801 1628.87 45.8805 L1655.44 45.84 Z" fill="#000000" fill-rule="nonzero" fill-opacity="1"></path><path clip-path="url(#clip120)" d="M1704.98 34.0924 L1704.98 9.54393 L1712.44 9.54393 L1712.44 72.576 L1704.98 72.576 L1704.98 65.7705 Q1702.63 69.8214 1699.03 71.8063 Q1695.46 73.7508 1690.44 73.7508 Q1682.22 73.7508 1677.03 67.1883 Q1671.89 60.6258 1671.89 49.9314 Q1671.89 39.2371 1677.03 32.6746 Q1682.22 26.1121 1690.44 26.1121 Q1695.46 26.1121 1699.03 28.0971 Q1702.63 30.0415 1704.98 34.0924 M1679.58 49.9314 Q1679.58 58.1548 1682.95 62.8538 Q1686.35 67.5124 1692.26 67.5124 Q1698.18 67.5124 1701.58 62.8538 Q1704.98 58.1548 1704.98 49.9314 Q1704.98 41.7081 1701.58 37.0496 Q1698.18 32.3505 1692.26 32.3505 Q1686.35 32.3505 1682.95 37.0496 Q1679.58 41.7081 1679.58 49.9314 Z" fill="#000000" fill-rule="nonzero" fill-opacity="1"></path><polyline clip-path="url(#clip122)" style="stroke:#009af9; stroke-linecap:round; stroke-linejoin:round; stroke-width:4; stroke-opacity:1; fill:none" points="295.211,1383.81 297.209,1383.35 299.207,1382.78 301.204,1382.98 303.202,1382.99 305.199,1383.35 307.197,1382.48 309.195,1381.85 311.192,1381.92 313.19,1382.13 315.187,1381.99 317.185,1381.51 319.183,1381.12 321.18,1379.84 323.178,1378.72 325.176,1378.32 327.173,1377.2 329.171,1373.45 331.168,1373.47 333.166,1366.77 335.164,1367.85 337.161,1356.91 339.159,1348.23 341.157,1332.95 343.154,1292.28 345.152,1246.73 347.149,1197.83 349.147,1152.76 351.145,1099.65 353.142,1017.67 355.14,927.804 357.137,868.168 359.135,831.856 361.133,807.998 363.13,754.013 365.128,724.063 367.126,649.925 369.123,616.297 371.121,545.342 373.118,548.642 375.116,542.061 377.114,518.848 379.111,502.056 381.109,476.242 383.106,459.883 385.104,444.442 387.102,453.762 389.099,424.046 391.097,415.948 393.095,393.065 395.092,418.585 397.09,420.984 399.087,379.868 401.085,379.289 403.083,356.52 405.08,356.381 407.078,333.155 409.075,331.345 411.073,337.917 413.071,336.474 415.068,325.254 417.066,330.846 419.064,312.911 421.061,313.41 423.059,311.796 425.056,341.198 427.054,330.431 429.052,293.707 431.049,284.831 433.047,268.124 435.044,268.154 437.042,334.552 439.04,419.684 441.037,504.737 443.035,574.037 445.033,634.357 447.03,689.712 449.028,732.709 451.025,799.865 453.023,861.588 455.021,902.781 457.018,933.756 459.016,976.589 461.013,999.569 463.011,1042.17 465.009,1078.85 467.006,1111.02 469.004,1129.76 471.002,1156.7 472.999,1177.76 474.997,1196.51 476.994,1202.52 478.992,1213.04 480.99,1224.08 482.987,1234.32 484.985,1247.41 486.982,1261.89 488.98,1277.2 490.978,1283.35 492.975,1287.72 494.973,1292.03 496.971,1300.06 498.968,1305.58 500.966,1308.85 502.963,1314.95 504.961,1323.3 506.959,1325.71 508.956,1329.91 510.954,1341.53 512.951,1343.6 514.949,1347.4 516.947,1352.16 518.944,1358.87 520.942,1361.35 522.94,1361.69 524.937,1363.84 526.935,1364.17 528.932,1365.39 530.93,1362.81 532.928,1364.72 534.925,1366.52 536.923,1367.47 538.92,1368.12 540.918,1367.1 542.916,1368.29 544.913,1370.41 546.911,1370.94 548.909,1372.67 550.906,1370.6 552.904,1371.21 554.901,1370.95 556.899,1371.63 558.897,1373.25 560.894,1376.24 562.892,1377.53 564.89,1377.78 566.887,1379.19 568.885,1378.7 570.882,1380.76 572.88,1380.57 574.878,1382.22 576.875,1381.91 578.873,1381.49 580.87,1380.86 582.868,1380.69 584.866,1381.11 586.863,1382.14 588.861,1382.86 590.859,1382.39 592.856,1382.25 594.854,1382.09 596.851,1381.71 598.849,1380.99 600.847,1380.74 602.844,1379.54 604.842,1378.92 606.839,1379.18 608.837,1379.92 610.835,1380.45 612.832,1380.7 614.83,1381.73 616.828,1381.61 618.825,1381.86 620.823,1382.01 622.82,1382.38 624.818,1382.62 626.816,1382.92 628.813,1383.27 630.811,1383.02 632.808,1382.83 634.806,1382.81 636.804,1383.03 638.801,1383.26 640.799,1383.12 642.797,1382.79 644.794,1382.79 646.792,1383.09 648.789,1382.63 650.787,1383.19 652.785,1383.56 654.782,1383.39 656.78,1383.08 658.777,1383.3 660.775,1383.13 662.773,1383.5 664.77,1383.53 666.768,1382.86 668.766,1383.8 670.763,1384.37 672.761,1384.91 674.758,1384.97 676.756,1383.74 678.754,1381.65 680.751,1377.93 682.749,1376.47 684.746,1368.78 686.744,1366.06 688.742,1362.1 690.739,1356.65 692.737,1352.1 694.735,1343.1 696.732,1338.73 698.73,1339.42 700.727,1338.87 702.725,1328.37 704.723,1300.6 706.72,1271.61 708.718,1236.47 710.715,1194.5 712.713,1156.62 714.711,1084.6 716.708,1040.26 718.706,925.942 720.704,869.567 722.701,849.807 724.699,789.357 726.696,759.556 728.694,693.383 730.692,692.1 732.689,642.376 734.687,606.409 736.684,596.682 738.682,537.528 740.68,493.593 742.677,450.789 744.675,427.929 746.673,423.418 748.67,413.661 750.668,405.327 752.665,403.794 754.663,392.753 756.661,374.076 758.658,345.648 760.656,372.224 762.653,356.208 764.651,360.051 766.649,356.365 768.646,339.267 770.644,303.68 772.642,284.08 774.639,275.17 776.637,294.222 778.634,306.686 780.632,311.777 782.63,302.39 784.627,304.076 786.625,267.162 788.623,281.515 790.62,283.813 792.618,283.055 794.615,230.262 796.613,230.906 798.611,265.36 800.608,249.922 802.606,245.081 804.603,217.788 806.601,179.966 808.599,160.256 810.596,171.457 812.594,269.191 814.592,349.412 816.589,443.82 818.587,512.382 820.584,606.678 822.582,673.539 824.58,728.096 826.577,778.506 828.575,814.824 830.572,850.065 832.57,899.269 834.568,956.616 836.565,996.234 838.563,1014.24 840.561,1038.12 842.558,1071.7 844.556,1090.86 846.553,1116.67 848.551,1140.06 850.549,1162.25 852.546,1182.66 854.544,1201.52 856.541,1206.06 858.539,1212.73 860.537,1224.96 862.534,1246.61 864.532,1251.96 866.53,1267.25 868.527,1274.66 870.525,1282.5 872.522,1292.22 874.52,1301.01 876.518,1301.93 878.515,1306.98 880.513,1314.56 882.51,1314.32 884.508,1322.71 886.506,1326.46 888.503,1327.78 890.501,1332.1 892.499,1337.37 894.496,1339.47 896.494,1343.65 898.491,1350.55 900.489,1356.9 902.487,1362.1 904.484,1364.15 906.482,1366.14 908.479,1369.31 910.477,1371.72 912.475,1375.03 914.472,1375.33 916.47,1375.67 918.468,1375.45 920.465,1375.71 922.463,1375.32 924.46,1374.68 926.458,1374.74 928.456,1376.06 930.453,1376.09 932.451,1375.67 934.448,1374.84 936.446,1376.23 938.444,1375.99 940.441,1375.79 942.439,1376.72 944.437,1378.71 946.434,1379.34 948.432,1379.88 950.429,1380.08 952.427,1381.65 954.425,1382.49 956.422,1382.42 958.42,1382.04 960.417,1382.59 962.415,1382.87 964.413,1382.21 966.41,1381.98 968.408,1381.7 970.406,1382.18 972.403,1382.09 974.401,1381.63 976.398,1381.76 978.396,1382.47 980.394,1382.54 982.391,1382.41 984.389,1382.5 986.386,1382.66 988.384,1383.49 990.382,1383.32 992.379,1384.12 994.377,1383.99 996.375,1383.91 998.372,1384.34 1000.37,1384.32 1002.37,1384.22 1004.37,1384.03 1006.36,1384.36 1008.36,1383.85 1010.36,1383.11 1012.36,1384.07 1014.35,1383.5 1016.35,1383.38 1018.35,1383.73 1020.35,1384.2 1022.34,1380.68 1024.34,1381.33 1026.34,1377.74 1028.34,1376.61 1030.33,1374.61 1032.33,1374.7 1034.33,1376.46 1036.33,1372.09 1038.32,1371.23 1040.32,1371.07 1042.32,1369.84 1044.32,1360.92 1046.31,1348.2 1048.31,1345.06 1050.31,1332.69 1052.31,1325.89 1054.31,1316.01 1056.3,1318.97 1058.3,1316.37 1060.3,1295.95 1062.3,1243.08 1064.29,1204.73 1066.29,1177.84 1068.29,1131.68 1070.29,1086.09 1072.28,1007.56 1074.28,952.786 1076.28,891.555 1078.28,843.986 1080.27,784.587 1082.27,750.445 1084.27,713.777 1086.27,645.575 1088.26,613.964 1090.26,573.917 1092.26,544.557 1094.26,524.043 1096.26,503.427 1098.25,474.327 1100.25,467.527 1102.25,439.902 1104.25,408.484 1106.24,402.911 1108.24,419.464 1110.24,422.653 1112.24,422.261 1114.23,416.82 1116.23,383.985 1118.23,382.911 1120.23,372.251 1122.22,353.747 1124.22,370.363 1126.22,349.4 1128.22,313.687 1130.21,305.168 1132.21,326.367 1134.21,391.048 1136.21,467.089 1138.21,546.64 1140.2,615.817 1142.2,682.886 1144.2,730.179 1146.2,787.927 1148.19,844.345 1150.19,893.605 1152.19,926.237 1154.19,954.742 1156.18,995.388 1158.18,1030.32 1160.18,1053.65 1162.18,1071.35 1164.17,1097.33 1166.17,1121.5 1168.17,1135.88 1170.17,1149.65 1172.16,1168.83 1174.16,1190.07 1176.16,1200.45 1178.16,1212.94 1180.16,1231.3 1182.15,1242.24 1184.15,1247.58 1186.15,1260.54 1188.15,1273.68 1190.14,1280.97 1192.14,1284.27 1194.14,1290.38 1196.14,1297.49 1198.13,1302.39 1200.13,1310.65 1202.13,1310.96 1204.13,1318.27 1206.12,1324.5 1208.12,1332.29 1210.12,1334.59 1212.12,1336.51 1214.11,1340.02 1216.11,1346.65 1218.11,1350.82 1220.11,1347.79 1222.11,1352.03 1224.1,1353.45 1226.1,1356.7 1228.1,1359.78 1230.1,1364.9 1232.09,1367.2 1234.09,1370.15 1236.09,1369.44 1238.09,1367.96 1240.08,1367.47 1242.08,1370.73 1244.08,1373.05 1246.08,1372.6 1248.07,1373.58 1250.07,1374.27 1252.07,1376.67 1254.07,1378.19 1256.06,1377.56 1258.06,1378.41 1260.06,1379.31 1262.06,1379.47 1264.06,1379.31 1266.05,1379.93 1268.05,1380.66 1270.05,1381.19 1272.05,1381.95 1274.04,1381.99 1276.04,1382.44 1278.04,1382.28 1280.04,1382.61 1282.03,1382.25 1284.03,1382.62 1286.03,1382.47 1288.03,1382.47 1290.02,1382.52 1292.02,1383.21 1294.02,1382.96 1296.02,1383.57 1298.01,1383.58 1300.01,1383.49 1302.01,1383.28 1304.01,1383.11 1306.01,1383.77 1308,1383.6 1310,1383.77 1312,1383.9 1314,1383.65 1315.99,1383.6 1317.99,1383.91 1319.99,1383.91 1321.99,1384.01 1323.98,1384 1325.98,1384.02 1327.98,1383.99 1329.98,1384.03 1331.97,1384.08 1333.97,1384.11 1335.97,1384.13 1337.97,1384.25 1339.96,1384.66 1341.96,1384.86 1343.96,1384.17 1345.96,1384.36 1347.96,1383.31 1349.95,1383.28 1351.95,1382.55 1353.95,1381.67 1355.95,1380.83 1357.94,1381.52 1359.94,1380.82 1361.94,1379.26 1363.94,1377.79 1365.93,1376.93 1367.93,1364.55 1369.93,1345.44 1371.93,1334.79 1373.92,1327.13 1375.92,1299.83 1377.92,1268.78 1379.92,1180.56 1381.91,1109.24 1383.91,1053.97 1385.91,981.902 1387.91,932.079 1389.9,884.319 1391.9,835.196 1393.9,780.5 1395.9,723.877 1397.9,690.813 1399.89,658.139 1401.89,640.308 1403.89,579.576 1405.89,558.654 1407.88,546.884 1409.88,507.155 1411.88,473.617 1413.88,436.003 1415.87,456.739 1417.87,470.413 1419.87,481.255 1421.87,479.222 1423.86,475.148 1425.86,434.612 1427.86,416.288 1429.86,417.991 1431.85,412.626 1433.85,362.732 1435.85,379.119 1437.85,356.099 1439.85,346.3 1441.84,345.589 1443.84,321.579 1445.84,312.906 1447.84,305.613 1449.83,304.495 1451.83,296.96 1453.83,300.858 1455.83,295.186 1457.82,285.381 1459.82,294.429 1461.82,263.153 1463.82,278.704 1465.81,286.272 1467.81,367.224 1469.81,456.962 1471.81,528.304 1473.8,594.09 1475.8,664.099 1477.8,725.6 1479.8,786.683 1481.8,835.626 1483.79,870.118 1485.79,917.755 1487.79,949.469 1489.79,975.886 1491.78,1018.9 1493.78,1029.35 1495.78,1064.45 1497.78,1083.12 1499.77,1102.59 1501.77,1124.46 1503.77,1143.04 1505.77,1154.43 1507.76,1178.11 1509.76,1190.59 1511.76,1210.76 1513.76,1221.47 1515.75,1241.89 1517.75,1248.8 1519.75,1264.24 1521.75,1279.2 1523.75,1289.77 1525.74,1296.03 1527.74,1296.04 1529.74,1303.7 1531.74,1307.87 1533.73,1316.16 1535.73,1322.02 1537.73,1325.37 1539.73,1328.06 1541.72,1341.53 1543.72,1344.42 1545.72,1347.91 1547.72,1349.23 1549.71,1349.84 1551.71,1349.89 1553.71,1350.71 1555.71,1353.91 1557.7,1358.67 1559.7,1361.99 1561.7,1364.05 1563.7,1366.12 1565.7,1364.86 1567.69,1367.47 1569.69,1369.87 1571.69,1372.18 1573.69,1373.06 1575.68,1372.72 1577.68,1374.64 1579.68,1376.15 1581.68,1377.97 1583.67,1377.9 1585.67,1379.95 1587.67,1381.55 1589.67,1382.26 1591.66,1381.98 1593.66,1381.64 1595.66,1381.69 1597.66,1381.56 1599.65,1383.14 1601.65,1383.37 1603.65,1383.48 1605.65,1383.18 1607.65,1383.8 1609.64,1383.86 1611.64,1383.74 1613.64,1383.73 1615.64,1383.96 1617.63,1383.73 1619.63,1383.79 1621.63,1383.88 1623.63,1383.98 1625.62,1384.01 1627.62,1384.09 1629.62,1383.87 1631.62,1383.82 1633.61,1383.64 1635.61,1383.87 1637.61,1384.02 1639.61,1383.96 1641.6,1383.93 1643.6,1384.03 1645.6,1384.02 1647.6,1383.99 1649.6,1384 1651.59,1383.99 1653.59,1384.03 1655.59,1384.08 1657.59,1384.2 1659.58,1384.26 1661.58,1384.53 1663.58,1384.88 1665.58,1384.25 1667.57,1384.46 1669.57,1384.91 1671.57,1385.27 1673.57,1385.28 1675.56,1385.36 1677.56,1385.3 1679.56,1385.42 1681.56,1385.47 1683.55,1386 1685.55,1385.83 1687.55,1386.4 1689.55,1385.85 1691.54,1384.98 1693.54,1384.79 1695.54,1384.61 1697.54,1384.28 1699.54,1383.77 1701.53,1383.73 1703.53,1383.69 1705.53,1383.4 1707.53,1384.3 1709.52,1384.14 1711.52,1378.09 1713.52,1350.23 1715.52,1294.81 1717.51,1243.04 1719.51,1144.88 1721.51,1077.32 1723.51,1034.13 1725.5,968.44 1727.5,917.104 1729.5,857.988 1731.5,821.063 1733.49,767.758 1735.49,706.928 1737.49,654.961 1739.49,622.212 1741.49,570.143 1743.48,555.98 1745.48,548.808 1747.48,534.734 1749.48,512.046 1751.47,454.873 1753.47,436.603 1755.47,392.234 1757.47,377.2 1759.46,358.937 1761.46,357.949 1763.46,379.562 1765.46,392.97 1767.45,354.027 1769.45,320.293 1771.45,302.962 1773.45,299.485 1775.44,270.226 1777.44,240.184 1779.44,253.372 1781.44,304.481 1783.44,316.473 1785.43,324.61 1787.43,307.303 1789.43,292.675 1791.43,263.201 1793.42,238.33 1795.42,254.532 1797.42,254.949 1799.42,259.329 1801.41,259.776 1803.41,257.892 1805.41,247.819 1807.41,255.92 1809.4,253.382 1811.4,248.919 1813.4,247.678 1815.4,352.943 1817.39,427.243 1819.39,502.039 1821.39,560.252 1823.39,620.888 1825.39,676.655 1827.38,735.273 1829.38,800.595 1831.38,858.773 1833.38,904.066 1835.37,942.742 1837.37,993.725 1839.37,1030.1 1841.37,1067.42 1843.36,1083.15 1845.36,1108.04 1847.36,1131.64 1849.36,1144.6 1851.35,1169.12 1853.35,1183.74 1855.35,1202.52 1857.35,1204.07 1859.34,1215.03 1861.34,1226.1 1863.34,1234.75 1865.34,1251.24 1867.34,1259.55 1869.33,1272.49 1871.33,1282.15 1873.33,1294.06 1875.33,1295.91 1877.32,1303.19 1879.32,1310.96 1881.32,1316.94 1883.32,1321.42 1885.31,1329.62 1887.31,1335.55 1889.31,1341.93 1891.31,1342.77 1893.3,1342.86 1895.3,1347.69 1897.3,1352.57 1899.3,1356.34 1901.29,1359.37 1903.29,1362.73 1905.29,1363.91 1907.29,1366.02 1909.29,1366.49 1911.28,1370.79 1913.28,1372.86 1915.28,1374.85 1917.28,1375 1919.27,1377.22 1921.27,1376.23 1923.27,1377.67 1925.27,1377.35 1927.26,1376.41 1929.26,1378.17 1931.26,1378.68 1933.26,1379.07 1935.25,1379.44 1937.25,1379.02 1939.25,1379.13 1941.25,1378.94 1943.24,1379.66 1945.24,1378.49 1947.24,1380.06 1949.24,1381 1951.24,1381.08 1953.23,1381.72 1955.23,1381.78 1957.23,1382.48 1959.23,1382.8 1961.22,1383.35 1963.22,1383.05 1965.22,1383.82 1967.22,1383.78 1969.21,1383.82 1971.21,1383.94 1973.21,1384.02 1975.21,1384.05 1977.2,1384.16 1979.2,1383.97 1981.2,1383.99 1983.2,1383.99 1985.19,1384.06 1987.19,1383.98 1989.19,1383.94 1991.19,1384.02 1993.19,1384.01 1995.18,1384.06 1997.18,1384.02 1999.18,1383.97 2001.18,1383.97 2003.17,1384.06 2005.17,1384.05 2007.17,1384.03 2009.17,1384.1 2011.16,1384.08 2013.16,1384.07 2015.16,1384.22 2017.16,1384.04 2019.15,1383.96 2021.15,1383.88 2023.15,1383.68 2025.15,1383.72 2027.14,1383.3 2029.14,1383.38 2031.14,1383.36 2033.14,1384.1 2035.13,1384.01 2037.13,1382.69 2039.13,1383.54 2041.13,1383.43 2043.13,1382.26 2045.12,1380.1 2047.12,1373.89 2049.12,1366.73 2051.12,1359.63 2053.11,1352.62 2055.11,1327.88 2057.11,1300.16 2059.11,1257 2061.1,1203.46 2063.1,1144.76 2065.1,1067.66 2067.1,1017.74 2069.09,991.729 2071.09,962.142 2073.09,937.557 2075.09,932.415 2077.08,881.083 2079.08,850.46 2081.08,795.848 2083.08,730.507 2085.08,718.952 2087.07,656.103 2089.07,633.016 2091.07,597.379 2093.07,554.761 2095.06,546.223 2097.06,519.009 2099.06,525.808 2101.06,508.249 2103.05,486.47 2105.05,471.519 2107.05,445.394 2109.05,409.101 2111.04,367.683 2113.04,352.913 2115.04,350.776 2117.04,365.006 2119.03,380.862 2121.03,387.189 2123.03,361.492 2125.03,374.747 2127.03,374.805 2129.02,393.843 2131.02,369.086 2133.02,377.244 2135.02,348.116 2137.01,334.509 2139.01,354.491 2141.01,331.305 2143.01,341.094 2145,319.238 2147,270.903 2149,246.903 2151,323.428 2152.99,386.4 2154.99,461.474 2156.99,529.469 2158.99,595.971 2160.98,672.826 2162.98,733.052 2164.98,776.721 2166.98,836.041 2168.98,886.43 2170.97,911.006 2172.97,943.384 2174.97,980.054 2176.97,1004.97 2178.96,1034.08 2180.96,1063.95 2182.96,1087.08 2184.96,1114 2186.95,1136.07 2188.95,1148.73 2190.95,1184.54 2192.95,1202.08 2194.94,1219.02 2196.94,1234.3 2198.94,1255.21 2200.94,1262.68 2202.93,1275.75 2204.93,1290.43 2206.93,1294.47 2208.93,1305.07 2210.93,1308.26 2212.92,1311.99 2214.92,1316.78 2216.92,1324.62 2218.92,1331.32 2220.91,1335.93 2222.91,1338.4 2224.91,1337.38 2226.91,1339.19 2228.9,1336.71 2230.9,1338.74 2232.9,1339.58 2234.9,1342.38 2236.89,1347.22 2238.89,1349.8 2240.89,1356.28 2242.89,1360.42 2244.88,1362.66 2246.88,1364.8 2248.88,1366.77 2250.88,1367.89 2252.88,1368.99 2254.87,1367.77 2256.87,1366.12 2258.87,1365.2 2260.87,1368.02 2262.86,1370.03 2264.86,1370.29 2266.86,1372.31 2268.86,1372.75 2270.85,1373.6 2272.85,1374.49 2274.85,1376.45 2276.85,1376.26 2278.84,1378.11 2280.84,1375.55 2282.84,1374.98 2284.84,1375.64 2286.83,1377.01 2288.83,1377.69 2290.83,1377.99 2292.83,1378.51 "></polyline>
</svg>