<svg xmlns="http://www.w3.org/2000/svg" xmlns:xlink="http://www.w3.org/1999/xlink" width="600" height="400" viewBox="0 0 2400 1600">
<defs>
  <clipPath id="clip400">
    <rect x="0" y="0" width="2400" height="1600"></rect>
  </clipPath>
</defs>
<path clip-path="url(#clip400)" d="M0 1600 L2400 1600 L2400 8.88178e-14 L0 8.88178e-14  Z" fill="#ffffff" fill-rule="evenodd" fill-opacity="1"></path>
<defs>
  <clipPath id="clip401">
    <rect x="480" y="0" width="1681" height="1600"></rect>
  </clipPath>
</defs>
<path clip-path="url(#clip400)" d="M262.551 1423.18 L2352.76 1423.18 L2352.76 123.472 L262.551 123.472  Z" fill="#ffffff" fill-rule="evenodd" fill-opacity="1"></path>
<defs>
  <clipPath id="clip402">
    <rect x="262" y="123" width="2091" height="1301"></rect>
  </clipPath>
</defs>
<polyline clip-path="url(#clip402)" style="stroke:#000000; stroke-linecap:round; stroke-linejoin:round; stroke-width:2; stroke-opacity:0.1; fill:none" points="319.736,1423.18 319.736,123.472 "></polyline>
<polyline clip-path="url(#clip402)" style="stroke:#000000; stroke-linecap:round; stroke-linejoin:round; stroke-width:2; stroke-opacity:0.1; fill:none" points="812.709,1423.18 812.709,123.472 "></polyline>
<polyline clip-path="url(#clip402)" style="stroke:#000000; stroke-linecap:round; stroke-linejoin:round; stroke-width:2; stroke-opacity:0.1; fill:none" points="1305.68,1423.18 1305.68,123.472 "></polyline>
<polyline clip-path="url(#clip402)" style="stroke:#000000; stroke-linecap:round; stroke-linejoin:round; stroke-width:2; stroke-opacity:0.1; fill:none" points="1798.65,1423.18 1798.65,123.472 "></polyline>
<polyline clip-path="url(#clip402)" style="stroke:#000000; stroke-linecap:round; stroke-linejoin:round; stroke-width:2; stroke-opacity:0.1; fill:none" points="2291.63,1423.18 2291.63,123.472 "></polyline>
<polyline clip-path="url(#clip402)" style="stroke:#000000; stroke-linecap:round; stroke-linejoin:round; stroke-width:2; stroke-opacity:0.1; fill:none" points="262.551,1386.13 2352.76,1386.13 "></polyline>
<polyline clip-path="url(#clip402)" style="stroke:#000000; stroke-linecap:round; stroke-linejoin:round; stroke-width:2; stroke-opacity:0.1; fill:none" points="262.551,1116.13 2352.76,1116.13 "></polyline>
<polyline clip-path="url(#clip402)" style="stroke:#000000; stroke-linecap:round; stroke-linejoin:round; stroke-width:2; stroke-opacity:0.1; fill:none" points="262.551,846.123 2352.76,846.123 "></polyline>
<polyline clip-path="url(#clip402)" style="stroke:#000000; stroke-linecap:round; stroke-linejoin:round; stroke-width:2; stroke-opacity:0.1; fill:none" points="262.551,576.12 2352.76,576.12 "></polyline>
<polyline clip-path="url(#clip402)" style="stroke:#000000; stroke-linecap:round; stroke-linejoin:round; stroke-width:2; stroke-opacity:0.1; fill:none" points="262.551,306.117 2352.76,306.117 "></polyline>
<polyline clip-path="url(#clip400)" style="stroke:#000000; stroke-linecap:round; stroke-linejoin:round; stroke-width:4; stroke-opacity:1; fill:none" points="262.551,1423.18 2352.76,1423.18 "></polyline>
<polyline clip-path="url(#clip400)" style="stroke:#000000; stroke-linecap:round; stroke-linejoin:round; stroke-width:4; stroke-opacity:1; fill:none" points="319.736,1423.18 319.736,1404.28 "></polyline>
<polyline clip-path="url(#clip400)" style="stroke:#000000; stroke-linecap:round; stroke-linejoin:round; stroke-width:4; stroke-opacity:1; fill:none" points="812.709,1423.18 812.709,1404.28 "></polyline>
<polyline clip-path="url(#clip400)" style="stroke:#000000; stroke-linecap:round; stroke-linejoin:round; stroke-width:4; stroke-opacity:1; fill:none" points="1305.68,1423.18 1305.68,1404.28 "></polyline>
<polyline clip-path="url(#clip400)" style="stroke:#000000; stroke-linecap:round; stroke-linejoin:round; stroke-width:4; stroke-opacity:1; fill:none" points="1798.65,1423.18 1798.65,1404.28 "></polyline>
<polyline clip-path="url(#clip400)" style="stroke:#000000; stroke-linecap:round; stroke-linejoin:round; stroke-width:4; stroke-opacity:1; fill:none" points="2291.63,1423.18 2291.63,1404.28 "></polyline>
<path clip-path="url(#clip400)" d="M319.736 1454.1 Q316.125 1454.1 314.296 1457.66 Q312.491 1461.2 312.491 1468.33 Q312.491 1475.44 314.296 1479.01 Q316.125 1482.55 319.736 1482.55 Q323.37 1482.55 325.176 1479.01 Q327.005 1475.44 327.005 1468.33 Q327.005 1461.2 325.176 1457.66 Q323.37 1454.1 319.736 1454.1 M319.736 1450.39 Q325.546 1450.39 328.602 1455 Q331.68 1459.58 331.68 1468.33 Q331.68 1477.06 328.602 1481.67 Q325.546 1486.25 319.736 1486.25 Q313.926 1486.25 310.847 1481.67 Q307.792 1477.06 307.792 1468.33 Q307.792 1459.58 310.847 1455 Q313.926 1450.39 319.736 1450.39 Z" fill="#000000" fill-rule="nonzero" fill-opacity="1"></path><path clip-path="url(#clip400)" d="M776.401 1481.64 L792.721 1481.64 L792.721 1485.58 L770.776 1485.58 L770.776 1481.64 Q773.438 1478.89 778.022 1474.26 Q782.628 1469.61 783.809 1468.27 Q786.054 1465.74 786.934 1464.01 Q787.836 1462.25 787.836 1460.56 Q787.836 1457.8 785.892 1456.07 Q783.971 1454.33 780.869 1454.33 Q778.67 1454.33 776.216 1455.09 Q773.785 1455.86 771.008 1457.41 L771.008 1452.69 Q773.832 1451.55 776.285 1450.97 Q778.739 1450.39 780.776 1450.39 Q786.147 1450.39 789.341 1453.08 Q792.535 1455.77 792.535 1460.26 Q792.535 1462.39 791.725 1464.31 Q790.938 1466.2 788.832 1468.8 Q788.253 1469.47 785.151 1472.69 Q782.049 1475.88 776.401 1481.64 Z" fill="#000000" fill-rule="nonzero" fill-opacity="1"></path><path clip-path="url(#clip400)" d="M802.582 1451.02 L820.938 1451.02 L820.938 1454.96 L806.864 1454.96 L806.864 1463.43 Q807.883 1463.08 808.901 1462.92 Q809.92 1462.73 810.938 1462.73 Q816.725 1462.73 820.105 1465.9 Q823.484 1469.08 823.484 1474.49 Q823.484 1480.07 820.012 1483.17 Q816.54 1486.25 810.22 1486.25 Q808.045 1486.25 805.776 1485.88 Q803.531 1485.51 801.123 1484.77 L801.123 1480.07 Q803.207 1481.2 805.429 1481.76 Q807.651 1482.32 810.128 1482.32 Q814.132 1482.32 816.47 1480.21 Q818.808 1478.1 818.808 1474.49 Q818.808 1470.88 816.47 1468.77 Q814.132 1466.67 810.128 1466.67 Q808.253 1466.67 806.378 1467.08 Q804.526 1467.5 802.582 1468.38 L802.582 1451.02 Z" fill="#000000" fill-rule="nonzero" fill-opacity="1"></path><path clip-path="url(#clip400)" d="M842.697 1454.1 Q839.086 1454.1 837.257 1457.66 Q835.452 1461.2 835.452 1468.33 Q835.452 1475.44 837.257 1479.01 Q839.086 1482.55 842.697 1482.55 Q846.331 1482.55 848.137 1479.01 Q849.966 1475.44 849.966 1468.33 Q849.966 1461.2 848.137 1457.66 Q846.331 1454.1 842.697 1454.1 M842.697 1450.39 Q848.507 1450.39 851.563 1455 Q854.642 1459.58 854.642 1468.33 Q854.642 1477.06 851.563 1481.67 Q848.507 1486.25 842.697 1486.25 Q836.887 1486.25 833.808 1481.67 Q830.753 1477.06 830.753 1468.33 Q830.753 1459.58 833.808 1455 Q836.887 1450.39 842.697 1450.39 Z" fill="#000000" fill-rule="nonzero" fill-opacity="1"></path><path clip-path="url(#clip400)" d="M1265.3 1451.02 L1283.66 1451.02 L1283.66 1454.96 L1269.58 1454.96 L1269.58 1463.43 Q1270.6 1463.08 1271.62 1462.92 Q1272.64 1462.73 1273.66 1462.73 Q1279.44 1462.73 1282.82 1465.9 Q1286.2 1469.08 1286.2 1474.49 Q1286.2 1480.07 1282.73 1483.17 Q1279.26 1486.25 1272.94 1486.25 Q1270.76 1486.25 1268.49 1485.88 Q1266.25 1485.51 1263.84 1484.77 L1263.84 1480.07 Q1265.92 1481.2 1268.15 1481.76 Q1270.37 1482.32 1272.85 1482.32 Q1276.85 1482.32 1279.19 1480.21 Q1281.53 1478.1 1281.53 1474.49 Q1281.53 1470.88 1279.19 1468.77 Q1276.85 1466.67 1272.85 1466.67 Q1270.97 1466.67 1269.1 1467.08 Q1267.24 1467.5 1265.3 1468.38 L1265.3 1451.02 Z" fill="#000000" fill-rule="nonzero" fill-opacity="1"></path><path clip-path="url(#clip400)" d="M1305.42 1454.1 Q1301.8 1454.1 1299.98 1457.66 Q1298.17 1461.2 1298.17 1468.33 Q1298.17 1475.44 1299.98 1479.01 Q1301.8 1482.55 1305.42 1482.55 Q1309.05 1482.55 1310.86 1479.01 Q1312.68 1475.44 1312.68 1468.33 Q1312.68 1461.2 1310.86 1457.66 Q1309.05 1454.1 1305.42 1454.1 M1305.42 1450.39 Q1311.23 1450.39 1314.28 1455 Q1317.36 1459.58 1317.36 1468.33 Q1317.36 1477.06 1314.28 1481.67 Q1311.23 1486.25 1305.42 1486.25 Q1299.61 1486.25 1296.53 1481.67 Q1293.47 1477.06 1293.47 1468.33 Q1293.47 1459.58 1296.53 1455 Q1299.61 1450.39 1305.42 1450.39 Z" fill="#000000" fill-rule="nonzero" fill-opacity="1"></path><path clip-path="url(#clip400)" d="M1335.58 1454.1 Q1331.97 1454.1 1330.14 1457.66 Q1328.33 1461.2 1328.33 1468.33 Q1328.33 1475.44 1330.14 1479.01 Q1331.97 1482.55 1335.58 1482.55 Q1339.21 1482.55 1341.02 1479.01 Q1342.85 1475.44 1342.85 1468.33 Q1342.85 1461.2 1341.02 1457.66 Q1339.21 1454.1 1335.58 1454.1 M1335.58 1450.39 Q1341.39 1450.39 1344.44 1455 Q1347.52 1459.58 1347.52 1468.33 Q1347.52 1477.06 1344.44 1481.67 Q1341.39 1486.25 1335.58 1486.25 Q1329.77 1486.25 1326.69 1481.67 Q1323.63 1477.06 1323.63 1468.33 Q1323.63 1459.58 1326.69 1455 Q1329.77 1450.39 1335.58 1450.39 Z" fill="#000000" fill-rule="nonzero" fill-opacity="1"></path><path clip-path="url(#clip400)" d="M1756.93 1451.02 L1779.15 1451.02 L1779.15 1453.01 L1766.61 1485.58 L1761.72 1485.58 L1773.53 1454.96 L1756.93 1454.96 L1756.93 1451.02 Z" fill="#000000" fill-rule="nonzero" fill-opacity="1"></path><path clip-path="url(#clip400)" d="M1788.32 1451.02 L1806.68 1451.02 L1806.68 1454.96 L1792.6 1454.96 L1792.6 1463.43 Q1793.62 1463.08 1794.64 1462.92 Q1795.66 1462.73 1796.68 1462.73 Q1802.46 1462.73 1805.84 1465.9 Q1809.22 1469.08 1809.22 1474.49 Q1809.22 1480.07 1805.75 1483.17 Q1802.28 1486.25 1795.96 1486.25 Q1793.78 1486.25 1791.51 1485.88 Q1789.27 1485.51 1786.86 1484.77 L1786.86 1480.07 Q1788.94 1481.2 1791.17 1481.76 Q1793.39 1482.32 1795.87 1482.32 Q1799.87 1482.32 1802.21 1480.21 Q1804.55 1478.1 1804.55 1474.49 Q1804.55 1470.88 1802.21 1468.77 Q1799.87 1466.67 1795.87 1466.67 Q1793.99 1466.67 1792.12 1467.08 Q1790.26 1467.5 1788.32 1468.38 L1788.32 1451.02 Z" fill="#000000" fill-rule="nonzero" fill-opacity="1"></path><path clip-path="url(#clip400)" d="M1828.43 1454.1 Q1824.82 1454.1 1822.99 1457.66 Q1821.19 1461.2 1821.19 1468.33 Q1821.19 1475.44 1822.99 1479.01 Q1824.82 1482.55 1828.43 1482.55 Q1832.07 1482.55 1833.87 1479.01 Q1835.7 1475.44 1835.7 1468.33 Q1835.7 1461.2 1833.87 1457.66 Q1832.07 1454.1 1828.43 1454.1 M1828.43 1450.39 Q1834.24 1450.39 1837.3 1455 Q1840.38 1459.58 1840.38 1468.33 Q1840.38 1477.06 1837.3 1481.67 Q1834.24 1486.25 1828.43 1486.25 Q1822.62 1486.25 1819.55 1481.67 Q1816.49 1477.06 1816.49 1468.33 Q1816.49 1459.58 1819.55 1455 Q1822.62 1450.39 1828.43 1450.39 Z" fill="#000000" fill-rule="nonzero" fill-opacity="1"></path><path clip-path="url(#clip400)" d="M2236.15 1481.64 L2243.79 1481.64 L2243.79 1455.28 L2235.48 1456.95 L2235.48 1452.69 L2243.75 1451.02 L2248.42 1451.02 L2248.42 1481.64 L2256.06 1481.64 L2256.06 1485.58 L2236.15 1485.58 L2236.15 1481.64 Z" fill="#000000" fill-rule="nonzero" fill-opacity="1"></path><path clip-path="url(#clip400)" d="M2275.5 1454.1 Q2271.89 1454.1 2270.06 1457.66 Q2268.26 1461.2 2268.26 1468.33 Q2268.26 1475.44 2270.06 1479.01 Q2271.89 1482.55 2275.5 1482.55 Q2279.14 1482.55 2280.94 1479.01 Q2282.77 1475.44 2282.77 1468.33 Q2282.77 1461.2 2280.94 1457.66 Q2279.14 1454.1 2275.5 1454.1 M2275.5 1450.39 Q2281.31 1450.39 2284.37 1455 Q2287.45 1459.58 2287.45 1468.33 Q2287.45 1477.06 2284.37 1481.67 Q2281.31 1486.25 2275.5 1486.25 Q2269.69 1486.25 2266.62 1481.67 Q2263.56 1477.06 2263.56 1468.33 Q2263.56 1459.58 2266.62 1455 Q2269.69 1450.39 2275.5 1450.39 Z" fill="#000000" fill-rule="nonzero" fill-opacity="1"></path><path clip-path="url(#clip400)" d="M2305.67 1454.1 Q2302.06 1454.1 2300.23 1457.66 Q2298.42 1461.2 2298.42 1468.33 Q2298.42 1475.44 2300.23 1479.01 Q2302.06 1482.55 2305.67 1482.55 Q2309.3 1482.55 2311.11 1479.01 Q2312.94 1475.44 2312.94 1468.33 Q2312.94 1461.2 2311.11 1457.66 Q2309.3 1454.1 2305.67 1454.1 M2305.67 1450.39 Q2311.48 1450.39 2314.53 1455 Q2317.61 1459.58 2317.61 1468.33 Q2317.61 1477.06 2314.53 1481.67 Q2311.48 1486.25 2305.67 1486.25 Q2299.86 1486.25 2296.78 1481.67 Q2293.72 1477.06 2293.72 1468.33 Q2293.72 1459.58 2296.78 1455 Q2299.86 1450.39 2305.67 1450.39 Z" fill="#000000" fill-rule="nonzero" fill-opacity="1"></path><path clip-path="url(#clip400)" d="M2335.83 1454.1 Q2332.22 1454.1 2330.39 1457.66 Q2328.58 1461.2 2328.58 1468.33 Q2328.58 1475.44 2330.39 1479.01 Q2332.22 1482.55 2335.83 1482.55 Q2339.46 1482.55 2341.27 1479.01 Q2343.1 1475.44 2343.1 1468.33 Q2343.1 1461.2 2341.27 1457.66 Q2339.46 1454.1 2335.83 1454.1 M2335.83 1450.39 Q2341.64 1450.39 2344.69 1455 Q2347.77 1459.58 2347.77 1468.33 Q2347.77 1477.06 2344.69 1481.67 Q2341.64 1486.25 2335.83 1486.25 Q2330.02 1486.25 2326.94 1481.67 Q2323.88 1477.06 2323.88 1468.33 Q2323.88 1459.58 2326.94 1455 Q2330.02 1450.39 2335.83 1450.39 Z" fill="#000000" fill-rule="nonzero" fill-opacity="1"></path><path clip-path="url(#clip400)" d="M1246.81 1522.27 L1246.81 1532.4 L1258.88 1532.4 L1258.88 1536.95 L1246.81 1536.95 L1246.81 1556.3 Q1246.81 1560.66 1247.99 1561.9 Q1249.2 1563.14 1252.86 1563.14 L1258.88 1563.14 L1258.88 1568.04 L1252.86 1568.04 Q1246.08 1568.04 1243.5 1565.53 Q1240.93 1562.98 1240.93 1556.3 L1240.93 1536.95 L1236.63 1536.95 L1236.63 1532.4 L1240.93 1532.4 L1240.93 1522.27 L1246.81 1522.27 Z" fill="#000000" fill-rule="nonzero" fill-opacity="1"></path><path clip-path="url(#clip400)" d="M1266.58 1532.4 L1272.44 1532.4 L1272.44 1568.04 L1266.58 1568.04 L1266.58 1532.4 M1266.58 1518.52 L1272.44 1518.52 L1272.44 1525.93 L1266.58 1525.93 L1266.58 1518.52 Z" fill="#000000" fill-rule="nonzero" fill-opacity="1"></path><path clip-path="url(#clip400)" d="M1312.44 1539.24 Q1314.64 1535.29 1317.7 1533.41 Q1320.75 1531.54 1324.89 1531.54 Q1330.46 1531.54 1333.48 1535.45 Q1336.51 1539.33 1336.51 1546.53 L1336.51 1568.04 L1330.62 1568.04 L1330.62 1546.72 Q1330.62 1541.59 1328.8 1539.11 Q1326.99 1536.63 1323.27 1536.63 Q1318.71 1536.63 1316.07 1539.65 Q1313.43 1542.68 1313.43 1547.9 L1313.43 1568.04 L1307.54 1568.04 L1307.54 1546.72 Q1307.54 1541.56 1305.73 1539.11 Q1303.91 1536.63 1300.13 1536.63 Q1295.64 1536.63 1293 1539.68 Q1290.35 1542.71 1290.35 1547.9 L1290.35 1568.04 L1284.47 1568.04 L1284.47 1532.4 L1290.35 1532.4 L1290.35 1537.93 Q1292.36 1534.66 1295.16 1533.1 Q1297.96 1531.54 1301.81 1531.54 Q1305.7 1531.54 1308.4 1533.51 Q1311.14 1535.48 1312.44 1539.24 Z" fill="#000000" fill-rule="nonzero" fill-opacity="1"></path><path clip-path="url(#clip400)" d="M1378.68 1548.76 L1378.68 1551.62 L1351.75 1551.62 Q1352.13 1557.67 1355.38 1560.85 Q1358.66 1564 1364.48 1564 Q1367.86 1564 1371.01 1563.17 Q1374.19 1562.35 1377.31 1560.69 L1377.31 1566.23 Q1374.16 1567.57 1370.85 1568.27 Q1367.54 1568.97 1364.13 1568.97 Q1355.6 1568.97 1350.61 1564 Q1345.64 1559.04 1345.64 1550.57 Q1345.64 1541.82 1350.35 1536.69 Q1355.09 1531.54 1363.11 1531.54 Q1370.31 1531.54 1374.48 1536.18 Q1378.68 1540.8 1378.68 1548.76 M1372.82 1547.04 Q1372.76 1542.23 1370.12 1539.37 Q1367.51 1536.5 1363.18 1536.5 Q1358.28 1536.5 1355.32 1539.27 Q1352.39 1542.04 1351.94 1547.07 L1372.82 1547.04 Z" fill="#000000" fill-rule="nonzero" fill-opacity="1"></path><polyline clip-path="url(#clip400)" style="stroke:#000000; stroke-linecap:round; stroke-linejoin:round; stroke-width:4; stroke-opacity:1; fill:none" points="262.551,1423.18 262.551,123.472 "></polyline>
<polyline clip-path="url(#clip400)" style="stroke:#000000; stroke-linecap:round; stroke-linejoin:round; stroke-width:4; stroke-opacity:1; fill:none" points="262.551,1386.13 281.449,1386.13 "></polyline>
<polyline clip-path="url(#clip400)" style="stroke:#000000; stroke-linecap:round; stroke-linejoin:round; stroke-width:4; stroke-opacity:1; fill:none" points="262.551,1116.13 281.449,1116.13 "></polyline>
<polyline clip-path="url(#clip400)" style="stroke:#000000; stroke-linecap:round; stroke-linejoin:round; stroke-width:4; stroke-opacity:1; fill:none" points="262.551,846.123 281.449,846.123 "></polyline>
<polyline clip-path="url(#clip400)" style="stroke:#000000; stroke-linecap:round; stroke-linejoin:round; stroke-width:4; stroke-opacity:1; fill:none" points="262.551,576.12 281.449,576.12 "></polyline>
<polyline clip-path="url(#clip400)" style="stroke:#000000; stroke-linecap:round; stroke-linejoin:round; stroke-width:4; stroke-opacity:1; fill:none" points="262.551,306.117 281.449,306.117 "></polyline>
<path clip-path="url(#clip400)" d="M214.607 1371.93 Q210.996 1371.93 209.167 1375.49 Q207.362 1379.03 207.362 1386.16 Q207.362 1393.27 209.167 1396.83 Q210.996 1400.38 214.607 1400.38 Q218.241 1400.38 220.047 1396.83 Q221.875 1393.27 221.875 1386.16 Q221.875 1379.03 220.047 1375.49 Q218.241 1371.93 214.607 1371.93 M214.607 1368.22 Q220.417 1368.22 223.473 1372.83 Q226.551 1377.41 226.551 1386.16 Q226.551 1394.89 223.473 1399.5 Q220.417 1404.08 214.607 1404.08 Q208.797 1404.08 205.718 1399.5 Q202.662 1394.89 202.662 1386.16 Q202.662 1377.41 205.718 1372.83 Q208.797 1368.22 214.607 1368.22 Z" fill="#000000" fill-rule="nonzero" fill-opacity="1"></path><path clip-path="url(#clip400)" d="M148.311 1129.47 L164.63 1129.47 L164.63 1133.41 L142.686 1133.41 L142.686 1129.47 Q145.348 1126.72 149.931 1122.09 Q154.538 1117.43 155.718 1116.09 Q157.964 1113.57 158.843 1111.83 Q159.746 1110.07 159.746 1108.38 Q159.746 1105.63 157.802 1103.89 Q155.88 1102.16 152.778 1102.16 Q150.579 1102.16 148.126 1102.92 Q145.695 1103.68 142.917 1105.23 L142.917 1100.51 Q145.741 1099.38 148.195 1098.8 Q150.649 1098.22 152.686 1098.22 Q158.056 1098.22 161.251 1100.91 Q164.445 1103.59 164.445 1108.08 Q164.445 1110.21 163.635 1112.13 Q162.848 1114.03 160.741 1116.62 Q160.163 1117.29 157.061 1120.51 Q153.959 1123.71 148.311 1129.47 Z" fill="#000000" fill-rule="nonzero" fill-opacity="1"></path><path clip-path="url(#clip400)" d="M174.491 1098.85 L192.848 1098.85 L192.848 1102.78 L178.774 1102.78 L178.774 1111.25 Q179.792 1110.91 180.811 1110.74 Q181.829 1110.56 182.848 1110.56 Q188.635 1110.56 192.014 1113.73 Q195.394 1116.9 195.394 1122.32 Q195.394 1127.9 191.922 1131 Q188.45 1134.08 182.13 1134.08 Q179.954 1134.08 177.686 1133.71 Q175.44 1133.34 173.033 1132.6 L173.033 1127.9 Q175.116 1129.03 177.339 1129.59 Q179.561 1130.14 182.038 1130.14 Q186.042 1130.14 188.38 1128.04 Q190.718 1125.93 190.718 1122.32 Q190.718 1118.71 188.38 1116.6 Q186.042 1114.49 182.038 1114.49 Q180.163 1114.49 178.288 1114.91 Q176.436 1115.33 174.491 1116.21 L174.491 1098.85 Z" fill="#000000" fill-rule="nonzero" fill-opacity="1"></path><path clip-path="url(#clip400)" d="M214.607 1101.92 Q210.996 1101.92 209.167 1105.49 Q207.362 1109.03 207.362 1116.16 Q207.362 1123.27 209.167 1126.83 Q210.996 1130.37 214.607 1130.37 Q218.241 1130.37 220.047 1126.83 Q221.875 1123.27 221.875 1116.16 Q221.875 1109.03 220.047 1105.49 Q218.241 1101.92 214.607 1101.92 M214.607 1098.22 Q220.417 1098.22 223.473 1102.83 Q226.551 1107.41 226.551 1116.16 Q226.551 1124.89 223.473 1129.49 Q220.417 1134.08 214.607 1134.08 Q208.797 1134.08 205.718 1129.49 Q202.662 1124.89 202.662 1116.16 Q202.662 1107.41 205.718 1102.83 Q208.797 1098.22 214.607 1098.22 Z" fill="#000000" fill-rule="nonzero" fill-opacity="1"></path><path clip-path="url(#clip400)" d="M144.329 828.843 L162.686 828.843 L162.686 832.778 L148.612 832.778 L148.612 841.25 Q149.63 840.903 150.649 840.741 Q151.667 840.556 152.686 840.556 Q158.473 840.556 161.852 843.727 Q165.232 846.898 165.232 852.315 Q165.232 857.894 161.76 860.995 Q158.288 864.074 151.968 864.074 Q149.792 864.074 147.524 863.704 Q145.279 863.333 142.871 862.593 L142.871 857.894 Q144.954 859.028 147.177 859.583 Q149.399 860.139 151.876 860.139 Q155.88 860.139 158.218 858.032 Q160.556 855.926 160.556 852.315 Q160.556 848.704 158.218 846.597 Q155.88 844.491 151.876 844.491 Q150.001 844.491 148.126 844.907 Q146.274 845.324 144.329 846.204 L144.329 828.843 Z" fill="#000000" fill-rule="nonzero" fill-opacity="1"></path><path clip-path="url(#clip400)" d="M184.445 831.921 Q180.834 831.921 179.005 835.486 Q177.2 839.028 177.2 846.157 Q177.2 853.264 179.005 856.829 Q180.834 860.37 184.445 860.37 Q188.079 860.37 189.885 856.829 Q191.713 853.264 191.713 846.157 Q191.713 839.028 189.885 835.486 Q188.079 831.921 184.445 831.921 M184.445 828.218 Q190.255 828.218 193.311 832.824 Q196.389 837.408 196.389 846.157 Q196.389 854.884 193.311 859.491 Q190.255 864.074 184.445 864.074 Q178.635 864.074 175.556 859.491 Q172.501 854.884 172.501 846.157 Q172.501 837.408 175.556 832.824 Q178.635 828.218 184.445 828.218 Z" fill="#000000" fill-rule="nonzero" fill-opacity="1"></path><path clip-path="url(#clip400)" d="M214.607 831.921 Q210.996 831.921 209.167 835.486 Q207.362 839.028 207.362 846.157 Q207.362 853.264 209.167 856.829 Q210.996 860.37 214.607 860.37 Q218.241 860.37 220.047 856.829 Q221.875 853.264 221.875 846.157 Q221.875 839.028 220.047 835.486 Q218.241 831.921 214.607 831.921 M214.607 828.218 Q220.417 828.218 223.473 832.824 Q226.551 837.408 226.551 846.157 Q226.551 854.884 223.473 859.491 Q220.417 864.074 214.607 864.074 Q208.797 864.074 205.718 859.491 Q202.662 854.884 202.662 846.157 Q202.662 837.408 205.718 832.824 Q208.797 828.218 214.607 828.218 Z" fill="#000000" fill-rule="nonzero" fill-opacity="1"></path><path clip-path="url(#clip400)" d="M143.103 558.84 L165.325 558.84 L165.325 560.831 L152.778 593.4 L147.894 593.4 L159.7 562.775 L143.103 562.775 L143.103 558.84 Z" fill="#000000" fill-rule="nonzero" fill-opacity="1"></path><path clip-path="url(#clip400)" d="M174.491 558.84 L192.848 558.84 L192.848 562.775 L178.774 562.775 L178.774 571.247 Q179.792 570.9 180.811 570.738 Q181.829 570.553 182.848 570.553 Q188.635 570.553 192.014 573.724 Q195.394 576.895 195.394 582.312 Q195.394 587.891 191.922 590.993 Q188.45 594.071 182.13 594.071 Q179.954 594.071 177.686 593.701 Q175.44 593.331 173.033 592.59 L173.033 587.891 Q175.116 589.025 177.339 589.581 Q179.561 590.136 182.038 590.136 Q186.042 590.136 188.38 588.03 Q190.718 585.923 190.718 582.312 Q190.718 578.701 188.38 576.595 Q186.042 574.488 182.038 574.488 Q180.163 574.488 178.288 574.905 Q176.436 575.321 174.491 576.201 L174.491 558.84 Z" fill="#000000" fill-rule="nonzero" fill-opacity="1"></path><path clip-path="url(#clip400)" d="M214.607 561.919 Q210.996 561.919 209.167 565.483 Q207.362 569.025 207.362 576.155 Q207.362 583.261 209.167 586.826 Q210.996 590.368 214.607 590.368 Q218.241 590.368 220.047 586.826 Q221.875 583.261 221.875 576.155 Q221.875 569.025 220.047 565.483 Q218.241 561.919 214.607 561.919 M214.607 558.215 Q220.417 558.215 223.473 562.821 Q226.551 567.405 226.551 576.155 Q226.551 584.881 223.473 589.488 Q220.417 594.071 214.607 594.071 Q208.797 594.071 205.718 589.488 Q202.662 584.881 202.662 576.155 Q202.662 567.405 205.718 562.821 Q208.797 558.215 214.607 558.215 Z" fill="#000000" fill-rule="nonzero" fill-opacity="1"></path><path clip-path="url(#clip400)" d="M114.931 319.462 L122.57 319.462 L122.57 293.096 L114.26 294.763 L114.26 290.504 L122.524 288.837 L127.2 288.837 L127.2 319.462 L134.839 319.462 L134.839 323.397 L114.931 323.397 L114.931 319.462 Z" fill="#000000" fill-rule="nonzero" fill-opacity="1"></path><path clip-path="url(#clip400)" d="M154.283 291.916 Q150.672 291.916 148.843 295.481 Q147.038 299.022 147.038 306.152 Q147.038 313.258 148.843 316.823 Q150.672 320.365 154.283 320.365 Q157.917 320.365 159.723 316.823 Q161.552 313.258 161.552 306.152 Q161.552 299.022 159.723 295.481 Q157.917 291.916 154.283 291.916 M154.283 288.212 Q160.093 288.212 163.149 292.819 Q166.227 297.402 166.227 306.152 Q166.227 314.879 163.149 319.485 Q160.093 324.068 154.283 324.068 Q148.473 324.068 145.394 319.485 Q142.339 314.879 142.339 306.152 Q142.339 297.402 145.394 292.819 Q148.473 288.212 154.283 288.212 Z" fill="#000000" fill-rule="nonzero" fill-opacity="1"></path><path clip-path="url(#clip400)" d="M184.445 291.916 Q180.834 291.916 179.005 295.481 Q177.2 299.022 177.2 306.152 Q177.2 313.258 179.005 316.823 Q180.834 320.365 184.445 320.365 Q188.079 320.365 189.885 316.823 Q191.713 313.258 191.713 306.152 Q191.713 299.022 189.885 295.481 Q188.079 291.916 184.445 291.916 M184.445 288.212 Q190.255 288.212 193.311 292.819 Q196.389 297.402 196.389 306.152 Q196.389 314.879 193.311 319.485 Q190.255 324.068 184.445 324.068 Q178.635 324.068 175.556 319.485 Q172.501 314.879 172.501 306.152 Q172.501 297.402 175.556 292.819 Q178.635 288.212 184.445 288.212 Z" fill="#000000" fill-rule="nonzero" fill-opacity="1"></path><path clip-path="url(#clip400)" d="M214.607 291.916 Q210.996 291.916 209.167 295.481 Q207.362 299.022 207.362 306.152 Q207.362 313.258 209.167 316.823 Q210.996 320.365 214.607 320.365 Q218.241 320.365 220.047 316.823 Q221.875 313.258 221.875 306.152 Q221.875 299.022 220.047 295.481 Q218.241 291.916 214.607 291.916 M214.607 288.212 Q220.417 288.212 223.473 292.819 Q226.551 297.402 226.551 306.152 Q226.551 314.879 223.473 319.485 Q220.417 324.068 214.607 324.068 Q208.797 324.068 205.718 319.485 Q202.662 314.879 202.662 306.152 Q202.662 297.402 205.718 292.819 Q208.797 288.212 214.607 288.212 Z" fill="#000000" fill-rule="nonzero" fill-opacity="1"></path><path clip-path="url(#clip400)" d="M44.7161 911.525 L47.5806 911.525 L47.5806 938.452 Q53.6281 938.07 56.8109 934.824 Q59.9619 931.546 59.9619 925.721 Q59.9619 922.347 59.1344 919.196 Q58.3069 916.013 56.6518 912.894 L62.1899 912.894 Q63.5267 916.045 64.227 919.355 Q64.9272 922.665 64.9272 926.071 Q64.9272 934.601 59.9619 939.598 Q54.9967 944.563 46.5303 944.563 Q37.7774 944.563 32.6531 939.853 Q27.4968 935.11 27.4968 927.09 Q27.4968 919.896 32.1438 915.727 Q36.7589 911.525 44.7161 911.525 M42.9973 917.382 Q38.1912 917.446 35.3266 920.087 Q32.4621 922.697 32.4621 927.026 Q32.4621 931.928 35.2312 934.888 Q38.0002 937.816 43.0292 938.261 L42.9973 917.382 Z" fill="#000000" fill-rule="nonzero" fill-opacity="1"></path><path clip-path="url(#clip400)" d="M28.3562 873.427 L45.7028 886.317 L64.0042 872.758 L64.0042 879.665 L49.9996 890.041 L64.0042 900.417 L64.0042 907.324 L45.3526 893.479 L28.3562 906.146 L28.3562 899.24 L41.0558 889.787 L28.3562 880.334 L28.3562 873.427 Z" fill="#000000" fill-rule="nonzero" fill-opacity="1"></path><path clip-path="url(#clip400)" d="M58.657 858.817 L77.5631 858.817 L77.5631 864.706 L28.3562 864.706 L28.3562 858.817 L33.7671 858.817 Q30.5842 856.971 29.0564 854.17 Q27.4968 851.338 27.4968 847.423 Q27.4968 840.93 32.6531 836.888 Q37.8093 832.814 46.212 832.814 Q54.6147 832.814 59.771 836.888 Q64.9272 840.93 64.9272 847.423 Q64.9272 851.338 63.3994 854.17 Q61.8398 856.971 58.657 858.817 M46.212 838.893 Q39.7508 838.893 36.0905 841.566 Q32.3984 844.208 32.3984 848.855 Q32.3984 853.502 36.0905 856.176 Q39.7508 858.817 46.212 858.817 Q52.6732 858.817 56.3653 856.176 Q60.0256 853.502 60.0256 848.855 Q60.0256 844.208 56.3653 841.566 Q52.6732 838.893 46.212 838.893 Z" fill="#000000" fill-rule="nonzero" fill-opacity="1"></path><path clip-path="url(#clip400)" d="M33.8307 802.449 Q33.2578 803.436 33.0032 804.613 Q32.7167 805.759 32.7167 807.16 Q32.7167 812.125 35.9632 814.799 Q39.1779 817.44 45.2253 817.44 L64.0042 817.44 L64.0042 823.329 L28.3562 823.329 L28.3562 817.44 L33.8944 817.44 Q30.6479 815.594 29.0883 812.634 Q27.4968 809.674 27.4968 805.441 Q27.4968 804.836 27.5923 804.104 Q27.656 803.372 27.8151 802.481 L33.8307 802.449 Z" fill="#000000" fill-rule="nonzero" fill-opacity="1"></path><path clip-path="url(#clip400)" d="M44.7161 767.247 L47.5806 767.247 L47.5806 794.174 Q53.6281 793.792 56.8109 790.545 Q59.9619 787.267 59.9619 781.442 Q59.9619 778.068 59.1344 774.917 Q58.3069 771.735 56.6518 768.615 L62.1899 768.615 Q63.5267 771.766 64.227 775.077 Q64.9272 778.387 64.9272 781.792 Q64.9272 790.322 59.9619 795.32 Q54.9967 800.285 46.5303 800.285 Q37.7774 800.285 32.6531 795.574 Q27.4968 790.832 27.4968 782.811 Q27.4968 775.618 32.1438 771.448 Q36.7589 767.247 44.7161 767.247 M42.9973 773.103 Q38.1912 773.167 35.3266 775.809 Q32.4621 778.419 32.4621 782.747 Q32.4621 787.649 35.2312 790.609 Q38.0002 793.537 43.0292 793.983 L42.9973 773.103 Z" fill="#000000" fill-rule="nonzero" fill-opacity="1"></path><path clip-path="url(#clip400)" d="M29.4065 734.909 L34.9447 734.909 Q33.6716 737.392 33.035 740.065 Q32.3984 742.739 32.3984 745.603 Q32.3984 749.964 33.7352 752.16 Q35.072 754.324 37.7456 754.324 Q39.7826 754.324 40.9603 752.765 Q42.1061 751.205 43.1565 746.495 L43.6021 744.489 Q44.9389 738.251 47.3897 735.641 Q49.8086 732.999 54.1691 732.999 Q59.1344 732.999 62.0308 736.946 Q64.9272 740.861 64.9272 747.736 Q64.9272 750.6 64.3543 753.72 Q63.8132 756.807 62.6992 760.244 L56.6518 760.244 Q58.3387 756.998 59.198 753.847 Q60.0256 750.696 60.0256 747.609 Q60.0256 743.471 58.6251 741.243 Q57.1929 739.015 54.6147 739.015 Q52.2276 739.015 50.9545 740.638 Q49.6813 742.23 48.5037 747.672 L48.0262 749.709 Q46.8804 755.152 44.5251 757.571 Q42.138 759.99 38.0002 759.99 Q32.9713 759.99 30.2341 756.425 Q27.4968 752.86 27.4968 746.304 Q27.4968 743.057 27.9743 740.192 Q28.4517 737.328 29.4065 734.909 Z" fill="#000000" fill-rule="nonzero" fill-opacity="1"></path><path clip-path="url(#clip400)" d="M29.4065 700.948 L34.9447 700.948 Q33.6716 703.431 33.035 706.104 Q32.3984 708.778 32.3984 711.642 Q32.3984 716.003 33.7352 718.199 Q35.072 720.363 37.7456 720.363 Q39.7826 720.363 40.9603 718.804 Q42.1061 717.244 43.1565 712.533 L43.6021 710.528 Q44.9389 704.29 47.3897 701.68 Q49.8086 699.038 54.1691 699.038 Q59.1344 699.038 62.0308 702.985 Q64.9272 706.9 64.9272 713.775 Q64.9272 716.639 64.3543 719.759 Q63.8132 722.846 62.6992 726.283 L56.6518 726.283 Q58.3387 723.037 59.198 719.886 Q60.0256 716.735 60.0256 713.647 Q60.0256 709.51 58.6251 707.282 Q57.1929 705.054 54.6147 705.054 Q52.2276 705.054 50.9545 706.677 Q49.6813 708.268 48.5037 713.711 L48.0262 715.748 Q46.8804 721.191 44.5251 723.61 Q42.138 726.029 38.0002 726.029 Q32.9713 726.029 30.2341 722.464 Q27.4968 718.899 27.4968 712.343 Q27.4968 709.096 27.9743 706.231 Q28.4517 703.367 29.4065 700.948 Z" fill="#000000" fill-rule="nonzero" fill-opacity="1"></path><path clip-path="url(#clip400)" d="M28.3562 689.712 L28.3562 683.856 L64.0042 683.856 L64.0042 689.712 L28.3562 689.712 M14.479 689.712 L14.479 683.856 L21.895 683.856 L21.895 689.712 L14.479 689.712 Z" fill="#000000" fill-rule="nonzero" fill-opacity="1"></path><path clip-path="url(#clip400)" d="M32.4621 657.788 Q32.4621 662.499 36.1542 665.236 Q39.8145 667.974 46.212 667.974 Q52.6095 667.974 56.3017 665.268 Q59.9619 662.531 59.9619 657.788 Q59.9619 653.11 56.2698 650.372 Q52.5777 647.635 46.212 647.635 Q39.8781 647.635 36.186 650.372 Q32.4621 653.11 32.4621 657.788 M27.4968 657.788 Q27.4968 650.15 32.4621 645.789 Q37.4273 641.429 46.212 641.429 Q54.9649 641.429 59.9619 645.789 Q64.9272 650.15 64.9272 657.788 Q64.9272 665.459 59.9619 669.82 Q54.9649 674.148 46.212 674.148 Q37.4273 674.148 32.4621 669.82 Q27.4968 665.459 27.4968 657.788 Z" fill="#000000" fill-rule="nonzero" fill-opacity="1"></path><path clip-path="url(#clip400)" d="M42.4881 602.088 L64.0042 602.088 L64.0042 607.945 L42.679 607.945 Q37.6183 607.945 35.1038 609.918 Q32.5894 611.892 32.5894 615.838 Q32.5894 620.581 35.6131 623.318 Q38.6368 626.055 43.8567 626.055 L64.0042 626.055 L64.0042 631.944 L28.3562 631.944 L28.3562 626.055 L33.8944 626.055 Q30.6797 623.955 29.0883 621.122 Q27.4968 618.257 27.4968 614.533 Q27.4968 608.391 31.3163 605.24 Q35.1038 602.088 42.4881 602.088 Z" fill="#000000" fill-rule="nonzero" fill-opacity="1"></path><path clip-path="url(#clip400)" d="M916.843 39.9662 Q922.716 41.222 925.998 45.1919 Q929.319 49.1618 929.319 54.9951 Q929.319 63.9476 923.162 68.8492 Q917.005 73.7508 905.662 73.7508 Q901.854 73.7508 897.803 72.9811 Q893.793 72.2519 889.499 70.7531 L889.499 62.8538 Q892.902 64.8388 896.953 65.8515 Q901.004 66.8642 905.419 66.8642 Q913.116 66.8642 917.126 63.826 Q921.177 60.7879 921.177 54.9951 Q921.177 49.6479 917.41 46.6502 Q913.683 43.612 906.999 43.612 L899.95 43.612 L899.95 36.8875 L907.323 36.8875 Q913.359 36.8875 916.559 34.4975 Q919.759 32.067 919.759 27.5299 Q919.759 22.8714 916.437 20.4004 Q913.156 17.8888 906.999 17.8888 Q903.637 17.8888 899.788 18.618 Q895.94 19.3471 891.322 20.8865 L891.322 13.5948 Q895.98 12.2985 900.031 11.6504 Q904.123 11.0023 907.728 11.0023 Q917.045 11.0023 922.473 15.2557 Q927.902 19.4686 927.902 26.6793 Q927.902 31.7024 925.025 35.1862 Q922.149 38.6294 916.843 39.9662 Z" fill="#000000" fill-rule="nonzero" fill-opacity="1"></path><path clip-path="url(#clip400)" d="M987.733 32.4315 Q981.738 32.4315 978.254 37.1306 Q974.771 41.7891 974.771 49.9314 Q974.771 58.0738 978.214 62.7728 Q981.698 67.4314 987.733 67.4314 Q993.688 67.4314 997.172 62.7323 Q1000.66 58.0333 1000.66 49.9314 Q1000.66 41.8701 997.172 37.1711 Q993.688 32.4315 987.733 32.4315 M987.733 26.1121 Q997.456 26.1121 1003.01 32.4315 Q1008.56 38.7509 1008.56 49.9314 Q1008.56 61.0714 1003.01 67.4314 Q997.456 73.7508 987.733 73.7508 Q977.971 73.7508 972.421 67.4314 Q966.912 61.0714 966.912 49.9314 Q966.912 38.7509 972.421 32.4315 Q977.971 26.1121 987.733 26.1121 Z" fill="#000000" fill-rule="nonzero" fill-opacity="1"></path><path clip-path="url(#clip400)" d="M1049.83 28.5427 L1049.83 35.5912 Q1046.67 33.9709 1043.27 33.1607 Q1039.87 32.3505 1036.22 32.3505 Q1030.67 32.3505 1027.88 34.0519 Q1025.12 35.7533 1025.12 39.156 Q1025.12 41.7486 1027.11 43.2475 Q1029.09 44.7058 1035.09 46.0426 L1037.64 46.6097 Q1045.58 48.3111 1048.9 51.4303 Q1052.26 54.509 1052.26 60.0587 Q1052.26 66.3781 1047.24 70.0644 Q1042.26 73.7508 1033.51 73.7508 Q1029.86 73.7508 1025.89 73.0216 Q1021.96 72.3329 1017.59 70.9151 L1017.59 63.2184 Q1021.72 65.3654 1025.73 66.4591 Q1029.74 67.5124 1033.67 67.5124 Q1038.94 67.5124 1041.77 65.73 Q1044.61 63.9071 1044.61 60.6258 Q1044.61 57.5877 1042.54 55.9673 Q1040.52 54.3469 1033.59 52.8481 L1031 52.2405 Q1024.07 50.7821 1020.99 47.7845 Q1017.91 44.7463 1017.91 39.4801 Q1017.91 33.0797 1022.45 29.5959 Q1026.99 26.1121 1035.33 26.1121 Q1039.46 26.1121 1043.11 26.7198 Q1046.76 27.3274 1049.83 28.5427 Z" fill="#000000" fill-rule="nonzero" fill-opacity="1"></path><path clip-path="url(#clip400)" d="M1096.78 28.9478 L1096.78 35.9153 Q1093.62 34.1734 1090.42 33.3227 Q1087.26 32.4315 1084.02 32.4315 Q1076.77 32.4315 1072.76 37.0496 Q1068.75 41.6271 1068.75 49.9314 Q1068.75 58.2358 1072.76 62.8538 Q1076.77 67.4314 1084.02 67.4314 Q1087.26 67.4314 1090.42 66.5807 Q1093.62 65.6895 1096.78 63.9476 L1096.78 70.8341 Q1093.66 72.2924 1090.3 73.0216 Q1086.98 73.7508 1083.21 73.7508 Q1072.96 73.7508 1066.93 67.3098 Q1060.89 60.8689 1060.89 49.9314 Q1060.89 38.832 1066.97 32.472 Q1073.09 26.1121 1083.7 26.1121 Q1087.14 26.1121 1090.42 26.8413 Q1093.71 27.5299 1096.78 28.9478 Z" fill="#000000" fill-rule="nonzero" fill-opacity="1"></path><path clip-path="url(#clip400)" d="M1109.75 27.2059 L1117.2 27.2059 L1117.2 72.576 L1109.75 72.576 L1109.75 27.2059 M1109.75 9.54393 L1117.2 9.54393 L1117.2 18.9825 L1109.75 18.9825 L1109.75 9.54393 Z" fill="#000000" fill-rule="nonzero" fill-opacity="1"></path><path clip-path="url(#clip400)" d="M1132.8 9.54393 L1140.25 9.54393 L1140.25 72.576 L1132.8 72.576 L1132.8 9.54393 Z" fill="#000000" fill-rule="nonzero" fill-opacity="1"></path><path clip-path="url(#clip400)" d="M1176.47 49.7694 Q1167.43 49.7694 1163.95 51.8354 Q1160.46 53.9013 1160.46 58.8839 Q1160.46 62.8538 1163.06 65.2034 Q1165.69 67.5124 1170.19 67.5124 Q1176.38 67.5124 1180.11 63.1374 Q1183.88 58.7219 1183.88 51.4303 L1183.88 49.7694 L1176.47 49.7694 M1191.33 46.6907 L1191.33 72.576 L1183.88 72.576 L1183.88 65.6895 Q1181.33 69.8214 1177.52 71.8063 Q1173.71 73.7508 1168.2 73.7508 Q1161.23 73.7508 1157.1 69.8619 Q1153.01 65.9325 1153.01 59.3701 Q1153.01 51.7138 1158.11 47.825 Q1163.26 43.9361 1173.43 43.9361 L1183.88 43.9361 L1183.88 43.2069 Q1183.88 38.0623 1180.48 35.2672 Q1177.11 32.4315 1171 32.4315 Q1167.11 32.4315 1163.42 33.3632 Q1159.73 34.295 1156.33 36.1584 L1156.33 29.2718 Q1160.42 27.692 1164.27 26.9223 Q1168.12 26.1121 1171.77 26.1121 Q1181.61 26.1121 1186.47 31.2163 Q1191.33 36.3204 1191.33 46.6907 Z" fill="#000000" fill-rule="nonzero" fill-opacity="1"></path><path clip-path="url(#clip400)" d="M1214.06 14.324 L1214.06 27.2059 L1229.41 27.2059 L1229.41 32.9987 L1214.06 32.9987 L1214.06 57.6282 Q1214.06 63.1779 1215.56 64.7578 Q1217.1 66.3376 1221.75 66.3376 L1229.41 66.3376 L1229.41 72.576 L1221.75 72.576 Q1213.13 72.576 1209.84 69.3758 Q1206.56 66.1351 1206.56 57.6282 L1206.56 32.9987 L1201.09 32.9987 L1201.09 27.2059 L1206.56 27.2059 L1206.56 14.324 L1214.06 14.324 Z" fill="#000000" fill-rule="nonzero" fill-opacity="1"></path><path clip-path="url(#clip400)" d="M1239.21 27.2059 L1246.67 27.2059 L1246.67 72.576 L1239.21 72.576 L1239.21 27.2059 M1239.21 9.54393 L1246.67 9.54393 L1246.67 18.9825 L1239.21 18.9825 L1239.21 9.54393 Z" fill="#000000" fill-rule="nonzero" fill-opacity="1"></path><path clip-path="url(#clip400)" d="M1279.84 32.4315 Q1273.85 32.4315 1270.36 37.1306 Q1266.88 41.7891 1266.88 49.9314 Q1266.88 58.0738 1270.32 62.7728 Q1273.81 67.4314 1279.84 67.4314 Q1285.8 67.4314 1289.28 62.7323 Q1292.77 58.0333 1292.77 49.9314 Q1292.77 41.8701 1289.28 37.1711 Q1285.8 32.4315 1279.84 32.4315 M1279.84 26.1121 Q1289.57 26.1121 1295.12 32.4315 Q1300.67 38.7509 1300.67 49.9314 Q1300.67 61.0714 1295.12 67.4314 Q1289.57 73.7508 1279.84 73.7508 Q1270.08 73.7508 1264.53 67.4314 Q1259.02 61.0714 1259.02 49.9314 Q1259.02 38.7509 1264.53 32.4315 Q1270.08 26.1121 1279.84 26.1121 Z" fill="#000000" fill-rule="nonzero" fill-opacity="1"></path><path clip-path="url(#clip400)" d="M1350.73 45.1919 L1350.73 72.576 L1343.28 72.576 L1343.28 45.4349 Q1343.28 38.994 1340.77 35.7938 Q1338.26 32.5936 1333.24 32.5936 Q1327.2 32.5936 1323.72 36.4419 Q1320.23 40.2903 1320.23 46.9338 L1320.23 72.576 L1312.74 72.576 L1312.74 27.2059 L1320.23 27.2059 L1320.23 34.2544 Q1322.91 30.163 1326.51 28.1376 Q1330.16 26.1121 1334.9 26.1121 Q1342.71 26.1121 1346.72 30.9732 Q1350.73 35.7938 1350.73 45.1919 Z" fill="#000000" fill-rule="nonzero" fill-opacity="1"></path><path clip-path="url(#clip400)" d="M1394.53 28.5427 L1394.53 35.5912 Q1391.37 33.9709 1387.96 33.1607 Q1384.56 32.3505 1380.91 32.3505 Q1375.36 32.3505 1372.57 34.0519 Q1369.81 35.7533 1369.81 39.156 Q1369.81 41.7486 1371.8 43.2475 Q1373.78 44.7058 1379.78 46.0426 L1382.33 46.6097 Q1390.27 48.3111 1393.59 51.4303 Q1396.96 54.509 1396.96 60.0587 Q1396.96 66.3781 1391.93 70.0644 Q1386.95 73.7508 1378.2 73.7508 Q1374.55 73.7508 1370.58 73.0216 Q1366.65 72.3329 1362.28 70.9151 L1362.28 63.2184 Q1366.41 65.3654 1370.42 66.4591 Q1374.43 67.5124 1378.36 67.5124 Q1383.63 67.5124 1386.46 65.73 Q1389.3 63.9071 1389.3 60.6258 Q1389.3 57.5877 1387.23 55.9673 Q1385.21 54.3469 1378.28 52.8481 L1375.69 52.2405 Q1368.76 50.7821 1365.68 47.7845 Q1362.6 44.7463 1362.6 39.4801 Q1362.6 33.0797 1367.14 29.5959 Q1371.68 26.1121 1380.02 26.1121 Q1384.15 26.1121 1387.8 26.7198 Q1391.45 27.3274 1394.53 28.5427 Z" fill="#000000" fill-rule="nonzero" fill-opacity="1"></path><path clip-path="url(#clip400)" d="M1465.05 34.0924 L1465.05 9.54393 L1472.51 9.54393 L1472.51 72.576 L1465.05 72.576 L1465.05 65.7705 Q1462.7 69.8214 1459.1 71.8063 Q1455.53 73.7508 1450.51 73.7508 Q1442.29 73.7508 1437.1 67.1883 Q1431.96 60.6258 1431.96 49.9314 Q1431.96 39.2371 1437.1 32.6746 Q1442.29 26.1121 1450.51 26.1121 Q1455.53 26.1121 1459.1 28.0971 Q1462.7 30.0415 1465.05 34.0924 M1439.65 49.9314 Q1439.65 58.1548 1443.01 62.8538 Q1446.42 67.5124 1452.33 67.5124 Q1458.25 67.5124 1461.65 62.8538 Q1465.05 58.1548 1465.05 49.9314 Q1465.05 41.7081 1461.65 37.0496 Q1458.25 32.3505 1452.33 32.3505 Q1446.42 32.3505 1443.01 37.0496 Q1439.65 41.7081 1439.65 49.9314 Z" fill="#000000" fill-rule="nonzero" fill-opacity="1"></path><path clip-path="url(#clip400)" d="M1526.67 48.0275 L1526.67 51.6733 L1492.4 51.6733 Q1492.88 59.3701 1497.01 63.421 Q1501.19 67.4314 1508.6 67.4314 Q1512.89 67.4314 1516.9 66.3781 Q1520.95 65.3249 1524.92 63.2184 L1524.92 70.267 Q1520.91 71.9684 1516.7 72.8596 Q1512.49 73.7508 1508.15 73.7508 Q1497.3 73.7508 1490.94 67.4314 Q1484.62 61.1119 1484.62 50.3365 Q1484.62 39.1965 1490.61 32.6746 Q1496.65 26.1121 1506.86 26.1121 Q1516.01 26.1121 1521.32 32.0264 Q1526.67 37.9003 1526.67 48.0275 M1519.21 45.84 Q1519.13 39.7232 1515.77 36.0774 Q1512.45 32.4315 1506.94 32.4315 Q1500.7 32.4315 1496.93 35.9558 Q1493.21 39.4801 1492.64 45.8805 L1519.21 45.84 Z" fill="#000000" fill-rule="nonzero" fill-opacity="1"></path><path clip-path="url(#clip400)" d="M1567.82 28.5427 L1567.82 35.5912 Q1564.66 33.9709 1561.26 33.1607 Q1557.86 32.3505 1554.21 32.3505 Q1548.66 32.3505 1545.87 34.0519 Q1543.11 35.7533 1543.11 39.156 Q1543.11 41.7486 1545.1 43.2475 Q1547.08 44.7058 1553.08 46.0426 L1555.63 46.6097 Q1563.57 48.3111 1566.89 51.4303 Q1570.25 54.509 1570.25 60.0587 Q1570.25 66.3781 1565.23 70.0644 Q1560.25 73.7508 1551.5 73.7508 Q1547.85 73.7508 1543.88 73.0216 Q1539.95 72.3329 1535.58 70.9151 L1535.58 63.2184 Q1539.71 65.3654 1543.72 66.4591 Q1547.73 67.5124 1551.66 67.5124 Q1556.93 67.5124 1559.76 65.73 Q1562.6 63.9071 1562.6 60.6258 Q1562.6 57.5877 1560.53 55.9673 Q1558.51 54.3469 1551.58 52.8481 L1548.99 52.2405 Q1542.06 50.7821 1538.98 47.7845 Q1535.9 44.7463 1535.9 39.4801 Q1535.9 33.0797 1540.44 29.5959 Q1544.98 26.1121 1553.32 26.1121 Q1557.45 26.1121 1561.1 26.7198 Q1564.74 27.3274 1567.82 28.5427 Z" fill="#000000" fill-rule="nonzero" fill-opacity="1"></path><path clip-path="url(#clip400)" d="M1582.12 27.2059 L1589.58 27.2059 L1589.58 72.576 L1582.12 72.576 L1582.12 27.2059 M1582.12 9.54393 L1589.58 9.54393 L1589.58 18.9825 L1582.12 18.9825 L1582.12 9.54393 Z" fill="#000000" fill-rule="nonzero" fill-opacity="1"></path><path clip-path="url(#clip400)" d="M1631.46 34.1734 Q1630.21 33.4443 1628.71 33.1202 Q1627.25 32.7556 1625.47 32.7556 Q1619.15 32.7556 1615.75 36.8875 Q1612.38 40.9789 1612.38 48.6757 L1612.38 72.576 L1604.89 72.576 L1604.89 27.2059 L1612.38 27.2059 L1612.38 34.2544 Q1614.73 30.1225 1618.5 28.1376 Q1622.27 26.1121 1627.65 26.1121 Q1628.42 26.1121 1629.36 26.2337 Q1630.29 26.3147 1631.42 26.5172 L1631.46 34.1734 Z" fill="#000000" fill-rule="nonzero" fill-opacity="1"></path><path clip-path="url(#clip400)" d="M1676.27 48.0275 L1676.27 51.6733 L1641.99 51.6733 Q1642.48 59.3701 1646.61 63.421 Q1650.79 67.4314 1658.2 67.4314 Q1662.49 67.4314 1666.5 66.3781 Q1670.55 65.3249 1674.52 63.2184 L1674.52 70.267 Q1670.51 71.9684 1666.3 72.8596 Q1662.09 73.7508 1657.75 73.7508 Q1646.9 73.7508 1640.54 67.4314 Q1634.22 61.1119 1634.22 50.3365 Q1634.22 39.1965 1640.21 32.6746 Q1646.25 26.1121 1656.46 26.1121 Q1665.61 26.1121 1670.92 32.0264 Q1676.27 37.9003 1676.27 48.0275 M1668.81 45.84 Q1668.73 39.7232 1665.37 36.0774 Q1662.05 32.4315 1656.54 32.4315 Q1650.3 32.4315 1646.53 35.9558 Q1642.81 39.4801 1642.24 45.8805 L1668.81 45.84 Z" fill="#000000" fill-rule="nonzero" fill-opacity="1"></path><path clip-path="url(#clip400)" d="M1718.35 34.0924 L1718.35 9.54393 L1725.81 9.54393 L1725.81 72.576 L1718.35 72.576 L1718.35 65.7705 Q1716 69.8214 1712.4 71.8063 Q1708.83 73.7508 1703.81 73.7508 Q1695.59 73.7508 1690.4 67.1883 Q1685.26 60.6258 1685.26 49.9314 Q1685.26 39.2371 1690.4 32.6746 Q1695.59 26.1121 1703.81 26.1121 Q1708.83 26.1121 1712.4 28.0971 Q1716 30.0415 1718.35 34.0924 M1692.96 49.9314 Q1692.96 58.1548 1696.32 62.8538 Q1699.72 67.5124 1705.63 67.5124 Q1711.55 67.5124 1714.95 62.8538 Q1718.35 58.1548 1718.35 49.9314 Q1718.35 41.7081 1714.95 37.0496 Q1711.55 32.3505 1705.63 32.3505 Q1699.72 32.3505 1696.32 37.0496 Q1692.96 41.7081 1692.96 49.9314 Z" fill="#000000" fill-rule="nonzero" fill-opacity="1"></path><polyline clip-path="url(#clip402)" style="stroke:#009af9; stroke-linecap:round; stroke-linejoin:round; stroke-width:4; stroke-opacity:1; fill:none" points="321.708,1386.17 323.68,1386.17 325.652,1386.14 327.624,1386.13 329.596,1386.17 331.567,1386.2 333.539,1386.09 335.511,1386.12 337.483,1386.12 339.455,1386.05 341.427,1386.09 343.399,1386.07 345.371,1385.94 347.343,1385.85 349.314,1385.97 351.286,1386.09 353.258,1386.09 355.23,1385.89 357.202,1385.84 359.174,1385.55 361.146,1385.77 363.118,1385.64 365.09,1386.18 367.061,1385.78 369.033,1385.96 371.005,1385.98 372.977,1385.96 374.949,1385.54 376.921,1385.3 378.893,1385.17 380.865,1385.17 382.837,1384.33 384.808,1384.95 386.78,1384.81 388.752,1383.88 390.724,1383.31 392.696,1383.45 394.668,1383.96 396.64,1382.27 398.612,1379.67 400.584,1376.61 402.555,1375.68 404.527,1373.54 406.499,1358.84 408.471,1339.9 410.443,1300.36 412.415,1254.16 414.387,1238.26 416.359,1203.76 418.331,1186.35 420.303,1166.3 422.274,1119.21 424.246,1071.09 426.218,1030.25 428.19,999.107 430.162,969.799 432.134,947.343 434.106,908.208 436.078,878.553 438.05,849.767 440.021,821.125 441.993,782.747 443.965,756.187 445.937,714.719 447.909,698.028 449.881,677.204 451.853,625.286 453.825,591.342 455.797,559.028 457.768,532.471 459.74,525.539 461.712,522.6 463.684,501.225 465.656,473.613 467.628,459.85 469.6,435.453 471.572,421.514 473.544,393.892 475.515,384.636 477.487,375.917 479.459,370.638 481.431,352.847 483.403,366.998 485.375,350.783 487.347,336.951 489.319,319.738 491.291,329.151 493.262,329.193 495.234,318.925 497.206,302.067 499.178,308.435 501.15,319.827 503.122,316.246 505.094,296.446 507.066,287.745 509.038,278.717 511.01,268.137 512.981,267.096 514.953,258.833 516.925,246.768 518.897,256.991 520.869,250.811 522.841,252.711 524.813,250.886 526.785,246.384 528.757,246.132 530.728,247.482 532.7,242.436 534.672,241.238 536.644,227.872 538.616,231.454 540.588,225.053 542.56,221.505 544.532,225.766 546.504,221.465 548.475,213.68 550.447,228.374 552.419,207.494 554.391,220.075 556.363,214.143 558.335,221.298 560.307,220.914 562.279,184.285 564.251,184.597 566.222,161.981 568.194,160.256 570.166,174.469 572.138,163.876 574.11,166.199 576.082,185.731 578.054,185.371 580.026,175.954 581.998,195.958 583.969,216.844 585.941,218.237 587.913,202.078 589.885,254.388 591.857,312.801 593.829,370.742 595.801,446.551 597.773,501.082 599.745,543.073 601.717,599.225 603.688,636.356 605.66,671.824 607.632,716.318 609.604,747.484 611.576,782.967 613.548,829.134 615.52,858.566 617.492,885.535 619.464,913.074 621.435,930.626 623.407,957.835 625.379,978.61 627.351,998.2 629.323,1017.65 631.295,1033.99 633.267,1051.78 635.239,1070.32 637.211,1090.24 639.182,1104.74 641.154,1121.5 643.126,1137.88 645.098,1151.36 647.07,1163.25 649.042,1177.5 651.014,1183.54 652.986,1190.54 654.958,1197.14 656.929,1203.4 658.901,1212.51 660.873,1220.25 662.845,1226.28 664.817,1230.95 666.789,1243.96 668.761,1253.83 670.733,1261.33 672.705,1269.03 674.676,1272.81 676.648,1279.39 678.62,1288.46 680.592,1293.92 682.564,1300.33 684.536,1303.6 686.508,1305.47 688.48,1308.34 690.452,1314 692.424,1318.92 694.395,1321.81 696.367,1326.43 698.339,1328.71 700.311,1333.07 702.283,1335.32 704.255,1336.6 706.227,1336.41 708.199,1338.76 710.171,1343.33 712.142,1346.81 714.114,1348.51 716.086,1351.17 718.058,1354.31 720.03,1356.6 722.002,1358.89 723.974,1359.79 725.946,1361.69 727.918,1364.03 729.889,1365.65 731.861,1365.43 733.833,1366.86 735.805,1366.92 737.777,1369.26 739.749,1369.76 741.721,1369.11 743.693,1370.08 745.665,1371.29 747.636,1370.67 749.608,1371.5 751.58,1373.79 753.552,1374.73 755.524,1375.3 757.496,1376.92 759.468,1377.29 761.44,1378.3 763.412,1379.09 765.383,1379 767.355,1379.01 769.327,1380.27 771.299,1379.77 773.271,1380.17 775.243,1380.54 777.215,1380.87 779.187,1381.71 781.159,1382.4 783.131,1383.09 785.102,1383.28 787.074,1384.19 789.046,1384.13 791.018,1383.79 792.99,1384.32 794.962,1383.8 796.934,1383.66 798.906,1384.06 800.878,1383.94 802.849,1384.04 804.821,1384.25 806.793,1384.44 808.765,1384.55 810.737,1384.93 812.709,1385.21 814.681,1385.22 816.653,1385.48 818.625,1385.54 820.596,1385.33 822.568,1385.36 824.54,1385.35 826.512,1385.3 828.484,1385.39 830.456,1385.28 832.428,1385.28 834.4,1385.34 836.372,1385.18 838.343,1385.42 840.315,1385.51 842.287,1385.77 844.259,1385.81 846.231,1385.76 848.203,1385.77 850.175,1385.83 852.147,1385.72 854.119,1385.67 856.09,1385.88 858.062,1385.94 860.034,1385.89 862.006,1386.01 863.978,1385.99 865.95,1386.01 867.922,1385.85 869.894,1385.9 871.866,1385.99 873.837,1385.79 875.809,1385.64 877.781,1386.08 879.753,1386.07 881.725,1385.98 883.697,1386.02 885.669,1386.02 887.641,1386.08 889.613,1386.07 891.585,1385.96 893.556,1386.07 895.528,1386.07 897.5,1386.14 899.472,1386.17 901.444,1386.17 903.416,1386.18 905.388,1386.19 907.36,1386.13 909.332,1386.14 911.303,1386.22 913.275,1386.19 915.247,1386.06 917.219,1386.01 919.191,1385.97 921.163,1385.96 923.135,1385.96 925.107,1385.85 927.079,1385.83 929.05,1385.77 931.022,1385.89 932.994,1385.66 934.966,1385.41 936.938,1385.85 938.91,1385.39 940.882,1385.08 942.854,1384.91 944.826,1385.36 946.797,1385.04 948.769,1384.98 950.741,1384.6 952.713,1384.92 954.685,1384.66 956.657,1385.19 958.629,1384.97 960.601,1385.7 962.573,1385.61 964.544,1385.01 966.516,1385.32 968.488,1385.59 970.46,1386.22 972.432,1384.83 974.404,1382.9 976.376,1379.4 978.348,1375.23 980.32,1373.26 982.292,1368.04 984.263,1366.14 986.235,1361.35 988.207,1343.43 990.179,1330.4 992.151,1302.42 994.123,1255.66 996.095,1218.31 998.067,1194.14 1000.04,1185.27 1002.01,1166.82 1003.98,1158.7 1005.95,1145.14 1007.93,1130.99 1009.9,1088.95 1011.87,1070.11 1013.84,1055.75 1015.81,1027.19 1017.79,982.597 1019.76,957.606 1021.73,933.493 1023.7,895.275 1025.67,854.255 1027.65,819.206 1029.62,801.467 1031.59,777.25 1033.56,743.973 1035.53,724.048 1037.5,703.976 1039.48,679.325 1041.45,654.004 1043.42,643.995 1045.39,620.98 1047.36,601.382 1049.34,600.597 1051.31,568.754 1053.28,554.78 1055.25,527.044 1057.22,502.933 1059.2,481.398 1061.17,456.286 1063.14,439.055 1065.11,423.684 1067.08,426.413 1069.05,432.284 1071.03,398.665 1073,390.063 1074.97,370.479 1076.94,372.232 1078.91,375.3 1080.89,346.265 1082.86,344.534 1084.83,315.396 1086.8,306.628 1088.77,301.539 1090.75,305.574 1092.72,283.987 1094.69,288.445 1096.66,293.17 1098.63,296.955 1100.6,296.384 1102.58,270.745 1104.55,242.187 1106.52,236.86 1108.49,247.075 1110.46,243.418 1112.44,249.843 1114.41,246.967 1116.38,220.855 1118.35,215.883 1120.32,209.671 1122.3,207.809 1124.27,222.827 1126.24,234.732 1128.21,235.441 1130.18,224.494 1132.16,208.313 1134.13,221.486 1136.1,242.048 1138.07,238.097 1140.04,212.832 1142.01,204.673 1143.99,193.806 1145.96,196.486 1147.93,191.687 1149.9,194.781 1151.87,194.849 1153.85,212.177 1155.82,216.926 1157.79,215.269 1159.76,214.43 1161.73,206.12 1163.71,197.362 1165.68,200.045 1167.65,214.024 1169.62,239.29 1171.59,291.424 1173.56,342.748 1175.54,398.51 1177.51,434.04 1179.48,487.254 1181.45,536.806 1183.42,574.603 1185.4,606.165 1187.37,644.492 1189.34,681.633 1191.31,714.774 1193.28,750.96 1195.26,784.27 1197.23,813.674 1199.2,837.649 1201.17,865.038 1203.14,887.484 1205.12,911.517 1207.09,936.611 1209.06,951.888 1211.03,977.752 1213,997.013 1214.97,1008.35 1216.95,1019.74 1218.92,1032.02 1220.89,1048.77 1222.86,1072.59 1224.83,1085.69 1226.81,1101.98 1228.78,1112.46 1230.75,1132.26 1232.72,1145.81 1234.69,1155.15 1236.67,1168.79 1238.64,1186.44 1240.61,1194.78 1242.58,1202.66 1244.55,1212.37 1246.52,1221.31 1248.5,1231.65 1250.47,1240.01 1252.44,1249.36 1254.41,1258.59 1256.38,1261.84 1258.36,1264.1 1260.33,1273.39 1262.3,1282.57 1264.27,1287.16 1266.24,1292.64 1268.22,1296.41 1270.19,1296.92 1272.16,1303 1274.13,1307.38 1276.1,1312.13 1278.08,1317.68 1280.05,1322.56 1282.02,1322.66 1283.99,1327.92 1285.96,1329.18 1287.93,1329.38 1289.91,1329.94 1291.88,1330.88 1293.85,1331.92 1295.82,1335.57 1297.79,1340.71 1299.77,1342.21 1301.74,1344.52 1303.71,1347.74 1305.68,1349.24 1307.65,1353.51 1309.63,1354.67 1311.6,1354.77 1313.57,1354.68 1315.54,1356.57 1317.51,1359.09 1319.48,1360.27 1321.46,1360.4 1323.43,1361.53 1325.4,1361.68 1327.37,1363.17 1329.34,1364.77 1331.32,1365.95 1333.29,1365.7 1335.26,1367.74 1337.23,1369.13 1339.2,1369.05 1341.18,1368.91 1343.15,1368.61 1345.12,1369.52 1347.09,1370.08 1349.06,1370.85 1351.04,1370.63 1353.01,1372.21 1354.98,1373.5 1356.95,1373.51 1358.92,1373.35 1360.89,1373.11 1362.87,1374.43 1364.84,1372.92 1366.81,1372.92 1368.78,1373.08 1370.75,1373.35 1372.73,1372.58 1374.7,1373.42 1376.67,1373.24 1378.64,1372.85 1380.61,1372.83 1382.59,1372.84 1384.56,1373.46 1386.53,1374.92 1388.5,1375.53 1390.47,1376.11 1392.44,1376.85 1394.42,1376.99 1396.39,1376.94 1398.36,1377.59 1400.33,1377.81 1402.3,1377.77 1404.28,1377.17 1406.25,1377.7 1408.22,1378.13 1410.19,1378.38 1412.16,1378.72 1414.14,1379.45 1416.11,1380.12 1418.08,1379.46 1420.05,1378.49 1422.02,1377.95 1424,1378.11 1425.97,1378.22 1427.94,1377.65 1429.91,1377.63 1431.88,1377.32 1433.85,1377.46 1435.83,1378.81 1437.8,1379 1439.77,1378.4 1441.74,1378.84 1443.71,1378.94 1445.69,1379.18 1447.66,1379.44 1449.63,1379.65 1451.6,1380.52 1453.57,1381.5 1455.55,1381.38 1457.52,1382.16 1459.49,1381.36 1461.46,1381.66 1463.43,1382.27 1465.4,1383.14 1467.38,1383.35 1469.35,1383.7 1471.32,1384.19 1473.29,1384.54 1475.26,1384.5 1477.24,1384.79 1479.21,1384.77 1481.18,1385.03 1483.15,1385.05 1485.12,1385.09 1487.1,1384.82 1489.07,1385.09 1491.04,1384.9 1493.01,1384.74 1494.98,1384.29 1496.96,1384.35 1498.93,1384.94 1500.9,1385.25 1502.87,1385.04 1504.84,1385.17 1506.81,1385.2 1508.79,1385.14 1510.76,1384.99 1512.73,1385.16 1514.7,1385.22 1516.67,1385.3 1518.65,1385.39 1520.62,1385.66 1522.59,1385.51 1524.56,1385.57 1526.53,1385.68 1528.51,1385.81 1530.48,1385.83 1532.45,1386.03 1534.42,1385.96 1536.39,1385.92 1538.36,1385.83 1540.34,1385.6 1542.31,1385.88 1544.28,1385.89 1546.25,1385.8 1548.22,1385.89 1550.2,1385.85 1552.17,1386.06 1554.14,1386.09 1556.11,1386.09 1558.08,1386.02 1560.06,1385.9 1562.03,1386.15 1564,1386.13 1565.97,1386.17 1567.94,1386.14 1569.92,1386.18 1571.89,1386.08 1573.86,1386.02 1575.83,1385.86 1577.8,1385.84 1579.77,1385.96 1581.75,1385.99 1583.72,1386.11 1585.69,1386.22 1587.66,1386.22 1589.63,1386.05 1591.61,1386.13 1593.58,1386.13 1595.55,1386.03 1597.52,1386.09 1599.49,1386.02 1601.47,1386.13 1603.44,1386.08 1605.41,1386.26 1607.38,1386.24 1609.35,1386 1611.32,1385.75 1613.3,1385.43 1615.27,1384.67 1617.24,1384.92 1619.21,1384.42 1621.18,1384.56 1623.16,1383.65 1625.13,1382.95 1627.1,1383.39 1629.07,1383.42 1631.04,1381.95 1633.02,1380.94 1634.99,1380.5 1636.96,1380.75 1638.93,1380.46 1640.9,1377.74 1642.88,1378.12 1644.85,1376.93 1646.82,1375.94 1648.79,1377.35 1650.76,1372.78 1652.73,1372.59 1654.71,1372.37 1656.68,1370.61 1658.65,1369.27 1660.62,1369.11 1662.59,1369.67 1664.57,1368.18 1666.54,1366.29 1668.51,1365.84 1670.48,1367.04 1672.45,1367.12 1674.43,1367.27 1676.4,1367.94 1678.37,1362.62 1680.34,1359.17 1682.31,1355.71 1684.28,1351.21 1686.26,1342.16 1688.23,1338.28 1690.2,1312.66 1692.17,1298.5 1694.14,1271.96 1696.12,1250.93 1698.09,1208.98 1700.06,1170.8 1702.03,1140.71 1704,1098.58 1705.98,1071.37 1707.95,1032.34 1709.92,1025.87 1711.89,994.463 1713.86,985.992 1715.84,970.963 1717.81,945.4 1719.78,916.454 1721.75,892.183 1723.72,859.795 1725.69,833.209 1727.67,798.042 1729.64,754.416 1731.61,739.568 1733.58,716.386 1735.55,697.045 1737.53,654.29 1739.5,633.278 1741.47,608.115 1743.44,588.264 1745.41,567.127 1747.39,555.955 1749.36,532.911 1751.33,520.058 1753.3,498.014 1755.27,494.284 1757.24,460.922 1759.22,453.742 1761.19,426.517 1763.16,407.347 1765.13,408.263 1767.1,396.941 1769.08,385.846 1771.05,361.147 1773.02,362.727 1774.99,366.876 1776.96,354.5 1778.94,347.759 1780.91,359.587 1782.88,365.617 1784.85,356.913 1786.82,364.171 1788.8,360.701 1790.77,329.761 1792.74,309.925 1794.71,311.006 1796.68,313.214 1798.65,309.064 1800.63,293.936 1802.6,295.957 1804.57,282.772 1806.54,276.502 1808.51,249.196 1810.49,237.791 1812.46,232.716 1814.43,236.55 1816.4,238.689 1818.37,230.53 1820.35,211.71 1822.32,188.089 1824.29,189.496 1826.26,203.068 1828.23,217.47 1830.2,253.256 1832.18,289.366 1834.15,339.482 1836.12,378.378 1838.09,420.488 1840.06,464.729 1842.04,520.822 1844.01,556.514 1845.98,607.357 1847.95,633.033 1849.92,668.588 1851.9,706.239 1853.87,739.819 1855.84,758.873 1857.81,790.969 1859.78,823.007 1861.75,847.38 1863.73,878.107 1865.7,909.984 1867.67,930.803 1869.64,954.442 1871.61,981.058 1873.59,996.092 1875.56,1006.6 1877.53,1024.69 1879.5,1047.64 1881.47,1073.31 1883.45,1088.31 1885.42,1106.31 1887.39,1118.97 1889.36,1137.08 1891.33,1145.88 1893.31,1154.41 1895.28,1168.62 1897.25,1178.16 1899.22,1187.81 1901.19,1199.61 1903.16,1209.1 1905.14,1215.98 1907.11,1218.96 1909.08,1225.67 1911.05,1238.62 1913.02,1249.4 1915,1256.48 1916.97,1264.95 1918.94,1272.66 1920.91,1277.2 1922.88,1276.62 1924.86,1283.36 1926.83,1286.81 1928.8,1293.82 1930.77,1298.44 1932.74,1298.9 1934.71,1302.24 1936.69,1304.49 1938.66,1307.42 1940.63,1311.55 1942.6,1317.33 1944.57,1318.97 1946.55,1321.02 1948.52,1323.02 1950.49,1328.44 1952.46,1332.88 1954.43,1334.39 1956.41,1339.05 1958.38,1340.27 1960.35,1343.33 1962.32,1345.04 1964.29,1347.19 1966.27,1349.12 1968.24,1349.74 1970.21,1350.35 1972.18,1352.44 1974.15,1352.57 1976.12,1352.36 1978.1,1353.05 1980.07,1355.55 1982.04,1355.18 1984.01,1354.93 1985.98,1356.84 1987.96,1357.67 1989.93,1356.16 1991.9,1358.39 1993.87,1359.41 1995.84,1362.86 1997.82,1363.7 1999.79,1364.73 2001.76,1366.11 2003.73,1366.5 2005.7,1366.57 2007.67,1367.8 2009.65,1367.59 2011.62,1367.34 2013.59,1367.69 2015.56,1367.92 2017.53,1367.53 2019.51,1367.82 2021.48,1366.98 2023.45,1367.55 2025.42,1367.23 2027.39,1368.95 2029.37,1370.15 2031.34,1370.02 2033.31,1370.92 2035.28,1370.92 2037.25,1371.57 2039.23,1372.09 2041.2,1374.15 2043.17,1375.17 2045.14,1374.97 2047.11,1376.62 2049.08,1376.52 2051.06,1376.7 2053.03,1377.35 2055,1376.97 2056.97,1377.25 2058.94,1377.44 2060.92,1376.74 2062.89,1377.24 2064.86,1378.41 2066.83,1379.95 2068.8,1380.54 2070.78,1381.17 2072.75,1381.55 2074.72,1382.22 2076.69,1382.84 2078.66,1382.41 2080.63,1382.59 2082.61,1382.41 2084.58,1382.97 2086.55,1383.9 2088.52,1383.36 2090.49,1383.64 2092.47,1383.79 2094.44,1384.45 2096.41,1384.43 2098.38,1384.22 2100.35,1383.77 2102.33,1383.68 2104.3,1382.84 2106.27,1382.55 2108.24,1382.37 2110.21,1382.67 2112.19,1382.93 2114.16,1383.33 2116.13,1383.81 2118.1,1384.65 2120.07,1384.63 2122.04,1385 2124.02,1384.92 2125.99,1384.63 2127.96,1384.81 2129.93,1384.91 2131.9,1384.66 2133.88,1385.07 2135.85,1385.48 2137.82,1385.27 2139.79,1385.47 2141.76,1385.52 2143.74,1385.66 2145.71,1385.45 2147.68,1385.62 2149.65,1385.55 2151.62,1385.66 2153.59,1385.92 2155.57,1385.84 2157.54,1385.87 2159.51,1385.94 2161.48,1386.08 2163.45,1386.08 2165.43,1386.06 2167.4,1386.13 2169.37,1386.14 2171.34,1386.14 2173.31,1386.14 2175.29,1386.15 2177.26,1386.14 2179.23,1386.11 2181.2,1386.11 2183.17,1386.1 2185.15,1386.1 2187.12,1386.15 2189.09,1386.12 2191.06,1386.1 2193.03,1386.13 2195,1386.14 2196.98,1386.12 2198.95,1386.14 2200.92,1386.14 2202.89,1386.12 2204.86,1386.15 2206.84,1386.08 2208.81,1386 2210.78,1385.92 2212.75,1385.98 2214.72,1385.89 2216.7,1386.1 2218.67,1386.07 2220.64,1386.04 2222.61,1385.99 2224.58,1386.14 2226.55,1385.97 2228.53,1385.92 2230.5,1385.81 2232.47,1385.68 2234.44,1385.46 2236.41,1385.44 2238.39,1385.85 2240.36,1386 2242.33,1386.15 2244.3,1386.18 2246.27,1386.4 2248.25,1386.2 2250.22,1386.26 2252.19,1386.13 2254.16,1386.21 2256.13,1386.2 2258.11,1385.37 2260.08,1384.68 2262.05,1384.34 2264.02,1383.94 2265.99,1385.47 2267.96,1385.24 2269.94,1385.18 2271.91,1385.3 2273.88,1384.53 2275.85,1384.07 2277.82,1382.6 2279.8,1380.57 2281.77,1377.74 2283.74,1373.62 2285.71,1372.43 2287.68,1371.52 2289.66,1370.42 2291.63,1363.09 2293.6,1353.25 "></polyline>
</svg>