<svg xmlns="http://www.w3.org/2000/svg" xmlns:xlink="http://www.w3.org/1999/xlink" width="600" height="400" viewBox="0 0 2400 1600">
<defs>
  <clipPath id="clip280">
    <rect x="0" y="0" width="2400" height="1600"></rect>
  </clipPath>
</defs>
<path clip-path="url(#clip280)" d="M0 1600 L2400 1600 L2400 8.88178e-14 L0 8.88178e-14  Z" fill="#ffffff" fill-rule="evenodd" fill-opacity="1"></path>
<defs>
  <clipPath id="clip281">
    <rect x="480" y="0" width="1681" height="1600"></rect>
  </clipPath>
</defs>
<path clip-path="url(#clip280)" d="M234.125 1423.18 L2352.76 1423.18 L2352.76 123.472 L234.125 123.472  Z" fill="#ffffff" fill-rule="evenodd" fill-opacity="1"></path>
<defs>
  <clipPath id="clip282">
    <rect x="234" y="123" width="2120" height="1301"></rect>
  </clipPath>
</defs>
<polyline clip-path="url(#clip282)" style="stroke:#000000; stroke-linecap:round; stroke-linejoin:round; stroke-width:2; stroke-opacity:0.1; fill:none" points="292.088,1423.18 292.088,123.472 "></polyline>
<polyline clip-path="url(#clip282)" style="stroke:#000000; stroke-linecap:round; stroke-linejoin:round; stroke-width:2; stroke-opacity:0.1; fill:none" points="791.765,1423.18 791.765,123.472 "></polyline>
<polyline clip-path="url(#clip282)" style="stroke:#000000; stroke-linecap:round; stroke-linejoin:round; stroke-width:2; stroke-opacity:0.1; fill:none" points="1291.44,1423.18 1291.44,123.472 "></polyline>
<polyline clip-path="url(#clip282)" style="stroke:#000000; stroke-linecap:round; stroke-linejoin:round; stroke-width:2; stroke-opacity:0.1; fill:none" points="1791.12,1423.18 1791.12,123.472 "></polyline>
<polyline clip-path="url(#clip282)" style="stroke:#000000; stroke-linecap:round; stroke-linejoin:round; stroke-width:2; stroke-opacity:0.1; fill:none" points="2290.8,1423.18 2290.8,123.472 "></polyline>
<polyline clip-path="url(#clip282)" style="stroke:#000000; stroke-linecap:round; stroke-linejoin:round; stroke-width:2; stroke-opacity:0.1; fill:none" points="234.125,1380.26 2352.76,1380.26 "></polyline>
<polyline clip-path="url(#clip282)" style="stroke:#000000; stroke-linecap:round; stroke-linejoin:round; stroke-width:2; stroke-opacity:0.1; fill:none" points="234.125,1162.84 2352.76,1162.84 "></polyline>
<polyline clip-path="url(#clip282)" style="stroke:#000000; stroke-linecap:round; stroke-linejoin:round; stroke-width:2; stroke-opacity:0.1; fill:none" points="234.125,945.416 2352.76,945.416 "></polyline>
<polyline clip-path="url(#clip282)" style="stroke:#000000; stroke-linecap:round; stroke-linejoin:round; stroke-width:2; stroke-opacity:0.1; fill:none" points="234.125,727.995 2352.76,727.995 "></polyline>
<polyline clip-path="url(#clip282)" style="stroke:#000000; stroke-linecap:round; stroke-linejoin:round; stroke-width:2; stroke-opacity:0.1; fill:none" points="234.125,510.574 2352.76,510.574 "></polyline>
<polyline clip-path="url(#clip282)" style="stroke:#000000; stroke-linecap:round; stroke-linejoin:round; stroke-width:2; stroke-opacity:0.1; fill:none" points="234.125,293.152 2352.76,293.152 "></polyline>
<polyline clip-path="url(#clip280)" style="stroke:#000000; stroke-linecap:round; stroke-linejoin:round; stroke-width:4; stroke-opacity:1; fill:none" points="234.125,1423.18 2352.76,1423.18 "></polyline>
<polyline clip-path="url(#clip280)" style="stroke:#000000; stroke-linecap:round; stroke-linejoin:round; stroke-width:4; stroke-opacity:1; fill:none" points="292.088,1423.18 292.088,1404.28 "></polyline>
<polyline clip-path="url(#clip280)" style="stroke:#000000; stroke-linecap:round; stroke-linejoin:round; stroke-width:4; stroke-opacity:1; fill:none" points="791.765,1423.18 791.765,1404.28 "></polyline>
<polyline clip-path="url(#clip280)" style="stroke:#000000; stroke-linecap:round; stroke-linejoin:round; stroke-width:4; stroke-opacity:1; fill:none" points="1291.44,1423.18 1291.44,1404.28 "></polyline>
<polyline clip-path="url(#clip280)" style="stroke:#000000; stroke-linecap:round; stroke-linejoin:round; stroke-width:4; stroke-opacity:1; fill:none" points="1791.12,1423.18 1791.12,1404.28 "></polyline>
<polyline clip-path="url(#clip280)" style="stroke:#000000; stroke-linecap:round; stroke-linejoin:round; stroke-width:4; stroke-opacity:1; fill:none" points="2290.8,1423.18 2290.8,1404.28 "></polyline>
<path clip-path="url(#clip280)" d="M292.088 1454.1 Q288.477 1454.1 286.648 1457.66 Q284.843 1461.2 284.843 1468.33 Q284.843 1475.44 286.648 1479.01 Q288.477 1482.55 292.088 1482.55 Q295.722 1482.55 297.528 1479.01 Q299.356 1475.44 299.356 1468.33 Q299.356 1461.2 297.528 1457.66 Q295.722 1454.1 292.088 1454.1 M292.088 1450.39 Q297.898 1450.39 300.954 1455 Q304.032 1459.58 304.032 1468.33 Q304.032 1477.06 300.954 1481.67 Q297.898 1486.25 292.088 1486.25 Q286.278 1486.25 283.199 1481.67 Q280.144 1477.06 280.144 1468.33 Q280.144 1459.58 283.199 1455 Q286.278 1450.39 292.088 1450.39 Z" fill="#000000" fill-rule="nonzero" fill-opacity="1"></path><path clip-path="url(#clip280)" d="M755.457 1481.64 L771.777 1481.64 L771.777 1485.58 L749.832 1485.58 L749.832 1481.64 Q752.494 1478.89 757.078 1474.26 Q761.684 1469.61 762.865 1468.27 Q765.11 1465.74 765.99 1464.01 Q766.892 1462.25 766.892 1460.56 Q766.892 1457.8 764.948 1456.07 Q763.027 1454.33 759.925 1454.33 Q757.726 1454.33 755.272 1455.09 Q752.842 1455.86 750.064 1457.41 L750.064 1452.69 Q752.888 1451.55 755.342 1450.97 Q757.795 1450.39 759.832 1450.39 Q765.203 1450.39 768.397 1453.08 Q771.591 1455.77 771.591 1460.26 Q771.591 1462.39 770.781 1464.31 Q769.994 1466.2 767.888 1468.8 Q767.309 1469.47 764.207 1472.69 Q761.105 1475.88 755.457 1481.64 Z" fill="#000000" fill-rule="nonzero" fill-opacity="1"></path><path clip-path="url(#clip280)" d="M781.638 1451.02 L799.994 1451.02 L799.994 1454.96 L785.92 1454.96 L785.92 1463.43 Q786.939 1463.08 787.957 1462.92 Q788.976 1462.73 789.994 1462.73 Q795.781 1462.73 799.161 1465.9 Q802.54 1469.08 802.54 1474.49 Q802.54 1480.07 799.068 1483.17 Q795.596 1486.25 789.277 1486.25 Q787.101 1486.25 784.832 1485.88 Q782.587 1485.51 780.179 1484.77 L780.179 1480.07 Q782.263 1481.2 784.485 1481.76 Q786.707 1482.32 789.184 1482.32 Q793.189 1482.32 795.527 1480.21 Q797.864 1478.1 797.864 1474.49 Q797.864 1470.88 795.527 1468.77 Q793.189 1466.67 789.184 1466.67 Q787.309 1466.67 785.434 1467.08 Q783.582 1467.5 781.638 1468.38 L781.638 1451.02 Z" fill="#000000" fill-rule="nonzero" fill-opacity="1"></path><path clip-path="url(#clip280)" d="M821.753 1454.1 Q818.142 1454.1 816.313 1457.66 Q814.508 1461.2 814.508 1468.33 Q814.508 1475.44 816.313 1479.01 Q818.142 1482.55 821.753 1482.55 Q825.387 1482.55 827.193 1479.01 Q829.022 1475.44 829.022 1468.33 Q829.022 1461.2 827.193 1457.66 Q825.387 1454.1 821.753 1454.1 M821.753 1450.39 Q827.563 1450.39 830.619 1455 Q833.698 1459.58 833.698 1468.33 Q833.698 1477.06 830.619 1481.67 Q827.563 1486.25 821.753 1486.25 Q815.943 1486.25 812.864 1481.67 Q809.809 1477.06 809.809 1468.33 Q809.809 1459.58 812.864 1455 Q815.943 1450.39 821.753 1450.39 Z" fill="#000000" fill-rule="nonzero" fill-opacity="1"></path><path clip-path="url(#clip280)" d="M1251.06 1451.02 L1269.42 1451.02 L1269.42 1454.96 L1255.34 1454.96 L1255.34 1463.43 Q1256.36 1463.08 1257.38 1462.92 Q1258.4 1462.73 1259.42 1462.73 Q1265.2 1462.73 1268.58 1465.9 Q1271.96 1469.08 1271.96 1474.49 Q1271.96 1480.07 1268.49 1483.17 Q1265.02 1486.25 1258.7 1486.25 Q1256.52 1486.25 1254.25 1485.88 Q1252.01 1485.51 1249.6 1484.77 L1249.6 1480.07 Q1251.69 1481.2 1253.91 1481.76 Q1256.13 1482.32 1258.61 1482.32 Q1262.61 1482.32 1264.95 1480.21 Q1267.29 1478.1 1267.29 1474.49 Q1267.29 1470.88 1264.95 1468.77 Q1262.61 1466.67 1258.61 1466.67 Q1256.73 1466.67 1254.86 1467.08 Q1253 1467.5 1251.06 1468.38 L1251.06 1451.02 Z" fill="#000000" fill-rule="nonzero" fill-opacity="1"></path><path clip-path="url(#clip280)" d="M1291.18 1454.1 Q1287.56 1454.1 1285.74 1457.66 Q1283.93 1461.2 1283.93 1468.33 Q1283.93 1475.44 1285.74 1479.01 Q1287.56 1482.55 1291.18 1482.55 Q1294.81 1482.55 1296.62 1479.01 Q1298.44 1475.44 1298.44 1468.33 Q1298.44 1461.2 1296.62 1457.66 Q1294.81 1454.1 1291.18 1454.1 M1291.18 1450.39 Q1296.99 1450.39 1300.04 1455 Q1303.12 1459.58 1303.12 1468.33 Q1303.12 1477.06 1300.04 1481.67 Q1296.99 1486.25 1291.18 1486.25 Q1285.37 1486.25 1282.29 1481.67 Q1279.23 1477.06 1279.23 1468.33 Q1279.23 1459.58 1282.29 1455 Q1285.37 1450.39 1291.18 1450.39 Z" fill="#000000" fill-rule="nonzero" fill-opacity="1"></path><path clip-path="url(#clip280)" d="M1321.34 1454.1 Q1317.73 1454.1 1315.9 1457.66 Q1314.09 1461.2 1314.09 1468.33 Q1314.09 1475.44 1315.9 1479.01 Q1317.73 1482.55 1321.34 1482.55 Q1324.97 1482.55 1326.78 1479.01 Q1328.61 1475.44 1328.61 1468.33 Q1328.61 1461.2 1326.78 1457.66 Q1324.97 1454.1 1321.34 1454.1 M1321.34 1450.39 Q1327.15 1450.39 1330.2 1455 Q1333.28 1459.58 1333.28 1468.33 Q1333.28 1477.06 1330.2 1481.67 Q1327.15 1486.25 1321.34 1486.25 Q1315.53 1486.25 1312.45 1481.67 Q1309.39 1477.06 1309.39 1468.33 Q1309.39 1459.58 1312.45 1455 Q1315.53 1450.39 1321.34 1450.39 Z" fill="#000000" fill-rule="nonzero" fill-opacity="1"></path><path clip-path="url(#clip280)" d="M1749.39 1451.02 L1771.62 1451.02 L1771.62 1453.01 L1759.07 1485.58 L1754.19 1485.58 L1765.99 1454.96 L1749.39 1454.96 L1749.39 1451.02 Z" fill="#000000" fill-rule="nonzero" fill-opacity="1"></path><path clip-path="url(#clip280)" d="M1780.78 1451.02 L1799.14 1451.02 L1799.14 1454.96 L1785.07 1454.96 L1785.07 1463.43 Q1786.08 1463.08 1787.1 1462.92 Q1788.12 1462.73 1789.14 1462.73 Q1794.93 1462.73 1798.31 1465.9 Q1801.69 1469.08 1801.69 1474.49 Q1801.69 1480.07 1798.21 1483.17 Q1794.74 1486.25 1788.42 1486.25 Q1786.25 1486.25 1783.98 1485.88 Q1781.73 1485.51 1779.33 1484.77 L1779.33 1480.07 Q1781.41 1481.2 1783.63 1481.76 Q1785.85 1482.32 1788.33 1482.32 Q1792.33 1482.32 1794.67 1480.21 Q1797.01 1478.1 1797.01 1474.49 Q1797.01 1470.88 1794.67 1468.77 Q1792.33 1466.67 1788.33 1466.67 Q1786.45 1466.67 1784.58 1467.08 Q1782.73 1467.5 1780.78 1468.38 L1780.78 1451.02 Z" fill="#000000" fill-rule="nonzero" fill-opacity="1"></path><path clip-path="url(#clip280)" d="M1820.9 1454.1 Q1817.29 1454.1 1815.46 1457.66 Q1813.65 1461.2 1813.65 1468.33 Q1813.65 1475.44 1815.46 1479.01 Q1817.29 1482.55 1820.9 1482.55 Q1824.53 1482.55 1826.34 1479.01 Q1828.17 1475.44 1828.17 1468.33 Q1828.17 1461.2 1826.34 1457.66 Q1824.53 1454.1 1820.9 1454.1 M1820.9 1450.39 Q1826.71 1450.39 1829.76 1455 Q1832.84 1459.58 1832.84 1468.33 Q1832.84 1477.06 1829.76 1481.67 Q1826.71 1486.25 1820.9 1486.25 Q1815.09 1486.25 1812.01 1481.67 Q1808.95 1477.06 1808.95 1468.33 Q1808.95 1459.58 1812.01 1455 Q1815.09 1450.39 1820.9 1450.39 Z" fill="#000000" fill-rule="nonzero" fill-opacity="1"></path><path clip-path="url(#clip280)" d="M2235.32 1481.64 L2242.96 1481.64 L2242.96 1455.28 L2234.65 1456.95 L2234.65 1452.69 L2242.91 1451.02 L2247.59 1451.02 L2247.59 1481.64 L2255.23 1481.64 L2255.23 1485.58 L2235.32 1485.58 L2235.32 1481.64 Z" fill="#000000" fill-rule="nonzero" fill-opacity="1"></path><path clip-path="url(#clip280)" d="M2274.67 1454.1 Q2271.06 1454.1 2269.23 1457.66 Q2267.43 1461.2 2267.43 1468.33 Q2267.43 1475.44 2269.23 1479.01 Q2271.06 1482.55 2274.67 1482.55 Q2278.31 1482.55 2280.11 1479.01 Q2281.94 1475.44 2281.94 1468.33 Q2281.94 1461.2 2280.11 1457.66 Q2278.31 1454.1 2274.67 1454.1 M2274.67 1450.39 Q2280.48 1450.39 2283.54 1455 Q2286.62 1459.58 2286.62 1468.33 Q2286.62 1477.06 2283.54 1481.67 Q2280.48 1486.25 2274.67 1486.25 Q2268.86 1486.25 2265.78 1481.67 Q2262.73 1477.06 2262.73 1468.33 Q2262.73 1459.58 2265.78 1455 Q2268.86 1450.39 2274.67 1450.39 Z" fill="#000000" fill-rule="nonzero" fill-opacity="1"></path><path clip-path="url(#clip280)" d="M2304.84 1454.1 Q2301.22 1454.1 2299.4 1457.66 Q2297.59 1461.2 2297.59 1468.33 Q2297.59 1475.44 2299.4 1479.01 Q2301.22 1482.55 2304.84 1482.55 Q2308.47 1482.55 2310.28 1479.01 Q2312.1 1475.44 2312.1 1468.33 Q2312.1 1461.2 2310.28 1457.66 Q2308.47 1454.1 2304.84 1454.1 M2304.84 1450.39 Q2310.65 1450.39 2313.7 1455 Q2316.78 1459.58 2316.78 1468.33 Q2316.78 1477.06 2313.7 1481.67 Q2310.65 1486.25 2304.84 1486.25 Q2299.03 1486.25 2295.95 1481.67 Q2292.89 1477.06 2292.89 1468.33 Q2292.89 1459.58 2295.95 1455 Q2299.03 1450.39 2304.84 1450.39 Z" fill="#000000" fill-rule="nonzero" fill-opacity="1"></path><path clip-path="url(#clip280)" d="M2335 1454.1 Q2331.39 1454.1 2329.56 1457.66 Q2327.75 1461.2 2327.75 1468.33 Q2327.75 1475.44 2329.56 1479.01 Q2331.39 1482.55 2335 1482.55 Q2338.63 1482.55 2340.44 1479.01 Q2342.27 1475.44 2342.27 1468.33 Q2342.27 1461.2 2340.44 1457.66 Q2338.63 1454.1 2335 1454.1 M2335 1450.39 Q2340.81 1450.39 2343.86 1455 Q2346.94 1459.58 2346.94 1468.33 Q2346.94 1477.06 2343.86 1481.67 Q2340.81 1486.25 2335 1486.25 Q2329.19 1486.25 2326.11 1481.67 Q2323.05 1477.06 2323.05 1468.33 Q2323.05 1459.58 2326.11 1455 Q2329.19 1450.39 2335 1450.39 Z" fill="#000000" fill-rule="nonzero" fill-opacity="1"></path><path clip-path="url(#clip280)" d="M1232.6 1522.27 L1232.6 1532.4 L1244.66 1532.4 L1244.66 1536.95 L1232.6 1536.95 L1232.6 1556.3 Q1232.6 1560.66 1233.78 1561.9 Q1234.99 1563.14 1238.65 1563.14 L1244.66 1563.14 L1244.66 1568.04 L1238.65 1568.04 Q1231.87 1568.04 1229.29 1565.53 Q1226.71 1562.98 1226.71 1556.3 L1226.71 1536.95 L1222.42 1536.95 L1222.42 1532.4 L1226.71 1532.4 L1226.71 1522.27 L1232.6 1522.27 Z" fill="#000000" fill-rule="nonzero" fill-opacity="1"></path><path clip-path="url(#clip280)" d="M1252.37 1532.4 L1258.22 1532.4 L1258.22 1568.04 L1252.37 1568.04 L1252.37 1532.4 M1252.37 1518.52 L1258.22 1518.52 L1258.22 1525.93 L1252.37 1525.93 L1252.37 1518.52 Z" fill="#000000" fill-rule="nonzero" fill-opacity="1"></path><path clip-path="url(#clip280)" d="M1298.23 1539.24 Q1300.43 1535.29 1303.48 1533.41 Q1306.54 1531.54 1310.68 1531.54 Q1316.25 1531.54 1319.27 1535.45 Q1322.29 1539.33 1322.29 1546.53 L1322.29 1568.04 L1316.4 1568.04 L1316.4 1546.72 Q1316.4 1541.59 1314.59 1539.11 Q1312.78 1536.63 1309.05 1536.63 Q1304.5 1536.63 1301.86 1539.65 Q1299.22 1542.68 1299.22 1547.9 L1299.22 1568.04 L1293.33 1568.04 L1293.33 1546.72 Q1293.33 1541.56 1291.52 1539.11 Q1289.7 1536.63 1285.91 1536.63 Q1281.43 1536.63 1278.78 1539.68 Q1276.14 1542.71 1276.14 1547.9 L1276.14 1568.04 L1270.25 1568.04 L1270.25 1532.4 L1276.14 1532.4 L1276.14 1537.93 Q1278.15 1534.66 1280.95 1533.1 Q1283.75 1531.54 1287.6 1531.54 Q1291.48 1531.54 1294.19 1533.51 Q1296.93 1535.48 1298.23 1539.24 Z" fill="#000000" fill-rule="nonzero" fill-opacity="1"></path><path clip-path="url(#clip280)" d="M1364.47 1548.76 L1364.47 1551.62 L1337.54 1551.62 Q1337.92 1557.67 1341.17 1560.85 Q1344.45 1564 1350.27 1564 Q1353.64 1564 1356.8 1563.17 Q1359.98 1562.35 1363.1 1560.69 L1363.1 1566.23 Q1359.95 1567.57 1356.64 1568.27 Q1353.33 1568.97 1349.92 1568.97 Q1341.39 1568.97 1336.39 1564 Q1331.43 1559.04 1331.43 1550.57 Q1331.43 1541.82 1336.14 1536.69 Q1340.88 1531.54 1348.9 1531.54 Q1356.1 1531.54 1360.26 1536.18 Q1364.47 1540.8 1364.47 1548.76 M1358.61 1547.04 Q1358.55 1542.23 1355.9 1539.37 Q1353.29 1536.5 1348.97 1536.5 Q1344.06 1536.5 1341.1 1539.27 Q1338.18 1542.04 1337.73 1547.07 L1358.61 1547.04 Z" fill="#000000" fill-rule="nonzero" fill-opacity="1"></path><polyline clip-path="url(#clip280)" style="stroke:#000000; stroke-linecap:round; stroke-linejoin:round; stroke-width:4; stroke-opacity:1; fill:none" points="234.125,1423.18 234.125,123.472 "></polyline>
<polyline clip-path="url(#clip280)" style="stroke:#000000; stroke-linecap:round; stroke-linejoin:round; stroke-width:4; stroke-opacity:1; fill:none" points="234.125,1380.26 253.023,1380.26 "></polyline>
<polyline clip-path="url(#clip280)" style="stroke:#000000; stroke-linecap:round; stroke-linejoin:round; stroke-width:4; stroke-opacity:1; fill:none" points="234.125,1162.84 253.023,1162.84 "></polyline>
<polyline clip-path="url(#clip280)" style="stroke:#000000; stroke-linecap:round; stroke-linejoin:round; stroke-width:4; stroke-opacity:1; fill:none" points="234.125,945.416 253.023,945.416 "></polyline>
<polyline clip-path="url(#clip280)" style="stroke:#000000; stroke-linecap:round; stroke-linejoin:round; stroke-width:4; stroke-opacity:1; fill:none" points="234.125,727.995 253.023,727.995 "></polyline>
<polyline clip-path="url(#clip280)" style="stroke:#000000; stroke-linecap:round; stroke-linejoin:round; stroke-width:4; stroke-opacity:1; fill:none" points="234.125,510.574 253.023,510.574 "></polyline>
<polyline clip-path="url(#clip280)" style="stroke:#000000; stroke-linecap:round; stroke-linejoin:round; stroke-width:4; stroke-opacity:1; fill:none" points="234.125,293.152 253.023,293.152 "></polyline>
<path clip-path="url(#clip280)" d="M186.181 1366.06 Q182.57 1366.06 180.741 1369.62 Q178.936 1373.16 178.936 1380.29 Q178.936 1387.4 180.741 1390.97 Q182.57 1394.51 186.181 1394.51 Q189.815 1394.51 191.621 1390.97 Q193.45 1387.4 193.45 1380.29 Q193.45 1373.16 191.621 1369.62 Q189.815 1366.06 186.181 1366.06 M186.181 1362.35 Q191.991 1362.35 195.047 1366.96 Q198.125 1371.54 198.125 1380.29 Q198.125 1389.02 195.047 1393.63 Q191.991 1398.21 186.181 1398.21 Q180.371 1398.21 177.292 1393.63 Q174.237 1389.02 174.237 1380.29 Q174.237 1371.54 177.292 1366.96 Q180.371 1362.35 186.181 1362.35 Z" fill="#000000" fill-rule="nonzero" fill-opacity="1"></path><path clip-path="url(#clip280)" d="M146.066 1145.56 L164.422 1145.56 L164.422 1149.49 L150.348 1149.49 L150.348 1157.97 Q151.366 1157.62 152.385 1157.46 Q153.403 1157.27 154.422 1157.27 Q160.209 1157.27 163.589 1160.44 Q166.968 1163.61 166.968 1169.03 Q166.968 1174.61 163.496 1177.71 Q160.024 1180.79 153.704 1180.79 Q151.528 1180.79 149.26 1180.42 Q147.015 1180.05 144.607 1179.31 L144.607 1174.61 Q146.691 1175.74 148.913 1176.3 Q151.135 1176.85 153.612 1176.85 Q157.616 1176.85 159.954 1174.75 Q162.292 1172.64 162.292 1169.03 Q162.292 1165.42 159.954 1163.31 Q157.616 1161.21 153.612 1161.21 Q151.737 1161.21 149.862 1161.62 Q148.01 1162.04 146.066 1162.92 L146.066 1145.56 Z" fill="#000000" fill-rule="nonzero" fill-opacity="1"></path><path clip-path="url(#clip280)" d="M186.181 1148.64 Q182.57 1148.64 180.741 1152.2 Q178.936 1155.74 178.936 1162.87 Q178.936 1169.98 180.741 1173.54 Q182.57 1177.09 186.181 1177.09 Q189.815 1177.09 191.621 1173.54 Q193.45 1169.98 193.45 1162.87 Q193.45 1155.74 191.621 1152.2 Q189.815 1148.64 186.181 1148.64 M186.181 1144.93 Q191.991 1144.93 195.047 1149.54 Q198.125 1154.12 198.125 1162.87 Q198.125 1171.6 195.047 1176.21 Q191.991 1180.79 186.181 1180.79 Q180.371 1180.79 177.292 1176.21 Q174.237 1171.6 174.237 1162.87 Q174.237 1154.12 177.292 1149.54 Q180.371 1144.93 186.181 1144.93 Z" fill="#000000" fill-rule="nonzero" fill-opacity="1"></path><path clip-path="url(#clip280)" d="M116.668 958.761 L124.306 958.761 L124.306 932.396 L115.996 934.062 L115.996 929.803 L124.26 928.136 L128.936 928.136 L128.936 958.761 L136.575 958.761 L136.575 962.696 L116.668 962.696 L116.668 958.761 Z" fill="#000000" fill-rule="nonzero" fill-opacity="1"></path><path clip-path="url(#clip280)" d="M156.019 931.215 Q152.408 931.215 150.579 934.78 Q148.774 938.322 148.774 945.451 Q148.774 952.558 150.579 956.122 Q152.408 959.664 156.019 959.664 Q159.653 959.664 161.459 956.122 Q163.288 952.558 163.288 945.451 Q163.288 938.322 161.459 934.78 Q159.653 931.215 156.019 931.215 M156.019 927.511 Q161.829 927.511 164.885 932.118 Q167.964 936.701 167.964 945.451 Q167.964 954.178 164.885 958.784 Q161.829 963.368 156.019 963.368 Q150.209 963.368 147.13 958.784 Q144.075 954.178 144.075 945.451 Q144.075 936.701 147.13 932.118 Q150.209 927.511 156.019 927.511 Z" fill="#000000" fill-rule="nonzero" fill-opacity="1"></path><path clip-path="url(#clip280)" d="M186.181 931.215 Q182.57 931.215 180.741 934.78 Q178.936 938.322 178.936 945.451 Q178.936 952.558 180.741 956.122 Q182.57 959.664 186.181 959.664 Q189.815 959.664 191.621 956.122 Q193.45 952.558 193.45 945.451 Q193.45 938.322 191.621 934.78 Q189.815 931.215 186.181 931.215 M186.181 927.511 Q191.991 927.511 195.047 932.118 Q198.125 936.701 198.125 945.451 Q198.125 954.178 195.047 958.784 Q191.991 963.368 186.181 963.368 Q180.371 963.368 177.292 958.784 Q174.237 954.178 174.237 945.451 Q174.237 936.701 177.292 932.118 Q180.371 927.511 186.181 927.511 Z" fill="#000000" fill-rule="nonzero" fill-opacity="1"></path><path clip-path="url(#clip280)" d="M116.668 741.34 L124.306 741.34 L124.306 714.974 L115.996 716.641 L115.996 712.382 L124.26 710.715 L128.936 710.715 L128.936 741.34 L136.575 741.34 L136.575 745.275 L116.668 745.275 L116.668 741.34 Z" fill="#000000" fill-rule="nonzero" fill-opacity="1"></path><path clip-path="url(#clip280)" d="M146.066 710.715 L164.422 710.715 L164.422 714.65 L150.348 714.65 L150.348 723.122 Q151.366 722.775 152.385 722.613 Q153.403 722.428 154.422 722.428 Q160.209 722.428 163.589 725.599 Q166.968 728.771 166.968 734.187 Q166.968 739.766 163.496 742.868 Q160.024 745.946 153.704 745.946 Q151.528 745.946 149.26 745.576 Q147.015 745.206 144.607 744.465 L144.607 739.766 Q146.691 740.9 148.913 741.456 Q151.135 742.011 153.612 742.011 Q157.616 742.011 159.954 739.905 Q162.292 737.798 162.292 734.187 Q162.292 730.576 159.954 728.47 Q157.616 726.363 153.612 726.363 Q151.737 726.363 149.862 726.78 Q148.01 727.197 146.066 728.076 L146.066 710.715 Z" fill="#000000" fill-rule="nonzero" fill-opacity="1"></path><path clip-path="url(#clip280)" d="M186.181 713.794 Q182.57 713.794 180.741 717.359 Q178.936 720.9 178.936 728.03 Q178.936 735.136 180.741 738.701 Q182.57 742.243 186.181 742.243 Q189.815 742.243 191.621 738.701 Q193.45 735.136 193.45 728.03 Q193.45 720.9 191.621 717.359 Q189.815 713.794 186.181 713.794 M186.181 710.09 Q191.991 710.09 195.047 714.697 Q198.125 719.28 198.125 728.03 Q198.125 736.757 195.047 741.363 Q191.991 745.946 186.181 745.946 Q180.371 745.946 177.292 741.363 Q174.237 736.757 174.237 728.03 Q174.237 719.28 177.292 714.697 Q180.371 710.09 186.181 710.09 Z" fill="#000000" fill-rule="nonzero" fill-opacity="1"></path><path clip-path="url(#clip280)" d="M119.885 523.919 L136.204 523.919 L136.204 527.854 L114.26 527.854 L114.26 523.919 Q116.922 521.164 121.505 516.534 Q126.112 511.882 127.292 510.539 Q129.538 508.016 130.417 506.28 Q131.32 504.521 131.32 502.831 Q131.32 500.076 129.376 498.34 Q127.455 496.604 124.353 496.604 Q122.154 496.604 119.7 497.368 Q117.269 498.132 114.492 499.683 L114.492 494.96 Q117.316 493.826 119.769 493.247 Q122.223 492.669 124.26 492.669 Q129.63 492.669 132.825 495.354 Q136.019 498.039 136.019 502.53 Q136.019 504.659 135.209 506.581 Q134.422 508.479 132.316 511.071 Q131.737 511.743 128.635 514.96 Q125.533 518.155 119.885 523.919 Z" fill="#000000" fill-rule="nonzero" fill-opacity="1"></path><path clip-path="url(#clip280)" d="M156.019 496.372 Q152.408 496.372 150.579 499.937 Q148.774 503.479 148.774 510.608 Q148.774 517.715 150.579 521.28 Q152.408 524.821 156.019 524.821 Q159.653 524.821 161.459 521.28 Q163.288 517.715 163.288 510.608 Q163.288 503.479 161.459 499.937 Q159.653 496.372 156.019 496.372 M156.019 492.669 Q161.829 492.669 164.885 497.275 Q167.964 501.858 167.964 510.608 Q167.964 519.335 164.885 523.942 Q161.829 528.525 156.019 528.525 Q150.209 528.525 147.13 523.942 Q144.075 519.335 144.075 510.608 Q144.075 501.858 147.13 497.275 Q150.209 492.669 156.019 492.669 Z" fill="#000000" fill-rule="nonzero" fill-opacity="1"></path><path clip-path="url(#clip280)" d="M186.181 496.372 Q182.57 496.372 180.741 499.937 Q178.936 503.479 178.936 510.608 Q178.936 517.715 180.741 521.28 Q182.57 524.821 186.181 524.821 Q189.815 524.821 191.621 521.28 Q193.45 517.715 193.45 510.608 Q193.45 503.479 191.621 499.937 Q189.815 496.372 186.181 496.372 M186.181 492.669 Q191.991 492.669 195.047 497.275 Q198.125 501.858 198.125 510.608 Q198.125 519.335 195.047 523.942 Q191.991 528.525 186.181 528.525 Q180.371 528.525 177.292 523.942 Q174.237 519.335 174.237 510.608 Q174.237 501.858 177.292 497.275 Q180.371 492.669 186.181 492.669 Z" fill="#000000" fill-rule="nonzero" fill-opacity="1"></path><path clip-path="url(#clip280)" d="M119.885 306.497 L136.204 306.497 L136.204 310.432 L114.26 310.432 L114.26 306.497 Q116.922 303.743 121.505 299.113 Q126.112 294.46 127.292 293.118 Q129.538 290.594 130.417 288.858 Q131.32 287.099 131.32 285.409 Q131.32 282.655 129.376 280.919 Q127.455 279.183 124.353 279.183 Q122.154 279.183 119.7 279.946 Q117.269 280.71 114.492 282.261 L114.492 277.539 Q117.316 276.405 119.769 275.826 Q122.223 275.247 124.26 275.247 Q129.63 275.247 132.825 277.933 Q136.019 280.618 136.019 285.108 Q136.019 287.238 135.209 289.159 Q134.422 291.057 132.316 293.65 Q131.737 294.321 128.635 297.539 Q125.533 300.733 119.885 306.497 Z" fill="#000000" fill-rule="nonzero" fill-opacity="1"></path><path clip-path="url(#clip280)" d="M146.066 275.872 L164.422 275.872 L164.422 279.808 L150.348 279.808 L150.348 288.28 Q151.366 287.932 152.385 287.77 Q153.403 287.585 154.422 287.585 Q160.209 287.585 163.589 290.757 Q166.968 293.928 166.968 299.344 Q166.968 304.923 163.496 308.025 Q160.024 311.104 153.704 311.104 Q151.528 311.104 149.26 310.733 Q147.015 310.363 144.607 309.622 L144.607 304.923 Q146.691 306.057 148.913 306.613 Q151.135 307.168 153.612 307.168 Q157.616 307.168 159.954 305.062 Q162.292 302.956 162.292 299.344 Q162.292 295.733 159.954 293.627 Q157.616 291.52 153.612 291.52 Q151.737 291.52 149.862 291.937 Q148.01 292.354 146.066 293.233 L146.066 275.872 Z" fill="#000000" fill-rule="nonzero" fill-opacity="1"></path><path clip-path="url(#clip280)" d="M186.181 278.951 Q182.57 278.951 180.741 282.516 Q178.936 286.057 178.936 293.187 Q178.936 300.294 180.741 303.858 Q182.57 307.4 186.181 307.4 Q189.815 307.4 191.621 303.858 Q193.45 300.294 193.45 293.187 Q193.45 286.057 191.621 282.516 Q189.815 278.951 186.181 278.951 M186.181 275.247 Q191.991 275.247 195.047 279.854 Q198.125 284.437 198.125 293.187 Q198.125 301.914 195.047 306.52 Q191.991 311.104 186.181 311.104 Q180.371 311.104 177.292 306.52 Q174.237 301.914 174.237 293.187 Q174.237 284.437 177.292 279.854 Q180.371 275.247 186.181 275.247 Z" fill="#000000" fill-rule="nonzero" fill-opacity="1"></path><path clip-path="url(#clip280)" d="M44.7161 911.525 L47.5806 911.525 L47.5806 938.452 Q53.6281 938.07 56.8109 934.824 Q59.9619 931.546 59.9619 925.721 Q59.9619 922.347 59.1344 919.196 Q58.3069 916.013 56.6518 912.894 L62.1899 912.894 Q63.5267 916.045 64.227 919.355 Q64.9272 922.665 64.9272 926.071 Q64.9272 934.601 59.9619 939.598 Q54.9967 944.563 46.5303 944.563 Q37.7774 944.563 32.6531 939.853 Q27.4968 935.11 27.4968 927.09 Q27.4968 919.896 32.1438 915.727 Q36.7589 911.525 44.7161 911.525 M42.9973 917.382 Q38.1912 917.446 35.3266 920.087 Q32.4621 922.697 32.4621 927.026 Q32.4621 931.928 35.2312 934.888 Q38.0002 937.816 43.0292 938.261 L42.9973 917.382 Z" fill="#000000" fill-rule="nonzero" fill-opacity="1"></path><path clip-path="url(#clip280)" d="M28.3562 873.427 L45.7028 886.317 L64.0042 872.758 L64.0042 879.665 L49.9996 890.041 L64.0042 900.417 L64.0042 907.324 L45.3526 893.479 L28.3562 906.146 L28.3562 899.24 L41.0558 889.787 L28.3562 880.334 L28.3562 873.427 Z" fill="#000000" fill-rule="nonzero" fill-opacity="1"></path><path clip-path="url(#clip280)" d="M58.657 858.817 L77.5631 858.817 L77.5631 864.706 L28.3562 864.706 L28.3562 858.817 L33.7671 858.817 Q30.5842 856.971 29.0564 854.17 Q27.4968 851.338 27.4968 847.423 Q27.4968 840.93 32.6531 836.888 Q37.8093 832.814 46.212 832.814 Q54.6147 832.814 59.771 836.888 Q64.9272 840.93 64.9272 847.423 Q64.9272 851.338 63.3994 854.17 Q61.8398 856.971 58.657 858.817 M46.212 838.893 Q39.7508 838.893 36.0905 841.566 Q32.3984 844.208 32.3984 848.855 Q32.3984 853.502 36.0905 856.176 Q39.7508 858.817 46.212 858.817 Q52.6732 858.817 56.3653 856.176 Q60.0256 853.502 60.0256 848.855 Q60.0256 844.208 56.3653 841.566 Q52.6732 838.893 46.212 838.893 Z" fill="#000000" fill-rule="nonzero" fill-opacity="1"></path><path clip-path="url(#clip280)" d="M33.8307 802.449 Q33.2578 803.436 33.0032 804.613 Q32.7167 805.759 32.7167 807.16 Q32.7167 812.125 35.9632 814.799 Q39.1779 817.44 45.2253 817.44 L64.0042 817.44 L64.0042 823.329 L28.3562 823.329 L28.3562 817.44 L33.8944 817.44 Q30.6479 815.594 29.0883 812.634 Q27.4968 809.674 27.4968 805.441 Q27.4968 804.836 27.5923 804.104 Q27.656 803.372 27.8151 802.481 L33.8307 802.449 Z" fill="#000000" fill-rule="nonzero" fill-opacity="1"></path><path clip-path="url(#clip280)" d="M44.7161 767.247 L47.5806 767.247 L47.5806 794.174 Q53.6281 793.792 56.8109 790.545 Q59.9619 787.267 59.9619 781.442 Q59.9619 778.068 59.1344 774.917 Q58.3069 771.735 56.6518 768.615 L62.1899 768.615 Q63.5267 771.766 64.227 775.077 Q64.9272 778.387 64.9272 781.792 Q64.9272 790.322 59.9619 795.32 Q54.9967 800.285 46.5303 800.285 Q37.7774 800.285 32.6531 795.574 Q27.4968 790.832 27.4968 782.811 Q27.4968 775.618 32.1438 771.448 Q36.7589 767.247 44.7161 767.247 M42.9973 773.103 Q38.1912 773.167 35.3266 775.809 Q32.4621 778.419 32.4621 782.747 Q32.4621 787.649 35.2312 790.609 Q38.0002 793.537 43.0292 793.983 L42.9973 773.103 Z" fill="#000000" fill-rule="nonzero" fill-opacity="1"></path><path clip-path="url(#clip280)" d="M29.4065 734.909 L34.9447 734.909 Q33.6716 737.392 33.035 740.065 Q32.3984 742.739 32.3984 745.603 Q32.3984 749.964 33.7352 752.16 Q35.072 754.324 37.7456 754.324 Q39.7826 754.324 40.9603 752.765 Q42.1061 751.205 43.1565 746.495 L43.6021 744.489 Q44.9389 738.251 47.3897 735.641 Q49.8086 732.999 54.1691 732.999 Q59.1344 732.999 62.0308 736.946 Q64.9272 740.861 64.9272 747.736 Q64.9272 750.6 64.3543 753.72 Q63.8132 756.807 62.6992 760.244 L56.6518 760.244 Q58.3387 756.998 59.198 753.847 Q60.0256 750.696 60.0256 747.609 Q60.0256 743.471 58.6251 741.243 Q57.1929 739.015 54.6147 739.015 Q52.2276 739.015 50.9545 740.638 Q49.6813 742.23 48.5037 747.672 L48.0262 749.709 Q46.8804 755.152 44.5251 757.571 Q42.138 759.99 38.0002 759.99 Q32.9713 759.99 30.2341 756.425 Q27.4968 752.86 27.4968 746.304 Q27.4968 743.057 27.9743 740.192 Q28.4517 737.328 29.4065 734.909 Z" fill="#000000" fill-rule="nonzero" fill-opacity="1"></path><path clip-path="url(#clip280)" d="M29.4065 700.948 L34.9447 700.948 Q33.6716 703.431 33.035 706.104 Q32.3984 708.778 32.3984 711.642 Q32.3984 716.003 33.7352 718.199 Q35.072 720.363 37.7456 720.363 Q39.7826 720.363 40.9603 718.804 Q42.1061 717.244 43.1565 712.533 L43.6021 710.528 Q44.9389 704.29 47.3897 701.68 Q49.8086 699.038 54.1691 699.038 Q59.1344 699.038 62.0308 702.985 Q64.9272 706.9 64.9272 713.775 Q64.9272 716.639 64.3543 719.759 Q63.8132 722.846 62.6992 726.283 L56.6518 726.283 Q58.3387 723.037 59.198 719.886 Q60.0256 716.735 60.0256 713.647 Q60.0256 709.51 58.6251 707.282 Q57.1929 705.054 54.6147 705.054 Q52.2276 705.054 50.9545 706.677 Q49.6813 708.268 48.5037 713.711 L48.0262 715.748 Q46.8804 721.191 44.5251 723.61 Q42.138 726.029 38.0002 726.029 Q32.9713 726.029 30.2341 722.464 Q27.4968 718.899 27.4968 712.343 Q27.4968 709.096 27.9743 706.231 Q28.4517 703.367 29.4065 700.948 Z" fill="#000000" fill-rule="nonzero" fill-opacity="1"></path><path clip-path="url(#clip280)" d="M28.3562 689.712 L28.3562 683.856 L64.0042 683.856 L64.0042 689.712 L28.3562 689.712 M14.479 689.712 L14.479 683.856 L21.895 683.856 L21.895 689.712 L14.479 689.712 Z" fill="#000000" fill-rule="nonzero" fill-opacity="1"></path><path clip-path="url(#clip280)" d="M32.4621 657.788 Q32.4621 662.499 36.1542 665.236 Q39.8145 667.974 46.212 667.974 Q52.6095 667.974 56.3017 665.268 Q59.9619 662.531 59.9619 657.788 Q59.9619 653.11 56.2698 650.372 Q52.5777 647.635 46.212 647.635 Q39.8781 647.635 36.186 650.372 Q32.4621 653.11 32.4621 657.788 M27.4968 657.788 Q27.4968 650.15 32.4621 645.789 Q37.4273 641.429 46.212 641.429 Q54.9649 641.429 59.9619 645.789 Q64.9272 650.15 64.9272 657.788 Q64.9272 665.459 59.9619 669.82 Q54.9649 674.148 46.212 674.148 Q37.4273 674.148 32.4621 669.82 Q27.4968 665.459 27.4968 657.788 Z" fill="#000000" fill-rule="nonzero" fill-opacity="1"></path><path clip-path="url(#clip280)" d="M42.4881 602.088 L64.0042 602.088 L64.0042 607.945 L42.679 607.945 Q37.6183 607.945 35.1038 609.918 Q32.5894 611.892 32.5894 615.838 Q32.5894 620.581 35.6131 623.318 Q38.6368 626.055 43.8567 626.055 L64.0042 626.055 L64.0042 631.944 L28.3562 631.944 L28.3562 626.055 L33.8944 626.055 Q30.6797 623.955 29.0883 621.122 Q27.4968 618.257 27.4968 614.533 Q27.4968 608.391 31.3163 605.24 Q35.1038 602.088 42.4881 602.088 Z" fill="#000000" fill-rule="nonzero" fill-opacity="1"></path><path clip-path="url(#clip280)" d="M858.617 65.6895 L887.175 65.6895 L887.175 72.576 L848.773 72.576 L848.773 65.6895 Q853.431 60.8689 861.452 52.7671 Q869.514 44.6248 871.58 42.2752 Q875.509 37.8598 877.048 34.8216 Q878.628 31.7429 878.628 28.7857 Q878.628 23.9651 875.225 20.927 Q871.863 17.8888 866.435 17.8888 Q862.587 17.8888 858.293 19.2256 Q854.039 20.5624 849.178 23.2765 L849.178 15.0127 Q854.12 13.0277 858.414 12.015 Q862.708 11.0023 866.273 11.0023 Q875.671 11.0023 881.261 15.7013 Q886.851 20.4004 886.851 28.2591 Q886.851 31.9859 885.434 35.3482 Q884.056 38.6699 880.37 43.2069 Q879.357 44.3817 873.929 50.0125 Q868.501 55.6027 858.617 65.6895 Z" fill="#000000" fill-rule="nonzero" fill-opacity="1"></path><path clip-path="url(#clip280)" d="M921.851 17.4837 Q915.532 17.4837 912.332 23.7221 Q909.172 29.92 909.172 42.3968 Q909.172 54.833 912.332 61.0714 Q915.532 67.2693 921.851 67.2693 Q928.211 67.2693 931.371 61.0714 Q934.571 54.833 934.571 42.3968 Q934.571 29.92 931.371 23.7221 Q928.211 17.4837 921.851 17.4837 M921.851 11.0023 Q932.019 11.0023 937.366 19.0636 Q942.754 27.0843 942.754 42.3968 Q942.754 57.6687 937.366 65.73 Q932.019 73.7508 921.851 73.7508 Q911.683 73.7508 906.296 65.73 Q900.949 57.6687 900.949 42.3968 Q900.949 27.0843 906.296 19.0636 Q911.683 11.0023 921.851 11.0023 Z" fill="#000000" fill-rule="nonzero" fill-opacity="1"></path><path clip-path="url(#clip280)" d="M1000.03 32.4315 Q994.038 32.4315 990.555 37.1306 Q987.071 41.7891 987.071 49.9314 Q987.071 58.0738 990.514 62.7728 Q993.998 67.4314 1000.03 67.4314 Q1005.99 67.4314 1009.47 62.7323 Q1012.96 58.0333 1012.96 49.9314 Q1012.96 41.8701 1009.47 37.1711 Q1005.99 32.4315 1000.03 32.4315 M1000.03 26.1121 Q1009.76 26.1121 1015.31 32.4315 Q1020.86 38.7509 1020.86 49.9314 Q1020.86 61.0714 1015.31 67.4314 Q1009.76 73.7508 1000.03 73.7508 Q990.271 73.7508 984.721 67.4314 Q979.212 61.0714 979.212 49.9314 Q979.212 38.7509 984.721 32.4315 Q990.271 26.1121 1000.03 26.1121 Z" fill="#000000" fill-rule="nonzero" fill-opacity="1"></path><path clip-path="url(#clip280)" d="M1062.13 28.5427 L1062.13 35.5912 Q1058.97 33.9709 1055.57 33.1607 Q1052.17 32.3505 1048.52 32.3505 Q1042.97 32.3505 1040.18 34.0519 Q1037.42 35.7533 1037.42 39.156 Q1037.42 41.7486 1039.41 43.2475 Q1041.39 44.7058 1047.39 46.0426 L1049.94 46.6097 Q1057.88 48.3111 1061.2 51.4303 Q1064.56 54.509 1064.56 60.0587 Q1064.56 66.3781 1059.54 70.0644 Q1054.56 73.7508 1045.81 73.7508 Q1042.16 73.7508 1038.19 73.0216 Q1034.26 72.3329 1029.89 70.9151 L1029.89 63.2184 Q1034.02 65.3654 1038.03 66.4591 Q1042.04 67.5124 1045.97 67.5124 Q1051.24 67.5124 1054.07 65.73 Q1056.91 63.9071 1056.91 60.6258 Q1056.91 57.5877 1054.84 55.9673 Q1052.82 54.3469 1045.89 52.8481 L1043.3 52.2405 Q1036.37 50.7821 1033.29 47.7845 Q1030.21 44.7463 1030.21 39.4801 Q1030.21 33.0797 1034.75 29.5959 Q1039.29 26.1121 1047.63 26.1121 Q1051.76 26.1121 1055.41 26.7198 Q1059.06 27.3274 1062.13 28.5427 Z" fill="#000000" fill-rule="nonzero" fill-opacity="1"></path><path clip-path="url(#clip280)" d="M1109.08 28.9478 L1109.08 35.9153 Q1105.92 34.1734 1102.72 33.3227 Q1099.56 32.4315 1096.32 32.4315 Q1089.07 32.4315 1085.06 37.0496 Q1081.05 41.6271 1081.05 49.9314 Q1081.05 58.2358 1085.06 62.8538 Q1089.07 67.4314 1096.32 67.4314 Q1099.56 67.4314 1102.72 66.5807 Q1105.92 65.6895 1109.08 63.9476 L1109.08 70.8341 Q1105.96 72.2924 1102.6 73.0216 Q1099.28 73.7508 1095.51 73.7508 Q1085.26 73.7508 1079.23 67.3098 Q1073.19 60.8689 1073.19 49.9314 Q1073.19 38.832 1079.27 32.472 Q1085.39 26.1121 1096 26.1121 Q1099.44 26.1121 1102.72 26.8413 Q1106.01 27.5299 1109.08 28.9478 Z" fill="#000000" fill-rule="nonzero" fill-opacity="1"></path><path clip-path="url(#clip280)" d="M1122.05 27.2059 L1129.5 27.2059 L1129.5 72.576 L1122.05 72.576 L1122.05 27.2059 M1122.05 9.54393 L1129.5 9.54393 L1129.5 18.9825 L1122.05 18.9825 L1122.05 9.54393 Z" fill="#000000" fill-rule="nonzero" fill-opacity="1"></path><path clip-path="url(#clip280)" d="M1145.1 9.54393 L1152.55 9.54393 L1152.55 72.576 L1145.1 72.576 L1145.1 9.54393 Z" fill="#000000" fill-rule="nonzero" fill-opacity="1"></path><path clip-path="url(#clip280)" d="M1188.77 49.7694 Q1179.73 49.7694 1176.25 51.8354 Q1172.76 53.9013 1172.76 58.8839 Q1172.76 62.8538 1175.36 65.2034 Q1177.99 67.5124 1182.49 67.5124 Q1188.68 67.5124 1192.41 63.1374 Q1196.18 58.7219 1196.18 51.4303 L1196.18 49.7694 L1188.77 49.7694 M1203.63 46.6907 L1203.63 72.576 L1196.18 72.576 L1196.18 65.6895 Q1193.63 69.8214 1189.82 71.8063 Q1186.01 73.7508 1180.5 73.7508 Q1173.53 73.7508 1169.4 69.8619 Q1165.31 65.9325 1165.31 59.3701 Q1165.31 51.7138 1170.41 47.825 Q1175.56 43.9361 1185.73 43.9361 L1196.18 43.9361 L1196.18 43.2069 Q1196.18 38.0623 1192.78 35.2672 Q1189.41 32.4315 1183.3 32.4315 Q1179.41 32.4315 1175.72 33.3632 Q1172.04 34.295 1168.63 36.1584 L1168.63 29.2718 Q1172.72 27.692 1176.57 26.9223 Q1180.42 26.1121 1184.07 26.1121 Q1193.91 26.1121 1198.77 31.2163 Q1203.63 36.3204 1203.63 46.6907 Z" fill="#000000" fill-rule="nonzero" fill-opacity="1"></path><path clip-path="url(#clip280)" d="M1226.36 14.324 L1226.36 27.2059 L1241.71 27.2059 L1241.71 32.9987 L1226.36 32.9987 L1226.36 57.6282 Q1226.36 63.1779 1227.86 64.7578 Q1229.4 66.3376 1234.05 66.3376 L1241.71 66.3376 L1241.71 72.576 L1234.05 72.576 Q1225.43 72.576 1222.14 69.3758 Q1218.86 66.1351 1218.86 57.6282 L1218.86 32.9987 L1213.39 32.9987 L1213.39 27.2059 L1218.86 27.2059 L1218.86 14.324 L1226.36 14.324 Z" fill="#000000" fill-rule="nonzero" fill-opacity="1"></path><path clip-path="url(#clip280)" d="M1251.51 27.2059 L1258.97 27.2059 L1258.97 72.576 L1251.51 72.576 L1251.51 27.2059 M1251.51 9.54393 L1258.97 9.54393 L1258.97 18.9825 L1251.51 18.9825 L1251.51 9.54393 Z" fill="#000000" fill-rule="nonzero" fill-opacity="1"></path><path clip-path="url(#clip280)" d="M1292.14 32.4315 Q1286.15 32.4315 1282.67 37.1306 Q1279.18 41.7891 1279.18 49.9314 Q1279.18 58.0738 1282.62 62.7728 Q1286.11 67.4314 1292.14 67.4314 Q1298.1 67.4314 1301.58 62.7323 Q1305.07 58.0333 1305.07 49.9314 Q1305.07 41.8701 1301.58 37.1711 Q1298.1 32.4315 1292.14 32.4315 M1292.14 26.1121 Q1301.87 26.1121 1307.42 32.4315 Q1312.97 38.7509 1312.97 49.9314 Q1312.97 61.0714 1307.42 67.4314 Q1301.87 73.7508 1292.14 73.7508 Q1282.38 73.7508 1276.83 67.4314 Q1271.32 61.0714 1271.32 49.9314 Q1271.32 38.7509 1276.83 32.4315 Q1282.38 26.1121 1292.14 26.1121 Z" fill="#000000" fill-rule="nonzero" fill-opacity="1"></path><path clip-path="url(#clip280)" d="M1363.04 45.1919 L1363.04 72.576 L1355.58 72.576 L1355.58 45.4349 Q1355.58 38.994 1353.07 35.7938 Q1350.56 32.5936 1345.54 32.5936 Q1339.5 32.5936 1336.02 36.4419 Q1332.53 40.2903 1332.53 46.9338 L1332.53 72.576 L1325.04 72.576 L1325.04 27.2059 L1332.53 27.2059 L1332.53 34.2544 Q1335.21 30.163 1338.81 28.1376 Q1342.46 26.1121 1347.2 26.1121 Q1355.01 26.1121 1359.02 30.9732 Q1363.04 35.7938 1363.04 45.1919 Z" fill="#000000" fill-rule="nonzero" fill-opacity="1"></path><path clip-path="url(#clip280)" d="M1406.83 28.5427 L1406.83 35.5912 Q1403.67 33.9709 1400.26 33.1607 Q1396.86 32.3505 1393.21 32.3505 Q1387.66 32.3505 1384.87 34.0519 Q1382.11 35.7533 1382.11 39.156 Q1382.11 41.7486 1384.1 43.2475 Q1386.08 44.7058 1392.08 46.0426 L1394.63 46.6097 Q1402.57 48.3111 1405.89 51.4303 Q1409.26 54.509 1409.26 60.0587 Q1409.26 66.3781 1404.23 70.0644 Q1399.25 73.7508 1390.5 73.7508 Q1386.85 73.7508 1382.88 73.0216 Q1378.96 72.3329 1374.58 70.9151 L1374.58 63.2184 Q1378.71 65.3654 1382.72 66.4591 Q1386.73 67.5124 1390.66 67.5124 Q1395.93 67.5124 1398.76 65.73 Q1401.6 63.9071 1401.6 60.6258 Q1401.6 57.5877 1399.53 55.9673 Q1397.51 54.3469 1390.58 52.8481 L1387.99 52.2405 Q1381.06 50.7821 1377.98 47.7845 Q1374.9 44.7463 1374.9 39.4801 Q1374.9 33.0797 1379.44 29.5959 Q1383.98 26.1121 1392.32 26.1121 Q1396.46 26.1121 1400.1 26.7198 Q1403.75 27.3274 1406.83 28.5427 Z" fill="#000000" fill-rule="nonzero" fill-opacity="1"></path><path clip-path="url(#clip280)" d="M1477.35 34.0924 L1477.35 9.54393 L1484.81 9.54393 L1484.81 72.576 L1477.35 72.576 L1477.35 65.7705 Q1475 69.8214 1471.4 71.8063 Q1467.83 73.7508 1462.81 73.7508 Q1454.59 73.7508 1449.4 67.1883 Q1444.26 60.6258 1444.26 49.9314 Q1444.26 39.2371 1449.4 32.6746 Q1454.59 26.1121 1462.81 26.1121 Q1467.83 26.1121 1471.4 28.0971 Q1475 30.0415 1477.35 34.0924 M1451.95 49.9314 Q1451.95 58.1548 1455.31 62.8538 Q1458.72 67.5124 1464.63 67.5124 Q1470.55 67.5124 1473.95 62.8538 Q1477.35 58.1548 1477.35 49.9314 Q1477.35 41.7081 1473.95 37.0496 Q1470.55 32.3505 1464.63 32.3505 Q1458.72 32.3505 1455.31 37.0496 Q1451.95 41.7081 1451.95 49.9314 Z" fill="#000000" fill-rule="nonzero" fill-opacity="1"></path><path clip-path="url(#clip280)" d="M1538.97 48.0275 L1538.97 51.6733 L1504.7 51.6733 Q1505.18 59.3701 1509.31 63.421 Q1513.49 67.4314 1520.9 67.4314 Q1525.19 67.4314 1529.2 66.3781 Q1533.25 65.3249 1537.22 63.2184 L1537.22 70.267 Q1533.21 71.9684 1529 72.8596 Q1524.79 73.7508 1520.45 73.7508 Q1509.6 73.7508 1503.24 67.4314 Q1496.92 61.1119 1496.92 50.3365 Q1496.92 39.1965 1502.91 32.6746 Q1508.95 26.1121 1519.16 26.1121 Q1528.31 26.1121 1533.62 32.0264 Q1538.97 37.9003 1538.97 48.0275 M1531.51 45.84 Q1531.43 39.7232 1528.07 36.0774 Q1524.75 32.4315 1519.24 32.4315 Q1513 32.4315 1509.23 35.9558 Q1505.51 39.4801 1504.94 45.8805 L1531.51 45.84 Z" fill="#000000" fill-rule="nonzero" fill-opacity="1"></path><path clip-path="url(#clip280)" d="M1580.12 28.5427 L1580.12 35.5912 Q1576.96 33.9709 1573.56 33.1607 Q1570.16 32.3505 1566.51 32.3505 Q1560.96 32.3505 1558.17 34.0519 Q1555.41 35.7533 1555.41 39.156 Q1555.41 41.7486 1557.4 43.2475 Q1559.38 44.7058 1565.38 46.0426 L1567.93 46.6097 Q1575.87 48.3111 1579.19 51.4303 Q1582.55 54.509 1582.55 60.0587 Q1582.55 66.3781 1577.53 70.0644 Q1572.55 73.7508 1563.8 73.7508 Q1560.15 73.7508 1556.18 73.0216 Q1552.25 72.3329 1547.88 70.9151 L1547.88 63.2184 Q1552.01 65.3654 1556.02 66.4591 Q1560.03 67.5124 1563.96 67.5124 Q1569.23 67.5124 1572.06 65.73 Q1574.9 63.9071 1574.9 60.6258 Q1574.9 57.5877 1572.83 55.9673 Q1570.81 54.3469 1563.88 52.8481 L1561.29 52.2405 Q1554.36 50.7821 1551.28 47.7845 Q1548.2 44.7463 1548.2 39.4801 Q1548.2 33.0797 1552.74 29.5959 Q1557.28 26.1121 1565.62 26.1121 Q1569.75 26.1121 1573.4 26.7198 Q1577.04 27.3274 1580.12 28.5427 Z" fill="#000000" fill-rule="nonzero" fill-opacity="1"></path><path clip-path="url(#clip280)" d="M1594.42 27.2059 L1601.88 27.2059 L1601.88 72.576 L1594.42 72.576 L1594.42 27.2059 M1594.42 9.54393 L1601.88 9.54393 L1601.88 18.9825 L1594.42 18.9825 L1594.42 9.54393 Z" fill="#000000" fill-rule="nonzero" fill-opacity="1"></path><path clip-path="url(#clip280)" d="M1643.76 34.1734 Q1642.51 33.4443 1641.01 33.1202 Q1639.55 32.7556 1637.77 32.7556 Q1631.45 32.7556 1628.05 36.8875 Q1624.68 40.9789 1624.68 48.6757 L1624.68 72.576 L1617.19 72.576 L1617.19 27.2059 L1624.68 27.2059 L1624.68 34.2544 Q1627.03 30.1225 1630.8 28.1376 Q1634.57 26.1121 1639.96 26.1121 Q1640.72 26.1121 1641.66 26.2337 Q1642.59 26.3147 1643.72 26.5172 L1643.76 34.1734 Z" fill="#000000" fill-rule="nonzero" fill-opacity="1"></path><path clip-path="url(#clip280)" d="M1688.57 48.0275 L1688.57 51.6733 L1654.3 51.6733 Q1654.78 59.3701 1658.91 63.421 Q1663.09 67.4314 1670.5 67.4314 Q1674.79 67.4314 1678.8 66.3781 Q1682.85 65.3249 1686.82 63.2184 L1686.82 70.267 Q1682.81 71.9684 1678.6 72.8596 Q1674.39 73.7508 1670.05 73.7508 Q1659.2 73.7508 1652.84 67.4314 Q1646.52 61.1119 1646.52 50.3365 Q1646.52 39.1965 1652.51 32.6746 Q1658.55 26.1121 1668.76 26.1121 Q1677.91 26.1121 1683.22 32.0264 Q1688.57 37.9003 1688.57 48.0275 M1681.11 45.84 Q1681.03 39.7232 1677.67 36.0774 Q1674.35 32.4315 1668.84 32.4315 Q1662.6 32.4315 1658.83 35.9558 Q1655.11 39.4801 1654.54 45.8805 L1681.11 45.84 Z" fill="#000000" fill-rule="nonzero" fill-opacity="1"></path><path clip-path="url(#clip280)" d="M1730.65 34.0924 L1730.65 9.54393 L1738.11 9.54393 L1738.11 72.576 L1730.65 72.576 L1730.65 65.7705 Q1728.31 69.8214 1724.7 71.8063 Q1721.14 73.7508 1716.11 73.7508 Q1707.89 73.7508 1702.7 67.1883 Q1697.56 60.6258 1697.56 49.9314 Q1697.56 39.2371 1702.7 32.6746 Q1707.89 26.1121 1716.11 26.1121 Q1721.14 26.1121 1724.7 28.0971 Q1728.31 30.0415 1730.65 34.0924 M1705.26 49.9314 Q1705.26 58.1548 1708.62 62.8538 Q1712.02 67.5124 1717.93 67.5124 Q1723.85 67.5124 1727.25 62.8538 Q1730.65 58.1548 1730.65 49.9314 Q1730.65 41.7081 1727.25 37.0496 Q1723.85 32.3505 1717.93 32.3505 Q1712.02 32.3505 1708.62 37.0496 Q1705.26 41.7081 1705.26 49.9314 Z" fill="#000000" fill-rule="nonzero" fill-opacity="1"></path><polyline clip-path="url(#clip282)" style="stroke:#009af9; stroke-linecap:round; stroke-linejoin:round; stroke-width:4; stroke-opacity:1; fill:none" points="294.087,1208.26 296.085,1260.65 298.084,1271.54 300.083,1282.61 302.082,1296.96 304.08,1293.16 306.079,1309.77 308.078,1316.01 310.076,1325.5 312.075,1341.62 314.074,1349.54 316.072,1352.17 318.071,1355.6 320.07,1361.47 322.069,1363.04 324.067,1364.8 326.066,1365.97 328.065,1371.78 330.063,1368.51 332.062,1368.1 334.061,1366.49 336.06,1367.52 338.058,1367.57 340.057,1365.13 342.056,1366.38 344.054,1363.15 346.053,1364.3 348.052,1366.41 350.051,1370.02 352.049,1371.18 354.048,1372.2 356.047,1370.73 358.045,1374.47 360.044,1375.25 362.043,1375.72 364.041,1375.97 366.04,1376.44 368.039,1376.31 370.038,1379.75 372.036,1375.97 374.035,1337.09 376.034,1245.51 378.032,1200.68 380.031,1020.85 382.03,898.308 384.029,778.914 386.027,663.527 388.026,585.577 390.025,540.444 392.023,502.395 394.022,483.439 396.021,418.278 398.02,389.129 400.018,329.281 402.017,277.234 404.016,228.162 406.014,224.114 408.013,226.938 410.012,200.909 412.01,227.925 414.009,323.087 416.008,440.404 418.007,601.792 420.005,699.617 422.004,793.462 424.003,939.786 426.001,1008.04 428,1060.96 429.999,1133.77 431.998,1191.95 433.996,1224.47 435.995,1254.89 437.994,1279.13 439.992,1310.59 441.991,1322.51 443.99,1338.63 445.988,1334.64 447.987,1338.33 449.986,1360.07 451.985,1367.64 453.983,1369.17 455.982,1374.71 457.981,1378.43 459.979,1377.28 461.978,1378.62 463.977,1379.38 465.976,1378.97 467.974,1377.98 469.973,1379.49 471.972,1380.11 473.97,1379.9 475.969,1379.71 477.968,1380.36 479.967,1380.08 481.965,1380.03 483.964,1380.44 485.963,1378.58 487.961,1378.68 489.96,1377.92 491.959,1367.17 493.957,1367.41 495.956,1359.21 497.955,1284.92 499.954,1126.18 501.952,1076.74 503.951,992.699 505.95,981.45 507.948,958.383 509.947,943.175 511.946,963.898 513.945,972.695 515.943,857.682 517.942,826.83 519.941,661.804 521.939,566.862 523.938,585.117 525.937,591.463 527.936,753.963 529.934,711.491 531.933,751.542 533.932,826.893 535.93,749.994 537.929,665.565 539.928,697.401 541.926,870.086 543.925,967.643 545.924,1048.44 547.923,1069.48 549.921,1137.22 551.92,1179.59 553.919,1215.53 555.917,1263.17 557.916,1288.84 559.915,1298.78 561.914,1303.27 563.912,1319.8 565.911,1324.76 567.91,1330.47 569.908,1349.91 571.907,1358.65 573.906,1362.72 575.905,1371.46 577.903,1370.65 579.902,1375.62 581.901,1375.13 583.899,1376.57 585.898,1376.6 587.897,1377.8 589.895,1377.01 591.894,1376.09 593.893,1379.71 595.892,1379.35 597.89,1380.76 599.889,1380.66 601.888,1381.24 603.886,1381.12 605.885,1380.41 607.884,1381.06 609.883,1379.44 611.881,1380.37 613.88,1380.03 615.879,1378.19 617.877,1375.5 619.876,1365.09 621.875,1277.26 623.874,1063.49 625.872,894.232 627.871,761.041 629.87,718.19 631.868,545.715 633.867,453.954 635.866,413.929 637.864,446.49 639.863,383.543 641.862,441.293 643.861,357.153 645.859,306.249 647.858,370.575 649.857,402.872 651.855,336.137 653.854,297.369 655.853,348.713 657.852,228.546 659.85,211.853 661.849,258.634 663.848,326.562 665.846,438.319 667.845,662.63 669.844,797.179 671.842,943.036 673.841,1031.05 675.84,1099.21 677.839,1145.77 679.837,1199.54 681.836,1243.67 683.835,1273.68 685.833,1296.48 687.832,1297.62 689.831,1323.43 691.83,1337.81 693.828,1346.26 695.827,1357.61 697.826,1367.9 699.824,1368.46 701.823,1372.63 703.822,1372.94 705.821,1373.38 707.819,1374.2 709.818,1374.35 711.817,1374.53 713.815,1379.42 715.814,1381.03 717.813,1380.87 719.811,1379.75 721.81,1378.63 723.809,1379.02 725.808,1380.06 727.806,1380.53 729.805,1381.52 731.804,1382.44 733.802,1376.88 735.801,1371.44 737.8,1369.79 739.799,1367.95 741.797,1366.76 743.796,1352.52 745.795,1310.25 747.793,1256.49 749.792,1182.51 751.791,1142.93 753.79,1065.1 755.788,838.045 757.787,722.656 759.786,617.307 761.784,592.064 763.783,545.643 765.782,491.094 767.78,394.361 769.779,412.974 771.778,352.659 773.777,366.116 775.775,353.667 777.774,353.377 779.773,300.46 781.771,336.503 783.77,526.061 785.769,713.995 787.768,829.144 789.766,962.374 791.765,1060.44 793.764,1117.18 795.762,1177.86 797.761,1208.21 799.76,1210.9 801.759,1243.94 803.757,1268.23 805.756,1287 807.755,1301.6 809.753,1310.09 811.752,1330.77 813.751,1333.91 815.749,1344.33 817.748,1350.81 819.747,1350.08 821.746,1348.69 823.744,1347.79 825.743,1346.27 827.742,1352.04 829.74,1352.55 831.739,1361.34 833.738,1366.23 835.737,1366.48 837.735,1364.54 839.734,1362.82 841.733,1372.02 843.731,1372.94 845.73,1370.73 847.729,1372.07 849.728,1373.23 851.726,1377.84 853.725,1378.74 855.724,1379.91 857.722,1380.97 859.721,1380.13 861.72,1379.88 863.718,1379.83 865.717,1379.03 867.716,1378.86 869.715,1380.41 871.713,1380.45 873.712,1379.37 875.711,1378.62 877.709,1378.97 879.708,1378.58 881.707,1381.71 883.706,1385.25 885.704,1374.02 887.703,1352.75 889.702,1299.98 891.7,1191.44 893.699,1097.16 895.698,961.637 897.696,885.189 899.695,793.228 901.694,723.284 903.693,649.772 905.691,629.9 907.69,604.851 909.689,488.112 911.687,447.161 913.686,451.888 915.685,397.151 917.684,341.769 919.682,283.346 921.681,274.117 923.68,280.278 925.678,259.128 927.677,271.262 929.676,267.294 931.675,497.317 933.673,631.539 935.672,739.51 937.671,837.913 939.669,944.918 941.668,1038.9 943.667,1097.06 945.665,1152.08 947.664,1201.5 949.663,1218.38 951.662,1254.32 953.66,1277.87 955.659,1298.96 957.658,1315.21 959.656,1325.77 961.655,1330.93 963.654,1335.76 965.653,1339.66 967.651,1353.63 969.65,1351.99 971.649,1357.99 973.647,1355.68 975.646,1358.72 977.645,1361.43 979.644,1365.78 981.642,1367.53 983.641,1366.67 985.64,1372.14 987.638,1374.96 989.637,1375.76 991.636,1375.62 993.634,1374.32 995.633,1372.84 997.632,1371.75 999.631,1369.69 1001.63,1372.29 1003.63,1371.59 1005.63,1376.83 1007.63,1381.78 1009.62,1381.32 1011.62,1382.07 1013.62,1384.64 1015.62,1386.4 1017.62,1376.79 1019.62,1371.37 1021.62,1368.35 1023.62,1333.68 1025.61,1276.57 1027.61,1185.32 1029.61,1010.77 1031.61,832.334 1033.61,699.497 1035.61,607.591 1037.61,477.729 1039.6,426.958 1041.6,345.501 1043.6,248.524 1045.6,191.344 1047.6,230.206 1049.6,214.702 1051.6,204.725 1053.6,324.504 1055.59,315.497 1057.59,299.334 1059.59,245.458 1061.59,342.322 1063.59,525.953 1065.59,626.993 1067.59,779.744 1069.59,903.081 1071.58,968.46 1073.58,1058.76 1075.58,1139.47 1077.58,1183.73 1079.58,1206.11 1081.58,1238.46 1083.58,1280.05 1085.58,1300.97 1087.57,1329.95 1089.57,1343.79 1091.57,1357.07 1093.57,1356.75 1095.57,1360.37 1097.57,1366.03 1099.57,1365.09 1101.56,1370.04 1103.56,1374.21 1105.56,1375.82 1107.56,1375.57 1109.56,1376.49 1111.56,1379.98 1113.56,1379.38 1115.56,1380.83 1117.55,1381.52 1119.55,1381.53 1121.55,1382.94 1123.55,1381.3 1125.55,1380.76 1127.55,1379.9 1129.55,1381.23 1131.55,1381.23 1133.54,1379.72 1135.54,1379.4 1137.54,1377.91 1139.54,1306.57 1141.54,1224.88 1143.54,1207.61 1145.54,1065.59 1147.53,908.84 1149.53,808.414 1151.53,730.851 1153.53,642.767 1155.53,533.314 1157.53,489.728 1159.53,397.989 1161.53,474.449 1163.52,499.491 1165.52,418.865 1167.52,366.22 1169.52,285.106 1171.52,243.477 1173.52,278.454 1175.52,291.658 1177.52,288.142 1179.51,286.897 1181.51,462.516 1183.51,620.649 1185.51,766.332 1187.51,854.707 1189.51,967.552 1191.51,1039.67 1193.51,1146.33 1195.5,1169.85 1197.5,1208.3 1199.5,1233.04 1201.5,1258.47 1203.5,1281.99 1205.5,1315.14 1207.5,1321.38 1209.49,1314.4 1211.49,1326.92 1213.49,1333.45 1215.49,1344.99 1217.49,1343.85 1219.49,1351.99 1221.49,1349.42 1223.49,1355.17 1225.48,1356.37 1227.48,1363.24 1229.48,1372.65 1231.48,1376.1 1233.48,1374.09 1235.48,1375.1 1237.48,1376.5 1239.48,1378.29 1241.47,1379.18 1243.47,1379.93 1245.47,1379.2 1247.47,1380.36 1249.47,1380.05 1251.47,1380 1253.47,1380.05 1255.47,1379.85 1257.46,1380.65 1259.46,1379.33 1261.46,1380.89 1263.46,1380.78 1265.46,1380.06 1267.46,1380.14 1269.46,1376.28 1271.45,1373.12 1273.45,1266.84 1275.45,1159.29 1277.45,1031.23 1279.45,863.023 1281.45,675.499 1283.45,561.419 1285.45,513.034 1287.44,495.665 1289.44,409.06 1291.44,374.612 1293.44,387.468 1295.44,390.925 1297.44,261.556 1299.44,235.349 1301.44,276.476 1303.43,314.988 1305.43,274.907 1307.43,292.521 1309.43,306.606 1311.43,282.751 1313.43,231.914 1315.43,251.277 1317.43,447.075 1319.42,660.172 1321.42,838.45 1323.42,909.685 1325.42,996.958 1327.42,1060.18 1329.42,1122.74 1331.42,1154.42 1333.41,1206.98 1335.41,1236.76 1337.41,1272.6 1339.41,1284.99 1341.41,1310.79 1343.41,1314.27 1345.41,1332.41 1347.41,1343 1349.4,1342.46 1351.4,1349.6 1353.4,1348.49 1355.4,1362.32 1357.4,1364.87 1359.4,1364.83 1361.4,1368.4 1363.4,1373.12 1365.39,1373.65 1367.39,1375.46 1369.39,1377.13 1371.39,1376.15 1373.39,1375.48 1375.39,1377.78 1377.39,1377.3 1379.39,1378.78 1381.38,1378.8 1383.38,1381.18 1385.38,1382 1387.38,1381.66 1389.38,1382.04 1391.38,1381.73 1393.38,1381.55 1395.37,1382.9 1397.37,1383.16 1399.37,1382.25 1401.37,1370.08 1403.37,1369.14 1405.37,1366.66 1407.37,1364.62 1409.37,1316.56 1411.36,1242.61 1413.36,1214.28 1415.36,1185.37 1417.36,1076.29 1419.36,985.542 1421.36,795.786 1423.36,726.02 1425.36,595.947 1427.35,517.684 1429.35,493.997 1431.35,417.228 1433.35,332.475 1435.35,269.983 1437.35,218.332 1439.35,187.796 1441.35,212.123 1443.34,197.044 1445.34,251.588 1447.34,412.225 1449.34,601.546 1451.34,747.426 1453.34,885.411 1455.34,1014.76 1457.33,1116.13 1459.33,1202.86 1461.33,1224.14 1463.33,1253.27 1465.33,1274.26 1467.33,1287.19 1469.33,1299.54 1471.33,1318.03 1473.32,1330.18 1475.32,1334.28 1477.32,1338.28 1479.32,1353.4 1481.32,1363.8 1483.32,1372.91 1485.32,1373.45 1487.32,1371.56 1489.31,1375.64 1491.31,1375.96 1493.31,1377.6 1495.31,1377.43 1497.31,1377.66 1499.31,1378.34 1501.31,1377.61 1503.31,1378.35 1505.3,1378.87 1507.3,1379.64 1509.3,1381.07 1511.3,1380.49 1513.3,1380.48 1515.3,1380.27 1517.3,1379.66 1519.29,1378.44 1521.29,1381.17 1523.29,1380.07 1525.29,1383.4 1527.29,1376.89 1529.29,1374.87 1531.29,1313.95 1533.29,1272.73 1535.28,1226.41 1537.28,1168.41 1539.28,1154.91 1541.28,1075.03 1543.28,1042.3 1545.28,886.525 1547.28,766.284 1549.28,655.781 1551.27,635.577 1553.27,584.818 1555.27,452.274 1557.27,435.645 1559.27,331.066 1561.27,300.762 1563.27,334.541 1565.26,314.87 1567.26,288.666 1569.26,308.576 1571.26,351.841 1573.26,476.138 1575.26,518.098 1577.26,627.82 1579.26,658.123 1581.25,644.599 1583.25,777.094 1585.25,896.793 1587.25,959.746 1589.25,1018.6 1591.25,1071.43 1593.25,1129.23 1595.25,1188.44 1597.24,1233.04 1599.24,1258.84 1601.24,1289.45 1603.24,1297.67 1605.24,1309.32 1607.24,1326.87 1609.24,1334.01 1611.24,1344.17 1613.23,1357.31 1615.23,1360.73 1617.23,1359.34 1619.23,1366.67 1621.23,1369.62 1623.23,1370.4 1625.23,1372.38 1627.22,1376.32 1629.22,1378.84 1631.22,1377.6 1633.22,1379.36 1635.22,1378.76 1637.22,1380.76 1639.22,1380.38 1641.22,1380.02 1643.21,1380.55 1645.21,1380.35 1647.21,1380.42 1649.21,1380.28 1651.21,1379.91 1653.21,1379.73 1655.21,1379.01 1657.21,1380.25 1659.2,1378.5 1661.2,1377.83 1663.2,1378.7 1665.2,1378.07 1667.2,1372.7 1669.2,1362.46 1671.2,1181.15 1673.2,969.616 1675.19,862.5 1677.19,760.359 1679.19,627.591 1681.19,496.592 1683.19,437.564 1685.19,429.021 1687.19,342.332 1689.18,346.136 1691.18,329.979 1693.18,345.79 1695.18,392.881 1697.18,415.967 1699.18,319.371 1701.18,301.332 1703.18,277.738 1705.17,214.003 1707.17,314.626 1709.17,536.621 1711.17,702.743 1713.17,838.444 1715.17,962.179 1717.17,1041.06 1719.17,1099.4 1721.16,1174.26 1723.16,1187.37 1725.16,1221.92 1727.16,1245.67 1729.16,1272.71 1731.16,1289.68 1733.16,1304.26 1735.16,1322.2 1737.15,1329.7 1739.15,1339.3 1741.15,1345.54 1743.15,1354.03 1745.15,1358.35 1747.15,1370.14 1749.15,1370.28 1751.14,1368.48 1753.14,1370.25 1755.14,1369.32 1757.14,1368.88 1759.14,1378.58 1761.14,1377.75 1763.14,1380.62 1765.14,1380.43 1767.13,1380.73 1769.13,1381.64 1771.13,1380.84 1773.13,1381.13 1775.13,1381.68 1777.13,1382.62 1779.13,1383.2 1781.13,1384.76 1783.12,1383.1 1785.12,1381.15 1787.12,1378.95 1789.12,1374.15 1791.12,1310.69 1793.12,1161.17 1795.12,1030.13 1797.12,841.884 1799.11,694.444 1801.11,690.779 1803.11,613.481 1805.11,613.197 1807.11,602.106 1809.11,473.334 1811.11,367.769 1813.1,367.34 1815.1,383.338 1817.1,437.369 1819.1,457.661 1821.1,447.766 1823.1,345.321 1825.1,263.52 1827.1,160.256 1829.09,223.189 1831.09,417.462 1833.09,561.382 1835.09,734.963 1837.09,846.741 1839.09,973.045 1841.09,1038.02 1843.09,1075.68 1845.08,1137.85 1847.08,1191.73 1849.08,1241.89 1851.08,1275.55 1853.08,1284.68 1855.08,1310.72 1857.08,1317.57 1859.08,1333.26 1861.07,1345.33 1863.07,1344.87 1865.07,1365.38 1867.07,1367.35 1869.07,1372.77 1871.07,1375.26 1873.07,1374.78 1875.06,1377.44 1877.06,1378.34 1879.06,1379.78 1881.06,1379.75 1883.06,1379.2 1885.06,1380.28 1887.06,1380.18 1889.06,1380.12 1891.05,1380.36 1893.05,1380.93 1895.05,1380.61 1897.05,1380.31 1899.05,1379.88 1901.05,1380.49 1903.05,1379.85 1905.05,1375.51 1907.04,1368.5 1909.04,1328.9 1911.04,1240.38 1913.04,1030.86 1915.04,884.161 1917.04,779.799 1919.04,712.871 1921.03,604.001 1923.03,472.881 1925.03,399.913 1927.03,360.31 1929.03,312.25 1931.03,302.039 1933.03,282.854 1935.03,290.175 1937.02,349.03 1939.02,315.928 1941.02,240.198 1943.02,323.095 1945.02,266.77 1947.02,308.955 1949.02,242.421 1951.02,226.196 1953.01,254.607 1955.01,450.396 1957.01,614.882 1959.01,757.365 1961.01,845.359 1963.01,949.376 1965.01,1033.52 1967.01,1118.53 1969,1153.48 1971,1203.77 1973,1225.98 1975,1257.79 1977,1279.02 1979,1300.76 1981,1303.01 1982.99,1320.01 1984.99,1330.29 1986.99,1333.57 1988.99,1352.67 1990.99,1361.8 1992.99,1364.07 1994.99,1359.03 1996.99,1363.64 1998.98,1371.32 2000.98,1376.08 2002.98,1376.64 2004.98,1376.54 2006.98,1376.34 2008.98,1380.47 2010.98,1380.71 2012.98,1380.97 2014.97,1381.17 2016.97,1382.16 2018.97,1381.55 2020.97,1380.62 2022.97,1380.88 2024.97,1382 2026.97,1381.4 2028.97,1378.52 2030.96,1381.26 2032.96,1378.39 2034.96,1341.74 2036.96,1341.04 2038.96,1320.6 2040.96,1331.49 2042.96,1307.65 2044.95,1320.74 2046.95,1323.56 2048.95,1290.55 2050.95,1255.08 2052.95,1107.69 2054.95,1154.37 2056.95,1177.95 2058.95,1120.82 2060.94,1092.02 2062.94,875.735 2064.94,740.275 2066.94,687.425 2068.94,582.976 2070.94,559.182 2072.94,693.108 2074.94,822.655 2076.93,925.326 2078.93,999.386 2080.93,1038.3 2082.93,1104.74 2084.93,1150.95 2086.93,1172.47 2088.93,1205.43 2090.93,1225.64 2092.92,1237.47 2094.92,1253.84 2096.92,1274.19 2098.92,1296.86 2100.92,1319.69 2102.92,1334.47 2104.92,1344.36 2106.91,1350.33 2108.91,1349.12 2110.91,1357.15 2112.91,1358.05 2114.91,1372.28 2116.91,1372.51 2118.91,1371.34 2120.91,1370.96 2122.9,1375.75 2124.9,1375.19 2126.9,1378.64 2128.9,1378.21 2130.9,1380.13 2132.9,1379.89 2134.9,1380.36 2136.9,1380.37 2138.89,1380.54 2140.89,1381.32 2142.89,1382.77 2144.89,1380.89 2146.89,1383.18 2148.89,1376.88 2150.89,1383.45 2152.89,1362.52 2154.88,1230.95 2156.88,1130.05 2158.88,1133.93 2160.88,1153.82 2162.88,1141.03 2164.88,992.111 2166.88,904.058 2168.87,877.136 2170.87,852.146 2172.87,831.842 2174.87,723.329 2176.87,673.596 2178.87,584.393 2180.87,631.128 2182.87,582.127 2184.86,498.754 2186.86,462.586 2188.86,448.777 2190.86,399.43 2192.86,333.535 2194.86,484.808 2196.86,554.196 2198.86,693.572 2200.85,798.905 2202.85,925.48 2204.85,1038.14 2206.85,1098.58 2208.85,1143.73 2210.85,1150.15 2212.85,1196.6 2214.85,1230.1 2216.84,1258 2218.84,1274.63 2220.84,1291.89 2222.84,1311.16 2224.84,1314.42 2226.84,1330.02 2228.84,1338.55 2230.83,1353.75 2232.83,1364.34 2234.83,1369.04 2236.83,1374.35 2238.83,1372.88 2240.83,1375.94 2242.83,1380.06 2244.83,1379.88 2246.82,1380.2 2248.82,1380.17 2250.82,1380.45 2252.82,1380.4 2254.82,1380.79 2256.82,1379.54 2258.82,1380.22 2260.82,1380.45 2262.81,1380.24 2264.81,1380.14 2266.81,1380.25 2268.81,1380.76 2270.81,1381.77 2272.81,1382.04 2274.81,1381.58 2276.81,1378.55 2278.8,1379.08 2280.8,1378.54 2282.8,1327.07 2284.8,1117.53 2286.8,957.369 2288.8,817.435 2290.8,668.099 2292.79,573.909 "></polyline>
</svg>