<svg xmlns="http://www.w3.org/2000/svg" xmlns:xlink="http://www.w3.org/1999/xlink" width="600" height="400" viewBox="0 0 2400 1600">
<defs>
  <clipPath id="clip480">
    <rect x="0" y="0" width="2400" height="1600"></rect>
  </clipPath>
</defs>
<path clip-path="url(#clip480)" d="M0 1600 L2400 1600 L2400 8.88178e-14 L0 8.88178e-14  Z" fill="#ffffff" fill-rule="evenodd" fill-opacity="1"></path>
<defs>
  <clipPath id="clip481">
    <rect x="480" y="0" width="1681" height="1600"></rect>
  </clipPath>
</defs>
<path clip-path="url(#clip480)" d="M262.551 1423.18 L2352.76 1423.18 L2352.76 123.472 L262.551 123.472  Z" fill="#ffffff" fill-rule="evenodd" fill-opacity="1"></path>
<defs>
  <clipPath id="clip482">
    <rect x="262" y="123" width="2091" height="1301"></rect>
  </clipPath>
</defs>
<polyline clip-path="url(#clip482)" style="stroke:#000000; stroke-linecap:round; stroke-linejoin:round; stroke-width:2; stroke-opacity:0.1; fill:none" points="319.736,1423.18 319.736,123.472 "></polyline>
<polyline clip-path="url(#clip482)" style="stroke:#000000; stroke-linecap:round; stroke-linejoin:round; stroke-width:2; stroke-opacity:0.1; fill:none" points="812.709,1423.18 812.709,123.472 "></polyline>
<polyline clip-path="url(#clip482)" style="stroke:#000000; stroke-linecap:round; stroke-linejoin:round; stroke-width:2; stroke-opacity:0.1; fill:none" points="1305.68,1423.18 1305.68,123.472 "></polyline>
<polyline clip-path="url(#clip482)" style="stroke:#000000; stroke-linecap:round; stroke-linejoin:round; stroke-width:2; stroke-opacity:0.1; fill:none" points="1798.65,1423.18 1798.65,123.472 "></polyline>
<polyline clip-path="url(#clip482)" style="stroke:#000000; stroke-linecap:round; stroke-linejoin:round; stroke-width:2; stroke-opacity:0.1; fill:none" points="2291.63,1423.18 2291.63,123.472 "></polyline>
<polyline clip-path="url(#clip482)" style="stroke:#000000; stroke-linecap:round; stroke-linejoin:round; stroke-width:2; stroke-opacity:0.1; fill:none" points="262.551,1385.82 2352.76,1385.82 "></polyline>
<polyline clip-path="url(#clip482)" style="stroke:#000000; stroke-linecap:round; stroke-linejoin:round; stroke-width:2; stroke-opacity:0.1; fill:none" points="262.551,1197.83 2352.76,1197.83 "></polyline>
<polyline clip-path="url(#clip482)" style="stroke:#000000; stroke-linecap:round; stroke-linejoin:round; stroke-width:2; stroke-opacity:0.1; fill:none" points="262.551,1009.85 2352.76,1009.85 "></polyline>
<polyline clip-path="url(#clip482)" style="stroke:#000000; stroke-linecap:round; stroke-linejoin:round; stroke-width:2; stroke-opacity:0.1; fill:none" points="262.551,821.861 2352.76,821.861 "></polyline>
<polyline clip-path="url(#clip482)" style="stroke:#000000; stroke-linecap:round; stroke-linejoin:round; stroke-width:2; stroke-opacity:0.1; fill:none" points="262.551,633.876 2352.76,633.876 "></polyline>
<polyline clip-path="url(#clip482)" style="stroke:#000000; stroke-linecap:round; stroke-linejoin:round; stroke-width:2; stroke-opacity:0.1; fill:none" points="262.551,445.89 2352.76,445.89 "></polyline>
<polyline clip-path="url(#clip482)" style="stroke:#000000; stroke-linecap:round; stroke-linejoin:round; stroke-width:2; stroke-opacity:0.1; fill:none" points="262.551,257.904 2352.76,257.904 "></polyline>
<polyline clip-path="url(#clip480)" style="stroke:#000000; stroke-linecap:round; stroke-linejoin:round; stroke-width:4; stroke-opacity:1; fill:none" points="262.551,1423.18 2352.76,1423.18 "></polyline>
<polyline clip-path="url(#clip480)" style="stroke:#000000; stroke-linecap:round; stroke-linejoin:round; stroke-width:4; stroke-opacity:1; fill:none" points="319.736,1423.18 319.736,1404.28 "></polyline>
<polyline clip-path="url(#clip480)" style="stroke:#000000; stroke-linecap:round; stroke-linejoin:round; stroke-width:4; stroke-opacity:1; fill:none" points="812.709,1423.18 812.709,1404.28 "></polyline>
<polyline clip-path="url(#clip480)" style="stroke:#000000; stroke-linecap:round; stroke-linejoin:round; stroke-width:4; stroke-opacity:1; fill:none" points="1305.68,1423.18 1305.68,1404.28 "></polyline>
<polyline clip-path="url(#clip480)" style="stroke:#000000; stroke-linecap:round; stroke-linejoin:round; stroke-width:4; stroke-opacity:1; fill:none" points="1798.65,1423.18 1798.65,1404.28 "></polyline>
<polyline clip-path="url(#clip480)" style="stroke:#000000; stroke-linecap:round; stroke-linejoin:round; stroke-width:4; stroke-opacity:1; fill:none" points="2291.63,1423.18 2291.63,1404.28 "></polyline>
<path clip-path="url(#clip480)" d="M319.736 1454.1 Q316.125 1454.1 314.296 1457.66 Q312.491 1461.2 312.491 1468.33 Q312.491 1475.44 314.296 1479.01 Q316.125 1482.55 319.736 1482.55 Q323.37 1482.55 325.176 1479.01 Q327.005 1475.44 327.005 1468.33 Q327.005 1461.2 325.176 1457.66 Q323.37 1454.1 319.736 1454.1 M319.736 1450.39 Q325.546 1450.39 328.602 1455 Q331.68 1459.58 331.68 1468.33 Q331.68 1477.06 328.602 1481.67 Q325.546 1486.25 319.736 1486.25 Q313.926 1486.25 310.847 1481.67 Q307.792 1477.06 307.792 1468.33 Q307.792 1459.58 310.847 1455 Q313.926 1450.39 319.736 1450.39 Z" fill="#000000" fill-rule="nonzero" fill-opacity="1"></path><path clip-path="url(#clip480)" d="M776.401 1481.64 L792.721 1481.64 L792.721 1485.58 L770.776 1485.58 L770.776 1481.64 Q773.438 1478.89 778.022 1474.26 Q782.628 1469.61 783.809 1468.27 Q786.054 1465.74 786.934 1464.01 Q787.836 1462.25 787.836 1460.56 Q787.836 1457.8 785.892 1456.07 Q783.971 1454.33 780.869 1454.33 Q778.67 1454.33 776.216 1455.09 Q773.785 1455.86 771.008 1457.41 L771.008 1452.69 Q773.832 1451.55 776.285 1450.97 Q778.739 1450.39 780.776 1450.39 Q786.147 1450.39 789.341 1453.08 Q792.535 1455.77 792.535 1460.26 Q792.535 1462.39 791.725 1464.31 Q790.938 1466.2 788.832 1468.8 Q788.253 1469.47 785.151 1472.69 Q782.049 1475.88 776.401 1481.64 Z" fill="#000000" fill-rule="nonzero" fill-opacity="1"></path><path clip-path="url(#clip480)" d="M802.582 1451.02 L820.938 1451.02 L820.938 1454.96 L806.864 1454.96 L806.864 1463.43 Q807.883 1463.08 808.901 1462.92 Q809.92 1462.73 810.938 1462.73 Q816.725 1462.73 820.105 1465.9 Q823.484 1469.08 823.484 1474.49 Q823.484 1480.07 820.012 1483.17 Q816.54 1486.25 810.22 1486.25 Q808.045 1486.25 805.776 1485.88 Q803.531 1485.51 801.123 1484.77 L801.123 1480.07 Q803.207 1481.2 805.429 1481.76 Q807.651 1482.32 810.128 1482.32 Q814.132 1482.32 816.47 1480.21 Q818.808 1478.1 818.808 1474.49 Q818.808 1470.88 816.47 1468.77 Q814.132 1466.67 810.128 1466.67 Q808.253 1466.67 806.378 1467.08 Q804.526 1467.5 802.582 1468.38 L802.582 1451.02 Z" fill="#000000" fill-rule="nonzero" fill-opacity="1"></path><path clip-path="url(#clip480)" d="M842.697 1454.1 Q839.086 1454.1 837.257 1457.66 Q835.452 1461.2 835.452 1468.33 Q835.452 1475.44 837.257 1479.01 Q839.086 1482.55 842.697 1482.55 Q846.331 1482.55 848.137 1479.01 Q849.966 1475.44 849.966 1468.33 Q849.966 1461.2 848.137 1457.66 Q846.331 1454.1 842.697 1454.1 M842.697 1450.39 Q848.507 1450.39 851.563 1455 Q854.642 1459.58 854.642 1468.33 Q854.642 1477.06 851.563 1481.67 Q848.507 1486.25 842.697 1486.25 Q836.887 1486.25 833.808 1481.67 Q830.753 1477.06 830.753 1468.33 Q830.753 1459.58 833.808 1455 Q836.887 1450.39 842.697 1450.39 Z" fill="#000000" fill-rule="nonzero" fill-opacity="1"></path><path clip-path="url(#clip480)" d="M1265.3 1451.02 L1283.66 1451.02 L1283.66 1454.96 L1269.58 1454.96 L1269.58 1463.43 Q1270.6 1463.08 1271.62 1462.92 Q1272.64 1462.73 1273.66 1462.73 Q1279.44 1462.73 1282.82 1465.9 Q1286.2 1469.08 1286.2 1474.49 Q1286.2 1480.07 1282.73 1483.17 Q1279.26 1486.25 1272.94 1486.25 Q1270.76 1486.25 1268.49 1485.88 Q1266.25 1485.51 1263.84 1484.77 L1263.84 1480.07 Q1265.92 1481.2 1268.15 1481.76 Q1270.37 1482.32 1272.85 1482.32 Q1276.85 1482.32 1279.19 1480.21 Q1281.53 1478.1 1281.53 1474.49 Q1281.53 1470.88 1279.19 1468.77 Q1276.85 1466.67 1272.85 1466.67 Q1270.97 1466.67 1269.1 1467.08 Q1267.24 1467.5 1265.3 1468.38 L1265.3 1451.02 Z" fill="#000000" fill-rule="nonzero" fill-opacity="1"></path><path clip-path="url(#clip480)" d="M1305.42 1454.1 Q1301.8 1454.1 1299.98 1457.66 Q1298.17 1461.2 1298.17 1468.33 Q1298.17 1475.44 1299.98 1479.01 Q1301.8 1482.55 1305.42 1482.55 Q1309.05 1482.55 1310.86 1479.01 Q1312.68 1475.44 1312.68 1468.33 Q1312.68 1461.2 1310.86 1457.66 Q1309.05 1454.1 1305.42 1454.1 M1305.42 1450.39 Q1311.23 1450.39 1314.28 1455 Q1317.36 1459.58 1317.36 1468.33 Q1317.36 1477.06 1314.28 1481.67 Q1311.23 1486.25 1305.42 1486.25 Q1299.61 1486.25 1296.53 1481.67 Q1293.47 1477.06 1293.47 1468.33 Q1293.47 1459.58 1296.53 1455 Q1299.61 1450.39 1305.42 1450.39 Z" fill="#000000" fill-rule="nonzero" fill-opacity="1"></path><path clip-path="url(#clip480)" d="M1335.58 1454.1 Q1331.97 1454.1 1330.14 1457.66 Q1328.33 1461.2 1328.33 1468.33 Q1328.33 1475.44 1330.14 1479.01 Q1331.97 1482.55 1335.58 1482.55 Q1339.21 1482.55 1341.02 1479.01 Q1342.85 1475.44 1342.85 1468.33 Q1342.85 1461.2 1341.02 1457.66 Q1339.21 1454.1 1335.58 1454.1 M1335.58 1450.39 Q1341.39 1450.39 1344.44 1455 Q1347.52 1459.58 1347.52 1468.33 Q1347.52 1477.06 1344.44 1481.67 Q1341.39 1486.25 1335.58 1486.25 Q1329.77 1486.25 1326.69 1481.67 Q1323.63 1477.06 1323.63 1468.33 Q1323.63 1459.58 1326.69 1455 Q1329.77 1450.39 1335.58 1450.39 Z" fill="#000000" fill-rule="nonzero" fill-opacity="1"></path><path clip-path="url(#clip480)" d="M1756.93 1451.02 L1779.15 1451.02 L1779.15 1453.01 L1766.61 1485.58 L1761.72 1485.58 L1773.53 1454.96 L1756.93 1454.96 L1756.93 1451.02 Z" fill="#000000" fill-rule="nonzero" fill-opacity="1"></path><path clip-path="url(#clip480)" d="M1788.32 1451.02 L1806.68 1451.02 L1806.68 1454.96 L1792.6 1454.96 L1792.6 1463.43 Q1793.62 1463.08 1794.64 1462.92 Q1795.66 1462.73 1796.68 1462.73 Q1802.46 1462.73 1805.84 1465.9 Q1809.22 1469.08 1809.22 1474.49 Q1809.22 1480.07 1805.75 1483.17 Q1802.28 1486.25 1795.96 1486.25 Q1793.78 1486.25 1791.51 1485.88 Q1789.27 1485.51 1786.86 1484.77 L1786.86 1480.07 Q1788.94 1481.2 1791.17 1481.76 Q1793.39 1482.32 1795.87 1482.32 Q1799.87 1482.32 1802.21 1480.21 Q1804.55 1478.1 1804.55 1474.49 Q1804.55 1470.88 1802.21 1468.77 Q1799.87 1466.67 1795.87 1466.67 Q1793.99 1466.67 1792.12 1467.08 Q1790.26 1467.5 1788.32 1468.38 L1788.32 1451.02 Z" fill="#000000" fill-rule="nonzero" fill-opacity="1"></path><path clip-path="url(#clip480)" d="M1828.43 1454.1 Q1824.82 1454.1 1822.99 1457.66 Q1821.19 1461.2 1821.19 1468.33 Q1821.19 1475.44 1822.99 1479.01 Q1824.82 1482.55 1828.43 1482.55 Q1832.07 1482.55 1833.87 1479.01 Q1835.7 1475.44 1835.7 1468.33 Q1835.7 1461.2 1833.87 1457.66 Q1832.07 1454.1 1828.43 1454.1 M1828.43 1450.39 Q1834.24 1450.39 1837.3 1455 Q1840.38 1459.58 1840.38 1468.33 Q1840.38 1477.06 1837.3 1481.67 Q1834.24 1486.25 1828.43 1486.25 Q1822.62 1486.25 1819.55 1481.67 Q1816.49 1477.06 1816.49 1468.33 Q1816.49 1459.58 1819.55 1455 Q1822.62 1450.39 1828.43 1450.39 Z" fill="#000000" fill-rule="nonzero" fill-opacity="1"></path><path clip-path="url(#clip480)" d="M2236.15 1481.64 L2243.79 1481.64 L2243.79 1455.28 L2235.48 1456.95 L2235.48 1452.69 L2243.75 1451.02 L2248.42 1451.02 L2248.42 1481.64 L2256.06 1481.64 L2256.06 1485.58 L2236.15 1485.58 L2236.15 1481.64 Z" fill="#000000" fill-rule="nonzero" fill-opacity="1"></path><path clip-path="url(#clip480)" d="M2275.5 1454.1 Q2271.89 1454.1 2270.06 1457.66 Q2268.26 1461.2 2268.26 1468.33 Q2268.26 1475.44 2270.06 1479.01 Q2271.89 1482.55 2275.5 1482.55 Q2279.14 1482.55 2280.94 1479.01 Q2282.77 1475.44 2282.77 1468.33 Q2282.77 1461.2 2280.94 1457.66 Q2279.14 1454.1 2275.5 1454.1 M2275.5 1450.39 Q2281.31 1450.39 2284.37 1455 Q2287.45 1459.58 2287.45 1468.33 Q2287.45 1477.06 2284.37 1481.67 Q2281.31 1486.25 2275.5 1486.25 Q2269.69 1486.25 2266.62 1481.67 Q2263.56 1477.06 2263.56 1468.33 Q2263.56 1459.58 2266.62 1455 Q2269.69 1450.39 2275.5 1450.39 Z" fill="#000000" fill-rule="nonzero" fill-opacity="1"></path><path clip-path="url(#clip480)" d="M2305.67 1454.1 Q2302.06 1454.1 2300.23 1457.66 Q2298.42 1461.2 2298.42 1468.33 Q2298.42 1475.44 2300.23 1479.01 Q2302.06 1482.55 2305.67 1482.55 Q2309.3 1482.55 2311.11 1479.01 Q2312.94 1475.44 2312.94 1468.33 Q2312.94 1461.2 2311.11 1457.66 Q2309.3 1454.1 2305.67 1454.1 M2305.67 1450.39 Q2311.48 1450.39 2314.53 1455 Q2317.61 1459.58 2317.61 1468.33 Q2317.61 1477.06 2314.53 1481.67 Q2311.48 1486.25 2305.67 1486.25 Q2299.86 1486.25 2296.78 1481.67 Q2293.72 1477.06 2293.72 1468.33 Q2293.72 1459.58 2296.78 1455 Q2299.86 1450.39 2305.67 1450.39 Z" fill="#000000" fill-rule="nonzero" fill-opacity="1"></path><path clip-path="url(#clip480)" d="M2335.83 1454.1 Q2332.22 1454.1 2330.39 1457.66 Q2328.58 1461.2 2328.58 1468.33 Q2328.58 1475.44 2330.39 1479.01 Q2332.22 1482.55 2335.83 1482.55 Q2339.46 1482.55 2341.27 1479.01 Q2343.1 1475.44 2343.1 1468.33 Q2343.1 1461.2 2341.27 1457.66 Q2339.46 1454.1 2335.83 1454.1 M2335.83 1450.39 Q2341.64 1450.39 2344.69 1455 Q2347.77 1459.58 2347.77 1468.33 Q2347.77 1477.06 2344.69 1481.67 Q2341.64 1486.25 2335.83 1486.25 Q2330.02 1486.25 2326.94 1481.67 Q2323.88 1477.06 2323.88 1468.33 Q2323.88 1459.58 2326.94 1455 Q2330.02 1450.39 2335.83 1450.39 Z" fill="#000000" fill-rule="nonzero" fill-opacity="1"></path><path clip-path="url(#clip480)" d="M1246.81 1522.27 L1246.81 1532.4 L1258.88 1532.4 L1258.88 1536.95 L1246.81 1536.95 L1246.81 1556.3 Q1246.81 1560.66 1247.99 1561.9 Q1249.2 1563.14 1252.86 1563.14 L1258.88 1563.14 L1258.88 1568.04 L1252.86 1568.04 Q1246.08 1568.04 1243.5 1565.53 Q1240.93 1562.98 1240.93 1556.3 L1240.93 1536.95 L1236.63 1536.95 L1236.63 1532.4 L1240.93 1532.4 L1240.93 1522.27 L1246.81 1522.27 Z" fill="#000000" fill-rule="nonzero" fill-opacity="1"></path><path clip-path="url(#clip480)" d="M1266.58 1532.4 L1272.44 1532.4 L1272.44 1568.04 L1266.58 1568.04 L1266.58 1532.4 M1266.58 1518.52 L1272.44 1518.52 L1272.44 1525.93 L1266.58 1525.93 L1266.58 1518.52 Z" fill="#000000" fill-rule="nonzero" fill-opacity="1"></path><path clip-path="url(#clip480)" d="M1312.44 1539.24 Q1314.64 1535.29 1317.7 1533.41 Q1320.75 1531.54 1324.89 1531.54 Q1330.46 1531.54 1333.48 1535.45 Q1336.51 1539.33 1336.51 1546.53 L1336.51 1568.04 L1330.62 1568.04 L1330.62 1546.72 Q1330.62 1541.59 1328.8 1539.11 Q1326.99 1536.63 1323.27 1536.63 Q1318.71 1536.63 1316.07 1539.65 Q1313.43 1542.68 1313.43 1547.9 L1313.43 1568.04 L1307.54 1568.04 L1307.54 1546.72 Q1307.54 1541.56 1305.73 1539.11 Q1303.91 1536.63 1300.13 1536.63 Q1295.64 1536.63 1293 1539.68 Q1290.35 1542.71 1290.35 1547.9 L1290.35 1568.04 L1284.47 1568.04 L1284.47 1532.4 L1290.35 1532.4 L1290.35 1537.93 Q1292.36 1534.66 1295.16 1533.1 Q1297.96 1531.54 1301.81 1531.54 Q1305.7 1531.54 1308.4 1533.51 Q1311.14 1535.48 1312.44 1539.24 Z" fill="#000000" fill-rule="nonzero" fill-opacity="1"></path><path clip-path="url(#clip480)" d="M1378.68 1548.76 L1378.68 1551.62 L1351.75 1551.62 Q1352.13 1557.67 1355.38 1560.85 Q1358.66 1564 1364.48 1564 Q1367.86 1564 1371.01 1563.17 Q1374.19 1562.35 1377.31 1560.69 L1377.31 1566.23 Q1374.16 1567.57 1370.85 1568.27 Q1367.54 1568.97 1364.13 1568.97 Q1355.6 1568.97 1350.61 1564 Q1345.64 1559.04 1345.64 1550.57 Q1345.64 1541.82 1350.35 1536.69 Q1355.09 1531.54 1363.11 1531.54 Q1370.31 1531.54 1374.48 1536.18 Q1378.68 1540.8 1378.68 1548.76 M1372.82 1547.04 Q1372.76 1542.23 1370.12 1539.37 Q1367.51 1536.5 1363.18 1536.5 Q1358.28 1536.5 1355.32 1539.27 Q1352.39 1542.04 1351.94 1547.07 L1372.82 1547.04 Z" fill="#000000" fill-rule="nonzero" fill-opacity="1"></path><polyline clip-path="url(#clip480)" style="stroke:#000000; stroke-linecap:round; stroke-linejoin:round; stroke-width:4; stroke-opacity:1; fill:none" points="262.551,1423.18 262.551,123.472 "></polyline>
<polyline clip-path="url(#clip480)" style="stroke:#000000; stroke-linecap:round; stroke-linejoin:round; stroke-width:4; stroke-opacity:1; fill:none" points="262.551,1385.82 281.449,1385.82 "></polyline>
<polyline clip-path="url(#clip480)" style="stroke:#000000; stroke-linecap:round; stroke-linejoin:round; stroke-width:4; stroke-opacity:1; fill:none" points="262.551,1197.83 281.449,1197.83 "></polyline>
<polyline clip-path="url(#clip480)" style="stroke:#000000; stroke-linecap:round; stroke-linejoin:round; stroke-width:4; stroke-opacity:1; fill:none" points="262.551,1009.85 281.449,1009.85 "></polyline>
<polyline clip-path="url(#clip480)" style="stroke:#000000; stroke-linecap:round; stroke-linejoin:round; stroke-width:4; stroke-opacity:1; fill:none" points="262.551,821.861 281.449,821.861 "></polyline>
<polyline clip-path="url(#clip480)" style="stroke:#000000; stroke-linecap:round; stroke-linejoin:round; stroke-width:4; stroke-opacity:1; fill:none" points="262.551,633.876 281.449,633.876 "></polyline>
<polyline clip-path="url(#clip480)" style="stroke:#000000; stroke-linecap:round; stroke-linejoin:round; stroke-width:4; stroke-opacity:1; fill:none" points="262.551,445.89 281.449,445.89 "></polyline>
<polyline clip-path="url(#clip480)" style="stroke:#000000; stroke-linecap:round; stroke-linejoin:round; stroke-width:4; stroke-opacity:1; fill:none" points="262.551,257.904 281.449,257.904 "></polyline>
<path clip-path="url(#clip480)" d="M214.607 1371.62 Q210.996 1371.62 209.167 1375.18 Q207.362 1378.72 207.362 1385.85 Q207.362 1392.96 209.167 1396.52 Q210.996 1400.07 214.607 1400.07 Q218.241 1400.07 220.047 1396.52 Q221.875 1392.96 221.875 1385.85 Q221.875 1378.72 220.047 1375.18 Q218.241 1371.62 214.607 1371.62 M214.607 1367.91 Q220.417 1367.91 223.473 1372.52 Q226.551 1377.1 226.551 1385.85 Q226.551 1394.58 223.473 1399.19 Q220.417 1403.77 214.607 1403.77 Q208.797 1403.77 205.718 1399.19 Q202.662 1394.58 202.662 1385.85 Q202.662 1377.1 205.718 1372.52 Q208.797 1367.91 214.607 1367.91 Z" fill="#000000" fill-rule="nonzero" fill-opacity="1"></path><path clip-path="url(#clip480)" d="M148.311 1211.18 L164.63 1211.18 L164.63 1215.11 L142.686 1215.11 L142.686 1211.18 Q145.348 1208.42 149.931 1203.79 Q154.538 1199.14 155.718 1197.8 Q157.964 1195.27 158.843 1193.54 Q159.746 1191.78 159.746 1190.09 Q159.746 1187.33 157.802 1185.6 Q155.88 1183.86 152.778 1183.86 Q150.579 1183.86 148.126 1184.63 Q145.695 1185.39 142.917 1186.94 L142.917 1182.22 Q145.741 1181.08 148.195 1180.51 Q150.649 1179.93 152.686 1179.93 Q158.056 1179.93 161.251 1182.61 Q164.445 1185.3 164.445 1189.79 Q164.445 1191.92 163.635 1193.84 Q162.848 1195.74 160.741 1198.33 Q160.163 1199 157.061 1202.22 Q153.959 1205.41 148.311 1211.18 Z" fill="#000000" fill-rule="nonzero" fill-opacity="1"></path><path clip-path="url(#clip480)" d="M184.445 1183.63 Q180.834 1183.63 179.005 1187.2 Q177.2 1190.74 177.2 1197.87 Q177.2 1204.97 179.005 1208.54 Q180.834 1212.08 184.445 1212.08 Q188.079 1212.08 189.885 1208.54 Q191.713 1204.97 191.713 1197.87 Q191.713 1190.74 189.885 1187.2 Q188.079 1183.63 184.445 1183.63 M184.445 1179.93 Q190.255 1179.93 193.311 1184.53 Q196.389 1189.12 196.389 1197.87 Q196.389 1206.59 193.311 1211.2 Q190.255 1215.78 184.445 1215.78 Q178.635 1215.78 175.556 1211.2 Q172.501 1206.59 172.501 1197.87 Q172.501 1189.12 175.556 1184.53 Q178.635 1179.93 184.445 1179.93 Z" fill="#000000" fill-rule="nonzero" fill-opacity="1"></path><path clip-path="url(#clip480)" d="M214.607 1183.63 Q210.996 1183.63 209.167 1187.2 Q207.362 1190.74 207.362 1197.87 Q207.362 1204.97 209.167 1208.54 Q210.996 1212.08 214.607 1212.08 Q218.241 1212.08 220.047 1208.54 Q221.875 1204.97 221.875 1197.87 Q221.875 1190.74 220.047 1187.2 Q218.241 1183.63 214.607 1183.63 M214.607 1179.93 Q220.417 1179.93 223.473 1184.53 Q226.551 1189.12 226.551 1197.87 Q226.551 1206.59 223.473 1211.2 Q220.417 1215.78 214.607 1215.78 Q208.797 1215.78 205.718 1211.2 Q202.662 1206.59 202.662 1197.87 Q202.662 1189.12 205.718 1184.53 Q208.797 1179.93 214.607 1179.93 Z" fill="#000000" fill-rule="nonzero" fill-opacity="1"></path><path clip-path="url(#clip480)" d="M157.13 996.641 L145.325 1015.09 L157.13 1015.09 L157.13 996.641 M155.903 992.567 L161.783 992.567 L161.783 1015.09 L166.714 1015.09 L166.714 1018.98 L161.783 1018.98 L161.783 1027.13 L157.13 1027.13 L157.13 1018.98 L141.529 1018.98 L141.529 1014.46 L155.903 992.567 Z" fill="#000000" fill-rule="nonzero" fill-opacity="1"></path><path clip-path="url(#clip480)" d="M184.445 995.645 Q180.834 995.645 179.005 999.21 Q177.2 1002.75 177.2 1009.88 Q177.2 1016.99 179.005 1020.55 Q180.834 1024.09 184.445 1024.09 Q188.079 1024.09 189.885 1020.55 Q191.713 1016.99 191.713 1009.88 Q191.713 1002.75 189.885 999.21 Q188.079 995.645 184.445 995.645 M184.445 991.942 Q190.255 991.942 193.311 996.548 Q196.389 1001.13 196.389 1009.88 Q196.389 1018.61 193.311 1023.21 Q190.255 1027.8 184.445 1027.8 Q178.635 1027.8 175.556 1023.21 Q172.501 1018.61 172.501 1009.88 Q172.501 1001.13 175.556 996.548 Q178.635 991.942 184.445 991.942 Z" fill="#000000" fill-rule="nonzero" fill-opacity="1"></path><path clip-path="url(#clip480)" d="M214.607 995.645 Q210.996 995.645 209.167 999.21 Q207.362 1002.75 207.362 1009.88 Q207.362 1016.99 209.167 1020.55 Q210.996 1024.09 214.607 1024.09 Q218.241 1024.09 220.047 1020.55 Q221.875 1016.99 221.875 1009.88 Q221.875 1002.75 220.047 999.21 Q218.241 995.645 214.607 995.645 M214.607 991.942 Q220.417 991.942 223.473 996.548 Q226.551 1001.13 226.551 1009.88 Q226.551 1018.61 223.473 1023.21 Q220.417 1027.8 214.607 1027.8 Q208.797 1027.8 205.718 1023.21 Q202.662 1018.61 202.662 1009.88 Q202.662 1001.13 205.718 996.548 Q208.797 991.942 214.607 991.942 Z" fill="#000000" fill-rule="nonzero" fill-opacity="1"></path><path clip-path="url(#clip480)" d="M154.862 819.998 Q151.714 819.998 149.862 822.15 Q148.033 824.303 148.033 828.053 Q148.033 831.78 149.862 833.956 Q151.714 836.109 154.862 836.109 Q158.01 836.109 159.839 833.956 Q161.69 831.78 161.69 828.053 Q161.69 824.303 159.839 822.15 Q158.01 819.998 154.862 819.998 M164.144 805.345 L164.144 809.604 Q162.385 808.771 160.579 808.331 Q158.797 807.891 157.038 807.891 Q152.408 807.891 149.954 811.016 Q147.524 814.141 147.177 820.461 Q148.542 818.447 150.603 817.382 Q152.663 816.294 155.14 816.294 Q160.348 816.294 163.357 819.465 Q166.39 822.613 166.39 828.053 Q166.39 833.377 163.241 836.595 Q160.093 839.812 154.862 839.812 Q148.866 839.812 145.695 835.229 Q142.524 830.623 142.524 821.896 Q142.524 813.701 146.413 808.84 Q150.302 803.956 156.853 803.956 Q158.612 803.956 160.394 804.303 Q162.2 804.651 164.144 805.345 Z" fill="#000000" fill-rule="nonzero" fill-opacity="1"></path><path clip-path="url(#clip480)" d="M184.445 807.66 Q180.834 807.66 179.005 811.225 Q177.2 814.766 177.2 821.896 Q177.2 829.002 179.005 832.567 Q180.834 836.109 184.445 836.109 Q188.079 836.109 189.885 832.567 Q191.713 829.002 191.713 821.896 Q191.713 814.766 189.885 811.225 Q188.079 807.66 184.445 807.66 M184.445 803.956 Q190.255 803.956 193.311 808.563 Q196.389 813.146 196.389 821.896 Q196.389 830.623 193.311 835.229 Q190.255 839.812 184.445 839.812 Q178.635 839.812 175.556 835.229 Q172.501 830.623 172.501 821.896 Q172.501 813.146 175.556 808.563 Q178.635 803.956 184.445 803.956 Z" fill="#000000" fill-rule="nonzero" fill-opacity="1"></path><path clip-path="url(#clip480)" d="M214.607 807.66 Q210.996 807.66 209.167 811.225 Q207.362 814.766 207.362 821.896 Q207.362 829.002 209.167 832.567 Q210.996 836.109 214.607 836.109 Q218.241 836.109 220.047 832.567 Q221.875 829.002 221.875 821.896 Q221.875 814.766 220.047 811.225 Q218.241 807.66 214.607 807.66 M214.607 803.956 Q220.417 803.956 223.473 808.563 Q226.551 813.146 226.551 821.896 Q226.551 830.623 223.473 835.229 Q220.417 839.812 214.607 839.812 Q208.797 839.812 205.718 835.229 Q202.662 830.623 202.662 821.896 Q202.662 813.146 205.718 808.563 Q208.797 803.956 214.607 803.956 Z" fill="#000000" fill-rule="nonzero" fill-opacity="1"></path><path clip-path="url(#clip480)" d="M154.283 634.744 Q150.95 634.744 149.028 636.526 Q147.13 638.308 147.13 641.433 Q147.13 644.558 149.028 646.341 Q150.95 648.123 154.283 648.123 Q157.616 648.123 159.538 646.341 Q161.459 644.535 161.459 641.433 Q161.459 638.308 159.538 636.526 Q157.64 634.744 154.283 634.744 M149.607 632.753 Q146.598 632.012 144.908 629.952 Q143.241 627.892 143.241 624.929 Q143.241 620.785 146.181 618.378 Q149.144 615.971 154.283 615.971 Q159.445 615.971 162.385 618.378 Q165.325 620.785 165.325 624.929 Q165.325 627.892 163.635 629.952 Q161.968 632.012 158.982 632.753 Q162.362 633.54 164.237 635.832 Q166.135 638.123 166.135 641.433 Q166.135 646.456 163.056 649.142 Q160.001 651.827 154.283 651.827 Q148.566 651.827 145.487 649.142 Q142.431 646.456 142.431 641.433 Q142.431 638.123 144.329 635.832 Q146.228 633.54 149.607 632.753 M147.894 625.369 Q147.894 628.054 149.561 629.558 Q151.251 631.063 154.283 631.063 Q157.292 631.063 158.982 629.558 Q160.695 628.054 160.695 625.369 Q160.695 622.683 158.982 621.179 Q157.292 619.674 154.283 619.674 Q151.251 619.674 149.561 621.179 Q147.894 622.683 147.894 625.369 Z" fill="#000000" fill-rule="nonzero" fill-opacity="1"></path><path clip-path="url(#clip480)" d="M184.445 619.674 Q180.834 619.674 179.005 623.239 Q177.2 626.781 177.2 633.91 Q177.2 641.017 179.005 644.581 Q180.834 648.123 184.445 648.123 Q188.079 648.123 189.885 644.581 Q191.713 641.017 191.713 633.91 Q191.713 626.781 189.885 623.239 Q188.079 619.674 184.445 619.674 M184.445 615.971 Q190.255 615.971 193.311 620.577 Q196.389 625.16 196.389 633.91 Q196.389 642.637 193.311 647.243 Q190.255 651.827 184.445 651.827 Q178.635 651.827 175.556 647.243 Q172.501 642.637 172.501 633.91 Q172.501 625.16 175.556 620.577 Q178.635 615.971 184.445 615.971 Z" fill="#000000" fill-rule="nonzero" fill-opacity="1"></path><path clip-path="url(#clip480)" d="M214.607 619.674 Q210.996 619.674 209.167 623.239 Q207.362 626.781 207.362 633.91 Q207.362 641.017 209.167 644.581 Q210.996 648.123 214.607 648.123 Q218.241 648.123 220.047 644.581 Q221.875 641.017 221.875 633.91 Q221.875 626.781 220.047 623.239 Q218.241 619.674 214.607 619.674 M214.607 615.971 Q220.417 615.971 223.473 620.577 Q226.551 625.16 226.551 633.91 Q226.551 642.637 223.473 647.243 Q220.417 651.827 214.607 651.827 Q208.797 651.827 205.718 647.243 Q202.662 642.637 202.662 633.91 Q202.662 625.16 205.718 620.577 Q208.797 615.971 214.607 615.971 Z" fill="#000000" fill-rule="nonzero" fill-opacity="1"></path><path clip-path="url(#clip480)" d="M114.931 459.235 L122.57 459.235 L122.57 432.869 L114.26 434.536 L114.26 430.277 L122.524 428.61 L127.2 428.61 L127.2 459.235 L134.839 459.235 L134.839 463.17 L114.931 463.17 L114.931 459.235 Z" fill="#000000" fill-rule="nonzero" fill-opacity="1"></path><path clip-path="url(#clip480)" d="M154.283 431.689 Q150.672 431.689 148.843 435.253 Q147.038 438.795 147.038 445.925 Q147.038 453.031 148.843 456.596 Q150.672 460.137 154.283 460.137 Q157.917 460.137 159.723 456.596 Q161.552 453.031 161.552 445.925 Q161.552 438.795 159.723 435.253 Q157.917 431.689 154.283 431.689 M154.283 427.985 Q160.093 427.985 163.149 432.591 Q166.227 437.175 166.227 445.925 Q166.227 454.651 163.149 459.258 Q160.093 463.841 154.283 463.841 Q148.473 463.841 145.394 459.258 Q142.339 454.651 142.339 445.925 Q142.339 437.175 145.394 432.591 Q148.473 427.985 154.283 427.985 Z" fill="#000000" fill-rule="nonzero" fill-opacity="1"></path><path clip-path="url(#clip480)" d="M184.445 431.689 Q180.834 431.689 179.005 435.253 Q177.2 438.795 177.2 445.925 Q177.2 453.031 179.005 456.596 Q180.834 460.137 184.445 460.137 Q188.079 460.137 189.885 456.596 Q191.713 453.031 191.713 445.925 Q191.713 438.795 189.885 435.253 Q188.079 431.689 184.445 431.689 M184.445 427.985 Q190.255 427.985 193.311 432.591 Q196.389 437.175 196.389 445.925 Q196.389 454.651 193.311 459.258 Q190.255 463.841 184.445 463.841 Q178.635 463.841 175.556 459.258 Q172.501 454.651 172.501 445.925 Q172.501 437.175 175.556 432.591 Q178.635 427.985 184.445 427.985 Z" fill="#000000" fill-rule="nonzero" fill-opacity="1"></path><path clip-path="url(#clip480)" d="M214.607 431.689 Q210.996 431.689 209.167 435.253 Q207.362 438.795 207.362 445.925 Q207.362 453.031 209.167 456.596 Q210.996 460.137 214.607 460.137 Q218.241 460.137 220.047 456.596 Q221.875 453.031 221.875 445.925 Q221.875 438.795 220.047 435.253 Q218.241 431.689 214.607 431.689 M214.607 427.985 Q220.417 427.985 223.473 432.591 Q226.551 437.175 226.551 445.925 Q226.551 454.651 223.473 459.258 Q220.417 463.841 214.607 463.841 Q208.797 463.841 205.718 459.258 Q202.662 454.651 202.662 445.925 Q202.662 437.175 205.718 432.591 Q208.797 427.985 214.607 427.985 Z" fill="#000000" fill-rule="nonzero" fill-opacity="1"></path><path clip-path="url(#clip480)" d="M114.931 271.249 L122.57 271.249 L122.57 244.883 L114.26 246.55 L114.26 242.291 L122.524 240.624 L127.2 240.624 L127.2 271.249 L134.839 271.249 L134.839 275.184 L114.931 275.184 L114.931 271.249 Z" fill="#000000" fill-rule="nonzero" fill-opacity="1"></path><path clip-path="url(#clip480)" d="M148.311 271.249 L164.63 271.249 L164.63 275.184 L142.686 275.184 L142.686 271.249 Q145.348 268.494 149.931 263.865 Q154.538 259.212 155.718 257.87 Q157.964 255.346 158.843 253.61 Q159.746 251.851 159.746 250.161 Q159.746 247.407 157.802 245.671 Q155.88 243.934 152.778 243.934 Q150.579 243.934 148.126 244.698 Q145.695 245.462 142.917 247.013 L142.917 242.291 Q145.741 241.157 148.195 240.578 Q150.649 239.999 152.686 239.999 Q158.056 239.999 161.251 242.684 Q164.445 245.37 164.445 249.86 Q164.445 251.99 163.635 253.911 Q162.848 255.809 160.741 258.402 Q160.163 259.073 157.061 262.291 Q153.959 265.485 148.311 271.249 Z" fill="#000000" fill-rule="nonzero" fill-opacity="1"></path><path clip-path="url(#clip480)" d="M184.445 243.703 Q180.834 243.703 179.005 247.268 Q177.2 250.809 177.2 257.939 Q177.2 265.045 179.005 268.61 Q180.834 272.152 184.445 272.152 Q188.079 272.152 189.885 268.61 Q191.713 265.045 191.713 257.939 Q191.713 250.809 189.885 247.268 Q188.079 243.703 184.445 243.703 M184.445 239.999 Q190.255 239.999 193.311 244.606 Q196.389 249.189 196.389 257.939 Q196.389 266.666 193.311 271.272 Q190.255 275.856 184.445 275.856 Q178.635 275.856 175.556 271.272 Q172.501 266.666 172.501 257.939 Q172.501 249.189 175.556 244.606 Q178.635 239.999 184.445 239.999 Z" fill="#000000" fill-rule="nonzero" fill-opacity="1"></path><path clip-path="url(#clip480)" d="M214.607 243.703 Q210.996 243.703 209.167 247.268 Q207.362 250.809 207.362 257.939 Q207.362 265.045 209.167 268.61 Q210.996 272.152 214.607 272.152 Q218.241 272.152 220.047 268.61 Q221.875 265.045 221.875 257.939 Q221.875 250.809 220.047 247.268 Q218.241 243.703 214.607 243.703 M214.607 239.999 Q220.417 239.999 223.473 244.606 Q226.551 249.189 226.551 257.939 Q226.551 266.666 223.473 271.272 Q220.417 275.856 214.607 275.856 Q208.797 275.856 205.718 271.272 Q202.662 266.666 202.662 257.939 Q202.662 249.189 205.718 244.606 Q208.797 239.999 214.607 239.999 Z" fill="#000000" fill-rule="nonzero" fill-opacity="1"></path><path clip-path="url(#clip480)" d="M44.7161 911.525 L47.5806 911.525 L47.5806 938.452 Q53.6281 938.07 56.8109 934.824 Q59.9619 931.546 59.9619 925.721 Q59.9619 922.347 59.1344 919.196 Q58.3069 916.013 56.6518 912.894 L62.1899 912.894 Q63.5267 916.045 64.227 919.355 Q64.9272 922.665 64.9272 926.071 Q64.9272 934.601 59.9619 939.598 Q54.9967 944.563 46.5303 944.563 Q37.7774 944.563 32.6531 939.853 Q27.4968 935.11 27.4968 927.09 Q27.4968 919.896 32.1438 915.727 Q36.7589 911.525 44.7161 911.525 M42.9973 917.382 Q38.1912 917.446 35.3266 920.087 Q32.4621 922.697 32.4621 927.026 Q32.4621 931.928 35.2312 934.888 Q38.0002 937.816 43.0292 938.261 L42.9973 917.382 Z" fill="#000000" fill-rule="nonzero" fill-opacity="1"></path><path clip-path="url(#clip480)" d="M28.3562 873.427 L45.7028 886.317 L64.0042 872.758 L64.0042 879.665 L49.9996 890.041 L64.0042 900.417 L64.0042 907.324 L45.3526 893.479 L28.3562 906.146 L28.3562 899.24 L41.0558 889.787 L28.3562 880.334 L28.3562 873.427 Z" fill="#000000" fill-rule="nonzero" fill-opacity="1"></path><path clip-path="url(#clip480)" d="M58.657 858.817 L77.5631 858.817 L77.5631 864.706 L28.3562 864.706 L28.3562 858.817 L33.7671 858.817 Q30.5842 856.971 29.0564 854.17 Q27.4968 851.338 27.4968 847.423 Q27.4968 840.93 32.6531 836.888 Q37.8093 832.814 46.212 832.814 Q54.6147 832.814 59.771 836.888 Q64.9272 840.93 64.9272 847.423 Q64.9272 851.338 63.3994 854.17 Q61.8398 856.971 58.657 858.817 M46.212 838.893 Q39.7508 838.893 36.0905 841.566 Q32.3984 844.208 32.3984 848.855 Q32.3984 853.502 36.0905 856.176 Q39.7508 858.817 46.212 858.817 Q52.6732 858.817 56.3653 856.176 Q60.0256 853.502 60.0256 848.855 Q60.0256 844.208 56.3653 841.566 Q52.6732 838.893 46.212 838.893 Z" fill="#000000" fill-rule="nonzero" fill-opacity="1"></path><path clip-path="url(#clip480)" d="M33.8307 802.449 Q33.2578 803.436 33.0032 804.613 Q32.7167 805.759 32.7167 807.16 Q32.7167 812.125 35.9632 814.799 Q39.1779 817.44 45.2253 817.44 L64.0042 817.44 L64.0042 823.329 L28.3562 823.329 L28.3562 817.44 L33.8944 817.44 Q30.6479 815.594 29.0883 812.634 Q27.4968 809.674 27.4968 805.441 Q27.4968 804.836 27.5923 804.104 Q27.656 803.372 27.8151 802.481 L33.8307 802.449 Z" fill="#000000" fill-rule="nonzero" fill-opacity="1"></path><path clip-path="url(#clip480)" d="M44.7161 767.247 L47.5806 767.247 L47.5806 794.174 Q53.6281 793.792 56.8109 790.545 Q59.9619 787.267 59.9619 781.442 Q59.9619 778.068 59.1344 774.917 Q58.3069 771.735 56.6518 768.615 L62.1899 768.615 Q63.5267 771.766 64.227 775.077 Q64.9272 778.387 64.9272 781.792 Q64.9272 790.322 59.9619 795.32 Q54.9967 800.285 46.5303 800.285 Q37.7774 800.285 32.6531 795.574 Q27.4968 790.832 27.4968 782.811 Q27.4968 775.618 32.1438 771.448 Q36.7589 767.247 44.7161 767.247 M42.9973 773.103 Q38.1912 773.167 35.3266 775.809 Q32.4621 778.419 32.4621 782.747 Q32.4621 787.649 35.2312 790.609 Q38.0002 793.537 43.0292 793.983 L42.9973 773.103 Z" fill="#000000" fill-rule="nonzero" fill-opacity="1"></path><path clip-path="url(#clip480)" d="M29.4065 734.909 L34.9447 734.909 Q33.6716 737.392 33.035 740.065 Q32.3984 742.739 32.3984 745.603 Q32.3984 749.964 33.7352 752.16 Q35.072 754.324 37.7456 754.324 Q39.7826 754.324 40.9603 752.765 Q42.1061 751.205 43.1565 746.495 L43.6021 744.489 Q44.9389 738.251 47.3897 735.641 Q49.8086 732.999 54.1691 732.999 Q59.1344 732.999 62.0308 736.946 Q64.9272 740.861 64.9272 747.736 Q64.9272 750.6 64.3543 753.72 Q63.8132 756.807 62.6992 760.244 L56.6518 760.244 Q58.3387 756.998 59.198 753.847 Q60.0256 750.696 60.0256 747.609 Q60.0256 743.471 58.6251 741.243 Q57.1929 739.015 54.6147 739.015 Q52.2276 739.015 50.9545 740.638 Q49.6813 742.23 48.5037 747.672 L48.0262 749.709 Q46.8804 755.152 44.5251 757.571 Q42.138 759.99 38.0002 759.99 Q32.9713 759.99 30.2341 756.425 Q27.4968 752.86 27.4968 746.304 Q27.4968 743.057 27.9743 740.192 Q28.4517 737.328 29.4065 734.909 Z" fill="#000000" fill-rule="nonzero" fill-opacity="1"></path><path clip-path="url(#clip480)" d="M29.4065 700.948 L34.9447 700.948 Q33.6716 703.431 33.035 706.104 Q32.3984 708.778 32.3984 711.642 Q32.3984 716.003 33.7352 718.199 Q35.072 720.363 37.7456 720.363 Q39.7826 720.363 40.9603 718.804 Q42.1061 717.244 43.1565 712.533 L43.6021 710.528 Q44.9389 704.29 47.3897 701.68 Q49.8086 699.038 54.1691 699.038 Q59.1344 699.038 62.0308 702.985 Q64.9272 706.9 64.9272 713.775 Q64.9272 716.639 64.3543 719.759 Q63.8132 722.846 62.6992 726.283 L56.6518 726.283 Q58.3387 723.037 59.198 719.886 Q60.0256 716.735 60.0256 713.647 Q60.0256 709.51 58.6251 707.282 Q57.1929 705.054 54.6147 705.054 Q52.2276 705.054 50.9545 706.677 Q49.6813 708.268 48.5037 713.711 L48.0262 715.748 Q46.8804 721.191 44.5251 723.61 Q42.138 726.029 38.0002 726.029 Q32.9713 726.029 30.2341 722.464 Q27.4968 718.899 27.4968 712.343 Q27.4968 709.096 27.9743 706.231 Q28.4517 703.367 29.4065 700.948 Z" fill="#000000" fill-rule="nonzero" fill-opacity="1"></path><path clip-path="url(#clip480)" d="M28.3562 689.712 L28.3562 683.856 L64.0042 683.856 L64.0042 689.712 L28.3562 689.712 M14.479 689.712 L14.479 683.856 L21.895 683.856 L21.895 689.712 L14.479 689.712 Z" fill="#000000" fill-rule="nonzero" fill-opacity="1"></path><path clip-path="url(#clip480)" d="M32.4621 657.788 Q32.4621 662.499 36.1542 665.236 Q39.8145 667.974 46.212 667.974 Q52.6095 667.974 56.3017 665.268 Q59.9619 662.531 59.9619 657.788 Q59.9619 653.11 56.2698 650.372 Q52.5777 647.635 46.212 647.635 Q39.8781 647.635 36.186 650.372 Q32.4621 653.11 32.4621 657.788 M27.4968 657.788 Q27.4968 650.15 32.4621 645.789 Q37.4273 641.429 46.212 641.429 Q54.9649 641.429 59.9619 645.789 Q64.9272 650.15 64.9272 657.788 Q64.9272 665.459 59.9619 669.82 Q54.9649 674.148 46.212 674.148 Q37.4273 674.148 32.4621 669.82 Q27.4968 665.459 27.4968 657.788 Z" fill="#000000" fill-rule="nonzero" fill-opacity="1"></path><path clip-path="url(#clip480)" d="M42.4881 602.088 L64.0042 602.088 L64.0042 607.945 L42.679 607.945 Q37.6183 607.945 35.1038 609.918 Q32.5894 611.892 32.5894 615.838 Q32.5894 620.581 35.6131 623.318 Q38.6368 626.055 43.8567 626.055 L64.0042 626.055 L64.0042 631.944 L28.3562 631.944 L28.3562 626.055 L33.8944 626.055 Q30.6797 623.955 29.0883 621.122 Q27.4968 618.257 27.4968 614.533 Q27.4968 608.391 31.3163 605.24 Q35.1038 602.088 42.4881 602.088 Z" fill="#000000" fill-rule="nonzero" fill-opacity="1"></path><path clip-path="url(#clip480)" d="M899.221 65.6895 L927.78 65.6895 L927.78 72.576 L889.377 72.576 L889.377 65.6895 Q894.036 60.8689 902.057 52.7671 Q910.118 44.6248 912.184 42.2752 Q916.113 37.8598 917.653 34.8216 Q919.233 31.7429 919.233 28.7857 Q919.233 23.9651 915.83 20.927 Q912.468 17.8888 907.039 17.8888 Q903.191 17.8888 898.897 19.2256 Q894.644 20.5624 889.783 23.2765 L889.783 15.0127 Q894.725 13.0277 899.019 12.015 Q903.313 11.0023 906.877 11.0023 Q916.275 11.0023 921.866 15.7013 Q927.456 20.4004 927.456 28.2591 Q927.456 31.9859 926.038 35.3482 Q924.661 38.6699 920.975 43.2069 Q919.962 44.3817 914.534 50.0125 Q909.105 55.6027 899.221 65.6895 Z" fill="#000000" fill-rule="nonzero" fill-opacity="1"></path><path clip-path="url(#clip480)" d="M987.855 32.4315 Q981.86 32.4315 978.376 37.1306 Q974.892 41.7891 974.892 49.9314 Q974.892 58.0738 978.335 62.7728 Q981.819 67.4314 987.855 67.4314 Q993.81 67.4314 997.294 62.7323 Q1000.78 58.0333 1000.78 49.9314 Q1000.78 41.8701 997.294 37.1711 Q993.81 32.4315 987.855 32.4315 M987.855 26.1121 Q997.577 26.1121 1003.13 32.4315 Q1008.68 38.7509 1008.68 49.9314 Q1008.68 61.0714 1003.13 67.4314 Q997.577 73.7508 987.855 73.7508 Q978.092 73.7508 972.543 67.4314 Q967.033 61.0714 967.033 49.9314 Q967.033 38.7509 972.543 32.4315 Q978.092 26.1121 987.855 26.1121 Z" fill="#000000" fill-rule="nonzero" fill-opacity="1"></path><path clip-path="url(#clip480)" d="M1049.96 28.5427 L1049.96 35.5912 Q1046.8 33.9709 1043.39 33.1607 Q1039.99 32.3505 1036.34 32.3505 Q1030.79 32.3505 1028 34.0519 Q1025.24 35.7533 1025.24 39.156 Q1025.24 41.7486 1027.23 43.2475 Q1029.21 44.7058 1035.21 46.0426 L1037.76 46.6097 Q1045.7 48.3111 1049.02 51.4303 Q1052.39 54.509 1052.39 60.0587 Q1052.39 66.3781 1047.36 70.0644 Q1042.38 73.7508 1033.63 73.7508 Q1029.98 73.7508 1026.01 73.0216 Q1022.09 72.3329 1017.71 70.9151 L1017.71 63.2184 Q1021.84 65.3654 1025.85 66.4591 Q1029.86 67.5124 1033.79 67.5124 Q1039.06 67.5124 1041.89 65.73 Q1044.73 63.9071 1044.73 60.6258 Q1044.73 57.5877 1042.66 55.9673 Q1040.64 54.3469 1033.71 52.8481 L1031.12 52.2405 Q1024.19 50.7821 1021.11 47.7845 Q1018.03 44.7463 1018.03 39.4801 Q1018.03 33.0797 1022.57 29.5959 Q1027.11 26.1121 1035.45 26.1121 Q1039.58 26.1121 1043.23 26.7198 Q1046.88 27.3274 1049.96 28.5427 Z" fill="#000000" fill-rule="nonzero" fill-opacity="1"></path><path clip-path="url(#clip480)" d="M1096.91 28.9478 L1096.91 35.9153 Q1093.75 34.1734 1090.55 33.3227 Q1087.39 32.4315 1084.14 32.4315 Q1076.89 32.4315 1072.88 37.0496 Q1068.87 41.6271 1068.87 49.9314 Q1068.87 58.2358 1072.88 62.8538 Q1076.89 67.4314 1084.14 67.4314 Q1087.39 67.4314 1090.55 66.5807 Q1093.75 65.6895 1096.91 63.9476 L1096.91 70.8341 Q1093.79 72.2924 1090.42 73.0216 Q1087.1 73.7508 1083.33 73.7508 Q1073.09 73.7508 1067.05 67.3098 Q1061.01 60.8689 1061.01 49.9314 Q1061.01 38.832 1067.09 32.472 Q1073.21 26.1121 1083.82 26.1121 Q1087.26 26.1121 1090.55 26.8413 Q1093.83 27.5299 1096.91 28.9478 Z" fill="#000000" fill-rule="nonzero" fill-opacity="1"></path><path clip-path="url(#clip480)" d="M1109.87 27.2059 L1117.32 27.2059 L1117.32 72.576 L1109.87 72.576 L1109.87 27.2059 M1109.87 9.54393 L1117.32 9.54393 L1117.32 18.9825 L1109.87 18.9825 L1109.87 9.54393 Z" fill="#000000" fill-rule="nonzero" fill-opacity="1"></path><path clip-path="url(#clip480)" d="M1132.92 9.54393 L1140.37 9.54393 L1140.37 72.576 L1132.92 72.576 L1132.92 9.54393 Z" fill="#000000" fill-rule="nonzero" fill-opacity="1"></path><path clip-path="url(#clip480)" d="M1176.59 49.7694 Q1167.55 49.7694 1164.07 51.8354 Q1160.59 53.9013 1160.59 58.8839 Q1160.59 62.8538 1163.18 65.2034 Q1165.81 67.5124 1170.31 67.5124 Q1176.51 67.5124 1180.23 63.1374 Q1184 58.7219 1184 51.4303 L1184 49.7694 L1176.59 49.7694 M1191.45 46.6907 L1191.45 72.576 L1184 72.576 L1184 65.6895 Q1181.45 69.8214 1177.64 71.8063 Q1173.83 73.7508 1168.32 73.7508 Q1161.36 73.7508 1157.22 69.8619 Q1153.13 65.9325 1153.13 59.3701 Q1153.13 51.7138 1158.24 47.825 Q1163.38 43.9361 1173.55 43.9361 L1184 43.9361 L1184 43.2069 Q1184 38.0623 1180.6 35.2672 Q1177.23 32.4315 1171.12 32.4315 Q1167.23 32.4315 1163.54 33.3632 Q1159.86 34.295 1156.45 36.1584 L1156.45 29.2718 Q1160.54 27.692 1164.39 26.9223 Q1168.24 26.1121 1171.89 26.1121 Q1181.73 26.1121 1186.59 31.2163 Q1191.45 36.3204 1191.45 46.6907 Z" fill="#000000" fill-rule="nonzero" fill-opacity="1"></path><path clip-path="url(#clip480)" d="M1214.18 14.324 L1214.18 27.2059 L1229.53 27.2059 L1229.53 32.9987 L1214.18 32.9987 L1214.18 57.6282 Q1214.18 63.1779 1215.68 64.7578 Q1217.22 66.3376 1221.88 66.3376 L1229.53 66.3376 L1229.53 72.576 L1221.88 72.576 Q1213.25 72.576 1209.97 69.3758 Q1206.68 66.1351 1206.68 57.6282 L1206.68 32.9987 L1201.22 32.9987 L1201.22 27.2059 L1206.68 27.2059 L1206.68 14.324 L1214.18 14.324 Z" fill="#000000" fill-rule="nonzero" fill-opacity="1"></path><path clip-path="url(#clip480)" d="M1239.34 27.2059 L1246.79 27.2059 L1246.79 72.576 L1239.34 72.576 L1239.34 27.2059 M1239.34 9.54393 L1246.79 9.54393 L1246.79 18.9825 L1239.34 18.9825 L1239.34 9.54393 Z" fill="#000000" fill-rule="nonzero" fill-opacity="1"></path><path clip-path="url(#clip480)" d="M1279.97 32.4315 Q1273.97 32.4315 1270.49 37.1306 Q1267 41.7891 1267 49.9314 Q1267 58.0738 1270.45 62.7728 Q1273.93 67.4314 1279.97 67.4314 Q1285.92 67.4314 1289.4 62.7323 Q1292.89 58.0333 1292.89 49.9314 Q1292.89 41.8701 1289.4 37.1711 Q1285.92 32.4315 1279.97 32.4315 M1279.97 26.1121 Q1289.69 26.1121 1295.24 32.4315 Q1300.79 38.7509 1300.79 49.9314 Q1300.79 61.0714 1295.24 67.4314 Q1289.69 73.7508 1279.97 73.7508 Q1270.2 73.7508 1264.65 67.4314 Q1259.14 61.0714 1259.14 49.9314 Q1259.14 38.7509 1264.65 32.4315 Q1270.2 26.1121 1279.97 26.1121 Z" fill="#000000" fill-rule="nonzero" fill-opacity="1"></path><path clip-path="url(#clip480)" d="M1350.86 45.1919 L1350.86 72.576 L1343.4 72.576 L1343.4 45.4349 Q1343.4 38.994 1340.89 35.7938 Q1338.38 32.5936 1333.36 32.5936 Q1327.32 32.5936 1323.84 36.4419 Q1320.35 40.2903 1320.35 46.9338 L1320.35 72.576 L1312.86 72.576 L1312.86 27.2059 L1320.35 27.2059 L1320.35 34.2544 Q1323.03 30.163 1326.63 28.1376 Q1330.28 26.1121 1335.02 26.1121 Q1342.84 26.1121 1346.85 30.9732 Q1350.86 35.7938 1350.86 45.1919 Z" fill="#000000" fill-rule="nonzero" fill-opacity="1"></path><path clip-path="url(#clip480)" d="M1394.65 28.5427 L1394.65 35.5912 Q1391.49 33.9709 1388.08 33.1607 Q1384.68 32.3505 1381.04 32.3505 Q1375.49 32.3505 1372.69 34.0519 Q1369.94 35.7533 1369.94 39.156 Q1369.94 41.7486 1371.92 43.2475 Q1373.91 44.7058 1379.9 46.0426 L1382.45 46.6097 Q1390.39 48.3111 1393.72 51.4303 Q1397.08 54.509 1397.08 60.0587 Q1397.08 66.3781 1392.05 70.0644 Q1387.07 73.7508 1378.32 73.7508 Q1374.68 73.7508 1370.71 73.0216 Q1366.78 72.3329 1362.4 70.9151 L1362.4 63.2184 Q1366.53 65.3654 1370.54 66.4591 Q1374.55 67.5124 1378.48 67.5124 Q1383.75 67.5124 1386.59 65.73 Q1389.42 63.9071 1389.42 60.6258 Q1389.42 57.5877 1387.36 55.9673 Q1385.33 54.3469 1378.4 52.8481 L1375.81 52.2405 Q1368.88 50.7821 1365.8 47.7845 Q1362.73 44.7463 1362.73 39.4801 Q1362.73 33.0797 1367.26 29.5959 Q1371.8 26.1121 1380.14 26.1121 Q1384.28 26.1121 1387.92 26.7198 Q1391.57 27.3274 1394.65 28.5427 Z" fill="#000000" fill-rule="nonzero" fill-opacity="1"></path><path clip-path="url(#clip480)" d="M1465.17 34.0924 L1465.17 9.54393 L1472.63 9.54393 L1472.63 72.576 L1465.17 72.576 L1465.17 65.7705 Q1462.82 69.8214 1459.22 71.8063 Q1455.65 73.7508 1450.63 73.7508 Q1442.41 73.7508 1437.22 67.1883 Q1432.08 60.6258 1432.08 49.9314 Q1432.08 39.2371 1437.22 32.6746 Q1442.41 26.1121 1450.63 26.1121 Q1455.65 26.1121 1459.22 28.0971 Q1462.82 30.0415 1465.17 34.0924 M1439.77 49.9314 Q1439.77 58.1548 1443.14 62.8538 Q1446.54 67.5124 1452.45 67.5124 Q1458.37 67.5124 1461.77 62.8538 Q1465.17 58.1548 1465.17 49.9314 Q1465.17 41.7081 1461.77 37.0496 Q1458.37 32.3505 1452.45 32.3505 Q1446.54 32.3505 1443.14 37.0496 Q1439.77 41.7081 1439.77 49.9314 Z" fill="#000000" fill-rule="nonzero" fill-opacity="1"></path><path clip-path="url(#clip480)" d="M1526.79 48.0275 L1526.79 51.6733 L1492.52 51.6733 Q1493 59.3701 1497.13 63.421 Q1501.31 67.4314 1508.72 67.4314 Q1513.01 67.4314 1517.02 66.3781 Q1521.08 65.3249 1525.05 63.2184 L1525.05 70.267 Q1521.03 71.9684 1516.82 72.8596 Q1512.61 73.7508 1508.27 73.7508 Q1497.42 73.7508 1491.06 67.4314 Q1484.74 61.1119 1484.74 50.3365 Q1484.74 39.1965 1490.73 32.6746 Q1496.77 26.1121 1506.98 26.1121 Q1516.13 26.1121 1521.44 32.0264 Q1526.79 37.9003 1526.79 48.0275 M1519.33 45.84 Q1519.25 39.7232 1515.89 36.0774 Q1512.57 32.4315 1507.06 32.4315 Q1500.82 32.4315 1497.05 35.9558 Q1493.33 39.4801 1492.76 45.8805 L1519.33 45.84 Z" fill="#000000" fill-rule="nonzero" fill-opacity="1"></path><path clip-path="url(#clip480)" d="M1567.94 28.5427 L1567.94 35.5912 Q1564.78 33.9709 1561.38 33.1607 Q1557.98 32.3505 1554.33 32.3505 Q1548.78 32.3505 1545.99 34.0519 Q1543.23 35.7533 1543.23 39.156 Q1543.23 41.7486 1545.22 43.2475 Q1547.2 44.7058 1553.2 46.0426 L1555.75 46.6097 Q1563.69 48.3111 1567.01 51.4303 Q1570.37 54.509 1570.37 60.0587 Q1570.37 66.3781 1565.35 70.0644 Q1560.37 73.7508 1551.62 73.7508 Q1547.97 73.7508 1544 73.0216 Q1540.07 72.3329 1535.7 70.9151 L1535.7 63.2184 Q1539.83 65.3654 1543.84 66.4591 Q1547.85 67.5124 1551.78 67.5124 Q1557.05 67.5124 1559.88 65.73 Q1562.72 63.9071 1562.72 60.6258 Q1562.72 57.5877 1560.65 55.9673 Q1558.63 54.3469 1551.7 52.8481 L1549.11 52.2405 Q1542.18 50.7821 1539.1 47.7845 Q1536.02 44.7463 1536.02 39.4801 Q1536.02 33.0797 1540.56 29.5959 Q1545.1 26.1121 1553.44 26.1121 Q1557.57 26.1121 1561.22 26.7198 Q1564.87 27.3274 1567.94 28.5427 Z" fill="#000000" fill-rule="nonzero" fill-opacity="1"></path><path clip-path="url(#clip480)" d="M1582.24 27.2059 L1589.7 27.2059 L1589.7 72.576 L1582.24 72.576 L1582.24 27.2059 M1582.24 9.54393 L1589.7 9.54393 L1589.7 18.9825 L1582.24 18.9825 L1582.24 9.54393 Z" fill="#000000" fill-rule="nonzero" fill-opacity="1"></path><path clip-path="url(#clip480)" d="M1631.58 34.1734 Q1630.33 33.4443 1628.83 33.1202 Q1627.37 32.7556 1625.59 32.7556 Q1619.27 32.7556 1615.87 36.8875 Q1612.5 40.9789 1612.5 48.6757 L1612.5 72.576 L1605.01 72.576 L1605.01 27.2059 L1612.5 27.2059 L1612.5 34.2544 Q1614.85 30.1225 1618.62 28.1376 Q1622.39 26.1121 1627.78 26.1121 Q1628.55 26.1121 1629.48 26.2337 Q1630.41 26.3147 1631.54 26.5172 L1631.58 34.1734 Z" fill="#000000" fill-rule="nonzero" fill-opacity="1"></path><path clip-path="url(#clip480)" d="M1676.39 48.0275 L1676.39 51.6733 L1642.12 51.6733 Q1642.6 59.3701 1646.73 63.421 Q1650.91 67.4314 1658.32 67.4314 Q1662.61 67.4314 1666.62 66.3781 Q1670.68 65.3249 1674.65 63.2184 L1674.65 70.267 Q1670.63 71.9684 1666.42 72.8596 Q1662.21 73.7508 1657.87 73.7508 Q1647.02 73.7508 1640.66 67.4314 Q1634.34 61.1119 1634.34 50.3365 Q1634.34 39.1965 1640.33 32.6746 Q1646.37 26.1121 1656.58 26.1121 Q1665.73 26.1121 1671.04 32.0264 Q1676.39 37.9003 1676.39 48.0275 M1668.93 45.84 Q1668.85 39.7232 1665.49 36.0774 Q1662.17 32.4315 1656.66 32.4315 Q1650.42 32.4315 1646.65 35.9558 Q1642.93 39.4801 1642.36 45.8805 L1668.93 45.84 Z" fill="#000000" fill-rule="nonzero" fill-opacity="1"></path><path clip-path="url(#clip480)" d="M1718.48 34.0924 L1718.48 9.54393 L1725.93 9.54393 L1725.93 72.576 L1718.48 72.576 L1718.48 65.7705 Q1716.13 69.8214 1712.52 71.8063 Q1708.96 73.7508 1703.93 73.7508 Q1695.71 73.7508 1690.52 67.1883 Q1685.38 60.6258 1685.38 49.9314 Q1685.38 39.2371 1690.52 32.6746 Q1695.71 26.1121 1703.93 26.1121 Q1708.96 26.1121 1712.52 28.0971 Q1716.13 30.0415 1718.48 34.0924 M1693.08 49.9314 Q1693.08 58.1548 1696.44 62.8538 Q1699.84 67.5124 1705.76 67.5124 Q1711.67 67.5124 1715.07 62.8538 Q1718.48 58.1548 1718.48 49.9314 Q1718.48 41.7081 1715.07 37.0496 Q1711.67 32.3505 1705.76 32.3505 Q1699.84 32.3505 1696.44 37.0496 Q1693.08 41.7081 1693.08 49.9314 Z" fill="#000000" fill-rule="nonzero" fill-opacity="1"></path><polyline clip-path="url(#clip482)" style="stroke:#009af9; stroke-linecap:round; stroke-linejoin:round; stroke-width:4; stroke-opacity:1; fill:none" points="321.708,1382.26 323.68,1382.82 325.652,1383.04 327.624,1383.05 329.596,1383.48 331.567,1383.14 333.539,1383.59 335.511,1384.1 337.483,1383.95 339.455,1384.2 341.427,1384.29 343.399,1384 345.371,1384.04 347.343,1384.31 349.314,1384.01 351.286,1384.62 353.258,1385 355.23,1385.04 357.202,1385.05 359.174,1384.63 361.146,1384.78 363.118,1384.93 365.09,1385.09 367.061,1385.33 369.033,1385.45 371.005,1385.44 372.977,1385.38 374.949,1385.43 376.921,1385.51 378.893,1385.56 380.865,1385.53 382.837,1385.47 384.808,1385.51 386.78,1385.44 388.752,1385.46 390.724,1385.47 392.696,1385.43 394.668,1385.36 396.64,1385.25 398.612,1385.3 400.584,1385.19 402.555,1385.19 404.527,1385.48 406.499,1385.53 408.471,1385.39 410.443,1385.18 412.415,1385.23 414.387,1385.08 416.359,1385.34 418.331,1385.51 420.303,1385.66 422.274,1385.7 424.246,1385.66 426.218,1385.7 428.19,1385.73 430.162,1385.71 432.134,1385.85 434.106,1385.87 436.078,1385.82 438.05,1385.79 440.021,1385.73 441.993,1385.74 443.965,1385.76 445.937,1385.8 447.909,1385.85 449.881,1385.92 451.853,1385.87 453.825,1385.84 455.797,1385.84 457.768,1385.79 459.74,1385.75 461.712,1385.74 463.684,1385.73 465.656,1385.74 467.628,1385.83 469.6,1385.83 471.572,1385.87 473.544,1385.96 475.515,1385.97 477.487,1385.92 479.459,1385.96 481.431,1385.81 483.403,1385.9 485.375,1385.98 487.347,1385.88 489.319,1385.96 491.291,1386.15 493.262,1386.13 495.234,1386.37 497.206,1386.37 499.178,1386.12 501.15,1385.92 503.122,1386.07 505.094,1386.04 507.066,1386.1 509.038,1385.89 511.01,1385.91 512.981,1385.81 514.953,1385.74 516.925,1385.86 518.897,1385.72 520.869,1385.71 522.841,1386.05 524.813,1385.76 526.785,1385.71 528.757,1386.16 530.728,1386.4 532.7,1386.2 534.672,1385.61 536.644,1384.57 538.616,1383.62 540.588,1383.34 542.56,1381.79 544.532,1380.58 546.504,1377.58 548.475,1376.37 550.447,1374.95 552.419,1371.88 554.391,1371.57 556.363,1370.27 558.335,1369.26 560.307,1367.2 562.279,1366.08 564.251,1358.94 566.222,1352.96 568.194,1346.49 570.166,1340.02 572.138,1318.07 574.11,1310.17 576.082,1303.04 578.054,1292.47 580.026,1263.65 581.998,1232.88 583.969,1197.38 585.941,1166.16 587.913,1121.67 589.885,1083.92 591.857,1044.45 593.829,1001.37 595.801,969.988 597.773,937.452 599.745,899.06 601.717,862.896 603.688,830.266 605.66,824.538 607.632,797.447 609.604,780.462 611.576,758.004 613.548,731.774 615.52,713.708 617.492,693.413 619.464,676.859 621.435,665.32 623.407,630.452 625.379,604.746 627.351,582.521 629.323,556.492 631.295,524.052 633.267,524.757 635.239,501.775 637.211,485.633 639.182,477.124 641.154,472.326 643.126,450.222 645.098,432.709 647.07,417.515 649.042,411.695 651.014,400.056 652.986,374.397 654.958,363.256 656.929,353.338 658.901,352.726 660.873,331.633 662.845,317.633 664.817,302.521 666.789,288.144 668.761,282.22 670.733,268.617 672.705,261.855 674.676,255.189 676.648,265.952 678.62,247.925 680.592,237.181 682.564,220.206 684.536,211.278 686.508,211.351 688.48,209.583 690.452,200.509 692.424,184.264 694.395,200.257 696.367,196.263 698.339,198.958 700.311,201.436 702.283,201.185 704.255,202.521 706.227,207.439 708.199,201.189 710.171,216.222 712.142,201.814 714.114,202.766 716.086,210.436 718.058,224.042 720.03,217.354 722.002,199.679 723.974,201.77 725.946,200.552 727.918,217.103 729.889,222.346 731.861,218.456 733.833,216.836 735.805,217.393 737.777,215.771 739.749,210.195 741.721,216.504 743.693,223.408 745.665,221.337 747.636,219.373 749.608,196.708 751.58,180.475 753.552,172.778 755.524,172.011 757.496,187.535 759.468,172.619 761.44,172.152 763.412,160.256 765.383,179.749 767.355,203.634 769.327,234.576 771.299,286.338 773.271,340.765 775.243,382.847 777.215,421.263 779.187,452.436 781.159,501.761 783.131,543.959 785.102,588.941 787.074,623.513 789.046,645.516 791.018,682.225 792.99,714.893 794.962,745.636 796.934,781.528 798.906,809.947 800.878,826.142 802.849,853.614 804.821,878.345 806.793,904.394 808.765,932.449 810.737,951.513 812.709,976.452 814.681,991.68 816.653,1009.44 818.625,1025.91 820.596,1037.62 822.568,1054.88 824.54,1071.35 826.512,1085.38 828.484,1103.73 830.456,1119.89 832.428,1132.9 834.4,1147.5 836.372,1162.83 838.343,1172.64 840.315,1185.8 842.287,1197.22 844.259,1210.9 846.231,1221.84 848.203,1232.19 850.175,1240.8 852.147,1251.49 854.119,1259 856.09,1261.17 858.062,1264.36 860.034,1270.71 862.006,1278.82 863.978,1283.27 865.95,1286.84 867.922,1290.2 869.894,1294.46 871.866,1299.71 873.837,1300.36 875.809,1305.86 877.781,1309.07 879.753,1315.02 881.725,1317.31 883.697,1319.99 885.669,1321.34 887.641,1325.1 889.613,1325.93 891.585,1329.81 893.556,1333.13 895.528,1333.85 897.5,1335.85 899.472,1338.41 901.444,1341.22 903.416,1345.11 905.388,1345.38 907.36,1346.04 909.332,1347.16 911.303,1348.24 913.275,1350.77 915.247,1351.81 917.219,1352.42 919.191,1353.14 921.163,1354.97 923.135,1355.11 925.107,1357.16 927.079,1360.8 929.05,1362.07 931.022,1364.43 932.994,1365.49 934.966,1366.28 936.938,1365.93 938.91,1367.53 940.882,1368.8 942.854,1368.96 944.826,1369.24 946.797,1370.65 948.769,1370.62 950.741,1372.53 952.713,1373.89 954.685,1375.06 956.657,1376.45 958.629,1376.48 960.601,1377.17 962.573,1378.01 964.544,1378.24 966.516,1378.19 968.488,1379.11 970.46,1379.22 972.432,1379.12 974.404,1379.41 976.376,1379.46 978.348,1379.45 980.32,1379.97 982.292,1379.51 984.263,1379.91 986.235,1379.86 988.207,1381.09 990.179,1381.24 992.151,1382.04 994.123,1382.21 996.095,1382.44 998.067,1382.32 1000.04,1383.31 1002.01,1383.52 1003.98,1383.47 1005.95,1383.83 1007.93,1383.98 1009.9,1384.58 1011.87,1384.16 1013.84,1383.62 1015.81,1383.73 1017.79,1383.59 1019.76,1384.18 1021.73,1383.97 1023.7,1383.8 1025.67,1384.44 1027.65,1384.38 1029.62,1384.46 1031.59,1384.91 1033.56,1385.02 1035.53,1384.95 1037.5,1385.23 1039.48,1385.35 1041.45,1385.43 1043.42,1385.47 1045.39,1385.28 1047.36,1385.27 1049.34,1385.36 1051.31,1385.4 1053.28,1385.35 1055.25,1385.32 1057.22,1384.94 1059.2,1385.33 1061.17,1385.6 1063.14,1385.6 1065.11,1385.54 1067.08,1385.47 1069.05,1385.44 1071.03,1385.52 1073,1385.6 1074.97,1385.61 1076.94,1385.6 1078.91,1385.57 1080.89,1385.6 1082.86,1385.54 1084.83,1385.61 1086.8,1385.62 1088.77,1385.71 1090.75,1385.72 1092.72,1385.77 1094.69,1385.78 1096.66,1385.75 1098.63,1385.71 1100.6,1385.86 1102.58,1385.82 1104.55,1385.81 1106.52,1385.8 1108.49,1385.77 1110.46,1385.75 1112.44,1385.57 1114.41,1385.64 1116.38,1385.71 1118.35,1385.79 1120.32,1385.77 1122.3,1385.83 1124.27,1385.81 1126.24,1385.86 1128.21,1385.84 1130.18,1385.84 1132.16,1385.86 1134.13,1385.78 1136.1,1385.76 1138.07,1385.81 1140.04,1385.81 1142.01,1385.76 1143.99,1385.86 1145.96,1385.87 1147.93,1385.77 1149.9,1385.77 1151.87,1385.85 1153.85,1385.81 1155.82,1385.83 1157.79,1385.67 1159.76,1385.46 1161.73,1385.41 1163.71,1385.52 1165.68,1385.65 1167.65,1385.63 1169.62,1385.67 1171.59,1385.61 1173.56,1385.47 1175.54,1385.78 1177.51,1385.6 1179.48,1385.08 1181.45,1384.72 1183.42,1384.46 1185.4,1383.85 1187.37,1383.95 1189.34,1383.66 1191.31,1384.09 1193.28,1382.87 1195.26,1384.1 1197.23,1383.74 1199.2,1382.86 1201.17,1382.45 1203.14,1380.79 1205.12,1379.69 1207.09,1379.05 1209.06,1379.25 1211.03,1375.7 1213,1370.95 1214.97,1361.72 1216.95,1346.09 1218.92,1343.56 1220.89,1337.46 1222.86,1329.14 1224.83,1320.33 1226.81,1298.04 1228.78,1284.32 1230.75,1272.79 1232.72,1267.37 1234.69,1269.6 1236.67,1273.13 1238.64,1259.01 1240.61,1246.69 1242.58,1232.54 1244.55,1206.96 1246.52,1204.48 1248.5,1197.12 1250.47,1180.93 1252.44,1157.71 1254.41,1134.69 1256.38,1109.6 1258.36,1080.08 1260.33,1036.57 1262.3,1005.05 1264.27,965.3 1266.24,942.753 1268.22,905.006 1270.19,869.462 1272.16,836.024 1274.13,805.527 1276.1,784.026 1278.08,760.092 1280.05,750.87 1282.02,711.903 1283.99,697.67 1285.96,675.343 1287.93,662.973 1289.91,634.338 1291.88,603.331 1293.85,591.509 1295.82,576.114 1297.79,565.95 1299.77,544.594 1301.74,526.609 1303.71,505.1 1305.68,495.485 1307.65,459.623 1309.63,450.01 1311.6,437.9 1313.57,403.631 1315.54,392.102 1317.51,381.291 1319.48,378.422 1321.46,357.108 1323.43,354.502 1325.4,345.155 1327.37,314.92 1329.34,304.346 1331.32,312.756 1333.29,301.801 1335.26,289.427 1337.23,298.461 1339.2,288.651 1341.18,271.603 1343.15,272.563 1345.12,262.544 1347.09,267.387 1349.06,275.498 1351.04,262.861 1353.01,255.85 1354.98,260.099 1356.95,266.286 1358.92,246.636 1360.89,242.284 1362.87,249.068 1364.84,265.72 1366.81,247.976 1368.78,259.846 1370.75,245.997 1372.73,248.545 1374.7,247.41 1376.67,253.309 1378.64,256.372 1380.61,254.112 1382.59,261.185 1384.56,273.713 1386.53,270.591 1388.5,263.348 1390.47,266.13 1392.44,247.684 1394.42,242.011 1396.39,228.342 1398.36,223.907 1400.33,221.496 1402.3,229.698 1404.28,230.046 1406.25,219.997 1408.22,226.688 1410.19,235.16 1412.16,238.323 1414.14,238.439 1416.11,228.632 1418.08,222.068 1420.05,222.67 1422.02,226.424 1424,215.551 1425.97,212.396 1427.94,199.687 1429.91,212.501 1431.88,212.714 1433.85,203.858 1435.83,214.554 1437.8,230.042 1439.77,220.753 1441.74,218.487 1443.71,218.282 1445.69,215.567 1447.66,237.581 1449.63,269.464 1451.6,300.048 1453.57,318.883 1455.55,351.207 1457.52,370.812 1459.49,389.849 1461.46,427.638 1463.43,467.882 1465.4,510.801 1467.38,538.445 1469.35,585.227 1471.32,618.946 1473.29,648.801 1475.26,691.81 1477.24,730.784 1479.21,754.783 1481.18,781.285 1483.15,805.605 1485.12,828.183 1487.1,857.239 1489.07,879.154 1491.04,904.318 1493.01,929.613 1494.98,946.011 1496.96,964.445 1498.93,985.073 1500.9,998.518 1502.87,1013.27 1504.84,1029.57 1506.81,1047.34 1508.79,1063.9 1510.76,1078.86 1512.73,1086.16 1514.7,1097.49 1516.67,1107.95 1518.65,1125.54 1520.62,1143.49 1522.59,1154.14 1524.56,1161.45 1526.53,1171.23 1528.51,1180.16 1530.48,1186.85 1532.45,1192.13 1534.42,1200.62 1536.39,1215.14 1538.36,1221.57 1540.34,1232.1 1542.31,1239.02 1544.28,1245.22 1546.25,1254.52 1548.22,1257.91 1550.2,1263.25 1552.17,1270.69 1554.14,1275.44 1556.11,1279.75 1558.08,1286.5 1560.06,1290 1562.03,1295.8 1564,1299.66 1565.97,1302.72 1567.94,1307.9 1569.92,1309.59 1571.89,1313.85 1573.86,1317.82 1575.83,1320.26 1577.8,1323.69 1579.77,1328.06 1581.75,1331.36 1583.72,1335.72 1585.69,1337.4 1587.66,1338.51 1589.63,1341.45 1591.61,1342.75 1593.58,1343.98 1595.55,1346.4 1597.52,1349.95 1599.49,1350.93 1601.47,1351.52 1603.44,1353.99 1605.41,1356.81 1607.38,1358.15 1609.35,1359.17 1611.32,1360.25 1613.3,1362.08 1615.27,1364.64 1617.24,1365.29 1619.21,1365.59 1621.18,1366.71 1623.16,1368.9 1625.13,1370.25 1627.1,1371.14 1629.07,1371.13 1631.04,1370.71 1633.02,1371.21 1634.99,1372.66 1636.96,1372.59 1638.93,1374.33 1640.9,1375.21 1642.88,1374.79 1644.85,1374.93 1646.82,1375.2 1648.79,1376.19 1650.76,1376.48 1652.73,1376.3 1654.71,1375.66 1656.68,1375.77 1658.65,1376.66 1660.62,1376.49 1662.59,1376.13 1664.57,1375.47 1666.54,1375.18 1668.51,1375.9 1670.48,1377.02 1672.45,1377.55 1674.43,1377.74 1676.4,1378.13 1678.37,1378.96 1680.34,1378.86 1682.31,1379.18 1684.28,1379.23 1686.26,1378.71 1688.23,1378.78 1690.2,1378.7 1692.17,1379.06 1694.14,1378.72 1696.12,1379.85 1698.09,1380.17 1700.06,1380.52 1702.03,1380.76 1704,1381.02 1705.98,1381.78 1707.95,1382.03 1709.92,1382.01 1711.89,1382.19 1713.86,1382.41 1715.84,1382.07 1717.81,1382.17 1719.78,1382.06 1721.75,1381.85 1723.72,1382.04 1725.69,1381.66 1727.67,1381.1 1729.64,1381.11 1731.61,1381.37 1733.58,1381.47 1735.55,1381.86 1737.53,1381.97 1739.5,1382.1 1741.47,1381.51 1743.44,1382.02 1745.41,1382.24 1747.39,1382.24 1749.36,1382.03 1751.33,1382.04 1753.3,1382.81 1755.27,1382.99 1757.24,1383.44 1759.22,1383.49 1761.19,1383.74 1763.16,1383.78 1765.13,1383.84 1767.1,1383.77 1769.08,1383.84 1771.05,1383.31 1773.02,1383.52 1774.99,1383.98 1776.96,1383.72 1778.94,1384.11 1780.91,1384.02 1782.88,1384.56 1784.85,1384.24 1786.82,1384.5 1788.8,1383.98 1790.77,1383.64 1792.74,1383.87 1794.71,1383.85 1796.68,1383.47 1798.65,1383.53 1800.63,1384.09 1802.6,1384.53 1804.57,1384.23 1806.54,1384.54 1808.51,1384.79 1810.49,1384.82 1812.46,1384.77 1814.43,1385.08 1816.4,1385.05 1818.37,1385.37 1820.35,1384.93 1822.32,1385.12 1824.29,1385.27 1826.26,1385.15 1828.23,1385.18 1830.2,1385.31 1832.18,1385.38 1834.15,1385.67 1836.12,1385.74 1838.09,1385.69 1840.06,1385.71 1842.04,1385.77 1844.01,1385.79 1845.98,1385.82 1847.95,1385.82 1849.92,1385.84 1851.9,1385.82 1853.87,1385.8 1855.84,1385.78 1857.81,1385.77 1859.78,1385.72 1861.75,1385.84 1863.73,1385.88 1865.7,1385.94 1867.67,1385.94 1869.64,1385.9 1871.61,1385.8 1873.59,1385.81 1875.56,1385.83 1877.53,1385.86 1879.5,1385.83 1881.47,1385.89 1883.45,1385.91 1885.42,1385.93 1887.39,1385.89 1889.36,1385.89 1891.33,1385.93 1893.31,1385.96 1895.28,1385.93 1897.25,1385.85 1899.22,1385.78 1901.19,1385.78 1903.16,1385.68 1905.14,1385.62 1907.11,1385.61 1909.08,1385.63 1911.05,1385.85 1913.02,1385.73 1915,1385.71 1916.97,1385.81 1918.94,1385.75 1920.91,1385.87 1922.88,1385.78 1924.86,1385.6 1926.83,1385.7 1928.8,1385.73 1930.77,1385.93 1932.74,1385.92 1934.71,1385.6 1936.69,1384.77 1938.66,1384.65 1940.63,1384.84 1942.6,1385.47 1944.57,1384.83 1946.55,1385.27 1948.52,1385.37 1950.49,1385.11 1952.46,1384.52 1954.43,1383.88 1956.41,1380.22 1958.38,1379.41 1960.35,1377.24 1962.32,1371.49 1964.29,1366.52 1966.27,1360.53 1968.24,1357.75 1970.21,1348.08 1972.18,1340.18 1974.15,1329.56 1976.12,1326.21 1978.1,1315.86 1980.07,1297.28 1982.04,1283.22 1984.01,1261.29 1985.98,1232.64 1987.96,1219.34 1989.93,1209.16 1991.9,1198.29 1993.87,1185.79 1995.84,1161.04 1997.82,1140.53 1999.79,1099.32 2001.76,1071.04 2003.73,1046.27 2005.7,998.842 2007.67,978.645 2009.65,949.13 2011.62,925.549 2013.59,883.235 2015.56,848.99 2017.53,820.273 2019.51,795.163 2021.48,757.982 2023.45,737.545 2025.42,721.626 2027.39,724.672 2029.37,696.17 2031.34,668.572 2033.31,639.198 2035.28,606.849 2037.25,582.033 2039.23,551.555 2041.2,535.317 2043.17,510.437 2045.14,490.424 2047.11,489.099 2049.08,475.608 2051.06,464.66 2053.03,462.956 2055,459.941 2056.97,425.185 2058.94,424.376 2060.92,417.749 2062.89,418.417 2064.86,415.773 2066.83,404.891 2068.8,390.578 2070.78,393.139 2072.75,406.606 2074.72,392.837 2076.69,371.634 2078.66,356.242 2080.63,360.122 2082.61,353.782 2084.58,361.146 2086.55,349.618 2088.52,342.618 2090.49,335.011 2092.47,338.89 2094.44,326.159 2096.41,311.897 2098.38,320.192 2100.35,319.815 2102.33,320.727 2104.3,303.744 2106.27,316.988 2108.24,302.197 2110.21,297.196 2112.19,301.927 2114.16,278.462 2116.13,255.759 2118.1,265.386 2120.07,255.469 2122.04,254.795 2124.02,244.14 2125.99,241.692 2127.96,219.123 2129.93,219.378 2131.9,236.941 2133.88,237.101 2135.85,236.413 2137.82,220.698 2139.79,223.55 2141.76,230.157 2143.74,225.14 2145.71,241.227 2147.68,235.979 2149.65,209.99 2151.62,209.574 2153.59,198.644 2155.57,203.79 2157.54,194.707 2159.51,193.636 2161.48,213.87 2163.45,235.632 2165.43,231.809 2167.4,219.655 2169.37,229.291 2171.34,222.671 2173.31,211.395 2175.29,221.324 2177.26,210.202 2179.23,201.061 2181.2,196.724 2183.17,179.145 2185.15,178.752 2187.12,198.448 2189.09,199.712 2191.06,187.114 2193.03,201.66 2195,214.915 2196.98,234.195 2198.95,242.458 2200.92,230.282 2202.89,215.2 2204.86,224.641 2206.84,252.943 2208.81,287.385 2210.78,313.006 2212.75,306.631 2214.72,324.987 2216.7,331.808 2218.67,344.124 2220.64,363.666 2222.61,382.503 2224.58,394.599 2226.55,381.78 2228.53,379.032 2230.5,370.362 2232.47,385.632 2234.44,392.412 2236.41,425.69 2238.39,462.544 2240.36,509.784 2242.33,548.745 2244.3,585.029 2246.27,625.295 2248.25,654.402 2250.22,684.071 2252.19,708.459 2254.16,739.947 2256.13,769.835 2258.11,785.62 2260.08,810.503 2262.05,831.756 2264.02,853.858 2265.99,882.748 2267.96,907.423 2269.94,918.919 2271.91,943.885 2273.88,959.812 2275.85,976.921 2277.82,996.064 2279.8,1016.04 2281.77,1029.21 2283.74,1049.9 2285.71,1065.79 2287.68,1085.43 2289.66,1101.9 2291.63,1120.96 2293.6,1134.29 "></polyline>
</svg>