<svg xmlns="http://www.w3.org/2000/svg" xmlns:xlink="http://www.w3.org/1999/xlink" width="600" height="400" viewBox="0 0 2400 1600">
<defs>
  <clipPath id="clip400">
    <rect x="0" y="0" width="2400" height="1600"></rect>
  </clipPath>
</defs>
<path clip-path="url(#clip400)" d="M0 1600 L2400 1600 L2400 8.88178e-14 L0 8.88178e-14  Z" fill="#ffffff" fill-rule="evenodd" fill-opacity="1"></path>
<defs>
  <clipPath id="clip401">
    <rect x="480" y="0" width="1681" height="1600"></rect>
  </clipPath>
</defs>
<path clip-path="url(#clip400)" d="M234.125 1423.18 L2352.76 1423.18 L2352.76 123.472 L234.125 123.472  Z" fill="#ffffff" fill-rule="evenodd" fill-opacity="1"></path>
<defs>
  <clipPath id="clip402">
    <rect x="234" y="123" width="2120" height="1301"></rect>
  </clipPath>
</defs>
<polyline clip-path="url(#clip402)" style="stroke:#000000; stroke-linecap:round; stroke-linejoin:round; stroke-width:2; stroke-opacity:0.1; fill:none" points="292.088,1423.18 292.088,123.472 "></polyline>
<polyline clip-path="url(#clip402)" style="stroke:#000000; stroke-linecap:round; stroke-linejoin:round; stroke-width:2; stroke-opacity:0.1; fill:none" points="791.765,1423.18 791.765,123.472 "></polyline>
<polyline clip-path="url(#clip402)" style="stroke:#000000; stroke-linecap:round; stroke-linejoin:round; stroke-width:2; stroke-opacity:0.1; fill:none" points="1291.44,1423.18 1291.44,123.472 "></polyline>
<polyline clip-path="url(#clip402)" style="stroke:#000000; stroke-linecap:round; stroke-linejoin:round; stroke-width:2; stroke-opacity:0.1; fill:none" points="1791.12,1423.18 1791.12,123.472 "></polyline>
<polyline clip-path="url(#clip402)" style="stroke:#000000; stroke-linecap:round; stroke-linejoin:round; stroke-width:2; stroke-opacity:0.1; fill:none" points="2290.8,1423.18 2290.8,123.472 "></polyline>
<polyline clip-path="url(#clip402)" style="stroke:#000000; stroke-linecap:round; stroke-linejoin:round; stroke-width:2; stroke-opacity:0.1; fill:none" points="234.125,1386.4 2352.76,1386.4 "></polyline>
<polyline clip-path="url(#clip402)" style="stroke:#000000; stroke-linecap:round; stroke-linejoin:round; stroke-width:2; stroke-opacity:0.1; fill:none" points="234.125,1042.94 2352.76,1042.94 "></polyline>
<polyline clip-path="url(#clip402)" style="stroke:#000000; stroke-linecap:round; stroke-linejoin:round; stroke-width:2; stroke-opacity:0.1; fill:none" points="234.125,699.483 2352.76,699.483 "></polyline>
<polyline clip-path="url(#clip402)" style="stroke:#000000; stroke-linecap:round; stroke-linejoin:round; stroke-width:2; stroke-opacity:0.1; fill:none" points="234.125,356.026 2352.76,356.026 "></polyline>
<polyline clip-path="url(#clip400)" style="stroke:#000000; stroke-linecap:round; stroke-linejoin:round; stroke-width:4; stroke-opacity:1; fill:none" points="234.125,1423.18 2352.76,1423.18 "></polyline>
<polyline clip-path="url(#clip400)" style="stroke:#000000; stroke-linecap:round; stroke-linejoin:round; stroke-width:4; stroke-opacity:1; fill:none" points="292.088,1423.18 292.088,1404.28 "></polyline>
<polyline clip-path="url(#clip400)" style="stroke:#000000; stroke-linecap:round; stroke-linejoin:round; stroke-width:4; stroke-opacity:1; fill:none" points="791.765,1423.18 791.765,1404.28 "></polyline>
<polyline clip-path="url(#clip400)" style="stroke:#000000; stroke-linecap:round; stroke-linejoin:round; stroke-width:4; stroke-opacity:1; fill:none" points="1291.44,1423.18 1291.44,1404.28 "></polyline>
<polyline clip-path="url(#clip400)" style="stroke:#000000; stroke-linecap:round; stroke-linejoin:round; stroke-width:4; stroke-opacity:1; fill:none" points="1791.12,1423.18 1791.12,1404.28 "></polyline>
<polyline clip-path="url(#clip400)" style="stroke:#000000; stroke-linecap:round; stroke-linejoin:round; stroke-width:4; stroke-opacity:1; fill:none" points="2290.8,1423.18 2290.8,1404.28 "></polyline>
<path clip-path="url(#clip400)" d="M292.088 1454.1 Q288.477 1454.1 286.648 1457.66 Q284.843 1461.2 284.843 1468.33 Q284.843 1475.44 286.648 1479.01 Q288.477 1482.55 292.088 1482.55 Q295.722 1482.55 297.528 1479.01 Q299.356 1475.44 299.356 1468.33 Q299.356 1461.2 297.528 1457.66 Q295.722 1454.1 292.088 1454.1 M292.088 1450.39 Q297.898 1450.39 300.954 1455 Q304.032 1459.58 304.032 1468.33 Q304.032 1477.06 300.954 1481.67 Q297.898 1486.25 292.088 1486.25 Q286.278 1486.25 283.199 1481.67 Q280.144 1477.06 280.144 1468.33 Q280.144 1459.58 283.199 1455 Q286.278 1450.39 292.088 1450.39 Z" fill="#000000" fill-rule="nonzero" fill-opacity="1"></path><path clip-path="url(#clip400)" d="M755.457 1481.64 L771.777 1481.64 L771.777 1485.58 L749.832 1485.58 L749.832 1481.64 Q752.494 1478.89 757.078 1474.26 Q761.684 1469.61 762.865 1468.27 Q765.11 1465.74 765.99 1464.01 Q766.892 1462.25 766.892 1460.56 Q766.892 1457.8 764.948 1456.07 Q763.027 1454.33 759.925 1454.33 Q757.726 1454.33 755.272 1455.09 Q752.842 1455.86 750.064 1457.41 L750.064 1452.69 Q752.888 1451.55 755.342 1450.97 Q757.795 1450.39 759.832 1450.39 Q765.203 1450.39 768.397 1453.08 Q771.591 1455.77 771.591 1460.26 Q771.591 1462.39 770.781 1464.31 Q769.994 1466.2 767.888 1468.8 Q767.309 1469.47 764.207 1472.69 Q761.105 1475.88 755.457 1481.64 Z" fill="#000000" fill-rule="nonzero" fill-opacity="1"></path><path clip-path="url(#clip400)" d="M781.638 1451.02 L799.994 1451.02 L799.994 1454.96 L785.92 1454.96 L785.92 1463.43 Q786.939 1463.08 787.957 1462.92 Q788.976 1462.73 789.994 1462.73 Q795.781 1462.73 799.161 1465.9 Q802.54 1469.08 802.54 1474.49 Q802.54 1480.07 799.068 1483.17 Q795.596 1486.25 789.277 1486.25 Q787.101 1486.25 784.832 1485.88 Q782.587 1485.51 780.179 1484.77 L780.179 1480.07 Q782.263 1481.2 784.485 1481.76 Q786.707 1482.32 789.184 1482.32 Q793.189 1482.32 795.527 1480.21 Q797.864 1478.1 797.864 1474.49 Q797.864 1470.88 795.527 1468.77 Q793.189 1466.67 789.184 1466.67 Q787.309 1466.67 785.434 1467.08 Q783.582 1467.5 781.638 1468.38 L781.638 1451.02 Z" fill="#000000" fill-rule="nonzero" fill-opacity="1"></path><path clip-path="url(#clip400)" d="M821.753 1454.1 Q818.142 1454.1 816.313 1457.66 Q814.508 1461.2 814.508 1468.33 Q814.508 1475.44 816.313 1479.01 Q818.142 1482.55 821.753 1482.55 Q825.387 1482.55 827.193 1479.01 Q829.022 1475.44 829.022 1468.33 Q829.022 1461.2 827.193 1457.66 Q825.387 1454.1 821.753 1454.1 M821.753 1450.39 Q827.563 1450.39 830.619 1455 Q833.698 1459.58 833.698 1468.33 Q833.698 1477.06 830.619 1481.67 Q827.563 1486.25 821.753 1486.25 Q815.943 1486.25 812.864 1481.67 Q809.809 1477.06 809.809 1468.33 Q809.809 1459.58 812.864 1455 Q815.943 1450.39 821.753 1450.39 Z" fill="#000000" fill-rule="nonzero" fill-opacity="1"></path><path clip-path="url(#clip400)" d="M1251.06 1451.02 L1269.42 1451.02 L1269.42 1454.96 L1255.34 1454.96 L1255.34 1463.43 Q1256.36 1463.08 1257.38 1462.92 Q1258.4 1462.73 1259.42 1462.73 Q1265.2 1462.73 1268.58 1465.9 Q1271.96 1469.08 1271.96 1474.49 Q1271.96 1480.07 1268.49 1483.17 Q1265.02 1486.25 1258.7 1486.25 Q1256.52 1486.25 1254.25 1485.88 Q1252.01 1485.51 1249.6 1484.77 L1249.6 1480.07 Q1251.69 1481.2 1253.91 1481.76 Q1256.13 1482.32 1258.61 1482.32 Q1262.61 1482.32 1264.95 1480.21 Q1267.29 1478.1 1267.29 1474.49 Q1267.29 1470.88 1264.95 1468.77 Q1262.61 1466.67 1258.61 1466.67 Q1256.73 1466.67 1254.86 1467.08 Q1253 1467.5 1251.06 1468.38 L1251.06 1451.02 Z" fill="#000000" fill-rule="nonzero" fill-opacity="1"></path><path clip-path="url(#clip400)" d="M1291.18 1454.1 Q1287.56 1454.1 1285.74 1457.66 Q1283.93 1461.2 1283.93 1468.33 Q1283.93 1475.44 1285.74 1479.01 Q1287.56 1482.55 1291.18 1482.55 Q1294.81 1482.55 1296.62 1479.01 Q1298.44 1475.44 1298.44 1468.33 Q1298.44 1461.2 1296.62 1457.66 Q1294.81 1454.1 1291.18 1454.1 M1291.18 1450.39 Q1296.99 1450.39 1300.04 1455 Q1303.12 1459.58 1303.12 1468.33 Q1303.12 1477.06 1300.04 1481.67 Q1296.99 1486.25 1291.18 1486.25 Q1285.37 1486.25 1282.29 1481.67 Q1279.23 1477.06 1279.23 1468.33 Q1279.23 1459.58 1282.29 1455 Q1285.37 1450.39 1291.18 1450.39 Z" fill="#000000" fill-rule="nonzero" fill-opacity="1"></path><path clip-path="url(#clip400)" d="M1321.34 1454.1 Q1317.73 1454.1 1315.9 1457.66 Q1314.09 1461.2 1314.09 1468.33 Q1314.09 1475.44 1315.9 1479.01 Q1317.73 1482.55 1321.34 1482.55 Q1324.97 1482.55 1326.78 1479.01 Q1328.61 1475.44 1328.61 1468.33 Q1328.61 1461.2 1326.78 1457.66 Q1324.97 1454.1 1321.34 1454.1 M1321.34 1450.39 Q1327.15 1450.39 1330.2 1455 Q1333.28 1459.58 1333.28 1468.33 Q1333.28 1477.06 1330.2 1481.67 Q1327.15 1486.25 1321.34 1486.25 Q1315.53 1486.25 1312.45 1481.67 Q1309.39 1477.06 1309.39 1468.33 Q1309.39 1459.58 1312.45 1455 Q1315.53 1450.39 1321.34 1450.39 Z" fill="#000000" fill-rule="nonzero" fill-opacity="1"></path><path clip-path="url(#clip400)" d="M1749.39 1451.02 L1771.62 1451.02 L1771.62 1453.01 L1759.07 1485.58 L1754.19 1485.58 L1765.99 1454.96 L1749.39 1454.96 L1749.39 1451.02 Z" fill="#000000" fill-rule="nonzero" fill-opacity="1"></path><path clip-path="url(#clip400)" d="M1780.78 1451.02 L1799.14 1451.02 L1799.14 1454.96 L1785.07 1454.96 L1785.07 1463.43 Q1786.08 1463.08 1787.1 1462.92 Q1788.12 1462.73 1789.14 1462.73 Q1794.93 1462.73 1798.31 1465.9 Q1801.69 1469.08 1801.69 1474.49 Q1801.69 1480.07 1798.21 1483.17 Q1794.74 1486.25 1788.42 1486.25 Q1786.25 1486.25 1783.98 1485.88 Q1781.73 1485.51 1779.33 1484.77 L1779.33 1480.07 Q1781.41 1481.2 1783.63 1481.76 Q1785.85 1482.32 1788.33 1482.32 Q1792.33 1482.32 1794.67 1480.21 Q1797.01 1478.1 1797.01 1474.49 Q1797.01 1470.88 1794.67 1468.77 Q1792.33 1466.67 1788.33 1466.67 Q1786.45 1466.67 1784.58 1467.08 Q1782.73 1467.5 1780.78 1468.38 L1780.78 1451.02 Z" fill="#000000" fill-rule="nonzero" fill-opacity="1"></path><path clip-path="url(#clip400)" d="M1820.9 1454.1 Q1817.29 1454.1 1815.46 1457.66 Q1813.65 1461.2 1813.65 1468.33 Q1813.65 1475.44 1815.46 1479.01 Q1817.29 1482.55 1820.9 1482.55 Q1824.53 1482.55 1826.34 1479.01 Q1828.17 1475.44 1828.17 1468.33 Q1828.17 1461.2 1826.34 1457.66 Q1824.53 1454.1 1820.9 1454.1 M1820.9 1450.39 Q1826.71 1450.39 1829.76 1455 Q1832.84 1459.58 1832.84 1468.33 Q1832.84 1477.06 1829.76 1481.67 Q1826.71 1486.25 1820.9 1486.25 Q1815.09 1486.25 1812.01 1481.67 Q1808.95 1477.06 1808.95 1468.33 Q1808.95 1459.58 1812.01 1455 Q1815.09 1450.39 1820.9 1450.39 Z" fill="#000000" fill-rule="nonzero" fill-opacity="1"></path><path clip-path="url(#clip400)" d="M2235.32 1481.64 L2242.96 1481.64 L2242.96 1455.28 L2234.65 1456.95 L2234.65 1452.69 L2242.91 1451.02 L2247.59 1451.02 L2247.59 1481.64 L2255.23 1481.64 L2255.23 1485.58 L2235.32 1485.58 L2235.32 1481.64 Z" fill="#000000" fill-rule="nonzero" fill-opacity="1"></path><path clip-path="url(#clip400)" d="M2274.67 1454.1 Q2271.06 1454.1 2269.23 1457.66 Q2267.43 1461.2 2267.43 1468.33 Q2267.43 1475.44 2269.23 1479.01 Q2271.06 1482.55 2274.67 1482.55 Q2278.31 1482.55 2280.11 1479.01 Q2281.94 1475.44 2281.94 1468.33 Q2281.94 1461.2 2280.11 1457.66 Q2278.31 1454.1 2274.67 1454.1 M2274.67 1450.39 Q2280.48 1450.39 2283.54 1455 Q2286.62 1459.58 2286.62 1468.33 Q2286.62 1477.06 2283.54 1481.67 Q2280.48 1486.25 2274.67 1486.25 Q2268.86 1486.25 2265.78 1481.67 Q2262.73 1477.06 2262.73 1468.33 Q2262.73 1459.58 2265.78 1455 Q2268.86 1450.39 2274.67 1450.39 Z" fill="#000000" fill-rule="nonzero" fill-opacity="1"></path><path clip-path="url(#clip400)" d="M2304.84 1454.1 Q2301.22 1454.1 2299.4 1457.66 Q2297.59 1461.2 2297.59 1468.33 Q2297.59 1475.44 2299.4 1479.01 Q2301.22 1482.55 2304.84 1482.55 Q2308.47 1482.55 2310.28 1479.01 Q2312.1 1475.44 2312.1 1468.33 Q2312.1 1461.2 2310.28 1457.66 Q2308.47 1454.1 2304.84 1454.1 M2304.84 1450.39 Q2310.65 1450.39 2313.7 1455 Q2316.78 1459.58 2316.78 1468.33 Q2316.78 1477.06 2313.7 1481.67 Q2310.65 1486.25 2304.84 1486.25 Q2299.03 1486.25 2295.95 1481.67 Q2292.89 1477.06 2292.89 1468.33 Q2292.89 1459.58 2295.95 1455 Q2299.03 1450.39 2304.84 1450.39 Z" fill="#000000" fill-rule="nonzero" fill-opacity="1"></path><path clip-path="url(#clip400)" d="M2335 1454.1 Q2331.39 1454.1 2329.56 1457.66 Q2327.75 1461.2 2327.75 1468.33 Q2327.75 1475.44 2329.56 1479.01 Q2331.39 1482.55 2335 1482.55 Q2338.63 1482.55 2340.44 1479.01 Q2342.27 1475.44 2342.27 1468.33 Q2342.27 1461.2 2340.44 1457.66 Q2338.63 1454.1 2335 1454.1 M2335 1450.39 Q2340.81 1450.39 2343.86 1455 Q2346.94 1459.58 2346.94 1468.33 Q2346.94 1477.06 2343.86 1481.67 Q2340.81 1486.25 2335 1486.25 Q2329.19 1486.25 2326.11 1481.67 Q2323.05 1477.06 2323.05 1468.33 Q2323.05 1459.58 2326.11 1455 Q2329.19 1450.39 2335 1450.39 Z" fill="#000000" fill-rule="nonzero" fill-opacity="1"></path><path clip-path="url(#clip400)" d="M1232.6 1522.27 L1232.6 1532.4 L1244.66 1532.4 L1244.66 1536.95 L1232.6 1536.95 L1232.6 1556.3 Q1232.6 1560.66 1233.78 1561.9 Q1234.99 1563.14 1238.65 1563.14 L1244.66 1563.14 L1244.66 1568.04 L1238.65 1568.04 Q1231.87 1568.04 1229.29 1565.53 Q1226.71 1562.98 1226.71 1556.3 L1226.71 1536.95 L1222.42 1536.95 L1222.42 1532.4 L1226.71 1532.4 L1226.71 1522.27 L1232.6 1522.27 Z" fill="#000000" fill-rule="nonzero" fill-opacity="1"></path><path clip-path="url(#clip400)" d="M1252.37 1532.4 L1258.22 1532.4 L1258.22 1568.04 L1252.37 1568.04 L1252.37 1532.4 M1252.37 1518.52 L1258.22 1518.52 L1258.22 1525.93 L1252.37 1525.93 L1252.37 1518.52 Z" fill="#000000" fill-rule="nonzero" fill-opacity="1"></path><path clip-path="url(#clip400)" d="M1298.23 1539.24 Q1300.43 1535.29 1303.48 1533.41 Q1306.54 1531.54 1310.68 1531.54 Q1316.25 1531.54 1319.27 1535.45 Q1322.29 1539.33 1322.29 1546.53 L1322.29 1568.04 L1316.4 1568.04 L1316.4 1546.72 Q1316.4 1541.59 1314.59 1539.11 Q1312.78 1536.63 1309.05 1536.63 Q1304.5 1536.63 1301.86 1539.65 Q1299.22 1542.68 1299.22 1547.9 L1299.22 1568.04 L1293.33 1568.04 L1293.33 1546.72 Q1293.33 1541.56 1291.52 1539.11 Q1289.7 1536.63 1285.91 1536.63 Q1281.43 1536.63 1278.78 1539.68 Q1276.14 1542.71 1276.14 1547.9 L1276.14 1568.04 L1270.25 1568.04 L1270.25 1532.4 L1276.14 1532.4 L1276.14 1537.93 Q1278.15 1534.66 1280.95 1533.1 Q1283.75 1531.54 1287.6 1531.54 Q1291.48 1531.54 1294.19 1533.51 Q1296.93 1535.48 1298.23 1539.24 Z" fill="#000000" fill-rule="nonzero" fill-opacity="1"></path><path clip-path="url(#clip400)" d="M1364.47 1548.76 L1364.47 1551.62 L1337.54 1551.62 Q1337.92 1557.67 1341.17 1560.85 Q1344.45 1564 1350.27 1564 Q1353.64 1564 1356.8 1563.17 Q1359.98 1562.35 1363.1 1560.69 L1363.1 1566.23 Q1359.95 1567.57 1356.64 1568.27 Q1353.33 1568.97 1349.92 1568.97 Q1341.39 1568.97 1336.39 1564 Q1331.43 1559.04 1331.43 1550.57 Q1331.43 1541.82 1336.14 1536.69 Q1340.88 1531.54 1348.9 1531.54 Q1356.1 1531.54 1360.26 1536.18 Q1364.47 1540.8 1364.47 1548.76 M1358.61 1547.04 Q1358.55 1542.23 1355.9 1539.37 Q1353.29 1536.5 1348.97 1536.5 Q1344.06 1536.5 1341.1 1539.27 Q1338.18 1542.04 1337.73 1547.07 L1358.61 1547.04 Z" fill="#000000" fill-rule="nonzero" fill-opacity="1"></path><polyline clip-path="url(#clip400)" style="stroke:#000000; stroke-linecap:round; stroke-linejoin:round; stroke-width:4; stroke-opacity:1; fill:none" points="234.125,1423.18 234.125,123.472 "></polyline>
<polyline clip-path="url(#clip400)" style="stroke:#000000; stroke-linecap:round; stroke-linejoin:round; stroke-width:4; stroke-opacity:1; fill:none" points="234.125,1386.4 253.023,1386.4 "></polyline>
<polyline clip-path="url(#clip400)" style="stroke:#000000; stroke-linecap:round; stroke-linejoin:round; stroke-width:4; stroke-opacity:1; fill:none" points="234.125,1042.94 253.023,1042.94 "></polyline>
<polyline clip-path="url(#clip400)" style="stroke:#000000; stroke-linecap:round; stroke-linejoin:round; stroke-width:4; stroke-opacity:1; fill:none" points="234.125,699.483 253.023,699.483 "></polyline>
<polyline clip-path="url(#clip400)" style="stroke:#000000; stroke-linecap:round; stroke-linejoin:round; stroke-width:4; stroke-opacity:1; fill:none" points="234.125,356.026 253.023,356.026 "></polyline>
<path clip-path="url(#clip400)" d="M186.181 1372.19 Q182.57 1372.19 180.741 1375.76 Q178.936 1379.3 178.936 1386.43 Q178.936 1393.54 180.741 1397.1 Q182.57 1400.64 186.181 1400.64 Q189.815 1400.64 191.621 1397.1 Q193.45 1393.54 193.45 1386.43 Q193.45 1379.3 191.621 1375.76 Q189.815 1372.19 186.181 1372.19 M186.181 1368.49 Q191.991 1368.49 195.047 1373.1 Q198.125 1377.68 198.125 1386.43 Q198.125 1395.16 195.047 1399.76 Q191.991 1404.35 186.181 1404.35 Q180.371 1404.35 177.292 1399.76 Q174.237 1395.16 174.237 1386.43 Q174.237 1377.68 177.292 1373.1 Q180.371 1368.49 186.181 1368.49 Z" fill="#000000" fill-rule="nonzero" fill-opacity="1"></path><path clip-path="url(#clip400)" d="M116.668 1056.28 L124.306 1056.28 L124.306 1029.92 L115.996 1031.59 L115.996 1027.33 L124.26 1025.66 L128.936 1025.66 L128.936 1056.28 L136.575 1056.28 L136.575 1060.22 L116.668 1060.22 L116.668 1056.28 Z" fill="#000000" fill-rule="nonzero" fill-opacity="1"></path><path clip-path="url(#clip400)" d="M156.019 1028.74 Q152.408 1028.74 150.579 1032.3 Q148.774 1035.84 148.774 1042.97 Q148.774 1050.08 150.579 1053.65 Q152.408 1057.19 156.019 1057.19 Q159.653 1057.19 161.459 1053.65 Q163.288 1050.08 163.288 1042.97 Q163.288 1035.84 161.459 1032.3 Q159.653 1028.74 156.019 1028.74 M156.019 1025.03 Q161.829 1025.03 164.885 1029.64 Q167.964 1034.22 167.964 1042.97 Q167.964 1051.7 164.885 1056.31 Q161.829 1060.89 156.019 1060.89 Q150.209 1060.89 147.13 1056.31 Q144.075 1051.7 144.075 1042.97 Q144.075 1034.22 147.13 1029.64 Q150.209 1025.03 156.019 1025.03 Z" fill="#000000" fill-rule="nonzero" fill-opacity="1"></path><path clip-path="url(#clip400)" d="M186.181 1028.74 Q182.57 1028.74 180.741 1032.3 Q178.936 1035.84 178.936 1042.97 Q178.936 1050.08 180.741 1053.65 Q182.57 1057.19 186.181 1057.19 Q189.815 1057.19 191.621 1053.65 Q193.45 1050.08 193.45 1042.97 Q193.45 1035.84 191.621 1032.3 Q189.815 1028.74 186.181 1028.74 M186.181 1025.03 Q191.991 1025.03 195.047 1029.64 Q198.125 1034.22 198.125 1042.97 Q198.125 1051.7 195.047 1056.31 Q191.991 1060.89 186.181 1060.89 Q180.371 1060.89 177.292 1056.31 Q174.237 1051.7 174.237 1042.97 Q174.237 1034.22 177.292 1029.64 Q180.371 1025.03 186.181 1025.03 Z" fill="#000000" fill-rule="nonzero" fill-opacity="1"></path><path clip-path="url(#clip400)" d="M119.885 712.828 L136.204 712.828 L136.204 716.763 L114.26 716.763 L114.26 712.828 Q116.922 710.073 121.505 705.443 Q126.112 700.791 127.292 699.448 Q129.538 696.925 130.417 695.189 Q131.32 693.43 131.32 691.74 Q131.32 688.985 129.376 687.249 Q127.455 685.513 124.353 685.513 Q122.154 685.513 119.7 686.277 Q117.269 687.041 114.492 688.592 L114.492 683.87 Q117.316 682.735 119.769 682.157 Q122.223 681.578 124.26 681.578 Q129.63 681.578 132.825 684.263 Q136.019 686.948 136.019 691.439 Q136.019 693.569 135.209 695.49 Q134.422 697.388 132.316 699.981 Q131.737 700.652 128.635 703.869 Q125.533 707.064 119.885 712.828 Z" fill="#000000" fill-rule="nonzero" fill-opacity="1"></path><path clip-path="url(#clip400)" d="M156.019 685.282 Q152.408 685.282 150.579 688.846 Q148.774 692.388 148.774 699.518 Q148.774 706.624 150.579 710.189 Q152.408 713.73 156.019 713.73 Q159.653 713.73 161.459 710.189 Q163.288 706.624 163.288 699.518 Q163.288 692.388 161.459 688.846 Q159.653 685.282 156.019 685.282 M156.019 681.578 Q161.829 681.578 164.885 686.184 Q167.964 690.768 167.964 699.518 Q167.964 708.244 164.885 712.851 Q161.829 717.434 156.019 717.434 Q150.209 717.434 147.13 712.851 Q144.075 708.244 144.075 699.518 Q144.075 690.768 147.13 686.184 Q150.209 681.578 156.019 681.578 Z" fill="#000000" fill-rule="nonzero" fill-opacity="1"></path><path clip-path="url(#clip400)" d="M186.181 685.282 Q182.57 685.282 180.741 688.846 Q178.936 692.388 178.936 699.518 Q178.936 706.624 180.741 710.189 Q182.57 713.73 186.181 713.73 Q189.815 713.73 191.621 710.189 Q193.45 706.624 193.45 699.518 Q193.45 692.388 191.621 688.846 Q189.815 685.282 186.181 685.282 M186.181 681.578 Q191.991 681.578 195.047 686.184 Q198.125 690.768 198.125 699.518 Q198.125 708.244 195.047 712.851 Q191.991 717.434 186.181 717.434 Q180.371 717.434 177.292 712.851 Q174.237 708.244 174.237 699.518 Q174.237 690.768 177.292 686.184 Q180.371 681.578 186.181 681.578 Z" fill="#000000" fill-rule="nonzero" fill-opacity="1"></path><path clip-path="url(#clip400)" d="M130.024 354.672 Q133.38 355.39 135.255 357.658 Q137.154 359.927 137.154 363.26 Q137.154 368.376 133.635 371.177 Q130.117 373.978 123.635 373.978 Q121.459 373.978 119.144 373.538 Q116.853 373.121 114.399 372.265 L114.399 367.751 Q116.343 368.885 118.658 369.464 Q120.973 370.043 123.496 370.043 Q127.894 370.043 130.186 368.306 Q132.501 366.57 132.501 363.26 Q132.501 360.205 130.348 358.492 Q128.218 356.756 124.399 356.756 L120.371 356.756 L120.371 352.913 L124.584 352.913 Q128.033 352.913 129.862 351.547 Q131.691 350.158 131.691 347.566 Q131.691 344.904 129.792 343.492 Q127.917 342.057 124.399 342.057 Q122.478 342.057 120.279 342.473 Q118.08 342.89 115.441 343.77 L115.441 339.603 Q118.103 338.862 120.418 338.492 Q122.755 338.121 124.816 338.121 Q130.14 338.121 133.242 340.552 Q136.343 342.959 136.343 347.08 Q136.343 349.95 134.7 351.941 Q133.056 353.908 130.024 354.672 Z" fill="#000000" fill-rule="nonzero" fill-opacity="1"></path><path clip-path="url(#clip400)" d="M156.019 341.825 Q152.408 341.825 150.579 345.39 Q148.774 348.932 148.774 356.061 Q148.774 363.168 150.579 366.732 Q152.408 370.274 156.019 370.274 Q159.653 370.274 161.459 366.732 Q163.288 363.168 163.288 356.061 Q163.288 348.932 161.459 345.39 Q159.653 341.825 156.019 341.825 M156.019 338.121 Q161.829 338.121 164.885 342.728 Q167.964 347.311 167.964 356.061 Q167.964 364.788 164.885 369.394 Q161.829 373.978 156.019 373.978 Q150.209 373.978 147.13 369.394 Q144.075 364.788 144.075 356.061 Q144.075 347.311 147.13 342.728 Q150.209 338.121 156.019 338.121 Z" fill="#000000" fill-rule="nonzero" fill-opacity="1"></path><path clip-path="url(#clip400)" d="M186.181 341.825 Q182.57 341.825 180.741 345.39 Q178.936 348.932 178.936 356.061 Q178.936 363.168 180.741 366.732 Q182.57 370.274 186.181 370.274 Q189.815 370.274 191.621 366.732 Q193.45 363.168 193.45 356.061 Q193.45 348.932 191.621 345.39 Q189.815 341.825 186.181 341.825 M186.181 338.121 Q191.991 338.121 195.047 342.728 Q198.125 347.311 198.125 356.061 Q198.125 364.788 195.047 369.394 Q191.991 373.978 186.181 373.978 Q180.371 373.978 177.292 369.394 Q174.237 364.788 174.237 356.061 Q174.237 347.311 177.292 342.728 Q180.371 338.121 186.181 338.121 Z" fill="#000000" fill-rule="nonzero" fill-opacity="1"></path><path clip-path="url(#clip400)" d="M44.7161 911.525 L47.5806 911.525 L47.5806 938.452 Q53.6281 938.07 56.8109 934.824 Q59.9619 931.546 59.9619 925.721 Q59.9619 922.347 59.1344 919.196 Q58.3069 916.013 56.6518 912.894 L62.1899 912.894 Q63.5267 916.045 64.227 919.355 Q64.9272 922.665 64.9272 926.071 Q64.9272 934.601 59.9619 939.598 Q54.9967 944.563 46.5303 944.563 Q37.7774 944.563 32.6531 939.853 Q27.4968 935.11 27.4968 927.09 Q27.4968 919.896 32.1438 915.727 Q36.7589 911.525 44.7161 911.525 M42.9973 917.382 Q38.1912 917.446 35.3266 920.087 Q32.4621 922.697 32.4621 927.026 Q32.4621 931.928 35.2312 934.888 Q38.0002 937.816 43.0292 938.261 L42.9973 917.382 Z" fill="#000000" fill-rule="nonzero" fill-opacity="1"></path><path clip-path="url(#clip400)" d="M28.3562 873.427 L45.7028 886.317 L64.0042 872.758 L64.0042 879.665 L49.9996 890.041 L64.0042 900.417 L64.0042 907.324 L45.3526 893.479 L28.3562 906.146 L28.3562 899.24 L41.0558 889.787 L28.3562 880.334 L28.3562 873.427 Z" fill="#000000" fill-rule="nonzero" fill-opacity="1"></path><path clip-path="url(#clip400)" d="M58.657 858.817 L77.5631 858.817 L77.5631 864.706 L28.3562 864.706 L28.3562 858.817 L33.7671 858.817 Q30.5842 856.971 29.0564 854.17 Q27.4968 851.338 27.4968 847.423 Q27.4968 840.93 32.6531 836.888 Q37.8093 832.814 46.212 832.814 Q54.6147 832.814 59.771 836.888 Q64.9272 840.93 64.9272 847.423 Q64.9272 851.338 63.3994 854.17 Q61.8398 856.971 58.657 858.817 M46.212 838.893 Q39.7508 838.893 36.0905 841.566 Q32.3984 844.208 32.3984 848.855 Q32.3984 853.502 36.0905 856.176 Q39.7508 858.817 46.212 858.817 Q52.6732 858.817 56.3653 856.176 Q60.0256 853.502 60.0256 848.855 Q60.0256 844.208 56.3653 841.566 Q52.6732 838.893 46.212 838.893 Z" fill="#000000" fill-rule="nonzero" fill-opacity="1"></path><path clip-path="url(#clip400)" d="M33.8307 802.449 Q33.2578 803.436 33.0032 804.613 Q32.7167 805.759 32.7167 807.16 Q32.7167 812.125 35.9632 814.799 Q39.1779 817.44 45.2253 817.44 L64.0042 817.44 L64.0042 823.329 L28.3562 823.329 L28.3562 817.44 L33.8944 817.44 Q30.6479 815.594 29.0883 812.634 Q27.4968 809.674 27.4968 805.441 Q27.4968 804.836 27.5923 804.104 Q27.656 803.372 27.8151 802.481 L33.8307 802.449 Z" fill="#000000" fill-rule="nonzero" fill-opacity="1"></path><path clip-path="url(#clip400)" d="M44.7161 767.247 L47.5806 767.247 L47.5806 794.174 Q53.6281 793.792 56.8109 790.545 Q59.9619 787.267 59.9619 781.442 Q59.9619 778.068 59.1344 774.917 Q58.3069 771.735 56.6518 768.615 L62.1899 768.615 Q63.5267 771.766 64.227 775.077 Q64.9272 778.387 64.9272 781.792 Q64.9272 790.322 59.9619 795.32 Q54.9967 800.285 46.5303 800.285 Q37.7774 800.285 32.6531 795.574 Q27.4968 790.832 27.4968 782.811 Q27.4968 775.618 32.1438 771.448 Q36.7589 767.247 44.7161 767.247 M42.9973 773.103 Q38.1912 773.167 35.3266 775.809 Q32.4621 778.419 32.4621 782.747 Q32.4621 787.649 35.2312 790.609 Q38.0002 793.537 43.0292 793.983 L42.9973 773.103 Z" fill="#000000" fill-rule="nonzero" fill-opacity="1"></path><path clip-path="url(#clip400)" d="M29.4065 734.909 L34.9447 734.909 Q33.6716 737.392 33.035 740.065 Q32.3984 742.739 32.3984 745.603 Q32.3984 749.964 33.7352 752.16 Q35.072 754.324 37.7456 754.324 Q39.7826 754.324 40.9603 752.765 Q42.1061 751.205 43.1565 746.495 L43.6021 744.489 Q44.9389 738.251 47.3897 735.641 Q49.8086 732.999 54.1691 732.999 Q59.1344 732.999 62.0308 736.946 Q64.9272 740.861 64.9272 747.736 Q64.9272 750.6 64.3543 753.72 Q63.8132 756.807 62.6992 760.244 L56.6518 760.244 Q58.3387 756.998 59.198 753.847 Q60.0256 750.696 60.0256 747.609 Q60.0256 743.471 58.6251 741.243 Q57.1929 739.015 54.6147 739.015 Q52.2276 739.015 50.9545 740.638 Q49.6813 742.23 48.5037 747.672 L48.0262 749.709 Q46.8804 755.152 44.5251 757.571 Q42.138 759.99 38.0002 759.99 Q32.9713 759.99 30.2341 756.425 Q27.4968 752.86 27.4968 746.304 Q27.4968 743.057 27.9743 740.192 Q28.4517 737.328 29.4065 734.909 Z" fill="#000000" fill-rule="nonzero" fill-opacity="1"></path><path clip-path="url(#clip400)" d="M29.4065 700.948 L34.9447 700.948 Q33.6716 703.431 33.035 706.104 Q32.3984 708.778 32.3984 711.642 Q32.3984 716.003 33.7352 718.199 Q35.072 720.363 37.7456 720.363 Q39.7826 720.363 40.9603 718.804 Q42.1061 717.244 43.1565 712.533 L43.6021 710.528 Q44.9389 704.29 47.3897 701.68 Q49.8086 699.038 54.1691 699.038 Q59.1344 699.038 62.0308 702.985 Q64.9272 706.9 64.9272 713.775 Q64.9272 716.639 64.3543 719.759 Q63.8132 722.846 62.6992 726.283 L56.6518 726.283 Q58.3387 723.037 59.198 719.886 Q60.0256 716.735 60.0256 713.647 Q60.0256 709.51 58.6251 707.282 Q57.1929 705.054 54.6147 705.054 Q52.2276 705.054 50.9545 706.677 Q49.6813 708.268 48.5037 713.711 L48.0262 715.748 Q46.8804 721.191 44.5251 723.61 Q42.138 726.029 38.0002 726.029 Q32.9713 726.029 30.2341 722.464 Q27.4968 718.899 27.4968 712.343 Q27.4968 709.096 27.9743 706.231 Q28.4517 703.367 29.4065 700.948 Z" fill="#000000" fill-rule="nonzero" fill-opacity="1"></path><path clip-path="url(#clip400)" d="M28.3562 689.712 L28.3562 683.856 L64.0042 683.856 L64.0042 689.712 L28.3562 689.712 M14.479 689.712 L14.479 683.856 L21.895 683.856 L21.895 689.712 L14.479 689.712 Z" fill="#000000" fill-rule="nonzero" fill-opacity="1"></path><path clip-path="url(#clip400)" d="M32.4621 657.788 Q32.4621 662.499 36.1542 665.236 Q39.8145 667.974 46.212 667.974 Q52.6095 667.974 56.3017 665.268 Q59.9619 662.531 59.9619 657.788 Q59.9619 653.11 56.2698 650.372 Q52.5777 647.635 46.212 647.635 Q39.8781 647.635 36.186 650.372 Q32.4621 653.11 32.4621 657.788 M27.4968 657.788 Q27.4968 650.15 32.4621 645.789 Q37.4273 641.429 46.212 641.429 Q54.9649 641.429 59.9619 645.789 Q64.9272 650.15 64.9272 657.788 Q64.9272 665.459 59.9619 669.82 Q54.9649 674.148 46.212 674.148 Q37.4273 674.148 32.4621 669.82 Q27.4968 665.459 27.4968 657.788 Z" fill="#000000" fill-rule="nonzero" fill-opacity="1"></path><path clip-path="url(#clip400)" d="M42.4881 602.088 L64.0042 602.088 L64.0042 607.945 L42.679 607.945 Q37.6183 607.945 35.1038 609.918 Q32.5894 611.892 32.5894 615.838 Q32.5894 620.581 35.6131 623.318 Q38.6368 626.055 43.8567 626.055 L64.0042 626.055 L64.0042 631.944 L28.3562 631.944 L28.3562 626.055 L33.8944 626.055 Q30.6797 623.955 29.0883 621.122 Q27.4968 618.257 27.4968 614.533 Q27.4968 608.391 31.3163 605.24 Q35.1038 602.088 42.4881 602.088 Z" fill="#000000" fill-rule="nonzero" fill-opacity="1"></path><path clip-path="url(#clip400)" d="M875.529 12.096 L914.418 12.096 L914.418 15.5798 L892.462 72.576 L883.915 72.576 L904.574 18.9825 L875.529 18.9825 L875.529 12.096 Z" fill="#000000" fill-rule="nonzero" fill-opacity="1"></path><path clip-path="url(#clip400)" d="M973.277 32.4315 Q967.282 32.4315 963.798 37.1306 Q960.315 41.7891 960.315 49.9314 Q960.315 58.0738 963.758 62.7728 Q967.242 67.4314 973.277 67.4314 Q979.232 67.4314 982.716 62.7323 Q986.2 58.0333 986.2 49.9314 Q986.2 41.8701 982.716 37.1711 Q979.232 32.4315 973.277 32.4315 M973.277 26.1121 Q983 26.1121 988.549 32.4315 Q994.099 38.7509 994.099 49.9314 Q994.099 61.0714 988.549 67.4314 Q983 73.7508 973.277 73.7508 Q963.515 73.7508 957.965 67.4314 Q952.456 61.0714 952.456 49.9314 Q952.456 38.7509 957.965 32.4315 Q963.515 26.1121 973.277 26.1121 Z" fill="#000000" fill-rule="nonzero" fill-opacity="1"></path><path clip-path="url(#clip400)" d="M1035.38 28.5427 L1035.38 35.5912 Q1032.22 33.9709 1028.82 33.1607 Q1025.41 32.3505 1021.77 32.3505 Q1016.22 32.3505 1013.42 34.0519 Q1010.67 35.7533 1010.67 39.156 Q1010.67 41.7486 1012.65 43.2475 Q1014.64 44.7058 1020.63 46.0426 L1023.18 46.6097 Q1031.12 48.3111 1034.45 51.4303 Q1037.81 54.509 1037.81 60.0587 Q1037.81 66.3781 1032.79 70.0644 Q1027.8 73.7508 1019.05 73.7508 Q1015.41 73.7508 1011.44 73.0216 Q1007.51 72.3329 1003.13 70.9151 L1003.13 63.2184 Q1007.26 65.3654 1011.27 66.4591 Q1015.29 67.5124 1019.21 67.5124 Q1024.48 67.5124 1027.32 65.73 Q1030.15 63.9071 1030.15 60.6258 Q1030.15 57.5877 1028.09 55.9673 Q1026.06 54.3469 1019.13 52.8481 L1016.54 52.2405 Q1009.61 50.7821 1006.54 47.7845 Q1003.46 44.7463 1003.46 39.4801 Q1003.46 33.0797 1007.99 29.5959 Q1012.53 26.1121 1020.88 26.1121 Q1025.01 26.1121 1028.65 26.7198 Q1032.3 27.3274 1035.38 28.5427 Z" fill="#000000" fill-rule="nonzero" fill-opacity="1"></path><path clip-path="url(#clip400)" d="M1082.33 28.9478 L1082.33 35.9153 Q1079.17 34.1734 1075.97 33.3227 Q1072.81 32.4315 1069.57 32.4315 Q1062.32 32.4315 1058.31 37.0496 Q1054.3 41.6271 1054.3 49.9314 Q1054.3 58.2358 1058.31 62.8538 Q1062.32 67.4314 1069.57 67.4314 Q1072.81 67.4314 1075.97 66.5807 Q1079.17 65.6895 1082.33 63.9476 L1082.33 70.8341 Q1079.21 72.2924 1075.85 73.0216 Q1072.52 73.7508 1068.76 73.7508 Q1058.51 73.7508 1052.47 67.3098 Q1046.44 60.8689 1046.44 49.9314 Q1046.44 38.832 1052.51 32.472 Q1058.63 26.1121 1069.24 26.1121 Q1072.69 26.1121 1075.97 26.8413 Q1079.25 27.5299 1082.33 28.9478 Z" fill="#000000" fill-rule="nonzero" fill-opacity="1"></path><path clip-path="url(#clip400)" d="M1095.29 27.2059 L1102.74 27.2059 L1102.74 72.576 L1095.29 72.576 L1095.29 27.2059 M1095.29 9.54393 L1102.74 9.54393 L1102.74 18.9825 L1095.29 18.9825 L1095.29 9.54393 Z" fill="#000000" fill-rule="nonzero" fill-opacity="1"></path><path clip-path="url(#clip400)" d="M1118.34 9.54393 L1125.79 9.54393 L1125.79 72.576 L1118.34 72.576 L1118.34 9.54393 Z" fill="#000000" fill-rule="nonzero" fill-opacity="1"></path><path clip-path="url(#clip400)" d="M1162.01 49.7694 Q1152.98 49.7694 1149.49 51.8354 Q1146.01 53.9013 1146.01 58.8839 Q1146.01 62.8538 1148.6 65.2034 Q1151.23 67.5124 1155.73 67.5124 Q1161.93 67.5124 1165.65 63.1374 Q1169.42 58.7219 1169.42 51.4303 L1169.42 49.7694 L1162.01 49.7694 M1176.88 46.6907 L1176.88 72.576 L1169.42 72.576 L1169.42 65.6895 Q1166.87 69.8214 1163.06 71.8063 Q1159.25 73.7508 1153.75 73.7508 Q1146.78 73.7508 1142.65 69.8619 Q1138.55 65.9325 1138.55 59.3701 Q1138.55 51.7138 1143.66 47.825 Q1148.8 43.9361 1158.97 43.9361 L1169.42 43.9361 L1169.42 43.2069 Q1169.42 38.0623 1166.02 35.2672 Q1162.66 32.4315 1156.54 32.4315 Q1152.65 32.4315 1148.97 33.3632 Q1145.28 34.295 1141.88 36.1584 L1141.88 29.2718 Q1145.97 27.692 1149.82 26.9223 Q1153.66 26.1121 1157.31 26.1121 Q1167.15 26.1121 1172.01 31.2163 Q1176.88 36.3204 1176.88 46.6907 Z" fill="#000000" fill-rule="nonzero" fill-opacity="1"></path><path clip-path="url(#clip400)" d="M1199.6 14.324 L1199.6 27.2059 L1214.95 27.2059 L1214.95 32.9987 L1199.6 32.9987 L1199.6 57.6282 Q1199.6 63.1779 1201.1 64.7578 Q1202.64 66.3376 1207.3 66.3376 L1214.95 66.3376 L1214.95 72.576 L1207.3 72.576 Q1198.67 72.576 1195.39 69.3758 Q1192.11 66.1351 1192.11 57.6282 L1192.11 32.9987 L1186.64 32.9987 L1186.64 27.2059 L1192.11 27.2059 L1192.11 14.324 L1199.6 14.324 Z" fill="#000000" fill-rule="nonzero" fill-opacity="1"></path><path clip-path="url(#clip400)" d="M1224.76 27.2059 L1232.21 27.2059 L1232.21 72.576 L1224.76 72.576 L1224.76 27.2059 M1224.76 9.54393 L1232.21 9.54393 L1232.21 18.9825 L1224.76 18.9825 L1224.76 9.54393 Z" fill="#000000" fill-rule="nonzero" fill-opacity="1"></path><path clip-path="url(#clip400)" d="M1265.39 32.4315 Q1259.39 32.4315 1255.91 37.1306 Q1252.43 41.7891 1252.43 49.9314 Q1252.43 58.0738 1255.87 62.7728 Q1259.35 67.4314 1265.39 67.4314 Q1271.34 67.4314 1274.83 62.7323 Q1278.31 58.0333 1278.31 49.9314 Q1278.31 41.8701 1274.83 37.1711 Q1271.34 32.4315 1265.39 32.4315 M1265.39 26.1121 Q1275.11 26.1121 1280.66 32.4315 Q1286.21 38.7509 1286.21 49.9314 Q1286.21 61.0714 1280.66 67.4314 Q1275.11 73.7508 1265.39 73.7508 Q1255.63 73.7508 1250.08 67.4314 Q1244.57 61.0714 1244.57 49.9314 Q1244.57 38.7509 1250.08 32.4315 Q1255.63 26.1121 1265.39 26.1121 Z" fill="#000000" fill-rule="nonzero" fill-opacity="1"></path><path clip-path="url(#clip400)" d="M1336.28 45.1919 L1336.28 72.576 L1328.83 72.576 L1328.83 45.4349 Q1328.83 38.994 1326.31 35.7938 Q1323.8 32.5936 1318.78 32.5936 Q1312.74 32.5936 1309.26 36.4419 Q1305.78 40.2903 1305.78 46.9338 L1305.78 72.576 L1298.28 72.576 L1298.28 27.2059 L1305.78 27.2059 L1305.78 34.2544 Q1308.45 30.163 1312.05 28.1376 Q1315.7 26.1121 1320.44 26.1121 Q1328.26 26.1121 1332.27 30.9732 Q1336.28 35.7938 1336.28 45.1919 Z" fill="#000000" fill-rule="nonzero" fill-opacity="1"></path><path clip-path="url(#clip400)" d="M1380.07 28.5427 L1380.07 35.5912 Q1376.91 33.9709 1373.51 33.1607 Q1370.1 32.3505 1366.46 32.3505 Q1360.91 32.3505 1358.11 34.0519 Q1355.36 35.7533 1355.36 39.156 Q1355.36 41.7486 1357.34 43.2475 Q1359.33 44.7058 1365.32 46.0426 L1367.88 46.6097 Q1375.82 48.3111 1379.14 51.4303 Q1382.5 54.509 1382.5 60.0587 Q1382.5 66.3781 1377.48 70.0644 Q1372.49 73.7508 1363.74 73.7508 Q1360.1 73.7508 1356.13 73.0216 Q1352.2 72.3329 1347.82 70.9151 L1347.82 63.2184 Q1351.96 65.3654 1355.97 66.4591 Q1359.98 67.5124 1363.91 67.5124 Q1369.17 67.5124 1372.01 65.73 Q1374.84 63.9071 1374.84 60.6258 Q1374.84 57.5877 1372.78 55.9673 Q1370.75 54.3469 1363.83 52.8481 L1361.23 52.2405 Q1354.31 50.7821 1351.23 47.7845 Q1348.15 44.7463 1348.15 39.4801 Q1348.15 33.0797 1352.69 29.5959 Q1357.22 26.1121 1365.57 26.1121 Q1369.7 26.1121 1373.34 26.7198 Q1376.99 27.3274 1380.07 28.5427 Z" fill="#000000" fill-rule="nonzero" fill-opacity="1"></path><path clip-path="url(#clip400)" d="M1450.6 34.0924 L1450.6 9.54393 L1458.05 9.54393 L1458.05 72.576 L1450.6 72.576 L1450.6 65.7705 Q1448.25 69.8214 1444.64 71.8063 Q1441.08 73.7508 1436.05 73.7508 Q1427.83 73.7508 1422.64 67.1883 Q1417.5 60.6258 1417.5 49.9314 Q1417.5 39.2371 1422.64 32.6746 Q1427.83 26.1121 1436.05 26.1121 Q1441.08 26.1121 1444.64 28.0971 Q1448.25 30.0415 1450.6 34.0924 M1425.2 49.9314 Q1425.2 58.1548 1428.56 62.8538 Q1431.96 67.5124 1437.88 67.5124 Q1443.79 67.5124 1447.19 62.8538 Q1450.6 58.1548 1450.6 49.9314 Q1450.6 41.7081 1447.19 37.0496 Q1443.79 32.3505 1437.88 32.3505 Q1431.96 32.3505 1428.56 37.0496 Q1425.2 41.7081 1425.2 49.9314 Z" fill="#000000" fill-rule="nonzero" fill-opacity="1"></path><path clip-path="url(#clip400)" d="M1512.21 48.0275 L1512.21 51.6733 L1477.94 51.6733 Q1478.43 59.3701 1482.56 63.421 Q1486.73 67.4314 1494.14 67.4314 Q1498.44 67.4314 1502.45 66.3781 Q1506.5 65.3249 1510.47 63.2184 L1510.47 70.267 Q1506.46 71.9684 1502.24 72.8596 Q1498.03 73.7508 1493.7 73.7508 Q1482.84 73.7508 1476.48 67.4314 Q1470.16 61.1119 1470.16 50.3365 Q1470.16 39.1965 1476.16 32.6746 Q1482.19 26.1121 1492.4 26.1121 Q1501.56 26.1121 1506.86 32.0264 Q1512.21 37.9003 1512.21 48.0275 M1504.76 45.84 Q1504.68 39.7232 1501.31 36.0774 Q1497.99 32.4315 1492.48 32.4315 Q1486.24 32.4315 1482.48 35.9558 Q1478.75 39.4801 1478.18 45.8805 L1504.76 45.84 Z" fill="#000000" fill-rule="nonzero" fill-opacity="1"></path><path clip-path="url(#clip400)" d="M1553.37 28.5427 L1553.37 35.5912 Q1550.21 33.9709 1546.8 33.1607 Q1543.4 32.3505 1539.76 32.3505 Q1534.21 32.3505 1531.41 34.0519 Q1528.66 35.7533 1528.66 39.156 Q1528.66 41.7486 1530.64 43.2475 Q1532.63 44.7058 1538.62 46.0426 L1541.17 46.6097 Q1549.11 48.3111 1552.44 51.4303 Q1555.8 54.509 1555.8 60.0587 Q1555.8 66.3781 1550.77 70.0644 Q1545.79 73.7508 1537.04 73.7508 Q1533.4 73.7508 1529.43 73.0216 Q1525.5 72.3329 1521.12 70.9151 L1521.12 63.2184 Q1525.25 65.3654 1529.26 66.4591 Q1533.27 67.5124 1537.2 67.5124 Q1542.47 67.5124 1545.31 65.73 Q1548.14 63.9071 1548.14 60.6258 Q1548.14 57.5877 1546.08 55.9673 Q1544.05 54.3469 1537.12 52.8481 L1534.53 52.2405 Q1527.6 50.7821 1524.52 47.7845 Q1521.45 44.7463 1521.45 39.4801 Q1521.45 33.0797 1525.98 29.5959 Q1530.52 26.1121 1538.86 26.1121 Q1543 26.1121 1546.64 26.7198 Q1550.29 27.3274 1553.37 28.5427 Z" fill="#000000" fill-rule="nonzero" fill-opacity="1"></path><path clip-path="url(#clip400)" d="M1567.67 27.2059 L1575.12 27.2059 L1575.12 72.576 L1567.67 72.576 L1567.67 27.2059 M1567.67 9.54393 L1575.12 9.54393 L1575.12 18.9825 L1567.67 18.9825 L1567.67 9.54393 Z" fill="#000000" fill-rule="nonzero" fill-opacity="1"></path><path clip-path="url(#clip400)" d="M1617.01 34.1734 Q1615.75 33.4443 1614.25 33.1202 Q1612.79 32.7556 1611.01 32.7556 Q1604.69 32.7556 1601.29 36.8875 Q1597.93 40.9789 1597.93 48.6757 L1597.93 72.576 L1590.43 72.576 L1590.43 27.2059 L1597.93 27.2059 L1597.93 34.2544 Q1600.28 30.1225 1604.04 28.1376 Q1607.81 26.1121 1613.2 26.1121 Q1613.97 26.1121 1614.9 26.2337 Q1615.83 26.3147 1616.97 26.5172 L1617.01 34.1734 Z" fill="#000000" fill-rule="nonzero" fill-opacity="1"></path><path clip-path="url(#clip400)" d="M1661.81 48.0275 L1661.81 51.6733 L1627.54 51.6733 Q1628.03 59.3701 1632.16 63.421 Q1636.33 67.4314 1643.74 67.4314 Q1648.04 67.4314 1652.05 66.3781 Q1656.1 65.3249 1660.07 63.2184 L1660.07 70.267 Q1656.06 71.9684 1651.84 72.8596 Q1647.63 73.7508 1643.3 73.7508 Q1632.44 73.7508 1626.08 67.4314 Q1619.76 61.1119 1619.76 50.3365 Q1619.76 39.1965 1625.76 32.6746 Q1631.79 26.1121 1642 26.1121 Q1651.16 26.1121 1656.46 32.0264 Q1661.81 37.9003 1661.81 48.0275 M1654.36 45.84 Q1654.27 39.7232 1650.91 36.0774 Q1647.59 32.4315 1642.08 32.4315 Q1635.84 32.4315 1632.08 35.9558 Q1628.35 39.4801 1627.78 45.8805 L1654.36 45.84 Z" fill="#000000" fill-rule="nonzero" fill-opacity="1"></path><path clip-path="url(#clip400)" d="M1703.9 34.0924 L1703.9 9.54393 L1711.35 9.54393 L1711.35 72.576 L1703.9 72.576 L1703.9 65.7705 Q1701.55 69.8214 1697.94 71.8063 Q1694.38 73.7508 1689.36 73.7508 Q1681.13 73.7508 1675.95 67.1883 Q1670.8 60.6258 1670.8 49.9314 Q1670.8 39.2371 1675.95 32.6746 Q1681.13 26.1121 1689.36 26.1121 Q1694.38 26.1121 1697.94 28.0971 Q1701.55 30.0415 1703.9 34.0924 M1678.5 49.9314 Q1678.5 58.1548 1681.86 62.8538 Q1685.26 67.5124 1691.18 67.5124 Q1697.09 67.5124 1700.5 62.8538 Q1703.9 58.1548 1703.9 49.9314 Q1703.9 41.7081 1700.5 37.0496 Q1697.09 32.3505 1691.18 32.3505 Q1685.26 32.3505 1681.86 37.0496 Q1678.5 41.7081 1678.5 49.9314 Z" fill="#000000" fill-rule="nonzero" fill-opacity="1"></path><polyline clip-path="url(#clip402)" style="stroke:#009af9; stroke-linecap:round; stroke-linejoin:round; stroke-width:4; stroke-opacity:1; fill:none" points="294.087,1382.96 296.085,1382.96 298.084,1382.96 300.083,1379.53 302.082,1376.09 304.08,1372.66 306.079,1362.35 308.078,1355.48 310.076,1355.48 312.075,1321.14 314.074,1290.23 316.072,1255.88 318.071,1218.1 320.07,1166.58 322.069,1135.67 324.067,1091.02 326.066,1077.28 328.065,1049.81 330.063,1022.33 332.062,963.944 334.061,908.991 336.06,799.085 338.058,716.656 340.057,699.483 342.056,647.964 344.054,620.488 346.053,565.535 348.052,531.189 350.051,510.582 352.049,455.629 354.048,428.152 356.047,435.021 358.045,417.849 360.044,421.283 362.043,400.676 364.041,359.461 366.04,331.985 368.039,325.115 370.038,294.204 372.036,256.424 374.035,270.162 376.034,252.99 378.032,270.162 380.031,256.424 382.03,252.99 384.029,249.555 386.027,239.251 388.026,163.691 390.025,163.691 392.023,163.691 394.022,208.34 396.021,215.209 398.02,194.602 400.018,235.817 402.017,270.162 404.016,294.204 406.014,352.592 408.013,417.849 410.012,469.367 412.01,534.624 414.009,586.142 416.008,647.964 418.007,682.31 420.005,778.478 422.004,843.735 424.003,891.818 426.001,936.468 428,981.117 429.999,1001.72 431.998,1042.94 433.996,1053.24 435.995,1063.55 437.994,1101.33 439.992,1125.37 441.991,1135.67 443.99,1149.41 445.988,1159.71 447.987,1183.76 449.986,1194.06 451.985,1204.36 453.983,1211.23 455.982,1221.54 457.981,1221.54 459.979,1235.27 461.978,1238.71 463.977,1242.14 465.976,1259.32 467.974,1273.06 469.973,1286.79 471.972,1297.1 473.97,1297.1 475.969,1310.84 477.968,1314.27 479.967,1317.7 481.965,1324.57 483.964,1331.44 485.963,1338.31 487.961,1348.62 489.96,1355.48 491.959,1358.92 493.957,1365.79 495.956,1369.22 497.955,1369.22 499.954,1372.66 501.952,1376.09 503.951,1376.09 505.95,1372.66 507.948,1372.66 509.947,1372.66 511.946,1376.09 513.945,1376.09 515.943,1376.09 517.942,1376.09 519.941,1376.09 521.939,1376.09 523.938,1376.09 525.937,1376.09 527.936,1376.09 529.934,1379.53 531.933,1379.53 533.932,1379.53 535.93,1379.53 537.929,1379.53 539.928,1379.53 541.926,1379.53 543.925,1379.53 545.924,1382.96 547.923,1382.96 549.921,1382.96 551.92,1382.96 553.919,1382.96 555.917,1382.96 557.916,1382.96 559.915,1382.96 561.914,1382.96 563.912,1382.96 565.911,1382.96 567.91,1382.96 569.908,1382.96 571.907,1382.96 573.906,1382.96 575.905,1382.96 577.903,1382.96 579.902,1382.96 581.901,1382.96 583.899,1379.53 585.898,1365.79 587.897,1331.44 589.895,1297.1 591.894,1273.06 593.893,1249.01 595.892,1214.67 597.89,1183.76 599.889,1163.15 601.888,1111.63 603.886,1073.85 605.885,1005.16 607.884,946.771 609.883,912.426 611.881,871.211 613.88,826.562 615.879,757.87 617.877,699.483 619.876,706.352 621.875,661.703 623.874,606.75 625.872,562.1 627.871,541.493 629.87,483.105 631.868,455.629 633.867,435.021 635.866,390.372 637.864,386.938 639.863,352.592 641.862,386.938 643.861,380.068 645.859,352.592 647.858,328.55 649.857,328.55 651.855,314.812 653.854,307.943 655.853,294.204 657.852,283.901 659.85,270.162 661.849,263.293 663.848,294.204 665.846,270.162 667.845,225.513 669.844,270.162 671.842,215.209 673.841,201.471 675.84,232.382 677.839,259.859 679.837,249.555 681.836,242.686 683.835,208.34 685.833,201.471 687.832,180.864 689.831,204.906 691.83,225.513 693.828,208.34 695.827,177.429 697.826,160.256 699.824,201.471 701.823,228.948 703.822,246.12 705.821,318.246 707.819,400.676 709.818,486.54 711.817,562.1 713.815,627.357 715.814,678.875 717.813,733.828 719.811,792.216 721.81,854.038 723.809,898.688 725.808,950.206 727.806,974.248 729.805,1005.16 731.804,1025.77 733.802,1053.24 735.801,1077.28 737.8,1104.76 739.799,1132.24 741.797,1159.71 743.796,1176.89 745.795,1200.93 747.793,1211.23 749.792,1221.54 751.791,1238.71 753.79,1252.45 755.788,1259.32 757.787,1273.06 759.786,1293.66 761.784,1303.97 763.783,1310.84 765.782,1317.7 767.78,1321.14 769.779,1328.01 771.778,1328.01 773.777,1331.44 775.775,1331.44 777.774,1334.88 779.773,1338.31 781.771,1338.31 783.77,1345.18 785.769,1348.62 787.768,1352.05 789.766,1352.05 791.765,1358.92 793.764,1365.79 795.762,1365.79 797.761,1365.79 799.76,1372.66 801.759,1376.09 803.757,1376.09 805.756,1379.53 807.755,1382.96 809.753,1386.4 811.752,1386.4 813.751,1386.4 815.749,1386.4 817.748,1386.4 819.747,1386.4 821.746,1382.96 823.744,1382.96 825.743,1382.96 827.742,1382.96 829.74,1382.96 831.739,1382.96 833.738,1382.96 835.737,1382.96 837.735,1386.4 839.734,1386.4 841.733,1386.4 843.731,1386.4 845.73,1386.4 847.729,1386.4 849.728,1386.4 851.726,1386.4 853.725,1386.4 855.724,1386.4 857.722,1386.4 859.721,1386.4 861.72,1386.4 863.718,1386.4 865.717,1386.4 867.716,1386.4 869.715,1386.4 871.713,1386.4 873.712,1386.4 875.711,1386.4 877.709,1386.4 879.708,1386.4 881.707,1386.4 883.706,1382.96 885.704,1376.09 887.703,1379.53 889.702,1379.53 891.7,1372.66 893.699,1372.66 895.698,1362.35 897.696,1341.75 899.695,1328.01 901.694,1286.79 903.693,1259.32 905.691,1200.93 907.69,1094.46 909.689,1025.77 911.687,974.248 913.686,915.86 915.685,854.038 917.684,795.651 919.682,757.87 921.681,689.179 923.68,644.53 925.678,589.577 927.677,517.451 929.676,538.058 931.675,541.493 933.673,558.666 935.672,534.624 937.671,534.624 939.669,503.713 941.668,448.76 943.667,448.76 945.665,417.849 947.664,369.765 949.663,404.11 951.662,404.11 953.66,428.152 955.659,435.021 957.658,400.676 959.656,393.807 961.655,338.854 963.654,325.115 965.653,314.812 967.651,325.115 969.65,328.55 971.649,287.335 973.647,290.77 975.646,318.246 977.645,362.896 979.644,397.241 981.642,448.76 983.641,479.671 985.64,524.32 987.638,593.011 989.637,651.399 991.636,692.614 993.634,737.263 995.633,802.52 997.632,850.604 999.631,884.949 1001.63,922.73 1003.63,946.771 1005.63,981.117 1007.63,1036.07 1009.62,1066.98 1011.62,1094.46 1013.62,1128.8 1015.62,1152.85 1017.62,1187.19 1019.62,1200.93 1021.62,1228.41 1023.62,1255.88 1025.61,1259.32 1027.61,1273.06 1029.61,1283.36 1031.61,1283.36 1033.61,1293.66 1035.61,1307.4 1037.61,1310.84 1039.6,1317.7 1041.6,1317.7 1043.6,1324.57 1045.6,1328.01 1047.6,1334.88 1049.6,1338.31 1051.6,1338.31 1053.6,1341.75 1055.59,1345.18 1057.59,1345.18 1059.59,1348.62 1061.59,1348.62 1063.59,1348.62 1065.59,1348.62 1067.59,1348.62 1069.59,1352.05 1071.58,1352.05 1073.58,1352.05 1075.58,1352.05 1077.58,1355.48 1079.58,1358.92 1081.58,1369.22 1083.58,1369.22 1085.58,1372.66 1087.57,1376.09 1089.57,1376.09 1091.57,1376.09 1093.57,1379.53 1095.57,1379.53 1097.57,1379.53 1099.57,1379.53 1101.56,1382.96 1103.56,1382.96 1105.56,1382.96 1107.56,1386.4 1109.56,1386.4 1111.56,1386.4 1113.56,1386.4 1115.56,1386.4 1117.55,1386.4 1119.55,1386.4 1121.55,1386.4 1123.55,1386.4 1125.55,1386.4 1127.55,1386.4 1129.55,1386.4 1131.55,1386.4 1133.54,1386.4 1135.54,1386.4 1137.54,1386.4 1139.54,1386.4 1141.54,1386.4 1143.54,1386.4 1145.54,1386.4 1147.53,1386.4 1149.53,1386.4 1151.53,1386.4 1153.53,1386.4 1155.53,1386.4 1157.53,1386.4 1159.53,1386.4 1161.53,1386.4 1163.52,1382.96 1165.52,1382.96 1167.52,1382.96 1169.52,1382.96 1171.52,1379.53 1173.52,1376.09 1175.52,1365.79 1177.52,1362.35 1179.51,1362.35 1181.51,1355.48 1183.51,1341.75 1185.51,1334.88 1187.51,1324.57 1189.51,1314.27 1191.51,1276.49 1193.51,1266.19 1195.5,1266.19 1197.5,1238.71 1199.5,1197.49 1201.5,1194.06 1203.5,1135.67 1205.5,1094.46 1207.5,1042.94 1209.49,1005.16 1211.49,970.813 1213.49,946.771 1215.49,926.164 1217.49,902.122 1219.49,902.122 1221.49,847.169 1223.49,802.52 1225.48,781.912 1227.48,716.656 1229.48,692.614 1231.48,668.572 1233.48,637.661 1235.48,558.666 1237.48,489.974 1239.48,465.933 1241.47,479.671 1243.47,465.933 1245.47,428.152 1247.47,417.849 1249.47,421.283 1251.47,356.026 1253.47,338.854 1255.47,352.592 1257.46,283.901 1259.46,266.728 1261.46,242.686 1263.46,249.555 1265.46,301.073 1267.46,297.639 1269.46,273.597 1271.45,301.073 1273.45,325.115 1275.45,352.592 1277.45,404.11 1279.45,465.933 1281.45,548.362 1283.45,606.75 1285.45,647.964 1287.44,692.614 1289.44,751.001 1291.44,816.258 1293.44,881.515 1295.44,905.557 1297.44,946.771 1299.44,970.813 1301.44,1029.2 1303.43,1049.81 1305.43,1066.98 1307.43,1091.02 1309.43,1115.07 1311.43,1139.11 1313.43,1149.41 1315.43,1163.15 1317.43,1173.45 1319.42,1190.63 1321.42,1197.49 1323.42,1221.54 1325.42,1235.27 1327.42,1249.01 1329.42,1255.88 1331.42,1266.19 1333.41,1276.49 1335.41,1279.92 1337.41,1286.79 1339.41,1293.66 1341.41,1300.53 1343.41,1303.97 1345.41,1303.97 1347.41,1310.84 1349.4,1321.14 1351.4,1324.57 1353.4,1328.01 1355.4,1331.44 1357.4,1331.44 1359.4,1331.44 1361.4,1348.62 1363.4,1358.92 1365.39,1362.35 1367.39,1362.35 1369.39,1365.79 1371.39,1365.79 1373.39,1365.79 1375.39,1369.22 1377.39,1369.22 1379.39,1372.66 1381.38,1372.66 1383.38,1372.66 1385.38,1372.66 1387.38,1372.66 1389.38,1376.09 1391.38,1376.09 1393.38,1376.09 1395.37,1376.09 1397.37,1376.09 1399.37,1376.09 1401.37,1376.09 1403.37,1376.09 1405.37,1379.53 1407.37,1379.53 1409.37,1382.96 1411.36,1382.96 1413.36,1382.96 1415.36,1382.96 1417.36,1382.96 1419.36,1382.96 1421.36,1382.96 1423.36,1382.96 1425.36,1386.4 1427.35,1382.96 1429.35,1382.96 1431.35,1382.96 1433.35,1382.96 1435.35,1382.96 1437.35,1382.96 1439.35,1382.96 1441.35,1382.96 1443.34,1382.96 1445.34,1382.96 1447.34,1382.96 1449.34,1382.96 1451.34,1382.96 1453.34,1382.96 1455.34,1382.96 1457.33,1382.96 1459.33,1379.53 1461.33,1379.53 1463.33,1382.96 1465.33,1382.96 1467.33,1382.96 1469.33,1372.66 1471.33,1369.22 1473.32,1355.48 1475.32,1348.62 1477.32,1338.31 1479.32,1338.31 1481.32,1345.18 1483.32,1345.18 1485.32,1328.01 1487.32,1307.4 1489.31,1262.75 1491.31,1252.45 1493.31,1218.1 1495.31,1125.37 1497.31,1070.42 1499.31,1022.33 1501.31,977.683 1503.31,895.253 1505.3,874.646 1507.3,805.954 1509.3,744.132 1511.3,692.614 1513.3,647.964 1515.3,610.184 1517.3,627.357 1519.29,572.404 1521.29,510.582 1523.29,479.671 1525.29,448.76 1527.29,459.063 1529.29,431.587 1531.29,445.325 1533.29,431.587 1535.28,441.891 1537.28,404.11 1539.28,369.765 1541.28,380.068 1543.28,325.115 1545.28,356.026 1547.28,366.33 1549.28,290.77 1551.27,297.639 1553.27,297.639 1555.27,246.12 1557.27,242.686 1559.27,218.644 1561.27,232.382 1563.27,280.466 1565.26,259.859 1567.26,277.031 1569.26,263.293 1571.26,256.424 1573.26,215.209 1575.26,259.859 1577.26,331.985 1579.26,386.938 1581.25,441.891 1583.25,479.671 1585.25,558.666 1587.25,627.357 1589.25,675.441 1591.25,720.09 1593.25,778.478 1595.25,829.996 1597.24,878.08 1599.24,933.033 1601.24,977.683 1603.24,1025.77 1605.24,1066.98 1607.24,1087.59 1609.24,1104.76 1611.24,1132.24 1613.23,1152.85 1615.23,1166.58 1617.23,1180.32 1619.23,1190.63 1621.23,1200.93 1623.23,1218.1 1625.23,1224.97 1627.22,1235.27 1629.22,1242.14 1631.22,1255.88 1633.22,1259.32 1635.22,1269.62 1637.22,1283.36 1639.22,1286.79 1641.22,1303.97 1643.21,1310.84 1645.21,1317.7 1647.21,1328.01 1649.21,1331.44 1651.21,1331.44 1653.21,1341.75 1655.21,1341.75 1657.21,1345.18 1659.2,1345.18 1661.2,1355.48 1663.2,1355.48 1665.2,1355.48 1667.2,1362.35 1669.2,1372.66 1671.2,1372.66 1673.2,1372.66 1675.19,1372.66 1677.19,1372.66 1679.19,1372.66 1681.19,1372.66 1683.19,1372.66 1685.19,1376.09 1687.19,1376.09 1689.18,1379.53 1691.18,1379.53 1693.18,1379.53 1695.18,1379.53 1697.18,1379.53 1699.18,1379.53 1701.18,1382.96 1703.18,1382.96 1705.17,1382.96 1707.17,1382.96 1709.17,1382.96 1711.17,1382.96 1713.17,1382.96 1715.17,1382.96 1717.17,1382.96 1719.17,1382.96 1721.16,1382.96 1723.16,1382.96 1725.16,1382.96 1727.16,1382.96 1729.16,1382.96 1731.16,1382.96 1733.16,1382.96 1735.16,1382.96 1737.15,1386.4 1739.15,1386.4 1741.15,1386.4 1743.15,1386.4 1745.15,1386.4 1747.15,1386.4 1749.15,1386.4 1751.14,1386.4 1753.14,1386.4 1755.14,1386.4 1757.14,1386.4 1759.14,1382.96 1761.14,1382.96 1763.14,1382.96 1765.14,1382.96 1767.13,1379.53 1769.13,1376.09 1771.13,1376.09 1773.13,1376.09 1775.13,1365.79 1777.13,1362.35 1779.13,1348.62 1781.13,1341.75 1783.12,1324.57 1785.12,1300.53 1787.12,1235.27 1789.12,1183.76 1791.12,1118.5 1793.12,1060.11 1795.12,1015.46 1797.12,943.337 1799.11,888.384 1801.11,829.996 1803.11,823.127 1805.11,751.001 1807.11,689.179 1809.11,699.483 1811.11,696.048 1813.1,630.792 1815.1,617.053 1817.1,551.797 1819.1,548.362 1821.1,514.016 1823.1,503.713 1825.1,462.498 1827.1,489.974 1829.09,459.063 1831.09,421.283 1833.09,383.503 1835.09,376.634 1837.09,390.372 1839.09,383.503 1841.09,383.503 1843.09,373.199 1845.08,342.288 1847.08,362.896 1849.08,342.288 1851.08,338.854 1853.08,342.288 1855.08,338.854 1857.08,287.335 1859.08,215.209 1861.07,222.078 1863.07,184.298 1865.07,242.686 1867.07,211.775 1869.07,283.901 1871.07,311.377 1873.07,359.461 1875.06,410.979 1877.06,462.498 1879.06,493.409 1881.06,565.535 1883.06,634.226 1885.06,682.31 1887.06,757.87 1889.06,785.347 1891.05,843.735 1893.05,867.776 1895.05,908.991 1897.05,943.337 1899.05,981.117 1901.05,1018.9 1903.05,1049.81 1905.05,1084.15 1907.04,1111.63 1909.04,1135.67 1911.04,1163.15 1913.04,1180.32 1915.04,1200.93 1917.04,1231.84 1919.04,1245.58 1921.03,1252.45 1923.03,1269.62 1925.03,1279.92 1927.03,1290.23 1929.03,1297.1 1931.03,1307.4 1933.03,1317.7 1935.03,1328.01 1937.02,1328.01 1939.02,1334.88 1941.02,1338.31 1943.02,1341.75 1945.02,1348.62 1947.02,1348.62 1949.02,1352.05 1951.02,1352.05 1953.01,1358.92 1955.01,1358.92 1957.01,1362.35 1959.01,1362.35 1961.01,1365.79 1963.01,1372.66 1965.01,1372.66 1967.01,1372.66 1969,1376.09 1971,1379.53 1973,1379.53 1975,1379.53 1977,1379.53 1979,1379.53 1981,1382.96 1982.99,1386.4 1984.99,1386.4 1986.99,1386.4 1988.99,1386.4 1990.99,1386.4 1992.99,1386.4 1994.99,1386.4 1996.99,1386.4 1998.98,1386.4 2000.98,1386.4 2002.98,1386.4 2004.98,1386.4 2006.98,1386.4 2008.98,1386.4 2010.98,1386.4 2012.98,1386.4 2014.97,1386.4 2016.97,1386.4 2018.97,1386.4 2020.97,1386.4 2022.97,1386.4 2024.97,1386.4 2026.97,1386.4 2028.97,1386.4 2030.96,1386.4 2032.96,1386.4 2034.96,1386.4 2036.96,1386.4 2038.96,1386.4 2040.96,1386.4 2042.96,1386.4 2044.95,1386.4 2046.95,1386.4 2048.95,1386.4 2050.95,1386.4 2052.95,1386.4 2054.95,1386.4 2056.95,1386.4 2058.95,1386.4 2060.94,1382.96 2062.94,1382.96 2064.94,1379.53 2066.94,1376.09 2068.94,1372.66 2070.94,1369.22 2072.94,1362.35 2074.94,1358.92 2076.93,1348.62 2078.93,1317.7 2080.93,1300.53 2082.93,1262.75 2084.93,1228.41 2086.93,1190.63 2088.93,1166.58 2090.93,1132.24 2092.92,1108.2 2094.92,1073.85 2096.92,1029.2 2098.92,1022.33 2100.92,974.248 2102.92,939.902 2104.92,881.515 2106.91,867.776 2108.91,805.954 2110.91,768.174 2112.91,706.352 2114.91,668.572 2116.91,654.834 2118.91,627.357 2120.91,617.053 2122.9,568.969 2124.9,558.666 2126.9,520.886 2128.9,507.147 2130.9,448.76 2132.9,448.76 2134.9,417.849 2136.9,397.241 2138.89,393.807 2140.89,397.241 2142.89,342.288 2144.89,328.55 2146.89,318.246 2148.89,280.466 2150.89,283.901 2152.89,259.859 2154.88,273.597 2156.88,249.555 2158.88,252.99 2160.88,325.115 2162.88,404.11 2164.88,465.933 2166.88,551.797 2168.87,623.922 2170.87,696.048 2172.87,775.043 2174.87,812.823 2176.87,850.604 2178.87,881.515 2180.87,915.86 2182.87,936.468 2184.86,974.248 2186.86,1018.9 2188.86,1060.11 2190.86,1101.33 2192.86,1118.5 2194.86,1142.54 2196.86,1166.58 2198.86,1190.63 2200.85,1197.49 2202.85,1211.23 2204.85,1221.54 2206.85,1235.27 2208.85,1252.45 2210.85,1269.62 2212.85,1279.92 2214.85,1293.66 2216.84,1303.97 2218.84,1314.27 2220.84,1324.57 2222.84,1328.01 2224.84,1338.31 2226.84,1341.75 2228.84,1341.75 2230.83,1345.18 2232.83,1352.05 2234.83,1355.48 2236.83,1355.48 2238.83,1358.92 2240.83,1365.79 2242.83,1369.22 2244.83,1369.22 2246.82,1369.22 2248.82,1369.22 2250.82,1369.22 2252.82,1369.22 2254.82,1369.22 2256.82,1369.22 2258.82,1369.22 2260.82,1372.66 2262.81,1372.66 2264.81,1379.53 2266.81,1379.53 2268.81,1376.09 2270.81,1376.09 2272.81,1376.09 2274.81,1376.09 2276.81,1379.53 2278.8,1379.53 2280.8,1379.53 2282.8,1379.53 2284.8,1379.53 2286.8,1379.53 2288.8,1379.53 2290.8,1379.53 2292.79,1382.96 "></polyline>
</svg>