<svg xmlns="http://www.w3.org/2000/svg" xmlns:xlink="http://www.w3.org/1999/xlink" width="600" height="400" viewBox="0 0 2400 1600">
<defs>
  <clipPath id="clip240">
    <rect x="0" y="0" width="2400" height="1600"></rect>
  </clipPath>
</defs>
<path clip-path="url(#clip240)" d="M0 1600 L2400 1600 L2400 8.88178e-14 L0 8.88178e-14  Z" fill="#ffffff" fill-rule="evenodd" fill-opacity="1"></path>
<defs>
  <clipPath id="clip241">
    <rect x="480" y="0" width="1681" height="1600"></rect>
  </clipPath>
</defs>
<path clip-path="url(#clip240)" d="M235.283 1423.18 L2352.76 1423.18 L2352.76 123.472 L235.283 123.472  Z" fill="#ffffff" fill-rule="evenodd" fill-opacity="1"></path>
<defs>
  <clipPath id="clip242">
    <rect x="235" y="123" width="2118" height="1301"></rect>
  </clipPath>
</defs>
<polyline clip-path="url(#clip242)" style="stroke:#000000; stroke-linecap:round; stroke-linejoin:round; stroke-width:2; stroke-opacity:0.1; fill:none" points="293.214,1423.18 293.214,123.472 "></polyline>
<polyline clip-path="url(#clip242)" style="stroke:#000000; stroke-linecap:round; stroke-linejoin:round; stroke-width:2; stroke-opacity:0.1; fill:none" points="792.618,1423.18 792.618,123.472 "></polyline>
<polyline clip-path="url(#clip242)" style="stroke:#000000; stroke-linecap:round; stroke-linejoin:round; stroke-width:2; stroke-opacity:0.1; fill:none" points="1292.02,1423.18 1292.02,123.472 "></polyline>
<polyline clip-path="url(#clip242)" style="stroke:#000000; stroke-linecap:round; stroke-linejoin:round; stroke-width:2; stroke-opacity:0.1; fill:none" points="1791.43,1423.18 1791.43,123.472 "></polyline>
<polyline clip-path="url(#clip242)" style="stroke:#000000; stroke-linecap:round; stroke-linejoin:round; stroke-width:2; stroke-opacity:0.1; fill:none" points="2290.83,1423.18 2290.83,123.472 "></polyline>
<polyline clip-path="url(#clip242)" style="stroke:#000000; stroke-linecap:round; stroke-linejoin:round; stroke-width:2; stroke-opacity:0.1; fill:none" points="235.283,1386.4 2352.76,1386.4 "></polyline>
<polyline clip-path="url(#clip242)" style="stroke:#000000; stroke-linecap:round; stroke-linejoin:round; stroke-width:2; stroke-opacity:0.1; fill:none" points="235.283,1107.73 2352.76,1107.73 "></polyline>
<polyline clip-path="url(#clip242)" style="stroke:#000000; stroke-linecap:round; stroke-linejoin:round; stroke-width:2; stroke-opacity:0.1; fill:none" points="235.283,829.06 2352.76,829.06 "></polyline>
<polyline clip-path="url(#clip242)" style="stroke:#000000; stroke-linecap:round; stroke-linejoin:round; stroke-width:2; stroke-opacity:0.1; fill:none" points="235.283,550.392 2352.76,550.392 "></polyline>
<polyline clip-path="url(#clip242)" style="stroke:#000000; stroke-linecap:round; stroke-linejoin:round; stroke-width:2; stroke-opacity:0.1; fill:none" points="235.283,271.724 2352.76,271.724 "></polyline>
<polyline clip-path="url(#clip240)" style="stroke:#000000; stroke-linecap:round; stroke-linejoin:round; stroke-width:4; stroke-opacity:1; fill:none" points="235.283,1423.18 2352.76,1423.18 "></polyline>
<polyline clip-path="url(#clip240)" style="stroke:#000000; stroke-linecap:round; stroke-linejoin:round; stroke-width:4; stroke-opacity:1; fill:none" points="293.214,1423.18 293.214,1404.28 "></polyline>
<polyline clip-path="url(#clip240)" style="stroke:#000000; stroke-linecap:round; stroke-linejoin:round; stroke-width:4; stroke-opacity:1; fill:none" points="792.618,1423.18 792.618,1404.28 "></polyline>
<polyline clip-path="url(#clip240)" style="stroke:#000000; stroke-linecap:round; stroke-linejoin:round; stroke-width:4; stroke-opacity:1; fill:none" points="1292.02,1423.18 1292.02,1404.28 "></polyline>
<polyline clip-path="url(#clip240)" style="stroke:#000000; stroke-linecap:round; stroke-linejoin:round; stroke-width:4; stroke-opacity:1; fill:none" points="1791.43,1423.18 1791.43,1404.28 "></polyline>
<polyline clip-path="url(#clip240)" style="stroke:#000000; stroke-linecap:round; stroke-linejoin:round; stroke-width:4; stroke-opacity:1; fill:none" points="2290.83,1423.18 2290.83,1404.28 "></polyline>
<path clip-path="url(#clip240)" d="M293.214 1454.1 Q289.603 1454.1 287.774 1457.66 Q285.968 1461.2 285.968 1468.33 Q285.968 1475.44 287.774 1479.01 Q289.603 1482.55 293.214 1482.55 Q296.848 1482.55 298.654 1479.01 Q300.482 1475.44 300.482 1468.33 Q300.482 1461.2 298.654 1457.66 Q296.848 1454.1 293.214 1454.1 M293.214 1450.39 Q299.024 1450.39 302.079 1455 Q305.158 1459.58 305.158 1468.33 Q305.158 1477.06 302.079 1481.67 Q299.024 1486.25 293.214 1486.25 Q287.404 1486.25 284.325 1481.67 Q281.269 1477.06 281.269 1468.33 Q281.269 1459.58 284.325 1455 Q287.404 1450.39 293.214 1450.39 Z" fill="#000000" fill-rule="nonzero" fill-opacity="1"></path><path clip-path="url(#clip240)" d="M756.31 1481.64 L772.629 1481.64 L772.629 1485.58 L750.685 1485.58 L750.685 1481.64 Q753.347 1478.89 757.93 1474.26 Q762.537 1469.61 763.717 1468.27 Q765.963 1465.74 766.842 1464.01 Q767.745 1462.25 767.745 1460.56 Q767.745 1457.8 765.801 1456.07 Q763.879 1454.33 760.778 1454.33 Q758.579 1454.33 756.125 1455.09 Q753.694 1455.86 750.917 1457.41 L750.917 1452.69 Q753.741 1451.55 756.194 1450.97 Q758.648 1450.39 760.685 1450.39 Q766.055 1450.39 769.25 1453.08 Q772.444 1455.77 772.444 1460.26 Q772.444 1462.39 771.634 1464.31 Q770.847 1466.2 768.741 1468.8 Q768.162 1469.47 765.06 1472.69 Q761.958 1475.88 756.31 1481.64 Z" fill="#000000" fill-rule="nonzero" fill-opacity="1"></path><path clip-path="url(#clip240)" d="M782.49 1451.02 L800.847 1451.02 L800.847 1454.96 L786.773 1454.96 L786.773 1463.43 Q787.791 1463.08 788.81 1462.92 Q789.828 1462.73 790.847 1462.73 Q796.634 1462.73 800.014 1465.9 Q803.393 1469.08 803.393 1474.49 Q803.393 1480.07 799.921 1483.17 Q796.449 1486.25 790.129 1486.25 Q787.953 1486.25 785.685 1485.88 Q783.44 1485.51 781.032 1484.77 L781.032 1480.07 Q783.115 1481.2 785.338 1481.76 Q787.56 1482.32 790.037 1482.32 Q794.041 1482.32 796.379 1480.21 Q798.717 1478.1 798.717 1474.49 Q798.717 1470.88 796.379 1468.77 Q794.041 1466.67 790.037 1466.67 Q788.162 1466.67 786.287 1467.08 Q784.435 1467.5 782.49 1468.38 L782.49 1451.02 Z" fill="#000000" fill-rule="nonzero" fill-opacity="1"></path><path clip-path="url(#clip240)" d="M822.606 1454.1 Q818.995 1454.1 817.166 1457.66 Q815.361 1461.2 815.361 1468.33 Q815.361 1475.44 817.166 1479.01 Q818.995 1482.55 822.606 1482.55 Q826.24 1482.55 828.046 1479.01 Q829.874 1475.44 829.874 1468.33 Q829.874 1461.2 828.046 1457.66 Q826.24 1454.1 822.606 1454.1 M822.606 1450.39 Q828.416 1450.39 831.472 1455 Q834.55 1459.58 834.55 1468.33 Q834.55 1477.06 831.472 1481.67 Q828.416 1486.25 822.606 1486.25 Q816.796 1486.25 813.717 1481.67 Q810.662 1477.06 810.662 1468.33 Q810.662 1459.58 813.717 1455 Q816.796 1450.39 822.606 1450.39 Z" fill="#000000" fill-rule="nonzero" fill-opacity="1"></path><path clip-path="url(#clip240)" d="M1251.64 1451.02 L1270 1451.02 L1270 1454.96 L1255.92 1454.96 L1255.92 1463.43 Q1256.94 1463.08 1257.96 1462.92 Q1258.98 1462.73 1260 1462.73 Q1265.78 1462.73 1269.16 1465.9 Q1272.54 1469.08 1272.54 1474.49 Q1272.54 1480.07 1269.07 1483.17 Q1265.6 1486.25 1259.28 1486.25 Q1257.1 1486.25 1254.83 1485.88 Q1252.59 1485.51 1250.18 1484.77 L1250.18 1480.07 Q1252.27 1481.2 1254.49 1481.76 Q1256.71 1482.32 1259.19 1482.32 Q1263.19 1482.32 1265.53 1480.21 Q1267.87 1478.1 1267.87 1474.49 Q1267.87 1470.88 1265.53 1468.77 Q1263.19 1466.67 1259.19 1466.67 Q1257.31 1466.67 1255.44 1467.08 Q1253.58 1467.5 1251.64 1468.38 L1251.64 1451.02 Z" fill="#000000" fill-rule="nonzero" fill-opacity="1"></path><path clip-path="url(#clip240)" d="M1291.76 1454.1 Q1288.14 1454.1 1286.32 1457.66 Q1284.51 1461.2 1284.51 1468.33 Q1284.51 1475.44 1286.32 1479.01 Q1288.14 1482.55 1291.76 1482.55 Q1295.39 1482.55 1297.2 1479.01 Q1299.02 1475.44 1299.02 1468.33 Q1299.02 1461.2 1297.2 1457.66 Q1295.39 1454.1 1291.76 1454.1 M1291.76 1450.39 Q1297.57 1450.39 1300.62 1455 Q1303.7 1459.58 1303.7 1468.33 Q1303.7 1477.06 1300.62 1481.67 Q1297.57 1486.25 1291.76 1486.25 Q1285.95 1486.25 1282.87 1481.67 Q1279.81 1477.06 1279.81 1468.33 Q1279.81 1459.58 1282.87 1455 Q1285.95 1450.39 1291.76 1450.39 Z" fill="#000000" fill-rule="nonzero" fill-opacity="1"></path><path clip-path="url(#clip240)" d="M1321.92 1454.1 Q1318.31 1454.1 1316.48 1457.66 Q1314.67 1461.2 1314.67 1468.33 Q1314.67 1475.44 1316.48 1479.01 Q1318.31 1482.55 1321.92 1482.55 Q1325.55 1482.55 1327.36 1479.01 Q1329.19 1475.44 1329.19 1468.33 Q1329.19 1461.2 1327.36 1457.66 Q1325.55 1454.1 1321.92 1454.1 M1321.92 1450.39 Q1327.73 1450.39 1330.78 1455 Q1333.86 1459.58 1333.86 1468.33 Q1333.86 1477.06 1330.78 1481.67 Q1327.73 1486.25 1321.92 1486.25 Q1316.11 1486.25 1313.03 1481.67 Q1309.97 1477.06 1309.97 1468.33 Q1309.97 1459.58 1313.03 1455 Q1316.11 1450.39 1321.92 1450.39 Z" fill="#000000" fill-rule="nonzero" fill-opacity="1"></path><path clip-path="url(#clip240)" d="M1749.7 1451.02 L1771.92 1451.02 L1771.92 1453.01 L1759.38 1485.58 L1754.49 1485.58 L1766.3 1454.96 L1749.7 1454.96 L1749.7 1451.02 Z" fill="#000000" fill-rule="nonzero" fill-opacity="1"></path><path clip-path="url(#clip240)" d="M1781.09 1451.02 L1799.45 1451.02 L1799.45 1454.96 L1785.37 1454.96 L1785.37 1463.43 Q1786.39 1463.08 1787.41 1462.92 Q1788.43 1462.73 1789.45 1462.73 Q1795.23 1462.73 1798.61 1465.9 Q1801.99 1469.08 1801.99 1474.49 Q1801.99 1480.07 1798.52 1483.17 Q1795.05 1486.25 1788.73 1486.25 Q1786.55 1486.25 1784.28 1485.88 Q1782.04 1485.51 1779.63 1484.77 L1779.63 1480.07 Q1781.72 1481.2 1783.94 1481.76 Q1786.16 1482.32 1788.64 1482.32 Q1792.64 1482.32 1794.98 1480.21 Q1797.32 1478.1 1797.32 1474.49 Q1797.32 1470.88 1794.98 1468.77 Q1792.64 1466.67 1788.64 1466.67 Q1786.76 1466.67 1784.89 1467.08 Q1783.03 1467.5 1781.09 1468.38 L1781.09 1451.02 Z" fill="#000000" fill-rule="nonzero" fill-opacity="1"></path><path clip-path="url(#clip240)" d="M1821.21 1454.1 Q1817.59 1454.1 1815.77 1457.66 Q1813.96 1461.2 1813.96 1468.33 Q1813.96 1475.44 1815.77 1479.01 Q1817.59 1482.55 1821.21 1482.55 Q1824.84 1482.55 1826.65 1479.01 Q1828.47 1475.44 1828.47 1468.33 Q1828.47 1461.2 1826.65 1457.66 Q1824.84 1454.1 1821.21 1454.1 M1821.21 1450.39 Q1827.02 1450.39 1830.07 1455 Q1833.15 1459.58 1833.15 1468.33 Q1833.15 1477.06 1830.07 1481.67 Q1827.02 1486.25 1821.21 1486.25 Q1815.4 1486.25 1812.32 1481.67 Q1809.26 1477.06 1809.26 1468.33 Q1809.26 1459.58 1812.32 1455 Q1815.4 1450.39 1821.21 1450.39 Z" fill="#000000" fill-rule="nonzero" fill-opacity="1"></path><path clip-path="url(#clip240)" d="M2235.36 1481.64 L2242.99 1481.64 L2242.99 1455.28 L2234.68 1456.95 L2234.68 1452.69 L2242.95 1451.02 L2247.62 1451.02 L2247.62 1481.64 L2255.26 1481.64 L2255.26 1485.58 L2235.36 1485.58 L2235.36 1481.64 Z" fill="#000000" fill-rule="nonzero" fill-opacity="1"></path><path clip-path="url(#clip240)" d="M2274.71 1454.1 Q2271.1 1454.1 2269.27 1457.66 Q2267.46 1461.2 2267.46 1468.33 Q2267.46 1475.44 2269.27 1479.01 Q2271.1 1482.55 2274.71 1482.55 Q2278.34 1482.55 2280.15 1479.01 Q2281.98 1475.44 2281.98 1468.33 Q2281.98 1461.2 2280.15 1457.66 Q2278.34 1454.1 2274.71 1454.1 M2274.71 1450.39 Q2280.52 1450.39 2283.57 1455 Q2286.65 1459.58 2286.65 1468.33 Q2286.65 1477.06 2283.57 1481.67 Q2280.52 1486.25 2274.71 1486.25 Q2268.9 1486.25 2265.82 1481.67 Q2262.76 1477.06 2262.76 1468.33 Q2262.76 1459.58 2265.82 1455 Q2268.9 1450.39 2274.71 1450.39 Z" fill="#000000" fill-rule="nonzero" fill-opacity="1"></path><path clip-path="url(#clip240)" d="M2304.87 1454.1 Q2301.26 1454.1 2299.43 1457.66 Q2297.62 1461.2 2297.62 1468.33 Q2297.62 1475.44 2299.43 1479.01 Q2301.26 1482.55 2304.87 1482.55 Q2308.5 1482.55 2310.31 1479.01 Q2312.14 1475.44 2312.14 1468.33 Q2312.14 1461.2 2310.31 1457.66 Q2308.5 1454.1 2304.87 1454.1 M2304.87 1450.39 Q2310.68 1450.39 2313.73 1455 Q2316.81 1459.58 2316.81 1468.33 Q2316.81 1477.06 2313.73 1481.67 Q2310.68 1486.25 2304.87 1486.25 Q2299.06 1486.25 2295.98 1481.67 Q2292.92 1477.06 2292.92 1468.33 Q2292.92 1459.58 2295.98 1455 Q2299.06 1450.39 2304.87 1450.39 Z" fill="#000000" fill-rule="nonzero" fill-opacity="1"></path><path clip-path="url(#clip240)" d="M2335.03 1454.1 Q2331.42 1454.1 2329.59 1457.66 Q2327.79 1461.2 2327.79 1468.33 Q2327.79 1475.44 2329.59 1479.01 Q2331.42 1482.55 2335.03 1482.55 Q2338.67 1482.55 2340.47 1479.01 Q2342.3 1475.44 2342.3 1468.33 Q2342.3 1461.2 2340.47 1457.66 Q2338.67 1454.1 2335.03 1454.1 M2335.03 1450.39 Q2340.84 1450.39 2343.9 1455 Q2346.98 1459.58 2346.98 1468.33 Q2346.98 1477.06 2343.9 1481.67 Q2340.84 1486.25 2335.03 1486.25 Q2329.22 1486.25 2326.14 1481.67 Q2323.09 1477.06 2323.09 1468.33 Q2323.09 1459.58 2326.14 1455 Q2329.22 1450.39 2335.03 1450.39 Z" fill="#000000" fill-rule="nonzero" fill-opacity="1"></path><path clip-path="url(#clip240)" d="M1233.18 1522.27 L1233.18 1532.4 L1245.24 1532.4 L1245.24 1536.95 L1233.18 1536.95 L1233.18 1556.3 Q1233.18 1560.66 1234.36 1561.9 Q1235.57 1563.14 1239.23 1563.14 L1245.24 1563.14 L1245.24 1568.04 L1239.23 1568.04 Q1232.45 1568.04 1229.87 1565.53 Q1227.29 1562.98 1227.29 1556.3 L1227.29 1536.95 L1222.99 1536.95 L1222.99 1532.4 L1227.29 1532.4 L1227.29 1522.27 L1233.18 1522.27 Z" fill="#000000" fill-rule="nonzero" fill-opacity="1"></path><path clip-path="url(#clip240)" d="M1252.94 1532.4 L1258.8 1532.4 L1258.8 1568.04 L1252.94 1568.04 L1252.94 1532.4 M1252.94 1518.52 L1258.8 1518.52 L1258.8 1525.93 L1252.94 1525.93 L1252.94 1518.52 Z" fill="#000000" fill-rule="nonzero" fill-opacity="1"></path><path clip-path="url(#clip240)" d="M1298.81 1539.24 Q1301.01 1535.29 1304.06 1533.41 Q1307.12 1531.54 1311.25 1531.54 Q1316.82 1531.54 1319.85 1535.45 Q1322.87 1539.33 1322.87 1546.53 L1322.87 1568.04 L1316.98 1568.04 L1316.98 1546.72 Q1316.98 1541.59 1315.17 1539.11 Q1313.36 1536.63 1309.63 1536.63 Q1305.08 1536.63 1302.44 1539.65 Q1299.8 1542.68 1299.8 1547.9 L1299.8 1568.04 L1293.91 1568.04 L1293.91 1546.72 Q1293.91 1541.56 1292.09 1539.11 Q1290.28 1536.63 1286.49 1536.63 Q1282 1536.63 1279.36 1539.68 Q1276.72 1542.71 1276.72 1547.9 L1276.72 1568.04 L1270.83 1568.04 L1270.83 1532.4 L1276.72 1532.4 L1276.72 1537.93 Q1278.73 1534.66 1281.53 1533.1 Q1284.33 1531.54 1288.18 1531.54 Q1292.06 1531.54 1294.77 1533.51 Q1297.5 1535.48 1298.81 1539.24 Z" fill="#000000" fill-rule="nonzero" fill-opacity="1"></path><path clip-path="url(#clip240)" d="M1365.04 1548.76 L1365.04 1551.62 L1338.12 1551.62 Q1338.5 1557.67 1341.75 1560.85 Q1345.02 1564 1350.85 1564 Q1354.22 1564 1357.37 1563.17 Q1360.56 1562.35 1363.68 1560.69 L1363.68 1566.23 Q1360.53 1567.57 1357.21 1568.27 Q1353.9 1568.97 1350.5 1568.97 Q1341.97 1568.97 1336.97 1564 Q1332.01 1559.04 1332.01 1550.57 Q1332.01 1541.82 1336.72 1536.69 Q1341.46 1531.54 1349.48 1531.54 Q1356.67 1531.54 1360.84 1536.18 Q1365.04 1540.8 1365.04 1548.76 M1359.19 1547.04 Q1359.12 1542.23 1356.48 1539.37 Q1353.87 1536.5 1349.54 1536.5 Q1344.64 1536.5 1341.68 1539.27 Q1338.75 1542.04 1338.31 1547.07 L1359.19 1547.04 Z" fill="#000000" fill-rule="nonzero" fill-opacity="1"></path><polyline clip-path="url(#clip240)" style="stroke:#000000; stroke-linecap:round; stroke-linejoin:round; stroke-width:4; stroke-opacity:1; fill:none" points="235.283,1423.18 235.283,123.472 "></polyline>
<polyline clip-path="url(#clip240)" style="stroke:#000000; stroke-linecap:round; stroke-linejoin:round; stroke-width:4; stroke-opacity:1; fill:none" points="235.283,1386.4 254.18,1386.4 "></polyline>
<polyline clip-path="url(#clip240)" style="stroke:#000000; stroke-linecap:round; stroke-linejoin:round; stroke-width:4; stroke-opacity:1; fill:none" points="235.283,1107.73 254.18,1107.73 "></polyline>
<polyline clip-path="url(#clip240)" style="stroke:#000000; stroke-linecap:round; stroke-linejoin:round; stroke-width:4; stroke-opacity:1; fill:none" points="235.283,829.06 254.18,829.06 "></polyline>
<polyline clip-path="url(#clip240)" style="stroke:#000000; stroke-linecap:round; stroke-linejoin:round; stroke-width:4; stroke-opacity:1; fill:none" points="235.283,550.392 254.18,550.392 "></polyline>
<polyline clip-path="url(#clip240)" style="stroke:#000000; stroke-linecap:round; stroke-linejoin:round; stroke-width:4; stroke-opacity:1; fill:none" points="235.283,271.724 254.18,271.724 "></polyline>
<path clip-path="url(#clip240)" d="M187.338 1372.19 Q183.727 1372.19 181.899 1375.76 Q180.093 1379.3 180.093 1386.43 Q180.093 1393.54 181.899 1397.1 Q183.727 1400.64 187.338 1400.64 Q190.973 1400.64 192.778 1397.1 Q194.607 1393.54 194.607 1386.43 Q194.607 1379.3 192.778 1375.76 Q190.973 1372.19 187.338 1372.19 M187.338 1368.49 Q193.149 1368.49 196.204 1373.1 Q199.283 1377.68 199.283 1386.43 Q199.283 1395.16 196.204 1399.76 Q193.149 1404.35 187.338 1404.35 Q181.528 1404.35 178.45 1399.76 Q175.394 1395.16 175.394 1386.43 Q175.394 1377.68 178.45 1373.1 Q181.528 1368.49 187.338 1368.49 Z" fill="#000000" fill-rule="nonzero" fill-opacity="1"></path><path clip-path="url(#clip240)" d="M117.825 1121.07 L125.464 1121.07 L125.464 1094.71 L117.154 1096.37 L117.154 1092.11 L125.418 1090.45 L130.093 1090.45 L130.093 1121.07 L137.732 1121.07 L137.732 1125.01 L117.825 1125.01 L117.825 1121.07 Z" fill="#000000" fill-rule="nonzero" fill-opacity="1"></path><path clip-path="url(#clip240)" d="M157.177 1093.53 Q153.566 1093.53 151.737 1097.09 Q149.931 1100.63 149.931 1107.76 Q149.931 1114.87 151.737 1118.43 Q153.566 1121.98 157.177 1121.98 Q160.811 1121.98 162.616 1118.43 Q164.445 1114.87 164.445 1107.76 Q164.445 1100.63 162.616 1097.09 Q160.811 1093.53 157.177 1093.53 M157.177 1089.82 Q162.987 1089.82 166.042 1094.43 Q169.121 1099.01 169.121 1107.76 Q169.121 1116.49 166.042 1121.1 Q162.987 1125.68 157.177 1125.68 Q151.366 1125.68 148.288 1121.1 Q145.232 1116.49 145.232 1107.76 Q145.232 1099.01 148.288 1094.43 Q151.366 1089.82 157.177 1089.82 Z" fill="#000000" fill-rule="nonzero" fill-opacity="1"></path><path clip-path="url(#clip240)" d="M187.338 1093.53 Q183.727 1093.53 181.899 1097.09 Q180.093 1100.63 180.093 1107.76 Q180.093 1114.87 181.899 1118.43 Q183.727 1121.98 187.338 1121.98 Q190.973 1121.98 192.778 1118.43 Q194.607 1114.87 194.607 1107.76 Q194.607 1100.63 192.778 1097.09 Q190.973 1093.53 187.338 1093.53 M187.338 1089.82 Q193.149 1089.82 196.204 1094.43 Q199.283 1099.01 199.283 1107.76 Q199.283 1116.49 196.204 1121.1 Q193.149 1125.68 187.338 1125.68 Q181.528 1125.68 178.45 1121.1 Q175.394 1116.49 175.394 1107.76 Q175.394 1099.01 178.45 1094.43 Q181.528 1089.82 187.338 1089.82 Z" fill="#000000" fill-rule="nonzero" fill-opacity="1"></path><path clip-path="url(#clip240)" d="M121.043 842.404 L137.362 842.404 L137.362 846.34 L115.418 846.34 L115.418 842.404 Q118.08 839.65 122.663 835.02 Q127.269 830.367 128.45 829.025 Q130.695 826.502 131.575 824.766 Q132.478 823.006 132.478 821.317 Q132.478 818.562 130.533 816.826 Q128.612 815.09 125.51 815.09 Q123.311 815.09 120.857 815.854 Q118.427 816.618 115.649 818.168 L115.649 813.446 Q118.473 812.312 120.927 811.733 Q123.38 811.155 125.418 811.155 Q130.788 811.155 133.982 813.84 Q137.177 816.525 137.177 821.016 Q137.177 823.145 136.367 825.067 Q135.579 826.965 133.473 829.557 Q132.894 830.229 129.792 833.446 Q126.691 836.641 121.043 842.404 Z" fill="#000000" fill-rule="nonzero" fill-opacity="1"></path><path clip-path="url(#clip240)" d="M157.177 814.858 Q153.566 814.858 151.737 818.423 Q149.931 821.965 149.931 829.094 Q149.931 836.201 151.737 839.766 Q153.566 843.307 157.177 843.307 Q160.811 843.307 162.616 839.766 Q164.445 836.201 164.445 829.094 Q164.445 821.965 162.616 818.423 Q160.811 814.858 157.177 814.858 M157.177 811.155 Q162.987 811.155 166.042 815.761 Q169.121 820.344 169.121 829.094 Q169.121 837.821 166.042 842.428 Q162.987 847.011 157.177 847.011 Q151.366 847.011 148.288 842.428 Q145.232 837.821 145.232 829.094 Q145.232 820.344 148.288 815.761 Q151.366 811.155 157.177 811.155 Z" fill="#000000" fill-rule="nonzero" fill-opacity="1"></path><path clip-path="url(#clip240)" d="M187.338 814.858 Q183.727 814.858 181.899 818.423 Q180.093 821.965 180.093 829.094 Q180.093 836.201 181.899 839.766 Q183.727 843.307 187.338 843.307 Q190.973 843.307 192.778 839.766 Q194.607 836.201 194.607 829.094 Q194.607 821.965 192.778 818.423 Q190.973 814.858 187.338 814.858 M187.338 811.155 Q193.149 811.155 196.204 815.761 Q199.283 820.344 199.283 829.094 Q199.283 837.821 196.204 842.428 Q193.149 847.011 187.338 847.011 Q181.528 847.011 178.45 842.428 Q175.394 837.821 175.394 829.094 Q175.394 820.344 178.45 815.761 Q181.528 811.155 187.338 811.155 Z" fill="#000000" fill-rule="nonzero" fill-opacity="1"></path><path clip-path="url(#clip240)" d="M131.181 549.037 Q134.538 549.755 136.413 552.023 Q138.311 554.292 138.311 557.625 Q138.311 562.741 134.792 565.542 Q131.274 568.343 124.793 568.343 Q122.617 568.343 120.302 567.903 Q118.01 567.486 115.556 566.63 L115.556 562.116 Q117.501 563.25 119.816 563.829 Q122.13 564.408 124.654 564.408 Q129.052 564.408 131.343 562.672 Q133.658 560.935 133.658 557.625 Q133.658 554.57 131.505 552.857 Q129.376 551.121 125.556 551.121 L121.529 551.121 L121.529 547.278 L125.742 547.278 Q129.191 547.278 131.019 545.912 Q132.848 544.524 132.848 541.931 Q132.848 539.269 130.95 537.857 Q129.075 536.422 125.556 536.422 Q123.635 536.422 121.436 536.838 Q119.237 537.255 116.598 538.135 L116.598 533.968 Q119.26 533.227 121.575 532.857 Q123.913 532.487 125.973 532.487 Q131.297 532.487 134.399 534.917 Q137.501 537.324 137.501 541.445 Q137.501 544.315 135.857 546.306 Q134.214 548.274 131.181 549.037 Z" fill="#000000" fill-rule="nonzero" fill-opacity="1"></path><path clip-path="url(#clip240)" d="M157.177 536.19 Q153.566 536.19 151.737 539.755 Q149.931 543.297 149.931 550.426 Q149.931 557.533 151.737 561.098 Q153.566 564.639 157.177 564.639 Q160.811 564.639 162.616 561.098 Q164.445 557.533 164.445 550.426 Q164.445 543.297 162.616 539.755 Q160.811 536.19 157.177 536.19 M157.177 532.487 Q162.987 532.487 166.042 537.093 Q169.121 541.676 169.121 550.426 Q169.121 559.153 166.042 563.76 Q162.987 568.343 157.177 568.343 Q151.366 568.343 148.288 563.76 Q145.232 559.153 145.232 550.426 Q145.232 541.676 148.288 537.093 Q151.366 532.487 157.177 532.487 Z" fill="#000000" fill-rule="nonzero" fill-opacity="1"></path><path clip-path="url(#clip240)" d="M187.338 536.19 Q183.727 536.19 181.899 539.755 Q180.093 543.297 180.093 550.426 Q180.093 557.533 181.899 561.098 Q183.727 564.639 187.338 564.639 Q190.973 564.639 192.778 561.098 Q194.607 557.533 194.607 550.426 Q194.607 543.297 192.778 539.755 Q190.973 536.19 187.338 536.19 M187.338 532.487 Q193.149 532.487 196.204 537.093 Q199.283 541.676 199.283 550.426 Q199.283 559.153 196.204 563.76 Q193.149 568.343 187.338 568.343 Q181.528 568.343 178.45 563.76 Q175.394 559.153 175.394 550.426 Q175.394 541.676 178.45 537.093 Q181.528 532.487 187.338 532.487 Z" fill="#000000" fill-rule="nonzero" fill-opacity="1"></path><path clip-path="url(#clip240)" d="M129.862 258.518 L118.056 276.967 L129.862 276.967 L129.862 258.518 M128.635 254.444 L134.515 254.444 L134.515 276.967 L139.445 276.967 L139.445 280.855 L134.515 280.855 L134.515 289.004 L129.862 289.004 L129.862 280.855 L114.26 280.855 L114.26 276.342 L128.635 254.444 Z" fill="#000000" fill-rule="nonzero" fill-opacity="1"></path><path clip-path="url(#clip240)" d="M157.177 257.522 Q153.566 257.522 151.737 261.087 Q149.931 264.629 149.931 271.758 Q149.931 278.865 151.737 282.429 Q153.566 285.971 157.177 285.971 Q160.811 285.971 162.616 282.429 Q164.445 278.865 164.445 271.758 Q164.445 264.629 162.616 261.087 Q160.811 257.522 157.177 257.522 M157.177 253.819 Q162.987 253.819 166.042 258.425 Q169.121 263.008 169.121 271.758 Q169.121 280.485 166.042 285.092 Q162.987 289.675 157.177 289.675 Q151.366 289.675 148.288 285.092 Q145.232 280.485 145.232 271.758 Q145.232 263.008 148.288 258.425 Q151.366 253.819 157.177 253.819 Z" fill="#000000" fill-rule="nonzero" fill-opacity="1"></path><path clip-path="url(#clip240)" d="M187.338 257.522 Q183.727 257.522 181.899 261.087 Q180.093 264.629 180.093 271.758 Q180.093 278.865 181.899 282.429 Q183.727 285.971 187.338 285.971 Q190.973 285.971 192.778 282.429 Q194.607 278.865 194.607 271.758 Q194.607 264.629 192.778 261.087 Q190.973 257.522 187.338 257.522 M187.338 253.819 Q193.149 253.819 196.204 258.425 Q199.283 263.008 199.283 271.758 Q199.283 280.485 196.204 285.092 Q193.149 289.675 187.338 289.675 Q181.528 289.675 178.45 285.092 Q175.394 280.485 175.394 271.758 Q175.394 263.008 178.45 258.425 Q181.528 253.819 187.338 253.819 Z" fill="#000000" fill-rule="nonzero" fill-opacity="1"></path><path clip-path="url(#clip240)" d="M44.7161 911.525 L47.5806 911.525 L47.5806 938.452 Q53.6281 938.07 56.8109 934.824 Q59.9619 931.546 59.9619 925.721 Q59.9619 922.347 59.1344 919.196 Q58.3069 916.013 56.6518 912.894 L62.1899 912.894 Q63.5267 916.045 64.227 919.355 Q64.9272 922.665 64.9272 926.071 Q64.9272 934.601 59.9619 939.598 Q54.9967 944.563 46.5303 944.563 Q37.7774 944.563 32.6531 939.853 Q27.4968 935.11 27.4968 927.09 Q27.4968 919.896 32.1438 915.727 Q36.7589 911.525 44.7161 911.525 M42.9973 917.382 Q38.1912 917.446 35.3266 920.087 Q32.4621 922.697 32.4621 927.026 Q32.4621 931.928 35.2312 934.888 Q38.0002 937.816 43.0292 938.261 L42.9973 917.382 Z" fill="#000000" fill-rule="nonzero" fill-opacity="1"></path><path clip-path="url(#clip240)" d="M28.3562 873.427 L45.7028 886.317 L64.0042 872.758 L64.0042 879.665 L49.9996 890.041 L64.0042 900.417 L64.0042 907.324 L45.3526 893.479 L28.3562 906.146 L28.3562 899.24 L41.0558 889.787 L28.3562 880.334 L28.3562 873.427 Z" fill="#000000" fill-rule="nonzero" fill-opacity="1"></path><path clip-path="url(#clip240)" d="M58.657 858.817 L77.5631 858.817 L77.5631 864.706 L28.3562 864.706 L28.3562 858.817 L33.7671 858.817 Q30.5842 856.971 29.0564 854.17 Q27.4968 851.338 27.4968 847.423 Q27.4968 840.93 32.6531 836.888 Q37.8093 832.814 46.212 832.814 Q54.6147 832.814 59.771 836.888 Q64.9272 840.93 64.9272 847.423 Q64.9272 851.338 63.3994 854.17 Q61.8398 856.971 58.657 858.817 M46.212 838.893 Q39.7508 838.893 36.0905 841.566 Q32.3984 844.208 32.3984 848.855 Q32.3984 853.502 36.0905 856.176 Q39.7508 858.817 46.212 858.817 Q52.6732 858.817 56.3653 856.176 Q60.0256 853.502 60.0256 848.855 Q60.0256 844.208 56.3653 841.566 Q52.6732 838.893 46.212 838.893 Z" fill="#000000" fill-rule="nonzero" fill-opacity="1"></path><path clip-path="url(#clip240)" d="M33.8307 802.449 Q33.2578 803.436 33.0032 804.613 Q32.7167 805.759 32.7167 807.16 Q32.7167 812.125 35.9632 814.799 Q39.1779 817.44 45.2253 817.44 L64.0042 817.44 L64.0042 823.329 L28.3562 823.329 L28.3562 817.44 L33.8944 817.44 Q30.6479 815.594 29.0883 812.634 Q27.4968 809.674 27.4968 805.441 Q27.4968 804.836 27.5923 804.104 Q27.656 803.372 27.8151 802.481 L33.8307 802.449 Z" fill="#000000" fill-rule="nonzero" fill-opacity="1"></path><path clip-path="url(#clip240)" d="M44.7161 767.247 L47.5806 767.247 L47.5806 794.174 Q53.6281 793.792 56.8109 790.545 Q59.9619 787.267 59.9619 781.442 Q59.9619 778.068 59.1344 774.917 Q58.3069 771.735 56.6518 768.615 L62.1899 768.615 Q63.5267 771.766 64.227 775.077 Q64.9272 778.387 64.9272 781.792 Q64.9272 790.322 59.9619 795.32 Q54.9967 800.285 46.5303 800.285 Q37.7774 800.285 32.6531 795.574 Q27.4968 790.832 27.4968 782.811 Q27.4968 775.618 32.1438 771.448 Q36.7589 767.247 44.7161 767.247 M42.9973 773.103 Q38.1912 773.167 35.3266 775.809 Q32.4621 778.419 32.4621 782.747 Q32.4621 787.649 35.2312 790.609 Q38.0002 793.537 43.0292 793.983 L42.9973 773.103 Z" fill="#000000" fill-rule="nonzero" fill-opacity="1"></path><path clip-path="url(#clip240)" d="M29.4065 734.909 L34.9447 734.909 Q33.6716 737.392 33.035 740.065 Q32.3984 742.739 32.3984 745.603 Q32.3984 749.964 33.7352 752.16 Q35.072 754.324 37.7456 754.324 Q39.7826 754.324 40.9603 752.765 Q42.1061 751.205 43.1565 746.495 L43.6021 744.489 Q44.9389 738.251 47.3897 735.641 Q49.8086 732.999 54.1691 732.999 Q59.1344 732.999 62.0308 736.946 Q64.9272 740.861 64.9272 747.736 Q64.9272 750.6 64.3543 753.72 Q63.8132 756.807 62.6992 760.244 L56.6518 760.244 Q58.3387 756.998 59.198 753.847 Q60.0256 750.696 60.0256 747.609 Q60.0256 743.471 58.6251 741.243 Q57.1929 739.015 54.6147 739.015 Q52.2276 739.015 50.9545 740.638 Q49.6813 742.23 48.5037 747.672 L48.0262 749.709 Q46.8804 755.152 44.5251 757.571 Q42.138 759.99 38.0002 759.99 Q32.9713 759.99 30.2341 756.425 Q27.4968 752.86 27.4968 746.304 Q27.4968 743.057 27.9743 740.192 Q28.4517 737.328 29.4065 734.909 Z" fill="#000000" fill-rule="nonzero" fill-opacity="1"></path><path clip-path="url(#clip240)" d="M29.4065 700.948 L34.9447 700.948 Q33.6716 703.431 33.035 706.104 Q32.3984 708.778 32.3984 711.642 Q32.3984 716.003 33.7352 718.199 Q35.072 720.363 37.7456 720.363 Q39.7826 720.363 40.9603 718.804 Q42.1061 717.244 43.1565 712.533 L43.6021 710.528 Q44.9389 704.29 47.3897 701.68 Q49.8086 699.038 54.1691 699.038 Q59.1344 699.038 62.0308 702.985 Q64.9272 706.9 64.9272 713.775 Q64.9272 716.639 64.3543 719.759 Q63.8132 722.846 62.6992 726.283 L56.6518 726.283 Q58.3387 723.037 59.198 719.886 Q60.0256 716.735 60.0256 713.647 Q60.0256 709.51 58.6251 707.282 Q57.1929 705.054 54.6147 705.054 Q52.2276 705.054 50.9545 706.677 Q49.6813 708.268 48.5037 713.711 L48.0262 715.748 Q46.8804 721.191 44.5251 723.61 Q42.138 726.029 38.0002 726.029 Q32.9713 726.029 30.2341 722.464 Q27.4968 718.899 27.4968 712.343 Q27.4968 709.096 27.9743 706.231 Q28.4517 703.367 29.4065 700.948 Z" fill="#000000" fill-rule="nonzero" fill-opacity="1"></path><path clip-path="url(#clip240)" d="M28.3562 689.712 L28.3562 683.856 L64.0042 683.856 L64.0042 689.712 L28.3562 689.712 M14.479 689.712 L14.479 683.856 L21.895 683.856 L21.895 689.712 L14.479 689.712 Z" fill="#000000" fill-rule="nonzero" fill-opacity="1"></path><path clip-path="url(#clip240)" d="M32.4621 657.788 Q32.4621 662.499 36.1542 665.236 Q39.8145 667.974 46.212 667.974 Q52.6095 667.974 56.3017 665.268 Q59.9619 662.531 59.9619 657.788 Q59.9619 653.11 56.2698 650.372 Q52.5777 647.635 46.212 647.635 Q39.8781 647.635 36.186 650.372 Q32.4621 653.11 32.4621 657.788 M27.4968 657.788 Q27.4968 650.15 32.4621 645.789 Q37.4273 641.429 46.212 641.429 Q54.9649 641.429 59.9619 645.789 Q64.9272 650.15 64.9272 657.788 Q64.9272 665.459 59.9619 669.82 Q54.9649 674.148 46.212 674.148 Q37.4273 674.148 32.4621 669.82 Q27.4968 665.459 27.4968 657.788 Z" fill="#000000" fill-rule="nonzero" fill-opacity="1"></path><path clip-path="url(#clip240)" d="M42.4881 602.088 L64.0042 602.088 L64.0042 607.945 L42.679 607.945 Q37.6183 607.945 35.1038 609.918 Q32.5894 611.892 32.5894 615.838 Q32.5894 620.581 35.6131 623.318 Q38.6368 626.055 43.8567 626.055 L64.0042 626.055 L64.0042 631.944 L28.3562 631.944 L28.3562 626.055 L33.8944 626.055 Q30.6797 623.955 29.0883 621.122 Q27.4968 618.257 27.4968 614.533 Q27.4968 608.391 31.3163 605.24 Q35.1038 602.088 42.4881 602.088 Z" fill="#000000" fill-rule="nonzero" fill-opacity="1"></path><path clip-path="url(#clip240)" d="M897.193 39.075 Q891.684 39.075 888.443 42.8424 Q885.243 46.6097 885.243 53.1722 Q885.243 59.6941 888.443 63.502 Q891.684 67.2693 897.193 67.2693 Q902.702 67.2693 905.902 63.502 Q909.143 59.6941 909.143 53.1722 Q909.143 46.6097 905.902 42.8424 Q902.702 39.075 897.193 39.075 M913.437 13.4328 L913.437 20.8865 Q910.358 19.4281 907.199 18.6585 Q904.079 17.8888 901.001 17.8888 Q892.899 17.8888 888.605 23.3575 Q884.351 28.8262 883.744 39.8852 Q886.134 36.3609 889.739 34.4975 Q893.344 32.5936 897.679 32.5936 Q906.793 32.5936 912.06 38.1433 Q917.366 43.6525 917.366 53.1722 Q917.366 62.4892 911.857 68.12 Q906.348 73.7508 897.193 73.7508 Q886.701 73.7508 881.151 65.73 Q875.601 57.6687 875.601 42.3968 Q875.601 28.0566 882.407 19.5497 Q889.213 11.0023 900.677 11.0023 Q903.755 11.0023 906.874 11.6099 Q910.034 12.2175 913.437 13.4328 Z" fill="#000000" fill-rule="nonzero" fill-opacity="1"></path><path clip-path="url(#clip240)" d="M974.363 32.4315 Q968.367 32.4315 964.883 37.1306 Q961.4 41.7891 961.4 49.9314 Q961.4 58.0738 964.843 62.7728 Q968.327 67.4314 974.363 67.4314 Q980.317 67.4314 983.801 62.7323 Q987.285 58.0333 987.285 49.9314 Q987.285 41.8701 983.801 37.1711 Q980.317 32.4315 974.363 32.4315 M974.363 26.1121 Q984.085 26.1121 989.634 32.4315 Q995.184 38.7509 995.184 49.9314 Q995.184 61.0714 989.634 67.4314 Q984.085 73.7508 974.363 73.7508 Q964.6 73.7508 959.05 67.4314 Q953.541 61.0714 953.541 49.9314 Q953.541 38.7509 959.05 32.4315 Q964.6 26.1121 974.363 26.1121 Z" fill="#000000" fill-rule="nonzero" fill-opacity="1"></path><path clip-path="url(#clip240)" d="M1036.46 28.5427 L1036.46 35.5912 Q1033.3 33.9709 1029.9 33.1607 Q1026.5 32.3505 1022.85 32.3505 Q1017.3 32.3505 1014.51 34.0519 Q1011.75 35.7533 1011.75 39.156 Q1011.75 41.7486 1013.74 43.2475 Q1015.72 44.7058 1021.72 46.0426 L1024.27 46.6097 Q1032.21 48.3111 1035.53 51.4303 Q1038.89 54.509 1038.89 60.0587 Q1038.89 66.3781 1033.87 70.0644 Q1028.89 73.7508 1020.14 73.7508 Q1016.49 73.7508 1012.52 73.0216 Q1008.59 72.3329 1004.22 70.9151 L1004.22 63.2184 Q1008.35 65.3654 1012.36 66.4591 Q1016.37 67.5124 1020.3 67.5124 Q1025.57 67.5124 1028.4 65.73 Q1031.24 63.9071 1031.24 60.6258 Q1031.24 57.5877 1029.17 55.9673 Q1027.15 54.3469 1020.22 52.8481 L1017.63 52.2405 Q1010.7 50.7821 1007.62 47.7845 Q1004.54 44.7463 1004.54 39.4801 Q1004.54 33.0797 1009.08 29.5959 Q1013.62 26.1121 1021.96 26.1121 Q1026.09 26.1121 1029.74 26.7198 Q1033.38 27.3274 1036.46 28.5427 Z" fill="#000000" fill-rule="nonzero" fill-opacity="1"></path><path clip-path="url(#clip240)" d="M1083.41 28.9478 L1083.41 35.9153 Q1080.25 34.1734 1077.05 33.3227 Q1073.89 32.4315 1070.65 32.4315 Q1063.4 32.4315 1059.39 37.0496 Q1055.38 41.6271 1055.38 49.9314 Q1055.38 58.2358 1059.39 62.8538 Q1063.4 67.4314 1070.65 67.4314 Q1073.89 67.4314 1077.05 66.5807 Q1080.25 65.6895 1083.41 63.9476 L1083.41 70.8341 Q1080.29 72.2924 1076.93 73.0216 Q1073.61 73.7508 1069.84 73.7508 Q1059.59 73.7508 1053.56 67.3098 Q1047.52 60.8689 1047.52 49.9314 Q1047.52 38.832 1053.6 32.472 Q1059.72 26.1121 1070.33 26.1121 Q1073.77 26.1121 1077.05 26.8413 Q1080.33 27.5299 1083.41 28.9478 Z" fill="#000000" fill-rule="nonzero" fill-opacity="1"></path><path clip-path="url(#clip240)" d="M1096.38 27.2059 L1103.83 27.2059 L1103.83 72.576 L1096.38 72.576 L1096.38 27.2059 M1096.38 9.54393 L1103.83 9.54393 L1103.83 18.9825 L1096.38 18.9825 L1096.38 9.54393 Z" fill="#000000" fill-rule="nonzero" fill-opacity="1"></path><path clip-path="url(#clip240)" d="M1119.43 9.54393 L1126.88 9.54393 L1126.88 72.576 L1119.43 72.576 L1119.43 9.54393 Z" fill="#000000" fill-rule="nonzero" fill-opacity="1"></path><path clip-path="url(#clip240)" d="M1163.09 49.7694 Q1154.06 49.7694 1150.58 51.8354 Q1147.09 53.9013 1147.09 58.8839 Q1147.09 62.8538 1149.69 65.2034 Q1152.32 67.5124 1156.82 67.5124 Q1163.01 67.5124 1166.74 63.1374 Q1170.51 58.7219 1170.51 51.4303 L1170.51 49.7694 L1163.09 49.7694 M1177.96 46.6907 L1177.96 72.576 L1170.51 72.576 L1170.51 65.6895 Q1167.96 69.8214 1164.15 71.8063 Q1160.34 73.7508 1154.83 73.7508 Q1147.86 73.7508 1143.73 69.8619 Q1139.64 65.9325 1139.64 59.3701 Q1139.64 51.7138 1144.74 47.825 Q1149.89 43.9361 1160.06 43.9361 L1170.51 43.9361 L1170.51 43.2069 Q1170.51 38.0623 1167.1 35.2672 Q1163.74 32.4315 1157.63 32.4315 Q1153.74 32.4315 1150.05 33.3632 Q1146.36 34.295 1142.96 36.1584 L1142.96 29.2718 Q1147.05 27.692 1150.9 26.9223 Q1154.75 26.1121 1158.4 26.1121 Q1168.24 26.1121 1173.1 31.2163 Q1177.96 36.3204 1177.96 46.6907 Z" fill="#000000" fill-rule="nonzero" fill-opacity="1"></path><path clip-path="url(#clip240)" d="M1200.69 14.324 L1200.69 27.2059 L1216.04 27.2059 L1216.04 32.9987 L1200.69 32.9987 L1200.69 57.6282 Q1200.69 63.1779 1202.19 64.7578 Q1203.72 66.3376 1208.38 66.3376 L1216.04 66.3376 L1216.04 72.576 L1208.38 72.576 Q1199.75 72.576 1196.47 69.3758 Q1193.19 66.1351 1193.19 57.6282 L1193.19 32.9987 L1187.72 32.9987 L1187.72 27.2059 L1193.19 27.2059 L1193.19 14.324 L1200.69 14.324 Z" fill="#000000" fill-rule="nonzero" fill-opacity="1"></path><path clip-path="url(#clip240)" d="M1225.84 27.2059 L1233.3 27.2059 L1233.3 72.576 L1225.84 72.576 L1225.84 27.2059 M1225.84 9.54393 L1233.3 9.54393 L1233.3 18.9825 L1225.84 18.9825 L1225.84 9.54393 Z" fill="#000000" fill-rule="nonzero" fill-opacity="1"></path><path clip-path="url(#clip240)" d="M1266.47 32.4315 Q1260.48 32.4315 1256.99 37.1306 Q1253.51 41.7891 1253.51 49.9314 Q1253.51 58.0738 1256.95 62.7728 Q1260.44 67.4314 1266.47 67.4314 Q1272.43 67.4314 1275.91 62.7323 Q1279.4 58.0333 1279.4 49.9314 Q1279.4 41.8701 1275.91 37.1711 Q1272.43 32.4315 1266.47 32.4315 M1266.47 26.1121 Q1276.2 26.1121 1281.75 32.4315 Q1287.29 38.7509 1287.29 49.9314 Q1287.29 61.0714 1281.75 67.4314 Q1276.2 73.7508 1266.47 73.7508 Q1256.71 73.7508 1251.16 67.4314 Q1245.65 61.0714 1245.65 49.9314 Q1245.65 38.7509 1251.16 32.4315 Q1256.71 26.1121 1266.47 26.1121 Z" fill="#000000" fill-rule="nonzero" fill-opacity="1"></path><path clip-path="url(#clip240)" d="M1337.36 45.1919 L1337.36 72.576 L1329.91 72.576 L1329.91 45.4349 Q1329.91 38.994 1327.4 35.7938 Q1324.89 32.5936 1319.86 32.5936 Q1313.83 32.5936 1310.34 36.4419 Q1306.86 40.2903 1306.86 46.9338 L1306.86 72.576 L1299.37 72.576 L1299.37 27.2059 L1306.86 27.2059 L1306.86 34.2544 Q1309.53 30.163 1313.14 28.1376 Q1316.79 26.1121 1321.53 26.1121 Q1329.34 26.1121 1333.35 30.9732 Q1337.36 35.7938 1337.36 45.1919 Z" fill="#000000" fill-rule="nonzero" fill-opacity="1"></path><path clip-path="url(#clip240)" d="M1381.15 28.5427 L1381.15 35.5912 Q1377.99 33.9709 1374.59 33.1607 Q1371.19 32.3505 1367.54 32.3505 Q1361.99 32.3505 1359.2 34.0519 Q1356.44 35.7533 1356.44 39.156 Q1356.44 41.7486 1358.43 43.2475 Q1360.41 44.7058 1366.41 46.0426 L1368.96 46.6097 Q1376.9 48.3111 1380.22 51.4303 Q1383.58 54.509 1383.58 60.0587 Q1383.58 66.3781 1378.56 70.0644 Q1373.58 73.7508 1364.83 73.7508 Q1361.18 73.7508 1357.21 73.0216 Q1353.28 72.3329 1348.91 70.9151 L1348.91 63.2184 Q1353.04 65.3654 1357.05 66.4591 Q1361.06 67.5124 1364.99 67.5124 Q1370.26 67.5124 1373.09 65.73 Q1375.93 63.9071 1375.93 60.6258 Q1375.93 57.5877 1373.86 55.9673 Q1371.84 54.3469 1364.91 52.8481 L1362.32 52.2405 Q1355.39 50.7821 1352.31 47.7845 Q1349.23 44.7463 1349.23 39.4801 Q1349.23 33.0797 1353.77 29.5959 Q1358.31 26.1121 1366.65 26.1121 Q1370.78 26.1121 1374.43 26.7198 Q1378.08 27.3274 1381.15 28.5427 Z" fill="#000000" fill-rule="nonzero" fill-opacity="1"></path><path clip-path="url(#clip240)" d="M1451.68 34.0924 L1451.68 9.54393 L1459.13 9.54393 L1459.13 72.576 L1451.68 72.576 L1451.68 65.7705 Q1449.33 69.8214 1445.73 71.8063 Q1442.16 73.7508 1437.14 73.7508 Q1428.91 73.7508 1423.73 67.1883 Q1418.58 60.6258 1418.58 49.9314 Q1418.58 39.2371 1423.73 32.6746 Q1428.91 26.1121 1437.14 26.1121 Q1442.16 26.1121 1445.73 28.0971 Q1449.33 30.0415 1451.68 34.0924 M1426.28 49.9314 Q1426.28 58.1548 1429.64 62.8538 Q1433.05 67.5124 1438.96 67.5124 Q1444.88 67.5124 1448.28 62.8538 Q1451.68 58.1548 1451.68 49.9314 Q1451.68 41.7081 1448.28 37.0496 Q1444.88 32.3505 1438.96 32.3505 Q1433.05 32.3505 1429.64 37.0496 Q1426.28 41.7081 1426.28 49.9314 Z" fill="#000000" fill-rule="nonzero" fill-opacity="1"></path><path clip-path="url(#clip240)" d="M1513.29 48.0275 L1513.29 51.6733 L1479.02 51.6733 Q1479.51 59.3701 1483.64 63.421 Q1487.81 67.4314 1495.23 67.4314 Q1499.52 67.4314 1503.53 66.3781 Q1507.58 65.3249 1511.55 63.2184 L1511.55 70.267 Q1507.54 71.9684 1503.33 72.8596 Q1499.12 73.7508 1494.78 73.7508 Q1483.93 73.7508 1477.57 67.4314 Q1471.25 61.1119 1471.25 50.3365 Q1471.25 39.1965 1477.24 32.6746 Q1483.28 26.1121 1493.49 26.1121 Q1502.64 26.1121 1507.95 32.0264 Q1513.29 37.9003 1513.29 48.0275 M1505.84 45.84 Q1505.76 39.7232 1502.4 36.0774 Q1499.08 32.4315 1493.57 32.4315 Q1487.33 32.4315 1483.56 35.9558 Q1479.83 39.4801 1479.27 45.8805 L1505.84 45.84 Z" fill="#000000" fill-rule="nonzero" fill-opacity="1"></path><path clip-path="url(#clip240)" d="M1554.45 28.5427 L1554.45 35.5912 Q1551.29 33.9709 1547.89 33.1607 Q1544.49 32.3505 1540.84 32.3505 Q1535.29 32.3505 1532.5 34.0519 Q1529.74 35.7533 1529.74 39.156 Q1529.74 41.7486 1531.73 43.2475 Q1533.71 44.7058 1539.71 46.0426 L1542.26 46.6097 Q1550.2 48.3111 1553.52 51.4303 Q1556.88 54.509 1556.88 60.0587 Q1556.88 66.3781 1551.86 70.0644 Q1546.88 73.7508 1538.13 73.7508 Q1534.48 73.7508 1530.51 73.0216 Q1526.58 72.3329 1522.21 70.9151 L1522.21 63.2184 Q1526.34 65.3654 1530.35 66.4591 Q1534.36 67.5124 1538.29 67.5124 Q1543.56 67.5124 1546.39 65.73 Q1549.23 63.9071 1549.23 60.6258 Q1549.23 57.5877 1547.16 55.9673 Q1545.13 54.3469 1538.21 52.8481 L1535.62 52.2405 Q1528.69 50.7821 1525.61 47.7845 Q1522.53 44.7463 1522.53 39.4801 Q1522.53 33.0797 1527.07 29.5959 Q1531.6 26.1121 1539.95 26.1121 Q1544.08 26.1121 1547.73 26.7198 Q1551.37 27.3274 1554.45 28.5427 Z" fill="#000000" fill-rule="nonzero" fill-opacity="1"></path><path clip-path="url(#clip240)" d="M1568.75 27.2059 L1576.21 27.2059 L1576.21 72.576 L1568.75 72.576 L1568.75 27.2059 M1568.75 9.54393 L1576.21 9.54393 L1576.21 18.9825 L1568.75 18.9825 L1568.75 9.54393 Z" fill="#000000" fill-rule="nonzero" fill-opacity="1"></path><path clip-path="url(#clip240)" d="M1618.09 34.1734 Q1616.84 33.4443 1615.34 33.1202 Q1613.88 32.7556 1612.1 32.7556 Q1605.78 32.7556 1602.37 36.8875 Q1599.01 40.9789 1599.01 48.6757 L1599.01 72.576 L1591.52 72.576 L1591.52 27.2059 L1599.01 27.2059 L1599.01 34.2544 Q1601.36 30.1225 1605.13 28.1376 Q1608.9 26.1121 1614.28 26.1121 Q1615.05 26.1121 1615.99 26.2337 Q1616.92 26.3147 1618.05 26.5172 L1618.09 34.1734 Z" fill="#000000" fill-rule="nonzero" fill-opacity="1"></path><path clip-path="url(#clip240)" d="M1662.89 48.0275 L1662.89 51.6733 L1628.62 51.6733 Q1629.11 59.3701 1633.24 63.421 Q1637.41 67.4314 1644.83 67.4314 Q1649.12 67.4314 1653.13 66.3781 Q1657.18 65.3249 1661.15 63.2184 L1661.15 70.267 Q1657.14 71.9684 1652.93 72.8596 Q1648.72 73.7508 1644.38 73.7508 Q1633.53 73.7508 1627.17 67.4314 Q1620.85 61.1119 1620.85 50.3365 Q1620.85 39.1965 1626.84 32.6746 Q1632.88 26.1121 1643.09 26.1121 Q1652.24 26.1121 1657.55 32.0264 Q1662.89 37.9003 1662.89 48.0275 M1655.44 45.84 Q1655.36 39.7232 1652 36.0774 Q1648.68 32.4315 1643.17 32.4315 Q1636.93 32.4315 1633.16 35.9558 Q1629.43 39.4801 1628.87 45.8805 L1655.44 45.84 Z" fill="#000000" fill-rule="nonzero" fill-opacity="1"></path><path clip-path="url(#clip240)" d="M1704.98 34.0924 L1704.98 9.54393 L1712.44 9.54393 L1712.44 72.576 L1704.98 72.576 L1704.98 65.7705 Q1702.63 69.8214 1699.03 71.8063 Q1695.46 73.7508 1690.44 73.7508 Q1682.22 73.7508 1677.03 67.1883 Q1671.89 60.6258 1671.89 49.9314 Q1671.89 39.2371 1677.03 32.6746 Q1682.22 26.1121 1690.44 26.1121 Q1695.46 26.1121 1699.03 28.0971 Q1702.63 30.0415 1704.98 34.0924 M1679.58 49.9314 Q1679.58 58.1548 1682.95 62.8538 Q1686.35 67.5124 1692.26 67.5124 Q1698.18 67.5124 1701.58 62.8538 Q1704.98 58.1548 1704.98 49.9314 Q1704.98 41.7081 1701.58 37.0496 Q1698.18 32.3505 1692.26 32.3505 Q1686.35 32.3505 1682.95 37.0496 Q1679.58 41.7081 1679.58 49.9314 Z" fill="#000000" fill-rule="nonzero" fill-opacity="1"></path><polyline clip-path="url(#clip242)" style="stroke:#009af9; stroke-linecap:round; stroke-linejoin:round; stroke-width:4; stroke-opacity:1; fill:none" points="295.211,1383.61 297.209,1383.61 299.207,1383.61 301.204,1383.61 303.202,1383.61 305.199,1383.61 307.197,1383.61 309.195,1383.61 311.192,1383.61 313.19,1383.61 315.187,1383.61 317.185,1383.61 319.183,1383.61 321.18,1383.61 323.178,1383.61 325.176,1383.61 327.173,1383.61 329.171,1380.82 331.168,1380.82 333.166,1369.68 335.164,1347.38 337.161,1336.24 339.159,1327.88 341.157,1300.01 343.154,1272.14 345.152,1244.27 347.149,1213.62 349.147,1182.97 351.145,1171.82 353.142,1138.38 355.14,1132.81 357.137,1104.94 359.135,1088.22 361.133,1063.14 363.13,1068.71 365.128,1068.71 367.126,1065.93 369.123,1049.21 371.121,1015.77 373.118,1004.62 375.116,985.114 377.114,962.82 379.111,884.793 381.109,848.566 383.106,792.833 385.104,737.099 387.102,745.459 389.099,703.659 391.097,670.219 393.095,673.005 395.092,664.645 397.09,650.712 399.087,659.072 401.085,620.059 403.083,589.405 405.08,530.885 407.078,461.218 409.075,422.204 411.073,419.418 413.071,427.778 415.068,411.058 417.066,405.484 419.064,416.631 421.061,399.911 423.059,399.911 425.056,369.257 427.054,355.324 429.052,366.471 431.049,369.257 433.047,341.391 435.044,346.964 437.042,344.177 439.04,372.044 441.037,424.991 443.035,472.365 445.033,494.658 447.03,533.671 449.028,589.405 451.025,639.565 453.023,689.726 455.021,723.166 457.018,770.539 459.016,812.34 461.013,854.14 463.011,882.007 465.009,907.087 467.006,946.1 469.004,993.474 471.002,1001.83 472.999,1035.27 474.997,1049.21 476.994,1071.5 478.992,1082.65 480.99,1110.51 482.987,1141.17 484.985,1152.31 486.982,1180.18 488.98,1194.11 490.978,1196.9 492.975,1205.26 494.973,1219.19 496.971,1233.13 498.968,1247.06 500.966,1261 502.963,1266.57 504.961,1272.14 506.959,1274.93 508.956,1277.72 510.954,1286.08 512.951,1294.44 514.949,1300.01 516.947,1305.58 518.944,1308.37 520.942,1308.37 522.94,1319.52 524.937,1327.88 526.935,1333.45 528.932,1339.02 530.93,1344.6 532.928,1350.17 534.925,1350.17 536.923,1358.53 538.92,1358.53 540.918,1358.53 542.916,1361.32 544.913,1364.1 546.911,1364.1 548.909,1364.1 550.906,1366.89 552.904,1372.46 554.901,1372.46 556.899,1372.46 558.897,1372.46 560.894,1375.25 562.892,1375.25 564.89,1375.25 566.887,1378.04 568.885,1378.04 570.882,1378.04 572.88,1380.82 574.878,1380.82 576.875,1380.82 578.873,1380.82 580.87,1380.82 582.868,1380.82 584.866,1383.61 586.863,1383.61 588.861,1380.82 590.859,1380.82 592.856,1383.61 594.854,1383.61 596.851,1383.61 598.849,1383.61 600.847,1383.61 602.844,1383.61 604.842,1383.61 606.839,1383.61 608.837,1383.61 610.835,1383.61 612.832,1383.61 614.83,1383.61 616.828,1383.61 618.825,1383.61 620.823,1383.61 622.82,1383.61 624.818,1383.61 626.816,1383.61 628.813,1383.61 630.811,1383.61 632.808,1383.61 634.806,1383.61 636.804,1383.61 638.801,1383.61 640.799,1383.61 642.797,1383.61 644.794,1383.61 646.792,1383.61 648.789,1383.61 650.787,1383.61 652.785,1386.4 654.782,1386.4 656.78,1386.4 658.777,1383.61 660.775,1380.82 662.773,1380.82 664.77,1380.82 666.768,1378.04 668.766,1378.04 670.763,1375.25 672.761,1355.74 674.758,1336.24 676.756,1297.22 678.754,1266.57 680.751,1235.91 682.749,1208.05 684.746,1160.67 686.744,1096.58 688.742,1071.5 690.739,1051.99 692.737,1024.13 694.735,993.474 696.732,937.74 698.73,879.22 700.727,840.206 702.725,801.193 704.723,784.473 706.72,753.819 708.718,695.299 710.715,645.139 712.713,603.338 714.711,581.045 716.708,516.951 718.706,500.231 720.704,469.578 722.701,427.778 724.699,408.271 726.696,374.831 728.694,372.044 730.692,349.751 732.689,324.67 734.687,346.964 736.684,327.457 738.682,324.67 740.68,327.457 742.677,344.177 744.675,307.95 746.673,274.51 748.67,291.23 750.668,263.363 752.665,229.923 754.663,224.35 756.661,238.283 758.658,224.35 760.656,243.857 762.653,213.203 764.651,241.07 766.649,268.937 768.646,302.377 770.644,313.524 772.642,372.044 774.639,475.151 776.637,533.671 778.634,581.045 780.632,650.712 782.63,698.086 784.627,759.393 786.625,790.046 788.623,829.06 790.62,856.926 792.618,907.087 794.615,937.74 796.613,957.247 798.611,1010.19 800.608,1040.85 802.606,1063.14 804.603,1088.22 806.601,1118.87 808.599,1155.1 810.596,1169.03 812.594,1185.75 814.592,1196.9 816.589,1213.62 818.587,1224.77 820.584,1235.91 822.582,1244.27 824.58,1258.21 826.577,1266.57 828.575,1274.93 830.572,1283.29 832.57,1297.22 834.568,1305.58 836.565,1316.73 838.563,1330.66 840.561,1336.24 842.558,1347.38 844.556,1347.38 846.553,1347.38 848.551,1347.38 850.549,1350.17 852.546,1350.17 854.544,1350.17 856.541,1352.96 858.539,1355.74 860.537,1355.74 862.534,1361.32 864.532,1361.32 866.53,1361.32 868.527,1358.53 870.525,1361.32 872.522,1369.68 874.52,1369.68 876.518,1372.46 878.515,1372.46 880.513,1375.25 882.51,1375.25 884.508,1378.04 886.506,1378.04 888.503,1380.82 890.501,1383.61 892.499,1383.61 894.496,1383.61 896.494,1383.61 898.491,1383.61 900.489,1383.61 902.487,1383.61 904.484,1383.61 906.482,1383.61 908.479,1383.61 910.477,1383.61 912.475,1383.61 914.472,1383.61 916.47,1383.61 918.468,1383.61 920.465,1383.61 922.463,1383.61 924.46,1383.61 926.458,1386.4 928.456,1386.4 930.453,1386.4 932.451,1386.4 934.448,1386.4 936.446,1386.4 938.444,1386.4 940.441,1386.4 942.439,1386.4 944.437,1386.4 946.434,1386.4 948.432,1386.4 950.429,1386.4 952.427,1386.4 954.425,1386.4 956.422,1386.4 958.42,1386.4 960.417,1386.4 962.415,1386.4 964.413,1386.4 966.41,1386.4 968.408,1386.4 970.406,1386.4 972.403,1386.4 974.401,1386.4 976.398,1386.4 978.396,1386.4 980.394,1386.4 982.391,1386.4 984.389,1386.4 986.386,1383.61 988.384,1383.61 990.382,1383.61 992.379,1386.4 994.377,1386.4 996.375,1383.61 998.372,1383.61 1000.37,1378.04 1002.37,1378.04 1004.37,1369.68 1006.36,1361.32 1008.36,1344.6 1010.36,1322.3 1012.36,1297.22 1014.35,1233.13 1016.35,1180.18 1018.35,1118.87 1020.35,1074.29 1022.34,990.687 1024.34,926.593 1026.34,826.273 1028.34,803.979 1030.33,798.406 1032.33,748.246 1034.33,703.659 1036.33,684.152 1038.32,689.726 1040.32,642.352 1042.32,611.699 1044.32,581.045 1046.31,589.405 1048.31,600.552 1050.31,561.538 1052.31,528.098 1054.31,505.805 1056.3,469.578 1058.3,469.578 1060.3,477.938 1062.3,452.858 1064.29,469.578 1066.29,441.711 1068.29,455.644 1070.29,419.418 1072.28,413.844 1074.28,419.418 1076.28,430.564 1078.28,380.404 1080.27,358.111 1082.27,380.404 1084.27,352.537 1086.27,349.751 1088.26,291.23 1090.26,327.457 1092.26,291.23 1094.26,313.524 1096.26,263.363 1098.25,271.724 1100.25,285.657 1102.25,257.79 1104.25,274.51 1106.24,271.724 1108.24,255.003 1110.24,224.35 1112.24,210.417 1114.23,227.137 1116.23,241.07 1118.23,263.363 1120.23,266.15 1122.22,280.084 1124.22,363.684 1126.22,430.564 1128.22,503.018 1130.21,575.472 1132.21,645.139 1134.21,692.512 1136.21,739.886 1138.21,778.899 1140.2,823.486 1142.2,854.14 1144.2,879.22 1146.2,909.873 1148.19,954.46 1150.19,987.9 1152.19,1026.91 1154.19,1049.21 1156.18,1074.29 1158.18,1102.15 1160.18,1141.17 1162.18,1163.46 1164.17,1177.39 1166.17,1194.11 1168.17,1205.26 1170.17,1221.98 1172.16,1244.27 1174.16,1255.42 1176.16,1261 1178.16,1266.57 1180.16,1277.72 1182.15,1283.29 1184.15,1286.08 1186.15,1291.65 1188.15,1297.22 1190.14,1311.16 1192.14,1316.73 1194.14,1322.3 1196.14,1327.88 1198.13,1330.66 1200.13,1330.66 1202.13,1333.45 1204.13,1333.45 1206.12,1333.45 1208.12,1339.02 1210.12,1339.02 1212.12,1339.02 1214.11,1339.02 1216.11,1339.02 1218.11,1341.81 1220.11,1341.81 1222.11,1352.96 1224.1,1355.74 1226.1,1355.74 1228.1,1358.53 1230.1,1358.53 1232.09,1358.53 1234.09,1358.53 1236.09,1361.32 1238.09,1366.89 1240.08,1366.89 1242.08,1372.46 1244.08,1372.46 1246.08,1375.25 1248.07,1375.25 1250.07,1378.04 1252.07,1378.04 1254.07,1378.04 1256.06,1380.82 1258.06,1380.82 1260.06,1380.82 1262.06,1380.82 1264.06,1380.82 1266.05,1383.61 1268.05,1386.4 1270.05,1386.4 1272.05,1386.4 1274.04,1386.4 1276.04,1386.4 1278.04,1386.4 1280.04,1386.4 1282.03,1386.4 1284.03,1386.4 1286.03,1386.4 1288.03,1386.4 1290.02,1386.4 1292.02,1386.4 1294.02,1386.4 1296.02,1386.4 1298.01,1386.4 1300.01,1386.4 1302.01,1386.4 1304.01,1386.4 1306.01,1386.4 1308,1386.4 1310,1386.4 1312,1386.4 1314,1386.4 1315.99,1386.4 1317.99,1386.4 1319.99,1386.4 1321.99,1386.4 1323.98,1386.4 1325.98,1386.4 1327.98,1386.4 1329.98,1386.4 1331.97,1386.4 1333.97,1386.4 1335.97,1386.4 1337.97,1386.4 1339.96,1386.4 1341.96,1386.4 1343.96,1386.4 1345.96,1386.4 1347.96,1386.4 1349.95,1386.4 1351.95,1386.4 1353.95,1383.61 1355.95,1383.61 1357.94,1383.61 1359.94,1380.82 1361.94,1378.04 1363.94,1369.68 1365.93,1344.6 1367.93,1308.37 1369.93,1280.5 1371.93,1247.06 1373.92,1216.41 1375.92,1185.75 1377.92,1160.67 1379.92,1135.59 1381.91,1130.02 1383.91,1118.87 1385.91,1093.79 1387.91,1102.15 1389.9,1099.37 1391.9,1082.65 1393.9,1060.35 1395.9,1049.21 1397.9,1018.55 1399.89,973.967 1401.89,926.593 1403.89,893.153 1405.89,848.566 1407.88,756.606 1409.88,742.673 1411.88,703.659 1413.88,670.219 1415.87,653.499 1417.87,611.699 1419.87,564.325 1421.87,533.671 1423.86,483.511 1425.86,491.871 1427.86,466.791 1429.86,458.431 1431.85,427.778 1433.85,430.564 1435.85,402.697 1437.85,380.404 1439.85,352.537 1441.84,352.537 1443.84,346.964 1445.84,338.604 1447.84,296.804 1449.83,277.297 1451.83,255.003 1453.83,255.003 1455.83,266.15 1457.82,246.643 1459.82,260.577 1461.82,288.444 1463.82,277.297 1465.81,249.43 1467.81,243.857 1469.81,199.27 1471.81,160.256 1473.8,185.336 1475.8,171.403 1477.8,185.336 1479.8,179.763 1481.8,202.057 1483.79,218.777 1485.79,182.55 1487.79,213.203 1489.79,227.137 1491.78,257.79 1493.78,271.724 1495.78,352.537 1497.78,416.631 1499.77,480.725 1501.77,550.392 1503.77,611.699 1505.77,639.565 1507.76,692.512 1509.76,728.739 1511.76,792.833 1513.76,837.42 1515.75,887.58 1517.75,934.953 1519.75,976.754 1521.75,1004.62 1523.75,1026.91 1525.74,1051.99 1527.74,1085.43 1529.74,1124.45 1531.74,1149.53 1533.73,1166.25 1535.73,1182.97 1537.73,1196.9 1539.73,1213.62 1541.72,1221.98 1543.72,1261 1545.72,1277.72 1547.72,1288.86 1549.71,1297.22 1551.71,1300.01 1553.71,1305.58 1555.71,1305.58 1557.7,1308.37 1559.7,1313.94 1561.7,1316.73 1563.7,1316.73 1565.7,1322.3 1567.69,1322.3 1569.69,1322.3 1571.69,1327.88 1573.69,1333.45 1575.68,1339.02 1577.68,1341.81 1579.68,1347.38 1581.68,1347.38 1583.67,1352.96 1585.67,1355.74 1587.67,1361.32 1589.67,1364.1 1591.66,1366.89 1593.66,1366.89 1595.66,1369.68 1597.66,1372.46 1599.65,1375.25 1601.65,1375.25 1603.65,1375.25 1605.65,1375.25 1607.65,1378.04 1609.64,1378.04 1611.64,1378.04 1613.64,1380.82 1615.64,1380.82 1617.63,1380.82 1619.63,1380.82 1621.63,1380.82 1623.63,1380.82 1625.62,1380.82 1627.62,1383.61 1629.62,1383.61 1631.62,1383.61 1633.61,1383.61 1635.61,1383.61 1637.61,1383.61 1639.61,1383.61 1641.6,1383.61 1643.6,1383.61 1645.6,1383.61 1647.6,1383.61 1649.6,1386.4 1651.59,1386.4 1653.59,1386.4 1655.59,1386.4 1657.59,1386.4 1659.58,1386.4 1661.58,1386.4 1663.58,1386.4 1665.58,1386.4 1667.57,1386.4 1669.57,1386.4 1671.57,1386.4 1673.57,1386.4 1675.56,1386.4 1677.56,1386.4 1679.56,1386.4 1681.56,1386.4 1683.55,1386.4 1685.55,1386.4 1687.55,1386.4 1689.55,1386.4 1691.54,1386.4 1693.54,1386.4 1695.54,1386.4 1697.54,1386.4 1699.54,1386.4 1701.53,1386.4 1703.53,1386.4 1705.53,1386.4 1707.53,1386.4 1709.52,1383.61 1711.52,1383.61 1713.52,1372.46 1715.52,1366.89 1717.51,1352.96 1719.51,1311.16 1721.51,1283.29 1723.51,1255.42 1725.5,1233.13 1727.5,1185.75 1729.5,1143.95 1731.5,1124.45 1733.49,1096.58 1735.49,1079.86 1737.49,1063.14 1739.49,1065.93 1741.49,1068.71 1743.48,1057.57 1745.48,1051.99 1747.48,1060.35 1749.48,1057.57 1751.47,1040.85 1753.47,999.047 1755.47,957.247 1757.47,912.66 1759.46,845.78 1761.46,826.273 1763.46,801.193 1765.46,756.606 1767.45,709.232 1769.45,684.152 1771.45,656.285 1773.45,603.338 1775.44,572.685 1777.44,553.178 1779.44,533.671 1781.44,505.805 1783.44,483.511 1785.43,441.711 1787.43,430.564 1789.43,411.058 1791.43,391.551 1793.42,383.191 1795.42,363.684 1797.42,324.67 1799.42,282.87 1801.41,296.804 1803.41,271.724 1805.41,271.724 1807.41,246.643 1809.4,235.497 1811.4,199.27 1813.4,185.336 1815.4,185.336 1817.39,179.763 1819.39,218.777 1821.39,238.283 1823.39,188.123 1825.39,207.63 1827.38,210.417 1829.38,241.07 1831.38,266.15 1833.38,266.15 1835.37,296.804 1837.37,333.03 1839.37,394.337 1841.37,458.431 1843.36,536.458 1845.36,592.192 1847.36,653.499 1849.36,717.592 1851.35,781.686 1853.35,817.913 1855.35,879.22 1857.35,940.527 1859.34,982.327 1861.34,996.26 1863.34,1035.27 1865.34,1071.5 1867.34,1102.15 1869.33,1116.09 1871.33,1124.45 1873.33,1149.53 1875.33,1177.39 1877.32,1196.9 1879.32,1213.62 1881.32,1224.77 1883.32,1238.7 1885.31,1247.06 1887.31,1258.21 1889.31,1269.36 1891.31,1272.14 1893.3,1277.72 1895.3,1277.72 1897.3,1280.5 1899.3,1280.5 1901.29,1288.86 1903.29,1297.22 1905.29,1302.8 1907.29,1305.58 1909.29,1313.94 1911.28,1322.3 1913.28,1330.66 1915.28,1330.66 1917.28,1333.45 1919.27,1341.81 1921.27,1344.6 1923.27,1347.38 1925.27,1350.17 1927.26,1355.74 1929.26,1358.53 1931.26,1361.32 1933.26,1369.68 1935.25,1369.68 1937.25,1372.46 1939.25,1380.82 1941.25,1380.82 1943.24,1380.82 1945.24,1380.82 1947.24,1380.82 1949.24,1380.82 1951.24,1380.82 1953.23,1378.04 1955.23,1380.82 1957.23,1380.82 1959.23,1380.82 1961.22,1380.82 1963.22,1383.61 1965.22,1383.61 1967.22,1383.61 1969.21,1383.61 1971.21,1386.4 1973.21,1386.4 1975.21,1386.4 1977.2,1386.4 1979.2,1386.4 1981.2,1386.4 1983.2,1386.4 1985.19,1386.4 1987.19,1386.4 1989.19,1386.4 1991.19,1386.4 1993.19,1386.4 1995.18,1386.4 1997.18,1386.4 1999.18,1386.4 2001.18,1386.4 2003.17,1386.4 2005.17,1386.4 2007.17,1386.4 2009.17,1386.4 2011.16,1386.4 2013.16,1386.4 2015.16,1386.4 2017.16,1386.4 2019.15,1386.4 2021.15,1386.4 2023.15,1386.4 2025.15,1386.4 2027.14,1386.4 2029.14,1383.61 2031.14,1383.61 2033.14,1375.25 2035.13,1372.46 2037.13,1372.46 2039.13,1366.89 2041.13,1350.17 2043.13,1333.45 2045.12,1311.16 2047.12,1277.72 2049.12,1216.41 2051.12,1146.74 2053.11,1121.66 2055.11,1057.57 2057.11,1001.83 2059.11,932.167 2061.1,887.58 2063.1,817.913 2065.1,764.966 2067.1,712.019 2069.09,650.712 2071.09,606.125 2073.09,564.325 2075.09,516.951 2077.08,480.725 2079.08,469.578 2081.08,419.418 2083.08,433.351 2085.08,419.418 2087.07,411.058 2089.07,427.778 2091.07,397.124 2093.07,358.111 2095.06,344.177 2097.06,324.67 2099.06,316.31 2101.06,313.524 2103.05,294.017 2105.05,288.444 2107.05,235.497 2109.05,243.857 2111.04,260.577 2113.04,268.937 2115.04,271.724 2117.04,291.23 2119.03,252.217 2121.03,246.643 2123.03,224.35 2125.03,238.283 2127.03,213.203 2129.02,196.483 2131.02,202.057 2133.02,213.203 2135.02,193.696 2137.01,218.777 2139.01,255.003 2141.01,307.95 2143.01,394.337 2145,461.218 2147,516.951 2149,578.258 2151,656.285 2152.99,714.806 2154.99,762.179 2156.99,812.34 2158.99,848.566 2160.98,904.3 2162.98,946.1 2164.98,973.967 2166.98,1018.55 2168.98,1035.27 2170.97,1051.99 2172.97,1079.86 2174.97,1096.58 2176.97,1124.45 2178.96,1138.38 2180.96,1155.1 2182.96,1169.03 2184.96,1180.18 2186.95,1191.33 2188.95,1202.47 2190.95,1208.05 2192.95,1213.62 2194.94,1233.13 2196.94,1252.64 2198.94,1263.78 2200.94,1266.57 2202.93,1280.5 2204.93,1288.86 2206.93,1294.44 2208.93,1297.22 2210.93,1308.37 2212.92,1319.52 2214.92,1322.3 2216.92,1327.88 2218.92,1333.45 2220.91,1341.81 2222.91,1350.17 2224.91,1358.53 2226.91,1358.53 2228.9,1358.53 2230.9,1358.53 2232.9,1358.53 2234.9,1358.53 2236.89,1358.53 2238.89,1361.32 2240.89,1361.32 2242.89,1364.1 2244.88,1369.68 2246.88,1369.68 2248.88,1369.68 2250.88,1369.68 2252.88,1369.68 2254.87,1372.46 2256.87,1372.46 2258.87,1372.46 2260.87,1375.25 2262.86,1375.25 2264.86,1375.25 2266.86,1375.25 2268.86,1375.25 2270.85,1375.25 2272.85,1375.25 2274.85,1375.25 2276.85,1375.25 2278.84,1378.04 2280.84,1378.04 2282.84,1378.04 2284.84,1378.04 2286.83,1378.04 2288.83,1378.04 2290.83,1378.04 2292.83,1378.04 "></polyline>
</svg>