<svg xmlns="http://www.w3.org/2000/svg" xmlns:xlink="http://www.w3.org/1999/xlink" width="600" height="400" viewBox="0 0 2400 1600">
<defs>
  <clipPath id="clip000">
    <rect x="0" y="0" width="2400" height="1600"></rect>
  </clipPath>
</defs>
<path clip-path="url(#clip000)" d="M0 1600 L2400 1600 L2400 8.88178e-14 L0 8.88178e-14  Z" fill="#ffffff" fill-rule="evenodd" fill-opacity="1"></path>
<defs>
  <clipPath id="clip001">
    <rect x="480" y="0" width="1681" height="1600"></rect>
  </clipPath>
</defs>
<path clip-path="url(#clip000)" d="M262.551 1423.18 L2352.76 1423.18 L2352.76 47.2441 L262.551 47.2441  Z" fill="#ffffff" fill-rule="evenodd" fill-opacity="1"></path>
<defs>
  <clipPath id="clip002">
    <rect x="262" y="47" width="2091" height="1377"></rect>
  </clipPath>
</defs>
<polyline clip-path="url(#clip002)" style="stroke:#000000; stroke-linecap:round; stroke-linejoin:round; stroke-width:2; stroke-opacity:0.1; fill:none" points="319.736,1423.18 319.736,47.2441 "></polyline>
<polyline clip-path="url(#clip002)" style="stroke:#000000; stroke-linecap:round; stroke-linejoin:round; stroke-width:2; stroke-opacity:0.1; fill:none" points="812.709,1423.18 812.709,47.2441 "></polyline>
<polyline clip-path="url(#clip002)" style="stroke:#000000; stroke-linecap:round; stroke-linejoin:round; stroke-width:2; stroke-opacity:0.1; fill:none" points="1305.68,1423.18 1305.68,47.2441 "></polyline>
<polyline clip-path="url(#clip002)" style="stroke:#000000; stroke-linecap:round; stroke-linejoin:round; stroke-width:2; stroke-opacity:0.1; fill:none" points="1798.65,1423.18 1798.65,47.2441 "></polyline>
<polyline clip-path="url(#clip002)" style="stroke:#000000; stroke-linecap:round; stroke-linejoin:round; stroke-width:2; stroke-opacity:0.1; fill:none" points="2291.63,1423.18 2291.63,47.2441 "></polyline>
<polyline clip-path="url(#clip002)" style="stroke:#000000; stroke-linecap:round; stroke-linejoin:round; stroke-width:2; stroke-opacity:0.1; fill:none" points="262.551,1384.24 2352.76,1384.24 "></polyline>
<polyline clip-path="url(#clip002)" style="stroke:#000000; stroke-linecap:round; stroke-linejoin:round; stroke-width:2; stroke-opacity:0.1; fill:none" points="262.551,1084.87 2352.76,1084.87 "></polyline>
<polyline clip-path="url(#clip002)" style="stroke:#000000; stroke-linecap:round; stroke-linejoin:round; stroke-width:2; stroke-opacity:0.1; fill:none" points="262.551,785.506 2352.76,785.506 "></polyline>
<polyline clip-path="url(#clip002)" style="stroke:#000000; stroke-linecap:round; stroke-linejoin:round; stroke-width:2; stroke-opacity:0.1; fill:none" points="262.551,486.139 2352.76,486.139 "></polyline>
<polyline clip-path="url(#clip002)" style="stroke:#000000; stroke-linecap:round; stroke-linejoin:round; stroke-width:2; stroke-opacity:0.1; fill:none" points="262.551,186.773 2352.76,186.773 "></polyline>
<polyline clip-path="url(#clip000)" style="stroke:#000000; stroke-linecap:round; stroke-linejoin:round; stroke-width:4; stroke-opacity:1; fill:none" points="262.551,1423.18 2352.76,1423.18 "></polyline>
<polyline clip-path="url(#clip000)" style="stroke:#000000; stroke-linecap:round; stroke-linejoin:round; stroke-width:4; stroke-opacity:1; fill:none" points="319.736,1423.18 319.736,1404.28 "></polyline>
<polyline clip-path="url(#clip000)" style="stroke:#000000; stroke-linecap:round; stroke-linejoin:round; stroke-width:4; stroke-opacity:1; fill:none" points="812.709,1423.18 812.709,1404.28 "></polyline>
<polyline clip-path="url(#clip000)" style="stroke:#000000; stroke-linecap:round; stroke-linejoin:round; stroke-width:4; stroke-opacity:1; fill:none" points="1305.68,1423.18 1305.68,1404.28 "></polyline>
<polyline clip-path="url(#clip000)" style="stroke:#000000; stroke-linecap:round; stroke-linejoin:round; stroke-width:4; stroke-opacity:1; fill:none" points="1798.65,1423.18 1798.65,1404.28 "></polyline>
<polyline clip-path="url(#clip000)" style="stroke:#000000; stroke-linecap:round; stroke-linejoin:round; stroke-width:4; stroke-opacity:1; fill:none" points="2291.63,1423.18 2291.63,1404.28 "></polyline>
<path clip-path="url(#clip000)" d="M319.736 1454.1 Q316.125 1454.1 314.296 1457.66 Q312.491 1461.2 312.491 1468.33 Q312.491 1475.44 314.296 1479.01 Q316.125 1482.55 319.736 1482.55 Q323.37 1482.55 325.176 1479.01 Q327.005 1475.44 327.005 1468.33 Q327.005 1461.2 325.176 1457.66 Q323.37 1454.1 319.736 1454.1 M319.736 1450.39 Q325.546 1450.39 328.602 1455 Q331.68 1459.58 331.68 1468.33 Q331.68 1477.06 328.602 1481.67 Q325.546 1486.25 319.736 1486.25 Q313.926 1486.25 310.847 1481.67 Q307.792 1477.06 307.792 1468.33 Q307.792 1459.58 310.847 1455 Q313.926 1450.39 319.736 1450.39 Z" fill="#000000" fill-rule="nonzero" fill-opacity="1"></path><path clip-path="url(#clip000)" d="M776.401 1481.64 L792.721 1481.64 L792.721 1485.58 L770.776 1485.58 L770.776 1481.64 Q773.438 1478.89 778.022 1474.26 Q782.628 1469.61 783.809 1468.27 Q786.054 1465.74 786.934 1464.01 Q787.836 1462.25 787.836 1460.56 Q787.836 1457.8 785.892 1456.07 Q783.971 1454.33 780.869 1454.33 Q778.67 1454.33 776.216 1455.09 Q773.785 1455.86 771.008 1457.41 L771.008 1452.69 Q773.832 1451.55 776.285 1450.97 Q778.739 1450.39 780.776 1450.39 Q786.147 1450.39 789.341 1453.08 Q792.535 1455.77 792.535 1460.26 Q792.535 1462.39 791.725 1464.31 Q790.938 1466.2 788.832 1468.8 Q788.253 1469.47 785.151 1472.69 Q782.049 1475.88 776.401 1481.64 Z" fill="#000000" fill-rule="nonzero" fill-opacity="1"></path><path clip-path="url(#clip000)" d="M802.582 1451.02 L820.938 1451.02 L820.938 1454.96 L806.864 1454.96 L806.864 1463.43 Q807.883 1463.08 808.901 1462.92 Q809.92 1462.73 810.938 1462.73 Q816.725 1462.73 820.105 1465.9 Q823.484 1469.08 823.484 1474.49 Q823.484 1480.07 820.012 1483.17 Q816.54 1486.25 810.22 1486.25 Q808.045 1486.25 805.776 1485.88 Q803.531 1485.51 801.123 1484.77 L801.123 1480.07 Q803.207 1481.2 805.429 1481.76 Q807.651 1482.32 810.128 1482.32 Q814.132 1482.32 816.47 1480.21 Q818.808 1478.1 818.808 1474.49 Q818.808 1470.88 816.47 1468.77 Q814.132 1466.67 810.128 1466.67 Q808.253 1466.67 806.378 1467.08 Q804.526 1467.5 802.582 1468.38 L802.582 1451.02 Z" fill="#000000" fill-rule="nonzero" fill-opacity="1"></path><path clip-path="url(#clip000)" d="M842.697 1454.1 Q839.086 1454.1 837.257 1457.66 Q835.452 1461.2 835.452 1468.33 Q835.452 1475.44 837.257 1479.01 Q839.086 1482.55 842.697 1482.55 Q846.331 1482.55 848.137 1479.01 Q849.966 1475.44 849.966 1468.33 Q849.966 1461.2 848.137 1457.66 Q846.331 1454.1 842.697 1454.1 M842.697 1450.39 Q848.507 1450.39 851.563 1455 Q854.642 1459.58 854.642 1468.33 Q854.642 1477.06 851.563 1481.67 Q848.507 1486.25 842.697 1486.25 Q836.887 1486.25 833.808 1481.67 Q830.753 1477.06 830.753 1468.33 Q830.753 1459.58 833.808 1455 Q836.887 1450.39 842.697 1450.39 Z" fill="#000000" fill-rule="nonzero" fill-opacity="1"></path><path clip-path="url(#clip000)" d="M1265.3 1451.02 L1283.66 1451.02 L1283.66 1454.96 L1269.58 1454.96 L1269.58 1463.43 Q1270.6 1463.08 1271.62 1462.92 Q1272.64 1462.73 1273.66 1462.73 Q1279.44 1462.73 1282.82 1465.9 Q1286.2 1469.08 1286.2 1474.49 Q1286.2 1480.07 1282.73 1483.17 Q1279.26 1486.25 1272.94 1486.25 Q1270.76 1486.25 1268.49 1485.88 Q1266.25 1485.51 1263.84 1484.77 L1263.84 1480.07 Q1265.92 1481.2 1268.15 1481.76 Q1270.37 1482.32 1272.85 1482.32 Q1276.85 1482.32 1279.19 1480.21 Q1281.53 1478.1 1281.53 1474.49 Q1281.53 1470.88 1279.19 1468.77 Q1276.85 1466.67 1272.85 1466.67 Q1270.97 1466.67 1269.1 1467.08 Q1267.24 1467.5 1265.3 1468.38 L1265.3 1451.02 Z" fill="#000000" fill-rule="nonzero" fill-opacity="1"></path><path clip-path="url(#clip000)" d="M1305.42 1454.1 Q1301.8 1454.1 1299.98 1457.66 Q1298.17 1461.2 1298.17 1468.33 Q1298.17 1475.44 1299.98 1479.01 Q1301.8 1482.55 1305.42 1482.55 Q1309.05 1482.55 1310.86 1479.01 Q1312.68 1475.44 1312.68 1468.33 Q1312.68 1461.2 1310.86 1457.66 Q1309.05 1454.1 1305.42 1454.1 M1305.42 1450.39 Q1311.23 1450.39 1314.28 1455 Q1317.36 1459.58 1317.36 1468.33 Q1317.36 1477.06 1314.28 1481.67 Q1311.23 1486.25 1305.42 1486.25 Q1299.61 1486.25 1296.53 1481.67 Q1293.47 1477.06 1293.47 1468.33 Q1293.47 1459.58 1296.53 1455 Q1299.61 1450.39 1305.42 1450.39 Z" fill="#000000" fill-rule="nonzero" fill-opacity="1"></path><path clip-path="url(#clip000)" d="M1335.58 1454.1 Q1331.97 1454.1 1330.14 1457.66 Q1328.33 1461.2 1328.33 1468.33 Q1328.33 1475.44 1330.14 1479.01 Q1331.97 1482.55 1335.58 1482.55 Q1339.21 1482.55 1341.02 1479.01 Q1342.85 1475.44 1342.85 1468.33 Q1342.85 1461.2 1341.02 1457.66 Q1339.21 1454.1 1335.58 1454.1 M1335.58 1450.39 Q1341.39 1450.39 1344.44 1455 Q1347.52 1459.58 1347.52 1468.33 Q1347.52 1477.06 1344.44 1481.67 Q1341.39 1486.25 1335.58 1486.25 Q1329.77 1486.25 1326.69 1481.67 Q1323.63 1477.06 1323.63 1468.33 Q1323.63 1459.58 1326.69 1455 Q1329.77 1450.39 1335.58 1450.39 Z" fill="#000000" fill-rule="nonzero" fill-opacity="1"></path><path clip-path="url(#clip000)" d="M1756.93 1451.02 L1779.15 1451.02 L1779.15 1453.01 L1766.61 1485.58 L1761.72 1485.58 L1773.53 1454.96 L1756.93 1454.96 L1756.93 1451.02 Z" fill="#000000" fill-rule="nonzero" fill-opacity="1"></path><path clip-path="url(#clip000)" d="M1788.32 1451.02 L1806.68 1451.02 L1806.68 1454.96 L1792.6 1454.96 L1792.6 1463.43 Q1793.62 1463.08 1794.64 1462.92 Q1795.66 1462.73 1796.68 1462.73 Q1802.46 1462.73 1805.84 1465.9 Q1809.22 1469.08 1809.22 1474.49 Q1809.22 1480.07 1805.75 1483.17 Q1802.28 1486.25 1795.96 1486.25 Q1793.78 1486.25 1791.51 1485.88 Q1789.27 1485.51 1786.86 1484.77 L1786.86 1480.07 Q1788.94 1481.2 1791.17 1481.76 Q1793.39 1482.32 1795.87 1482.32 Q1799.87 1482.32 1802.21 1480.21 Q1804.55 1478.1 1804.55 1474.49 Q1804.55 1470.88 1802.21 1468.77 Q1799.87 1466.67 1795.87 1466.67 Q1793.99 1466.67 1792.12 1467.08 Q1790.26 1467.5 1788.32 1468.38 L1788.32 1451.02 Z" fill="#000000" fill-rule="nonzero" fill-opacity="1"></path><path clip-path="url(#clip000)" d="M1828.43 1454.1 Q1824.82 1454.1 1822.99 1457.66 Q1821.19 1461.2 1821.19 1468.33 Q1821.19 1475.44 1822.99 1479.01 Q1824.82 1482.55 1828.43 1482.55 Q1832.07 1482.55 1833.87 1479.01 Q1835.7 1475.44 1835.7 1468.33 Q1835.7 1461.2 1833.87 1457.66 Q1832.07 1454.1 1828.43 1454.1 M1828.43 1450.39 Q1834.24 1450.39 1837.3 1455 Q1840.38 1459.58 1840.38 1468.33 Q1840.38 1477.06 1837.3 1481.67 Q1834.24 1486.25 1828.43 1486.25 Q1822.62 1486.25 1819.55 1481.67 Q1816.49 1477.06 1816.49 1468.33 Q1816.49 1459.58 1819.55 1455 Q1822.62 1450.39 1828.43 1450.39 Z" fill="#000000" fill-rule="nonzero" fill-opacity="1"></path><path clip-path="url(#clip000)" d="M2236.15 1481.64 L2243.79 1481.64 L2243.79 1455.28 L2235.48 1456.95 L2235.48 1452.69 L2243.75 1451.02 L2248.42 1451.02 L2248.42 1481.64 L2256.06 1481.64 L2256.06 1485.58 L2236.15 1485.58 L2236.15 1481.64 Z" fill="#000000" fill-rule="nonzero" fill-opacity="1"></path><path clip-path="url(#clip000)" d="M2275.5 1454.1 Q2271.89 1454.1 2270.06 1457.66 Q2268.26 1461.2 2268.26 1468.33 Q2268.26 1475.44 2270.06 1479.01 Q2271.89 1482.55 2275.5 1482.55 Q2279.14 1482.55 2280.94 1479.01 Q2282.77 1475.44 2282.77 1468.33 Q2282.77 1461.2 2280.94 1457.66 Q2279.14 1454.1 2275.5 1454.1 M2275.5 1450.39 Q2281.31 1450.39 2284.37 1455 Q2287.45 1459.58 2287.45 1468.33 Q2287.45 1477.06 2284.37 1481.67 Q2281.31 1486.25 2275.5 1486.25 Q2269.69 1486.25 2266.62 1481.67 Q2263.56 1477.06 2263.56 1468.33 Q2263.56 1459.58 2266.62 1455 Q2269.69 1450.39 2275.5 1450.39 Z" fill="#000000" fill-rule="nonzero" fill-opacity="1"></path><path clip-path="url(#clip000)" d="M2305.67 1454.1 Q2302.06 1454.1 2300.23 1457.66 Q2298.42 1461.2 2298.42 1468.33 Q2298.42 1475.44 2300.23 1479.01 Q2302.06 1482.55 2305.67 1482.55 Q2309.3 1482.55 2311.11 1479.01 Q2312.94 1475.44 2312.94 1468.33 Q2312.94 1461.2 2311.11 1457.66 Q2309.3 1454.1 2305.67 1454.1 M2305.67 1450.39 Q2311.48 1450.39 2314.53 1455 Q2317.61 1459.58 2317.61 1468.33 Q2317.61 1477.06 2314.53 1481.67 Q2311.48 1486.25 2305.67 1486.25 Q2299.86 1486.25 2296.78 1481.67 Q2293.72 1477.06 2293.72 1468.33 Q2293.72 1459.58 2296.78 1455 Q2299.86 1450.39 2305.67 1450.39 Z" fill="#000000" fill-rule="nonzero" fill-opacity="1"></path><path clip-path="url(#clip000)" d="M2335.83 1454.1 Q2332.22 1454.1 2330.39 1457.66 Q2328.58 1461.2 2328.58 1468.33 Q2328.58 1475.44 2330.39 1479.01 Q2332.22 1482.55 2335.83 1482.55 Q2339.46 1482.55 2341.27 1479.01 Q2343.1 1475.44 2343.1 1468.33 Q2343.1 1461.2 2341.27 1457.66 Q2339.46 1454.1 2335.83 1454.1 M2335.83 1450.39 Q2341.64 1450.39 2344.69 1455 Q2347.77 1459.58 2347.77 1468.33 Q2347.77 1477.06 2344.69 1481.67 Q2341.64 1486.25 2335.83 1486.25 Q2330.02 1486.25 2326.94 1481.67 Q2323.88 1477.06 2323.88 1468.33 Q2323.88 1459.58 2326.94 1455 Q2330.02 1450.39 2335.83 1450.39 Z" fill="#000000" fill-rule="nonzero" fill-opacity="1"></path><path clip-path="url(#clip000)" d="M1246.81 1522.27 L1246.81 1532.4 L1258.88 1532.4 L1258.88 1536.95 L1246.81 1536.95 L1246.81 1556.3 Q1246.81 1560.66 1247.99 1561.9 Q1249.2 1563.14 1252.86 1563.14 L1258.88 1563.14 L1258.88 1568.04 L1252.86 1568.04 Q1246.08 1568.04 1243.5 1565.53 Q1240.93 1562.98 1240.93 1556.3 L1240.93 1536.95 L1236.63 1536.95 L1236.63 1532.4 L1240.93 1532.4 L1240.93 1522.27 L1246.81 1522.27 Z" fill="#000000" fill-rule="nonzero" fill-opacity="1"></path><path clip-path="url(#clip000)" d="M1266.58 1532.4 L1272.44 1532.4 L1272.44 1568.04 L1266.58 1568.04 L1266.58 1532.4 M1266.58 1518.52 L1272.44 1518.52 L1272.44 1525.93 L1266.58 1525.93 L1266.58 1518.52 Z" fill="#000000" fill-rule="nonzero" fill-opacity="1"></path><path clip-path="url(#clip000)" d="M1312.44 1539.24 Q1314.64 1535.29 1317.7 1533.41 Q1320.75 1531.54 1324.89 1531.54 Q1330.46 1531.54 1333.48 1535.45 Q1336.51 1539.33 1336.51 1546.53 L1336.51 1568.04 L1330.62 1568.04 L1330.62 1546.72 Q1330.62 1541.59 1328.8 1539.11 Q1326.99 1536.63 1323.27 1536.63 Q1318.71 1536.63 1316.07 1539.65 Q1313.43 1542.68 1313.43 1547.9 L1313.43 1568.04 L1307.54 1568.04 L1307.54 1546.72 Q1307.54 1541.56 1305.73 1539.11 Q1303.91 1536.63 1300.13 1536.63 Q1295.64 1536.63 1293 1539.68 Q1290.35 1542.71 1290.35 1547.9 L1290.35 1568.04 L1284.47 1568.04 L1284.47 1532.4 L1290.35 1532.4 L1290.35 1537.93 Q1292.36 1534.66 1295.16 1533.1 Q1297.96 1531.54 1301.81 1531.54 Q1305.7 1531.54 1308.4 1533.51 Q1311.14 1535.48 1312.44 1539.24 Z" fill="#000000" fill-rule="nonzero" fill-opacity="1"></path><path clip-path="url(#clip000)" d="M1378.68 1548.76 L1378.68 1551.62 L1351.75 1551.62 Q1352.13 1557.67 1355.38 1560.85 Q1358.66 1564 1364.48 1564 Q1367.86 1564 1371.01 1563.17 Q1374.19 1562.35 1377.31 1560.69 L1377.31 1566.23 Q1374.16 1567.57 1370.85 1568.27 Q1367.54 1568.97 1364.13 1568.97 Q1355.6 1568.97 1350.61 1564 Q1345.64 1559.04 1345.64 1550.57 Q1345.64 1541.82 1350.35 1536.69 Q1355.09 1531.54 1363.11 1531.54 Q1370.31 1531.54 1374.48 1536.18 Q1378.68 1540.8 1378.68 1548.76 M1372.82 1547.04 Q1372.76 1542.23 1370.12 1539.37 Q1367.51 1536.5 1363.18 1536.5 Q1358.28 1536.5 1355.32 1539.27 Q1352.39 1542.04 1351.94 1547.07 L1372.82 1547.04 Z" fill="#000000" fill-rule="nonzero" fill-opacity="1"></path><polyline clip-path="url(#clip000)" style="stroke:#000000; stroke-linecap:round; stroke-linejoin:round; stroke-width:4; stroke-opacity:1; fill:none" points="262.551,1423.18 262.551,47.2441 "></polyline>
<polyline clip-path="url(#clip000)" style="stroke:#000000; stroke-linecap:round; stroke-linejoin:round; stroke-width:4; stroke-opacity:1; fill:none" points="262.551,1384.24 281.449,1384.24 "></polyline>
<polyline clip-path="url(#clip000)" style="stroke:#000000; stroke-linecap:round; stroke-linejoin:round; stroke-width:4; stroke-opacity:1; fill:none" points="262.551,1084.87 281.449,1084.87 "></polyline>
<polyline clip-path="url(#clip000)" style="stroke:#000000; stroke-linecap:round; stroke-linejoin:round; stroke-width:4; stroke-opacity:1; fill:none" points="262.551,785.506 281.449,785.506 "></polyline>
<polyline clip-path="url(#clip000)" style="stroke:#000000; stroke-linecap:round; stroke-linejoin:round; stroke-width:4; stroke-opacity:1; fill:none" points="262.551,486.139 281.449,486.139 "></polyline>
<polyline clip-path="url(#clip000)" style="stroke:#000000; stroke-linecap:round; stroke-linejoin:round; stroke-width:4; stroke-opacity:1; fill:none" points="262.551,186.773 281.449,186.773 "></polyline>
<path clip-path="url(#clip000)" d="M214.607 1370.04 Q210.996 1370.04 209.167 1373.6 Q207.362 1377.14 207.362 1384.27 Q207.362 1391.38 209.167 1394.94 Q210.996 1398.49 214.607 1398.49 Q218.241 1398.49 220.047 1394.94 Q221.875 1391.38 221.875 1384.27 Q221.875 1377.14 220.047 1373.6 Q218.241 1370.04 214.607 1370.04 M214.607 1366.33 Q220.417 1366.33 223.473 1370.94 Q226.551 1375.52 226.551 1384.27 Q226.551 1393 223.473 1397.61 Q220.417 1402.19 214.607 1402.19 Q208.797 1402.19 205.718 1397.61 Q202.662 1393 202.662 1384.27 Q202.662 1375.52 205.718 1370.94 Q208.797 1366.33 214.607 1366.33 Z" fill="#000000" fill-rule="nonzero" fill-opacity="1"></path><path clip-path="url(#clip000)" d="M148.311 1098.22 L164.63 1098.22 L164.63 1102.15 L142.686 1102.15 L142.686 1098.22 Q145.348 1095.46 149.931 1090.83 Q154.538 1086.18 155.718 1084.84 Q157.964 1082.31 158.843 1080.58 Q159.746 1078.82 159.746 1077.13 Q159.746 1074.37 157.802 1072.64 Q155.88 1070.9 152.778 1070.9 Q150.579 1070.9 148.126 1071.67 Q145.695 1072.43 142.917 1073.98 L142.917 1069.26 Q145.741 1068.12 148.195 1067.55 Q150.649 1066.97 152.686 1066.97 Q158.056 1066.97 161.251 1069.65 Q164.445 1072.34 164.445 1076.83 Q164.445 1078.96 163.635 1080.88 Q162.848 1082.78 160.741 1085.37 Q160.163 1086.04 157.061 1089.26 Q153.959 1092.45 148.311 1098.22 Z" fill="#000000" fill-rule="nonzero" fill-opacity="1"></path><path clip-path="url(#clip000)" d="M174.491 1067.59 L192.848 1067.59 L192.848 1071.53 L178.774 1071.53 L178.774 1080 Q179.792 1079.65 180.811 1079.49 Q181.829 1079.3 182.848 1079.3 Q188.635 1079.3 192.014 1082.48 Q195.394 1085.65 195.394 1091.06 Q195.394 1096.64 191.922 1099.74 Q188.45 1102.82 182.13 1102.82 Q179.954 1102.82 177.686 1102.45 Q175.44 1102.08 173.033 1101.34 L173.033 1096.64 Q175.116 1097.78 177.339 1098.33 Q179.561 1098.89 182.038 1098.89 Q186.042 1098.89 188.38 1096.78 Q190.718 1094.68 190.718 1091.06 Q190.718 1087.45 188.38 1085.35 Q186.042 1083.24 182.038 1083.24 Q180.163 1083.24 178.288 1083.66 Q176.436 1084.07 174.491 1084.95 L174.491 1067.59 Z" fill="#000000" fill-rule="nonzero" fill-opacity="1"></path><path clip-path="url(#clip000)" d="M214.607 1070.67 Q210.996 1070.67 209.167 1074.24 Q207.362 1077.78 207.362 1084.91 Q207.362 1092.01 209.167 1095.58 Q210.996 1099.12 214.607 1099.12 Q218.241 1099.12 220.047 1095.58 Q221.875 1092.01 221.875 1084.91 Q221.875 1077.78 220.047 1074.24 Q218.241 1070.67 214.607 1070.67 M214.607 1066.97 Q220.417 1066.97 223.473 1071.57 Q226.551 1076.16 226.551 1084.91 Q226.551 1093.63 223.473 1098.24 Q220.417 1102.82 214.607 1102.82 Q208.797 1102.82 205.718 1098.24 Q202.662 1093.63 202.662 1084.91 Q202.662 1076.16 205.718 1071.57 Q208.797 1066.97 214.607 1066.97 Z" fill="#000000" fill-rule="nonzero" fill-opacity="1"></path><path clip-path="url(#clip000)" d="M144.329 768.226 L162.686 768.226 L162.686 772.161 L148.612 772.161 L148.612 780.633 Q149.63 780.286 150.649 780.124 Q151.667 779.938 152.686 779.938 Q158.473 779.938 161.852 783.11 Q165.232 786.281 165.232 791.698 Q165.232 797.276 161.76 800.378 Q158.288 803.457 151.968 803.457 Q149.792 803.457 147.524 803.086 Q145.279 802.716 142.871 801.975 L142.871 797.276 Q144.954 798.411 147.177 798.966 Q149.399 799.522 151.876 799.522 Q155.88 799.522 158.218 797.415 Q160.556 795.309 160.556 791.698 Q160.556 788.087 158.218 785.98 Q155.88 783.874 151.876 783.874 Q150.001 783.874 148.126 784.29 Q146.274 784.707 144.329 785.587 L144.329 768.226 Z" fill="#000000" fill-rule="nonzero" fill-opacity="1"></path><path clip-path="url(#clip000)" d="M184.445 771.304 Q180.834 771.304 179.005 774.869 Q177.2 778.411 177.2 785.54 Q177.2 792.647 179.005 796.211 Q180.834 799.753 184.445 799.753 Q188.079 799.753 189.885 796.211 Q191.713 792.647 191.713 785.54 Q191.713 778.411 189.885 774.869 Q188.079 771.304 184.445 771.304 M184.445 767.601 Q190.255 767.601 193.311 772.207 Q196.389 776.79 196.389 785.54 Q196.389 794.267 193.311 798.874 Q190.255 803.457 184.445 803.457 Q178.635 803.457 175.556 798.874 Q172.501 794.267 172.501 785.54 Q172.501 776.79 175.556 772.207 Q178.635 767.601 184.445 767.601 Z" fill="#000000" fill-rule="nonzero" fill-opacity="1"></path><path clip-path="url(#clip000)" d="M214.607 771.304 Q210.996 771.304 209.167 774.869 Q207.362 778.411 207.362 785.54 Q207.362 792.647 209.167 796.211 Q210.996 799.753 214.607 799.753 Q218.241 799.753 220.047 796.211 Q221.875 792.647 221.875 785.54 Q221.875 778.411 220.047 774.869 Q218.241 771.304 214.607 771.304 M214.607 767.601 Q220.417 767.601 223.473 772.207 Q226.551 776.79 226.551 785.54 Q226.551 794.267 223.473 798.874 Q220.417 803.457 214.607 803.457 Q208.797 803.457 205.718 798.874 Q202.662 794.267 202.662 785.54 Q202.662 776.79 205.718 772.207 Q208.797 767.601 214.607 767.601 Z" fill="#000000" fill-rule="nonzero" fill-opacity="1"></path><path clip-path="url(#clip000)" d="M143.103 468.859 L165.325 468.859 L165.325 470.85 L152.778 503.419 L147.894 503.419 L159.7 472.794 L143.103 472.794 L143.103 468.859 Z" fill="#000000" fill-rule="nonzero" fill-opacity="1"></path><path clip-path="url(#clip000)" d="M174.491 468.859 L192.848 468.859 L192.848 472.794 L178.774 472.794 L178.774 481.266 Q179.792 480.919 180.811 480.757 Q181.829 480.572 182.848 480.572 Q188.635 480.572 192.014 483.743 Q195.394 486.915 195.394 492.331 Q195.394 497.91 191.922 501.012 Q188.45 504.09 182.13 504.09 Q179.954 504.09 177.686 503.72 Q175.44 503.35 173.033 502.609 L173.033 497.91 Q175.116 499.044 177.339 499.6 Q179.561 500.155 182.038 500.155 Q186.042 500.155 188.38 498.049 Q190.718 495.942 190.718 492.331 Q190.718 488.72 188.38 486.614 Q186.042 484.507 182.038 484.507 Q180.163 484.507 178.288 484.924 Q176.436 485.341 174.491 486.22 L174.491 468.859 Z" fill="#000000" fill-rule="nonzero" fill-opacity="1"></path><path clip-path="url(#clip000)" d="M214.607 471.938 Q210.996 471.938 209.167 475.503 Q207.362 479.044 207.362 486.174 Q207.362 493.28 209.167 496.845 Q210.996 500.387 214.607 500.387 Q218.241 500.387 220.047 496.845 Q221.875 493.28 221.875 486.174 Q221.875 479.044 220.047 475.503 Q218.241 471.938 214.607 471.938 M214.607 468.234 Q220.417 468.234 223.473 472.841 Q226.551 477.424 226.551 486.174 Q226.551 494.901 223.473 499.507 Q220.417 504.09 214.607 504.09 Q208.797 504.09 205.718 499.507 Q202.662 494.901 202.662 486.174 Q202.662 477.424 205.718 472.841 Q208.797 468.234 214.607 468.234 Z" fill="#000000" fill-rule="nonzero" fill-opacity="1"></path><path clip-path="url(#clip000)" d="M114.931 200.118 L122.57 200.118 L122.57 173.752 L114.26 175.419 L114.26 171.159 L122.524 169.493 L127.2 169.493 L127.2 200.118 L134.839 200.118 L134.839 204.053 L114.931 204.053 L114.931 200.118 Z" fill="#000000" fill-rule="nonzero" fill-opacity="1"></path><path clip-path="url(#clip000)" d="M154.283 172.571 Q150.672 172.571 148.843 176.136 Q147.038 179.678 147.038 186.807 Q147.038 193.914 148.843 197.479 Q150.672 201.02 154.283 201.02 Q157.917 201.02 159.723 197.479 Q161.552 193.914 161.552 186.807 Q161.552 179.678 159.723 176.136 Q157.917 172.571 154.283 172.571 M154.283 168.868 Q160.093 168.868 163.149 173.474 Q166.227 178.058 166.227 186.807 Q166.227 195.534 163.149 200.141 Q160.093 204.724 154.283 204.724 Q148.473 204.724 145.394 200.141 Q142.339 195.534 142.339 186.807 Q142.339 178.058 145.394 173.474 Q148.473 168.868 154.283 168.868 Z" fill="#000000" fill-rule="nonzero" fill-opacity="1"></path><path clip-path="url(#clip000)" d="M184.445 172.571 Q180.834 172.571 179.005 176.136 Q177.2 179.678 177.2 186.807 Q177.2 193.914 179.005 197.479 Q180.834 201.02 184.445 201.02 Q188.079 201.02 189.885 197.479 Q191.713 193.914 191.713 186.807 Q191.713 179.678 189.885 176.136 Q188.079 172.571 184.445 172.571 M184.445 168.868 Q190.255 168.868 193.311 173.474 Q196.389 178.058 196.389 186.807 Q196.389 195.534 193.311 200.141 Q190.255 204.724 184.445 204.724 Q178.635 204.724 175.556 200.141 Q172.501 195.534 172.501 186.807 Q172.501 178.058 175.556 173.474 Q178.635 168.868 184.445 168.868 Z" fill="#000000" fill-rule="nonzero" fill-opacity="1"></path><path clip-path="url(#clip000)" d="M214.607 172.571 Q210.996 172.571 209.167 176.136 Q207.362 179.678 207.362 186.807 Q207.362 193.914 209.167 197.479 Q210.996 201.02 214.607 201.02 Q218.241 201.02 220.047 197.479 Q221.875 193.914 221.875 186.807 Q221.875 179.678 220.047 176.136 Q218.241 172.571 214.607 172.571 M214.607 168.868 Q220.417 168.868 223.473 173.474 Q226.551 178.058 226.551 186.807 Q226.551 195.534 223.473 200.141 Q220.417 204.724 214.607 204.724 Q208.797 204.724 205.718 200.141 Q202.662 195.534 202.662 186.807 Q202.662 178.058 205.718 173.474 Q208.797 168.868 214.607 168.868 Z" fill="#000000" fill-rule="nonzero" fill-opacity="1"></path><path clip-path="url(#clip000)" d="M44.7161 873.411 L47.5806 873.411 L47.5806 900.338 Q53.6281 899.956 56.8109 896.71 Q59.9619 893.432 59.9619 887.607 Q59.9619 884.233 59.1344 881.082 Q58.3069 877.899 56.6518 874.78 L62.1899 874.78 Q63.5267 877.931 64.227 881.241 Q64.9272 884.551 64.9272 887.957 Q64.9272 896.487 59.9619 901.484 Q54.9967 906.449 46.5303 906.449 Q37.7774 906.449 32.6531 901.739 Q27.4968 896.996 27.4968 888.976 Q27.4968 881.782 32.1438 877.613 Q36.7589 873.411 44.7161 873.411 M42.9973 879.268 Q38.1912 879.332 35.3266 881.973 Q32.4621 884.583 32.4621 888.912 Q32.4621 893.814 35.2312 896.774 Q38.0002 899.702 43.0292 900.147 L42.9973 879.268 Z" fill="#000000" fill-rule="nonzero" fill-opacity="1"></path><path clip-path="url(#clip000)" d="M28.3562 835.313 L45.7028 848.203 L64.0042 834.644 L64.0042 841.551 L49.9996 851.927 L64.0042 862.303 L64.0042 869.21 L45.3526 855.365 L28.3562 868.032 L28.3562 861.126 L41.0558 851.673 L28.3562 842.219 L28.3562 835.313 Z" fill="#000000" fill-rule="nonzero" fill-opacity="1"></path><path clip-path="url(#clip000)" d="M58.657 820.703 L77.5631 820.703 L77.5631 826.592 L28.3562 826.592 L28.3562 820.703 L33.7671 820.703 Q30.5842 818.857 29.0564 816.056 Q27.4968 813.224 27.4968 809.309 Q27.4968 802.816 32.6531 798.774 Q37.8093 794.699 46.212 794.699 Q54.6147 794.699 59.771 798.774 Q64.9272 802.816 64.9272 809.309 Q64.9272 813.224 63.3994 816.056 Q61.8398 818.857 58.657 820.703 M46.212 800.779 Q39.7508 800.779 36.0905 803.452 Q32.3984 806.094 32.3984 810.741 Q32.3984 815.388 36.0905 818.062 Q39.7508 820.703 46.212 820.703 Q52.6732 820.703 56.3653 818.062 Q60.0256 815.388 60.0256 810.741 Q60.0256 806.094 56.3653 803.452 Q52.6732 800.779 46.212 800.779 Z" fill="#000000" fill-rule="nonzero" fill-opacity="1"></path><path clip-path="url(#clip000)" d="M33.8307 764.335 Q33.2578 765.322 33.0032 766.499 Q32.7167 767.645 32.7167 769.046 Q32.7167 774.011 35.9632 776.685 Q39.1779 779.326 45.2253 779.326 L64.0042 779.326 L64.0042 785.215 L28.3562 785.215 L28.3562 779.326 L33.8944 779.326 Q30.6479 777.48 29.0883 774.52 Q27.4968 771.56 27.4968 767.327 Q27.4968 766.722 27.5923 765.99 Q27.656 765.258 27.8151 764.367 L33.8307 764.335 Z" fill="#000000" fill-rule="nonzero" fill-opacity="1"></path><path clip-path="url(#clip000)" d="M44.7161 729.133 L47.5806 729.133 L47.5806 756.06 Q53.6281 755.678 56.8109 752.431 Q59.9619 749.153 59.9619 743.328 Q59.9619 739.954 59.1344 736.803 Q58.3069 733.621 56.6518 730.501 L62.1899 730.501 Q63.5267 733.652 64.227 736.963 Q64.9272 740.273 64.9272 743.678 Q64.9272 752.208 59.9619 757.205 Q54.9967 762.171 46.5303 762.171 Q37.7774 762.171 32.6531 757.46 Q27.4968 752.718 27.4968 744.697 Q27.4968 737.504 32.1438 733.334 Q36.7589 729.133 44.7161 729.133 M42.9973 734.989 Q38.1912 735.053 35.3266 737.695 Q32.4621 740.305 32.4621 744.633 Q32.4621 749.535 35.2312 752.495 Q38.0002 755.423 43.0292 755.869 L42.9973 734.989 Z" fill="#000000" fill-rule="nonzero" fill-opacity="1"></path><path clip-path="url(#clip000)" d="M29.4065 696.795 L34.9447 696.795 Q33.6716 699.278 33.035 701.951 Q32.3984 704.625 32.3984 707.489 Q32.3984 711.85 33.7352 714.046 Q35.072 716.21 37.7456 716.21 Q39.7826 716.21 40.9603 714.651 Q42.1061 713.091 43.1565 708.381 L43.6021 706.375 Q44.9389 700.137 47.3897 697.527 Q49.8086 694.885 54.1691 694.885 Q59.1344 694.885 62.0308 698.832 Q64.9272 702.747 64.9272 709.622 Q64.9272 712.486 64.3543 715.606 Q63.8132 718.693 62.6992 722.13 L56.6518 722.13 Q58.3387 718.884 59.198 715.733 Q60.0256 712.582 60.0256 709.495 Q60.0256 705.357 58.6251 703.129 Q57.1929 700.901 54.6147 700.901 Q52.2276 700.901 50.9545 702.524 Q49.6813 704.115 48.5037 709.558 L48.0262 711.595 Q46.8804 717.038 44.5251 719.457 Q42.138 721.876 38.0002 721.876 Q32.9713 721.876 30.2341 718.311 Q27.4968 714.746 27.4968 708.19 Q27.4968 704.943 27.9743 702.078 Q28.4517 699.214 29.4065 696.795 Z" fill="#000000" fill-rule="nonzero" fill-opacity="1"></path><path clip-path="url(#clip000)" d="M29.4065 662.834 L34.9447 662.834 Q33.6716 665.317 33.035 667.99 Q32.3984 670.664 32.3984 673.528 Q32.3984 677.889 33.7352 680.085 Q35.072 682.249 37.7456 682.249 Q39.7826 682.249 40.9603 680.69 Q42.1061 679.13 43.1565 674.419 L43.6021 672.414 Q44.9389 666.176 47.3897 663.566 Q49.8086 660.924 54.1691 660.924 Q59.1344 660.924 62.0308 664.871 Q64.9272 668.786 64.9272 675.661 Q64.9272 678.525 64.3543 681.645 Q63.8132 684.732 62.6992 688.169 L56.6518 688.169 Q58.3387 684.923 59.198 681.772 Q60.0256 678.621 60.0256 675.533 Q60.0256 671.396 58.6251 669.168 Q57.1929 666.94 54.6147 666.94 Q52.2276 666.94 50.9545 668.563 Q49.6813 670.154 48.5037 675.597 L48.0262 677.634 Q46.8804 683.077 44.5251 685.496 Q42.138 687.915 38.0002 687.915 Q32.9713 687.915 30.2341 684.35 Q27.4968 680.785 27.4968 674.228 Q27.4968 670.982 27.9743 668.117 Q28.4517 665.253 29.4065 662.834 Z" fill="#000000" fill-rule="nonzero" fill-opacity="1"></path><path clip-path="url(#clip000)" d="M28.3562 651.598 L28.3562 645.742 L64.0042 645.742 L64.0042 651.598 L28.3562 651.598 M14.479 651.598 L14.479 645.742 L21.895 645.742 L21.895 651.598 L14.479 651.598 Z" fill="#000000" fill-rule="nonzero" fill-opacity="1"></path><path clip-path="url(#clip000)" d="M32.4621 619.674 Q32.4621 624.385 36.1542 627.122 Q39.8145 629.86 46.212 629.86 Q52.6095 629.86 56.3017 627.154 Q59.9619 624.417 59.9619 619.674 Q59.9619 614.996 56.2698 612.258 Q52.5777 609.521 46.212 609.521 Q39.8781 609.521 36.186 612.258 Q32.4621 614.996 32.4621 619.674 M27.4968 619.674 Q27.4968 612.036 32.4621 607.675 Q37.4273 603.315 46.212 603.315 Q54.9649 603.315 59.9619 607.675 Q64.9272 612.036 64.9272 619.674 Q64.9272 627.345 59.9619 631.706 Q54.9649 636.034 46.212 636.034 Q37.4273 636.034 32.4621 631.706 Q27.4968 627.345 27.4968 619.674 Z" fill="#000000" fill-rule="nonzero" fill-opacity="1"></path><path clip-path="url(#clip000)" d="M42.4881 563.974 L64.0042 563.974 L64.0042 569.831 L42.679 569.831 Q37.6183 569.831 35.1038 571.804 Q32.5894 573.778 32.5894 577.724 Q32.5894 582.467 35.6131 585.204 Q38.6368 587.941 43.8567 587.941 L64.0042 587.941 L64.0042 593.83 L28.3562 593.83 L28.3562 587.941 L33.8944 587.941 Q30.6797 585.841 29.0883 583.008 Q27.4968 580.143 27.4968 576.419 Q27.4968 570.277 31.3163 567.125 Q35.1038 563.974 42.4881 563.974 Z" fill="#000000" fill-rule="nonzero" fill-opacity="1"></path><polyline clip-path="url(#clip002)" style="stroke:#009af9; stroke-linecap:round; stroke-linejoin:round; stroke-width:4; stroke-opacity:1; fill:none" points="321.708,1343.52 323.68,1298.02 325.652,1240.54 327.624,1168.69 329.596,1111.22 331.567,1030.99 333.539,945.966 335.511,875.315 337.483,781.913 339.455,706.473 341.427,652.587 343.399,598.701 345.371,532.84 347.343,526.853 349.314,492.126 351.286,463.387 353.258,432.253 355.23,404.711 357.202,358.01 359.174,369.985 361.146,366.393 363.118,352.023 365.09,310.112 367.061,295.742 369.033,272.99 371.005,268.2 372.977,287.36 374.949,253.831 376.921,263.411 378.893,259.818 380.865,240.659 382.837,255.028 384.808,244.251 386.78,231.079 388.752,244.251 390.724,250.238 392.696,222.697 394.668,229.882 396.64,211.92 398.612,186.773 400.584,161.626 402.555,170.008 404.527,130.492 406.499,120.912 408.471,90.9755 410.443,89.7781 412.415,153.244 414.387,220.302 416.359,331.666 418.331,401.119 420.303,480.152 422.274,577.147 424.246,658.574 426.218,734.015 428.19,795.085 430.162,846.576 432.134,912.437 434.106,959.138 436.078,1005.84 438.05,1045.36 440.021,1077.69 441.993,1101.64 443.965,1130.38 445.937,1142.35 447.909,1169.89 449.881,1191.45 451.853,1209.41 453.825,1226.17 455.797,1240.54 457.768,1257.31 459.74,1265.69 461.712,1278.86 463.684,1287.24 465.656,1298.02 467.628,1307.6 469.6,1319.58 471.572,1323.17 473.544,1335.14 475.515,1335.14 477.487,1336.34 479.459,1342.33 481.431,1345.92 483.403,1349.51 485.375,1351.91 487.347,1355.5 489.319,1356.7 491.291,1357.89 493.262,1360.29 495.234,1362.68 497.206,1367.47 499.178,1367.47 501.15,1367.47 503.122,1368.67 505.094,1369.87 507.066,1372.26 509.038,1372.26 511.01,1372.26 512.981,1373.46 514.953,1375.86 516.925,1375.86 518.897,1375.86 520.869,1375.86 522.841,1379.45 524.813,1380.65 526.785,1380.65 528.757,1381.84 530.728,1383.04 532.7,1383.04 534.672,1383.04 536.644,1383.04 538.616,1383.04 540.588,1383.04 542.56,1383.04 544.532,1384.24 546.504,1383.04 548.475,1383.04 550.447,1383.04 552.419,1383.04 554.391,1383.04 556.363,1383.04 558.335,1384.24 560.307,1384.24 562.279,1384.24 564.251,1384.24 566.222,1384.24 568.194,1384.24 570.166,1384.24 572.138,1384.24 574.11,1384.24 576.082,1384.24 578.054,1384.24 580.026,1384.24 581.998,1384.24 583.969,1384.24 585.941,1384.24 587.913,1384.24 589.885,1384.24 591.857,1384.24 593.829,1384.24 595.801,1384.24 597.773,1384.24 599.745,1384.24 601.717,1384.24 603.688,1384.24 605.66,1383.04 607.632,1383.04 609.604,1380.65 611.576,1372.26 613.548,1338.73 615.52,1296.82 617.492,1264.49 619.464,1208.21 621.435,1137.56 623.407,1080.08 625.379,998.654 627.351,931.596 629.323,889.685 631.295,834.602 633.267,750.779 635.239,731.62 637.211,668.154 639.182,596.306 641.154,561.579 643.126,520.866 645.098,507.694 647.07,462.19 649.042,434.648 651.014,395.132 652.986,365.195 654.958,338.851 656.929,328.074 658.901,323.284 660.873,290.952 662.845,275.385 664.817,256.226 666.789,261.016 668.761,244.251 670.733,244.251 672.705,245.449 674.676,231.079 676.648,249.041 678.62,234.671 680.592,217.907 682.564,229.882 684.536,223.894 686.508,215.512 688.48,196.352 690.452,156.836 692.424,165.218 694.395,166.416 696.367,144.861 698.339,144.861 700.311,149.651 702.283,141.269 704.255,146.059 706.227,119.715 708.199,112.53 710.171,117.32 712.142,92.173 714.114,125.702 716.086,178.391 718.058,283.767 720.03,371.182 722.002,455.005 723.974,516.076 725.946,603.491 727.918,680.129 729.889,756.766 731.861,820.232 733.833,890.882 735.805,935.189 737.777,981.89 739.749,1022.6 741.721,1052.54 743.693,1092.06 745.665,1123.19 747.636,1154.32 749.608,1169.89 751.58,1190.25 753.552,1209.41 755.524,1226.17 757.496,1240.54 759.468,1257.31 761.44,1271.68 763.412,1281.26 765.383,1284.85 767.355,1298.02 769.327,1302.81 771.299,1308.8 773.271,1314.79 775.243,1319.58 777.215,1327.96 779.187,1331.55 781.159,1337.54 783.131,1341.13 785.102,1344.72 787.074,1350.71 789.046,1353.1 791.018,1354.3 792.99,1356.7 794.962,1360.29 796.934,1363.88 798.906,1365.08 800.878,1368.67 802.849,1369.87 804.821,1371.07 806.793,1375.86 808.765,1374.66 810.737,1375.86 812.709,1375.86 814.681,1379.45 816.653,1379.45 818.625,1380.65 820.596,1380.65 822.568,1380.65 824.54,1380.65 826.512,1380.65 828.484,1380.65 830.456,1380.65 832.428,1380.65 834.4,1381.84 836.372,1381.84 838.343,1381.84 840.315,1381.84 842.287,1381.84 844.259,1381.84 846.231,1381.84 848.203,1381.84 850.175,1381.84 852.147,1381.84 854.119,1383.04 856.09,1384.24 858.062,1384.24 860.034,1384.24 862.006,1384.24 863.978,1384.24 865.95,1384.24 867.922,1384.24 869.894,1384.24 871.866,1384.24 873.837,1384.24 875.809,1384.24 877.781,1384.24 879.753,1384.24 881.725,1384.24 883.697,1384.24 885.669,1384.24 887.641,1384.24 889.613,1384.24 891.585,1384.24 893.556,1384.24 895.528,1384.24 897.5,1384.24 899.472,1384.24 901.444,1384.24 903.416,1384.24 905.388,1381.84 907.36,1374.66 909.332,1368.67 911.303,1363.88 913.275,1355.5 915.247,1333.94 917.219,1281.26 919.191,1218.99 921.163,1144.75 923.135,1088.46 925.107,1023.8 927.079,944.768 929.05,880.105 931.022,816.64 932.994,744.792 934.966,670.549 936.938,609.478 938.91,584.331 940.882,534.038 942.854,500.509 944.826,470.572 946.797,409.501 948.769,392.737 950.741,386.75 952.713,384.355 954.685,392.737 956.657,369.985 958.629,336.456 960.601,314.902 962.573,325.679 964.544,300.532 966.516,283.767 968.488,231.079 970.46,202.34 972.432,198.747 974.404,190.365 976.376,173.601 978.348,183.18 980.32,173.601 982.292,168.811 984.263,184.378 986.235,202.34 988.207,208.327 990.179,205.932 992.151,199.945 994.123,211.92 996.095,220.302 998.067,271.793 1000.04,354.418 1002.01,429.858 1003.98,507.694 1005.95,571.159 1007.93,647.797 1009.9,699.288 1011.87,762.754 1013.84,819.035 1015.81,877.71 1017.79,920.819 1019.76,966.323 1021.73,1016.62 1023.7,1059.73 1025.67,1100.44 1027.65,1137.56 1029.62,1160.31 1031.59,1175.88 1033.56,1199.83 1035.53,1217.79 1037.5,1239.34 1039.48,1257.31 1041.45,1265.69 1043.42,1272.87 1045.39,1282.45 1047.36,1294.43 1049.34,1304.01 1051.31,1314.79 1053.28,1320.77 1055.25,1329.15 1057.22,1331.55 1059.2,1339.93 1061.17,1342.33 1063.14,1347.12 1065.11,1350.71 1067.08,1355.5 1069.05,1356.7 1071.03,1357.89 1073,1361.49 1074.97,1365.08 1076.94,1365.08 1078.91,1368.67 1080.89,1372.26 1082.86,1374.66 1084.83,1374.66 1086.8,1374.66 1088.77,1377.05 1090.75,1378.25 1092.72,1379.45 1094.69,1379.45 1096.66,1379.45 1098.63,1379.45 1100.6,1379.45 1102.58,1379.45 1104.55,1380.65 1106.52,1380.65 1108.49,1381.84 1110.46,1381.84 1112.44,1383.04 1114.41,1383.04 1116.38,1383.04 1118.35,1383.04 1120.32,1383.04 1122.3,1383.04 1124.27,1383.04 1126.24,1383.04 1128.21,1383.04 1130.18,1383.04 1132.16,1384.24 1134.13,1384.24 1136.1,1384.24 1138.07,1384.24 1140.04,1384.24 1142.01,1384.24 1143.99,1384.24 1145.96,1384.24 1147.93,1384.24 1149.9,1384.24 1151.87,1384.24 1153.85,1384.24 1155.82,1384.24 1157.79,1384.24 1159.76,1384.24 1161.73,1384.24 1163.71,1384.24 1165.68,1384.24 1167.65,1384.24 1169.62,1384.24 1171.59,1384.24 1173.56,1384.24 1175.54,1384.24 1177.51,1384.24 1179.48,1384.24 1181.45,1384.24 1183.42,1384.24 1185.4,1384.24 1187.37,1384.24 1189.34,1384.24 1191.31,1384.24 1193.28,1384.24 1195.26,1383.04 1197.23,1380.65 1199.2,1378.25 1201.17,1375.86 1203.14,1372.26 1205.12,1367.47 1207.09,1359.09 1209.06,1338.73 1211.03,1302.81 1213,1263.29 1214.97,1245.33 1216.95,1191.45 1218.92,1139.96 1220.89,1093.25 1222.86,1038.17 1224.83,968.718 1226.81,899.265 1228.78,813.047 1230.75,749.582 1232.72,687.313 1234.69,619.058 1236.67,565.172 1238.64,548.407 1240.61,518.471 1242.58,477.757 1244.55,426.266 1246.52,429.858 1248.5,365.195 1250.47,341.246 1252.44,331.666 1254.41,316.099 1256.38,269.398 1258.36,240.659 1260.33,210.722 1262.3,160.429 1264.27,178.391 1266.24,181.983 1268.22,181.983 1270.19,189.168 1272.16,186.773 1274.13,184.378 1276.1,192.76 1278.08,192.76 1280.05,201.142 1282.02,189.168 1283.99,181.983 1285.96,166.416 1287.93,170.008 1289.91,179.588 1291.88,161.626 1293.85,183.18 1295.82,195.155 1297.79,203.537 1299.77,290.952 1301.74,342.443 1303.71,387.947 1305.68,452.61 1307.65,505.299 1309.63,589.121 1311.6,672.944 1313.57,740.002 1315.54,795.085 1317.51,845.379 1319.48,904.055 1321.46,950.756 1323.43,999.852 1325.4,1045.36 1327.37,1077.69 1329.34,1119.6 1331.32,1149.54 1333.29,1174.68 1335.26,1191.45 1337.23,1211.8 1339.2,1223.78 1341.18,1240.54 1343.15,1258.5 1345.12,1274.07 1347.09,1288.44 1349.06,1302.81 1351.04,1311.19 1353.01,1314.79 1354.98,1323.17 1356.95,1331.55 1358.92,1336.34 1360.89,1339.93 1362.87,1345.92 1364.84,1349.51 1366.81,1350.71 1368.78,1355.5 1370.75,1359.09 1372.73,1362.68 1374.7,1363.88 1376.67,1365.08 1378.64,1365.08 1380.61,1367.47 1382.59,1368.67 1384.56,1368.67 1386.53,1368.67 1388.5,1369.87 1390.47,1372.26 1392.44,1374.66 1394.42,1375.86 1396.39,1375.86 1398.36,1375.86 1400.33,1375.86 1402.3,1375.86 1404.28,1377.05 1406.25,1378.25 1408.22,1378.25 1410.19,1379.45 1412.16,1380.65 1414.14,1381.84 1416.11,1383.04 1418.08,1383.04 1420.05,1384.24 1422.02,1384.24 1424,1384.24 1425.97,1384.24 1427.94,1383.04 1429.91,1383.04 1431.88,1383.04 1433.85,1383.04 1435.83,1383.04 1437.8,1384.24 1439.77,1384.24 1441.74,1384.24 1443.71,1384.24 1445.69,1384.24 1447.66,1384.24 1449.63,1384.24 1451.6,1384.24 1453.57,1384.24 1455.55,1384.24 1457.52,1384.24 1459.49,1384.24 1461.46,1384.24 1463.43,1384.24 1465.4,1384.24 1467.38,1384.24 1469.35,1384.24 1471.32,1384.24 1473.29,1384.24 1475.26,1384.24 1477.24,1384.24 1479.21,1384.24 1481.18,1384.24 1483.15,1384.24 1485.12,1384.24 1487.1,1384.24 1489.07,1384.24 1491.04,1384.24 1493.01,1383.04 1494.98,1381.84 1496.96,1381.84 1498.93,1380.65 1500.9,1379.45 1502.87,1378.25 1504.84,1367.47 1506.81,1327.96 1508.79,1265.69 1510.76,1190.25 1512.73,1129.18 1514.7,1076.49 1516.67,1003.44 1518.65,933.991 1520.62,882.5 1522.59,796.283 1524.56,734.015 1526.53,680.129 1528.51,637.02 1530.48,603.491 1532.45,540.025 1534.42,513.681 1536.39,484.942 1538.36,459.795 1540.34,422.673 1542.31,411.896 1544.28,392.737 1546.25,365.195 1548.22,377.17 1550.2,367.59 1552.17,336.456 1554.14,335.258 1556.11,316.099 1558.08,269.398 1560.06,234.671 1562.03,235.869 1564,249.041 1565.97,251.436 1567.94,231.079 1569.92,226.289 1571.89,193.958 1573.86,161.626 1575.83,153.244 1577.8,183.18 1579.77,156.836 1581.75,154.441 1583.72,143.664 1585.69,132.887 1587.66,128.097 1589.63,135.282 1591.61,147.256 1593.58,135.282 1595.55,159.231 1597.52,192.76 1599.49,189.168 1601.47,137.677 1603.44,162.823 1605.41,173.601 1607.38,203.537 1609.35,245.449 1611.32,306.519 1613.3,381.96 1615.27,469.375 1617.24,555.592 1619.21,625.045 1621.18,695.696 1623.16,756.766 1625.13,809.455 1627.1,869.328 1629.07,919.622 1631.04,962.73 1633.02,998.654 1634.99,1045.36 1636.96,1086.07 1638.93,1113.61 1640.9,1145.94 1642.88,1166.3 1644.85,1193.84 1646.82,1211.8 1648.79,1229.77 1650.76,1244.13 1652.73,1260.9 1654.71,1283.65 1656.68,1293.23 1658.65,1298.02 1660.62,1308.8 1662.59,1318.38 1664.57,1332.75 1666.54,1336.34 1668.51,1337.54 1670.48,1342.33 1672.45,1347.12 1674.43,1353.1 1676.4,1355.5 1678.37,1360.29 1680.34,1361.49 1682.31,1362.68 1684.28,1367.47 1686.26,1368.67 1688.23,1368.67 1690.2,1368.67 1692.17,1368.67 1694.14,1372.26 1696.12,1372.26 1698.09,1372.26 1700.06,1373.46 1702.03,1374.66 1704,1374.66 1705.98,1377.05 1707.95,1377.05 1709.92,1377.05 1711.89,1378.25 1713.86,1379.45 1715.84,1380.65 1717.81,1380.65 1719.78,1380.65 1721.75,1379.45 1723.72,1379.45 1725.69,1379.45 1727.67,1379.45 1729.64,1379.45 1731.61,1379.45 1733.58,1379.45 1735.55,1381.84 1737.53,1383.04 1739.5,1384.24 1741.47,1384.24 1743.44,1384.24 1745.41,1384.24 1747.39,1384.24 1749.36,1384.24 1751.33,1384.24 1753.3,1384.24 1755.27,1384.24 1757.24,1384.24 1759.22,1384.24 1761.19,1384.24 1763.16,1384.24 1765.13,1384.24 1767.1,1384.24 1769.08,1384.24 1771.05,1384.24 1773.02,1384.24 1774.99,1384.24 1776.96,1384.24 1778.94,1384.24 1780.91,1384.24 1782.88,1384.24 1784.85,1384.24 1786.82,1384.24 1788.8,1384.24 1790.77,1384.24 1792.74,1384.24 1794.71,1384.24 1796.68,1384.24 1798.65,1384.24 1800.63,1384.24 1802.6,1384.24 1804.57,1383.04 1806.54,1383.04 1808.51,1383.04 1810.49,1381.84 1812.46,1381.84 1814.43,1380.65 1816.4,1381.84 1818.37,1377.05 1820.35,1371.07 1822.32,1367.47 1824.29,1326.76 1826.26,1262.1 1828.23,1183.06 1830.2,1100.44 1832.18,1010.63 1834.15,920.819 1836.12,851.366 1838.09,786.703 1840.06,753.174 1842.04,694.498 1844.01,633.427 1845.98,580.739 1847.95,531.643 1849.92,508.891 1851.9,455.005 1853.87,459.795 1855.84,413.094 1857.81,384.355 1859.78,367.59 1861.75,332.864 1863.73,337.653 1865.7,299.335 1867.67,308.914 1869.64,299.335 1871.61,271.793 1873.59,241.856 1875.56,268.2 1877.53,259.818 1879.5,221.499 1881.47,196.352 1883.45,215.512 1885.42,185.575 1887.39,181.983 1889.36,174.798 1891.33,181.983 1893.31,199.945 1895.28,214.314 1897.25,205.932 1899.22,201.142 1901.19,178.391 1903.16,214.314 1905.14,217.907 1907.11,219.104 1909.08,190.365 1911.05,207.13 1913.02,181.983 1915,185.575 1916.97,177.193 1918.94,192.76 1920.91,211.92 1922.88,262.213 1924.86,337.653 1926.83,410.699 1928.8,490.929 1930.77,562.777 1932.74,629.835 1934.71,696.893 1936.69,762.754 1938.66,831.009 1940.63,870.526 1942.6,931.596 1944.57,975.903 1946.55,1032.18 1948.52,1065.71 1950.49,1100.44 1952.46,1118.4 1954.43,1143.55 1956.41,1173.48 1958.38,1196.24 1960.35,1215.4 1962.32,1227.37 1964.29,1240.54 1966.27,1257.31 1968.24,1275.27 1970.21,1282.45 1972.18,1292.03 1974.15,1300.42 1976.12,1310 1978.1,1318.38 1980.07,1330.35 1982.04,1337.54 1984.01,1338.73 1985.98,1342.33 1987.96,1345.92 1989.93,1350.71 1991.9,1354.3 1993.87,1354.3 1995.84,1360.29 1997.82,1362.68 1999.79,1366.28 2001.76,1366.28 2003.73,1366.28 2005.7,1366.28 2007.67,1366.28 2009.65,1368.67 2011.62,1368.67 2013.59,1368.67 2015.56,1371.07 2017.53,1373.46 2019.51,1374.66 2021.48,1374.66 2023.45,1375.86 2025.42,1377.05 2027.39,1377.05 2029.37,1378.25 2031.34,1378.25 2033.31,1380.65 2035.28,1380.65 2037.25,1380.65 2039.23,1380.65 2041.2,1380.65 2043.17,1380.65 2045.14,1379.45 2047.11,1379.45 2049.08,1379.45 2051.06,1379.45 2053.03,1379.45 2055,1380.65 2056.97,1380.65 2058.94,1380.65 2060.92,1380.65 2062.89,1380.65 2064.86,1380.65 2066.83,1381.84 2068.8,1381.84 2070.78,1383.04 2072.75,1383.04 2074.72,1384.24 2076.69,1384.24 2078.66,1384.24 2080.63,1384.24 2082.61,1384.24 2084.58,1384.24 2086.55,1384.24 2088.52,1384.24 2090.49,1384.24 2092.47,1384.24 2094.44,1384.24 2096.41,1384.24 2098.38,1384.24 2100.35,1384.24 2102.33,1384.24 2104.3,1384.24 2106.27,1384.24 2108.24,1384.24 2110.21,1384.24 2112.19,1384.24 2114.16,1384.24 2116.13,1384.24 2118.1,1384.24 2120.07,1384.24 2122.04,1383.04 2124.02,1383.04 2125.99,1383.04 2127.96,1383.04 2129.93,1383.04 2131.9,1380.65 2133.88,1379.45 2135.85,1377.05 2137.82,1368.67 2139.79,1360.29 2141.76,1355.5 2143.74,1330.35 2145.71,1287.24 2147.68,1205.82 2149.65,1143.55 2151.62,1072.9 2153.59,998.654 2155.57,930.399 2157.54,865.736 2159.51,822.627 2161.48,741.199 2163.45,686.116 2165.43,640.612 2167.4,597.503 2169.37,579.541 2171.34,520.866 2173.31,482.547 2175.29,416.686 2177.26,408.304 2179.23,387.947 2181.2,374.775 2183.17,331.666 2185.15,330.469 2187.12,283.767 2189.09,271.793 2191.06,241.856 2193.03,211.92 2195,214.314 2196.98,235.869 2198.95,191.563 2200.92,207.13 2202.89,195.155 2204.86,210.722 2206.84,187.97 2208.81,178.391 2210.78,199.945 2212.75,181.983 2214.72,146.059 2216.7,152.046 2218.67,124.505 2220.64,119.715 2222.61,113.727 2224.58,116.122 2226.55,101.753 2228.53,89.7781 2230.5,95.7654 2232.47,86.1857 2234.44,101.753 2236.41,156.836 2238.39,233.474 2240.36,299.335 2242.33,383.157 2244.3,462.19 2246.27,541.223 2248.25,615.465 2250.22,674.141 2252.19,737.607 2254.16,792.69 2256.13,854.959 2258.11,901.66 2260.08,947.163 2262.05,996.259 2264.02,1023.8 2265.99,1063.32 2267.96,1084.87 2269.94,1112.41 2271.91,1130.38 2273.88,1160.31 2275.85,1187.85 2277.82,1207.01 2279.8,1221.38 2281.77,1233.36 2283.74,1244.13 2285.71,1253.71 2287.68,1263.29 2289.66,1268.08 2291.63,1281.26 2293.6,1292.03 "></polyline>
</svg>