<svg xmlns="http://www.w3.org/2000/svg" xmlns:xlink="http://www.w3.org/1999/xlink" width="600" height="400" viewBox="0 0 2400 1600">
<defs>
  <clipPath id="clip350">
    <rect x="0" y="0" width="2400" height="1600"></rect>
  </clipPath>
</defs>
<path clip-path="url(#clip350)" d="M0 1600 L2400 1600 L2400 8.88178e-14 L0 8.88178e-14  Z" fill="#ffffff" fill-rule="evenodd" fill-opacity="1"></path>
<defs>
  <clipPath id="clip351">
    <rect x="480" y="0" width="1681" height="1600"></rect>
  </clipPath>
</defs>
<path clip-path="url(#clip350)" d="M235.283 1423.18 L2352.76 1423.18 L2352.76 123.472 L235.283 123.472  Z" fill="#ffffff" fill-rule="evenodd" fill-opacity="1"></path>
<defs>
  <clipPath id="clip352">
    <rect x="235" y="123" width="2118" height="1301"></rect>
  </clipPath>
</defs>
<polyline clip-path="url(#clip352)" style="stroke:#000000; stroke-linecap:round; stroke-linejoin:round; stroke-width:2; stroke-opacity:0.1; fill:none" points="293.214,1423.18 293.214,123.472 "></polyline>
<polyline clip-path="url(#clip352)" style="stroke:#000000; stroke-linecap:round; stroke-linejoin:round; stroke-width:2; stroke-opacity:0.1; fill:none" points="792.618,1423.18 792.618,123.472 "></polyline>
<polyline clip-path="url(#clip352)" style="stroke:#000000; stroke-linecap:round; stroke-linejoin:round; stroke-width:2; stroke-opacity:0.1; fill:none" points="1292.02,1423.18 1292.02,123.472 "></polyline>
<polyline clip-path="url(#clip352)" style="stroke:#000000; stroke-linecap:round; stroke-linejoin:round; stroke-width:2; stroke-opacity:0.1; fill:none" points="1791.43,1423.18 1791.43,123.472 "></polyline>
<polyline clip-path="url(#clip352)" style="stroke:#000000; stroke-linecap:round; stroke-linejoin:round; stroke-width:2; stroke-opacity:0.1; fill:none" points="2290.83,1423.18 2290.83,123.472 "></polyline>
<polyline clip-path="url(#clip352)" style="stroke:#000000; stroke-linecap:round; stroke-linejoin:round; stroke-width:2; stroke-opacity:0.1; fill:none" points="235.283,1386.4 2352.76,1386.4 "></polyline>
<polyline clip-path="url(#clip352)" style="stroke:#000000; stroke-linecap:round; stroke-linejoin:round; stroke-width:2; stroke-opacity:0.1; fill:none" points="235.283,1187.67 2352.76,1187.67 "></polyline>
<polyline clip-path="url(#clip352)" style="stroke:#000000; stroke-linecap:round; stroke-linejoin:round; stroke-width:2; stroke-opacity:0.1; fill:none" points="235.283,988.944 2352.76,988.944 "></polyline>
<polyline clip-path="url(#clip352)" style="stroke:#000000; stroke-linecap:round; stroke-linejoin:round; stroke-width:2; stroke-opacity:0.1; fill:none" points="235.283,790.218 2352.76,790.218 "></polyline>
<polyline clip-path="url(#clip352)" style="stroke:#000000; stroke-linecap:round; stroke-linejoin:round; stroke-width:2; stroke-opacity:0.1; fill:none" points="235.283,591.492 2352.76,591.492 "></polyline>
<polyline clip-path="url(#clip352)" style="stroke:#000000; stroke-linecap:round; stroke-linejoin:round; stroke-width:2; stroke-opacity:0.1; fill:none" points="235.283,392.766 2352.76,392.766 "></polyline>
<polyline clip-path="url(#clip352)" style="stroke:#000000; stroke-linecap:round; stroke-linejoin:round; stroke-width:2; stroke-opacity:0.1; fill:none" points="235.283,194.04 2352.76,194.04 "></polyline>
<polyline clip-path="url(#clip350)" style="stroke:#000000; stroke-linecap:round; stroke-linejoin:round; stroke-width:4; stroke-opacity:1; fill:none" points="235.283,1423.18 2352.76,1423.18 "></polyline>
<polyline clip-path="url(#clip350)" style="stroke:#000000; stroke-linecap:round; stroke-linejoin:round; stroke-width:4; stroke-opacity:1; fill:none" points="293.214,1423.18 293.214,1404.28 "></polyline>
<polyline clip-path="url(#clip350)" style="stroke:#000000; stroke-linecap:round; stroke-linejoin:round; stroke-width:4; stroke-opacity:1; fill:none" points="792.618,1423.18 792.618,1404.28 "></polyline>
<polyline clip-path="url(#clip350)" style="stroke:#000000; stroke-linecap:round; stroke-linejoin:round; stroke-width:4; stroke-opacity:1; fill:none" points="1292.02,1423.18 1292.02,1404.28 "></polyline>
<polyline clip-path="url(#clip350)" style="stroke:#000000; stroke-linecap:round; stroke-linejoin:round; stroke-width:4; stroke-opacity:1; fill:none" points="1791.43,1423.18 1791.43,1404.28 "></polyline>
<polyline clip-path="url(#clip350)" style="stroke:#000000; stroke-linecap:round; stroke-linejoin:round; stroke-width:4; stroke-opacity:1; fill:none" points="2290.83,1423.18 2290.83,1404.28 "></polyline>
<path clip-path="url(#clip350)" d="M293.214 1454.1 Q289.603 1454.1 287.774 1457.66 Q285.968 1461.2 285.968 1468.33 Q285.968 1475.44 287.774 1479.01 Q289.603 1482.55 293.214 1482.55 Q296.848 1482.55 298.654 1479.01 Q300.482 1475.44 300.482 1468.33 Q300.482 1461.2 298.654 1457.66 Q296.848 1454.1 293.214 1454.1 M293.214 1450.39 Q299.024 1450.39 302.079 1455 Q305.158 1459.58 305.158 1468.33 Q305.158 1477.06 302.079 1481.67 Q299.024 1486.25 293.214 1486.25 Q287.404 1486.25 284.325 1481.67 Q281.269 1477.06 281.269 1468.33 Q281.269 1459.58 284.325 1455 Q287.404 1450.39 293.214 1450.39 Z" fill="#000000" fill-rule="nonzero" fill-opacity="1"></path><path clip-path="url(#clip350)" d="M756.31 1481.64 L772.629 1481.64 L772.629 1485.58 L750.685 1485.58 L750.685 1481.64 Q753.347 1478.89 757.93 1474.26 Q762.537 1469.61 763.717 1468.27 Q765.963 1465.74 766.842 1464.01 Q767.745 1462.25 767.745 1460.56 Q767.745 1457.8 765.801 1456.07 Q763.879 1454.33 760.778 1454.33 Q758.579 1454.33 756.125 1455.09 Q753.694 1455.86 750.917 1457.41 L750.917 1452.69 Q753.741 1451.55 756.194 1450.97 Q758.648 1450.39 760.685 1450.39 Q766.055 1450.39 769.25 1453.08 Q772.444 1455.77 772.444 1460.26 Q772.444 1462.39 771.634 1464.31 Q770.847 1466.2 768.741 1468.8 Q768.162 1469.47 765.06 1472.69 Q761.958 1475.88 756.31 1481.64 Z" fill="#000000" fill-rule="nonzero" fill-opacity="1"></path><path clip-path="url(#clip350)" d="M782.49 1451.02 L800.847 1451.02 L800.847 1454.96 L786.773 1454.96 L786.773 1463.43 Q787.791 1463.08 788.81 1462.92 Q789.828 1462.73 790.847 1462.73 Q796.634 1462.73 800.014 1465.9 Q803.393 1469.08 803.393 1474.49 Q803.393 1480.07 799.921 1483.17 Q796.449 1486.25 790.129 1486.25 Q787.953 1486.25 785.685 1485.88 Q783.44 1485.51 781.032 1484.77 L781.032 1480.07 Q783.115 1481.2 785.338 1481.76 Q787.56 1482.32 790.037 1482.32 Q794.041 1482.32 796.379 1480.21 Q798.717 1478.1 798.717 1474.49 Q798.717 1470.88 796.379 1468.77 Q794.041 1466.67 790.037 1466.67 Q788.162 1466.67 786.287 1467.08 Q784.435 1467.5 782.49 1468.38 L782.49 1451.02 Z" fill="#000000" fill-rule="nonzero" fill-opacity="1"></path><path clip-path="url(#clip350)" d="M822.606 1454.1 Q818.995 1454.1 817.166 1457.66 Q815.361 1461.2 815.361 1468.33 Q815.361 1475.44 817.166 1479.01 Q818.995 1482.55 822.606 1482.55 Q826.24 1482.55 828.046 1479.01 Q829.874 1475.44 829.874 1468.33 Q829.874 1461.2 828.046 1457.66 Q826.24 1454.1 822.606 1454.1 M822.606 1450.39 Q828.416 1450.39 831.472 1455 Q834.55 1459.58 834.55 1468.33 Q834.55 1477.06 831.472 1481.67 Q828.416 1486.25 822.606 1486.25 Q816.796 1486.25 813.717 1481.67 Q810.662 1477.06 810.662 1468.33 Q810.662 1459.58 813.717 1455 Q816.796 1450.39 822.606 1450.39 Z" fill="#000000" fill-rule="nonzero" fill-opacity="1"></path><path clip-path="url(#clip350)" d="M1251.64 1451.02 L1270 1451.02 L1270 1454.96 L1255.92 1454.96 L1255.92 1463.43 Q1256.94 1463.08 1257.96 1462.92 Q1258.98 1462.73 1260 1462.73 Q1265.78 1462.73 1269.16 1465.9 Q1272.54 1469.08 1272.54 1474.49 Q1272.54 1480.07 1269.07 1483.17 Q1265.6 1486.25 1259.28 1486.25 Q1257.1 1486.25 1254.83 1485.88 Q1252.59 1485.51 1250.18 1484.77 L1250.18 1480.07 Q1252.27 1481.2 1254.49 1481.76 Q1256.71 1482.32 1259.19 1482.32 Q1263.19 1482.32 1265.53 1480.21 Q1267.87 1478.1 1267.87 1474.49 Q1267.87 1470.88 1265.53 1468.77 Q1263.19 1466.67 1259.19 1466.67 Q1257.31 1466.67 1255.44 1467.08 Q1253.58 1467.5 1251.64 1468.38 L1251.64 1451.02 Z" fill="#000000" fill-rule="nonzero" fill-opacity="1"></path><path clip-path="url(#clip350)" d="M1291.76 1454.1 Q1288.14 1454.1 1286.32 1457.66 Q1284.51 1461.2 1284.51 1468.33 Q1284.51 1475.44 1286.32 1479.01 Q1288.14 1482.55 1291.76 1482.55 Q1295.39 1482.55 1297.2 1479.01 Q1299.02 1475.44 1299.02 1468.33 Q1299.02 1461.2 1297.2 1457.66 Q1295.39 1454.1 1291.76 1454.1 M1291.76 1450.39 Q1297.57 1450.39 1300.62 1455 Q1303.7 1459.58 1303.7 1468.33 Q1303.7 1477.06 1300.62 1481.67 Q1297.57 1486.25 1291.76 1486.25 Q1285.95 1486.25 1282.87 1481.67 Q1279.81 1477.06 1279.81 1468.33 Q1279.81 1459.58 1282.87 1455 Q1285.95 1450.39 1291.76 1450.39 Z" fill="#000000" fill-rule="nonzero" fill-opacity="1"></path><path clip-path="url(#clip350)" d="M1321.92 1454.1 Q1318.31 1454.1 1316.48 1457.66 Q1314.67 1461.2 1314.67 1468.33 Q1314.67 1475.44 1316.48 1479.01 Q1318.31 1482.55 1321.92 1482.55 Q1325.55 1482.55 1327.36 1479.01 Q1329.19 1475.44 1329.19 1468.33 Q1329.19 1461.2 1327.36 1457.66 Q1325.55 1454.1 1321.92 1454.1 M1321.92 1450.39 Q1327.73 1450.39 1330.78 1455 Q1333.86 1459.58 1333.86 1468.33 Q1333.86 1477.06 1330.78 1481.67 Q1327.73 1486.25 1321.92 1486.25 Q1316.11 1486.25 1313.03 1481.67 Q1309.97 1477.06 1309.97 1468.33 Q1309.97 1459.58 1313.03 1455 Q1316.11 1450.39 1321.92 1450.39 Z" fill="#000000" fill-rule="nonzero" fill-opacity="1"></path><path clip-path="url(#clip350)" d="M1749.7 1451.02 L1771.92 1451.02 L1771.92 1453.01 L1759.38 1485.58 L1754.49 1485.58 L1766.3 1454.96 L1749.7 1454.96 L1749.7 1451.02 Z" fill="#000000" fill-rule="nonzero" fill-opacity="1"></path><path clip-path="url(#clip350)" d="M1781.09 1451.02 L1799.45 1451.02 L1799.45 1454.96 L1785.37 1454.96 L1785.37 1463.43 Q1786.39 1463.08 1787.41 1462.92 Q1788.43 1462.73 1789.45 1462.73 Q1795.23 1462.73 1798.61 1465.9 Q1801.99 1469.08 1801.99 1474.49 Q1801.99 1480.07 1798.52 1483.17 Q1795.05 1486.25 1788.73 1486.25 Q1786.55 1486.25 1784.28 1485.88 Q1782.04 1485.51 1779.63 1484.77 L1779.63 1480.07 Q1781.72 1481.2 1783.94 1481.76 Q1786.16 1482.32 1788.64 1482.32 Q1792.64 1482.32 1794.98 1480.21 Q1797.32 1478.1 1797.32 1474.49 Q1797.32 1470.88 1794.98 1468.77 Q1792.64 1466.67 1788.64 1466.67 Q1786.76 1466.67 1784.89 1467.08 Q1783.03 1467.5 1781.09 1468.38 L1781.09 1451.02 Z" fill="#000000" fill-rule="nonzero" fill-opacity="1"></path><path clip-path="url(#clip350)" d="M1821.21 1454.1 Q1817.59 1454.1 1815.77 1457.66 Q1813.96 1461.2 1813.96 1468.33 Q1813.96 1475.44 1815.77 1479.01 Q1817.59 1482.55 1821.21 1482.55 Q1824.84 1482.55 1826.65 1479.01 Q1828.47 1475.44 1828.47 1468.33 Q1828.47 1461.2 1826.65 1457.66 Q1824.84 1454.1 1821.21 1454.1 M1821.21 1450.39 Q1827.02 1450.39 1830.07 1455 Q1833.15 1459.58 1833.15 1468.33 Q1833.15 1477.06 1830.07 1481.67 Q1827.02 1486.25 1821.21 1486.25 Q1815.4 1486.25 1812.32 1481.67 Q1809.26 1477.06 1809.26 1468.33 Q1809.26 1459.58 1812.32 1455 Q1815.4 1450.39 1821.21 1450.39 Z" fill="#000000" fill-rule="nonzero" fill-opacity="1"></path><path clip-path="url(#clip350)" d="M2235.36 1481.64 L2242.99 1481.64 L2242.99 1455.28 L2234.68 1456.95 L2234.68 1452.69 L2242.95 1451.02 L2247.62 1451.02 L2247.62 1481.64 L2255.26 1481.64 L2255.26 1485.58 L2235.36 1485.58 L2235.36 1481.64 Z" fill="#000000" fill-rule="nonzero" fill-opacity="1"></path><path clip-path="url(#clip350)" d="M2274.71 1454.1 Q2271.1 1454.1 2269.27 1457.66 Q2267.46 1461.2 2267.46 1468.33 Q2267.46 1475.44 2269.27 1479.01 Q2271.1 1482.55 2274.71 1482.55 Q2278.34 1482.55 2280.15 1479.01 Q2281.98 1475.44 2281.98 1468.33 Q2281.98 1461.2 2280.15 1457.66 Q2278.34 1454.1 2274.71 1454.1 M2274.71 1450.39 Q2280.52 1450.39 2283.57 1455 Q2286.65 1459.58 2286.65 1468.33 Q2286.65 1477.06 2283.57 1481.67 Q2280.52 1486.25 2274.71 1486.25 Q2268.9 1486.25 2265.82 1481.67 Q2262.76 1477.06 2262.76 1468.33 Q2262.76 1459.58 2265.82 1455 Q2268.9 1450.39 2274.71 1450.39 Z" fill="#000000" fill-rule="nonzero" fill-opacity="1"></path><path clip-path="url(#clip350)" d="M2304.87 1454.1 Q2301.26 1454.1 2299.43 1457.66 Q2297.62 1461.2 2297.62 1468.33 Q2297.62 1475.44 2299.43 1479.01 Q2301.26 1482.55 2304.87 1482.55 Q2308.5 1482.55 2310.31 1479.01 Q2312.14 1475.44 2312.14 1468.33 Q2312.14 1461.2 2310.31 1457.66 Q2308.5 1454.1 2304.87 1454.1 M2304.87 1450.39 Q2310.68 1450.39 2313.73 1455 Q2316.81 1459.58 2316.81 1468.33 Q2316.81 1477.06 2313.73 1481.67 Q2310.68 1486.25 2304.87 1486.25 Q2299.06 1486.25 2295.98 1481.67 Q2292.92 1477.06 2292.92 1468.33 Q2292.92 1459.58 2295.98 1455 Q2299.06 1450.39 2304.87 1450.39 Z" fill="#000000" fill-rule="nonzero" fill-opacity="1"></path><path clip-path="url(#clip350)" d="M2335.03 1454.1 Q2331.42 1454.1 2329.59 1457.66 Q2327.79 1461.2 2327.79 1468.33 Q2327.79 1475.44 2329.59 1479.01 Q2331.42 1482.55 2335.03 1482.55 Q2338.67 1482.55 2340.47 1479.01 Q2342.3 1475.44 2342.3 1468.33 Q2342.3 1461.2 2340.47 1457.66 Q2338.67 1454.1 2335.03 1454.1 M2335.03 1450.39 Q2340.84 1450.39 2343.9 1455 Q2346.98 1459.58 2346.98 1468.33 Q2346.98 1477.06 2343.9 1481.67 Q2340.84 1486.25 2335.03 1486.25 Q2329.22 1486.25 2326.14 1481.67 Q2323.09 1477.06 2323.09 1468.33 Q2323.09 1459.58 2326.14 1455 Q2329.22 1450.39 2335.03 1450.39 Z" fill="#000000" fill-rule="nonzero" fill-opacity="1"></path><path clip-path="url(#clip350)" d="M1233.18 1522.27 L1233.18 1532.4 L1245.24 1532.4 L1245.24 1536.95 L1233.18 1536.95 L1233.18 1556.3 Q1233.18 1560.66 1234.36 1561.9 Q1235.57 1563.14 1239.23 1563.14 L1245.24 1563.14 L1245.24 1568.04 L1239.23 1568.04 Q1232.45 1568.04 1229.87 1565.53 Q1227.29 1562.98 1227.29 1556.3 L1227.29 1536.95 L1222.99 1536.95 L1222.99 1532.4 L1227.29 1532.4 L1227.29 1522.27 L1233.18 1522.27 Z" fill="#000000" fill-rule="nonzero" fill-opacity="1"></path><path clip-path="url(#clip350)" d="M1252.94 1532.4 L1258.8 1532.4 L1258.8 1568.04 L1252.94 1568.04 L1252.94 1532.4 M1252.94 1518.52 L1258.8 1518.52 L1258.8 1525.93 L1252.94 1525.93 L1252.94 1518.52 Z" fill="#000000" fill-rule="nonzero" fill-opacity="1"></path><path clip-path="url(#clip350)" d="M1298.81 1539.24 Q1301.01 1535.29 1304.06 1533.41 Q1307.12 1531.54 1311.25 1531.54 Q1316.82 1531.54 1319.85 1535.45 Q1322.87 1539.33 1322.87 1546.53 L1322.87 1568.04 L1316.98 1568.04 L1316.98 1546.72 Q1316.98 1541.59 1315.17 1539.11 Q1313.36 1536.63 1309.63 1536.63 Q1305.08 1536.63 1302.44 1539.65 Q1299.8 1542.68 1299.8 1547.9 L1299.8 1568.04 L1293.91 1568.04 L1293.91 1546.72 Q1293.91 1541.56 1292.09 1539.11 Q1290.28 1536.63 1286.49 1536.63 Q1282 1536.63 1279.36 1539.68 Q1276.72 1542.71 1276.72 1547.9 L1276.72 1568.04 L1270.83 1568.04 L1270.83 1532.4 L1276.72 1532.4 L1276.72 1537.93 Q1278.73 1534.66 1281.53 1533.1 Q1284.33 1531.54 1288.18 1531.54 Q1292.06 1531.54 1294.77 1533.51 Q1297.5 1535.48 1298.81 1539.24 Z" fill="#000000" fill-rule="nonzero" fill-opacity="1"></path><path clip-path="url(#clip350)" d="M1365.04 1548.76 L1365.04 1551.62 L1338.12 1551.62 Q1338.5 1557.67 1341.75 1560.85 Q1345.02 1564 1350.85 1564 Q1354.22 1564 1357.37 1563.17 Q1360.56 1562.35 1363.68 1560.69 L1363.68 1566.23 Q1360.53 1567.57 1357.21 1568.27 Q1353.9 1568.97 1350.5 1568.97 Q1341.97 1568.97 1336.97 1564 Q1332.01 1559.04 1332.01 1550.57 Q1332.01 1541.82 1336.72 1536.69 Q1341.46 1531.54 1349.48 1531.54 Q1356.67 1531.54 1360.84 1536.18 Q1365.04 1540.8 1365.04 1548.76 M1359.19 1547.04 Q1359.12 1542.23 1356.48 1539.37 Q1353.87 1536.5 1349.54 1536.5 Q1344.64 1536.5 1341.68 1539.27 Q1338.75 1542.04 1338.31 1547.07 L1359.19 1547.04 Z" fill="#000000" fill-rule="nonzero" fill-opacity="1"></path><polyline clip-path="url(#clip350)" style="stroke:#000000; stroke-linecap:round; stroke-linejoin:round; stroke-width:4; stroke-opacity:1; fill:none" points="235.283,1423.18 235.283,123.472 "></polyline>
<polyline clip-path="url(#clip350)" style="stroke:#000000; stroke-linecap:round; stroke-linejoin:round; stroke-width:4; stroke-opacity:1; fill:none" points="235.283,1386.4 254.18,1386.4 "></polyline>
<polyline clip-path="url(#clip350)" style="stroke:#000000; stroke-linecap:round; stroke-linejoin:round; stroke-width:4; stroke-opacity:1; fill:none" points="235.283,1187.67 254.18,1187.67 "></polyline>
<polyline clip-path="url(#clip350)" style="stroke:#000000; stroke-linecap:round; stroke-linejoin:round; stroke-width:4; stroke-opacity:1; fill:none" points="235.283,988.944 254.18,988.944 "></polyline>
<polyline clip-path="url(#clip350)" style="stroke:#000000; stroke-linecap:round; stroke-linejoin:round; stroke-width:4; stroke-opacity:1; fill:none" points="235.283,790.218 254.18,790.218 "></polyline>
<polyline clip-path="url(#clip350)" style="stroke:#000000; stroke-linecap:round; stroke-linejoin:round; stroke-width:4; stroke-opacity:1; fill:none" points="235.283,591.492 254.18,591.492 "></polyline>
<polyline clip-path="url(#clip350)" style="stroke:#000000; stroke-linecap:round; stroke-linejoin:round; stroke-width:4; stroke-opacity:1; fill:none" points="235.283,392.766 254.18,392.766 "></polyline>
<polyline clip-path="url(#clip350)" style="stroke:#000000; stroke-linecap:round; stroke-linejoin:round; stroke-width:4; stroke-opacity:1; fill:none" points="235.283,194.04 254.18,194.04 "></polyline>
<path clip-path="url(#clip350)" d="M187.338 1372.19 Q183.727 1372.19 181.899 1375.76 Q180.093 1379.3 180.093 1386.43 Q180.093 1393.54 181.899 1397.1 Q183.727 1400.64 187.338 1400.64 Q190.973 1400.64 192.778 1397.1 Q194.607 1393.54 194.607 1386.43 Q194.607 1379.3 192.778 1375.76 Q190.973 1372.19 187.338 1372.19 M187.338 1368.49 Q193.149 1368.49 196.204 1373.1 Q199.283 1377.68 199.283 1386.43 Q199.283 1395.16 196.204 1399.76 Q193.149 1404.35 187.338 1404.35 Q181.528 1404.35 178.45 1399.76 Q175.394 1395.16 175.394 1386.43 Q175.394 1377.68 178.45 1373.1 Q181.528 1368.49 187.338 1368.49 Z" fill="#000000" fill-rule="nonzero" fill-opacity="1"></path><path clip-path="url(#clip350)" d="M117.825 1201.01 L125.464 1201.01 L125.464 1174.65 L117.154 1176.32 L117.154 1172.06 L125.418 1170.39 L130.093 1170.39 L130.093 1201.01 L137.732 1201.01 L137.732 1204.95 L117.825 1204.95 L117.825 1201.01 Z" fill="#000000" fill-rule="nonzero" fill-opacity="1"></path><path clip-path="url(#clip350)" d="M157.177 1173.47 Q153.566 1173.47 151.737 1177.03 Q149.931 1180.57 149.931 1187.7 Q149.931 1194.81 151.737 1198.38 Q153.566 1201.92 157.177 1201.92 Q160.811 1201.92 162.616 1198.38 Q164.445 1194.81 164.445 1187.7 Q164.445 1180.57 162.616 1177.03 Q160.811 1173.47 157.177 1173.47 M157.177 1169.76 Q162.987 1169.76 166.042 1174.37 Q169.121 1178.95 169.121 1187.7 Q169.121 1196.43 166.042 1201.04 Q162.987 1205.62 157.177 1205.62 Q151.366 1205.62 148.288 1201.04 Q145.232 1196.43 145.232 1187.7 Q145.232 1178.95 148.288 1174.37 Q151.366 1169.76 157.177 1169.76 Z" fill="#000000" fill-rule="nonzero" fill-opacity="1"></path><path clip-path="url(#clip350)" d="M187.338 1173.47 Q183.727 1173.47 181.899 1177.03 Q180.093 1180.57 180.093 1187.7 Q180.093 1194.81 181.899 1198.38 Q183.727 1201.92 187.338 1201.92 Q190.973 1201.92 192.778 1198.38 Q194.607 1194.81 194.607 1187.7 Q194.607 1180.57 192.778 1177.03 Q190.973 1173.47 187.338 1173.47 M187.338 1169.76 Q193.149 1169.76 196.204 1174.37 Q199.283 1178.95 199.283 1187.7 Q199.283 1196.43 196.204 1201.04 Q193.149 1205.62 187.338 1205.62 Q181.528 1205.62 178.45 1201.04 Q175.394 1196.43 175.394 1187.7 Q175.394 1178.95 178.45 1174.37 Q181.528 1169.76 187.338 1169.76 Z" fill="#000000" fill-rule="nonzero" fill-opacity="1"></path><path clip-path="url(#clip350)" d="M121.043 1002.29 L137.362 1002.29 L137.362 1006.22 L115.418 1006.22 L115.418 1002.29 Q118.08 999.534 122.663 994.904 Q127.269 990.252 128.45 988.909 Q130.695 986.386 131.575 984.65 Q132.478 982.89 132.478 981.201 Q132.478 978.446 130.533 976.71 Q128.612 974.974 125.51 974.974 Q123.311 974.974 120.857 975.738 Q118.427 976.502 115.649 978.053 L115.649 973.33 Q118.473 972.196 120.927 971.617 Q123.38 971.039 125.418 971.039 Q130.788 971.039 133.982 973.724 Q137.177 976.409 137.177 980.9 Q137.177 983.029 136.367 984.951 Q135.579 986.849 133.473 989.441 Q132.894 990.113 129.792 993.33 Q126.691 996.525 121.043 1002.29 Z" fill="#000000" fill-rule="nonzero" fill-opacity="1"></path><path clip-path="url(#clip350)" d="M157.177 974.742 Q153.566 974.742 151.737 978.307 Q149.931 981.849 149.931 988.978 Q149.931 996.085 151.737 999.65 Q153.566 1003.19 157.177 1003.19 Q160.811 1003.19 162.616 999.65 Q164.445 996.085 164.445 988.978 Q164.445 981.849 162.616 978.307 Q160.811 974.742 157.177 974.742 M157.177 971.039 Q162.987 971.039 166.042 975.645 Q169.121 980.228 169.121 988.978 Q169.121 997.705 166.042 1002.31 Q162.987 1006.89 157.177 1006.89 Q151.366 1006.89 148.288 1002.31 Q145.232 997.705 145.232 988.978 Q145.232 980.228 148.288 975.645 Q151.366 971.039 157.177 971.039 Z" fill="#000000" fill-rule="nonzero" fill-opacity="1"></path><path clip-path="url(#clip350)" d="M187.338 974.742 Q183.727 974.742 181.899 978.307 Q180.093 981.849 180.093 988.978 Q180.093 996.085 181.899 999.65 Q183.727 1003.19 187.338 1003.19 Q190.973 1003.19 192.778 999.65 Q194.607 996.085 194.607 988.978 Q194.607 981.849 192.778 978.307 Q190.973 974.742 187.338 974.742 M187.338 971.039 Q193.149 971.039 196.204 975.645 Q199.283 980.228 199.283 988.978 Q199.283 997.705 196.204 1002.31 Q193.149 1006.89 187.338 1006.89 Q181.528 1006.89 178.45 1002.31 Q175.394 997.705 175.394 988.978 Q175.394 980.228 178.45 975.645 Q181.528 971.039 187.338 971.039 Z" fill="#000000" fill-rule="nonzero" fill-opacity="1"></path><path clip-path="url(#clip350)" d="M131.181 788.864 Q134.538 789.581 136.413 791.85 Q138.311 794.118 138.311 797.451 Q138.311 802.567 134.792 805.368 Q131.274 808.169 124.793 808.169 Q122.617 808.169 120.302 807.729 Q118.01 807.313 115.556 806.456 L115.556 801.942 Q117.501 803.076 119.816 803.655 Q122.13 804.234 124.654 804.234 Q129.052 804.234 131.343 802.498 Q133.658 800.762 133.658 797.451 Q133.658 794.396 131.505 792.683 Q129.376 790.947 125.556 790.947 L121.529 790.947 L121.529 787.104 L125.742 787.104 Q129.191 787.104 131.019 785.739 Q132.848 784.35 132.848 781.757 Q132.848 779.095 130.95 777.683 Q129.075 776.248 125.556 776.248 Q123.635 776.248 121.436 776.665 Q119.237 777.081 116.598 777.961 L116.598 773.794 Q119.26 773.053 121.575 772.683 Q123.913 772.313 125.973 772.313 Q131.297 772.313 134.399 774.743 Q137.501 777.151 137.501 781.271 Q137.501 784.141 135.857 786.132 Q134.214 788.1 131.181 788.864 Z" fill="#000000" fill-rule="nonzero" fill-opacity="1"></path><path clip-path="url(#clip350)" d="M157.177 776.016 Q153.566 776.016 151.737 779.581 Q149.931 783.123 149.931 790.252 Q149.931 797.359 151.737 800.924 Q153.566 804.465 157.177 804.465 Q160.811 804.465 162.616 800.924 Q164.445 797.359 164.445 790.252 Q164.445 783.123 162.616 779.581 Q160.811 776.016 157.177 776.016 M157.177 772.313 Q162.987 772.313 166.042 776.919 Q169.121 781.502 169.121 790.252 Q169.121 798.979 166.042 803.586 Q162.987 808.169 157.177 808.169 Q151.366 808.169 148.288 803.586 Q145.232 798.979 145.232 790.252 Q145.232 781.502 148.288 776.919 Q151.366 772.313 157.177 772.313 Z" fill="#000000" fill-rule="nonzero" fill-opacity="1"></path><path clip-path="url(#clip350)" d="M187.338 776.016 Q183.727 776.016 181.899 779.581 Q180.093 783.123 180.093 790.252 Q180.093 797.359 181.899 800.924 Q183.727 804.465 187.338 804.465 Q190.973 804.465 192.778 800.924 Q194.607 797.359 194.607 790.252 Q194.607 783.123 192.778 779.581 Q190.973 776.016 187.338 776.016 M187.338 772.313 Q193.149 772.313 196.204 776.919 Q199.283 781.502 199.283 790.252 Q199.283 798.979 196.204 803.586 Q193.149 808.169 187.338 808.169 Q181.528 808.169 178.45 803.586 Q175.394 798.979 175.394 790.252 Q175.394 781.502 178.45 776.919 Q181.528 772.313 187.338 772.313 Z" fill="#000000" fill-rule="nonzero" fill-opacity="1"></path><path clip-path="url(#clip350)" d="M129.862 578.286 L118.056 596.735 L129.862 596.735 L129.862 578.286 M128.635 574.212 L134.515 574.212 L134.515 596.735 L139.445 596.735 L139.445 600.624 L134.515 600.624 L134.515 608.772 L129.862 608.772 L129.862 600.624 L114.26 600.624 L114.26 596.11 L128.635 574.212 Z" fill="#000000" fill-rule="nonzero" fill-opacity="1"></path><path clip-path="url(#clip350)" d="M157.177 577.29 Q153.566 577.29 151.737 580.855 Q149.931 584.397 149.931 591.526 Q149.931 598.633 151.737 602.198 Q153.566 605.739 157.177 605.739 Q160.811 605.739 162.616 602.198 Q164.445 598.633 164.445 591.526 Q164.445 584.397 162.616 580.855 Q160.811 577.29 157.177 577.29 M157.177 573.587 Q162.987 573.587 166.042 578.193 Q169.121 582.776 169.121 591.526 Q169.121 600.253 166.042 604.86 Q162.987 609.443 157.177 609.443 Q151.366 609.443 148.288 604.86 Q145.232 600.253 145.232 591.526 Q145.232 582.776 148.288 578.193 Q151.366 573.587 157.177 573.587 Z" fill="#000000" fill-rule="nonzero" fill-opacity="1"></path><path clip-path="url(#clip350)" d="M187.338 577.29 Q183.727 577.29 181.899 580.855 Q180.093 584.397 180.093 591.526 Q180.093 598.633 181.899 602.198 Q183.727 605.739 187.338 605.739 Q190.973 605.739 192.778 602.198 Q194.607 598.633 194.607 591.526 Q194.607 584.397 192.778 580.855 Q190.973 577.29 187.338 577.29 M187.338 573.587 Q193.149 573.587 196.204 578.193 Q199.283 582.776 199.283 591.526 Q199.283 600.253 196.204 604.86 Q193.149 609.443 187.338 609.443 Q181.528 609.443 178.45 604.86 Q175.394 600.253 175.394 591.526 Q175.394 582.776 178.45 578.193 Q181.528 573.587 187.338 573.587 Z" fill="#000000" fill-rule="nonzero" fill-opacity="1"></path><path clip-path="url(#clip350)" d="M117.061 375.486 L135.417 375.486 L135.417 379.421 L121.343 379.421 L121.343 387.893 Q122.362 387.546 123.38 387.384 Q124.399 387.199 125.418 387.199 Q131.205 387.199 134.584 390.37 Q137.964 393.541 137.964 398.958 Q137.964 404.536 134.492 407.638 Q131.019 410.717 124.7 410.717 Q122.524 410.717 120.255 410.347 Q118.01 409.976 115.603 409.236 L115.603 404.536 Q117.686 405.671 119.908 406.226 Q122.13 406.782 124.607 406.782 Q128.612 406.782 130.95 404.675 Q133.288 402.569 133.288 398.958 Q133.288 395.347 130.95 393.24 Q128.612 391.134 124.607 391.134 Q122.732 391.134 120.857 391.55 Q119.006 391.967 117.061 392.847 L117.061 375.486 Z" fill="#000000" fill-rule="nonzero" fill-opacity="1"></path><path clip-path="url(#clip350)" d="M157.177 378.564 Q153.566 378.564 151.737 382.129 Q149.931 385.671 149.931 392.8 Q149.931 399.907 151.737 403.472 Q153.566 407.013 157.177 407.013 Q160.811 407.013 162.616 403.472 Q164.445 399.907 164.445 392.8 Q164.445 385.671 162.616 382.129 Q160.811 378.564 157.177 378.564 M157.177 374.861 Q162.987 374.861 166.042 379.467 Q169.121 384.05 169.121 392.8 Q169.121 401.527 166.042 406.134 Q162.987 410.717 157.177 410.717 Q151.366 410.717 148.288 406.134 Q145.232 401.527 145.232 392.8 Q145.232 384.05 148.288 379.467 Q151.366 374.861 157.177 374.861 Z" fill="#000000" fill-rule="nonzero" fill-opacity="1"></path><path clip-path="url(#clip350)" d="M187.338 378.564 Q183.727 378.564 181.899 382.129 Q180.093 385.671 180.093 392.8 Q180.093 399.907 181.899 403.472 Q183.727 407.013 187.338 407.013 Q190.973 407.013 192.778 403.472 Q194.607 399.907 194.607 392.8 Q194.607 385.671 192.778 382.129 Q190.973 378.564 187.338 378.564 M187.338 374.861 Q193.149 374.861 196.204 379.467 Q199.283 384.05 199.283 392.8 Q199.283 401.527 196.204 406.134 Q193.149 410.717 187.338 410.717 Q181.528 410.717 178.45 406.134 Q175.394 401.527 175.394 392.8 Q175.394 384.05 178.45 379.467 Q181.528 374.861 187.338 374.861 Z" fill="#000000" fill-rule="nonzero" fill-opacity="1"></path><path clip-path="url(#clip350)" d="M127.593 192.176 Q124.445 192.176 122.593 194.329 Q120.765 196.482 120.765 200.232 Q120.765 203.959 122.593 206.135 Q124.445 208.287 127.593 208.287 Q130.742 208.287 132.57 206.135 Q134.422 203.959 134.422 200.232 Q134.422 196.482 132.57 194.329 Q130.742 192.176 127.593 192.176 M136.876 177.524 L136.876 181.783 Q135.117 180.95 133.311 180.51 Q131.529 180.07 129.769 180.07 Q125.14 180.07 122.686 183.195 Q120.255 186.32 119.908 192.639 Q121.274 190.625 123.334 189.561 Q125.394 188.473 127.871 188.473 Q133.08 188.473 136.089 191.644 Q139.121 194.792 139.121 200.232 Q139.121 205.556 135.973 208.773 Q132.825 211.991 127.593 211.991 Q121.598 211.991 118.427 207.408 Q115.256 202.801 115.256 194.074 Q115.256 185.88 119.144 181.019 Q123.033 176.135 129.584 176.135 Q131.343 176.135 133.126 176.482 Q134.931 176.829 136.876 177.524 Z" fill="#000000" fill-rule="nonzero" fill-opacity="1"></path><path clip-path="url(#clip350)" d="M157.177 179.838 Q153.566 179.838 151.737 183.403 Q149.931 186.945 149.931 194.074 Q149.931 201.181 151.737 204.746 Q153.566 208.287 157.177 208.287 Q160.811 208.287 162.616 204.746 Q164.445 201.181 164.445 194.074 Q164.445 186.945 162.616 183.403 Q160.811 179.838 157.177 179.838 M157.177 176.135 Q162.987 176.135 166.042 180.741 Q169.121 185.324 169.121 194.074 Q169.121 202.801 166.042 207.408 Q162.987 211.991 157.177 211.991 Q151.366 211.991 148.288 207.408 Q145.232 202.801 145.232 194.074 Q145.232 185.324 148.288 180.741 Q151.366 176.135 157.177 176.135 Z" fill="#000000" fill-rule="nonzero" fill-opacity="1"></path><path clip-path="url(#clip350)" d="M187.338 179.838 Q183.727 179.838 181.899 183.403 Q180.093 186.945 180.093 194.074 Q180.093 201.181 181.899 204.746 Q183.727 208.287 187.338 208.287 Q190.973 208.287 192.778 204.746 Q194.607 201.181 194.607 194.074 Q194.607 186.945 192.778 183.403 Q190.973 179.838 187.338 179.838 M187.338 176.135 Q193.149 176.135 196.204 180.741 Q199.283 185.324 199.283 194.074 Q199.283 202.801 196.204 207.408 Q193.149 211.991 187.338 211.991 Q181.528 211.991 178.45 207.408 Q175.394 202.801 175.394 194.074 Q175.394 185.324 178.45 180.741 Q181.528 176.135 187.338 176.135 Z" fill="#000000" fill-rule="nonzero" fill-opacity="1"></path><path clip-path="url(#clip350)" d="M44.7161 911.525 L47.5806 911.525 L47.5806 938.452 Q53.6281 938.07 56.8109 934.824 Q59.9619 931.546 59.9619 925.721 Q59.9619 922.347 59.1344 919.196 Q58.3069 916.013 56.6518 912.894 L62.1899 912.894 Q63.5267 916.045 64.227 919.355 Q64.9272 922.665 64.9272 926.071 Q64.9272 934.601 59.9619 939.598 Q54.9967 944.563 46.5303 944.563 Q37.7774 944.563 32.6531 939.853 Q27.4968 935.11 27.4968 927.09 Q27.4968 919.896 32.1438 915.727 Q36.7589 911.525 44.7161 911.525 M42.9973 917.382 Q38.1912 917.446 35.3266 920.087 Q32.4621 922.697 32.4621 927.026 Q32.4621 931.928 35.2312 934.888 Q38.0002 937.816 43.0292 938.261 L42.9973 917.382 Z" fill="#000000" fill-rule="nonzero" fill-opacity="1"></path><path clip-path="url(#clip350)" d="M28.3562 873.427 L45.7028 886.317 L64.0042 872.758 L64.0042 879.665 L49.9996 890.041 L64.0042 900.417 L64.0042 907.324 L45.3526 893.479 L28.3562 906.146 L28.3562 899.24 L41.0558 889.787 L28.3562 880.334 L28.3562 873.427 Z" fill="#000000" fill-rule="nonzero" fill-opacity="1"></path><path clip-path="url(#clip350)" d="M58.657 858.817 L77.5631 858.817 L77.5631 864.706 L28.3562 864.706 L28.3562 858.817 L33.7671 858.817 Q30.5842 856.971 29.0564 854.17 Q27.4968 851.338 27.4968 847.423 Q27.4968 840.93 32.6531 836.888 Q37.8093 832.814 46.212 832.814 Q54.6147 832.814 59.771 836.888 Q64.9272 840.93 64.9272 847.423 Q64.9272 851.338 63.3994 854.17 Q61.8398 856.971 58.657 858.817 M46.212 838.893 Q39.7508 838.893 36.0905 841.566 Q32.3984 844.208 32.3984 848.855 Q32.3984 853.502 36.0905 856.176 Q39.7508 858.817 46.212 858.817 Q52.6732 858.817 56.3653 856.176 Q60.0256 853.502 60.0256 848.855 Q60.0256 844.208 56.3653 841.566 Q52.6732 838.893 46.212 838.893 Z" fill="#000000" fill-rule="nonzero" fill-opacity="1"></path><path clip-path="url(#clip350)" d="M33.8307 802.449 Q33.2578 803.436 33.0032 804.613 Q32.7167 805.759 32.7167 807.16 Q32.7167 812.125 35.9632 814.799 Q39.1779 817.44 45.2253 817.44 L64.0042 817.44 L64.0042 823.329 L28.3562 823.329 L28.3562 817.44 L33.8944 817.44 Q30.6479 815.594 29.0883 812.634 Q27.4968 809.674 27.4968 805.441 Q27.4968 804.836 27.5923 804.104 Q27.656 803.372 27.8151 802.481 L33.8307 802.449 Z" fill="#000000" fill-rule="nonzero" fill-opacity="1"></path><path clip-path="url(#clip350)" d="M44.7161 767.247 L47.5806 767.247 L47.5806 794.174 Q53.6281 793.792 56.8109 790.545 Q59.9619 787.267 59.9619 781.442 Q59.9619 778.068 59.1344 774.917 Q58.3069 771.735 56.6518 768.615 L62.1899 768.615 Q63.5267 771.766 64.227 775.077 Q64.9272 778.387 64.9272 781.792 Q64.9272 790.322 59.9619 795.32 Q54.9967 800.285 46.5303 800.285 Q37.7774 800.285 32.6531 795.574 Q27.4968 790.832 27.4968 782.811 Q27.4968 775.618 32.1438 771.448 Q36.7589 767.247 44.7161 767.247 M42.9973 773.103 Q38.1912 773.167 35.3266 775.809 Q32.4621 778.419 32.4621 782.747 Q32.4621 787.649 35.2312 790.609 Q38.0002 793.537 43.0292 793.983 L42.9973 773.103 Z" fill="#000000" fill-rule="nonzero" fill-opacity="1"></path><path clip-path="url(#clip350)" d="M29.4065 734.909 L34.9447 734.909 Q33.6716 737.392 33.035 740.065 Q32.3984 742.739 32.3984 745.603 Q32.3984 749.964 33.7352 752.16 Q35.072 754.324 37.7456 754.324 Q39.7826 754.324 40.9603 752.765 Q42.1061 751.205 43.1565 746.495 L43.6021 744.489 Q44.9389 738.251 47.3897 735.641 Q49.8086 732.999 54.1691 732.999 Q59.1344 732.999 62.0308 736.946 Q64.9272 740.861 64.9272 747.736 Q64.9272 750.6 64.3543 753.72 Q63.8132 756.807 62.6992 760.244 L56.6518 760.244 Q58.3387 756.998 59.198 753.847 Q60.0256 750.696 60.0256 747.609 Q60.0256 743.471 58.6251 741.243 Q57.1929 739.015 54.6147 739.015 Q52.2276 739.015 50.9545 740.638 Q49.6813 742.23 48.5037 747.672 L48.0262 749.709 Q46.8804 755.152 44.5251 757.571 Q42.138 759.99 38.0002 759.99 Q32.9713 759.99 30.2341 756.425 Q27.4968 752.86 27.4968 746.304 Q27.4968 743.057 27.9743 740.192 Q28.4517 737.328 29.4065 734.909 Z" fill="#000000" fill-rule="nonzero" fill-opacity="1"></path><path clip-path="url(#clip350)" d="M29.4065 700.948 L34.9447 700.948 Q33.6716 703.431 33.035 706.104 Q32.3984 708.778 32.3984 711.642 Q32.3984 716.003 33.7352 718.199 Q35.072 720.363 37.7456 720.363 Q39.7826 720.363 40.9603 718.804 Q42.1061 717.244 43.1565 712.533 L43.6021 710.528 Q44.9389 704.29 47.3897 701.68 Q49.8086 699.038 54.1691 699.038 Q59.1344 699.038 62.0308 702.985 Q64.9272 706.9 64.9272 713.775 Q64.9272 716.639 64.3543 719.759 Q63.8132 722.846 62.6992 726.283 L56.6518 726.283 Q58.3387 723.037 59.198 719.886 Q60.0256 716.735 60.0256 713.647 Q60.0256 709.51 58.6251 707.282 Q57.1929 705.054 54.6147 705.054 Q52.2276 705.054 50.9545 706.677 Q49.6813 708.268 48.5037 713.711 L48.0262 715.748 Q46.8804 721.191 44.5251 723.61 Q42.138 726.029 38.0002 726.029 Q32.9713 726.029 30.2341 722.464 Q27.4968 718.899 27.4968 712.343 Q27.4968 709.096 27.9743 706.231 Q28.4517 703.367 29.4065 700.948 Z" fill="#000000" fill-rule="nonzero" fill-opacity="1"></path><path clip-path="url(#clip350)" d="M28.3562 689.712 L28.3562 683.856 L64.0042 683.856 L64.0042 689.712 L28.3562 689.712 M14.479 689.712 L14.479 683.856 L21.895 683.856 L21.895 689.712 L14.479 689.712 Z" fill="#000000" fill-rule="nonzero" fill-opacity="1"></path><path clip-path="url(#clip350)" d="M32.4621 657.788 Q32.4621 662.499 36.1542 665.236 Q39.8145 667.974 46.212 667.974 Q52.6095 667.974 56.3017 665.268 Q59.9619 662.531 59.9619 657.788 Q59.9619 653.11 56.2698 650.372 Q52.5777 647.635 46.212 647.635 Q39.8781 647.635 36.186 650.372 Q32.4621 653.11 32.4621 657.788 M27.4968 657.788 Q27.4968 650.15 32.4621 645.789 Q37.4273 641.429 46.212 641.429 Q54.9649 641.429 59.9619 645.789 Q64.9272 650.15 64.9272 657.788 Q64.9272 665.459 59.9619 669.82 Q54.9649 674.148 46.212 674.148 Q37.4273 674.148 32.4621 669.82 Q27.4968 665.459 27.4968 657.788 Z" fill="#000000" fill-rule="nonzero" fill-opacity="1"></path><path clip-path="url(#clip350)" d="M42.4881 602.088 L64.0042 602.088 L64.0042 607.945 L42.679 607.945 Q37.6183 607.945 35.1038 609.918 Q32.5894 611.892 32.5894 615.838 Q32.5894 620.581 35.6131 623.318 Q38.6368 626.055 43.8567 626.055 L64.0042 626.055 L64.0042 631.944 L28.3562 631.944 L28.3562 626.055 L33.8944 626.055 Q30.6797 623.955 29.0883 621.122 Q27.4968 618.257 27.4968 614.533 Q27.4968 608.391 31.3163 605.24 Q35.1038 602.088 42.4881 602.088 Z" fill="#000000" fill-rule="nonzero" fill-opacity="1"></path><path clip-path="url(#clip350)" d="M1095.53 9.54393 L1095.53 15.7418 L1088.4 15.7418 Q1084.39 15.7418 1082.81 17.3622 Q1081.27 18.9825 1081.27 23.1955 L1081.27 27.2059 L1093.54 27.2059 L1093.54 32.9987 L1081.27 32.9987 L1081.27 72.576 L1073.77 72.576 L1073.77 32.9987 L1066.64 32.9987 L1066.64 27.2059 L1073.77 27.2059 L1073.77 24.0462 Q1073.77 16.471 1077.3 13.0277 Q1080.82 9.54393 1088.48 9.54393 L1095.53 9.54393 Z" fill="#000000" fill-rule="nonzero" fill-opacity="1"></path><path clip-path="url(#clip350)" d="M1101.76 27.2059 L1109.22 27.2059 L1109.22 72.576 L1101.76 72.576 L1101.76 27.2059 M1101.76 9.54393 L1109.22 9.54393 L1109.22 18.9825 L1101.76 18.9825 L1101.76 9.54393 Z" fill="#000000" fill-rule="nonzero" fill-opacity="1"></path><path clip-path="url(#clip350)" d="M1151.1 34.1734 Q1149.85 33.4443 1148.35 33.1202 Q1146.89 32.7556 1145.11 32.7556 Q1138.79 32.7556 1135.39 36.8875 Q1132.02 40.9789 1132.02 48.6757 L1132.02 72.576 L1124.53 72.576 L1124.53 27.2059 L1132.02 27.2059 L1132.02 34.2544 Q1134.37 30.1225 1138.14 28.1376 Q1141.91 26.1121 1147.3 26.1121 Q1148.07 26.1121 1149 26.2337 Q1149.93 26.3147 1151.06 26.5172 L1151.1 34.1734 Z" fill="#000000" fill-rule="nonzero" fill-opacity="1"></path><path clip-path="url(#clip350)" d="M1187.85 28.5427 L1187.85 35.5912 Q1184.69 33.9709 1181.28 33.1607 Q1177.88 32.3505 1174.23 32.3505 Q1168.68 32.3505 1165.89 34.0519 Q1163.13 35.7533 1163.13 39.156 Q1163.13 41.7486 1165.12 43.2475 Q1167.1 44.7058 1173.1 46.0426 L1175.65 46.6097 Q1183.59 48.3111 1186.91 51.4303 Q1190.28 54.509 1190.28 60.0587 Q1190.28 66.3781 1185.25 70.0644 Q1180.27 73.7508 1171.52 73.7508 Q1167.87 73.7508 1163.9 73.0216 Q1159.97 72.3329 1155.6 70.9151 L1155.6 63.2184 Q1159.73 65.3654 1163.74 66.4591 Q1167.75 67.5124 1171.68 67.5124 Q1176.95 67.5124 1179.78 65.73 Q1182.62 63.9071 1182.62 60.6258 Q1182.62 57.5877 1180.55 55.9673 Q1178.53 54.3469 1171.6 52.8481 L1169.01 52.2405 Q1162.08 50.7821 1159 47.7845 Q1155.92 44.7463 1155.92 39.4801 Q1155.92 33.0797 1160.46 29.5959 Q1165 26.1121 1173.34 26.1121 Q1177.47 26.1121 1181.12 26.7198 Q1184.77 27.3274 1187.85 28.5427 Z" fill="#000000" fill-rule="nonzero" fill-opacity="1"></path><path clip-path="url(#clip350)" d="M1209.52 14.324 L1209.52 27.2059 L1224.87 27.2059 L1224.87 32.9987 L1209.52 32.9987 L1209.52 57.6282 Q1209.52 63.1779 1211.02 64.7578 Q1212.56 66.3376 1217.21 66.3376 L1224.87 66.3376 L1224.87 72.576 L1217.21 72.576 Q1208.59 72.576 1205.3 69.3758 Q1202.02 66.1351 1202.02 57.6282 L1202.02 32.9987 L1196.55 32.9987 L1196.55 27.2059 L1202.02 27.2059 L1202.02 14.324 L1209.52 14.324 Z" fill="#000000" fill-rule="nonzero" fill-opacity="1"></path><path clip-path="url(#clip350)" d="M1290.9 34.0924 L1290.9 9.54393 L1298.35 9.54393 L1298.35 72.576 L1290.9 72.576 L1290.9 65.7705 Q1288.55 69.8214 1284.95 71.8063 Q1281.38 73.7508 1276.36 73.7508 Q1268.13 73.7508 1262.95 67.1883 Q1257.8 60.6258 1257.8 49.9314 Q1257.8 39.2371 1262.95 32.6746 Q1268.13 26.1121 1276.36 26.1121 Q1281.38 26.1121 1284.95 28.0971 Q1288.55 30.0415 1290.9 34.0924 M1265.5 49.9314 Q1265.5 58.1548 1268.86 62.8538 Q1272.27 67.5124 1278.18 67.5124 Q1284.09 67.5124 1287.5 62.8538 Q1290.9 58.1548 1290.9 49.9314 Q1290.9 41.7081 1287.5 37.0496 Q1284.09 32.3505 1278.18 32.3505 Q1272.27 32.3505 1268.86 37.0496 Q1265.5 41.7081 1265.5 49.9314 Z" fill="#000000" fill-rule="nonzero" fill-opacity="1"></path><path clip-path="url(#clip350)" d="M1352.51 48.0275 L1352.51 51.6733 L1318.24 51.6733 Q1318.73 59.3701 1322.86 63.421 Q1327.03 67.4314 1334.45 67.4314 Q1338.74 67.4314 1342.75 66.3781 Q1346.8 65.3249 1350.77 63.2184 L1350.77 70.267 Q1346.76 71.9684 1342.55 72.8596 Q1338.34 73.7508 1334 73.7508 Q1323.15 73.7508 1316.79 67.4314 Q1310.47 61.1119 1310.47 50.3365 Q1310.47 39.1965 1316.46 32.6746 Q1322.5 26.1121 1332.71 26.1121 Q1341.86 26.1121 1347.17 32.0264 Q1352.51 37.9003 1352.51 48.0275 M1345.06 45.84 Q1344.98 39.7232 1341.62 36.0774 Q1338.3 32.4315 1332.79 32.4315 Q1326.55 32.4315 1322.78 35.9558 Q1319.05 39.4801 1318.49 45.8805 L1345.06 45.84 Z" fill="#000000" fill-rule="nonzero" fill-opacity="1"></path><path clip-path="url(#clip350)" d="M1393.67 28.5427 L1393.67 35.5912 Q1390.51 33.9709 1387.11 33.1607 Q1383.71 32.3505 1380.06 32.3505 Q1374.51 32.3505 1371.72 34.0519 Q1368.96 35.7533 1368.96 39.156 Q1368.96 41.7486 1370.95 43.2475 Q1372.93 44.7058 1378.93 46.0426 L1381.48 46.6097 Q1389.42 48.3111 1392.74 51.4303 Q1396.1 54.509 1396.1 60.0587 Q1396.1 66.3781 1391.08 70.0644 Q1386.1 73.7508 1377.35 73.7508 Q1373.7 73.7508 1369.73 73.0216 Q1365.8 72.3329 1361.43 70.9151 L1361.43 63.2184 Q1365.56 65.3654 1369.57 66.4591 Q1373.58 67.5124 1377.51 67.5124 Q1382.77 67.5124 1385.61 65.73 Q1388.45 63.9071 1388.45 60.6258 Q1388.45 57.5877 1386.38 55.9673 Q1384.35 54.3469 1377.43 52.8481 L1374.83 52.2405 Q1367.91 50.7821 1364.83 47.7845 Q1361.75 44.7463 1361.75 39.4801 Q1361.75 33.0797 1366.29 29.5959 Q1370.82 26.1121 1379.17 26.1121 Q1383.3 26.1121 1386.95 26.7198 Q1390.59 27.3274 1393.67 28.5427 Z" fill="#000000" fill-rule="nonzero" fill-opacity="1"></path><path clip-path="url(#clip350)" d="M1407.97 27.2059 L1415.42 27.2059 L1415.42 72.576 L1407.97 72.576 L1407.97 27.2059 M1407.97 9.54393 L1415.42 9.54393 L1415.42 18.9825 L1407.97 18.9825 L1407.97 9.54393 Z" fill="#000000" fill-rule="nonzero" fill-opacity="1"></path><path clip-path="url(#clip350)" d="M1460.88 49.3643 Q1460.88 41.2625 1457.51 36.8065 Q1454.19 32.3505 1448.16 32.3505 Q1442.16 32.3505 1438.8 36.8065 Q1435.48 41.2625 1435.48 49.3643 Q1435.48 57.4256 1438.8 61.8816 Q1442.16 66.3376 1448.16 66.3376 Q1454.19 66.3376 1457.51 61.8816 Q1460.88 57.4256 1460.88 49.3643 M1468.33 66.9452 Q1468.33 78.5308 1463.19 84.1616 Q1458.04 89.8329 1447.43 89.8329 Q1443.5 89.8329 1440.01 89.2252 Q1436.53 88.6581 1433.25 87.4428 L1433.25 80.1917 Q1436.53 81.9741 1439.73 82.8248 Q1442.93 83.6755 1446.25 83.6755 Q1453.58 83.6755 1457.23 79.8271 Q1460.88 76.0193 1460.88 68.282 L1460.88 64.5957 Q1458.57 68.6061 1454.96 70.5911 Q1451.36 72.576 1446.33 72.576 Q1437.99 72.576 1432.88 66.2161 Q1427.78 59.8562 1427.78 49.3643 Q1427.78 38.832 1432.88 32.472 Q1437.99 26.1121 1446.33 26.1121 Q1451.36 26.1121 1454.96 28.0971 Q1458.57 30.082 1460.88 34.0924 L1460.88 27.2059 L1468.33 27.2059 L1468.33 66.9452 Z" fill="#000000" fill-rule="nonzero" fill-opacity="1"></path><path clip-path="url(#clip350)" d="M1521.4 45.1919 L1521.4 72.576 L1513.94 72.576 L1513.94 45.4349 Q1513.94 38.994 1511.43 35.7938 Q1508.92 32.5936 1503.9 32.5936 Q1497.86 32.5936 1494.38 36.4419 Q1490.89 40.2903 1490.89 46.9338 L1490.89 72.576 L1483.4 72.576 L1483.4 27.2059 L1490.89 27.2059 L1490.89 34.2544 Q1493.57 30.163 1497.17 28.1376 Q1500.82 26.1121 1505.56 26.1121 Q1513.38 26.1121 1517.39 30.9732 Q1521.4 35.7938 1521.4 45.1919 Z" fill="#000000" fill-rule="nonzero" fill-opacity="1"></path><polyline clip-path="url(#clip352)" style="stroke:#009af9; stroke-linecap:round; stroke-linejoin:round; stroke-width:4; stroke-opacity:1; fill:none" points="295.211,1384.41 297.209,1384.41 299.207,1382.42 301.204,1380.43 303.202,1370.5 305.199,1360.56 307.197,1358.57 309.195,1346.65 311.192,1332.74 313.19,1318.83 315.187,1306.91 317.185,1275.11 319.183,1235.36 321.18,1203.57 323.178,1187.67 325.176,1149.91 327.173,1104.2 329.171,1044.59 331.168,982.982 333.166,941.249 335.164,875.67 337.161,849.835 339.159,782.269 341.157,770.345 343.154,742.523 345.152,690.855 347.149,661.046 349.147,623.288 351.145,589.504 353.142,541.81 355.14,517.963 357.137,480.205 359.135,458.345 361.133,466.294 363.13,444.434 365.128,426.549 367.126,398.727 369.123,406.677 371.121,378.855 373.118,364.944 375.116,339.11 377.114,317.25 379.111,317.25 381.109,299.364 383.106,289.428 385.104,271.543 387.102,245.708 389.099,239.747 391.097,237.759 393.095,229.81 395.092,196.027 397.09,184.103 399.087,186.091 401.085,170.193 403.083,180.129 405.08,198.014 407.078,182.116 409.075,223.849 411.073,241.734 413.071,215.9 415.068,217.887 417.066,233.785 419.064,217.887 421.061,219.874 423.059,291.415 425.056,343.084 427.054,406.677 429.052,466.294 431.049,521.938 433.047,565.657 435.044,605.403 437.042,659.059 439.04,698.804 441.037,760.409 443.035,814.065 445.033,853.81 447.03,879.644 449.028,923.364 451.025,943.237 453.023,984.969 455.021,1018.75 457.018,1044.59 459.016,1064.46 461.013,1086.32 463.011,1106.19 465.009,1126.06 467.006,1139.98 469.004,1147.92 471.002,1159.85 472.999,1175.75 474.997,1193.63 476.994,1203.57 478.992,1219.47 480.99,1233.38 482.987,1235.36 484.985,1243.31 486.982,1261.2 488.98,1263.19 490.978,1269.15 492.975,1275.11 494.973,1277.1 496.971,1283.06 498.968,1289.02 500.966,1289.02 502.963,1296.97 504.961,1304.92 506.959,1318.83 508.956,1324.79 510.954,1326.78 512.951,1328.77 514.949,1332.74 516.947,1338.7 518.944,1346.65 520.942,1346.65 522.94,1350.62 524.937,1350.62 526.935,1350.62 528.932,1350.62 530.93,1354.6 532.928,1354.6 534.925,1354.6 536.923,1354.6 538.92,1354.6 540.918,1356.59 542.916,1356.59 544.913,1358.57 546.911,1358.57 548.909,1358.57 550.906,1358.57 552.904,1360.56 554.901,1364.54 556.899,1364.54 558.897,1364.54 560.894,1368.51 562.892,1368.51 564.89,1374.47 566.887,1374.47 568.885,1374.47 570.882,1376.46 572.88,1376.46 574.878,1376.46 576.875,1376.46 578.873,1376.46 580.87,1376.46 582.868,1376.46 584.866,1376.46 586.863,1378.45 588.861,1380.43 590.859,1380.43 592.856,1380.43 594.854,1380.43 596.851,1382.42 598.849,1382.42 600.847,1382.42 602.844,1384.41 604.842,1384.41 606.839,1384.41 608.837,1384.41 610.835,1384.41 612.832,1384.41 614.83,1386.4 616.828,1386.4 618.825,1386.4 620.823,1386.4 622.82,1386.4 624.818,1386.4 626.816,1386.4 628.813,1386.4 630.811,1386.4 632.808,1386.4 634.806,1386.4 636.804,1386.4 638.801,1386.4 640.799,1386.4 642.797,1386.4 644.794,1386.4 646.792,1386.4 648.789,1386.4 650.787,1386.4 652.785,1386.4 654.782,1386.4 656.78,1384.41 658.777,1384.41 660.775,1384.41 662.773,1384.41 664.77,1384.41 666.768,1384.41 668.766,1384.41 670.763,1384.41 672.761,1384.41 674.758,1384.41 676.756,1384.41 678.754,1382.42 680.751,1380.43 682.749,1380.43 684.746,1380.43 686.744,1378.45 688.742,1378.45 690.739,1378.45 692.737,1374.47 694.735,1362.55 696.732,1354.6 698.73,1350.62 700.727,1336.71 702.725,1316.84 704.723,1289.02 706.72,1257.22 708.718,1203.57 710.715,1159.85 712.713,1100.23 714.711,1044.59 716.708,990.931 718.706,911.441 720.704,889.581 722.701,845.861 724.699,814.065 726.696,780.281 728.694,748.485 730.692,702.778 732.689,698.804 734.687,665.02 736.684,641.173 738.682,674.957 740.68,668.995 742.677,657.071 744.675,629.25 746.673,613.352 748.67,593.479 750.668,577.581 752.665,571.619 754.663,523.925 756.661,512.001 758.658,480.205 760.656,472.256 762.653,444.434 764.651,420.587 766.649,410.651 768.646,410.651 770.644,388.791 772.642,414.626 774.639,392.766 776.637,402.702 778.634,388.791 780.632,386.804 782.63,356.995 784.627,345.071 786.625,356.995 788.623,317.25 790.62,295.39 792.618,301.352 794.615,287.441 796.613,293.403 798.611,295.39 800.608,281.479 802.606,295.39 804.603,275.517 806.601,279.492 808.599,303.339 810.596,329.173 812.594,374.88 814.592,402.702 816.589,416.613 818.587,410.651 820.584,440.46 822.582,466.294 824.58,519.95 826.577,551.747 828.575,609.377 830.572,641.173 832.57,684.893 834.568,712.715 836.565,750.472 838.563,814.065 840.561,847.848 842.558,873.683 844.556,901.504 846.553,931.313 848.551,969.071 850.549,1004.84 852.546,1030.68 854.544,1052.54 856.541,1078.37 858.539,1102.22 860.537,1130.04 862.534,1149.91 864.532,1159.85 866.53,1177.73 868.527,1189.66 870.525,1203.57 872.522,1215.49 874.52,1227.41 876.518,1233.38 878.515,1245.3 880.513,1257.22 882.51,1265.17 884.508,1273.12 886.506,1285.05 888.503,1289.02 890.501,1296.97 892.499,1302.93 894.496,1304.92 896.494,1312.87 898.491,1314.85 900.489,1316.84 902.487,1318.83 904.484,1320.82 906.482,1324.79 908.479,1326.78 910.477,1330.75 912.475,1332.74 914.472,1332.74 916.47,1334.73 918.468,1340.69 920.465,1342.68 922.463,1344.66 924.46,1346.65 926.458,1348.64 928.456,1348.64 930.453,1350.62 932.451,1350.62 934.448,1350.62 936.446,1350.62 938.444,1354.6 940.441,1356.59 942.439,1356.59 944.437,1360.56 946.434,1362.55 948.432,1362.55 950.429,1364.54 952.427,1366.52 954.425,1368.51 956.422,1370.5 958.42,1370.5 960.417,1372.48 962.415,1372.48 964.413,1372.48 966.41,1376.46 968.408,1376.46 970.406,1378.45 972.403,1378.45 974.401,1378.45 976.398,1378.45 978.396,1378.45 980.394,1378.45 982.391,1378.45 984.389,1378.45 986.386,1380.43 988.384,1380.43 990.382,1382.42 992.379,1382.42 994.377,1382.42 996.375,1382.42 998.372,1384.41 1000.37,1386.4 1002.37,1386.4 1004.37,1386.4 1006.36,1386.4 1008.36,1386.4 1010.36,1386.4 1012.36,1386.4 1014.35,1386.4 1016.35,1386.4 1018.35,1386.4 1020.35,1386.4 1022.34,1386.4 1024.34,1386.4 1026.34,1386.4 1028.34,1386.4 1030.33,1386.4 1032.33,1386.4 1034.33,1386.4 1036.33,1386.4 1038.32,1386.4 1040.32,1386.4 1042.32,1386.4 1044.32,1386.4 1046.31,1386.4 1048.31,1386.4 1050.31,1386.4 1052.31,1386.4 1054.31,1386.4 1056.3,1386.4 1058.3,1386.4 1060.3,1386.4 1062.3,1386.4 1064.29,1386.4 1066.29,1386.4 1068.29,1386.4 1070.29,1386.4 1072.28,1386.4 1074.28,1386.4 1076.28,1386.4 1078.28,1386.4 1080.27,1386.4 1082.27,1386.4 1084.27,1386.4 1086.27,1386.4 1088.26,1386.4 1090.26,1386.4 1092.26,1386.4 1094.26,1386.4 1096.26,1384.41 1098.25,1382.42 1100.25,1378.45 1102.25,1372.48 1104.25,1368.51 1106.24,1366.52 1108.24,1360.56 1110.24,1360.56 1112.24,1356.59 1114.23,1352.61 1116.23,1348.64 1118.23,1326.78 1120.23,1296.97 1122.22,1253.25 1124.22,1181.71 1126.22,1128.05 1128.22,1074.4 1130.21,1018.75 1132.21,986.956 1134.21,947.211 1136.21,917.402 1138.21,869.708 1140.2,873.683 1142.2,818.039 1144.2,770.345 1146.2,714.702 1148.19,678.931 1150.19,633.224 1152.19,619.313 1154.19,585.53 1156.18,581.555 1158.18,535.848 1160.18,517.963 1162.18,500.078 1164.17,482.192 1166.17,486.167 1168.17,468.282 1170.17,460.333 1172.16,428.536 1174.16,408.664 1176.16,388.791 1178.16,384.817 1180.16,358.982 1182.15,317.25 1184.15,317.25 1186.15,337.122 1188.15,333.148 1190.14,358.982 1192.14,347.059 1194.14,327.186 1196.14,279.492 1198.13,311.288 1200.13,289.428 1202.13,289.428 1204.13,293.403 1206.12,277.505 1208.12,275.517 1210.12,285.454 1212.12,265.581 1214.11,291.415 1216.11,299.364 1218.11,301.352 1220.11,307.314 1222.11,323.212 1224.1,384.817 1226.1,434.498 1228.1,488.154 1230.1,555.721 1232.09,601.428 1234.09,643.16 1236.09,686.88 1238.09,748.485 1240.08,798.167 1242.08,843.874 1244.08,877.657 1246.08,905.479 1248.07,959.135 1250.07,988.944 1252.07,1020.74 1254.07,1056.51 1256.06,1080.36 1258.06,1096.26 1260.06,1114.14 1262.06,1130.04 1264.06,1134.01 1266.05,1153.89 1268.05,1177.73 1270.05,1187.67 1272.05,1201.58 1274.04,1219.47 1276.04,1231.39 1278.04,1237.35 1280.04,1251.26 1282.03,1257.22 1284.03,1271.13 1286.03,1277.1 1288.03,1285.05 1290.02,1291.01 1292.02,1291.01 1294.02,1298.96 1296.02,1308.89 1298.01,1312.87 1300.01,1314.85 1302.01,1316.84 1304.01,1316.84 1306.01,1326.78 1308,1338.7 1310,1338.7 1312,1340.69 1314,1340.69 1315.99,1342.68 1317.99,1346.65 1319.99,1346.65 1321.99,1346.65 1323.98,1350.62 1325.98,1354.6 1327.98,1354.6 1329.98,1354.6 1331.97,1356.59 1333.97,1358.57 1335.97,1360.56 1337.97,1364.54 1339.96,1364.54 1341.96,1370.5 1343.96,1372.48 1345.96,1372.48 1347.96,1374.47 1349.95,1376.46 1351.95,1376.46 1353.95,1378.45 1355.95,1380.43 1357.94,1380.43 1359.94,1380.43 1361.94,1380.43 1363.94,1380.43 1365.93,1382.42 1367.93,1382.42 1369.93,1382.42 1371.93,1382.42 1373.92,1382.42 1375.92,1382.42 1377.92,1382.42 1379.92,1382.42 1381.91,1384.41 1383.91,1384.41 1385.91,1384.41 1387.91,1384.41 1389.9,1384.41 1391.9,1384.41 1393.9,1384.41 1395.9,1384.41 1397.9,1384.41 1399.89,1384.41 1401.89,1384.41 1403.89,1384.41 1405.89,1384.41 1407.88,1384.41 1409.88,1384.41 1411.88,1384.41 1413.88,1384.41 1415.87,1384.41 1417.87,1384.41 1419.87,1384.41 1421.87,1384.41 1423.86,1384.41 1425.86,1384.41 1427.86,1384.41 1429.86,1384.41 1431.85,1384.41 1433.85,1384.41 1435.85,1384.41 1437.85,1384.41 1439.85,1384.41 1441.84,1384.41 1443.84,1386.4 1445.84,1386.4 1447.84,1386.4 1449.83,1386.4 1451.83,1386.4 1453.83,1386.4 1455.83,1386.4 1457.82,1386.4 1459.82,1386.4 1461.82,1386.4 1463.82,1384.41 1465.81,1384.41 1467.81,1382.42 1469.81,1380.43 1471.81,1380.43 1473.8,1380.43 1475.8,1376.46 1477.8,1374.47 1479.8,1362.55 1481.8,1354.6 1483.79,1336.71 1485.79,1316.84 1487.79,1285.05 1489.79,1279.08 1491.78,1231.39 1493.78,1171.77 1495.78,1137.99 1497.78,1086.32 1499.77,1022.73 1501.77,984.969 1503.77,931.313 1505.77,913.428 1507.76,887.593 1509.76,847.848 1511.76,804.129 1513.76,762.396 1515.75,724.638 1517.75,684.893 1519.75,653.097 1521.75,627.262 1523.75,597.453 1525.74,577.581 1527.74,571.619 1529.74,533.861 1531.74,498.09 1533.73,470.269 1535.73,446.422 1537.73,428.536 1539.73,432.511 1541.72,418.6 1543.72,372.893 1545.72,374.88 1547.72,355.008 1549.71,353.021 1551.71,345.071 1553.71,333.148 1555.71,315.263 1557.7,291.415 1559.7,297.377 1561.7,289.428 1563.7,289.428 1565.7,269.556 1567.69,261.607 1569.69,263.594 1571.69,285.454 1573.69,251.67 1575.68,247.696 1577.68,190.065 1579.68,172.18 1581.68,166.218 1583.67,174.167 1585.67,186.091 1587.67,174.167 1589.67,180.129 1591.66,188.078 1593.66,192.052 1595.66,182.116 1597.66,160.256 1599.65,160.256 1601.65,190.065 1603.65,235.772 1605.65,237.759 1607.65,261.607 1609.64,269.556 1611.64,277.505 1613.64,291.415 1615.64,285.454 1617.63,265.581 1619.63,285.454 1621.63,277.505 1623.63,291.415 1625.62,333.148 1627.62,384.817 1629.62,444.434 1631.62,498.09 1633.61,557.708 1635.61,615.339 1637.61,659.059 1639.61,712.715 1641.6,752.46 1643.6,792.205 1645.6,814.065 1647.6,853.81 1649.6,893.555 1651.59,935.288 1653.59,965.097 1655.59,990.931 1657.59,1022.73 1659.58,1048.56 1661.58,1074.4 1663.58,1094.27 1665.58,1112.15 1667.57,1130.04 1669.57,1145.94 1671.57,1167.8 1673.57,1197.61 1675.56,1211.52 1677.56,1219.47 1679.56,1229.4 1681.56,1241.33 1683.55,1257.22 1685.55,1265.17 1687.55,1277.1 1689.55,1289.02 1691.54,1294.98 1693.54,1300.94 1695.54,1306.91 1697.54,1310.88 1699.54,1314.85 1701.53,1320.82 1703.53,1324.79 1705.53,1330.75 1707.53,1334.73 1709.52,1336.71 1711.52,1338.7 1713.52,1338.7 1715.52,1338.7 1717.51,1340.69 1719.51,1344.66 1721.51,1348.64 1723.51,1350.62 1725.5,1356.59 1727.5,1360.56 1729.5,1360.56 1731.5,1362.55 1733.49,1364.54 1735.49,1364.54 1737.49,1364.54 1739.49,1364.54 1741.49,1364.54 1743.48,1366.52 1745.48,1366.52 1747.48,1366.52 1749.48,1370.5 1751.47,1370.5 1753.47,1370.5 1755.47,1370.5 1757.47,1372.48 1759.46,1372.48 1761.46,1372.48 1763.46,1374.47 1765.46,1374.47 1767.45,1376.46 1769.45,1376.46 1771.45,1378.45 1773.45,1378.45 1775.44,1378.45 1777.44,1378.45 1779.44,1378.45 1781.44,1378.45 1783.44,1378.45 1785.43,1378.45 1787.43,1380.43 1789.43,1380.43 1791.43,1380.43 1793.42,1380.43 1795.42,1380.43 1797.42,1380.43 1799.42,1380.43 1801.41,1380.43 1803.41,1380.43 1805.41,1380.43 1807.41,1380.43 1809.4,1380.43 1811.4,1380.43 1813.4,1380.43 1815.4,1380.43 1817.39,1380.43 1819.39,1380.43 1821.39,1384.41 1823.39,1384.41 1825.39,1384.41 1827.38,1384.41 1829.38,1384.41 1831.38,1384.41 1833.38,1384.41 1835.37,1384.41 1837.37,1384.41 1839.37,1384.41 1841.37,1384.41 1843.36,1384.41 1845.36,1384.41 1847.36,1384.41 1849.36,1384.41 1851.35,1384.41 1853.35,1384.41 1855.35,1384.41 1857.35,1384.41 1859.34,1384.41 1861.34,1384.41 1863.34,1384.41 1865.34,1384.41 1867.34,1384.41 1869.33,1384.41 1871.33,1384.41 1873.33,1384.41 1875.33,1384.41 1877.32,1384.41 1879.32,1382.42 1881.32,1380.43 1883.32,1374.47 1885.31,1362.55 1887.31,1352.61 1889.31,1334.73 1891.31,1306.91 1893.3,1245.3 1895.3,1193.63 1897.3,1151.9 1899.3,1092.28 1901.29,1064.46 1903.29,1036.64 1905.29,971.058 1907.29,923.364 1909.29,865.734 1911.28,822.014 1913.28,796.179 1915.28,752.46 1917.28,724.638 1919.27,718.676 1921.27,700.791 1923.27,670.982 1925.27,643.16 1927.26,617.326 1929.26,599.441 1931.26,573.606 1933.26,563.67 1935.25,543.797 1937.25,476.231 1939.25,488.154 1941.25,490.141 1943.24,480.205 1945.24,438.473 1947.24,438.473 1949.24,400.715 1951.24,360.97 1953.23,360.97 1955.23,341.097 1957.23,331.161 1959.23,309.301 1961.22,297.377 1963.22,309.301 1965.22,311.288 1967.22,291.415 1969.21,273.53 1971.21,263.594 1973.21,241.734 1975.21,203.976 1977.2,223.849 1979.2,213.912 1981.2,253.658 1983.2,219.874 1985.19,241.734 1987.19,237.759 1989.19,237.759 1991.19,267.568 1993.19,239.747 1995.18,255.645 1997.18,237.759 1999.18,221.861 2001.18,229.81 2003.17,205.963 2005.17,200.002 2007.17,213.912 2009.17,241.734 2011.16,233.785 2013.16,249.683 2015.16,253.658 2017.16,255.645 2019.15,261.607 2021.15,283.466 2023.15,339.11 2025.15,382.829 2027.14,448.409 2029.14,496.103 2031.14,541.81 2033.14,589.504 2035.13,647.135 2037.13,704.766 2039.13,738.549 2041.13,772.332 2043.13,818.039 2045.12,853.81 2047.12,885.606 2049.12,923.364 2051.12,947.211 2053.11,980.995 2055.11,1012.79 2057.11,1044.59 2059.11,1074.4 2061.1,1090.29 2063.1,1108.18 2065.1,1128.05 2067.1,1151.9 2069.09,1173.76 2071.09,1189.66 2073.09,1207.54 2075.09,1215.49 2077.08,1231.39 2079.08,1239.34 2081.08,1249.27 2083.08,1253.25 2085.08,1259.21 2087.07,1267.16 2089.07,1281.07 2091.07,1289.02 2093.07,1292.99 2095.06,1300.94 2097.06,1306.91 2099.06,1308.89 2101.06,1316.84 2103.05,1320.82 2105.05,1324.79 2107.05,1330.75 2109.05,1330.75 2111.04,1338.7 2113.04,1342.68 2115.04,1346.65 2117.04,1348.64 2119.03,1348.64 2121.03,1350.62 2123.03,1352.61 2125.03,1352.61 2127.03,1352.61 2129.02,1360.56 2131.02,1364.54 2133.02,1364.54 2135.02,1364.54 2137.01,1364.54 2139.01,1368.51 2141.01,1368.51 2143.01,1368.51 2145,1370.5 2147,1370.5 2149,1370.5 2151,1372.48 2152.99,1374.47 2154.99,1374.47 2156.99,1376.46 2158.99,1376.46 2160.98,1376.46 2162.98,1376.46 2164.98,1376.46 2166.98,1378.45 2168.98,1378.45 2170.97,1378.45 2172.97,1378.45 2174.97,1380.43 2176.97,1380.43 2178.96,1380.43 2180.96,1380.43 2182.96,1380.43 2184.96,1382.42 2186.95,1382.42 2188.95,1382.42 2190.95,1382.42 2192.95,1384.41 2194.94,1384.41 2196.94,1384.41 2198.94,1384.41 2200.94,1384.41 2202.93,1384.41 2204.93,1384.41 2206.93,1384.41 2208.93,1384.41 2210.93,1384.41 2212.92,1384.41 2214.92,1384.41 2216.92,1384.41 2218.92,1384.41 2220.91,1384.41 2222.91,1384.41 2224.91,1384.41 2226.91,1384.41 2228.9,1384.41 2230.9,1384.41 2232.9,1384.41 2234.9,1384.41 2236.89,1384.41 2238.89,1384.41 2240.89,1384.41 2242.89,1384.41 2244.88,1384.41 2246.88,1384.41 2248.88,1384.41 2250.88,1384.41 2252.88,1384.41 2254.87,1384.41 2256.87,1384.41 2258.87,1384.41 2260.87,1384.41 2262.86,1384.41 2264.86,1384.41 2266.86,1384.41 2268.86,1382.42 2270.85,1380.43 2272.85,1382.42 2274.85,1376.46 2276.85,1376.46 2278.84,1372.48 2280.84,1372.48 2282.84,1366.52 2284.84,1354.6 2286.83,1346.65 2288.83,1326.78 2290.83,1304.92 2292.83,1245.3 "></polyline>
</svg>