<svg xmlns="http://www.w3.org/2000/svg" xmlns:xlink="http://www.w3.org/1999/xlink" width="600" height="400" viewBox="0 0 2400 1600">
<defs>
  <clipPath id="clip070">
    <rect x="0" y="0" width="2400" height="1600"></rect>
  </clipPath>
</defs>
<path clip-path="url(#clip070)" d="M0 1600 L2400 1600 L2400 8.88178e-14 L0 8.88178e-14  Z" fill="#ffffff" fill-rule="evenodd" fill-opacity="1"></path>
<defs>
  <clipPath id="clip071">
    <rect x="480" y="0" width="1681" height="1600"></rect>
  </clipPath>
</defs>
<path clip-path="url(#clip070)" d="M318.014 1423.18 L2352.76 1423.18 L2352.76 47.2441 L318.014 47.2441  Z" fill="#ffffff" fill-rule="evenodd" fill-opacity="1"></path>
<defs>
  <clipPath id="clip072">
    <rect x="318" y="47" width="2036" height="1377"></rect>
  </clipPath>
</defs>
<polyline clip-path="url(#clip072)" style="stroke:#000000; stroke-linecap:round; stroke-linejoin:round; stroke-width:2; stroke-opacity:0.1; fill:none" points="356.211,1423.18 356.211,47.2441 "></polyline>
<polyline clip-path="url(#clip072)" style="stroke:#000000; stroke-linecap:round; stroke-linejoin:round; stroke-width:2; stroke-opacity:0.1; fill:none" points="840.951,1423.18 840.951,47.2441 "></polyline>
<polyline clip-path="url(#clip072)" style="stroke:#000000; stroke-linecap:round; stroke-linejoin:round; stroke-width:2; stroke-opacity:0.1; fill:none" points="1325.69,1423.18 1325.69,47.2441 "></polyline>
<polyline clip-path="url(#clip072)" style="stroke:#000000; stroke-linecap:round; stroke-linejoin:round; stroke-width:2; stroke-opacity:0.1; fill:none" points="1810.43,1423.18 1810.43,47.2441 "></polyline>
<polyline clip-path="url(#clip072)" style="stroke:#000000; stroke-linecap:round; stroke-linejoin:round; stroke-width:2; stroke-opacity:0.1; fill:none" points="2295.17,1423.18 2295.17,47.2441 "></polyline>
<polyline clip-path="url(#clip072)" style="stroke:#000000; stroke-linecap:round; stroke-linejoin:round; stroke-width:2; stroke-opacity:0.1; fill:none" points="318.014,1212.97 2352.76,1212.97 "></polyline>
<polyline clip-path="url(#clip072)" style="stroke:#000000; stroke-linecap:round; stroke-linejoin:round; stroke-width:2; stroke-opacity:0.1; fill:none" points="318.014,931.272 2352.76,931.272 "></polyline>
<polyline clip-path="url(#clip072)" style="stroke:#000000; stroke-linecap:round; stroke-linejoin:round; stroke-width:2; stroke-opacity:0.1; fill:none" points="318.014,649.577 2352.76,649.577 "></polyline>
<polyline clip-path="url(#clip072)" style="stroke:#000000; stroke-linecap:round; stroke-linejoin:round; stroke-width:2; stroke-opacity:0.1; fill:none" points="318.014,367.881 2352.76,367.881 "></polyline>
<polyline clip-path="url(#clip072)" style="stroke:#000000; stroke-linecap:round; stroke-linejoin:round; stroke-width:2; stroke-opacity:0.1; fill:none" points="318.014,86.1857 2352.76,86.1857 "></polyline>
<polyline clip-path="url(#clip070)" style="stroke:#000000; stroke-linecap:round; stroke-linejoin:round; stroke-width:4; stroke-opacity:1; fill:none" points="318.014,1423.18 2352.76,1423.18 "></polyline>
<polyline clip-path="url(#clip070)" style="stroke:#000000; stroke-linecap:round; stroke-linejoin:round; stroke-width:4; stroke-opacity:1; fill:none" points="356.211,1423.18 356.211,1404.28 "></polyline>
<polyline clip-path="url(#clip070)" style="stroke:#000000; stroke-linecap:round; stroke-linejoin:round; stroke-width:4; stroke-opacity:1; fill:none" points="840.951,1423.18 840.951,1404.28 "></polyline>
<polyline clip-path="url(#clip070)" style="stroke:#000000; stroke-linecap:round; stroke-linejoin:round; stroke-width:4; stroke-opacity:1; fill:none" points="1325.69,1423.18 1325.69,1404.28 "></polyline>
<polyline clip-path="url(#clip070)" style="stroke:#000000; stroke-linecap:round; stroke-linejoin:round; stroke-width:4; stroke-opacity:1; fill:none" points="1810.43,1423.18 1810.43,1404.28 "></polyline>
<polyline clip-path="url(#clip070)" style="stroke:#000000; stroke-linecap:round; stroke-linejoin:round; stroke-width:4; stroke-opacity:1; fill:none" points="2295.17,1423.18 2295.17,1404.28 "></polyline>
<path clip-path="url(#clip070)" d="M356.211 1454.1 Q352.6 1454.1 350.772 1457.66 Q348.966 1461.2 348.966 1468.33 Q348.966 1475.44 350.772 1479.01 Q352.6 1482.55 356.211 1482.55 Q359.846 1482.55 361.651 1479.01 Q363.48 1475.44 363.48 1468.33 Q363.48 1461.2 361.651 1457.66 Q359.846 1454.1 356.211 1454.1 M356.211 1450.39 Q362.022 1450.39 365.077 1455 Q368.156 1459.58 368.156 1468.33 Q368.156 1477.06 365.077 1481.67 Q362.022 1486.25 356.211 1486.25 Q350.401 1486.25 347.323 1481.67 Q344.267 1477.06 344.267 1468.33 Q344.267 1459.58 347.323 1455 Q350.401 1450.39 356.211 1450.39 Z" fill="#000000" fill-rule="nonzero" fill-opacity="1"></path><path clip-path="url(#clip070)" d="M820.222 1481.64 L836.541 1481.64 L836.541 1485.58 L814.597 1485.58 L814.597 1481.64 Q817.259 1478.89 821.842 1474.26 Q826.448 1469.61 827.629 1468.27 Q829.874 1465.74 830.754 1464.01 Q831.657 1462.25 831.657 1460.56 Q831.657 1457.8 829.712 1456.07 Q827.791 1454.33 824.689 1454.33 Q822.49 1454.33 820.036 1455.09 Q817.606 1455.86 814.828 1457.41 L814.828 1452.69 Q817.652 1451.55 820.106 1450.97 Q822.56 1450.39 824.597 1450.39 Q829.967 1450.39 833.161 1453.08 Q836.356 1455.77 836.356 1460.26 Q836.356 1462.39 835.546 1464.31 Q834.759 1466.2 832.652 1468.8 Q832.073 1469.47 828.972 1472.69 Q825.87 1475.88 820.222 1481.64 Z" fill="#000000" fill-rule="nonzero" fill-opacity="1"></path><path clip-path="url(#clip070)" d="M846.402 1451.02 L864.758 1451.02 L864.758 1454.96 L850.684 1454.96 L850.684 1463.43 Q851.703 1463.08 852.722 1462.92 Q853.74 1462.73 854.759 1462.73 Q860.546 1462.73 863.925 1465.9 Q867.305 1469.08 867.305 1474.49 Q867.305 1480.07 863.833 1483.17 Q860.36 1486.25 854.041 1486.25 Q851.865 1486.25 849.597 1485.88 Q847.351 1485.51 844.944 1484.77 L844.944 1480.07 Q847.027 1481.2 849.249 1481.76 Q851.472 1482.32 853.948 1482.32 Q857.953 1482.32 860.291 1480.21 Q862.629 1478.1 862.629 1474.49 Q862.629 1470.88 860.291 1468.77 Q857.953 1466.67 853.948 1466.67 Q852.073 1466.67 850.198 1467.08 Q848.347 1467.5 846.402 1468.38 L846.402 1451.02 Z" fill="#000000" fill-rule="nonzero" fill-opacity="1"></path><path clip-path="url(#clip070)" d="M1300.39 1451.02 L1318.75 1451.02 L1318.75 1454.96 L1304.67 1454.96 L1304.67 1463.43 Q1305.69 1463.08 1306.71 1462.92 Q1307.73 1462.73 1308.75 1462.73 Q1314.53 1462.73 1317.91 1465.9 Q1321.29 1469.08 1321.29 1474.49 Q1321.29 1480.07 1317.82 1483.17 Q1314.35 1486.25 1308.03 1486.25 Q1305.85 1486.25 1303.58 1485.88 Q1301.34 1485.51 1298.93 1484.77 L1298.93 1480.07 Q1301.01 1481.2 1303.24 1481.76 Q1305.46 1482.32 1307.94 1482.32 Q1311.94 1482.32 1314.28 1480.21 Q1316.62 1478.1 1316.62 1474.49 Q1316.62 1470.88 1314.28 1468.77 Q1311.94 1466.67 1307.94 1466.67 Q1306.06 1466.67 1304.19 1467.08 Q1302.33 1467.5 1300.39 1468.38 L1300.39 1451.02 Z" fill="#000000" fill-rule="nonzero" fill-opacity="1"></path><path clip-path="url(#clip070)" d="M1340.5 1454.1 Q1336.89 1454.1 1335.07 1457.66 Q1333.26 1461.2 1333.26 1468.33 Q1333.26 1475.44 1335.07 1479.01 Q1336.89 1482.55 1340.5 1482.55 Q1344.14 1482.55 1345.94 1479.01 Q1347.77 1475.44 1347.77 1468.33 Q1347.77 1461.2 1345.94 1457.66 Q1344.14 1454.1 1340.5 1454.1 M1340.5 1450.39 Q1346.31 1450.39 1349.37 1455 Q1352.45 1459.58 1352.45 1468.33 Q1352.45 1477.06 1349.37 1481.67 Q1346.31 1486.25 1340.5 1486.25 Q1334.69 1486.25 1331.62 1481.67 Q1328.56 1477.06 1328.56 1468.33 Q1328.56 1459.58 1331.62 1455 Q1334.69 1450.39 1340.5 1450.39 Z" fill="#000000" fill-rule="nonzero" fill-opacity="1"></path><path clip-path="url(#clip070)" d="M1784.28 1451.02 L1806.51 1451.02 L1806.51 1453.01 L1793.96 1485.58 L1789.08 1485.58 L1800.88 1454.96 L1784.28 1454.96 L1784.28 1451.02 Z" fill="#000000" fill-rule="nonzero" fill-opacity="1"></path><path clip-path="url(#clip070)" d="M1815.67 1451.02 L1834.03 1451.02 L1834.03 1454.96 L1819.95 1454.96 L1819.95 1463.43 Q1820.97 1463.08 1821.99 1462.92 Q1823.01 1462.73 1824.03 1462.73 Q1829.82 1462.73 1833.2 1465.9 Q1836.58 1469.08 1836.58 1474.49 Q1836.58 1480.07 1833.1 1483.17 Q1829.63 1486.25 1823.31 1486.25 Q1821.14 1486.25 1818.87 1485.88 Q1816.62 1485.51 1814.21 1484.77 L1814.21 1480.07 Q1816.3 1481.2 1818.52 1481.76 Q1820.74 1482.32 1823.22 1482.32 Q1827.22 1482.32 1829.56 1480.21 Q1831.9 1478.1 1831.9 1474.49 Q1831.9 1470.88 1829.56 1468.77 Q1827.22 1466.67 1823.22 1466.67 Q1821.34 1466.67 1819.47 1467.08 Q1817.62 1467.5 1815.67 1468.38 L1815.67 1451.02 Z" fill="#000000" fill-rule="nonzero" fill-opacity="1"></path><path clip-path="url(#clip070)" d="M2254.78 1481.64 L2262.41 1481.64 L2262.41 1455.28 L2254.1 1456.95 L2254.1 1452.69 L2262.37 1451.02 L2267.04 1451.02 L2267.04 1481.64 L2274.68 1481.64 L2274.68 1485.58 L2254.78 1485.58 L2254.78 1481.64 Z" fill="#000000" fill-rule="nonzero" fill-opacity="1"></path><path clip-path="url(#clip070)" d="M2294.13 1454.1 Q2290.52 1454.1 2288.69 1457.66 Q2286.88 1461.2 2286.88 1468.33 Q2286.88 1475.44 2288.69 1479.01 Q2290.52 1482.55 2294.13 1482.55 Q2297.76 1482.55 2299.57 1479.01 Q2301.4 1475.44 2301.4 1468.33 Q2301.4 1461.2 2299.57 1457.66 Q2297.76 1454.1 2294.13 1454.1 M2294.13 1450.39 Q2299.94 1450.39 2302.99 1455 Q2306.07 1459.58 2306.07 1468.33 Q2306.07 1477.06 2302.99 1481.67 Q2299.94 1486.25 2294.13 1486.25 Q2288.32 1486.25 2285.24 1481.67 Q2282.18 1477.06 2282.18 1468.33 Q2282.18 1459.58 2285.24 1455 Q2288.32 1450.39 2294.13 1450.39 Z" fill="#000000" fill-rule="nonzero" fill-opacity="1"></path><path clip-path="url(#clip070)" d="M2324.29 1454.1 Q2320.68 1454.1 2318.85 1457.66 Q2317.04 1461.2 2317.04 1468.33 Q2317.04 1475.44 2318.85 1479.01 Q2320.68 1482.55 2324.29 1482.55 Q2327.92 1482.55 2329.73 1479.01 Q2331.56 1475.44 2331.56 1468.33 Q2331.56 1461.2 2329.73 1457.66 Q2327.92 1454.1 2324.29 1454.1 M2324.29 1450.39 Q2330.1 1450.39 2333.15 1455 Q2336.23 1459.58 2336.23 1468.33 Q2336.23 1477.06 2333.15 1481.67 Q2330.1 1486.25 2324.29 1486.25 Q2318.48 1486.25 2315.4 1481.67 Q2312.34 1477.06 2312.34 1468.33 Q2312.34 1459.58 2315.4 1455 Q2318.48 1450.39 2324.29 1450.39 Z" fill="#000000" fill-rule="nonzero" fill-opacity="1"></path><path clip-path="url(#clip070)" d="M1285.24 1522.27 L1285.24 1532.4 L1297.3 1532.4 L1297.3 1536.95 L1285.24 1536.95 L1285.24 1556.3 Q1285.24 1560.66 1286.42 1561.9 Q1287.63 1563.14 1291.29 1563.14 L1297.3 1563.14 L1297.3 1568.04 L1291.29 1568.04 Q1284.51 1568.04 1281.93 1565.53 Q1279.35 1562.98 1279.35 1556.3 L1279.35 1536.95 L1275.05 1536.95 L1275.05 1532.4 L1279.35 1532.4 L1279.35 1522.27 L1285.24 1522.27 Z" fill="#000000" fill-rule="nonzero" fill-opacity="1"></path><path clip-path="url(#clip070)" d="M1325.66 1537.87 Q1324.67 1537.3 1323.5 1537.04 Q1322.35 1536.76 1320.95 1536.76 Q1315.99 1536.76 1313.31 1540 Q1310.67 1543.22 1310.67 1549.27 L1310.67 1568.04 L1304.78 1568.04 L1304.78 1532.4 L1310.67 1532.4 L1310.67 1537.93 Q1312.52 1534.69 1315.48 1533.13 Q1318.44 1531.54 1322.67 1531.54 Q1323.27 1531.54 1324.01 1531.63 Q1324.74 1531.7 1325.63 1531.85 L1325.66 1537.87 Z" fill="#000000" fill-rule="nonzero" fill-opacity="1"></path><path clip-path="url(#clip070)" d="M1331.8 1532.4 L1337.66 1532.4 L1337.66 1568.04 L1331.8 1568.04 L1331.8 1532.4 M1331.8 1518.52 L1337.66 1518.52 L1337.66 1525.93 L1331.8 1525.93 L1331.8 1518.52 Z" fill="#000000" fill-rule="nonzero" fill-opacity="1"></path><path clip-path="url(#clip070)" d="M1366.12 1550.12 Q1359.02 1550.12 1356.28 1551.75 Q1353.54 1553.37 1353.54 1557.29 Q1353.54 1560.4 1355.58 1562.25 Q1357.65 1564.07 1361.18 1564.07 Q1366.05 1564.07 1368.98 1560.63 Q1371.94 1557.16 1371.94 1551.43 L1371.94 1550.12 L1366.12 1550.12 M1377.8 1547.71 L1377.8 1568.04 L1371.94 1568.04 L1371.94 1562.63 Q1369.93 1565.88 1366.94 1567.44 Q1363.95 1568.97 1359.62 1568.97 Q1354.15 1568.97 1350.9 1565.91 Q1347.69 1562.82 1347.69 1557.67 Q1347.69 1551.65 1351.7 1548.6 Q1355.74 1545.54 1363.73 1545.54 L1371.94 1545.54 L1371.94 1544.97 Q1371.94 1540.93 1369.27 1538.73 Q1366.62 1536.5 1361.82 1536.5 Q1358.76 1536.5 1355.87 1537.23 Q1352.97 1537.97 1350.3 1539.43 L1350.3 1534.02 Q1353.51 1532.78 1356.53 1532.17 Q1359.56 1531.54 1362.42 1531.54 Q1370.16 1531.54 1373.98 1535.55 Q1377.8 1539.56 1377.8 1547.71 Z" fill="#000000" fill-rule="nonzero" fill-opacity="1"></path><path clip-path="url(#clip070)" d="M1389.86 1518.52 L1395.72 1518.52 L1395.72 1568.04 L1389.86 1568.04 L1389.86 1518.52 Z" fill="#000000" fill-rule="nonzero" fill-opacity="1"></path><polyline clip-path="url(#clip070)" style="stroke:#000000; stroke-linecap:round; stroke-linejoin:round; stroke-width:4; stroke-opacity:1; fill:none" points="318.014,1423.18 318.014,47.2441 "></polyline>
<polyline clip-path="url(#clip070)" style="stroke:#000000; stroke-linecap:round; stroke-linejoin:round; stroke-width:4; stroke-opacity:1; fill:none" points="318.014,1212.97 336.912,1212.97 "></polyline>
<polyline clip-path="url(#clip070)" style="stroke:#000000; stroke-linecap:round; stroke-linejoin:round; stroke-width:4; stroke-opacity:1; fill:none" points="318.014,931.272 336.912,931.272 "></polyline>
<polyline clip-path="url(#clip070)" style="stroke:#000000; stroke-linecap:round; stroke-linejoin:round; stroke-width:4; stroke-opacity:1; fill:none" points="318.014,649.577 336.912,649.577 "></polyline>
<polyline clip-path="url(#clip070)" style="stroke:#000000; stroke-linecap:round; stroke-linejoin:round; stroke-width:4; stroke-opacity:1; fill:none" points="318.014,367.881 336.912,367.881 "></polyline>
<polyline clip-path="url(#clip070)" style="stroke:#000000; stroke-linecap:round; stroke-linejoin:round; stroke-width:4; stroke-opacity:1; fill:none" points="318.014,86.1857 336.912,86.1857 "></polyline>
<path clip-path="url(#clip070)" d="M114.839 1213.42 L144.515 1213.42 L144.515 1217.35 L114.839 1217.35 L114.839 1213.42 Z" fill="#000000" fill-rule="nonzero" fill-opacity="1"></path><path clip-path="url(#clip070)" d="M164.607 1198.77 Q160.996 1198.77 159.167 1202.33 Q157.362 1205.87 157.362 1213 Q157.362 1220.11 159.167 1223.67 Q160.996 1227.22 164.607 1227.22 Q168.241 1227.22 170.047 1223.67 Q171.876 1220.11 171.876 1213 Q171.876 1205.87 170.047 1202.33 Q168.241 1198.77 164.607 1198.77 M164.607 1195.06 Q170.417 1195.06 173.473 1199.67 Q176.551 1204.25 176.551 1213 Q176.551 1221.73 173.473 1226.34 Q170.417 1230.92 164.607 1230.92 Q158.797 1230.92 155.718 1226.34 Q152.663 1221.73 152.663 1213 Q152.663 1204.25 155.718 1199.67 Q158.797 1195.06 164.607 1195.06 Z" fill="#000000" fill-rule="nonzero" fill-opacity="1"></path><path clip-path="url(#clip070)" d="M184.769 1224.37 L189.653 1224.37 L189.653 1230.25 L184.769 1230.25 L184.769 1224.37 Z" fill="#000000" fill-rule="nonzero" fill-opacity="1"></path><path clip-path="url(#clip070)" d="M209.838 1198.77 Q206.227 1198.77 204.399 1202.33 Q202.593 1205.87 202.593 1213 Q202.593 1220.11 204.399 1223.67 Q206.227 1227.22 209.838 1227.22 Q213.473 1227.22 215.278 1223.67 Q217.107 1220.11 217.107 1213 Q217.107 1205.87 215.278 1202.33 Q213.473 1198.77 209.838 1198.77 M209.838 1195.06 Q215.649 1195.06 218.704 1199.67 Q221.783 1204.25 221.783 1213 Q221.783 1221.73 218.704 1226.34 Q215.649 1230.92 209.838 1230.92 Q204.028 1230.92 200.95 1226.34 Q197.894 1221.73 197.894 1213 Q197.894 1204.25 200.95 1199.67 Q204.028 1195.06 209.838 1195.06 Z" fill="#000000" fill-rule="nonzero" fill-opacity="1"></path><path clip-path="url(#clip070)" d="M240 1198.77 Q236.389 1198.77 234.56 1202.33 Q232.755 1205.87 232.755 1213 Q232.755 1220.11 234.56 1223.67 Q236.389 1227.22 240 1227.22 Q243.634 1227.22 245.44 1223.67 Q247.269 1220.11 247.269 1213 Q247.269 1205.87 245.44 1202.33 Q243.634 1198.77 240 1198.77 M240 1195.06 Q245.81 1195.06 248.866 1199.67 Q251.945 1204.25 251.945 1213 Q251.945 1221.73 248.866 1226.34 Q245.81 1230.92 240 1230.92 Q234.19 1230.92 231.111 1226.34 Q228.056 1221.73 228.056 1213 Q228.056 1204.25 231.111 1199.67 Q234.19 1195.06 240 1195.06 Z" fill="#000000" fill-rule="nonzero" fill-opacity="1"></path><path clip-path="url(#clip070)" d="M270.162 1213.84 Q266.829 1213.84 264.907 1215.62 Q263.009 1217.4 263.009 1220.53 Q263.009 1223.65 264.907 1225.43 Q266.829 1227.22 270.162 1227.22 Q273.495 1227.22 275.417 1225.43 Q277.338 1223.63 277.338 1220.53 Q277.338 1217.4 275.417 1215.62 Q273.519 1213.84 270.162 1213.84 M265.486 1211.84 Q262.477 1211.1 260.787 1209.04 Q259.12 1206.98 259.12 1204.02 Q259.12 1199.88 262.06 1197.47 Q265.023 1195.06 270.162 1195.06 Q275.324 1195.06 278.264 1197.47 Q281.204 1199.88 281.204 1204.02 Q281.204 1206.98 279.514 1209.04 Q277.847 1211.1 274.861 1211.84 Q278.241 1212.63 280.116 1214.92 Q282.014 1217.22 282.014 1220.53 Q282.014 1225.55 278.935 1228.23 Q275.88 1230.92 270.162 1230.92 Q264.445 1230.92 261.366 1228.23 Q258.31 1225.55 258.31 1220.53 Q258.31 1217.22 260.208 1214.92 Q262.107 1212.63 265.486 1211.84 M263.773 1204.46 Q263.773 1207.15 265.44 1208.65 Q267.13 1210.15 270.162 1210.15 Q273.171 1210.15 274.861 1208.65 Q276.574 1207.15 276.574 1204.46 Q276.574 1201.78 274.861 1200.27 Q273.171 1198.77 270.162 1198.77 Q267.13 1198.77 265.44 1200.27 Q263.773 1201.78 263.773 1204.46 Z" fill="#000000" fill-rule="nonzero" fill-opacity="1"></path><path clip-path="url(#clip070)" d="M114.584 931.723 L144.26 931.723 L144.26 935.659 L114.584 935.659 L114.584 931.723 Z" fill="#000000" fill-rule="nonzero" fill-opacity="1"></path><path clip-path="url(#clip070)" d="M164.352 917.071 Q160.741 917.071 158.913 920.635 Q157.107 924.177 157.107 931.307 Q157.107 938.413 158.913 941.978 Q160.741 945.52 164.352 945.52 Q167.987 945.52 169.792 941.978 Q171.621 938.413 171.621 931.307 Q171.621 924.177 169.792 920.635 Q167.987 917.071 164.352 917.071 M164.352 913.367 Q170.163 913.367 173.218 917.973 Q176.297 922.557 176.297 931.307 Q176.297 940.034 173.218 944.64 Q170.163 949.223 164.352 949.223 Q158.542 949.223 155.464 944.64 Q152.408 940.034 152.408 931.307 Q152.408 922.557 155.464 917.973 Q158.542 913.367 164.352 913.367 Z" fill="#000000" fill-rule="nonzero" fill-opacity="1"></path><path clip-path="url(#clip070)" d="M184.514 942.672 L189.399 942.672 L189.399 948.552 L184.514 948.552 L184.514 942.672 Z" fill="#000000" fill-rule="nonzero" fill-opacity="1"></path><path clip-path="url(#clip070)" d="M209.584 917.071 Q205.973 917.071 204.144 920.635 Q202.338 924.177 202.338 931.307 Q202.338 938.413 204.144 941.978 Q205.973 945.52 209.584 945.52 Q213.218 945.52 215.024 941.978 Q216.852 938.413 216.852 931.307 Q216.852 924.177 215.024 920.635 Q213.218 917.071 209.584 917.071 M209.584 913.367 Q215.394 913.367 218.449 917.973 Q221.528 922.557 221.528 931.307 Q221.528 940.034 218.449 944.64 Q215.394 949.223 209.584 949.223 Q203.774 949.223 200.695 944.64 Q197.639 940.034 197.639 931.307 Q197.639 922.557 200.695 917.973 Q203.774 913.367 209.584 913.367 Z" fill="#000000" fill-rule="nonzero" fill-opacity="1"></path><path clip-path="url(#clip070)" d="M239.746 917.071 Q236.135 917.071 234.306 920.635 Q232.5 924.177 232.5 931.307 Q232.5 938.413 234.306 941.978 Q236.135 945.52 239.746 945.52 Q243.38 945.52 245.185 941.978 Q247.014 938.413 247.014 931.307 Q247.014 924.177 245.185 920.635 Q243.38 917.071 239.746 917.071 M239.746 913.367 Q245.556 913.367 248.611 917.973 Q251.69 922.557 251.69 931.307 Q251.69 940.034 248.611 944.64 Q245.556 949.223 239.746 949.223 Q233.935 949.223 230.857 944.64 Q227.801 940.034 227.801 931.307 Q227.801 922.557 230.857 917.973 Q233.935 913.367 239.746 913.367 Z" fill="#000000" fill-rule="nonzero" fill-opacity="1"></path><path clip-path="url(#clip070)" d="M270.486 929.409 Q267.338 929.409 265.486 931.561 Q263.658 933.714 263.658 937.464 Q263.658 941.191 265.486 943.367 Q267.338 945.52 270.486 945.52 Q273.634 945.52 275.463 943.367 Q277.315 941.191 277.315 937.464 Q277.315 933.714 275.463 931.561 Q273.634 929.409 270.486 929.409 M279.769 914.756 L279.769 919.015 Q278.009 918.182 276.204 917.742 Q274.421 917.302 272.662 917.302 Q268.032 917.302 265.579 920.427 Q263.148 923.552 262.801 929.872 Q264.167 927.858 266.227 926.793 Q268.287 925.705 270.764 925.705 Q275.972 925.705 278.981 928.876 Q282.014 932.024 282.014 937.464 Q282.014 942.788 278.866 946.006 Q275.718 949.223 270.486 949.223 Q264.491 949.223 261.32 944.64 Q258.148 940.034 258.148 931.307 Q258.148 923.112 262.037 918.251 Q265.926 913.367 272.477 913.367 Q274.236 913.367 276.019 913.714 Q277.824 914.061 279.769 914.756 Z" fill="#000000" fill-rule="nonzero" fill-opacity="1"></path><path clip-path="url(#clip070)" d="M114.26 650.028 L143.936 650.028 L143.936 653.963 L114.26 653.963 L114.26 650.028 Z" fill="#000000" fill-rule="nonzero" fill-opacity="1"></path><path clip-path="url(#clip070)" d="M164.028 635.375 Q160.417 635.375 158.589 638.94 Q156.783 642.482 156.783 649.611 Q156.783 656.718 158.589 660.283 Q160.417 663.824 164.028 663.824 Q167.663 663.824 169.468 660.283 Q171.297 656.718 171.297 649.611 Q171.297 642.482 169.468 638.94 Q167.663 635.375 164.028 635.375 M164.028 631.672 Q169.839 631.672 172.894 636.278 Q175.973 640.861 175.973 649.611 Q175.973 658.338 172.894 662.945 Q169.839 667.528 164.028 667.528 Q158.218 667.528 155.14 662.945 Q152.084 658.338 152.084 649.611 Q152.084 640.861 155.14 636.278 Q158.218 631.672 164.028 631.672 Z" fill="#000000" fill-rule="nonzero" fill-opacity="1"></path><path clip-path="url(#clip070)" d="M184.19 660.977 L189.075 660.977 L189.075 666.857 L184.19 666.857 L184.19 660.977 Z" fill="#000000" fill-rule="nonzero" fill-opacity="1"></path><path clip-path="url(#clip070)" d="M209.26 635.375 Q205.649 635.375 203.82 638.94 Q202.014 642.482 202.014 649.611 Q202.014 656.718 203.82 660.283 Q205.649 663.824 209.26 663.824 Q212.894 663.824 214.699 660.283 Q216.528 656.718 216.528 649.611 Q216.528 642.482 214.699 638.94 Q212.894 635.375 209.26 635.375 M209.26 631.672 Q215.07 631.672 218.125 636.278 Q221.204 640.861 221.204 649.611 Q221.204 658.338 218.125 662.945 Q215.07 667.528 209.26 667.528 Q203.449 667.528 200.371 662.945 Q197.315 658.338 197.315 649.611 Q197.315 640.861 200.371 636.278 Q203.449 631.672 209.26 631.672 Z" fill="#000000" fill-rule="nonzero" fill-opacity="1"></path><path clip-path="url(#clip070)" d="M239.422 635.375 Q235.81 635.375 233.982 638.94 Q232.176 642.482 232.176 649.611 Q232.176 656.718 233.982 660.283 Q235.81 663.824 239.422 663.824 Q243.056 663.824 244.861 660.283 Q246.69 656.718 246.69 649.611 Q246.69 642.482 244.861 638.94 Q243.056 635.375 239.422 635.375 M239.422 631.672 Q245.232 631.672 248.287 636.278 Q251.366 640.861 251.366 649.611 Q251.366 658.338 248.287 662.945 Q245.232 667.528 239.422 667.528 Q233.611 667.528 230.533 662.945 Q227.477 658.338 227.477 649.611 Q227.477 640.861 230.533 636.278 Q233.611 631.672 239.422 631.672 Z" fill="#000000" fill-rule="nonzero" fill-opacity="1"></path><path clip-path="url(#clip070)" d="M272.431 636.371 L260.625 654.82 L272.431 654.82 L272.431 636.371 M271.204 632.297 L277.083 632.297 L277.083 654.82 L282.014 654.82 L282.014 658.708 L277.083 658.708 L277.083 666.857 L272.431 666.857 L272.431 658.708 L256.829 658.708 L256.829 654.195 L271.204 632.297 Z" fill="#000000" fill-rule="nonzero" fill-opacity="1"></path><path clip-path="url(#clip070)" d="M116.343 368.332 L146.019 368.332 L146.019 372.268 L116.343 372.268 L116.343 368.332 Z" fill="#000000" fill-rule="nonzero" fill-opacity="1"></path><path clip-path="url(#clip070)" d="M166.112 353.68 Q162.501 353.68 160.672 357.245 Q158.866 360.786 158.866 367.916 Q158.866 375.022 160.672 378.587 Q162.501 382.129 166.112 382.129 Q169.746 382.129 171.552 378.587 Q173.38 375.022 173.38 367.916 Q173.38 360.786 171.552 357.245 Q169.746 353.68 166.112 353.68 M166.112 349.976 Q171.922 349.976 174.977 354.583 Q178.056 359.166 178.056 367.916 Q178.056 376.643 174.977 381.249 Q171.922 385.832 166.112 385.832 Q160.302 385.832 157.223 381.249 Q154.167 376.643 154.167 367.916 Q154.167 359.166 157.223 354.583 Q160.302 349.976 166.112 349.976 Z" fill="#000000" fill-rule="nonzero" fill-opacity="1"></path><path clip-path="url(#clip070)" d="M186.274 379.282 L191.158 379.282 L191.158 385.161 L186.274 385.161 L186.274 379.282 Z" fill="#000000" fill-rule="nonzero" fill-opacity="1"></path><path clip-path="url(#clip070)" d="M211.343 353.68 Q207.732 353.68 205.903 357.245 Q204.098 360.786 204.098 367.916 Q204.098 375.022 205.903 378.587 Q207.732 382.129 211.343 382.129 Q214.977 382.129 216.783 378.587 Q218.611 375.022 218.611 367.916 Q218.611 360.786 216.783 357.245 Q214.977 353.68 211.343 353.68 M211.343 349.976 Q217.153 349.976 220.209 354.583 Q223.287 359.166 223.287 367.916 Q223.287 376.643 220.209 381.249 Q217.153 385.832 211.343 385.832 Q205.533 385.832 202.454 381.249 Q199.399 376.643 199.399 367.916 Q199.399 359.166 202.454 354.583 Q205.533 349.976 211.343 349.976 Z" fill="#000000" fill-rule="nonzero" fill-opacity="1"></path><path clip-path="url(#clip070)" d="M241.505 353.68 Q237.894 353.68 236.065 357.245 Q234.26 360.786 234.26 367.916 Q234.26 375.022 236.065 378.587 Q237.894 382.129 241.505 382.129 Q245.139 382.129 246.945 378.587 Q248.773 375.022 248.773 367.916 Q248.773 360.786 246.945 357.245 Q245.139 353.68 241.505 353.68 M241.505 349.976 Q247.315 349.976 250.371 354.583 Q253.449 359.166 253.449 367.916 Q253.449 376.643 250.371 381.249 Q247.315 385.832 241.505 385.832 Q235.695 385.832 232.616 381.249 Q229.56 376.643 229.56 367.916 Q229.56 359.166 232.616 354.583 Q235.695 349.976 241.505 349.976 Z" fill="#000000" fill-rule="nonzero" fill-opacity="1"></path><path clip-path="url(#clip070)" d="M265.695 381.226 L282.014 381.226 L282.014 385.161 L260.07 385.161 L260.07 381.226 Q262.732 378.471 267.315 373.842 Q271.921 369.189 273.102 367.846 Q275.347 365.323 276.227 363.587 Q277.13 361.828 277.13 360.138 Q277.13 357.383 275.185 355.647 Q273.264 353.911 270.162 353.911 Q267.963 353.911 265.509 354.675 Q263.079 355.439 260.301 356.99 L260.301 352.268 Q263.125 351.134 265.579 350.555 Q268.032 349.976 270.07 349.976 Q275.44 349.976 278.634 352.661 Q281.829 355.346 281.829 359.837 Q281.829 361.967 281.019 363.888 Q280.231 365.786 278.125 368.379 Q277.546 369.05 274.444 372.268 Q271.343 375.462 265.695 381.226 Z" fill="#000000" fill-rule="nonzero" fill-opacity="1"></path><path clip-path="url(#clip070)" d="M164.515 71.9844 Q160.903 71.9844 159.075 75.5492 Q157.269 79.0908 157.269 86.2204 Q157.269 93.3268 159.075 96.8916 Q160.903 100.433 164.515 100.433 Q168.149 100.433 169.954 96.8916 Q171.783 93.3268 171.783 86.2204 Q171.783 79.0908 169.954 75.5492 Q168.149 71.9844 164.515 71.9844 M164.515 68.2807 Q170.325 68.2807 173.38 72.8871 Q176.459 77.4704 176.459 86.2204 Q176.459 94.9472 173.38 99.5537 Q170.325 104.137 164.515 104.137 Q158.704 104.137 155.626 99.5537 Q152.57 94.9472 152.57 86.2204 Q152.57 77.4704 155.626 72.8871 Q158.704 68.2807 164.515 68.2807 Z" fill="#000000" fill-rule="nonzero" fill-opacity="1"></path><path clip-path="url(#clip070)" d="M184.676 97.5861 L189.561 97.5861 L189.561 103.466 L184.676 103.466 L184.676 97.5861 Z" fill="#000000" fill-rule="nonzero" fill-opacity="1"></path><path clip-path="url(#clip070)" d="M209.746 71.9844 Q206.135 71.9844 204.306 75.5492 Q202.5 79.0908 202.5 86.2204 Q202.5 93.3268 204.306 96.8916 Q206.135 100.433 209.746 100.433 Q213.38 100.433 215.186 96.8916 Q217.014 93.3268 217.014 86.2204 Q217.014 79.0908 215.186 75.5492 Q213.38 71.9844 209.746 71.9844 M209.746 68.2807 Q215.556 68.2807 218.611 72.8871 Q221.69 77.4704 221.69 86.2204 Q221.69 94.9472 218.611 99.5537 Q215.556 104.137 209.746 104.137 Q203.936 104.137 200.857 99.5537 Q197.801 94.9472 197.801 86.2204 Q197.801 77.4704 200.857 72.8871 Q203.936 68.2807 209.746 68.2807 Z" fill="#000000" fill-rule="nonzero" fill-opacity="1"></path><path clip-path="url(#clip070)" d="M239.908 71.9844 Q236.297 71.9844 234.468 75.5492 Q232.662 79.0908 232.662 86.2204 Q232.662 93.3268 234.468 96.8916 Q236.297 100.433 239.908 100.433 Q243.542 100.433 245.347 96.8916 Q247.176 93.3268 247.176 86.2204 Q247.176 79.0908 245.347 75.5492 Q243.542 71.9844 239.908 71.9844 M239.908 68.2807 Q245.718 68.2807 248.773 72.8871 Q251.852 77.4704 251.852 86.2204 Q251.852 94.9472 248.773 99.5537 Q245.718 104.137 239.908 104.137 Q234.097 104.137 231.019 99.5537 Q227.963 94.9472 227.963 86.2204 Q227.963 77.4704 231.019 72.8871 Q234.097 68.2807 239.908 68.2807 Z" fill="#000000" fill-rule="nonzero" fill-opacity="1"></path><path clip-path="url(#clip070)" d="M270.07 71.9844 Q266.458 71.9844 264.63 75.5492 Q262.824 79.0908 262.824 86.2204 Q262.824 93.3268 264.63 96.8916 Q266.458 100.433 270.07 100.433 Q273.704 100.433 275.509 96.8916 Q277.338 93.3268 277.338 86.2204 Q277.338 79.0908 275.509 75.5492 Q273.704 71.9844 270.07 71.9844 M270.07 68.2807 Q275.88 68.2807 278.935 72.8871 Q282.014 77.4704 282.014 86.2204 Q282.014 94.9472 278.935 99.5537 Q275.88 104.137 270.07 104.137 Q264.259 104.137 261.181 99.5537 Q258.125 94.9472 258.125 86.2204 Q258.125 77.4704 261.181 72.8871 Q264.259 68.2807 270.07 68.2807 Z" fill="#000000" fill-rule="nonzero" fill-opacity="1"></path><path clip-path="url(#clip070)" d="M33.8307 821.292 Q33.2578 822.279 33.0032 823.457 Q32.7167 824.602 32.7167 826.003 Q32.7167 830.968 35.9632 833.642 Q39.1779 836.283 45.2253 836.283 L64.0042 836.283 L64.0042 842.172 L28.3562 842.172 L28.3562 836.283 L33.8944 836.283 Q30.6479 834.437 29.0883 831.477 Q27.4968 828.517 27.4968 824.284 Q27.4968 823.679 27.5923 822.947 Q27.656 822.215 27.8151 821.324 L33.8307 821.292 Z" fill="#000000" fill-rule="nonzero" fill-opacity="1"></path><path clip-path="url(#clip070)" d="M44.7161 786.09 L47.5806 786.09 L47.5806 813.017 Q53.6281 812.635 56.8109 809.388 Q59.9619 806.11 59.9619 800.285 Q59.9619 796.912 59.1344 793.761 Q58.3069 790.578 56.6518 787.459 L62.1899 787.459 Q63.5267 790.61 64.227 793.92 Q64.9272 797.23 64.9272 800.636 Q64.9272 809.166 59.9619 814.163 Q54.9967 819.128 46.5303 819.128 Q37.7774 819.128 32.6531 814.417 Q27.4968 809.675 27.4968 801.654 Q27.4968 794.461 32.1438 790.291 Q36.7589 786.09 44.7161 786.09 M42.9973 791.946 Q38.1912 792.01 35.3266 794.652 Q32.4621 797.262 32.4621 801.59 Q32.4621 806.492 35.2312 809.452 Q38.0002 812.38 43.0292 812.826 L42.9973 791.946 Z" fill="#000000" fill-rule="nonzero" fill-opacity="1"></path><path clip-path="url(#clip070)" d="M28.3562 779.883 L28.3562 774.027 L56.1743 766.706 L28.3562 759.418 L28.3562 752.511 L56.1743 745.19 L28.3562 737.901 L28.3562 732.045 L64.0042 741.371 L64.0042 748.278 L34.7856 755.948 L64.0042 763.651 L64.0042 770.558 L28.3562 779.883 Z" fill="#000000" fill-rule="nonzero" fill-opacity="1"></path><path clip-path="url(#clip070)" d="M46.0847 706.964 Q46.0847 714.062 47.7079 716.799 Q49.3312 719.536 53.2461 719.536 Q56.3653 719.536 58.2114 717.499 Q60.0256 715.431 60.0256 711.898 Q60.0256 707.028 56.5881 704.1 Q53.1188 701.14 47.3897 701.14 L46.0847 701.14 L46.0847 706.964 M43.6657 695.283 L64.0042 695.283 L64.0042 701.14 L58.5933 701.14 Q61.8398 703.145 63.3994 706.137 Q64.9272 709.128 64.9272 713.457 Q64.9272 718.932 61.8716 722.178 Q58.7843 725.393 53.6281 725.393 Q47.6125 725.393 44.5569 721.382 Q41.5014 717.34 41.5014 709.351 L41.5014 701.14 L40.9285 701.14 Q36.8862 701.14 34.6901 703.813 Q32.4621 706.455 32.4621 711.261 Q32.4621 714.317 33.1941 717.213 Q33.9262 720.109 35.3903 722.783 L29.9795 722.783 Q28.7381 719.568 28.1334 716.545 Q27.4968 713.521 27.4968 710.656 Q27.4968 702.922 31.5072 699.102 Q35.5176 695.283 43.6657 695.283 Z" fill="#000000" fill-rule="nonzero" fill-opacity="1"></path><path clip-path="url(#clip070)" d="M33.8307 662.563 Q33.2578 663.55 33.0032 664.728 Q32.7167 665.874 32.7167 667.274 Q32.7167 672.239 35.9632 674.913 Q39.1779 677.555 45.2253 677.555 L64.0042 677.555 L64.0042 683.443 L28.3562 683.443 L28.3562 677.555 L33.8944 677.555 Q30.6479 675.709 29.0883 672.748 Q27.4968 669.788 27.4968 665.555 Q27.4968 664.95 27.5923 664.218 Q27.656 663.486 27.8151 662.595 L33.8307 662.563 Z" fill="#000000" fill-rule="nonzero" fill-opacity="1"></path><path clip-path="url(#clip070)" d="M33.7671 634.109 L14.479 634.109 L14.479 628.252 L64.0042 628.252 L64.0042 634.109 L58.657 634.109 Q61.8398 635.955 63.3994 638.787 Q64.9272 641.588 64.9272 645.535 Q64.9272 651.996 59.771 656.07 Q54.6147 660.113 46.212 660.113 Q37.8093 660.113 32.6531 656.07 Q27.4968 651.996 27.4968 645.535 Q27.4968 641.588 29.0564 638.787 Q30.5842 635.955 33.7671 634.109 M46.212 654.065 Q52.6732 654.065 56.3653 651.423 Q60.0256 648.75 60.0256 644.103 Q60.0256 639.456 56.3653 636.782 Q52.6732 634.109 46.212 634.109 Q39.7508 634.109 36.0905 636.782 Q32.3984 639.456 32.3984 644.103 Q32.3984 648.75 36.0905 651.423 Q39.7508 654.065 46.212 654.065 Z" fill="#000000" fill-rule="nonzero" fill-opacity="1"></path><polyline clip-path="url(#clip072)" style="stroke:#009af9; stroke-linecap:round; stroke-linejoin:round; stroke-width:4; stroke-opacity:1; fill:none" points="375.601,137.032 394.991,397.318 414.38,154.356 433.77,142.525 453.159,196.61 472.549,93.0872 491.938,87.4533 511.328,627.604 530.718,268.724 550.107,142.525 569.497,467.038 588.886,148.3 608.276,174.215 627.665,137.032 647.055,836.763 666.445,93.0872 685.834,174.215 705.224,239.569 724.613,160.694 744.003,117.876 763.392,86.7491 782.782,117.876 802.172,268.724 821.561,93.0872 840.951,174.215 860.34,512.25 879.73,239.569 899.119,103.228 918.509,154.356 937.899,322.951 957.288,627.604 976.678,86.1857 996.067,95.1999 1015.46,512.25 1034.85,258.724 1054.24,239.569 1073.63,776.34 1093.02,1127.9 1112.4,100.27 1131.79,131.82 1151.18,117.876 1170.57,627.604 1189.96,268.724 1209.35,86.3265 1228.74,268.724 1248.13,627.604 1267.52,204.639 1286.91,97.5943 1306.3,88.4392 1325.69,593.237 1345.08,300.415 1364.47,1201.84 1383.86,204.639 1403.25,86.3265 1422.64,103.228 1442.03,131.82 1461.42,87.4533 1480.81,97.5943 1500.2,137.032 1519.59,559.997 1538.98,97.5943 1558.37,97.5943 1577.75,196.61 1597.14,137.032 1616.53,174.215 1635.92,148.3 1655.31,258.724 1674.7,100.27 1694.09,88.4392 1713.48,93.0872 1732.87,181.399 1752.26,384.219 1771.65,167.314 1791.04,137.032 1810.43,221.54 1829.82,167.314 1849.21,1201.84 1868.6,95.1999 1887.99,1384.24 1907.38,204.639 1926.77,816.34 1946.16,93.0872 1965.55,87.4533 1984.94,117.876 2004.33,88.4392 2023.71,131.82 2043.1,88.4392 2062.49,103.228 2081.88,196.61 2101.27,91.2562 2120.66,97.5943 2140.05,410.699 2159.44,137.032 2178.83,718.451 2198.22,943.103 2217.61,204.639 2237,89.7069 2256.39,97.5943 2275.78,196.61 2295.17,663.098 "></polyline>
<polyline clip-path="url(#clip072)" style="stroke:#e26f46; stroke-linecap:round; stroke-linejoin:round; stroke-width:4; stroke-opacity:1; fill:none" points="375.601,97.5943 394.991,86.1857 414.38,154.356 433.77,100.27 453.159,204.639 472.549,100.27 491.938,95.1999 511.328,103.228 530.718,181.399 550.107,188.864 569.497,167.314 588.886,131.82 608.276,126.891 627.665,97.5943 647.055,137.032 666.445,91.2562 685.834,97.5943 705.224,117.876 724.613,289.57 744.003,113.792 763.392,106.468 782.782,100.27 802.172,93.0872 821.561,86.7491 840.951,95.1999 860.34,126.891 879.73,279.006 899.119,103.228 918.509,142.525 937.899,91.2562 957.288,89.7069 976.678,97.5943 996.067,88.4392 1015.46,91.2562 1034.85,181.399 1054.24,100.27 1073.63,148.3 1093.02,126.891 1112.4,89.7069 1131.79,103.228 1151.18,103.228 1170.57,97.5943 1189.96,137.032 1209.35,89.7069 1228.74,89.7069 1248.13,88.4392 1267.52,221.54 1286.91,95.1999 1306.3,97.5943 1325.69,137.032 1345.08,87.4533 1364.47,86.7491 1383.86,160.694 1403.25,86.7491 1422.64,117.876 1442.03,131.82 1461.42,86.3265 1480.81,91.2562 1500.2,87.4533 1519.59,181.399 1538.98,89.7069 1558.37,97.5943 1577.75,300.415 1597.14,117.876 1616.53,249.006 1635.92,109.989 1655.31,212.949 1674.7,100.27 1694.09,97.5943 1713.48,86.3265 1732.87,221.54 1752.26,142.525 1771.65,268.724 1791.04,148.3 1810.43,103.228 1829.82,87.4533 1849.21,122.243 1868.6,95.1999 1887.99,148.3 1907.38,188.864 1926.77,160.694 1946.16,86.7491 1965.55,106.468 1984.94,88.4392 2004.33,88.4392 2023.71,148.3 2043.1,87.4533 2062.49,122.243 2081.88,93.0872 2101.27,106.468 2120.66,87.4533 2140.05,97.5943 2159.44,93.0872 2178.83,142.525 2198.22,88.4392 2217.61,174.215 2237,91.2562 2256.39,113.792 2275.78,239.569 2295.17,100.27 "></polyline>
<path clip-path="url(#clip070)" d="M385.839 1377.32 L924.126 1377.32 L924.126 1221.8 L385.839 1221.8  Z" fill="#ffffff" fill-rule="evenodd" fill-opacity="1"></path>
<polyline clip-path="url(#clip070)" style="stroke:#000000; stroke-linecap:round; stroke-linejoin:round; stroke-width:4; stroke-opacity:1; fill:none" points="385.839,1377.32 924.126,1377.32 924.126,1221.8 385.839,1221.8 385.839,1377.32 "></polyline>
<polyline clip-path="url(#clip070)" style="stroke:#009af9; stroke-linecap:round; stroke-linejoin:round; stroke-width:4; stroke-opacity:1; fill:none" points="408.447,1273.64 544.096,1273.64 "></polyline>
<path clip-path="url(#clip070)" d="M583.209 1254.9 L583.209 1258.44 L579.135 1258.44 Q576.843 1258.44 575.941 1259.36 Q575.061 1260.29 575.061 1262.7 L575.061 1264.99 L582.075 1264.99 L582.075 1268.3 L575.061 1268.3 L575.061 1290.92 L570.779 1290.92 L570.779 1268.3 L566.705 1268.3 L566.705 1264.99 L570.779 1264.99 L570.779 1263.18 Q570.779 1258.86 572.793 1256.89 Q574.806 1254.9 579.181 1254.9 L583.209 1254.9 Z" fill="#000000" fill-rule="nonzero" fill-opacity="1"></path><path clip-path="url(#clip070)" d="M586.774 1264.99 L591.033 1264.99 L591.033 1290.92 L586.774 1290.92 L586.774 1264.99 M586.774 1254.9 L591.033 1254.9 L591.033 1260.29 L586.774 1260.29 L586.774 1254.9 Z" fill="#000000" fill-rule="nonzero" fill-opacity="1"></path><path clip-path="url(#clip070)" d="M614.968 1268.97 Q614.251 1268.55 613.394 1268.37 Q612.561 1268.16 611.542 1268.16 Q607.931 1268.16 605.987 1270.52 Q604.065 1272.86 604.065 1277.26 L604.065 1290.92 L599.783 1290.92 L599.783 1264.99 L604.065 1264.99 L604.065 1269.02 Q605.408 1266.66 607.561 1265.52 Q609.714 1264.36 612.792 1264.36 Q613.232 1264.36 613.765 1264.43 Q614.297 1264.48 614.945 1264.6 L614.968 1268.97 Z" fill="#000000" fill-rule="nonzero" fill-opacity="1"></path><path clip-path="url(#clip070)" d="M635.963 1265.75 L635.963 1269.78 Q634.158 1268.86 632.213 1268.39 Q630.269 1267.93 628.186 1267.93 Q625.014 1267.93 623.417 1268.9 Q621.843 1269.87 621.843 1271.82 Q621.843 1273.3 622.977 1274.16 Q624.112 1274.99 627.538 1275.75 L628.996 1276.08 Q633.533 1277.05 635.431 1278.83 Q637.352 1280.59 637.352 1283.76 Q637.352 1287.37 634.482 1289.48 Q631.635 1291.59 626.635 1291.59 Q624.551 1291.59 622.283 1291.17 Q620.038 1290.78 617.538 1289.97 L617.538 1285.57 Q619.899 1286.79 622.19 1287.42 Q624.482 1288.02 626.727 1288.02 Q629.737 1288.02 631.357 1287 Q632.977 1285.96 632.977 1284.09 Q632.977 1282.35 631.797 1281.42 Q630.639 1280.5 626.681 1279.64 L625.2 1279.3 Q621.241 1278.46 619.482 1276.75 Q617.723 1275.01 617.723 1272 Q617.723 1268.35 620.315 1266.36 Q622.908 1264.36 627.676 1264.36 Q630.038 1264.36 632.121 1264.71 Q634.204 1265.06 635.963 1265.75 Z" fill="#000000" fill-rule="nonzero" fill-opacity="1"></path><path clip-path="url(#clip070)" d="M648.348 1257.63 L648.348 1264.99 L657.121 1264.99 L657.121 1268.3 L648.348 1268.3 L648.348 1282.37 Q648.348 1285.54 649.204 1286.45 Q650.084 1287.35 652.746 1287.35 L657.121 1287.35 L657.121 1290.92 L652.746 1290.92 Q647.815 1290.92 645.94 1289.09 Q644.065 1287.23 644.065 1282.37 L644.065 1268.3 L640.94 1268.3 L640.94 1264.99 L644.065 1264.99 L644.065 1257.63 L648.348 1257.63 Z" fill="#000000" fill-rule="nonzero" fill-opacity="1"></path><path clip-path="url(#clip070)" d="M694.852 1268.92 L694.852 1254.9 L699.111 1254.9 L699.111 1290.92 L694.852 1290.92 L694.852 1287.03 Q693.509 1289.34 691.449 1290.48 Q689.412 1291.59 686.542 1291.59 Q681.843 1291.59 678.88 1287.84 Q675.94 1284.09 675.94 1277.98 Q675.94 1271.86 678.88 1268.11 Q681.843 1264.36 686.542 1264.36 Q689.412 1264.36 691.449 1265.5 Q693.509 1266.61 694.852 1268.92 M680.338 1277.98 Q680.338 1282.67 682.26 1285.36 Q684.204 1288.02 687.584 1288.02 Q690.963 1288.02 692.908 1285.36 Q694.852 1282.67 694.852 1277.98 Q694.852 1273.28 692.908 1270.61 Q690.963 1267.93 687.584 1267.93 Q684.204 1267.93 682.26 1270.61 Q680.338 1273.28 680.338 1277.98 Z" fill="#000000" fill-rule="nonzero" fill-opacity="1"></path><path clip-path="url(#clip070)" d="M730.06 1276.89 L730.06 1278.97 L710.477 1278.97 Q710.755 1283.37 713.116 1285.68 Q715.5 1287.98 719.736 1287.98 Q722.19 1287.98 724.482 1287.37 Q726.796 1286.77 729.065 1285.57 L729.065 1289.6 Q726.773 1290.57 724.366 1291.08 Q721.958 1291.59 719.482 1291.59 Q713.278 1291.59 709.644 1287.98 Q706.033 1284.36 706.033 1278.21 Q706.033 1271.84 709.458 1268.11 Q712.907 1264.36 718.741 1264.36 Q723.972 1264.36 727.005 1267.74 Q730.06 1271.1 730.06 1276.89 M725.801 1275.64 Q725.755 1272.14 723.833 1270.06 Q721.935 1267.98 718.787 1267.98 Q715.222 1267.98 713.07 1269.99 Q710.94 1272 710.616 1275.66 L725.801 1275.64 Z" fill="#000000" fill-rule="nonzero" fill-opacity="1"></path><path clip-path="url(#clip070)" d="M753.579 1265.75 L753.579 1269.78 Q751.773 1268.86 749.829 1268.39 Q747.884 1267.93 745.801 1267.93 Q742.63 1267.93 741.032 1268.9 Q739.458 1269.87 739.458 1271.82 Q739.458 1273.3 740.593 1274.16 Q741.727 1274.99 745.153 1275.75 L746.611 1276.08 Q751.148 1277.05 753.046 1278.83 Q754.967 1280.59 754.967 1283.76 Q754.967 1287.37 752.097 1289.48 Q749.25 1291.59 744.25 1291.59 Q742.167 1291.59 739.898 1291.17 Q737.653 1290.78 735.153 1289.97 L735.153 1285.57 Q737.514 1286.79 739.806 1287.42 Q742.097 1288.02 744.343 1288.02 Q747.352 1288.02 748.972 1287 Q750.592 1285.96 750.592 1284.09 Q750.592 1282.35 749.412 1281.42 Q748.255 1280.5 744.296 1279.64 L742.815 1279.3 Q738.856 1278.46 737.097 1276.75 Q735.338 1275.01 735.338 1272 Q735.338 1268.35 737.931 1266.36 Q740.523 1264.36 745.292 1264.36 Q747.653 1264.36 749.736 1264.71 Q751.819 1265.06 753.579 1265.75 Z" fill="#000000" fill-rule="nonzero" fill-opacity="1"></path><path clip-path="url(#clip070)" d="M761.75 1264.99 L766.009 1264.99 L766.009 1290.92 L761.75 1290.92 L761.75 1264.99 M761.75 1254.9 L766.009 1254.9 L766.009 1260.29 L761.75 1260.29 L761.75 1254.9 Z" fill="#000000" fill-rule="nonzero" fill-opacity="1"></path><path clip-path="url(#clip070)" d="M791.981 1277.65 Q791.981 1273.02 790.06 1270.48 Q788.162 1267.93 784.713 1267.93 Q781.287 1267.93 779.365 1270.48 Q777.467 1273.02 777.467 1277.65 Q777.467 1282.26 779.365 1284.8 Q781.287 1287.35 784.713 1287.35 Q788.162 1287.35 790.06 1284.8 Q791.981 1282.26 791.981 1277.65 M796.24 1287.7 Q796.24 1294.32 793.301 1297.54 Q790.361 1300.78 784.296 1300.78 Q782.051 1300.78 780.06 1300.43 Q778.069 1300.11 776.194 1299.41 L776.194 1295.27 Q778.069 1296.29 779.898 1296.77 Q781.727 1297.26 783.625 1297.26 Q787.815 1297.26 789.898 1295.06 Q791.981 1292.88 791.981 1288.46 L791.981 1286.36 Q790.662 1288.65 788.602 1289.78 Q786.541 1290.92 783.671 1290.92 Q778.903 1290.92 775.986 1287.28 Q773.069 1283.65 773.069 1277.65 Q773.069 1271.63 775.986 1268 Q778.903 1264.36 783.671 1264.36 Q786.541 1264.36 788.602 1265.5 Q790.662 1266.63 791.981 1268.92 L791.981 1264.99 L796.24 1264.99 L796.24 1287.7 Z" fill="#000000" fill-rule="nonzero" fill-opacity="1"></path><path clip-path="url(#clip070)" d="M826.564 1275.27 L826.564 1290.92 L822.305 1290.92 L822.305 1275.41 Q822.305 1271.73 820.87 1269.9 Q819.435 1268.07 816.564 1268.07 Q813.115 1268.07 811.125 1270.27 Q809.134 1272.47 809.134 1276.26 L809.134 1290.92 L804.851 1290.92 L804.851 1264.99 L809.134 1264.99 L809.134 1269.02 Q810.662 1266.68 812.722 1265.52 Q814.805 1264.36 817.513 1264.36 Q821.981 1264.36 824.273 1267.14 Q826.564 1269.9 826.564 1275.27 Z" fill="#000000" fill-rule="nonzero" fill-opacity="1"></path><polyline clip-path="url(#clip070)" style="stroke:#e26f46; stroke-linecap:round; stroke-linejoin:round; stroke-width:4; stroke-opacity:1; fill:none" points="408.447,1325.48 544.096,1325.48 "></polyline>
<path clip-path="url(#clip070)" d="M585.13 1317.59 L585.13 1321.62 Q583.325 1320.7 581.38 1320.23 Q579.436 1319.77 577.353 1319.77 Q574.181 1319.77 572.584 1320.74 Q571.01 1321.71 571.01 1323.66 Q571.01 1325.14 572.144 1326 Q573.279 1326.83 576.705 1327.59 L578.163 1327.92 Q582.7 1328.89 584.598 1330.67 Q586.519 1332.43 586.519 1335.6 Q586.519 1339.21 583.649 1341.32 Q580.802 1343.43 575.802 1343.43 Q573.718 1343.43 571.45 1343.01 Q569.205 1342.62 566.705 1341.81 L566.705 1337.41 Q569.066 1338.63 571.357 1339.26 Q573.649 1339.86 575.894 1339.86 Q578.904 1339.86 580.524 1338.84 Q582.144 1337.8 582.144 1335.93 Q582.144 1334.19 580.964 1333.26 Q579.806 1332.34 575.848 1331.48 L574.367 1331.14 Q570.408 1330.3 568.649 1328.59 Q566.89 1326.85 566.89 1323.84 Q566.89 1320.19 569.482 1318.2 Q572.075 1316.2 576.843 1316.2 Q579.205 1316.2 581.288 1316.55 Q583.371 1316.9 585.13 1317.59 Z" fill="#000000" fill-rule="nonzero" fill-opacity="1"></path><path clip-path="url(#clip070)" d="M615.477 1328.73 L615.477 1330.81 L595.894 1330.81 Q596.172 1335.21 598.533 1337.52 Q600.917 1339.82 605.153 1339.82 Q607.607 1339.82 609.899 1339.21 Q612.214 1338.61 614.482 1337.41 L614.482 1341.44 Q612.19 1342.41 609.783 1342.92 Q607.376 1343.43 604.899 1343.43 Q598.695 1343.43 595.061 1339.82 Q591.45 1336.2 591.45 1330.05 Q591.45 1323.68 594.876 1319.95 Q598.325 1316.2 604.158 1316.2 Q609.39 1316.2 612.422 1319.58 Q615.477 1322.94 615.477 1328.73 M611.218 1327.48 Q611.172 1323.98 609.251 1321.9 Q607.353 1319.82 604.204 1319.82 Q600.64 1319.82 598.487 1321.83 Q596.357 1323.84 596.033 1327.5 L611.218 1327.48 Z" fill="#000000" fill-rule="nonzero" fill-opacity="1"></path><path clip-path="url(#clip070)" d="M641.125 1317.82 L641.125 1321.81 Q639.32 1320.81 637.491 1320.32 Q635.686 1319.82 633.834 1319.82 Q629.69 1319.82 627.399 1322.45 Q625.107 1325.07 625.107 1329.82 Q625.107 1334.56 627.399 1337.2 Q629.69 1339.82 633.834 1339.82 Q635.686 1339.82 637.491 1339.33 Q639.32 1338.82 641.125 1337.82 L641.125 1341.76 Q639.343 1342.59 637.422 1343.01 Q635.524 1343.43 633.371 1343.43 Q627.514 1343.43 624.065 1339.75 Q620.616 1336.07 620.616 1329.82 Q620.616 1323.47 624.089 1319.84 Q627.584 1316.2 633.649 1316.2 Q635.616 1316.2 637.491 1316.62 Q639.366 1317.01 641.125 1317.82 Z" fill="#000000" fill-rule="nonzero" fill-opacity="1"></path><path clip-path="url(#clip070)" d="M658.579 1319.82 Q655.153 1319.82 653.162 1322.5 Q651.172 1325.16 651.172 1329.82 Q651.172 1334.47 653.139 1337.15 Q655.13 1339.82 658.579 1339.82 Q661.982 1339.82 663.973 1337.13 Q665.963 1334.45 665.963 1329.82 Q665.963 1325.21 663.973 1322.52 Q661.982 1319.82 658.579 1319.82 M658.579 1316.2 Q664.135 1316.2 667.306 1319.82 Q670.477 1323.43 670.477 1329.82 Q670.477 1336.18 667.306 1339.82 Q664.135 1343.43 658.579 1343.43 Q653 1343.43 649.829 1339.82 Q646.681 1336.18 646.681 1329.82 Q646.681 1323.43 649.829 1319.82 Q653 1316.2 658.579 1316.2 Z" fill="#000000" fill-rule="nonzero" fill-opacity="1"></path><path clip-path="url(#clip070)" d="M699.088 1327.11 L699.088 1342.76 L694.829 1342.76 L694.829 1327.25 Q694.829 1323.57 693.394 1321.74 Q691.959 1319.91 689.088 1319.91 Q685.639 1319.91 683.648 1322.11 Q681.658 1324.31 681.658 1328.1 L681.658 1342.76 L677.375 1342.76 L677.375 1316.83 L681.658 1316.83 L681.658 1320.86 Q683.185 1318.52 685.246 1317.36 Q687.329 1316.2 690.037 1316.2 Q694.505 1316.2 696.796 1318.98 Q699.088 1321.74 699.088 1327.11 Z" fill="#000000" fill-rule="nonzero" fill-opacity="1"></path><path clip-path="url(#clip070)" d="M724.644 1320.76 L724.644 1306.74 L728.903 1306.74 L728.903 1342.76 L724.644 1342.76 L724.644 1338.87 Q723.301 1341.18 721.241 1342.32 Q719.204 1343.43 716.333 1343.43 Q711.634 1343.43 708.671 1339.68 Q705.732 1335.93 705.732 1329.82 Q705.732 1323.7 708.671 1319.95 Q711.634 1316.2 716.333 1316.2 Q719.204 1316.2 721.241 1317.34 Q723.301 1318.45 724.644 1320.76 M710.13 1329.82 Q710.13 1334.51 712.051 1337.2 Q713.995 1339.86 717.375 1339.86 Q720.755 1339.86 722.699 1337.2 Q724.644 1334.51 724.644 1329.82 Q724.644 1325.12 722.699 1322.45 Q720.755 1319.77 717.375 1319.77 Q713.995 1319.77 712.051 1322.45 Q710.13 1325.12 710.13 1329.82 Z" fill="#000000" fill-rule="nonzero" fill-opacity="1"></path><path clip-path="url(#clip070)" d="M769.805 1320.76 L769.805 1306.74 L774.065 1306.74 L774.065 1342.76 L769.805 1342.76 L769.805 1338.87 Q768.463 1341.18 766.403 1342.32 Q764.366 1343.43 761.495 1343.43 Q756.796 1343.43 753.833 1339.68 Q750.893 1335.93 750.893 1329.82 Q750.893 1323.7 753.833 1319.95 Q756.796 1316.2 761.495 1316.2 Q764.366 1316.2 766.403 1317.34 Q768.463 1318.45 769.805 1320.76 M755.292 1329.82 Q755.292 1334.51 757.213 1337.2 Q759.157 1339.86 762.537 1339.86 Q765.916 1339.86 767.861 1337.2 Q769.805 1334.51 769.805 1329.82 Q769.805 1325.12 767.861 1322.45 Q765.916 1319.77 762.537 1319.77 Q759.157 1319.77 757.213 1322.45 Q755.292 1325.12 755.292 1329.82 Z" fill="#000000" fill-rule="nonzero" fill-opacity="1"></path><path clip-path="url(#clip070)" d="M805.013 1328.73 L805.013 1330.81 L785.43 1330.81 Q785.708 1335.21 788.069 1337.52 Q790.453 1339.82 794.689 1339.82 Q797.143 1339.82 799.435 1339.21 Q801.75 1338.61 804.018 1337.41 L804.018 1341.44 Q801.726 1342.41 799.319 1342.92 Q796.912 1343.43 794.435 1343.43 Q788.231 1343.43 784.597 1339.82 Q780.986 1336.2 780.986 1330.05 Q780.986 1323.68 784.412 1319.95 Q787.861 1316.2 793.694 1316.2 Q798.926 1316.2 801.958 1319.58 Q805.013 1322.94 805.013 1328.73 M800.754 1327.48 Q800.708 1323.98 798.787 1321.9 Q796.889 1319.82 793.74 1319.82 Q790.176 1319.82 788.023 1321.83 Q785.893 1323.84 785.569 1327.5 L800.754 1327.48 Z" fill="#000000" fill-rule="nonzero" fill-opacity="1"></path><path clip-path="url(#clip070)" d="M828.532 1317.59 L828.532 1321.62 Q826.726 1320.7 824.782 1320.23 Q822.837 1319.77 820.754 1319.77 Q817.583 1319.77 815.986 1320.74 Q814.412 1321.71 814.412 1323.66 Q814.412 1325.14 815.546 1326 Q816.68 1326.83 820.106 1327.59 L821.564 1327.92 Q826.101 1328.89 827.999 1330.67 Q829.921 1332.43 829.921 1335.6 Q829.921 1339.21 827.05 1341.32 Q824.203 1343.43 819.203 1343.43 Q817.12 1343.43 814.851 1343.01 Q812.606 1342.62 810.106 1341.81 L810.106 1337.41 Q812.467 1338.63 814.759 1339.26 Q817.05 1339.86 819.296 1339.86 Q822.305 1339.86 823.925 1338.84 Q825.546 1337.8 825.546 1335.93 Q825.546 1334.19 824.365 1333.26 Q823.208 1332.34 819.25 1331.48 L817.768 1331.14 Q813.81 1330.3 812.05 1328.59 Q810.291 1326.85 810.291 1323.84 Q810.291 1320.19 812.884 1318.2 Q815.476 1316.2 820.245 1316.2 Q822.606 1316.2 824.689 1316.55 Q826.773 1316.9 828.532 1317.59 Z" fill="#000000" fill-rule="nonzero" fill-opacity="1"></path><path clip-path="url(#clip070)" d="M836.703 1316.83 L840.962 1316.83 L840.962 1342.76 L836.703 1342.76 L836.703 1316.83 M836.703 1306.74 L840.962 1306.74 L840.962 1312.13 L836.703 1312.13 L836.703 1306.74 Z" fill="#000000" fill-rule="nonzero" fill-opacity="1"></path><path clip-path="url(#clip070)" d="M866.934 1329.49 Q866.934 1324.86 865.013 1322.32 Q863.115 1319.77 859.666 1319.77 Q856.24 1319.77 854.319 1322.32 Q852.421 1324.86 852.421 1329.49 Q852.421 1334.1 854.319 1336.64 Q856.24 1339.19 859.666 1339.19 Q863.115 1339.19 865.013 1336.64 Q866.934 1334.1 866.934 1329.49 M871.194 1339.54 Q871.194 1346.16 868.254 1349.38 Q865.314 1352.62 859.249 1352.62 Q857.004 1352.62 855.013 1352.27 Q853.022 1351.95 851.147 1351.25 L851.147 1347.11 Q853.022 1348.13 854.851 1348.61 Q856.68 1349.1 858.578 1349.1 Q862.768 1349.1 864.851 1346.9 Q866.934 1344.72 866.934 1340.3 L866.934 1338.2 Q865.615 1340.49 863.555 1341.62 Q861.495 1342.76 858.624 1342.76 Q853.856 1342.76 850.939 1339.12 Q848.023 1335.49 848.023 1329.49 Q848.023 1323.47 850.939 1319.84 Q853.856 1316.2 858.624 1316.2 Q861.495 1316.2 863.555 1317.34 Q865.615 1318.47 866.934 1320.76 L866.934 1316.83 L871.194 1316.83 L871.194 1339.54 Z" fill="#000000" fill-rule="nonzero" fill-opacity="1"></path><path clip-path="url(#clip070)" d="M901.518 1327.11 L901.518 1342.76 L897.258 1342.76 L897.258 1327.25 Q897.258 1323.57 895.823 1321.74 Q894.388 1319.91 891.518 1319.91 Q888.069 1319.91 886.078 1322.11 Q884.087 1324.31 884.087 1328.1 L884.087 1342.76 L879.805 1342.76 L879.805 1316.83 L884.087 1316.83 L884.087 1320.86 Q885.615 1318.52 887.675 1317.36 Q889.758 1316.2 892.467 1316.2 Q896.934 1316.2 899.226 1318.98 Q901.518 1321.74 901.518 1327.11 Z" fill="#000000" fill-rule="nonzero" fill-opacity="1"></path></svg>