<svg xmlns="http://www.w3.org/2000/svg" xmlns:xlink="http://www.w3.org/1999/xlink" width="600" height="400" viewBox="0 0 2400 1600">
<defs>
  <clipPath id="clip310">
    <rect x="0" y="0" width="2400" height="1600"></rect>
  </clipPath>
</defs>
<path clip-path="url(#clip310)" d="M0 1600 L2400 1600 L2400 8.88178e-14 L0 8.88178e-14  Z" fill="#ffffff" fill-rule="evenodd" fill-opacity="1"></path>
<defs>
  <clipPath id="clip311">
    <rect x="480" y="0" width="1681" height="1600"></rect>
  </clipPath>
</defs>
<path clip-path="url(#clip310)" d="M232.389 1423.18 L2352.76 1423.18 L2352.76 123.472 L232.389 123.472  Z" fill="#ffffff" fill-rule="evenodd" fill-opacity="1"></path>
<defs>
  <clipPath id="clip312">
    <rect x="232" y="123" width="2121" height="1301"></rect>
  </clipPath>
</defs>
<polyline clip-path="url(#clip312)" style="stroke:#000000; stroke-linecap:round; stroke-linejoin:round; stroke-width:2; stroke-opacity:0.1; fill:none" points="290.399,1423.18 290.399,123.472 "></polyline>
<polyline clip-path="url(#clip312)" style="stroke:#000000; stroke-linecap:round; stroke-linejoin:round; stroke-width:2; stroke-opacity:0.1; fill:none" points="790.486,1423.18 790.486,123.472 "></polyline>
<polyline clip-path="url(#clip312)" style="stroke:#000000; stroke-linecap:round; stroke-linejoin:round; stroke-width:2; stroke-opacity:0.1; fill:none" points="1290.57,1423.18 1290.57,123.472 "></polyline>
<polyline clip-path="url(#clip312)" style="stroke:#000000; stroke-linecap:round; stroke-linejoin:round; stroke-width:2; stroke-opacity:0.1; fill:none" points="1790.66,1423.18 1790.66,123.472 "></polyline>
<polyline clip-path="url(#clip312)" style="stroke:#000000; stroke-linecap:round; stroke-linejoin:round; stroke-width:2; stroke-opacity:0.1; fill:none" points="2290.75,1423.18 2290.75,123.472 "></polyline>
<polyline clip-path="url(#clip312)" style="stroke:#000000; stroke-linecap:round; stroke-linejoin:round; stroke-width:2; stroke-opacity:0.1; fill:none" points="232.389,1386.4 2352.76,1386.4 "></polyline>
<polyline clip-path="url(#clip312)" style="stroke:#000000; stroke-linecap:round; stroke-linejoin:round; stroke-width:2; stroke-opacity:0.1; fill:none" points="232.389,995.905 2352.76,995.905 "></polyline>
<polyline clip-path="url(#clip312)" style="stroke:#000000; stroke-linecap:round; stroke-linejoin:round; stroke-width:2; stroke-opacity:0.1; fill:none" points="232.389,605.415 2352.76,605.415 "></polyline>
<polyline clip-path="url(#clip312)" style="stroke:#000000; stroke-linecap:round; stroke-linejoin:round; stroke-width:2; stroke-opacity:0.1; fill:none" points="232.389,214.925 2352.76,214.925 "></polyline>
<polyline clip-path="url(#clip310)" style="stroke:#000000; stroke-linecap:round; stroke-linejoin:round; stroke-width:4; stroke-opacity:1; fill:none" points="232.389,1423.18 2352.76,1423.18 "></polyline>
<polyline clip-path="url(#clip310)" style="stroke:#000000; stroke-linecap:round; stroke-linejoin:round; stroke-width:4; stroke-opacity:1; fill:none" points="290.399,1423.18 290.399,1404.28 "></polyline>
<polyline clip-path="url(#clip310)" style="stroke:#000000; stroke-linecap:round; stroke-linejoin:round; stroke-width:4; stroke-opacity:1; fill:none" points="790.486,1423.18 790.486,1404.28 "></polyline>
<polyline clip-path="url(#clip310)" style="stroke:#000000; stroke-linecap:round; stroke-linejoin:round; stroke-width:4; stroke-opacity:1; fill:none" points="1290.57,1423.18 1290.57,1404.28 "></polyline>
<polyline clip-path="url(#clip310)" style="stroke:#000000; stroke-linecap:round; stroke-linejoin:round; stroke-width:4; stroke-opacity:1; fill:none" points="1790.66,1423.18 1790.66,1404.28 "></polyline>
<polyline clip-path="url(#clip310)" style="stroke:#000000; stroke-linecap:round; stroke-linejoin:round; stroke-width:4; stroke-opacity:1; fill:none" points="2290.75,1423.18 2290.75,1404.28 "></polyline>
<path clip-path="url(#clip310)" d="M290.399 1454.1 Q286.788 1454.1 284.96 1457.66 Q283.154 1461.2 283.154 1468.33 Q283.154 1475.44 284.96 1479.01 Q286.788 1482.55 290.399 1482.55 Q294.034 1482.55 295.839 1479.01 Q297.668 1475.44 297.668 1468.33 Q297.668 1461.2 295.839 1457.66 Q294.034 1454.1 290.399 1454.1 M290.399 1450.39 Q296.21 1450.39 299.265 1455 Q302.344 1459.58 302.344 1468.33 Q302.344 1477.06 299.265 1481.67 Q296.21 1486.25 290.399 1486.25 Q284.589 1486.25 281.511 1481.67 Q278.455 1477.06 278.455 1468.33 Q278.455 1459.58 281.511 1455 Q284.589 1450.39 290.399 1450.39 Z" fill="#000000" fill-rule="nonzero" fill-opacity="1"></path><path clip-path="url(#clip310)" d="M754.178 1481.64 L770.498 1481.64 L770.498 1485.58 L748.553 1485.58 L748.553 1481.64 Q751.215 1478.89 755.799 1474.26 Q760.405 1469.61 761.586 1468.27 Q763.831 1465.74 764.711 1464.01 Q765.613 1462.25 765.613 1460.56 Q765.613 1457.8 763.669 1456.07 Q761.748 1454.33 758.646 1454.33 Q756.447 1454.33 753.993 1455.09 Q751.562 1455.86 748.785 1457.41 L748.785 1452.69 Q751.609 1451.55 754.062 1450.97 Q756.516 1450.39 758.553 1450.39 Q763.923 1450.39 767.118 1453.08 Q770.312 1455.77 770.312 1460.26 Q770.312 1462.39 769.502 1464.31 Q768.715 1466.2 766.609 1468.8 Q766.03 1469.47 762.928 1472.69 Q759.826 1475.88 754.178 1481.64 Z" fill="#000000" fill-rule="nonzero" fill-opacity="1"></path><path clip-path="url(#clip310)" d="M780.359 1451.02 L798.715 1451.02 L798.715 1454.96 L784.641 1454.96 L784.641 1463.43 Q785.659 1463.08 786.678 1462.92 Q787.696 1462.73 788.715 1462.73 Q794.502 1462.73 797.882 1465.9 Q801.261 1469.08 801.261 1474.49 Q801.261 1480.07 797.789 1483.17 Q794.317 1486.25 787.997 1486.25 Q785.822 1486.25 783.553 1485.88 Q781.308 1485.51 778.9 1484.77 L778.9 1480.07 Q780.984 1481.2 783.206 1481.76 Q785.428 1482.32 787.905 1482.32 Q791.909 1482.32 794.247 1480.21 Q796.585 1478.1 796.585 1474.49 Q796.585 1470.88 794.247 1468.77 Q791.909 1466.67 787.905 1466.67 Q786.03 1466.67 784.155 1467.08 Q782.303 1467.5 780.359 1468.38 L780.359 1451.02 Z" fill="#000000" fill-rule="nonzero" fill-opacity="1"></path><path clip-path="url(#clip310)" d="M820.474 1454.1 Q816.863 1454.1 815.034 1457.66 Q813.229 1461.2 813.229 1468.33 Q813.229 1475.44 815.034 1479.01 Q816.863 1482.55 820.474 1482.55 Q824.108 1482.55 825.914 1479.01 Q827.743 1475.44 827.743 1468.33 Q827.743 1461.2 825.914 1457.66 Q824.108 1454.1 820.474 1454.1 M820.474 1450.39 Q826.284 1450.39 829.34 1455 Q832.418 1459.58 832.418 1468.33 Q832.418 1477.06 829.34 1481.67 Q826.284 1486.25 820.474 1486.25 Q814.664 1486.25 811.585 1481.67 Q808.53 1477.06 808.53 1468.33 Q808.53 1459.58 811.585 1455 Q814.664 1450.39 820.474 1450.39 Z" fill="#000000" fill-rule="nonzero" fill-opacity="1"></path><path clip-path="url(#clip310)" d="M1250.19 1451.02 L1268.55 1451.02 L1268.55 1454.96 L1254.47 1454.96 L1254.47 1463.43 Q1255.49 1463.08 1256.51 1462.92 Q1257.53 1462.73 1258.55 1462.73 Q1264.33 1462.73 1267.71 1465.9 Q1271.09 1469.08 1271.09 1474.49 Q1271.09 1480.07 1267.62 1483.17 Q1264.15 1486.25 1257.83 1486.25 Q1255.65 1486.25 1253.38 1485.88 Q1251.14 1485.51 1248.73 1484.77 L1248.73 1480.07 Q1250.82 1481.2 1253.04 1481.76 Q1255.26 1482.32 1257.74 1482.32 Q1261.74 1482.32 1264.08 1480.21 Q1266.42 1478.1 1266.42 1474.49 Q1266.42 1470.88 1264.08 1468.77 Q1261.74 1466.67 1257.74 1466.67 Q1255.86 1466.67 1253.99 1467.08 Q1252.13 1467.5 1250.19 1468.38 L1250.19 1451.02 Z" fill="#000000" fill-rule="nonzero" fill-opacity="1"></path><path clip-path="url(#clip310)" d="M1290.31 1454.1 Q1286.69 1454.1 1284.87 1457.66 Q1283.06 1461.2 1283.06 1468.33 Q1283.06 1475.44 1284.87 1479.01 Q1286.69 1482.55 1290.31 1482.55 Q1293.94 1482.55 1295.75 1479.01 Q1297.57 1475.44 1297.57 1468.33 Q1297.57 1461.2 1295.75 1457.66 Q1293.94 1454.1 1290.31 1454.1 M1290.31 1450.39 Q1296.12 1450.39 1299.17 1455 Q1302.25 1459.58 1302.25 1468.33 Q1302.25 1477.06 1299.17 1481.67 Q1296.12 1486.25 1290.31 1486.25 Q1284.5 1486.25 1281.42 1481.67 Q1278.36 1477.06 1278.36 1468.33 Q1278.36 1459.58 1281.42 1455 Q1284.5 1450.39 1290.31 1450.39 Z" fill="#000000" fill-rule="nonzero" fill-opacity="1"></path><path clip-path="url(#clip310)" d="M1320.47 1454.1 Q1316.86 1454.1 1315.03 1457.66 Q1313.22 1461.2 1313.22 1468.33 Q1313.22 1475.44 1315.03 1479.01 Q1316.86 1482.55 1320.47 1482.55 Q1324.1 1482.55 1325.91 1479.01 Q1327.74 1475.44 1327.74 1468.33 Q1327.74 1461.2 1325.91 1457.66 Q1324.1 1454.1 1320.47 1454.1 M1320.47 1450.39 Q1326.28 1450.39 1329.33 1455 Q1332.41 1459.58 1332.41 1468.33 Q1332.41 1477.06 1329.33 1481.67 Q1326.28 1486.25 1320.47 1486.25 Q1314.66 1486.25 1311.58 1481.67 Q1308.52 1477.06 1308.52 1468.33 Q1308.52 1459.58 1311.58 1455 Q1314.66 1450.39 1320.47 1450.39 Z" fill="#000000" fill-rule="nonzero" fill-opacity="1"></path><path clip-path="url(#clip310)" d="M1748.93 1451.02 L1771.16 1451.02 L1771.16 1453.01 L1758.61 1485.58 L1753.73 1485.58 L1765.53 1454.96 L1748.93 1454.96 L1748.93 1451.02 Z" fill="#000000" fill-rule="nonzero" fill-opacity="1"></path><path clip-path="url(#clip310)" d="M1780.32 1451.02 L1798.68 1451.02 L1798.68 1454.96 L1784.61 1454.96 L1784.61 1463.43 Q1785.62 1463.08 1786.64 1462.92 Q1787.66 1462.73 1788.68 1462.73 Q1794.47 1462.73 1797.85 1465.9 Q1801.23 1469.08 1801.23 1474.49 Q1801.23 1480.07 1797.75 1483.17 Q1794.28 1486.25 1787.96 1486.25 Q1785.79 1486.25 1783.52 1485.88 Q1781.27 1485.51 1778.86 1484.77 L1778.86 1480.07 Q1780.95 1481.2 1783.17 1481.76 Q1785.39 1482.32 1787.87 1482.32 Q1791.87 1482.32 1794.21 1480.21 Q1796.55 1478.1 1796.55 1474.49 Q1796.55 1470.88 1794.21 1468.77 Q1791.87 1466.67 1787.87 1466.67 Q1785.99 1466.67 1784.12 1467.08 Q1782.27 1467.5 1780.32 1468.38 L1780.32 1451.02 Z" fill="#000000" fill-rule="nonzero" fill-opacity="1"></path><path clip-path="url(#clip310)" d="M1820.44 1454.1 Q1816.83 1454.1 1815 1457.66 Q1813.19 1461.2 1813.19 1468.33 Q1813.19 1475.44 1815 1479.01 Q1816.83 1482.55 1820.44 1482.55 Q1824.07 1482.55 1825.88 1479.01 Q1827.71 1475.44 1827.71 1468.33 Q1827.71 1461.2 1825.88 1457.66 Q1824.07 1454.1 1820.44 1454.1 M1820.44 1450.39 Q1826.25 1450.39 1829.3 1455 Q1832.38 1459.58 1832.38 1468.33 Q1832.38 1477.06 1829.3 1481.67 Q1826.25 1486.25 1820.44 1486.25 Q1814.63 1486.25 1811.55 1481.67 Q1808.49 1477.06 1808.49 1468.33 Q1808.49 1459.58 1811.55 1455 Q1814.63 1450.39 1820.44 1450.39 Z" fill="#000000" fill-rule="nonzero" fill-opacity="1"></path><path clip-path="url(#clip310)" d="M2235.27 1481.64 L2242.91 1481.64 L2242.91 1455.28 L2234.6 1456.95 L2234.6 1452.69 L2242.86 1451.02 L2247.54 1451.02 L2247.54 1481.64 L2255.18 1481.64 L2255.18 1485.58 L2235.27 1485.58 L2235.27 1481.64 Z" fill="#000000" fill-rule="nonzero" fill-opacity="1"></path><path clip-path="url(#clip310)" d="M2274.62 1454.1 Q2271.01 1454.1 2269.18 1457.66 Q2267.38 1461.2 2267.38 1468.33 Q2267.38 1475.44 2269.18 1479.01 Q2271.01 1482.55 2274.62 1482.55 Q2278.26 1482.55 2280.06 1479.01 Q2281.89 1475.44 2281.89 1468.33 Q2281.89 1461.2 2280.06 1457.66 Q2278.26 1454.1 2274.62 1454.1 M2274.62 1450.39 Q2280.43 1450.39 2283.49 1455 Q2286.57 1459.58 2286.57 1468.33 Q2286.57 1477.06 2283.49 1481.67 Q2280.43 1486.25 2274.62 1486.25 Q2268.81 1486.25 2265.73 1481.67 Q2262.68 1477.06 2262.68 1468.33 Q2262.68 1459.58 2265.73 1455 Q2268.81 1450.39 2274.62 1450.39 Z" fill="#000000" fill-rule="nonzero" fill-opacity="1"></path><path clip-path="url(#clip310)" d="M2304.78 1454.1 Q2301.17 1454.1 2299.34 1457.66 Q2297.54 1461.2 2297.54 1468.33 Q2297.54 1475.44 2299.34 1479.01 Q2301.17 1482.55 2304.78 1482.55 Q2308.42 1482.55 2310.22 1479.01 Q2312.05 1475.44 2312.05 1468.33 Q2312.05 1461.2 2310.22 1457.66 Q2308.42 1454.1 2304.78 1454.1 M2304.78 1450.39 Q2310.59 1450.39 2313.65 1455 Q2316.73 1459.58 2316.73 1468.33 Q2316.73 1477.06 2313.65 1481.67 Q2310.59 1486.25 2304.78 1486.25 Q2298.97 1486.25 2295.9 1481.67 Q2292.84 1477.06 2292.84 1468.33 Q2292.84 1459.58 2295.9 1455 Q2298.97 1450.39 2304.78 1450.39 Z" fill="#000000" fill-rule="nonzero" fill-opacity="1"></path><path clip-path="url(#clip310)" d="M2334.95 1454.1 Q2331.34 1454.1 2329.51 1457.66 Q2327.7 1461.2 2327.7 1468.33 Q2327.7 1475.44 2329.51 1479.01 Q2331.34 1482.55 2334.95 1482.55 Q2338.58 1482.55 2340.39 1479.01 Q2342.21 1475.44 2342.21 1468.33 Q2342.21 1461.2 2340.39 1457.66 Q2338.58 1454.1 2334.95 1454.1 M2334.95 1450.39 Q2340.76 1450.39 2343.81 1455 Q2346.89 1459.58 2346.89 1468.33 Q2346.89 1477.06 2343.81 1481.67 Q2340.76 1486.25 2334.95 1486.25 Q2329.14 1486.25 2326.06 1481.67 Q2323 1477.06 2323 1468.33 Q2323 1459.58 2326.06 1455 Q2329.14 1450.39 2334.95 1450.39 Z" fill="#000000" fill-rule="nonzero" fill-opacity="1"></path><path clip-path="url(#clip310)" d="M1231.73 1522.27 L1231.73 1532.4 L1243.8 1532.4 L1243.8 1536.95 L1231.73 1536.95 L1231.73 1556.3 Q1231.73 1560.66 1232.91 1561.9 Q1234.12 1563.14 1237.78 1563.14 L1243.8 1563.14 L1243.8 1568.04 L1237.78 1568.04 Q1231 1568.04 1228.42 1565.53 Q1225.84 1562.98 1225.84 1556.3 L1225.84 1536.95 L1221.55 1536.95 L1221.55 1532.4 L1225.84 1532.4 L1225.84 1522.27 L1231.73 1522.27 Z" fill="#000000" fill-rule="nonzero" fill-opacity="1"></path><path clip-path="url(#clip310)" d="M1251.5 1532.4 L1257.35 1532.4 L1257.35 1568.04 L1251.5 1568.04 L1251.5 1532.4 M1251.5 1518.52 L1257.35 1518.52 L1257.35 1525.93 L1251.5 1525.93 L1251.5 1518.52 Z" fill="#000000" fill-rule="nonzero" fill-opacity="1"></path><path clip-path="url(#clip310)" d="M1297.36 1539.24 Q1299.56 1535.29 1302.61 1533.41 Q1305.67 1531.54 1309.81 1531.54 Q1315.38 1531.54 1318.4 1535.45 Q1321.43 1539.33 1321.43 1546.53 L1321.43 1568.04 L1315.54 1568.04 L1315.54 1546.72 Q1315.54 1541.59 1313.72 1539.11 Q1311.91 1536.63 1308.18 1536.63 Q1303.63 1536.63 1300.99 1539.65 Q1298.35 1542.68 1298.35 1547.9 L1298.35 1568.04 L1292.46 1568.04 L1292.46 1546.72 Q1292.46 1541.56 1290.65 1539.11 Q1288.83 1536.63 1285.05 1536.63 Q1280.56 1536.63 1277.92 1539.68 Q1275.27 1542.71 1275.27 1547.9 L1275.27 1568.04 L1269.39 1568.04 L1269.39 1532.4 L1275.27 1532.4 L1275.27 1537.93 Q1277.28 1534.66 1280.08 1533.1 Q1282.88 1531.54 1286.73 1531.54 Q1290.62 1531.54 1293.32 1533.51 Q1296.06 1535.48 1297.36 1539.24 Z" fill="#000000" fill-rule="nonzero" fill-opacity="1"></path><path clip-path="url(#clip310)" d="M1363.6 1548.76 L1363.6 1551.62 L1336.67 1551.62 Q1337.05 1557.67 1340.3 1560.85 Q1343.58 1564 1349.4 1564 Q1352.78 1564 1355.93 1563.17 Q1359.11 1562.35 1362.23 1560.69 L1362.23 1566.23 Q1359.08 1567.57 1355.77 1568.27 Q1352.46 1568.97 1349.05 1568.97 Q1340.52 1568.97 1335.53 1564 Q1330.56 1559.04 1330.56 1550.57 Q1330.56 1541.82 1335.27 1536.69 Q1340.01 1531.54 1348.03 1531.54 Q1355.23 1531.54 1359.4 1536.18 Q1363.6 1540.8 1363.6 1548.76 M1357.74 1547.04 Q1357.68 1542.23 1355.04 1539.37 Q1352.43 1536.5 1348.1 1536.5 Q1343.2 1536.5 1340.24 1539.27 Q1337.31 1542.04 1336.86 1547.07 L1357.74 1547.04 Z" fill="#000000" fill-rule="nonzero" fill-opacity="1"></path><polyline clip-path="url(#clip310)" style="stroke:#000000; stroke-linecap:round; stroke-linejoin:round; stroke-width:4; stroke-opacity:1; fill:none" points="232.389,1423.18 232.389,123.472 "></polyline>
<polyline clip-path="url(#clip310)" style="stroke:#000000; stroke-linecap:round; stroke-linejoin:round; stroke-width:4; stroke-opacity:1; fill:none" points="232.389,1386.4 251.287,1386.4 "></polyline>
<polyline clip-path="url(#clip310)" style="stroke:#000000; stroke-linecap:round; stroke-linejoin:round; stroke-width:4; stroke-opacity:1; fill:none" points="232.389,995.905 251.287,995.905 "></polyline>
<polyline clip-path="url(#clip310)" style="stroke:#000000; stroke-linecap:round; stroke-linejoin:round; stroke-width:4; stroke-opacity:1; fill:none" points="232.389,605.415 251.287,605.415 "></polyline>
<polyline clip-path="url(#clip310)" style="stroke:#000000; stroke-linecap:round; stroke-linejoin:round; stroke-width:4; stroke-opacity:1; fill:none" points="232.389,214.925 251.287,214.925 "></polyline>
<path clip-path="url(#clip310)" d="M184.445 1372.19 Q180.834 1372.19 179.005 1375.76 Q177.2 1379.3 177.2 1386.43 Q177.2 1393.54 179.005 1397.1 Q180.834 1400.64 184.445 1400.64 Q188.079 1400.64 189.885 1397.1 Q191.713 1393.54 191.713 1386.43 Q191.713 1379.3 189.885 1375.76 Q188.079 1372.19 184.445 1372.19 M184.445 1368.49 Q190.255 1368.49 193.311 1373.1 Q196.389 1377.68 196.389 1386.43 Q196.389 1395.16 193.311 1399.76 Q190.255 1404.35 184.445 1404.35 Q178.635 1404.35 175.556 1399.76 Q172.501 1395.16 172.501 1386.43 Q172.501 1377.68 175.556 1373.1 Q178.635 1368.49 184.445 1368.49 Z" fill="#000000" fill-rule="nonzero" fill-opacity="1"></path><path clip-path="url(#clip310)" d="M144.329 978.625 L162.686 978.625 L162.686 982.561 L148.612 982.561 L148.612 991.033 Q149.63 990.686 150.649 990.524 Q151.667 990.338 152.686 990.338 Q158.473 990.338 161.852 993.51 Q165.232 996.681 165.232 1002.1 Q165.232 1007.68 161.76 1010.78 Q158.288 1013.86 151.968 1013.86 Q149.792 1013.86 147.524 1013.49 Q145.279 1013.12 142.871 1012.38 L142.871 1007.68 Q144.954 1008.81 147.177 1009.37 Q149.399 1009.92 151.876 1009.92 Q155.88 1009.92 158.218 1007.82 Q160.556 1005.71 160.556 1002.1 Q160.556 998.486 158.218 996.38 Q155.88 994.273 151.876 994.273 Q150.001 994.273 148.126 994.69 Q146.274 995.107 144.329 995.986 L144.329 978.625 Z" fill="#000000" fill-rule="nonzero" fill-opacity="1"></path><path clip-path="url(#clip310)" d="M184.445 981.704 Q180.834 981.704 179.005 985.269 Q177.2 988.811 177.2 995.94 Q177.2 1003.05 179.005 1006.61 Q180.834 1010.15 184.445 1010.15 Q188.079 1010.15 189.885 1006.61 Q191.713 1003.05 191.713 995.94 Q191.713 988.811 189.885 985.269 Q188.079 981.704 184.445 981.704 M184.445 978 Q190.255 978 193.311 982.607 Q196.389 987.19 196.389 995.94 Q196.389 1004.67 193.311 1009.27 Q190.255 1013.86 184.445 1013.86 Q178.635 1013.86 175.556 1009.27 Q172.501 1004.67 172.501 995.94 Q172.501 987.19 175.556 982.607 Q178.635 978 184.445 978 Z" fill="#000000" fill-rule="nonzero" fill-opacity="1"></path><path clip-path="url(#clip310)" d="M114.931 618.76 L122.57 618.76 L122.57 592.394 L114.26 594.061 L114.26 589.802 L122.524 588.135 L127.2 588.135 L127.2 618.76 L134.839 618.76 L134.839 622.695 L114.931 622.695 L114.931 618.76 Z" fill="#000000" fill-rule="nonzero" fill-opacity="1"></path><path clip-path="url(#clip310)" d="M154.283 591.214 Q150.672 591.214 148.843 594.779 Q147.038 598.32 147.038 605.45 Q147.038 612.556 148.843 616.121 Q150.672 619.663 154.283 619.663 Q157.917 619.663 159.723 616.121 Q161.552 612.556 161.552 605.45 Q161.552 598.32 159.723 594.779 Q157.917 591.214 154.283 591.214 M154.283 587.51 Q160.093 587.51 163.149 592.117 Q166.227 596.7 166.227 605.45 Q166.227 614.177 163.149 618.783 Q160.093 623.366 154.283 623.366 Q148.473 623.366 145.394 618.783 Q142.339 614.177 142.339 605.45 Q142.339 596.7 145.394 592.117 Q148.473 587.51 154.283 587.51 Z" fill="#000000" fill-rule="nonzero" fill-opacity="1"></path><path clip-path="url(#clip310)" d="M184.445 591.214 Q180.834 591.214 179.005 594.779 Q177.2 598.32 177.2 605.45 Q177.2 612.556 179.005 616.121 Q180.834 619.663 184.445 619.663 Q188.079 619.663 189.885 616.121 Q191.713 612.556 191.713 605.45 Q191.713 598.32 189.885 594.779 Q188.079 591.214 184.445 591.214 M184.445 587.51 Q190.255 587.51 193.311 592.117 Q196.389 596.7 196.389 605.45 Q196.389 614.177 193.311 618.783 Q190.255 623.366 184.445 623.366 Q178.635 623.366 175.556 618.783 Q172.501 614.177 172.501 605.45 Q172.501 596.7 175.556 592.117 Q178.635 587.51 184.445 587.51 Z" fill="#000000" fill-rule="nonzero" fill-opacity="1"></path><path clip-path="url(#clip310)" d="M114.931 228.27 L122.57 228.27 L122.57 201.904 L114.26 203.571 L114.26 199.312 L122.524 197.645 L127.2 197.645 L127.2 228.27 L134.839 228.27 L134.839 232.205 L114.931 232.205 L114.931 228.27 Z" fill="#000000" fill-rule="nonzero" fill-opacity="1"></path><path clip-path="url(#clip310)" d="M144.329 197.645 L162.686 197.645 L162.686 201.58 L148.612 201.58 L148.612 210.052 Q149.63 209.705 150.649 209.543 Q151.667 209.358 152.686 209.358 Q158.473 209.358 161.852 212.529 Q165.232 215.7 165.232 221.117 Q165.232 226.696 161.76 229.798 Q158.288 232.876 151.968 232.876 Q149.792 232.876 147.524 232.506 Q145.279 232.135 142.871 231.395 L142.871 226.696 Q144.954 227.83 147.177 228.386 Q149.399 228.941 151.876 228.941 Q155.88 228.941 158.218 226.835 Q160.556 224.728 160.556 221.117 Q160.556 217.506 158.218 215.399 Q155.88 213.293 151.876 213.293 Q150.001 213.293 148.126 213.71 Q146.274 214.126 144.329 215.006 L144.329 197.645 Z" fill="#000000" fill-rule="nonzero" fill-opacity="1"></path><path clip-path="url(#clip310)" d="M184.445 200.724 Q180.834 200.724 179.005 204.288 Q177.2 207.83 177.2 214.96 Q177.2 222.066 179.005 225.631 Q180.834 229.173 184.445 229.173 Q188.079 229.173 189.885 225.631 Q191.713 222.066 191.713 214.96 Q191.713 207.83 189.885 204.288 Q188.079 200.724 184.445 200.724 M184.445 197.02 Q190.255 197.02 193.311 201.626 Q196.389 206.21 196.389 214.96 Q196.389 223.686 193.311 228.293 Q190.255 232.876 184.445 232.876 Q178.635 232.876 175.556 228.293 Q172.501 223.686 172.501 214.96 Q172.501 206.21 175.556 201.626 Q178.635 197.02 184.445 197.02 Z" fill="#000000" fill-rule="nonzero" fill-opacity="1"></path><path clip-path="url(#clip310)" d="M44.7161 911.525 L47.5806 911.525 L47.5806 938.452 Q53.6281 938.07 56.8109 934.824 Q59.9619 931.546 59.9619 925.721 Q59.9619 922.347 59.1344 919.196 Q58.3069 916.013 56.6518 912.894 L62.1899 912.894 Q63.5267 916.045 64.227 919.355 Q64.9272 922.665 64.9272 926.071 Q64.9272 934.601 59.9619 939.598 Q54.9967 944.563 46.5303 944.563 Q37.7774 944.563 32.6531 939.853 Q27.4968 935.11 27.4968 927.09 Q27.4968 919.896 32.1438 915.727 Q36.7589 911.525 44.7161 911.525 M42.9973 917.382 Q38.1912 917.446 35.3266 920.087 Q32.4621 922.697 32.4621 927.026 Q32.4621 931.928 35.2312 934.888 Q38.0002 937.816 43.0292 938.261 L42.9973 917.382 Z" fill="#000000" fill-rule="nonzero" fill-opacity="1"></path><path clip-path="url(#clip310)" d="M28.3562 873.427 L45.7028 886.317 L64.0042 872.758 L64.0042 879.665 L49.9996 890.041 L64.0042 900.417 L64.0042 907.324 L45.3526 893.479 L28.3562 906.146 L28.3562 899.24 L41.0558 889.787 L28.3562 880.334 L28.3562 873.427 Z" fill="#000000" fill-rule="nonzero" fill-opacity="1"></path><path clip-path="url(#clip310)" d="M58.657 858.817 L77.5631 858.817 L77.5631 864.706 L28.3562 864.706 L28.3562 858.817 L33.7671 858.817 Q30.5842 856.971 29.0564 854.17 Q27.4968 851.338 27.4968 847.423 Q27.4968 840.93 32.6531 836.888 Q37.8093 832.814 46.212 832.814 Q54.6147 832.814 59.771 836.888 Q64.9272 840.93 64.9272 847.423 Q64.9272 851.338 63.3994 854.17 Q61.8398 856.971 58.657 858.817 M46.212 838.893 Q39.7508 838.893 36.0905 841.566 Q32.3984 844.208 32.3984 848.855 Q32.3984 853.502 36.0905 856.176 Q39.7508 858.817 46.212 858.817 Q52.6732 858.817 56.3653 856.176 Q60.0256 853.502 60.0256 848.855 Q60.0256 844.208 56.3653 841.566 Q52.6732 838.893 46.212 838.893 Z" fill="#000000" fill-rule="nonzero" fill-opacity="1"></path><path clip-path="url(#clip310)" d="M33.8307 802.449 Q33.2578 803.436 33.0032 804.613 Q32.7167 805.759 32.7167 807.16 Q32.7167 812.125 35.9632 814.799 Q39.1779 817.44 45.2253 817.44 L64.0042 817.44 L64.0042 823.329 L28.3562 823.329 L28.3562 817.44 L33.8944 817.44 Q30.6479 815.594 29.0883 812.634 Q27.4968 809.674 27.4968 805.441 Q27.4968 804.836 27.5923 804.104 Q27.656 803.372 27.8151 802.481 L33.8307 802.449 Z" fill="#000000" fill-rule="nonzero" fill-opacity="1"></path><path clip-path="url(#clip310)" d="M44.7161 767.247 L47.5806 767.247 L47.5806 794.174 Q53.6281 793.792 56.8109 790.545 Q59.9619 787.267 59.9619 781.442 Q59.9619 778.068 59.1344 774.917 Q58.3069 771.735 56.6518 768.615 L62.1899 768.615 Q63.5267 771.766 64.227 775.077 Q64.9272 778.387 64.9272 781.792 Q64.9272 790.322 59.9619 795.32 Q54.9967 800.285 46.5303 800.285 Q37.7774 800.285 32.6531 795.574 Q27.4968 790.832 27.4968 782.811 Q27.4968 775.618 32.1438 771.448 Q36.7589 767.247 44.7161 767.247 M42.9973 773.103 Q38.1912 773.167 35.3266 775.809 Q32.4621 778.419 32.4621 782.747 Q32.4621 787.649 35.2312 790.609 Q38.0002 793.537 43.0292 793.983 L42.9973 773.103 Z" fill="#000000" fill-rule="nonzero" fill-opacity="1"></path><path clip-path="url(#clip310)" d="M29.4065 734.909 L34.9447 734.909 Q33.6716 737.392 33.035 740.065 Q32.3984 742.739 32.3984 745.603 Q32.3984 749.964 33.7352 752.16 Q35.072 754.324 37.7456 754.324 Q39.7826 754.324 40.9603 752.765 Q42.1061 751.205 43.1565 746.495 L43.6021 744.489 Q44.9389 738.251 47.3897 735.641 Q49.8086 732.999 54.1691 732.999 Q59.1344 732.999 62.0308 736.946 Q64.9272 740.861 64.9272 747.736 Q64.9272 750.6 64.3543 753.72 Q63.8132 756.807 62.6992 760.244 L56.6518 760.244 Q58.3387 756.998 59.198 753.847 Q60.0256 750.696 60.0256 747.609 Q60.0256 743.471 58.6251 741.243 Q57.1929 739.015 54.6147 739.015 Q52.2276 739.015 50.9545 740.638 Q49.6813 742.23 48.5037 747.672 L48.0262 749.709 Q46.8804 755.152 44.5251 757.571 Q42.138 759.99 38.0002 759.99 Q32.9713 759.99 30.2341 756.425 Q27.4968 752.86 27.4968 746.304 Q27.4968 743.057 27.9743 740.192 Q28.4517 737.328 29.4065 734.909 Z" fill="#000000" fill-rule="nonzero" fill-opacity="1"></path><path clip-path="url(#clip310)" d="M29.4065 700.948 L34.9447 700.948 Q33.6716 703.431 33.035 706.104 Q32.3984 708.778 32.3984 711.642 Q32.3984 716.003 33.7352 718.199 Q35.072 720.363 37.7456 720.363 Q39.7826 720.363 40.9603 718.804 Q42.1061 717.244 43.1565 712.533 L43.6021 710.528 Q44.9389 704.29 47.3897 701.68 Q49.8086 699.038 54.1691 699.038 Q59.1344 699.038 62.0308 702.985 Q64.9272 706.9 64.9272 713.775 Q64.9272 716.639 64.3543 719.759 Q63.8132 722.846 62.6992 726.283 L56.6518 726.283 Q58.3387 723.037 59.198 719.886 Q60.0256 716.735 60.0256 713.647 Q60.0256 709.51 58.6251 707.282 Q57.1929 705.054 54.6147 705.054 Q52.2276 705.054 50.9545 706.677 Q49.6813 708.268 48.5037 713.711 L48.0262 715.748 Q46.8804 721.191 44.5251 723.61 Q42.138 726.029 38.0002 726.029 Q32.9713 726.029 30.2341 722.464 Q27.4968 718.899 27.4968 712.343 Q27.4968 709.096 27.9743 706.231 Q28.4517 703.367 29.4065 700.948 Z" fill="#000000" fill-rule="nonzero" fill-opacity="1"></path><path clip-path="url(#clip310)" d="M28.3562 689.712 L28.3562 683.856 L64.0042 683.856 L64.0042 689.712 L28.3562 689.712 M14.479 689.712 L14.479 683.856 L21.895 683.856 L21.895 689.712 L14.479 689.712 Z" fill="#000000" fill-rule="nonzero" fill-opacity="1"></path><path clip-path="url(#clip310)" d="M32.4621 657.788 Q32.4621 662.499 36.1542 665.236 Q39.8145 667.974 46.212 667.974 Q52.6095 667.974 56.3017 665.268 Q59.9619 662.531 59.9619 657.788 Q59.9619 653.11 56.2698 650.372 Q52.5777 647.635 46.212 647.635 Q39.8781 647.635 36.186 650.372 Q32.4621 653.11 32.4621 657.788 M27.4968 657.788 Q27.4968 650.15 32.4621 645.789 Q37.4273 641.429 46.212 641.429 Q54.9649 641.429 59.9619 645.789 Q64.9272 650.15 64.9272 657.788 Q64.9272 665.459 59.9619 669.82 Q54.9649 674.148 46.212 674.148 Q37.4273 674.148 32.4621 669.82 Q27.4968 665.459 27.4968 657.788 Z" fill="#000000" fill-rule="nonzero" fill-opacity="1"></path><path clip-path="url(#clip310)" d="M42.4881 602.088 L64.0042 602.088 L64.0042 607.945 L42.679 607.945 Q37.6183 607.945 35.1038 609.918 Q32.5894 611.892 32.5894 615.838 Q32.5894 620.581 35.6131 623.318 Q38.6368 626.055 43.8567 626.055 L64.0042 626.055 L64.0042 631.944 L28.3562 631.944 L28.3562 626.055 L33.8944 626.055 Q30.6797 623.955 29.0883 621.122 Q27.4968 618.257 27.4968 614.533 Q27.4968 608.391 31.3163 605.24 Q35.1038 602.088 42.4881 602.088 Z" fill="#000000" fill-rule="nonzero" fill-opacity="1"></path><path clip-path="url(#clip310)" d="M1031.86 28.5427 L1031.86 35.5912 Q1028.7 33.9709 1025.29 33.1607 Q1021.89 32.3505 1018.25 32.3505 Q1012.7 32.3505 1009.9 34.0519 Q1007.15 35.7533 1007.15 39.156 Q1007.15 41.7486 1009.13 43.2475 Q1011.12 44.7058 1017.11 46.0426 L1019.66 46.6097 Q1027.6 48.3111 1030.92 51.4303 Q1034.29 54.509 1034.29 60.0587 Q1034.29 66.3781 1029.26 70.0644 Q1024.28 73.7508 1015.53 73.7508 Q1011.89 73.7508 1007.92 73.0216 Q1003.99 72.3329 999.611 70.9151 L999.611 63.2184 Q1003.74 65.3654 1007.75 66.4591 Q1011.76 67.5124 1015.69 67.5124 Q1020.96 67.5124 1023.8 65.73 Q1026.63 63.9071 1026.63 60.6258 Q1026.63 57.5877 1024.56 55.9673 Q1022.54 54.3469 1015.61 52.8481 L1013.02 52.2405 Q1006.09 50.7821 1003.01 47.7845 Q999.935 44.7463 999.935 39.4801 Q999.935 33.0797 1004.47 29.5959 Q1009.01 26.1121 1017.35 26.1121 Q1021.49 26.1121 1025.13 26.7198 Q1028.78 27.3274 1031.86 28.5427 Z" fill="#000000" fill-rule="nonzero" fill-opacity="1"></path><path clip-path="url(#clip310)" d="M1084.96 48.0275 L1084.96 51.6733 L1050.69 51.6733 Q1051.18 59.3701 1055.31 63.421 Q1059.48 67.4314 1066.9 67.4314 Q1071.19 67.4314 1075.2 66.3781 Q1079.25 65.3249 1083.22 63.2184 L1083.22 70.267 Q1079.21 71.9684 1075 72.8596 Q1070.79 73.7508 1066.45 73.7508 Q1055.59 73.7508 1049.23 67.4314 Q1042.92 61.1119 1042.92 50.3365 Q1042.92 39.1965 1048.91 32.6746 Q1054.95 26.1121 1065.15 26.1121 Q1074.31 26.1121 1079.62 32.0264 Q1084.96 37.9003 1084.96 48.0275 M1077.51 45.84 Q1077.43 39.7232 1074.07 36.0774 Q1070.75 32.4315 1065.24 32.4315 Q1059 32.4315 1055.23 35.9558 Q1051.5 39.4801 1050.94 45.8805 L1077.51 45.84 Z" fill="#000000" fill-rule="nonzero" fill-opacity="1"></path><path clip-path="url(#clip310)" d="M1129.85 28.9478 L1129.85 35.9153 Q1126.69 34.1734 1123.49 33.3227 Q1120.33 32.4315 1117.09 32.4315 Q1109.84 32.4315 1105.83 37.0496 Q1101.82 41.6271 1101.82 49.9314 Q1101.82 58.2358 1105.83 62.8538 Q1109.84 67.4314 1117.09 67.4314 Q1120.33 67.4314 1123.49 66.5807 Q1126.69 65.6895 1129.85 63.9476 L1129.85 70.8341 Q1126.73 72.2924 1123.37 73.0216 Q1120.04 73.7508 1116.28 73.7508 Q1106.03 73.7508 1099.99 67.3098 Q1093.96 60.8689 1093.96 49.9314 Q1093.96 38.832 1100.03 32.472 Q1106.15 26.1121 1116.76 26.1121 Q1120.21 26.1121 1123.49 26.8413 Q1126.77 27.5299 1129.85 28.9478 Z" fill="#000000" fill-rule="nonzero" fill-opacity="1"></path><path clip-path="url(#clip310)" d="M1160.39 32.4315 Q1154.4 32.4315 1150.91 37.1306 Q1147.43 41.7891 1147.43 49.9314 Q1147.43 58.0738 1150.87 62.7728 Q1154.36 67.4314 1160.39 67.4314 Q1166.35 67.4314 1169.83 62.7323 Q1173.31 58.0333 1173.31 49.9314 Q1173.31 41.8701 1169.83 37.1711 Q1166.35 32.4315 1160.39 32.4315 M1160.39 26.1121 Q1170.11 26.1121 1175.66 32.4315 Q1181.21 38.7509 1181.21 49.9314 Q1181.21 61.0714 1175.66 67.4314 Q1170.11 73.7508 1160.39 73.7508 Q1150.63 73.7508 1145.08 67.4314 Q1139.57 61.0714 1139.57 49.9314 Q1139.57 38.7509 1145.08 32.4315 Q1150.63 26.1121 1160.39 26.1121 Z" fill="#000000" fill-rule="nonzero" fill-opacity="1"></path><path clip-path="url(#clip310)" d="M1231.28 45.1919 L1231.28 72.576 L1223.83 72.576 L1223.83 45.4349 Q1223.83 38.994 1221.32 35.7938 Q1218.81 32.5936 1213.78 32.5936 Q1207.75 32.5936 1204.26 36.4419 Q1200.78 40.2903 1200.78 46.9338 L1200.78 72.576 L1193.28 72.576 L1193.28 27.2059 L1200.78 27.2059 L1200.78 34.2544 Q1203.45 30.163 1207.06 28.1376 Q1210.7 26.1121 1215.44 26.1121 Q1223.26 26.1121 1227.27 30.9732 Q1231.28 35.7938 1231.28 45.1919 Z" fill="#000000" fill-rule="nonzero" fill-opacity="1"></path><path clip-path="url(#clip310)" d="M1276 34.0924 L1276 9.54393 L1283.46 9.54393 L1283.46 72.576 L1276 72.576 L1276 65.7705 Q1273.65 69.8214 1270.05 71.8063 Q1266.48 73.7508 1261.46 73.7508 Q1253.24 73.7508 1248.05 67.1883 Q1242.91 60.6258 1242.91 49.9314 Q1242.91 39.2371 1248.05 32.6746 Q1253.24 26.1121 1261.46 26.1121 Q1266.48 26.1121 1270.05 28.0971 Q1273.65 30.0415 1276 34.0924 M1250.61 49.9314 Q1250.61 58.1548 1253.97 62.8538 Q1257.37 67.5124 1263.28 67.5124 Q1269.2 67.5124 1272.6 62.8538 Q1276 58.1548 1276 49.9314 Q1276 41.7081 1272.6 37.0496 Q1269.2 32.3505 1263.28 32.3505 Q1257.37 32.3505 1253.97 37.0496 Q1250.61 41.7081 1250.61 49.9314 Z" fill="#000000" fill-rule="nonzero" fill-opacity="1"></path><path clip-path="url(#clip310)" d="M1355.04 34.0924 L1355.04 9.54393 L1362.49 9.54393 L1362.49 72.576 L1355.04 72.576 L1355.04 65.7705 Q1352.69 69.8214 1349.08 71.8063 Q1345.52 73.7508 1340.49 73.7508 Q1332.27 73.7508 1327.09 67.1883 Q1321.94 60.6258 1321.94 49.9314 Q1321.94 39.2371 1327.09 32.6746 Q1332.27 26.1121 1340.49 26.1121 Q1345.52 26.1121 1349.08 28.0971 Q1352.69 30.0415 1355.04 34.0924 M1329.64 49.9314 Q1329.64 58.1548 1333 62.8538 Q1336.4 67.5124 1342.32 67.5124 Q1348.23 67.5124 1351.63 62.8538 Q1355.04 58.1548 1355.04 49.9314 Q1355.04 41.7081 1351.63 37.0496 Q1348.23 32.3505 1342.32 32.3505 Q1336.4 32.3505 1333 37.0496 Q1329.64 41.7081 1329.64 49.9314 Z" fill="#000000" fill-rule="nonzero" fill-opacity="1"></path><path clip-path="url(#clip310)" d="M1416.65 48.0275 L1416.65 51.6733 L1382.38 51.6733 Q1382.87 59.3701 1387 63.421 Q1391.17 67.4314 1398.58 67.4314 Q1402.88 67.4314 1406.89 66.3781 Q1410.94 65.3249 1414.91 63.2184 L1414.91 70.267 Q1410.9 71.9684 1406.69 72.8596 Q1402.47 73.7508 1398.14 73.7508 Q1387.28 73.7508 1380.92 67.4314 Q1374.6 61.1119 1374.6 50.3365 Q1374.6 39.1965 1380.6 32.6746 Q1386.63 26.1121 1396.84 26.1121 Q1406 26.1121 1411.3 32.0264 Q1416.65 37.9003 1416.65 48.0275 M1409.2 45.84 Q1409.12 39.7232 1405.75 36.0774 Q1402.43 32.4315 1396.92 32.4315 Q1390.69 32.4315 1386.92 35.9558 Q1383.19 39.4801 1382.62 45.8805 L1409.2 45.84 Z" fill="#000000" fill-rule="nonzero" fill-opacity="1"></path><path clip-path="url(#clip310)" d="M1457.81 28.5427 L1457.81 35.5912 Q1454.65 33.9709 1451.25 33.1607 Q1447.84 32.3505 1444.2 32.3505 Q1438.65 32.3505 1435.85 34.0519 Q1433.1 35.7533 1433.1 39.156 Q1433.1 41.7486 1435.08 43.2475 Q1437.07 44.7058 1443.06 46.0426 L1445.62 46.6097 Q1453.56 48.3111 1456.88 51.4303 Q1460.24 54.509 1460.24 60.0587 Q1460.24 66.3781 1455.22 70.0644 Q1450.23 73.7508 1441.48 73.7508 Q1437.84 73.7508 1433.87 73.0216 Q1429.94 72.3329 1425.56 70.9151 L1425.56 63.2184 Q1429.7 65.3654 1433.71 66.4591 Q1437.72 67.5124 1441.65 67.5124 Q1446.91 67.5124 1449.75 65.73 Q1452.58 63.9071 1452.58 60.6258 Q1452.58 57.5877 1450.52 55.9673 Q1448.49 54.3469 1441.56 52.8481 L1438.97 52.2405 Q1432.05 50.7821 1428.97 47.7845 Q1425.89 44.7463 1425.89 39.4801 Q1425.89 33.0797 1430.42 29.5959 Q1434.96 26.1121 1443.31 26.1121 Q1447.44 26.1121 1451.08 26.7198 Q1454.73 27.3274 1457.81 28.5427 Z" fill="#000000" fill-rule="nonzero" fill-opacity="1"></path><path clip-path="url(#clip310)" d="M1472.11 27.2059 L1479.56 27.2059 L1479.56 72.576 L1472.11 72.576 L1472.11 27.2059 M1472.11 9.54393 L1479.56 9.54393 L1479.56 18.9825 L1472.11 18.9825 L1472.11 9.54393 Z" fill="#000000" fill-rule="nonzero" fill-opacity="1"></path><path clip-path="url(#clip310)" d="M1525.01 49.3643 Q1525.01 41.2625 1521.65 36.8065 Q1518.33 32.3505 1512.29 32.3505 Q1506.3 32.3505 1502.94 36.8065 Q1499.61 41.2625 1499.61 49.3643 Q1499.61 57.4256 1502.94 61.8816 Q1506.3 66.3376 1512.29 66.3376 Q1518.33 66.3376 1521.65 61.8816 Q1525.01 57.4256 1525.01 49.3643 M1532.47 66.9452 Q1532.47 78.5308 1527.32 84.1616 Q1522.18 89.8329 1511.56 89.8329 Q1507.64 89.8329 1504.15 89.2252 Q1500.67 88.6581 1497.39 87.4428 L1497.39 80.1917 Q1500.67 81.9741 1503.87 82.8248 Q1507.07 83.6755 1510.39 83.6755 Q1517.72 83.6755 1521.37 79.8271 Q1525.01 76.0193 1525.01 68.282 L1525.01 64.5957 Q1522.7 68.6061 1519.1 70.5911 Q1515.49 72.576 1510.47 72.576 Q1502.13 72.576 1497.02 66.2161 Q1491.92 59.8562 1491.92 49.3643 Q1491.92 38.832 1497.02 32.472 Q1502.13 26.1121 1510.47 26.1121 Q1515.49 26.1121 1519.1 28.0971 Q1522.7 30.082 1525.01 34.0924 L1525.01 27.2059 L1532.47 27.2059 L1532.47 66.9452 Z" fill="#000000" fill-rule="nonzero" fill-opacity="1"></path><path clip-path="url(#clip310)" d="M1585.53 45.1919 L1585.53 72.576 L1578.08 72.576 L1578.08 45.4349 Q1578.08 38.994 1575.57 35.7938 Q1573.06 32.5936 1568.03 32.5936 Q1562 32.5936 1558.51 36.4419 Q1555.03 40.2903 1555.03 46.9338 L1555.03 72.576 L1547.54 72.576 L1547.54 27.2059 L1555.03 27.2059 L1555.03 34.2544 Q1557.7 30.163 1561.31 28.1376 Q1564.96 26.1121 1569.69 26.1121 Q1577.51 26.1121 1581.52 30.9732 Q1585.53 35.7938 1585.53 45.1919 Z" fill="#000000" fill-rule="nonzero" fill-opacity="1"></path><polyline clip-path="url(#clip312)" style="stroke:#009af9; stroke-linecap:round; stroke-linejoin:round; stroke-width:4; stroke-opacity:1; fill:none" points="292.4,1378.59 294.4,1378.59 296.4,1378.59 298.401,1386.4 300.401,1386.4 302.401,1386.4 304.402,1378.59 306.402,1378.59 308.402,1378.59 310.403,1378.59 312.403,1378.59 314.404,1378.59 316.404,1378.59 318.404,1378.59 320.405,1378.59 322.405,1378.59 324.405,1378.59 326.406,1378.59 328.406,1370.78 330.406,1370.78 332.407,1362.97 334.407,1355.16 336.407,1347.35 338.408,1355.16 340.408,1347.35 342.408,1331.73 344.409,1300.49 346.409,1269.25 348.409,1238.01 350.41,1214.58 352.41,1175.53 354.41,1128.67 356.411,1105.24 358.411,1058.38 360.411,1019.33 362.412,1019.33 364.412,1003.72 366.413,949.047 368.413,909.998 370.413,886.568 372.414,855.329 374.414,839.709 376.414,800.66 378.415,785.041 380.415,792.85 382.415,769.421 384.416,745.992 386.416,761.611 388.416,722.562 390.417,699.133 392.417,652.274 394.417,667.894 396.418,605.415 398.418,597.605 400.418,613.225 402.419,636.654 404.419,597.605 406.419,535.127 408.42,550.747 410.42,535.127 412.42,550.747 414.421,527.317 416.421,542.937 418.422,519.507 420.422,511.698 422.422,472.648 424.423,441.409 426.423,449.219 428.423,441.409 430.424,457.029 432.424,410.17 434.424,402.36 436.425,425.79 438.425,433.599 440.425,417.98 442.426,371.121 444.426,386.741 446.426,417.98 448.427,378.931 450.427,394.55 452.427,417.98 454.428,410.17 456.428,378.931 458.428,363.311 460.429,347.692 462.429,386.741 464.429,386.741 466.43,457.029 468.43,519.507 470.43,558.556 472.431,589.796 474.431,628.845 476.432,691.323 478.432,722.562 480.432,761.611 482.433,792.85 484.433,816.28 486.433,855.329 488.434,878.758 490.434,894.378 492.434,925.617 494.435,933.427 496.435,972.476 498.435,980.286 500.436,980.286 502.436,988.096 504.436,1011.53 506.437,1027.14 508.437,1042.76 510.437,1058.38 512.438,1058.38 514.438,1066.19 516.438,1081.81 518.439,1120.86 520.439,1128.67 522.439,1144.29 524.44,1152.1 526.44,1159.91 528.441,1167.72 530.441,1167.72 532.441,1183.34 534.442,1206.77 536.442,1222.39 538.442,1230.2 540.443,1245.82 542.443,1253.63 544.443,1253.63 546.444,1277.06 548.444,1284.87 550.444,1292.68 552.445,1308.3 554.445,1308.3 556.445,1308.3 558.446,1308.3 560.446,1308.3 562.446,1316.11 564.447,1316.11 566.447,1316.11 568.447,1323.92 570.448,1323.92 572.448,1331.73 574.448,1339.54 576.449,1347.35 578.449,1347.35 580.45,1355.16 582.45,1355.16 584.45,1355.16 586.451,1355.16 588.451,1355.16 590.451,1355.16 592.452,1355.16 594.452,1355.16 596.452,1362.97 598.453,1362.97 600.453,1355.16 602.453,1355.16 604.454,1355.16 606.454,1355.16 608.454,1355.16 610.455,1355.16 612.455,1355.16 614.455,1355.16 616.456,1355.16 618.456,1355.16 620.456,1355.16 622.457,1355.16 624.457,1355.16 626.457,1355.16 628.458,1355.16 630.458,1355.16 632.459,1362.97 634.459,1362.97 636.459,1362.97 638.46,1362.97 640.46,1362.97 642.46,1362.97 644.461,1362.97 646.461,1362.97 648.461,1362.97 650.462,1370.78 652.462,1370.78 654.462,1370.78 656.463,1378.59 658.463,1378.59 660.463,1378.59 662.464,1378.59 664.464,1378.59 666.464,1378.59 668.465,1378.59 670.465,1378.59 672.465,1378.59 674.466,1378.59 676.466,1378.59 678.466,1378.59 680.467,1378.59 682.467,1378.59 684.468,1378.59 686.468,1378.59 688.468,1378.59 690.469,1378.59 692.469,1378.59 694.469,1378.59 696.47,1386.4 698.47,1386.4 700.47,1386.4 702.471,1386.4 704.471,1386.4 706.471,1386.4 708.472,1386.4 710.472,1386.4 712.472,1386.4 714.473,1386.4 716.473,1378.59 718.473,1378.59 720.474,1378.59 722.474,1386.4 724.474,1386.4 726.475,1378.59 728.475,1370.78 730.475,1370.78 732.476,1370.78 734.476,1370.78 736.476,1370.78 738.477,1370.78 740.477,1347.35 742.478,1323.92 744.478,1292.68 746.478,1284.87 748.479,1269.25 750.479,1238.01 752.479,1183.34 754.48,1152.1 756.48,1128.67 758.48,1113.05 760.481,1066.19 762.481,1027.14 764.481,1003.72 766.482,995.905 768.482,956.856 770.482,941.237 772.483,886.568 774.483,878.758 776.483,870.949 778.484,902.188 780.484,863.139 782.484,839.709 784.485,800.66 786.485,745.992 788.485,683.513 790.486,644.464 792.486,652.274 794.487,652.274 796.487,636.654 798.487,628.845 800.488,628.845 802.488,613.225 804.488,597.605 806.489,605.415 808.489,550.747 810.489,511.698 812.49,503.888 814.49,519.507 816.49,527.317 818.491,550.747 820.491,558.556 822.491,589.796 824.492,581.986 826.492,589.796 828.492,589.796 830.493,550.747 832.493,496.078 834.493,511.698 836.494,480.458 838.494,464.839 840.494,441.409 842.495,394.55 844.495,371.121 846.496,386.741 848.496,371.121 850.496,355.501 852.497,347.692 854.497,355.501 856.497,371.121 858.498,332.072 860.498,363.311 862.498,332.072 864.499,261.784 866.499,308.643 868.499,347.692 870.5,339.882 872.5,339.882 874.5,324.262 876.501,308.643 878.501,355.501 880.501,355.501 882.502,308.643 884.502,253.974 886.502,253.974 888.503,277.403 890.503,277.403 892.503,222.735 894.504,238.354 896.504,238.354 898.505,222.735 900.505,222.735 902.505,175.876 904.506,160.256 906.506,214.925 908.506,277.403 910.507,324.262 912.507,363.311 914.507,472.648 916.508,503.888 918.508,550.747 920.508,558.556 922.509,628.845 924.509,667.894 926.509,706.943 928.51,745.992 930.51,792.85 932.51,824.09 934.511,847.519 936.511,863.139 938.511,909.998 940.512,933.427 942.512,964.666 944.512,972.476 946.513,980.286 948.513,1003.72 950.513,1019.33 952.514,1042.76 954.514,1058.38 956.515,1066.19 958.515,1089.62 960.515,1097.43 962.516,1105.24 964.516,1113.05 966.516,1113.05 968.517,1136.48 970.517,1167.72 972.517,1191.15 974.518,1198.96 976.518,1206.77 978.518,1214.58 980.519,1222.39 982.519,1230.2 984.519,1238.01 986.52,1238.01 988.52,1245.82 990.52,1253.63 992.521,1253.63 994.521,1261.44 996.521,1269.25 998.522,1269.25 1000.52,1277.06 1002.52,1308.3 1004.52,1308.3 1006.52,1316.11 1008.52,1316.11 1010.52,1316.11 1012.52,1323.92 1014.52,1331.73 1016.52,1331.73 1018.53,1331.73 1020.53,1331.73 1022.53,1331.73 1024.53,1331.73 1026.53,1331.73 1028.53,1331.73 1030.53,1331.73 1032.53,1331.73 1034.53,1331.73 1036.53,1331.73 1038.53,1331.73 1040.53,1339.54 1042.53,1339.54 1044.53,1339.54 1046.53,1339.54 1048.53,1339.54 1050.53,1339.54 1052.53,1347.35 1054.53,1347.35 1056.53,1347.35 1058.53,1347.35 1060.53,1347.35 1062.53,1347.35 1064.53,1347.35 1066.53,1347.35 1068.53,1347.35 1070.53,1347.35 1072.53,1347.35 1074.53,1355.16 1076.54,1355.16 1078.54,1355.16 1080.54,1355.16 1082.54,1347.35 1084.54,1355.16 1086.54,1355.16 1088.54,1370.78 1090.54,1370.78 1092.54,1370.78 1094.54,1370.78 1096.54,1370.78 1098.54,1370.78 1100.54,1370.78 1102.54,1378.59 1104.54,1378.59 1106.54,1378.59 1108.54,1378.59 1110.54,1378.59 1112.54,1378.59 1114.54,1378.59 1116.54,1378.59 1118.54,1386.4 1120.54,1386.4 1122.54,1386.4 1124.54,1386.4 1126.54,1386.4 1128.54,1386.4 1130.54,1386.4 1132.54,1386.4 1134.55,1386.4 1136.55,1386.4 1138.55,1386.4 1140.55,1386.4 1142.55,1386.4 1144.55,1386.4 1146.55,1386.4 1148.55,1386.4 1150.55,1386.4 1152.55,1386.4 1154.55,1386.4 1156.55,1386.4 1158.55,1386.4 1160.55,1386.4 1162.55,1386.4 1164.55,1386.4 1166.55,1386.4 1168.55,1386.4 1170.55,1386.4 1172.55,1386.4 1174.55,1386.4 1176.55,1386.4 1178.55,1386.4 1180.55,1386.4 1182.55,1386.4 1184.55,1386.4 1186.55,1386.4 1188.55,1386.4 1190.55,1386.4 1192.56,1386.4 1194.56,1386.4 1196.56,1386.4 1198.56,1386.4 1200.56,1386.4 1202.56,1386.4 1204.56,1386.4 1206.56,1378.59 1208.56,1370.78 1210.56,1347.35 1212.56,1347.35 1214.56,1339.54 1216.56,1331.73 1218.56,1323.92 1220.56,1316.11 1222.56,1261.44 1224.56,1214.58 1226.56,1198.96 1228.56,1167.72 1230.56,1136.48 1232.56,1081.81 1234.56,1074 1236.56,1058.38 1238.56,1003.72 1240.56,995.905 1242.56,980.286 1244.56,925.617 1246.56,886.568 1248.57,824.09 1250.57,777.231 1252.57,769.421 1254.57,745.992 1256.57,753.801 1258.57,761.611 1260.57,730.372 1262.57,753.801 1264.57,745.992 1266.57,722.562 1268.57,714.752 1270.57,683.513 1272.57,675.703 1274.57,636.654 1276.57,566.366 1278.57,527.317 1280.57,503.888 1282.57,511.698 1284.57,542.937 1286.57,535.127 1288.57,519.507 1290.57,472.648 1292.57,464.839 1294.57,441.409 1296.57,472.648 1298.57,511.698 1300.57,496.078 1302.57,464.839 1304.57,425.79 1306.58,425.79 1308.58,425.79 1310.58,441.409 1312.58,433.599 1314.58,433.599 1316.58,402.36 1318.58,371.121 1320.58,324.262 1322.58,316.452 1324.58,324.262 1326.58,293.023 1328.58,293.023 1330.58,300.833 1332.58,316.452 1334.58,339.882 1336.58,355.501 1338.58,355.501 1340.58,339.882 1342.58,347.692 1344.58,371.121 1346.58,339.882 1348.58,347.692 1350.58,363.311 1352.58,394.55 1354.58,417.98 1356.58,464.839 1358.58,488.268 1360.58,527.317 1362.58,558.556 1364.59,597.605 1366.59,628.845 1368.59,644.464 1370.59,675.703 1372.59,730.372 1374.59,753.801 1376.59,785.041 1378.59,831.9 1380.59,855.329 1382.59,878.758 1384.59,894.378 1386.59,917.807 1388.59,941.237 1390.59,964.666 1392.59,964.666 1394.59,995.905 1396.59,1011.53 1398.59,1027.14 1400.59,1034.95 1402.59,1050.57 1404.59,1089.62 1406.59,1089.62 1408.59,1089.62 1410.59,1105.24 1412.59,1144.29 1414.59,1167.72 1416.59,1183.34 1418.59,1183.34 1420.59,1183.34 1422.6,1198.96 1424.6,1214.58 1426.6,1214.58 1428.6,1222.39 1430.6,1230.2 1432.6,1238.01 1434.6,1238.01 1436.6,1238.01 1438.6,1245.82 1440.6,1245.82 1442.6,1261.44 1444.6,1269.25 1446.6,1277.06 1448.6,1277.06 1450.6,1277.06 1452.6,1292.68 1454.6,1300.49 1456.6,1308.3 1458.6,1308.3 1460.6,1316.11 1462.6,1316.11 1464.6,1316.11 1466.6,1323.92 1468.6,1331.73 1470.6,1331.73 1472.6,1331.73 1474.6,1331.73 1476.6,1331.73 1478.6,1331.73 1480.61,1331.73 1482.61,1331.73 1484.61,1331.73 1486.61,1331.73 1488.61,1331.73 1490.61,1331.73 1492.61,1331.73 1494.61,1331.73 1496.61,1331.73 1498.61,1331.73 1500.61,1339.54 1502.61,1339.54 1504.61,1347.35 1506.61,1347.35 1508.61,1347.35 1510.61,1355.16 1512.61,1355.16 1514.61,1355.16 1516.61,1362.97 1518.61,1362.97 1520.61,1362.97 1522.61,1362.97 1524.61,1362.97 1526.61,1362.97 1528.61,1362.97 1530.61,1362.97 1532.61,1362.97 1534.61,1362.97 1536.61,1362.97 1538.62,1362.97 1540.62,1362.97 1542.62,1362.97 1544.62,1362.97 1546.62,1362.97 1548.62,1362.97 1550.62,1362.97 1552.62,1362.97 1554.62,1362.97 1556.62,1370.78 1558.62,1370.78 1560.62,1370.78 1562.62,1370.78 1564.62,1362.97 1566.62,1362.97 1568.62,1362.97 1570.62,1362.97 1572.62,1362.97 1574.62,1362.97 1576.62,1362.97 1578.62,1362.97 1580.62,1362.97 1582.62,1362.97 1584.62,1362.97 1586.62,1362.97 1588.62,1362.97 1590.62,1362.97 1592.62,1362.97 1594.62,1362.97 1596.63,1362.97 1598.63,1362.97 1600.63,1362.97 1602.63,1370.78 1604.63,1370.78 1606.63,1370.78 1608.63,1370.78 1610.63,1370.78 1612.63,1370.78 1614.63,1370.78 1616.63,1370.78 1618.63,1370.78 1620.63,1370.78 1622.63,1370.78 1624.63,1370.78 1626.63,1370.78 1628.63,1339.54 1630.63,1316.11 1632.63,1308.3 1634.63,1277.06 1636.63,1222.39 1638.63,1175.53 1640.63,1128.67 1642.63,1081.81 1644.63,1058.38 1646.63,1019.33 1648.63,1034.95 1650.63,1027.14 1652.63,988.096 1654.64,995.905 1656.64,980.286 1658.64,941.237 1660.64,925.617 1662.64,878.758 1664.64,863.139 1666.64,839.709 1668.64,792.85 1670.64,730.372 1672.64,675.703 1674.64,660.084 1676.64,613.225 1678.64,628.845 1680.64,628.845 1682.64,605.415 1684.64,566.366 1686.64,550.747 1688.64,519.507 1690.64,535.127 1692.64,480.458 1694.64,464.839 1696.64,503.888 1698.64,558.556 1700.64,542.937 1702.64,535.127 1704.64,542.937 1706.64,542.937 1708.64,527.317 1710.64,511.698 1712.65,464.839 1714.65,480.458 1716.65,457.029 1718.65,433.599 1720.65,457.029 1722.65,449.219 1724.65,425.79 1726.65,394.55 1728.65,347.692 1730.65,332.072 1732.65,324.262 1734.65,355.501 1736.65,371.121 1738.65,425.79 1740.65,394.55 1742.65,371.121 1744.65,386.741 1746.65,347.692 1748.65,308.643 1750.65,324.262 1752.65,308.643 1754.65,308.643 1756.65,355.501 1758.65,417.98 1760.65,488.268 1762.65,527.317 1764.65,574.176 1766.65,613.225 1768.65,621.035 1770.66,652.274 1772.66,706.943 1774.66,738.182 1776.66,761.611 1778.66,785.041 1780.66,816.28 1782.66,839.709 1784.66,886.568 1786.66,909.998 1788.66,917.807 1790.66,949.047 1792.66,964.666 1794.66,988.096 1796.66,1003.72 1798.66,1034.95 1800.66,1034.95 1802.66,1034.95 1804.66,1050.57 1806.66,1066.19 1808.66,1089.62 1810.66,1105.24 1812.66,1120.86 1814.66,1120.86 1816.66,1152.1 1818.66,1167.72 1820.66,1175.53 1822.66,1175.53 1824.66,1191.15 1826.66,1198.96 1828.67,1206.77 1830.67,1206.77 1832.67,1206.77 1834.67,1222.39 1836.67,1230.2 1838.67,1245.82 1840.67,1245.82 1842.67,1253.63 1844.67,1261.44 1846.67,1261.44 1848.67,1277.06 1850.67,1277.06 1852.67,1292.68 1854.67,1300.49 1856.67,1308.3 1858.67,1308.3 1860.67,1308.3 1862.67,1308.3 1864.67,1323.92 1866.67,1323.92 1868.67,1323.92 1870.67,1323.92 1872.67,1323.92 1874.67,1323.92 1876.67,1323.92 1878.67,1323.92 1880.67,1323.92 1882.67,1323.92 1884.67,1323.92 1886.68,1347.35 1888.68,1347.35 1890.68,1347.35 1892.68,1355.16 1894.68,1362.97 1896.68,1362.97 1898.68,1362.97 1900.68,1370.78 1902.68,1370.78 1904.68,1370.78 1906.68,1370.78 1908.68,1378.59 1910.68,1378.59 1912.68,1378.59 1914.68,1378.59 1916.68,1378.59 1918.68,1378.59 1920.68,1378.59 1922.68,1378.59 1924.68,1378.59 1926.68,1378.59 1928.68,1378.59 1930.68,1378.59 1932.68,1378.59 1934.68,1378.59 1936.68,1370.78 1938.68,1370.78 1940.68,1370.78 1942.69,1370.78 1944.69,1370.78 1946.69,1370.78 1948.69,1370.78 1950.69,1370.78 1952.69,1370.78 1954.69,1370.78 1956.69,1370.78 1958.69,1370.78 1960.69,1370.78 1962.69,1370.78 1964.69,1370.78 1966.69,1370.78 1968.69,1370.78 1970.69,1370.78 1972.69,1370.78 1974.69,1370.78 1976.69,1370.78 1978.69,1370.78 1980.69,1370.78 1982.69,1370.78 1984.69,1370.78 1986.69,1378.59 1988.69,1378.59 1990.69,1378.59 1992.69,1378.59 1994.69,1378.59 1996.69,1378.59 1998.69,1378.59 2000.7,1378.59 2002.7,1378.59 2004.7,1378.59 2006.7,1378.59 2008.7,1378.59 2010.7,1378.59 2012.7,1378.59 2014.7,1378.59 2016.7,1378.59 2018.7,1378.59 2020.7,1378.59 2022.7,1378.59 2024.7,1378.59 2026.7,1378.59 2028.7,1370.78 2030.7,1339.54 2032.7,1323.92 2034.7,1284.87 2036.7,1245.82 2038.7,1222.39 2040.7,1191.15 2042.7,1175.53 2044.7,1128.67 2046.7,1097.43 2048.7,1034.95 2050.7,964.666 2052.7,956.856 2054.7,941.237 2056.7,878.758 2058.71,847.519 2060.71,785.041 2062.71,816.28 2064.71,769.421 2066.71,706.943 2068.71,667.894 2070.71,660.084 2072.71,652.274 2074.71,628.845 2076.71,644.464 2078.71,621.035 2080.71,636.654 2082.71,644.464 2084.71,605.415 2086.71,605.415 2088.71,574.176 2090.71,550.747 2092.71,542.937 2094.71,511.698 2096.71,511.698 2098.71,464.839 2100.71,472.648 2102.71,464.839 2104.71,433.599 2106.71,402.36 2108.71,441.409 2110.71,433.599 2112.71,402.36 2114.71,394.55 2116.72,402.36 2118.72,417.98 2120.72,425.79 2122.72,402.36 2124.72,433.599 2126.72,433.599 2128.72,410.17 2130.72,433.599 2132.72,449.219 2134.72,386.741 2136.72,410.17 2138.72,363.311 2140.72,355.501 2142.72,363.311 2144.72,378.931 2146.72,378.931 2148.72,425.79 2150.72,441.409 2152.72,457.029 2154.72,503.888 2156.72,519.507 2158.72,527.317 2160.72,527.317 2162.72,542.937 2164.72,581.986 2166.72,644.464 2168.72,683.513 2170.72,706.943 2172.72,722.562 2174.73,753.801 2176.73,777.231 2178.73,800.66 2180.73,816.28 2182.73,839.709 2184.73,870.949 2186.73,902.188 2188.73,902.188 2190.73,925.617 2192.73,956.856 2194.73,956.856 2196.73,956.856 2198.73,964.666 2200.73,980.286 2202.73,988.096 2204.73,995.905 2206.73,1027.14 2208.73,1058.38 2210.73,1081.81 2212.73,1089.62 2214.73,1113.05 2216.73,1113.05 2218.73,1128.67 2220.73,1136.48 2222.73,1144.29 2224.73,1167.72 2226.73,1183.34 2228.73,1183.34 2230.73,1191.15 2232.74,1198.96 2234.74,1206.77 2236.74,1214.58 2238.74,1214.58 2240.74,1222.39 2242.74,1222.39 2244.74,1222.39 2246.74,1222.39 2248.74,1230.2 2250.74,1238.01 2252.74,1253.63 2254.74,1253.63 2256.74,1261.44 2258.74,1269.25 2260.74,1277.06 2262.74,1284.87 2264.74,1284.87 2266.74,1292.68 2268.74,1292.68 2270.74,1292.68 2272.74,1300.49 2274.74,1316.11 2276.74,1316.11 2278.74,1316.11 2280.74,1316.11 2282.74,1316.11 2284.74,1339.54 2286.74,1339.54 2288.74,1347.35 2290.75,1347.35 2292.75,1347.35 "></polyline>
</svg>