<svg xmlns="http://www.w3.org/2000/svg" xmlns:xlink="http://www.w3.org/1999/xlink" width="600" height="400" viewBox="0 0 2400 1600">
<defs>
  <clipPath id="clip190">
    <rect x="0" y="0" width="2400" height="1600"></rect>
  </clipPath>
</defs>
<path clip-path="url(#clip190)" d="M0 1600 L2400 1600 L2400 8.88178e-14 L0 8.88178e-14  Z" fill="#ffffff" fill-rule="evenodd" fill-opacity="1"></path>
<defs>
  <clipPath id="clip191">
    <rect x="480" y="0" width="1681" height="1600"></rect>
  </clipPath>
</defs>
<path clip-path="url(#clip190)" d="M235.283 1423.18 L2352.76 1423.18 L2352.76 123.472 L235.283 123.472  Z" fill="#ffffff" fill-rule="evenodd" fill-opacity="1"></path>
<defs>
  <clipPath id="clip192">
    <rect x="235" y="123" width="2118" height="1301"></rect>
  </clipPath>
</defs>
<polyline clip-path="url(#clip192)" style="stroke:#000000; stroke-linecap:round; stroke-linejoin:round; stroke-width:2; stroke-opacity:0.1; fill:none" points="293.214,1423.18 293.214,123.472 "></polyline>
<polyline clip-path="url(#clip192)" style="stroke:#000000; stroke-linecap:round; stroke-linejoin:round; stroke-width:2; stroke-opacity:0.1; fill:none" points="792.618,1423.18 792.618,123.472 "></polyline>
<polyline clip-path="url(#clip192)" style="stroke:#000000; stroke-linecap:round; stroke-linejoin:round; stroke-width:2; stroke-opacity:0.1; fill:none" points="1292.02,1423.18 1292.02,123.472 "></polyline>
<polyline clip-path="url(#clip192)" style="stroke:#000000; stroke-linecap:round; stroke-linejoin:round; stroke-width:2; stroke-opacity:0.1; fill:none" points="1791.43,1423.18 1791.43,123.472 "></polyline>
<polyline clip-path="url(#clip192)" style="stroke:#000000; stroke-linecap:round; stroke-linejoin:round; stroke-width:2; stroke-opacity:0.1; fill:none" points="2290.83,1423.18 2290.83,123.472 "></polyline>
<polyline clip-path="url(#clip192)" style="stroke:#000000; stroke-linecap:round; stroke-linejoin:round; stroke-width:2; stroke-opacity:0.1; fill:none" points="235.283,1386.4 2352.76,1386.4 "></polyline>
<polyline clip-path="url(#clip192)" style="stroke:#000000; stroke-linecap:round; stroke-linejoin:round; stroke-width:2; stroke-opacity:0.1; fill:none" points="235.283,1090.23 2352.76,1090.23 "></polyline>
<polyline clip-path="url(#clip192)" style="stroke:#000000; stroke-linecap:round; stroke-linejoin:round; stroke-width:2; stroke-opacity:0.1; fill:none" points="235.283,794.058 2352.76,794.058 "></polyline>
<polyline clip-path="url(#clip192)" style="stroke:#000000; stroke-linecap:round; stroke-linejoin:round; stroke-width:2; stroke-opacity:0.1; fill:none" points="235.283,497.889 2352.76,497.889 "></polyline>
<polyline clip-path="url(#clip192)" style="stroke:#000000; stroke-linecap:round; stroke-linejoin:round; stroke-width:2; stroke-opacity:0.1; fill:none" points="235.283,201.72 2352.76,201.72 "></polyline>
<polyline clip-path="url(#clip190)" style="stroke:#000000; stroke-linecap:round; stroke-linejoin:round; stroke-width:4; stroke-opacity:1; fill:none" points="235.283,1423.18 2352.76,1423.18 "></polyline>
<polyline clip-path="url(#clip190)" style="stroke:#000000; stroke-linecap:round; stroke-linejoin:round; stroke-width:4; stroke-opacity:1; fill:none" points="293.214,1423.18 293.214,1404.28 "></polyline>
<polyline clip-path="url(#clip190)" style="stroke:#000000; stroke-linecap:round; stroke-linejoin:round; stroke-width:4; stroke-opacity:1; fill:none" points="792.618,1423.18 792.618,1404.28 "></polyline>
<polyline clip-path="url(#clip190)" style="stroke:#000000; stroke-linecap:round; stroke-linejoin:round; stroke-width:4; stroke-opacity:1; fill:none" points="1292.02,1423.18 1292.02,1404.28 "></polyline>
<polyline clip-path="url(#clip190)" style="stroke:#000000; stroke-linecap:round; stroke-linejoin:round; stroke-width:4; stroke-opacity:1; fill:none" points="1791.43,1423.18 1791.43,1404.28 "></polyline>
<polyline clip-path="url(#clip190)" style="stroke:#000000; stroke-linecap:round; stroke-linejoin:round; stroke-width:4; stroke-opacity:1; fill:none" points="2290.83,1423.18 2290.83,1404.28 "></polyline>
<path clip-path="url(#clip190)" d="M293.214 1454.1 Q289.603 1454.1 287.774 1457.66 Q285.968 1461.2 285.968 1468.33 Q285.968 1475.44 287.774 1479.01 Q289.603 1482.55 293.214 1482.55 Q296.848 1482.55 298.654 1479.01 Q300.482 1475.44 300.482 1468.33 Q300.482 1461.2 298.654 1457.66 Q296.848 1454.1 293.214 1454.1 M293.214 1450.39 Q299.024 1450.39 302.079 1455 Q305.158 1459.58 305.158 1468.33 Q305.158 1477.06 302.079 1481.67 Q299.024 1486.25 293.214 1486.25 Q287.404 1486.25 284.325 1481.67 Q281.269 1477.06 281.269 1468.33 Q281.269 1459.58 284.325 1455 Q287.404 1450.39 293.214 1450.39 Z" fill="#000000" fill-rule="nonzero" fill-opacity="1"></path><path clip-path="url(#clip190)" d="M756.31 1481.64 L772.629 1481.64 L772.629 1485.58 L750.685 1485.58 L750.685 1481.64 Q753.347 1478.89 757.93 1474.26 Q762.537 1469.61 763.717 1468.27 Q765.963 1465.74 766.842 1464.01 Q767.745 1462.25 767.745 1460.56 Q767.745 1457.8 765.801 1456.07 Q763.879 1454.33 760.778 1454.33 Q758.579 1454.33 756.125 1455.09 Q753.694 1455.86 750.917 1457.41 L750.917 1452.69 Q753.741 1451.55 756.194 1450.97 Q758.648 1450.39 760.685 1450.39 Q766.055 1450.39 769.25 1453.08 Q772.444 1455.77 772.444 1460.26 Q772.444 1462.39 771.634 1464.31 Q770.847 1466.2 768.741 1468.8 Q768.162 1469.47 765.06 1472.69 Q761.958 1475.88 756.31 1481.64 Z" fill="#000000" fill-rule="nonzero" fill-opacity="1"></path><path clip-path="url(#clip190)" d="M782.49 1451.02 L800.847 1451.02 L800.847 1454.96 L786.773 1454.96 L786.773 1463.43 Q787.791 1463.08 788.81 1462.92 Q789.828 1462.73 790.847 1462.73 Q796.634 1462.73 800.014 1465.9 Q803.393 1469.08 803.393 1474.49 Q803.393 1480.07 799.921 1483.17 Q796.449 1486.25 790.129 1486.25 Q787.953 1486.25 785.685 1485.88 Q783.44 1485.51 781.032 1484.77 L781.032 1480.07 Q783.115 1481.2 785.338 1481.76 Q787.56 1482.32 790.037 1482.32 Q794.041 1482.32 796.379 1480.21 Q798.717 1478.1 798.717 1474.49 Q798.717 1470.88 796.379 1468.77 Q794.041 1466.67 790.037 1466.67 Q788.162 1466.67 786.287 1467.08 Q784.435 1467.5 782.49 1468.38 L782.49 1451.02 Z" fill="#000000" fill-rule="nonzero" fill-opacity="1"></path><path clip-path="url(#clip190)" d="M822.606 1454.1 Q818.995 1454.1 817.166 1457.66 Q815.361 1461.2 815.361 1468.33 Q815.361 1475.44 817.166 1479.01 Q818.995 1482.55 822.606 1482.55 Q826.24 1482.55 828.046 1479.01 Q829.874 1475.44 829.874 1468.33 Q829.874 1461.2 828.046 1457.66 Q826.24 1454.1 822.606 1454.1 M822.606 1450.39 Q828.416 1450.39 831.472 1455 Q834.55 1459.58 834.55 1468.33 Q834.55 1477.06 831.472 1481.67 Q828.416 1486.25 822.606 1486.25 Q816.796 1486.25 813.717 1481.67 Q810.662 1477.06 810.662 1468.33 Q810.662 1459.58 813.717 1455 Q816.796 1450.39 822.606 1450.39 Z" fill="#000000" fill-rule="nonzero" fill-opacity="1"></path><path clip-path="url(#clip190)" d="M1251.64 1451.02 L1270 1451.02 L1270 1454.96 L1255.92 1454.96 L1255.92 1463.43 Q1256.94 1463.08 1257.96 1462.92 Q1258.98 1462.73 1260 1462.73 Q1265.78 1462.73 1269.16 1465.9 Q1272.54 1469.08 1272.54 1474.49 Q1272.54 1480.07 1269.07 1483.17 Q1265.6 1486.25 1259.28 1486.25 Q1257.1 1486.25 1254.83 1485.88 Q1252.59 1485.51 1250.18 1484.77 L1250.18 1480.07 Q1252.27 1481.2 1254.49 1481.76 Q1256.71 1482.32 1259.19 1482.32 Q1263.19 1482.32 1265.53 1480.21 Q1267.87 1478.1 1267.87 1474.49 Q1267.87 1470.88 1265.53 1468.77 Q1263.19 1466.67 1259.19 1466.67 Q1257.31 1466.67 1255.44 1467.08 Q1253.58 1467.5 1251.64 1468.38 L1251.64 1451.02 Z" fill="#000000" fill-rule="nonzero" fill-opacity="1"></path><path clip-path="url(#clip190)" d="M1291.76 1454.1 Q1288.14 1454.1 1286.32 1457.66 Q1284.51 1461.2 1284.51 1468.33 Q1284.51 1475.44 1286.32 1479.01 Q1288.14 1482.55 1291.76 1482.55 Q1295.39 1482.55 1297.2 1479.01 Q1299.02 1475.44 1299.02 1468.33 Q1299.02 1461.2 1297.2 1457.66 Q1295.39 1454.1 1291.76 1454.1 M1291.76 1450.39 Q1297.57 1450.39 1300.62 1455 Q1303.7 1459.58 1303.7 1468.33 Q1303.7 1477.06 1300.62 1481.67 Q1297.57 1486.25 1291.76 1486.25 Q1285.95 1486.25 1282.87 1481.67 Q1279.81 1477.06 1279.81 1468.33 Q1279.81 1459.58 1282.87 1455 Q1285.95 1450.39 1291.76 1450.39 Z" fill="#000000" fill-rule="nonzero" fill-opacity="1"></path><path clip-path="url(#clip190)" d="M1321.92 1454.1 Q1318.31 1454.1 1316.48 1457.66 Q1314.67 1461.2 1314.67 1468.33 Q1314.67 1475.44 1316.48 1479.01 Q1318.31 1482.55 1321.92 1482.55 Q1325.55 1482.55 1327.36 1479.01 Q1329.19 1475.44 1329.19 1468.33 Q1329.19 1461.2 1327.36 1457.66 Q1325.55 1454.1 1321.92 1454.1 M1321.92 1450.39 Q1327.73 1450.39 1330.78 1455 Q1333.86 1459.58 1333.86 1468.33 Q1333.86 1477.06 1330.78 1481.67 Q1327.73 1486.25 1321.92 1486.25 Q1316.11 1486.25 1313.03 1481.67 Q1309.97 1477.06 1309.97 1468.33 Q1309.97 1459.58 1313.03 1455 Q1316.11 1450.39 1321.92 1450.39 Z" fill="#000000" fill-rule="nonzero" fill-opacity="1"></path><path clip-path="url(#clip190)" d="M1749.7 1451.02 L1771.92 1451.02 L1771.92 1453.01 L1759.38 1485.58 L1754.49 1485.58 L1766.3 1454.96 L1749.7 1454.96 L1749.7 1451.02 Z" fill="#000000" fill-rule="nonzero" fill-opacity="1"></path><path clip-path="url(#clip190)" d="M1781.09 1451.02 L1799.45 1451.02 L1799.45 1454.96 L1785.37 1454.96 L1785.37 1463.43 Q1786.39 1463.08 1787.41 1462.92 Q1788.43 1462.73 1789.45 1462.73 Q1795.23 1462.73 1798.61 1465.9 Q1801.99 1469.08 1801.99 1474.49 Q1801.99 1480.07 1798.52 1483.17 Q1795.05 1486.25 1788.73 1486.25 Q1786.55 1486.25 1784.28 1485.88 Q1782.04 1485.51 1779.63 1484.77 L1779.63 1480.07 Q1781.72 1481.2 1783.94 1481.76 Q1786.16 1482.32 1788.64 1482.32 Q1792.64 1482.32 1794.98 1480.21 Q1797.32 1478.1 1797.32 1474.49 Q1797.32 1470.88 1794.98 1468.77 Q1792.64 1466.67 1788.64 1466.67 Q1786.76 1466.67 1784.89 1467.08 Q1783.03 1467.5 1781.09 1468.38 L1781.09 1451.02 Z" fill="#000000" fill-rule="nonzero" fill-opacity="1"></path><path clip-path="url(#clip190)" d="M1821.21 1454.1 Q1817.59 1454.1 1815.77 1457.66 Q1813.96 1461.2 1813.96 1468.33 Q1813.96 1475.44 1815.77 1479.01 Q1817.59 1482.55 1821.21 1482.55 Q1824.84 1482.55 1826.65 1479.01 Q1828.47 1475.44 1828.47 1468.33 Q1828.47 1461.2 1826.65 1457.66 Q1824.84 1454.1 1821.21 1454.1 M1821.21 1450.39 Q1827.02 1450.39 1830.07 1455 Q1833.15 1459.58 1833.15 1468.33 Q1833.15 1477.06 1830.07 1481.67 Q1827.02 1486.25 1821.21 1486.25 Q1815.4 1486.25 1812.32 1481.67 Q1809.26 1477.06 1809.26 1468.33 Q1809.26 1459.58 1812.32 1455 Q1815.4 1450.39 1821.21 1450.39 Z" fill="#000000" fill-rule="nonzero" fill-opacity="1"></path><path clip-path="url(#clip190)" d="M2235.36 1481.64 L2242.99 1481.64 L2242.99 1455.28 L2234.68 1456.95 L2234.68 1452.69 L2242.95 1451.02 L2247.62 1451.02 L2247.62 1481.64 L2255.26 1481.64 L2255.26 1485.58 L2235.36 1485.58 L2235.36 1481.64 Z" fill="#000000" fill-rule="nonzero" fill-opacity="1"></path><path clip-path="url(#clip190)" d="M2274.71 1454.1 Q2271.1 1454.1 2269.27 1457.66 Q2267.46 1461.2 2267.46 1468.33 Q2267.46 1475.44 2269.27 1479.01 Q2271.1 1482.55 2274.71 1482.55 Q2278.34 1482.55 2280.15 1479.01 Q2281.98 1475.44 2281.98 1468.33 Q2281.98 1461.2 2280.15 1457.66 Q2278.34 1454.1 2274.71 1454.1 M2274.71 1450.39 Q2280.52 1450.39 2283.57 1455 Q2286.65 1459.58 2286.65 1468.33 Q2286.65 1477.06 2283.57 1481.67 Q2280.52 1486.25 2274.71 1486.25 Q2268.9 1486.25 2265.82 1481.67 Q2262.76 1477.06 2262.76 1468.33 Q2262.76 1459.58 2265.82 1455 Q2268.9 1450.39 2274.71 1450.39 Z" fill="#000000" fill-rule="nonzero" fill-opacity="1"></path><path clip-path="url(#clip190)" d="M2304.87 1454.1 Q2301.26 1454.1 2299.43 1457.66 Q2297.62 1461.2 2297.62 1468.33 Q2297.62 1475.44 2299.43 1479.01 Q2301.26 1482.55 2304.87 1482.55 Q2308.5 1482.55 2310.31 1479.01 Q2312.14 1475.44 2312.14 1468.33 Q2312.14 1461.2 2310.31 1457.66 Q2308.5 1454.1 2304.87 1454.1 M2304.87 1450.39 Q2310.68 1450.39 2313.73 1455 Q2316.81 1459.58 2316.81 1468.33 Q2316.81 1477.06 2313.73 1481.67 Q2310.68 1486.25 2304.87 1486.25 Q2299.06 1486.25 2295.98 1481.67 Q2292.92 1477.06 2292.92 1468.33 Q2292.92 1459.58 2295.98 1455 Q2299.06 1450.39 2304.87 1450.39 Z" fill="#000000" fill-rule="nonzero" fill-opacity="1"></path><path clip-path="url(#clip190)" d="M2335.03 1454.1 Q2331.42 1454.1 2329.59 1457.66 Q2327.79 1461.2 2327.79 1468.33 Q2327.79 1475.44 2329.59 1479.01 Q2331.42 1482.55 2335.03 1482.55 Q2338.67 1482.55 2340.47 1479.01 Q2342.3 1475.44 2342.3 1468.33 Q2342.3 1461.2 2340.47 1457.66 Q2338.67 1454.1 2335.03 1454.1 M2335.03 1450.39 Q2340.84 1450.39 2343.9 1455 Q2346.98 1459.58 2346.98 1468.33 Q2346.98 1477.06 2343.9 1481.67 Q2340.84 1486.25 2335.03 1486.25 Q2329.22 1486.25 2326.14 1481.67 Q2323.09 1477.06 2323.09 1468.33 Q2323.09 1459.58 2326.14 1455 Q2329.22 1450.39 2335.03 1450.39 Z" fill="#000000" fill-rule="nonzero" fill-opacity="1"></path><path clip-path="url(#clip190)" d="M1233.18 1522.27 L1233.18 1532.4 L1245.24 1532.4 L1245.24 1536.95 L1233.18 1536.95 L1233.18 1556.3 Q1233.18 1560.66 1234.36 1561.9 Q1235.57 1563.14 1239.23 1563.14 L1245.24 1563.14 L1245.24 1568.04 L1239.23 1568.04 Q1232.45 1568.04 1229.87 1565.53 Q1227.29 1562.98 1227.29 1556.3 L1227.29 1536.95 L1222.99 1536.95 L1222.99 1532.4 L1227.29 1532.4 L1227.29 1522.27 L1233.18 1522.27 Z" fill="#000000" fill-rule="nonzero" fill-opacity="1"></path><path clip-path="url(#clip190)" d="M1252.94 1532.4 L1258.8 1532.4 L1258.8 1568.04 L1252.94 1568.04 L1252.94 1532.4 M1252.94 1518.52 L1258.8 1518.52 L1258.8 1525.93 L1252.94 1525.93 L1252.94 1518.52 Z" fill="#000000" fill-rule="nonzero" fill-opacity="1"></path><path clip-path="url(#clip190)" d="M1298.81 1539.24 Q1301.01 1535.29 1304.06 1533.41 Q1307.12 1531.54 1311.25 1531.54 Q1316.82 1531.54 1319.85 1535.45 Q1322.87 1539.33 1322.87 1546.53 L1322.87 1568.04 L1316.98 1568.04 L1316.98 1546.72 Q1316.98 1541.59 1315.17 1539.11 Q1313.36 1536.63 1309.63 1536.63 Q1305.08 1536.63 1302.44 1539.65 Q1299.8 1542.68 1299.8 1547.9 L1299.8 1568.04 L1293.91 1568.04 L1293.91 1546.72 Q1293.91 1541.56 1292.09 1539.11 Q1290.28 1536.63 1286.49 1536.63 Q1282 1536.63 1279.36 1539.68 Q1276.72 1542.71 1276.72 1547.9 L1276.72 1568.04 L1270.83 1568.04 L1270.83 1532.4 L1276.72 1532.4 L1276.72 1537.93 Q1278.73 1534.66 1281.53 1533.1 Q1284.33 1531.54 1288.18 1531.54 Q1292.06 1531.54 1294.77 1533.51 Q1297.5 1535.48 1298.81 1539.24 Z" fill="#000000" fill-rule="nonzero" fill-opacity="1"></path><path clip-path="url(#clip190)" d="M1365.04 1548.76 L1365.04 1551.62 L1338.12 1551.62 Q1338.5 1557.67 1341.75 1560.85 Q1345.02 1564 1350.85 1564 Q1354.22 1564 1357.37 1563.17 Q1360.56 1562.35 1363.68 1560.69 L1363.68 1566.23 Q1360.53 1567.57 1357.21 1568.27 Q1353.9 1568.97 1350.5 1568.97 Q1341.97 1568.97 1336.97 1564 Q1332.01 1559.04 1332.01 1550.57 Q1332.01 1541.82 1336.72 1536.69 Q1341.46 1531.54 1349.48 1531.54 Q1356.67 1531.54 1360.84 1536.18 Q1365.04 1540.8 1365.04 1548.76 M1359.19 1547.04 Q1359.12 1542.23 1356.48 1539.37 Q1353.87 1536.5 1349.54 1536.5 Q1344.64 1536.5 1341.68 1539.27 Q1338.75 1542.04 1338.31 1547.07 L1359.19 1547.04 Z" fill="#000000" fill-rule="nonzero" fill-opacity="1"></path><polyline clip-path="url(#clip190)" style="stroke:#000000; stroke-linecap:round; stroke-linejoin:round; stroke-width:4; stroke-opacity:1; fill:none" points="235.283,1423.18 235.283,123.472 "></polyline>
<polyline clip-path="url(#clip190)" style="stroke:#000000; stroke-linecap:round; stroke-linejoin:round; stroke-width:4; stroke-opacity:1; fill:none" points="235.283,1386.4 254.18,1386.4 "></polyline>
<polyline clip-path="url(#clip190)" style="stroke:#000000; stroke-linecap:round; stroke-linejoin:round; stroke-width:4; stroke-opacity:1; fill:none" points="235.283,1090.23 254.18,1090.23 "></polyline>
<polyline clip-path="url(#clip190)" style="stroke:#000000; stroke-linecap:round; stroke-linejoin:round; stroke-width:4; stroke-opacity:1; fill:none" points="235.283,794.058 254.18,794.058 "></polyline>
<polyline clip-path="url(#clip190)" style="stroke:#000000; stroke-linecap:round; stroke-linejoin:round; stroke-width:4; stroke-opacity:1; fill:none" points="235.283,497.889 254.18,497.889 "></polyline>
<polyline clip-path="url(#clip190)" style="stroke:#000000; stroke-linecap:round; stroke-linejoin:round; stroke-width:4; stroke-opacity:1; fill:none" points="235.283,201.72 254.18,201.72 "></polyline>
<path clip-path="url(#clip190)" d="M187.338 1372.19 Q183.727 1372.19 181.899 1375.76 Q180.093 1379.3 180.093 1386.43 Q180.093 1393.54 181.899 1397.1 Q183.727 1400.64 187.338 1400.64 Q190.973 1400.64 192.778 1397.1 Q194.607 1393.54 194.607 1386.43 Q194.607 1379.3 192.778 1375.76 Q190.973 1372.19 187.338 1372.19 M187.338 1368.49 Q193.149 1368.49 196.204 1373.1 Q199.283 1377.68 199.283 1386.43 Q199.283 1395.16 196.204 1399.76 Q193.149 1404.35 187.338 1404.35 Q181.528 1404.35 178.45 1399.76 Q175.394 1395.16 175.394 1386.43 Q175.394 1377.68 178.45 1373.1 Q181.528 1368.49 187.338 1368.49 Z" fill="#000000" fill-rule="nonzero" fill-opacity="1"></path><path clip-path="url(#clip190)" d="M121.043 1103.57 L137.362 1103.57 L137.362 1107.51 L115.418 1107.51 L115.418 1103.57 Q118.08 1100.82 122.663 1096.19 Q127.269 1091.53 128.45 1090.19 Q130.695 1087.67 131.575 1085.93 Q132.478 1084.17 132.478 1082.48 Q132.478 1079.73 130.533 1077.99 Q128.612 1076.26 125.51 1076.26 Q123.311 1076.26 120.857 1077.02 Q118.427 1077.78 115.649 1079.34 L115.649 1074.61 Q118.473 1073.48 120.927 1072.9 Q123.38 1072.32 125.418 1072.32 Q130.788 1072.32 133.982 1075.01 Q137.177 1077.69 137.177 1082.18 Q137.177 1084.31 136.367 1086.23 Q135.579 1088.13 133.473 1090.72 Q132.894 1091.4 129.792 1094.61 Q126.691 1097.81 121.043 1103.57 Z" fill="#000000" fill-rule="nonzero" fill-opacity="1"></path><path clip-path="url(#clip190)" d="M157.177 1076.03 Q153.566 1076.03 151.737 1079.59 Q149.931 1083.13 149.931 1090.26 Q149.931 1097.37 151.737 1100.93 Q153.566 1104.47 157.177 1104.47 Q160.811 1104.47 162.616 1100.93 Q164.445 1097.37 164.445 1090.26 Q164.445 1083.13 162.616 1079.59 Q160.811 1076.03 157.177 1076.03 M157.177 1072.32 Q162.987 1072.32 166.042 1076.93 Q169.121 1081.51 169.121 1090.26 Q169.121 1098.99 166.042 1103.59 Q162.987 1108.18 157.177 1108.18 Q151.366 1108.18 148.288 1103.59 Q145.232 1098.99 145.232 1090.26 Q145.232 1081.51 148.288 1076.93 Q151.366 1072.32 157.177 1072.32 Z" fill="#000000" fill-rule="nonzero" fill-opacity="1"></path><path clip-path="url(#clip190)" d="M187.338 1076.03 Q183.727 1076.03 181.899 1079.59 Q180.093 1083.13 180.093 1090.26 Q180.093 1097.37 181.899 1100.93 Q183.727 1104.47 187.338 1104.47 Q190.973 1104.47 192.778 1100.93 Q194.607 1097.37 194.607 1090.26 Q194.607 1083.13 192.778 1079.59 Q190.973 1076.03 187.338 1076.03 M187.338 1072.32 Q193.149 1072.32 196.204 1076.93 Q199.283 1081.51 199.283 1090.26 Q199.283 1098.99 196.204 1103.59 Q193.149 1108.18 187.338 1108.18 Q181.528 1108.18 178.45 1103.59 Q175.394 1098.99 175.394 1090.26 Q175.394 1081.51 178.45 1076.93 Q181.528 1072.32 187.338 1072.32 Z" fill="#000000" fill-rule="nonzero" fill-opacity="1"></path><path clip-path="url(#clip190)" d="M129.862 780.852 L118.056 799.301 L129.862 799.301 L129.862 780.852 M128.635 776.778 L134.515 776.778 L134.515 799.301 L139.445 799.301 L139.445 803.19 L134.515 803.19 L134.515 811.338 L129.862 811.338 L129.862 803.19 L114.26 803.19 L114.26 798.676 L128.635 776.778 Z" fill="#000000" fill-rule="nonzero" fill-opacity="1"></path><path clip-path="url(#clip190)" d="M157.177 779.856 Q153.566 779.856 151.737 783.421 Q149.931 786.963 149.931 794.093 Q149.931 801.199 151.737 804.764 Q153.566 808.305 157.177 808.305 Q160.811 808.305 162.616 804.764 Q164.445 801.199 164.445 794.093 Q164.445 786.963 162.616 783.421 Q160.811 779.856 157.177 779.856 M157.177 776.153 Q162.987 776.153 166.042 780.759 Q169.121 785.343 169.121 794.093 Q169.121 802.819 166.042 807.426 Q162.987 812.009 157.177 812.009 Q151.366 812.009 148.288 807.426 Q145.232 802.819 145.232 794.093 Q145.232 785.343 148.288 780.759 Q151.366 776.153 157.177 776.153 Z" fill="#000000" fill-rule="nonzero" fill-opacity="1"></path><path clip-path="url(#clip190)" d="M187.338 779.856 Q183.727 779.856 181.899 783.421 Q180.093 786.963 180.093 794.093 Q180.093 801.199 181.899 804.764 Q183.727 808.305 187.338 808.305 Q190.973 808.305 192.778 804.764 Q194.607 801.199 194.607 794.093 Q194.607 786.963 192.778 783.421 Q190.973 779.856 187.338 779.856 M187.338 776.153 Q193.149 776.153 196.204 780.759 Q199.283 785.343 199.283 794.093 Q199.283 802.819 196.204 807.426 Q193.149 812.009 187.338 812.009 Q181.528 812.009 178.45 807.426 Q175.394 802.819 175.394 794.093 Q175.394 785.343 178.45 780.759 Q181.528 776.153 187.338 776.153 Z" fill="#000000" fill-rule="nonzero" fill-opacity="1"></path><path clip-path="url(#clip190)" d="M127.593 496.025 Q124.445 496.025 122.593 498.178 Q120.765 500.331 120.765 504.081 Q120.765 507.808 122.593 509.984 Q124.445 512.136 127.593 512.136 Q130.742 512.136 132.57 509.984 Q134.422 507.808 134.422 504.081 Q134.422 500.331 132.57 498.178 Q130.742 496.025 127.593 496.025 M136.876 481.373 L136.876 485.632 Q135.117 484.799 133.311 484.359 Q131.529 483.919 129.769 483.919 Q125.14 483.919 122.686 487.044 Q120.255 490.169 119.908 496.488 Q121.274 494.475 123.334 493.41 Q125.394 492.322 127.871 492.322 Q133.08 492.322 136.089 495.493 Q139.121 498.641 139.121 504.081 Q139.121 509.405 135.973 512.623 Q132.825 515.84 127.593 515.84 Q121.598 515.84 118.427 511.257 Q115.256 506.65 115.256 497.924 Q115.256 489.729 119.144 484.868 Q123.033 479.984 129.584 479.984 Q131.343 479.984 133.126 480.331 Q134.931 480.678 136.876 481.373 Z" fill="#000000" fill-rule="nonzero" fill-opacity="1"></path><path clip-path="url(#clip190)" d="M157.177 483.688 Q153.566 483.688 151.737 487.252 Q149.931 490.794 149.931 497.924 Q149.931 505.03 151.737 508.595 Q153.566 512.136 157.177 512.136 Q160.811 512.136 162.616 508.595 Q164.445 505.03 164.445 497.924 Q164.445 490.794 162.616 487.252 Q160.811 483.688 157.177 483.688 M157.177 479.984 Q162.987 479.984 166.042 484.59 Q169.121 489.174 169.121 497.924 Q169.121 506.65 166.042 511.257 Q162.987 515.84 157.177 515.84 Q151.366 515.84 148.288 511.257 Q145.232 506.65 145.232 497.924 Q145.232 489.174 148.288 484.59 Q151.366 479.984 157.177 479.984 Z" fill="#000000" fill-rule="nonzero" fill-opacity="1"></path><path clip-path="url(#clip190)" d="M187.338 483.688 Q183.727 483.688 181.899 487.252 Q180.093 490.794 180.093 497.924 Q180.093 505.03 181.899 508.595 Q183.727 512.136 187.338 512.136 Q190.973 512.136 192.778 508.595 Q194.607 505.03 194.607 497.924 Q194.607 490.794 192.778 487.252 Q190.973 483.688 187.338 483.688 M187.338 479.984 Q193.149 479.984 196.204 484.59 Q199.283 489.174 199.283 497.924 Q199.283 506.65 196.204 511.257 Q193.149 515.84 187.338 515.84 Q181.528 515.84 178.45 511.257 Q175.394 506.65 175.394 497.924 Q175.394 489.174 178.45 484.59 Q181.528 479.984 187.338 479.984 Z" fill="#000000" fill-rule="nonzero" fill-opacity="1"></path><path clip-path="url(#clip190)" d="M127.015 202.588 Q123.681 202.588 121.76 204.37 Q119.862 206.153 119.862 209.278 Q119.862 212.403 121.76 214.185 Q123.681 215.968 127.015 215.968 Q130.348 215.968 132.269 214.185 Q134.191 212.38 134.191 209.278 Q134.191 206.153 132.269 204.37 Q130.371 202.588 127.015 202.588 M122.339 200.597 Q119.33 199.857 117.64 197.796 Q115.973 195.736 115.973 192.773 Q115.973 188.63 118.913 186.222 Q121.876 183.815 127.015 183.815 Q132.177 183.815 135.117 186.222 Q138.056 188.63 138.056 192.773 Q138.056 195.736 136.367 197.796 Q134.7 199.857 131.714 200.597 Q135.093 201.384 136.968 203.676 Q138.867 205.968 138.867 209.278 Q138.867 214.301 135.788 216.986 Q132.732 219.671 127.015 219.671 Q121.297 219.671 118.218 216.986 Q115.163 214.301 115.163 209.278 Q115.163 205.968 117.061 203.676 Q118.959 201.384 122.339 200.597 M120.626 193.213 Q120.626 195.898 122.293 197.403 Q123.982 198.907 127.015 198.907 Q130.024 198.907 131.714 197.403 Q133.427 195.898 133.427 193.213 Q133.427 190.528 131.714 189.023 Q130.024 187.519 127.015 187.519 Q123.982 187.519 122.293 189.023 Q120.626 190.528 120.626 193.213 Z" fill="#000000" fill-rule="nonzero" fill-opacity="1"></path><path clip-path="url(#clip190)" d="M157.177 187.519 Q153.566 187.519 151.737 191.083 Q149.931 194.625 149.931 201.755 Q149.931 208.861 151.737 212.426 Q153.566 215.968 157.177 215.968 Q160.811 215.968 162.616 212.426 Q164.445 208.861 164.445 201.755 Q164.445 194.625 162.616 191.083 Q160.811 187.519 157.177 187.519 M157.177 183.815 Q162.987 183.815 166.042 188.421 Q169.121 193.005 169.121 201.755 Q169.121 210.481 166.042 215.088 Q162.987 219.671 157.177 219.671 Q151.366 219.671 148.288 215.088 Q145.232 210.481 145.232 201.755 Q145.232 193.005 148.288 188.421 Q151.366 183.815 157.177 183.815 Z" fill="#000000" fill-rule="nonzero" fill-opacity="1"></path><path clip-path="url(#clip190)" d="M187.338 187.519 Q183.727 187.519 181.899 191.083 Q180.093 194.625 180.093 201.755 Q180.093 208.861 181.899 212.426 Q183.727 215.968 187.338 215.968 Q190.973 215.968 192.778 212.426 Q194.607 208.861 194.607 201.755 Q194.607 194.625 192.778 191.083 Q190.973 187.519 187.338 187.519 M187.338 183.815 Q193.149 183.815 196.204 188.421 Q199.283 193.005 199.283 201.755 Q199.283 210.481 196.204 215.088 Q193.149 219.671 187.338 219.671 Q181.528 219.671 178.45 215.088 Q175.394 210.481 175.394 201.755 Q175.394 193.005 178.45 188.421 Q181.528 183.815 187.338 183.815 Z" fill="#000000" fill-rule="nonzero" fill-opacity="1"></path><path clip-path="url(#clip190)" d="M44.7161 911.525 L47.5806 911.525 L47.5806 938.452 Q53.6281 938.07 56.8109 934.824 Q59.9619 931.546 59.9619 925.721 Q59.9619 922.347 59.1344 919.196 Q58.3069 916.013 56.6518 912.894 L62.1899 912.894 Q63.5267 916.045 64.227 919.355 Q64.9272 922.665 64.9272 926.071 Q64.9272 934.601 59.9619 939.598 Q54.9967 944.563 46.5303 944.563 Q37.7774 944.563 32.6531 939.853 Q27.4968 935.11 27.4968 927.09 Q27.4968 919.896 32.1438 915.727 Q36.7589 911.525 44.7161 911.525 M42.9973 917.382 Q38.1912 917.446 35.3266 920.087 Q32.4621 922.697 32.4621 927.026 Q32.4621 931.928 35.2312 934.888 Q38.0002 937.816 43.0292 938.261 L42.9973 917.382 Z" fill="#000000" fill-rule="nonzero" fill-opacity="1"></path><path clip-path="url(#clip190)" d="M28.3562 873.427 L45.7028 886.317 L64.0042 872.758 L64.0042 879.665 L49.9996 890.041 L64.0042 900.417 L64.0042 907.324 L45.3526 893.479 L28.3562 906.146 L28.3562 899.24 L41.0558 889.787 L28.3562 880.334 L28.3562 873.427 Z" fill="#000000" fill-rule="nonzero" fill-opacity="1"></path><path clip-path="url(#clip190)" d="M58.657 858.817 L77.5631 858.817 L77.5631 864.706 L28.3562 864.706 L28.3562 858.817 L33.7671 858.817 Q30.5842 856.971 29.0564 854.17 Q27.4968 851.338 27.4968 847.423 Q27.4968 840.93 32.6531 836.888 Q37.8093 832.814 46.212 832.814 Q54.6147 832.814 59.771 836.888 Q64.9272 840.93 64.9272 847.423 Q64.9272 851.338 63.3994 854.17 Q61.8398 856.971 58.657 858.817 M46.212 838.893 Q39.7508 838.893 36.0905 841.566 Q32.3984 844.208 32.3984 848.855 Q32.3984 853.502 36.0905 856.176 Q39.7508 858.817 46.212 858.817 Q52.6732 858.817 56.3653 856.176 Q60.0256 853.502 60.0256 848.855 Q60.0256 844.208 56.3653 841.566 Q52.6732 838.893 46.212 838.893 Z" fill="#000000" fill-rule="nonzero" fill-opacity="1"></path><path clip-path="url(#clip190)" d="M33.8307 802.449 Q33.2578 803.436 33.0032 804.613 Q32.7167 805.759 32.7167 807.16 Q32.7167 812.125 35.9632 814.799 Q39.1779 817.44 45.2253 817.44 L64.0042 817.44 L64.0042 823.329 L28.3562 823.329 L28.3562 817.44 L33.8944 817.44 Q30.6479 815.594 29.0883 812.634 Q27.4968 809.674 27.4968 805.441 Q27.4968 804.836 27.5923 804.104 Q27.656 803.372 27.8151 802.481 L33.8307 802.449 Z" fill="#000000" fill-rule="nonzero" fill-opacity="1"></path><path clip-path="url(#clip190)" d="M44.7161 767.247 L47.5806 767.247 L47.5806 794.174 Q53.6281 793.792 56.8109 790.545 Q59.9619 787.267 59.9619 781.442 Q59.9619 778.068 59.1344 774.917 Q58.3069 771.735 56.6518 768.615 L62.1899 768.615 Q63.5267 771.766 64.227 775.077 Q64.9272 778.387 64.9272 781.792 Q64.9272 790.322 59.9619 795.32 Q54.9967 800.285 46.5303 800.285 Q37.7774 800.285 32.6531 795.574 Q27.4968 790.832 27.4968 782.811 Q27.4968 775.618 32.1438 771.448 Q36.7589 767.247 44.7161 767.247 M42.9973 773.103 Q38.1912 773.167 35.3266 775.809 Q32.4621 778.419 32.4621 782.747 Q32.4621 787.649 35.2312 790.609 Q38.0002 793.537 43.0292 793.983 L42.9973 773.103 Z" fill="#000000" fill-rule="nonzero" fill-opacity="1"></path><path clip-path="url(#clip190)" d="M29.4065 734.909 L34.9447 734.909 Q33.6716 737.392 33.035 740.065 Q32.3984 742.739 32.3984 745.603 Q32.3984 749.964 33.7352 752.16 Q35.072 754.324 37.7456 754.324 Q39.7826 754.324 40.9603 752.765 Q42.1061 751.205 43.1565 746.495 L43.6021 744.489 Q44.9389 738.251 47.3897 735.641 Q49.8086 732.999 54.1691 732.999 Q59.1344 732.999 62.0308 736.946 Q64.9272 740.861 64.9272 747.736 Q64.9272 750.6 64.3543 753.72 Q63.8132 756.807 62.6992 760.244 L56.6518 760.244 Q58.3387 756.998 59.198 753.847 Q60.0256 750.696 60.0256 747.609 Q60.0256 743.471 58.6251 741.243 Q57.1929 739.015 54.6147 739.015 Q52.2276 739.015 50.9545 740.638 Q49.6813 742.23 48.5037 747.672 L48.0262 749.709 Q46.8804 755.152 44.5251 757.571 Q42.138 759.99 38.0002 759.99 Q32.9713 759.99 30.2341 756.425 Q27.4968 752.86 27.4968 746.304 Q27.4968 743.057 27.9743 740.192 Q28.4517 737.328 29.4065 734.909 Z" fill="#000000" fill-rule="nonzero" fill-opacity="1"></path><path clip-path="url(#clip190)" d="M29.4065 700.948 L34.9447 700.948 Q33.6716 703.431 33.035 706.104 Q32.3984 708.778 32.3984 711.642 Q32.3984 716.003 33.7352 718.199 Q35.072 720.363 37.7456 720.363 Q39.7826 720.363 40.9603 718.804 Q42.1061 717.244 43.1565 712.533 L43.6021 710.528 Q44.9389 704.29 47.3897 701.68 Q49.8086 699.038 54.1691 699.038 Q59.1344 699.038 62.0308 702.985 Q64.9272 706.9 64.9272 713.775 Q64.9272 716.639 64.3543 719.759 Q63.8132 722.846 62.6992 726.283 L56.6518 726.283 Q58.3387 723.037 59.198 719.886 Q60.0256 716.735 60.0256 713.647 Q60.0256 709.51 58.6251 707.282 Q57.1929 705.054 54.6147 705.054 Q52.2276 705.054 50.9545 706.677 Q49.6813 708.268 48.5037 713.711 L48.0262 715.748 Q46.8804 721.191 44.5251 723.61 Q42.138 726.029 38.0002 726.029 Q32.9713 726.029 30.2341 722.464 Q27.4968 718.899 27.4968 712.343 Q27.4968 709.096 27.9743 706.231 Q28.4517 703.367 29.4065 700.948 Z" fill="#000000" fill-rule="nonzero" fill-opacity="1"></path><path clip-path="url(#clip190)" d="M28.3562 689.712 L28.3562 683.856 L64.0042 683.856 L64.0042 689.712 L28.3562 689.712 M14.479 689.712 L14.479 683.856 L21.895 683.856 L21.895 689.712 L14.479 689.712 Z" fill="#000000" fill-rule="nonzero" fill-opacity="1"></path><path clip-path="url(#clip190)" d="M32.4621 657.788 Q32.4621 662.499 36.1542 665.236 Q39.8145 667.974 46.212 667.974 Q52.6095 667.974 56.3017 665.268 Q59.9619 662.531 59.9619 657.788 Q59.9619 653.11 56.2698 650.372 Q52.5777 647.635 46.212 647.635 Q39.8781 647.635 36.186 650.372 Q32.4621 653.11 32.4621 657.788 M27.4968 657.788 Q27.4968 650.15 32.4621 645.789 Q37.4273 641.429 46.212 641.429 Q54.9649 641.429 59.9619 645.789 Q64.9272 650.15 64.9272 657.788 Q64.9272 665.459 59.9619 669.82 Q54.9649 674.148 46.212 674.148 Q37.4273 674.148 32.4621 669.82 Q27.4968 665.459 27.4968 657.788 Z" fill="#000000" fill-rule="nonzero" fill-opacity="1"></path><path clip-path="url(#clip190)" d="M42.4881 602.088 L64.0042 602.088 L64.0042 607.945 L42.679 607.945 Q37.6183 607.945 35.1038 609.918 Q32.5894 611.892 32.5894 615.838 Q32.5894 620.581 35.6131 623.318 Q38.6368 626.055 43.8567 626.055 L64.0042 626.055 L64.0042 631.944 L28.3562 631.944 L28.3562 626.055 L33.8944 626.055 Q30.6797 623.955 29.0883 621.122 Q27.4968 618.257 27.4968 614.533 Q27.4968 608.391 31.3163 605.24 Q35.1038 602.088 42.4881 602.088 Z" fill="#000000" fill-rule="nonzero" fill-opacity="1"></path><path clip-path="url(#clip190)" d="M1095.53 9.54393 L1095.53 15.7418 L1088.4 15.7418 Q1084.39 15.7418 1082.81 17.3622 Q1081.27 18.9825 1081.27 23.1955 L1081.27 27.2059 L1093.54 27.2059 L1093.54 32.9987 L1081.27 32.9987 L1081.27 72.576 L1073.77 72.576 L1073.77 32.9987 L1066.64 32.9987 L1066.64 27.2059 L1073.77 27.2059 L1073.77 24.0462 Q1073.77 16.471 1077.3 13.0277 Q1080.82 9.54393 1088.48 9.54393 L1095.53 9.54393 Z" fill="#000000" fill-rule="nonzero" fill-opacity="1"></path><path clip-path="url(#clip190)" d="M1101.76 27.2059 L1109.22 27.2059 L1109.22 72.576 L1101.76 72.576 L1101.76 27.2059 M1101.76 9.54393 L1109.22 9.54393 L1109.22 18.9825 L1101.76 18.9825 L1101.76 9.54393 Z" fill="#000000" fill-rule="nonzero" fill-opacity="1"></path><path clip-path="url(#clip190)" d="M1151.1 34.1734 Q1149.85 33.4443 1148.35 33.1202 Q1146.89 32.7556 1145.11 32.7556 Q1138.79 32.7556 1135.39 36.8875 Q1132.02 40.9789 1132.02 48.6757 L1132.02 72.576 L1124.53 72.576 L1124.53 27.2059 L1132.02 27.2059 L1132.02 34.2544 Q1134.37 30.1225 1138.14 28.1376 Q1141.91 26.1121 1147.3 26.1121 Q1148.07 26.1121 1149 26.2337 Q1149.93 26.3147 1151.06 26.5172 L1151.1 34.1734 Z" fill="#000000" fill-rule="nonzero" fill-opacity="1"></path><path clip-path="url(#clip190)" d="M1187.85 28.5427 L1187.85 35.5912 Q1184.69 33.9709 1181.28 33.1607 Q1177.88 32.3505 1174.23 32.3505 Q1168.68 32.3505 1165.89 34.0519 Q1163.13 35.7533 1163.13 39.156 Q1163.13 41.7486 1165.12 43.2475 Q1167.1 44.7058 1173.1 46.0426 L1175.65 46.6097 Q1183.59 48.3111 1186.91 51.4303 Q1190.28 54.509 1190.28 60.0587 Q1190.28 66.3781 1185.25 70.0644 Q1180.27 73.7508 1171.52 73.7508 Q1167.87 73.7508 1163.9 73.0216 Q1159.97 72.3329 1155.6 70.9151 L1155.6 63.2184 Q1159.73 65.3654 1163.74 66.4591 Q1167.75 67.5124 1171.68 67.5124 Q1176.95 67.5124 1179.78 65.73 Q1182.62 63.9071 1182.62 60.6258 Q1182.62 57.5877 1180.55 55.9673 Q1178.53 54.3469 1171.6 52.8481 L1169.01 52.2405 Q1162.08 50.7821 1159 47.7845 Q1155.92 44.7463 1155.92 39.4801 Q1155.92 33.0797 1160.46 29.5959 Q1165 26.1121 1173.34 26.1121 Q1177.47 26.1121 1181.12 26.7198 Q1184.77 27.3274 1187.85 28.5427 Z" fill="#000000" fill-rule="nonzero" fill-opacity="1"></path><path clip-path="url(#clip190)" d="M1209.52 14.324 L1209.52 27.2059 L1224.87 27.2059 L1224.87 32.9987 L1209.52 32.9987 L1209.52 57.6282 Q1209.52 63.1779 1211.02 64.7578 Q1212.56 66.3376 1217.21 66.3376 L1224.87 66.3376 L1224.87 72.576 L1217.21 72.576 Q1208.59 72.576 1205.3 69.3758 Q1202.02 66.1351 1202.02 57.6282 L1202.02 32.9987 L1196.55 32.9987 L1196.55 27.2059 L1202.02 27.2059 L1202.02 14.324 L1209.52 14.324 Z" fill="#000000" fill-rule="nonzero" fill-opacity="1"></path><path clip-path="url(#clip190)" d="M1290.9 34.0924 L1290.9 9.54393 L1298.35 9.54393 L1298.35 72.576 L1290.9 72.576 L1290.9 65.7705 Q1288.55 69.8214 1284.95 71.8063 Q1281.38 73.7508 1276.36 73.7508 Q1268.13 73.7508 1262.95 67.1883 Q1257.8 60.6258 1257.8 49.9314 Q1257.8 39.2371 1262.95 32.6746 Q1268.13 26.1121 1276.36 26.1121 Q1281.38 26.1121 1284.95 28.0971 Q1288.55 30.0415 1290.9 34.0924 M1265.5 49.9314 Q1265.5 58.1548 1268.86 62.8538 Q1272.27 67.5124 1278.18 67.5124 Q1284.09 67.5124 1287.5 62.8538 Q1290.9 58.1548 1290.9 49.9314 Q1290.9 41.7081 1287.5 37.0496 Q1284.09 32.3505 1278.18 32.3505 Q1272.27 32.3505 1268.86 37.0496 Q1265.5 41.7081 1265.5 49.9314 Z" fill="#000000" fill-rule="nonzero" fill-opacity="1"></path><path clip-path="url(#clip190)" d="M1352.51 48.0275 L1352.51 51.6733 L1318.24 51.6733 Q1318.73 59.3701 1322.86 63.421 Q1327.03 67.4314 1334.45 67.4314 Q1338.74 67.4314 1342.75 66.3781 Q1346.8 65.3249 1350.77 63.2184 L1350.77 70.267 Q1346.76 71.9684 1342.55 72.8596 Q1338.34 73.7508 1334 73.7508 Q1323.15 73.7508 1316.79 67.4314 Q1310.47 61.1119 1310.47 50.3365 Q1310.47 39.1965 1316.46 32.6746 Q1322.5 26.1121 1332.71 26.1121 Q1341.86 26.1121 1347.17 32.0264 Q1352.51 37.9003 1352.51 48.0275 M1345.06 45.84 Q1344.98 39.7232 1341.62 36.0774 Q1338.3 32.4315 1332.79 32.4315 Q1326.55 32.4315 1322.78 35.9558 Q1319.05 39.4801 1318.49 45.8805 L1345.06 45.84 Z" fill="#000000" fill-rule="nonzero" fill-opacity="1"></path><path clip-path="url(#clip190)" d="M1393.67 28.5427 L1393.67 35.5912 Q1390.51 33.9709 1387.11 33.1607 Q1383.71 32.3505 1380.06 32.3505 Q1374.51 32.3505 1371.72 34.0519 Q1368.96 35.7533 1368.96 39.156 Q1368.96 41.7486 1370.95 43.2475 Q1372.93 44.7058 1378.93 46.0426 L1381.48 46.6097 Q1389.42 48.3111 1392.74 51.4303 Q1396.1 54.509 1396.1 60.0587 Q1396.1 66.3781 1391.08 70.0644 Q1386.1 73.7508 1377.35 73.7508 Q1373.7 73.7508 1369.73 73.0216 Q1365.8 72.3329 1361.43 70.9151 L1361.43 63.2184 Q1365.56 65.3654 1369.57 66.4591 Q1373.58 67.5124 1377.51 67.5124 Q1382.77 67.5124 1385.61 65.73 Q1388.45 63.9071 1388.45 60.6258 Q1388.45 57.5877 1386.38 55.9673 Q1384.35 54.3469 1377.43 52.8481 L1374.83 52.2405 Q1367.91 50.7821 1364.83 47.7845 Q1361.75 44.7463 1361.75 39.4801 Q1361.75 33.0797 1366.29 29.5959 Q1370.82 26.1121 1379.17 26.1121 Q1383.3 26.1121 1386.95 26.7198 Q1390.59 27.3274 1393.67 28.5427 Z" fill="#000000" fill-rule="nonzero" fill-opacity="1"></path><path clip-path="url(#clip190)" d="M1407.97 27.2059 L1415.42 27.2059 L1415.42 72.576 L1407.97 72.576 L1407.97 27.2059 M1407.97 9.54393 L1415.42 9.54393 L1415.42 18.9825 L1407.97 18.9825 L1407.97 9.54393 Z" fill="#000000" fill-rule="nonzero" fill-opacity="1"></path><path clip-path="url(#clip190)" d="M1460.88 49.3643 Q1460.88 41.2625 1457.51 36.8065 Q1454.19 32.3505 1448.16 32.3505 Q1442.16 32.3505 1438.8 36.8065 Q1435.48 41.2625 1435.48 49.3643 Q1435.48 57.4256 1438.8 61.8816 Q1442.16 66.3376 1448.16 66.3376 Q1454.19 66.3376 1457.51 61.8816 Q1460.88 57.4256 1460.88 49.3643 M1468.33 66.9452 Q1468.33 78.5308 1463.19 84.1616 Q1458.04 89.8329 1447.43 89.8329 Q1443.5 89.8329 1440.01 89.2252 Q1436.53 88.6581 1433.25 87.4428 L1433.25 80.1917 Q1436.53 81.9741 1439.73 82.8248 Q1442.93 83.6755 1446.25 83.6755 Q1453.58 83.6755 1457.23 79.8271 Q1460.88 76.0193 1460.88 68.282 L1460.88 64.5957 Q1458.57 68.6061 1454.96 70.5911 Q1451.36 72.576 1446.33 72.576 Q1437.99 72.576 1432.88 66.2161 Q1427.78 59.8562 1427.78 49.3643 Q1427.78 38.832 1432.88 32.472 Q1437.99 26.1121 1446.33 26.1121 Q1451.36 26.1121 1454.96 28.0971 Q1458.57 30.082 1460.88 34.0924 L1460.88 27.2059 L1468.33 27.2059 L1468.33 66.9452 Z" fill="#000000" fill-rule="nonzero" fill-opacity="1"></path><path clip-path="url(#clip190)" d="M1521.4 45.1919 L1521.4 72.576 L1513.94 72.576 L1513.94 45.4349 Q1513.94 38.994 1511.43 35.7938 Q1508.92 32.5936 1503.9 32.5936 Q1497.86 32.5936 1494.38 36.4419 Q1490.89 40.2903 1490.89 46.9338 L1490.89 72.576 L1483.4 72.576 L1483.4 27.2059 L1490.89 27.2059 L1490.89 34.2544 Q1493.57 30.163 1497.17 28.1376 Q1500.82 26.1121 1505.56 26.1121 Q1513.38 26.1121 1517.39 30.9732 Q1521.4 35.7938 1521.4 45.1919 Z" fill="#000000" fill-rule="nonzero" fill-opacity="1"></path><polyline clip-path="url(#clip192)" style="stroke:#009af9; stroke-linecap:round; stroke-linejoin:round; stroke-width:4; stroke-opacity:1; fill:none" points="295.211,890.313 297.209,918.449 299.207,951.027 301.204,967.317 303.202,988.048 305.199,1007.3 307.197,1026.55 309.195,1035.44 311.192,1051.72 313.19,1069.49 315.187,1082.82 317.185,1093.19 319.183,1112.44 321.18,1128.73 323.178,1137.61 325.176,1146.5 327.173,1152.42 329.171,1158.35 331.168,1165.75 333.166,1173.15 335.164,1185 337.161,1196.85 339.159,1216.1 341.157,1220.54 343.154,1223.5 345.152,1229.43 347.149,1235.35 349.147,1242.75 351.145,1250.16 353.142,1257.56 355.14,1263.49 357.137,1272.37 359.135,1279.77 361.133,1288.66 363.13,1297.54 365.128,1301.99 367.126,1304.95 369.123,1306.43 371.121,1312.35 373.118,1313.83 375.116,1318.28 377.114,1318.28 379.111,1319.76 381.109,1321.24 383.106,1322.72 385.104,1325.68 387.102,1327.16 389.099,1327.16 391.097,1328.64 393.095,1333.09 395.092,1334.57 397.09,1334.57 399.087,1339.01 401.085,1344.93 403.083,1344.93 405.08,1346.41 407.078,1349.37 409.075,1349.37 411.073,1349.37 413.071,1349.37 415.068,1350.86 417.066,1350.86 419.064,1352.34 421.061,1355.3 423.059,1358.26 425.056,1361.22 427.054,1365.66 429.052,1365.66 431.049,1367.14 433.047,1367.14 435.044,1367.14 437.042,1368.63 439.04,1370.11 441.037,1370.11 443.035,1370.11 445.033,1370.11 447.03,1370.11 449.028,1371.59 451.025,1371.59 453.023,1373.07 455.021,1373.07 457.018,1376.03 459.016,1376.03 461.013,1376.03 463.011,1376.03 465.009,1376.03 467.006,1376.03 469.004,1377.51 471.002,1377.51 472.999,1377.51 474.997,1377.51 476.994,1377.51 478.992,1377.51 480.99,1377.51 482.987,1377.51 484.985,1377.51 486.982,1378.99 488.98,1378.99 490.978,1378.99 492.975,1378.99 494.973,1378.99 496.971,1378.99 498.968,1378.99 500.966,1378.99 502.963,1378.99 504.961,1378.99 506.959,1378.99 508.956,1380.47 510.954,1380.47 512.951,1381.95 514.949,1384.91 516.947,1384.91 518.944,1384.91 520.942,1384.91 522.94,1384.91 524.937,1384.91 526.935,1384.91 528.932,1384.91 530.93,1384.91 532.928,1384.91 534.925,1384.91 536.923,1384.91 538.92,1384.91 540.918,1384.91 542.916,1384.91 544.913,1384.91 546.911,1384.91 548.909,1384.91 550.906,1384.91 552.904,1384.91 554.901,1384.91 556.899,1384.91 558.897,1384.91 560.894,1384.91 562.892,1384.91 564.89,1384.91 566.887,1384.91 568.885,1384.91 570.882,1384.91 572.88,1384.91 574.878,1384.91 576.875,1384.91 578.873,1384.91 580.87,1384.91 582.868,1384.91 584.866,1384.91 586.863,1384.91 588.861,1384.91 590.859,1384.91 592.856,1384.91 594.854,1384.91 596.851,1384.91 598.849,1384.91 600.847,1384.91 602.844,1384.91 604.842,1384.91 606.839,1384.91 608.837,1384.91 610.835,1384.91 612.832,1384.91 614.83,1384.91 616.828,1384.91 618.825,1384.91 620.823,1384.91 622.82,1384.91 624.818,1384.91 626.816,1384.91 628.813,1384.91 630.811,1384.91 632.808,1384.91 634.806,1384.91 636.804,1384.91 638.801,1384.91 640.799,1384.91 642.797,1384.91 644.794,1384.91 646.792,1384.91 648.789,1383.43 650.787,1377.51 652.785,1374.55 654.782,1373.07 656.78,1371.59 658.777,1368.63 660.775,1365.66 662.773,1364.18 664.77,1365.66 666.768,1356.78 668.766,1341.97 670.763,1324.2 672.761,1297.54 674.758,1275.33 676.756,1208.69 678.754,1177.6 680.751,1121.32 682.749,1075.42 684.746,1014.7 686.744,993.972 688.742,943.623 690.739,897.717 692.737,845.887 694.735,814.79 696.732,789.615 698.73,754.075 700.727,727.42 702.725,700.765 704.723,678.552 706.72,653.378 708.718,620.799 710.715,601.548 712.713,580.816 714.711,540.833 716.708,506.774 718.706,505.293 720.704,466.791 722.701,454.944 724.699,465.31 726.696,471.234 728.694,465.31 730.692,468.272 732.689,453.464 734.687,444.578 736.684,431.251 738.682,425.327 740.68,416.442 742.677,413.481 744.675,410.519 746.673,386.826 748.67,389.787 750.668,377.94 752.665,348.324 754.663,326.111 756.661,317.226 758.658,317.226 760.656,309.822 762.653,296.494 764.651,271.32 766.649,249.107 768.646,226.894 770.644,207.643 772.642,200.239 774.639,194.316 776.637,200.239 778.634,182.469 780.632,172.103 782.63,160.256 784.627,160.256 786.625,161.737 788.623,163.218 790.62,166.18 792.618,166.18 794.615,178.026 796.613,175.065 798.611,186.912 800.608,186.912 802.606,207.643 804.603,209.124 806.601,207.643 808.599,240.222 810.596,263.915 812.594,284.647 814.592,280.205 816.589,280.205 818.587,266.877 820.584,262.435 822.582,289.09 824.58,315.745 826.577,336.477 828.575,380.902 830.572,422.366 832.57,469.753 834.568,512.697 836.565,557.123 838.563,603.029 840.561,626.722 842.558,668.186 844.556,703.726 846.553,745.19 848.551,779.249 850.549,810.347 852.546,838.483 854.544,860.696 856.541,888.832 858.539,906.602 860.537,924.372 862.534,939.181 864.532,965.836 866.53,991.01 868.527,1020.63 870.525,1036.92 872.522,1051.72 874.52,1065.05 876.518,1076.9 878.515,1090.23 880.513,1110.96 882.51,1125.77 884.508,1146.5 886.506,1156.86 888.503,1168.71 890.501,1183.52 892.499,1190.92 894.496,1201.29 896.494,1207.21 898.491,1222.02 900.489,1230.91 902.487,1233.87 904.484,1239.79 906.482,1244.23 908.479,1248.68 910.477,1251.64 912.475,1259.04 914.472,1264.97 916.47,1272.37 918.468,1273.85 920.465,1282.74 922.463,1288.66 924.46,1296.06 926.458,1301.99 928.456,1309.39 930.453,1313.83 932.451,1318.28 934.448,1321.24 936.446,1325.68 938.444,1330.12 940.441,1334.57 942.439,1334.57 944.437,1334.57 946.434,1336.05 948.432,1336.05 950.429,1339.01 952.427,1343.45 954.425,1346.41 956.422,1349.37 958.42,1350.86 960.417,1350.86 962.415,1353.82 964.413,1356.78 966.41,1362.7 968.408,1362.7 970.406,1364.18 972.403,1365.66 974.401,1367.14 976.398,1367.14 978.396,1368.63 980.394,1371.59 982.391,1371.59 984.389,1373.07 986.386,1373.07 988.384,1374.55 990.382,1374.55 992.379,1374.55 994.377,1374.55 996.375,1376.03 998.372,1376.03 1000.37,1376.03 1002.37,1376.03 1004.37,1377.51 1006.36,1377.51 1008.36,1378.99 1010.36,1378.99 1012.36,1380.47 1014.35,1380.47 1016.35,1380.47 1018.35,1380.47 1020.35,1380.47 1022.34,1380.47 1024.34,1381.95 1026.34,1381.95 1028.34,1383.43 1030.33,1384.91 1032.33,1384.91 1034.33,1384.91 1036.33,1384.91 1038.32,1384.91 1040.32,1384.91 1042.32,1384.91 1044.32,1384.91 1046.31,1386.4 1048.31,1386.4 1050.31,1386.4 1052.31,1386.4 1054.31,1386.4 1056.3,1386.4 1058.3,1386.4 1060.3,1386.4 1062.3,1386.4 1064.29,1386.4 1066.29,1386.4 1068.29,1386.4 1070.29,1386.4 1072.28,1386.4 1074.28,1386.4 1076.28,1386.4 1078.28,1386.4 1080.27,1386.4 1082.27,1386.4 1084.27,1386.4 1086.27,1386.4 1088.26,1386.4 1090.26,1386.4 1092.26,1386.4 1094.26,1386.4 1096.26,1386.4 1098.25,1386.4 1100.25,1386.4 1102.25,1386.4 1104.25,1386.4 1106.24,1386.4 1108.24,1386.4 1110.24,1386.4 1112.24,1386.4 1114.23,1386.4 1116.23,1386.4 1118.23,1386.4 1120.23,1386.4 1122.22,1386.4 1124.22,1386.4 1126.22,1386.4 1128.22,1386.4 1130.21,1386.4 1132.21,1386.4 1134.21,1386.4 1136.21,1386.4 1138.21,1386.4 1140.2,1386.4 1142.2,1386.4 1144.2,1386.4 1146.2,1386.4 1148.19,1386.4 1150.19,1386.4 1152.19,1386.4 1154.19,1386.4 1156.18,1386.4 1158.18,1386.4 1160.18,1386.4 1162.18,1386.4 1164.17,1386.4 1166.17,1386.4 1168.17,1386.4 1170.17,1386.4 1172.16,1386.4 1174.16,1386.4 1176.16,1386.4 1178.16,1386.4 1180.16,1386.4 1182.15,1386.4 1184.15,1386.4 1186.15,1386.4 1188.15,1386.4 1190.14,1386.4 1192.14,1384.91 1194.14,1384.91 1196.14,1384.91 1198.13,1383.43 1200.13,1383.43 1202.13,1381.95 1204.13,1377.51 1206.12,1377.51 1208.12,1376.03 1210.12,1376.03 1212.12,1374.55 1214.11,1371.59 1216.11,1368.63 1218.11,1362.7 1220.11,1361.22 1222.11,1359.74 1224.1,1353.82 1226.1,1353.82 1228.1,1356.78 1230.1,1346.41 1232.09,1337.53 1234.09,1337.53 1236.09,1330.12 1238.09,1322.72 1240.08,1316.8 1242.08,1313.83 1244.08,1316.8 1246.08,1306.43 1248.07,1293.1 1250.07,1293.1 1252.07,1291.62 1254.07,1282.74 1256.06,1276.81 1258.06,1259.04 1260.06,1251.64 1262.06,1245.72 1264.06,1229.43 1266.05,1213.14 1268.05,1207.21 1270.05,1213.14 1272.05,1202.77 1274.04,1187.96 1276.04,1189.44 1278.04,1186.48 1280.04,1182.04 1282.03,1168.71 1284.03,1153.9 1286.03,1162.79 1288.03,1159.83 1290.02,1146.5 1292.02,1131.69 1294.02,1125.77 1296.02,1121.32 1298.01,1113.92 1300.01,1106.52 1302.01,1091.71 1304.01,1094.67 1306.01,1081.34 1308,1069.49 1310,1060.61 1312,1042.84 1314,1023.59 1315.99,1013.22 1317.99,1005.82 1319.99,993.972 1321.99,989.529 1323.98,973.24 1325.98,961.393 1327.98,943.623 1329.98,928.815 1331.97,905.121 1333.97,884.389 1335.97,857.734 1337.97,837.002 1339.96,826.636 1341.96,823.675 1343.96,805.905 1345.96,789.615 1347.96,779.249 1349.95,776.288 1351.95,768.883 1353.95,755.556 1355.95,730.381 1357.94,718.535 1359.94,715.573 1361.94,696.322 1363.94,682.994 1365.93,657.82 1367.93,629.684 1369.93,603.029 1371.93,564.527 1373.92,555.642 1375.92,531.948 1377.92,503.812 1379.92,496.408 1381.91,478.638 1383.91,505.293 1385.91,483.08 1387.91,460.868 1389.9,463.829 1391.9,474.195 1393.9,432.732 1395.9,422.366 1397.9,423.847 1399.89,407.557 1401.89,398.672 1403.89,386.826 1405.89,391.268 1407.88,358.689 1409.88,345.362 1411.88,351.285 1413.88,327.592 1415.87,342.4 1417.87,383.864 1419.87,417.923 1421.87,468.272 1423.86,506.774 1425.86,558.604 1427.86,594.144 1429.86,635.607 1431.85,669.667 1433.85,700.765 1435.85,737.786 1437.85,768.883 1439.85,807.385 1441.84,828.117 1443.84,856.253 1445.84,882.908 1447.84,897.717 1449.83,918.449 1451.83,943.623 1453.83,961.393 1455.83,985.087 1457.82,1001.38 1459.82,1026.55 1461.82,1039.88 1463.82,1057.65 1465.81,1073.94 1467.81,1091.71 1469.81,1103.55 1471.81,1121.32 1473.8,1127.25 1475.8,1140.58 1477.8,1153.9 1479.8,1176.12 1481.8,1183.52 1483.79,1198.33 1485.79,1207.21 1487.79,1210.18 1489.79,1223.5 1491.78,1227.95 1493.78,1235.35 1495.78,1250.16 1497.78,1250.16 1499.77,1253.12 1501.77,1257.56 1503.77,1262 1505.77,1267.93 1507.76,1270.89 1509.76,1272.37 1511.76,1284.22 1513.76,1287.18 1515.75,1293.1 1517.75,1296.06 1519.75,1299.03 1521.75,1303.47 1523.75,1304.95 1525.74,1307.91 1527.74,1312.35 1529.74,1312.35 1531.74,1313.83 1533.73,1316.8 1535.73,1321.24 1537.73,1324.2 1539.73,1325.68 1541.72,1330.12 1543.72,1330.12 1545.72,1331.6 1547.72,1334.57 1549.71,1337.53 1551.71,1339.01 1553.71,1339.01 1555.71,1340.49 1557.7,1341.97 1559.7,1343.45 1561.7,1346.41 1563.7,1350.86 1565.7,1353.82 1567.69,1353.82 1569.69,1355.3 1571.69,1355.3 1573.69,1356.78 1575.68,1358.26 1577.68,1361.22 1579.68,1362.7 1581.68,1362.7 1583.67,1365.66 1585.67,1367.14 1587.67,1368.63 1589.67,1368.63 1591.66,1368.63 1593.66,1368.63 1595.66,1370.11 1597.66,1370.11 1599.65,1370.11 1601.65,1370.11 1603.65,1370.11 1605.65,1370.11 1607.65,1370.11 1609.64,1370.11 1611.64,1370.11 1613.64,1370.11 1615.64,1370.11 1617.63,1373.07 1619.63,1374.55 1621.63,1376.03 1623.63,1377.51 1625.62,1377.51 1627.62,1378.99 1629.62,1378.99 1631.62,1378.99 1633.61,1378.99 1635.61,1378.99 1637.61,1378.99 1639.61,1378.99 1641.6,1381.95 1643.6,1381.95 1645.6,1381.95 1647.6,1381.95 1649.6,1383.43 1651.59,1383.43 1653.59,1383.43 1655.59,1384.91 1657.59,1384.91 1659.58,1384.91 1661.58,1384.91 1663.58,1384.91 1665.58,1384.91 1667.57,1384.91 1669.57,1384.91 1671.57,1384.91 1673.57,1384.91 1675.56,1384.91 1677.56,1384.91 1679.56,1384.91 1681.56,1384.91 1683.55,1383.43 1685.55,1383.43 1687.55,1383.43 1689.55,1383.43 1691.54,1383.43 1693.54,1383.43 1695.54,1383.43 1697.54,1383.43 1699.54,1384.91 1701.53,1384.91 1703.53,1384.91 1705.53,1384.91 1707.53,1384.91 1709.52,1384.91 1711.52,1384.91 1713.52,1384.91 1715.52,1384.91 1717.51,1384.91 1719.51,1384.91 1721.51,1384.91 1723.51,1384.91 1725.5,1384.91 1727.5,1384.91 1729.5,1384.91 1731.5,1384.91 1733.49,1386.4 1735.49,1386.4 1737.49,1386.4 1739.49,1386.4 1741.49,1386.4 1743.48,1386.4 1745.48,1386.4 1747.48,1386.4 1749.48,1386.4 1751.47,1386.4 1753.47,1386.4 1755.47,1386.4 1757.47,1386.4 1759.46,1386.4 1761.46,1386.4 1763.46,1386.4 1765.46,1386.4 1767.45,1386.4 1769.45,1386.4 1771.45,1386.4 1773.45,1386.4 1775.44,1386.4 1777.44,1386.4 1779.44,1386.4 1781.44,1386.4 1783.44,1386.4 1785.43,1386.4 1787.43,1386.4 1789.43,1386.4 1791.43,1386.4 1793.42,1386.4 1795.42,1386.4 1797.42,1386.4 1799.42,1386.4 1801.41,1386.4 1803.41,1386.4 1805.41,1386.4 1807.41,1386.4 1809.4,1386.4 1811.4,1386.4 1813.4,1386.4 1815.4,1386.4 1817.39,1386.4 1819.39,1386.4 1821.39,1386.4 1823.39,1386.4 1825.39,1386.4 1827.38,1386.4 1829.38,1386.4 1831.38,1386.4 1833.38,1386.4 1835.37,1386.4 1837.37,1386.4 1839.37,1381.95 1841.37,1377.51 1843.36,1373.07 1845.36,1362.7 1847.36,1359.74 1849.36,1350.86 1851.35,1343.45 1853.35,1339.01 1855.35,1333.09 1857.35,1327.16 1859.34,1316.8 1861.34,1315.32 1863.34,1315.32 1865.34,1304.95 1867.34,1303.47 1869.33,1304.95 1871.33,1296.06 1873.33,1269.41 1875.33,1248.68 1877.32,1208.69 1879.32,1179.08 1881.32,1131.69 1883.32,1096.15 1885.31,1059.13 1887.31,1026.55 1889.31,998.414 1891.31,976.202 1893.3,942.142 1895.3,911.045 1897.3,888.832 1899.3,835.521 1901.29,817.751 1903.29,783.692 1905.29,774.807 1907.29,751.113 1909.29,714.092 1911.28,685.956 1913.28,662.263 1915.28,637.088 1917.28,580.816 1919.27,564.527 1921.27,536.391 1923.27,520.102 1925.27,518.621 1927.26,512.697 1929.26,489.004 1931.26,483.08 1933.26,468.272 1935.25,456.425 1937.25,468.272 1939.25,468.272 1941.25,449.021 1943.24,429.77 1945.24,413.481 1947.24,406.077 1949.24,406.077 1951.24,403.115 1953.23,380.902 1955.23,380.902 1957.23,377.94 1959.23,358.689 1961.22,346.843 1963.22,329.073 1965.22,317.226 1967.22,308.341 1969.21,297.975 1971.21,265.396 1973.21,243.184 1975.21,252.069 1977.2,229.856 1979.2,241.703 1981.2,246.145 1983.2,235.779 1985.19,243.184 1987.19,219.49 1989.19,222.452 1991.19,223.933 1993.19,232.818 1995.18,213.567 1997.18,229.856 1999.18,241.703 2001.18,220.971 2003.17,228.375 2005.17,222.452 2007.17,223.933 2009.17,218.009 2011.16,222.452 2013.16,216.528 2015.16,219.49 2017.16,228.375 2019.15,223.933 2021.15,219.49 2023.15,237.26 2025.15,229.856 2027.14,223.933 2029.14,237.26 2031.14,243.184 2033.14,218.009 2035.13,235.779 2037.13,240.222 2039.13,232.818 2041.13,220.971 2043.13,218.009 2045.12,185.431 2047.12,204.682 2049.12,209.124 2051.12,204.682 2053.11,240.222 2055.11,286.128 2057.11,334.996 2059.11,395.711 2061.1,441.617 2063.1,502.331 2065.1,545.276 2067.1,583.778 2069.09,626.722 2071.09,654.858 2073.09,687.437 2075.09,721.496 2077.08,764.441 2079.08,786.654 2081.08,834.041 2083.08,854.772 2085.08,884.389 2087.07,897.717 2089.07,915.487 2091.07,939.181 2093.07,958.432 2095.06,982.125 2097.06,998.414 2099.06,1013.22 2101.06,1025.07 2103.05,1042.84 2105.05,1056.17 2107.05,1070.98 2109.05,1085.78 2111.04,1096.15 2113.04,1109.48 2115.04,1118.36 2117.04,1127.25 2119.03,1137.61 2121.03,1156.86 2123.03,1179.08 2125.03,1187.96 2127.03,1196.85 2129.02,1205.73 2131.02,1211.66 2133.02,1219.06 2135.02,1229.43 2137.01,1233.87 2139.01,1235.35 2141.01,1241.27 2143.01,1245.72 2145,1254.6 2147,1257.56 2149,1262 2151,1263.49 2152.99,1266.45 2154.99,1276.81 2156.99,1281.26 2158.99,1282.74 2160.98,1284.22 2162.98,1288.66 2164.98,1297.54 2166.98,1300.51 2168.98,1307.91 2170.97,1310.87 2172.97,1315.32 2174.97,1321.24 2176.97,1327.16 2178.96,1330.12 2180.96,1337.53 2182.96,1339.01 2184.96,1340.49 2186.95,1341.97 2188.95,1346.41 2190.95,1346.41 2192.95,1346.41 2194.94,1349.37 2196.94,1353.82 2198.94,1355.3 2200.94,1355.3 2202.93,1356.78 2204.93,1358.26 2206.93,1358.26 2208.93,1362.7 2210.93,1364.18 2212.92,1364.18 2214.92,1364.18 2216.92,1364.18 2218.92,1367.14 2220.91,1368.63 2222.91,1370.11 2224.91,1370.11 2226.91,1370.11 2228.9,1371.59 2230.9,1371.59 2232.9,1371.59 2234.9,1371.59 2236.89,1371.59 2238.89,1371.59 2240.89,1373.07 2242.89,1373.07 2244.88,1377.51 2246.88,1377.51 2248.88,1378.99 2250.88,1378.99 2252.88,1378.99 2254.87,1378.99 2256.87,1380.47 2258.87,1381.95 2260.87,1381.95 2262.86,1381.95 2264.86,1381.95 2266.86,1381.95 2268.86,1381.95 2270.85,1384.91 2272.85,1384.91 2274.85,1384.91 2276.85,1384.91 2278.84,1384.91 2280.84,1384.91 2282.84,1384.91 2284.84,1386.4 2286.83,1386.4 2288.83,1386.4 2290.83,1386.4 2292.83,1386.4 "></polyline>
</svg>