<svg xmlns="http://www.w3.org/2000/svg" xmlns:xlink="http://www.w3.org/1999/xlink" width="600" height="400" viewBox="0 0 2400 1600">
<defs>
  <clipPath id="clip430">
    <rect x="0" y="0" width="2400" height="1600"></rect>
  </clipPath>
</defs>
<path clip-path="url(#clip430)" d="M0 1600 L2400 1600 L2400 8.88178e-14 L0 8.88178e-14  Z" fill="#ffffff" fill-rule="evenodd" fill-opacity="1"></path>
<defs>
  <clipPath id="clip431">
    <rect x="480" y="0" width="1681" height="1600"></rect>
  </clipPath>
</defs>
<path clip-path="url(#clip430)" d="M235.283 1423.18 L2352.76 1423.18 L2352.76 123.472 L235.283 123.472  Z" fill="#ffffff" fill-rule="evenodd" fill-opacity="1"></path>
<defs>
  <clipPath id="clip432">
    <rect x="235" y="123" width="2118" height="1301"></rect>
  </clipPath>
</defs>
<polyline clip-path="url(#clip432)" style="stroke:#000000; stroke-linecap:round; stroke-linejoin:round; stroke-width:2; stroke-opacity:0.1; fill:none" points="293.214,1423.18 293.214,123.472 "></polyline>
<polyline clip-path="url(#clip432)" style="stroke:#000000; stroke-linecap:round; stroke-linejoin:round; stroke-width:2; stroke-opacity:0.1; fill:none" points="792.618,1423.18 792.618,123.472 "></polyline>
<polyline clip-path="url(#clip432)" style="stroke:#000000; stroke-linecap:round; stroke-linejoin:round; stroke-width:2; stroke-opacity:0.1; fill:none" points="1292.02,1423.18 1292.02,123.472 "></polyline>
<polyline clip-path="url(#clip432)" style="stroke:#000000; stroke-linecap:round; stroke-linejoin:round; stroke-width:2; stroke-opacity:0.1; fill:none" points="1791.43,1423.18 1791.43,123.472 "></polyline>
<polyline clip-path="url(#clip432)" style="stroke:#000000; stroke-linecap:round; stroke-linejoin:round; stroke-width:2; stroke-opacity:0.1; fill:none" points="2290.83,1423.18 2290.83,123.472 "></polyline>
<polyline clip-path="url(#clip432)" style="stroke:#000000; stroke-linecap:round; stroke-linejoin:round; stroke-width:2; stroke-opacity:0.1; fill:none" points="235.283,1386.4 2352.76,1386.4 "></polyline>
<polyline clip-path="url(#clip432)" style="stroke:#000000; stroke-linecap:round; stroke-linejoin:round; stroke-width:2; stroke-opacity:0.1; fill:none" points="235.283,1165.87 2352.76,1165.87 "></polyline>
<polyline clip-path="url(#clip432)" style="stroke:#000000; stroke-linecap:round; stroke-linejoin:round; stroke-width:2; stroke-opacity:0.1; fill:none" points="235.283,945.338 2352.76,945.338 "></polyline>
<polyline clip-path="url(#clip432)" style="stroke:#000000; stroke-linecap:round; stroke-linejoin:round; stroke-width:2; stroke-opacity:0.1; fill:none" points="235.283,724.81 2352.76,724.81 "></polyline>
<polyline clip-path="url(#clip432)" style="stroke:#000000; stroke-linecap:round; stroke-linejoin:round; stroke-width:2; stroke-opacity:0.1; fill:none" points="235.283,504.281 2352.76,504.281 "></polyline>
<polyline clip-path="url(#clip432)" style="stroke:#000000; stroke-linecap:round; stroke-linejoin:round; stroke-width:2; stroke-opacity:0.1; fill:none" points="235.283,283.752 2352.76,283.752 "></polyline>
<polyline clip-path="url(#clip430)" style="stroke:#000000; stroke-linecap:round; stroke-linejoin:round; stroke-width:4; stroke-opacity:1; fill:none" points="235.283,1423.18 2352.76,1423.18 "></polyline>
<polyline clip-path="url(#clip430)" style="stroke:#000000; stroke-linecap:round; stroke-linejoin:round; stroke-width:4; stroke-opacity:1; fill:none" points="293.214,1423.18 293.214,1404.28 "></polyline>
<polyline clip-path="url(#clip430)" style="stroke:#000000; stroke-linecap:round; stroke-linejoin:round; stroke-width:4; stroke-opacity:1; fill:none" points="792.618,1423.18 792.618,1404.28 "></polyline>
<polyline clip-path="url(#clip430)" style="stroke:#000000; stroke-linecap:round; stroke-linejoin:round; stroke-width:4; stroke-opacity:1; fill:none" points="1292.02,1423.18 1292.02,1404.28 "></polyline>
<polyline clip-path="url(#clip430)" style="stroke:#000000; stroke-linecap:round; stroke-linejoin:round; stroke-width:4; stroke-opacity:1; fill:none" points="1791.43,1423.18 1791.43,1404.28 "></polyline>
<polyline clip-path="url(#clip430)" style="stroke:#000000; stroke-linecap:round; stroke-linejoin:round; stroke-width:4; stroke-opacity:1; fill:none" points="2290.83,1423.18 2290.83,1404.28 "></polyline>
<path clip-path="url(#clip430)" d="M293.214 1454.1 Q289.603 1454.1 287.774 1457.66 Q285.968 1461.2 285.968 1468.33 Q285.968 1475.44 287.774 1479.01 Q289.603 1482.55 293.214 1482.55 Q296.848 1482.55 298.654 1479.01 Q300.482 1475.44 300.482 1468.33 Q300.482 1461.2 298.654 1457.66 Q296.848 1454.1 293.214 1454.1 M293.214 1450.39 Q299.024 1450.39 302.079 1455 Q305.158 1459.58 305.158 1468.33 Q305.158 1477.06 302.079 1481.67 Q299.024 1486.25 293.214 1486.25 Q287.404 1486.25 284.325 1481.67 Q281.269 1477.06 281.269 1468.33 Q281.269 1459.58 284.325 1455 Q287.404 1450.39 293.214 1450.39 Z" fill="#000000" fill-rule="nonzero" fill-opacity="1"></path><path clip-path="url(#clip430)" d="M756.31 1481.64 L772.629 1481.64 L772.629 1485.58 L750.685 1485.58 L750.685 1481.64 Q753.347 1478.89 757.93 1474.26 Q762.537 1469.61 763.717 1468.27 Q765.963 1465.74 766.842 1464.01 Q767.745 1462.25 767.745 1460.56 Q767.745 1457.8 765.801 1456.07 Q763.879 1454.33 760.778 1454.33 Q758.579 1454.33 756.125 1455.09 Q753.694 1455.86 750.917 1457.41 L750.917 1452.69 Q753.741 1451.55 756.194 1450.97 Q758.648 1450.39 760.685 1450.39 Q766.055 1450.39 769.25 1453.08 Q772.444 1455.77 772.444 1460.26 Q772.444 1462.39 771.634 1464.31 Q770.847 1466.2 768.741 1468.8 Q768.162 1469.47 765.06 1472.69 Q761.958 1475.88 756.31 1481.64 Z" fill="#000000" fill-rule="nonzero" fill-opacity="1"></path><path clip-path="url(#clip430)" d="M782.49 1451.02 L800.847 1451.02 L800.847 1454.96 L786.773 1454.96 L786.773 1463.43 Q787.791 1463.08 788.81 1462.92 Q789.828 1462.73 790.847 1462.73 Q796.634 1462.73 800.014 1465.9 Q803.393 1469.08 803.393 1474.49 Q803.393 1480.07 799.921 1483.17 Q796.449 1486.25 790.129 1486.25 Q787.953 1486.25 785.685 1485.88 Q783.44 1485.51 781.032 1484.77 L781.032 1480.07 Q783.115 1481.2 785.338 1481.76 Q787.56 1482.32 790.037 1482.32 Q794.041 1482.32 796.379 1480.21 Q798.717 1478.1 798.717 1474.49 Q798.717 1470.88 796.379 1468.77 Q794.041 1466.67 790.037 1466.67 Q788.162 1466.67 786.287 1467.08 Q784.435 1467.5 782.49 1468.38 L782.49 1451.02 Z" fill="#000000" fill-rule="nonzero" fill-opacity="1"></path><path clip-path="url(#clip430)" d="M822.606 1454.1 Q818.995 1454.1 817.166 1457.66 Q815.361 1461.2 815.361 1468.33 Q815.361 1475.44 817.166 1479.01 Q818.995 1482.55 822.606 1482.55 Q826.24 1482.55 828.046 1479.01 Q829.874 1475.44 829.874 1468.33 Q829.874 1461.2 828.046 1457.66 Q826.24 1454.1 822.606 1454.1 M822.606 1450.39 Q828.416 1450.39 831.472 1455 Q834.55 1459.58 834.55 1468.33 Q834.55 1477.06 831.472 1481.67 Q828.416 1486.25 822.606 1486.25 Q816.796 1486.25 813.717 1481.67 Q810.662 1477.06 810.662 1468.33 Q810.662 1459.58 813.717 1455 Q816.796 1450.39 822.606 1450.39 Z" fill="#000000" fill-rule="nonzero" fill-opacity="1"></path><path clip-path="url(#clip430)" d="M1251.64 1451.02 L1270 1451.02 L1270 1454.96 L1255.92 1454.96 L1255.92 1463.43 Q1256.94 1463.08 1257.96 1462.92 Q1258.98 1462.73 1260 1462.73 Q1265.78 1462.73 1269.16 1465.9 Q1272.54 1469.08 1272.54 1474.49 Q1272.54 1480.07 1269.07 1483.17 Q1265.6 1486.25 1259.28 1486.25 Q1257.1 1486.25 1254.83 1485.88 Q1252.59 1485.51 1250.18 1484.77 L1250.18 1480.07 Q1252.27 1481.2 1254.49 1481.76 Q1256.71 1482.32 1259.19 1482.32 Q1263.19 1482.32 1265.53 1480.21 Q1267.87 1478.1 1267.87 1474.49 Q1267.87 1470.88 1265.53 1468.77 Q1263.19 1466.67 1259.19 1466.67 Q1257.31 1466.67 1255.44 1467.08 Q1253.58 1467.5 1251.64 1468.38 L1251.64 1451.02 Z" fill="#000000" fill-rule="nonzero" fill-opacity="1"></path><path clip-path="url(#clip430)" d="M1291.76 1454.1 Q1288.14 1454.1 1286.32 1457.66 Q1284.51 1461.2 1284.51 1468.33 Q1284.51 1475.44 1286.32 1479.01 Q1288.14 1482.55 1291.76 1482.55 Q1295.39 1482.55 1297.2 1479.01 Q1299.02 1475.44 1299.02 1468.33 Q1299.02 1461.2 1297.2 1457.66 Q1295.39 1454.1 1291.76 1454.1 M1291.76 1450.39 Q1297.57 1450.39 1300.62 1455 Q1303.7 1459.58 1303.7 1468.33 Q1303.7 1477.06 1300.62 1481.67 Q1297.57 1486.25 1291.76 1486.25 Q1285.95 1486.25 1282.87 1481.67 Q1279.81 1477.06 1279.81 1468.33 Q1279.81 1459.58 1282.87 1455 Q1285.95 1450.39 1291.76 1450.39 Z" fill="#000000" fill-rule="nonzero" fill-opacity="1"></path><path clip-path="url(#clip430)" d="M1321.92 1454.1 Q1318.31 1454.1 1316.48 1457.66 Q1314.67 1461.2 1314.67 1468.33 Q1314.67 1475.44 1316.48 1479.01 Q1318.31 1482.55 1321.92 1482.55 Q1325.55 1482.55 1327.36 1479.01 Q1329.19 1475.44 1329.19 1468.33 Q1329.19 1461.2 1327.36 1457.66 Q1325.55 1454.1 1321.92 1454.1 M1321.92 1450.39 Q1327.73 1450.39 1330.78 1455 Q1333.86 1459.58 1333.86 1468.33 Q1333.86 1477.06 1330.78 1481.67 Q1327.73 1486.25 1321.92 1486.25 Q1316.11 1486.25 1313.03 1481.67 Q1309.97 1477.06 1309.97 1468.33 Q1309.97 1459.58 1313.03 1455 Q1316.11 1450.39 1321.92 1450.39 Z" fill="#000000" fill-rule="nonzero" fill-opacity="1"></path><path clip-path="url(#clip430)" d="M1749.7 1451.02 L1771.92 1451.02 L1771.92 1453.01 L1759.38 1485.58 L1754.49 1485.58 L1766.3 1454.96 L1749.7 1454.96 L1749.7 1451.02 Z" fill="#000000" fill-rule="nonzero" fill-opacity="1"></path><path clip-path="url(#clip430)" d="M1781.09 1451.02 L1799.45 1451.02 L1799.45 1454.96 L1785.37 1454.96 L1785.37 1463.43 Q1786.39 1463.08 1787.41 1462.92 Q1788.43 1462.73 1789.45 1462.73 Q1795.23 1462.73 1798.61 1465.9 Q1801.99 1469.08 1801.99 1474.49 Q1801.99 1480.07 1798.52 1483.17 Q1795.05 1486.25 1788.73 1486.25 Q1786.55 1486.25 1784.28 1485.88 Q1782.04 1485.51 1779.63 1484.77 L1779.63 1480.07 Q1781.72 1481.2 1783.94 1481.76 Q1786.16 1482.32 1788.64 1482.32 Q1792.64 1482.32 1794.98 1480.21 Q1797.32 1478.1 1797.32 1474.49 Q1797.32 1470.88 1794.98 1468.77 Q1792.64 1466.67 1788.64 1466.67 Q1786.76 1466.67 1784.89 1467.08 Q1783.03 1467.5 1781.09 1468.38 L1781.09 1451.02 Z" fill="#000000" fill-rule="nonzero" fill-opacity="1"></path><path clip-path="url(#clip430)" d="M1821.21 1454.1 Q1817.59 1454.1 1815.77 1457.66 Q1813.96 1461.2 1813.96 1468.33 Q1813.96 1475.44 1815.77 1479.01 Q1817.59 1482.55 1821.21 1482.55 Q1824.84 1482.55 1826.65 1479.01 Q1828.47 1475.44 1828.47 1468.33 Q1828.47 1461.2 1826.65 1457.66 Q1824.84 1454.1 1821.21 1454.1 M1821.21 1450.39 Q1827.02 1450.39 1830.07 1455 Q1833.15 1459.58 1833.15 1468.33 Q1833.15 1477.06 1830.07 1481.67 Q1827.02 1486.25 1821.21 1486.25 Q1815.4 1486.25 1812.32 1481.67 Q1809.26 1477.06 1809.26 1468.33 Q1809.26 1459.58 1812.32 1455 Q1815.4 1450.39 1821.21 1450.39 Z" fill="#000000" fill-rule="nonzero" fill-opacity="1"></path><path clip-path="url(#clip430)" d="M2235.36 1481.64 L2242.99 1481.64 L2242.99 1455.28 L2234.68 1456.95 L2234.68 1452.69 L2242.95 1451.02 L2247.62 1451.02 L2247.62 1481.64 L2255.26 1481.64 L2255.26 1485.58 L2235.36 1485.58 L2235.36 1481.64 Z" fill="#000000" fill-rule="nonzero" fill-opacity="1"></path><path clip-path="url(#clip430)" d="M2274.71 1454.1 Q2271.1 1454.1 2269.27 1457.66 Q2267.46 1461.2 2267.46 1468.33 Q2267.46 1475.44 2269.27 1479.01 Q2271.1 1482.55 2274.71 1482.55 Q2278.34 1482.55 2280.15 1479.01 Q2281.98 1475.44 2281.98 1468.33 Q2281.98 1461.2 2280.15 1457.66 Q2278.34 1454.1 2274.71 1454.1 M2274.71 1450.39 Q2280.52 1450.39 2283.57 1455 Q2286.65 1459.58 2286.65 1468.33 Q2286.65 1477.06 2283.57 1481.67 Q2280.52 1486.25 2274.71 1486.25 Q2268.9 1486.25 2265.82 1481.67 Q2262.76 1477.06 2262.76 1468.33 Q2262.76 1459.58 2265.82 1455 Q2268.9 1450.39 2274.71 1450.39 Z" fill="#000000" fill-rule="nonzero" fill-opacity="1"></path><path clip-path="url(#clip430)" d="M2304.87 1454.1 Q2301.26 1454.1 2299.43 1457.66 Q2297.62 1461.2 2297.62 1468.33 Q2297.62 1475.44 2299.43 1479.01 Q2301.26 1482.55 2304.87 1482.55 Q2308.5 1482.55 2310.31 1479.01 Q2312.14 1475.44 2312.14 1468.33 Q2312.14 1461.2 2310.31 1457.66 Q2308.5 1454.1 2304.87 1454.1 M2304.87 1450.39 Q2310.68 1450.39 2313.73 1455 Q2316.81 1459.58 2316.81 1468.33 Q2316.81 1477.06 2313.73 1481.67 Q2310.68 1486.25 2304.87 1486.25 Q2299.06 1486.25 2295.98 1481.67 Q2292.92 1477.06 2292.92 1468.33 Q2292.92 1459.58 2295.98 1455 Q2299.06 1450.39 2304.87 1450.39 Z" fill="#000000" fill-rule="nonzero" fill-opacity="1"></path><path clip-path="url(#clip430)" d="M2335.03 1454.1 Q2331.42 1454.1 2329.59 1457.66 Q2327.79 1461.2 2327.79 1468.33 Q2327.79 1475.44 2329.59 1479.01 Q2331.42 1482.55 2335.03 1482.55 Q2338.67 1482.55 2340.47 1479.01 Q2342.3 1475.44 2342.3 1468.33 Q2342.3 1461.2 2340.47 1457.66 Q2338.67 1454.1 2335.03 1454.1 M2335.03 1450.39 Q2340.84 1450.39 2343.9 1455 Q2346.98 1459.58 2346.98 1468.33 Q2346.98 1477.06 2343.9 1481.67 Q2340.84 1486.25 2335.03 1486.25 Q2329.22 1486.25 2326.14 1481.67 Q2323.09 1477.06 2323.09 1468.33 Q2323.09 1459.58 2326.14 1455 Q2329.22 1450.39 2335.03 1450.39 Z" fill="#000000" fill-rule="nonzero" fill-opacity="1"></path><path clip-path="url(#clip430)" d="M1233.18 1522.27 L1233.18 1532.4 L1245.24 1532.4 L1245.24 1536.95 L1233.18 1536.95 L1233.18 1556.3 Q1233.18 1560.66 1234.36 1561.9 Q1235.57 1563.14 1239.23 1563.14 L1245.24 1563.14 L1245.24 1568.04 L1239.23 1568.04 Q1232.45 1568.04 1229.87 1565.53 Q1227.29 1562.98 1227.29 1556.3 L1227.29 1536.95 L1222.99 1536.95 L1222.99 1532.4 L1227.29 1532.4 L1227.29 1522.27 L1233.18 1522.27 Z" fill="#000000" fill-rule="nonzero" fill-opacity="1"></path><path clip-path="url(#clip430)" d="M1252.94 1532.4 L1258.8 1532.4 L1258.8 1568.04 L1252.94 1568.04 L1252.94 1532.4 M1252.94 1518.52 L1258.8 1518.52 L1258.8 1525.93 L1252.94 1525.93 L1252.94 1518.52 Z" fill="#000000" fill-rule="nonzero" fill-opacity="1"></path><path clip-path="url(#clip430)" d="M1298.81 1539.24 Q1301.01 1535.29 1304.06 1533.41 Q1307.12 1531.54 1311.25 1531.54 Q1316.82 1531.54 1319.85 1535.45 Q1322.87 1539.33 1322.87 1546.53 L1322.87 1568.04 L1316.98 1568.04 L1316.98 1546.72 Q1316.98 1541.59 1315.17 1539.11 Q1313.36 1536.63 1309.63 1536.63 Q1305.08 1536.63 1302.44 1539.65 Q1299.8 1542.68 1299.8 1547.9 L1299.8 1568.04 L1293.91 1568.04 L1293.91 1546.72 Q1293.91 1541.56 1292.09 1539.11 Q1290.28 1536.63 1286.49 1536.63 Q1282 1536.63 1279.36 1539.68 Q1276.72 1542.71 1276.72 1547.9 L1276.72 1568.04 L1270.83 1568.04 L1270.83 1532.4 L1276.72 1532.4 L1276.72 1537.93 Q1278.73 1534.66 1281.53 1533.1 Q1284.33 1531.54 1288.18 1531.54 Q1292.06 1531.54 1294.77 1533.51 Q1297.5 1535.48 1298.81 1539.24 Z" fill="#000000" fill-rule="nonzero" fill-opacity="1"></path><path clip-path="url(#clip430)" d="M1365.04 1548.76 L1365.04 1551.62 L1338.12 1551.62 Q1338.5 1557.67 1341.75 1560.85 Q1345.02 1564 1350.85 1564 Q1354.22 1564 1357.37 1563.17 Q1360.56 1562.35 1363.68 1560.69 L1363.68 1566.23 Q1360.53 1567.57 1357.21 1568.27 Q1353.9 1568.97 1350.5 1568.97 Q1341.97 1568.97 1336.97 1564 Q1332.01 1559.04 1332.01 1550.57 Q1332.01 1541.82 1336.72 1536.69 Q1341.46 1531.54 1349.48 1531.54 Q1356.67 1531.54 1360.84 1536.18 Q1365.04 1540.8 1365.04 1548.76 M1359.19 1547.04 Q1359.12 1542.23 1356.48 1539.37 Q1353.87 1536.5 1349.54 1536.5 Q1344.64 1536.5 1341.68 1539.27 Q1338.75 1542.04 1338.31 1547.07 L1359.19 1547.04 Z" fill="#000000" fill-rule="nonzero" fill-opacity="1"></path><polyline clip-path="url(#clip430)" style="stroke:#000000; stroke-linecap:round; stroke-linejoin:round; stroke-width:4; stroke-opacity:1; fill:none" points="235.283,1423.18 235.283,123.472 "></polyline>
<polyline clip-path="url(#clip430)" style="stroke:#000000; stroke-linecap:round; stroke-linejoin:round; stroke-width:4; stroke-opacity:1; fill:none" points="235.283,1386.4 254.18,1386.4 "></polyline>
<polyline clip-path="url(#clip430)" style="stroke:#000000; stroke-linecap:round; stroke-linejoin:round; stroke-width:4; stroke-opacity:1; fill:none" points="235.283,1165.87 254.18,1165.87 "></polyline>
<polyline clip-path="url(#clip430)" style="stroke:#000000; stroke-linecap:round; stroke-linejoin:round; stroke-width:4; stroke-opacity:1; fill:none" points="235.283,945.338 254.18,945.338 "></polyline>
<polyline clip-path="url(#clip430)" style="stroke:#000000; stroke-linecap:round; stroke-linejoin:round; stroke-width:4; stroke-opacity:1; fill:none" points="235.283,724.81 254.18,724.81 "></polyline>
<polyline clip-path="url(#clip430)" style="stroke:#000000; stroke-linecap:round; stroke-linejoin:round; stroke-width:4; stroke-opacity:1; fill:none" points="235.283,504.281 254.18,504.281 "></polyline>
<polyline clip-path="url(#clip430)" style="stroke:#000000; stroke-linecap:round; stroke-linejoin:round; stroke-width:4; stroke-opacity:1; fill:none" points="235.283,283.752 254.18,283.752 "></polyline>
<path clip-path="url(#clip430)" d="M187.338 1372.19 Q183.727 1372.19 181.899 1375.76 Q180.093 1379.3 180.093 1386.43 Q180.093 1393.54 181.899 1397.1 Q183.727 1400.64 187.338 1400.64 Q190.973 1400.64 192.778 1397.1 Q194.607 1393.54 194.607 1386.43 Q194.607 1379.3 192.778 1375.76 Q190.973 1372.19 187.338 1372.19 M187.338 1368.49 Q193.149 1368.49 196.204 1373.1 Q199.283 1377.68 199.283 1386.43 Q199.283 1395.16 196.204 1399.76 Q193.149 1404.35 187.338 1404.35 Q181.528 1404.35 178.45 1399.76 Q175.394 1395.16 175.394 1386.43 Q175.394 1377.68 178.45 1373.1 Q181.528 1368.49 187.338 1368.49 Z" fill="#000000" fill-rule="nonzero" fill-opacity="1"></path><path clip-path="url(#clip430)" d="M117.825 1179.21 L125.464 1179.21 L125.464 1152.85 L117.154 1154.51 L117.154 1150.25 L125.418 1148.59 L130.093 1148.59 L130.093 1179.21 L137.732 1179.21 L137.732 1183.15 L117.825 1183.15 L117.825 1179.21 Z" fill="#000000" fill-rule="nonzero" fill-opacity="1"></path><path clip-path="url(#clip430)" d="M157.177 1151.67 Q153.566 1151.67 151.737 1155.23 Q149.931 1158.77 149.931 1165.9 Q149.931 1173.01 151.737 1176.57 Q153.566 1180.11 157.177 1180.11 Q160.811 1180.11 162.616 1176.57 Q164.445 1173.01 164.445 1165.9 Q164.445 1158.77 162.616 1155.23 Q160.811 1151.67 157.177 1151.67 M157.177 1147.96 Q162.987 1147.96 166.042 1152.57 Q169.121 1157.15 169.121 1165.9 Q169.121 1174.63 166.042 1179.23 Q162.987 1183.82 157.177 1183.82 Q151.366 1183.82 148.288 1179.23 Q145.232 1174.63 145.232 1165.9 Q145.232 1157.15 148.288 1152.57 Q151.366 1147.96 157.177 1147.96 Z" fill="#000000" fill-rule="nonzero" fill-opacity="1"></path><path clip-path="url(#clip430)" d="M187.338 1151.67 Q183.727 1151.67 181.899 1155.23 Q180.093 1158.77 180.093 1165.9 Q180.093 1173.01 181.899 1176.57 Q183.727 1180.11 187.338 1180.11 Q190.973 1180.11 192.778 1176.57 Q194.607 1173.01 194.607 1165.9 Q194.607 1158.77 192.778 1155.23 Q190.973 1151.67 187.338 1151.67 M187.338 1147.96 Q193.149 1147.96 196.204 1152.57 Q199.283 1157.15 199.283 1165.9 Q199.283 1174.63 196.204 1179.23 Q193.149 1183.82 187.338 1183.82 Q181.528 1183.82 178.45 1179.23 Q175.394 1174.63 175.394 1165.9 Q175.394 1157.15 178.45 1152.57 Q181.528 1147.96 187.338 1147.96 Z" fill="#000000" fill-rule="nonzero" fill-opacity="1"></path><path clip-path="url(#clip430)" d="M121.043 958.683 L137.362 958.683 L137.362 962.618 L115.418 962.618 L115.418 958.683 Q118.08 955.929 122.663 951.299 Q127.269 946.646 128.45 945.304 Q130.695 942.78 131.575 941.044 Q132.478 939.285 132.478 937.595 Q132.478 934.841 130.533 933.105 Q128.612 931.369 125.51 931.369 Q123.311 931.369 120.857 932.132 Q118.427 932.896 115.649 934.447 L115.649 929.725 Q118.473 928.591 120.927 928.012 Q123.38 927.433 125.418 927.433 Q130.788 927.433 133.982 930.119 Q137.177 932.804 137.177 937.294 Q137.177 939.424 136.367 941.345 Q135.579 943.243 133.473 945.836 Q132.894 946.507 129.792 949.725 Q126.691 952.919 121.043 958.683 Z" fill="#000000" fill-rule="nonzero" fill-opacity="1"></path><path clip-path="url(#clip430)" d="M157.177 931.137 Q153.566 931.137 151.737 934.702 Q149.931 938.243 149.931 945.373 Q149.931 952.48 151.737 956.044 Q153.566 959.586 157.177 959.586 Q160.811 959.586 162.616 956.044 Q164.445 952.48 164.445 945.373 Q164.445 938.243 162.616 934.702 Q160.811 931.137 157.177 931.137 M157.177 927.433 Q162.987 927.433 166.042 932.04 Q169.121 936.623 169.121 945.373 Q169.121 954.1 166.042 958.706 Q162.987 963.29 157.177 963.29 Q151.366 963.29 148.288 958.706 Q145.232 954.1 145.232 945.373 Q145.232 936.623 148.288 932.04 Q151.366 927.433 157.177 927.433 Z" fill="#000000" fill-rule="nonzero" fill-opacity="1"></path><path clip-path="url(#clip430)" d="M187.338 931.137 Q183.727 931.137 181.899 934.702 Q180.093 938.243 180.093 945.373 Q180.093 952.48 181.899 956.044 Q183.727 959.586 187.338 959.586 Q190.973 959.586 192.778 956.044 Q194.607 952.48 194.607 945.373 Q194.607 938.243 192.778 934.702 Q190.973 931.137 187.338 931.137 M187.338 927.433 Q193.149 927.433 196.204 932.04 Q199.283 936.623 199.283 945.373 Q199.283 954.1 196.204 958.706 Q193.149 963.29 187.338 963.29 Q181.528 963.29 178.45 958.706 Q175.394 954.1 175.394 945.373 Q175.394 936.623 178.45 932.04 Q181.528 927.433 187.338 927.433 Z" fill="#000000" fill-rule="nonzero" fill-opacity="1"></path><path clip-path="url(#clip430)" d="M131.181 723.456 Q134.538 724.173 136.413 726.442 Q138.311 728.71 138.311 732.043 Q138.311 737.159 134.792 739.96 Q131.274 742.761 124.793 742.761 Q122.617 742.761 120.302 742.321 Q118.01 741.904 115.556 741.048 L115.556 736.534 Q117.501 737.668 119.816 738.247 Q122.13 738.826 124.654 738.826 Q129.052 738.826 131.343 737.09 Q133.658 735.354 133.658 732.043 Q133.658 728.988 131.505 727.275 Q129.376 725.539 125.556 725.539 L121.529 725.539 L121.529 721.696 L125.742 721.696 Q129.191 721.696 131.019 720.331 Q132.848 718.942 132.848 716.349 Q132.848 713.687 130.95 712.275 Q129.075 710.84 125.556 710.84 Q123.635 710.84 121.436 711.257 Q119.237 711.673 116.598 712.553 L116.598 708.386 Q119.26 707.645 121.575 707.275 Q123.913 706.905 125.973 706.905 Q131.297 706.905 134.399 709.335 Q137.501 711.743 137.501 715.863 Q137.501 718.733 135.857 720.724 Q134.214 722.692 131.181 723.456 Z" fill="#000000" fill-rule="nonzero" fill-opacity="1"></path><path clip-path="url(#clip430)" d="M157.177 710.608 Q153.566 710.608 151.737 714.173 Q149.931 717.715 149.931 724.844 Q149.931 731.951 151.737 735.516 Q153.566 739.057 157.177 739.057 Q160.811 739.057 162.616 735.516 Q164.445 731.951 164.445 724.844 Q164.445 717.715 162.616 714.173 Q160.811 710.608 157.177 710.608 M157.177 706.905 Q162.987 706.905 166.042 711.511 Q169.121 716.094 169.121 724.844 Q169.121 733.571 166.042 738.178 Q162.987 742.761 157.177 742.761 Q151.366 742.761 148.288 738.178 Q145.232 733.571 145.232 724.844 Q145.232 716.094 148.288 711.511 Q151.366 706.905 157.177 706.905 Z" fill="#000000" fill-rule="nonzero" fill-opacity="1"></path><path clip-path="url(#clip430)" d="M187.338 710.608 Q183.727 710.608 181.899 714.173 Q180.093 717.715 180.093 724.844 Q180.093 731.951 181.899 735.516 Q183.727 739.057 187.338 739.057 Q190.973 739.057 192.778 735.516 Q194.607 731.951 194.607 724.844 Q194.607 717.715 192.778 714.173 Q190.973 710.608 187.338 710.608 M187.338 706.905 Q193.149 706.905 196.204 711.511 Q199.283 716.094 199.283 724.844 Q199.283 733.571 196.204 738.178 Q193.149 742.761 187.338 742.761 Q181.528 742.761 178.45 738.178 Q175.394 733.571 175.394 724.844 Q175.394 716.094 178.45 711.511 Q181.528 706.905 187.338 706.905 Z" fill="#000000" fill-rule="nonzero" fill-opacity="1"></path><path clip-path="url(#clip430)" d="M129.862 491.075 L118.056 509.524 L129.862 509.524 L129.862 491.075 M128.635 487.001 L134.515 487.001 L134.515 509.524 L139.445 509.524 L139.445 513.413 L134.515 513.413 L134.515 521.561 L129.862 521.561 L129.862 513.413 L114.26 513.413 L114.26 508.899 L128.635 487.001 Z" fill="#000000" fill-rule="nonzero" fill-opacity="1"></path><path clip-path="url(#clip430)" d="M157.177 490.08 Q153.566 490.08 151.737 493.645 Q149.931 497.186 149.931 504.316 Q149.931 511.422 151.737 514.987 Q153.566 518.529 157.177 518.529 Q160.811 518.529 162.616 514.987 Q164.445 511.422 164.445 504.316 Q164.445 497.186 162.616 493.645 Q160.811 490.08 157.177 490.08 M157.177 486.376 Q162.987 486.376 166.042 490.982 Q169.121 495.566 169.121 504.316 Q169.121 513.043 166.042 517.649 Q162.987 522.232 157.177 522.232 Q151.366 522.232 148.288 517.649 Q145.232 513.043 145.232 504.316 Q145.232 495.566 148.288 490.982 Q151.366 486.376 157.177 486.376 Z" fill="#000000" fill-rule="nonzero" fill-opacity="1"></path><path clip-path="url(#clip430)" d="M187.338 490.08 Q183.727 490.08 181.899 493.645 Q180.093 497.186 180.093 504.316 Q180.093 511.422 181.899 514.987 Q183.727 518.529 187.338 518.529 Q190.973 518.529 192.778 514.987 Q194.607 511.422 194.607 504.316 Q194.607 497.186 192.778 493.645 Q190.973 490.08 187.338 490.08 M187.338 486.376 Q193.149 486.376 196.204 490.982 Q199.283 495.566 199.283 504.316 Q199.283 513.043 196.204 517.649 Q193.149 522.232 187.338 522.232 Q181.528 522.232 178.45 517.649 Q175.394 513.043 175.394 504.316 Q175.394 495.566 178.45 490.982 Q181.528 486.376 187.338 486.376 Z" fill="#000000" fill-rule="nonzero" fill-opacity="1"></path><path clip-path="url(#clip430)" d="M117.061 266.472 L135.417 266.472 L135.417 270.408 L121.343 270.408 L121.343 278.88 Q122.362 278.532 123.38 278.37 Q124.399 278.185 125.418 278.185 Q131.205 278.185 134.584 281.357 Q137.964 284.528 137.964 289.944 Q137.964 295.523 134.492 298.625 Q131.019 301.704 124.7 301.704 Q122.524 301.704 120.255 301.333 Q118.01 300.963 115.603 300.222 L115.603 295.523 Q117.686 296.657 119.908 297.213 Q122.13 297.768 124.607 297.768 Q128.612 297.768 130.95 295.662 Q133.288 293.556 133.288 289.944 Q133.288 286.333 130.95 284.227 Q128.612 282.12 124.607 282.12 Q122.732 282.12 120.857 282.537 Q119.006 282.954 117.061 283.833 L117.061 266.472 Z" fill="#000000" fill-rule="nonzero" fill-opacity="1"></path><path clip-path="url(#clip430)" d="M157.177 269.551 Q153.566 269.551 151.737 273.116 Q149.931 276.657 149.931 283.787 Q149.931 290.894 151.737 294.458 Q153.566 298 157.177 298 Q160.811 298 162.616 294.458 Q164.445 290.894 164.445 283.787 Q164.445 276.657 162.616 273.116 Q160.811 269.551 157.177 269.551 M157.177 265.847 Q162.987 265.847 166.042 270.454 Q169.121 275.037 169.121 283.787 Q169.121 292.514 166.042 297.12 Q162.987 301.704 157.177 301.704 Q151.366 301.704 148.288 297.12 Q145.232 292.514 145.232 283.787 Q145.232 275.037 148.288 270.454 Q151.366 265.847 157.177 265.847 Z" fill="#000000" fill-rule="nonzero" fill-opacity="1"></path><path clip-path="url(#clip430)" d="M187.338 269.551 Q183.727 269.551 181.899 273.116 Q180.093 276.657 180.093 283.787 Q180.093 290.894 181.899 294.458 Q183.727 298 187.338 298 Q190.973 298 192.778 294.458 Q194.607 290.894 194.607 283.787 Q194.607 276.657 192.778 273.116 Q190.973 269.551 187.338 269.551 M187.338 265.847 Q193.149 265.847 196.204 270.454 Q199.283 275.037 199.283 283.787 Q199.283 292.514 196.204 297.12 Q193.149 301.704 187.338 301.704 Q181.528 301.704 178.45 297.12 Q175.394 292.514 175.394 283.787 Q175.394 275.037 178.45 270.454 Q181.528 265.847 187.338 265.847 Z" fill="#000000" fill-rule="nonzero" fill-opacity="1"></path><path clip-path="url(#clip430)" d="M44.7161 911.525 L47.5806 911.525 L47.5806 938.452 Q53.6281 938.07 56.8109 934.824 Q59.9619 931.546 59.9619 925.721 Q59.9619 922.347 59.1344 919.196 Q58.3069 916.013 56.6518 912.894 L62.1899 912.894 Q63.5267 916.045 64.227 919.355 Q64.9272 922.665 64.9272 926.071 Q64.9272 934.601 59.9619 939.598 Q54.9967 944.563 46.5303 944.563 Q37.7774 944.563 32.6531 939.853 Q27.4968 935.11 27.4968 927.09 Q27.4968 919.896 32.1438 915.727 Q36.7589 911.525 44.7161 911.525 M42.9973 917.382 Q38.1912 917.446 35.3266 920.087 Q32.4621 922.697 32.4621 927.026 Q32.4621 931.928 35.2312 934.888 Q38.0002 937.816 43.0292 938.261 L42.9973 917.382 Z" fill="#000000" fill-rule="nonzero" fill-opacity="1"></path><path clip-path="url(#clip430)" d="M28.3562 873.427 L45.7028 886.317 L64.0042 872.758 L64.0042 879.665 L49.9996 890.041 L64.0042 900.417 L64.0042 907.324 L45.3526 893.479 L28.3562 906.146 L28.3562 899.24 L41.0558 889.787 L28.3562 880.334 L28.3562 873.427 Z" fill="#000000" fill-rule="nonzero" fill-opacity="1"></path><path clip-path="url(#clip430)" d="M58.657 858.817 L77.5631 858.817 L77.5631 864.706 L28.3562 864.706 L28.3562 858.817 L33.7671 858.817 Q30.5842 856.971 29.0564 854.17 Q27.4968 851.338 27.4968 847.423 Q27.4968 840.93 32.6531 836.888 Q37.8093 832.814 46.212 832.814 Q54.6147 832.814 59.771 836.888 Q64.9272 840.93 64.9272 847.423 Q64.9272 851.338 63.3994 854.17 Q61.8398 856.971 58.657 858.817 M46.212 838.893 Q39.7508 838.893 36.0905 841.566 Q32.3984 844.208 32.3984 848.855 Q32.3984 853.502 36.0905 856.176 Q39.7508 858.817 46.212 858.817 Q52.6732 858.817 56.3653 856.176 Q60.0256 853.502 60.0256 848.855 Q60.0256 844.208 56.3653 841.566 Q52.6732 838.893 46.212 838.893 Z" fill="#000000" fill-rule="nonzero" fill-opacity="1"></path><path clip-path="url(#clip430)" d="M33.8307 802.449 Q33.2578 803.436 33.0032 804.613 Q32.7167 805.759 32.7167 807.16 Q32.7167 812.125 35.9632 814.799 Q39.1779 817.44 45.2253 817.44 L64.0042 817.44 L64.0042 823.329 L28.3562 823.329 L28.3562 817.44 L33.8944 817.44 Q30.6479 815.594 29.0883 812.634 Q27.4968 809.674 27.4968 805.441 Q27.4968 804.836 27.5923 804.104 Q27.656 803.372 27.8151 802.481 L33.8307 802.449 Z" fill="#000000" fill-rule="nonzero" fill-opacity="1"></path><path clip-path="url(#clip430)" d="M44.7161 767.247 L47.5806 767.247 L47.5806 794.174 Q53.6281 793.792 56.8109 790.545 Q59.9619 787.267 59.9619 781.442 Q59.9619 778.068 59.1344 774.917 Q58.3069 771.735 56.6518 768.615 L62.1899 768.615 Q63.5267 771.766 64.227 775.077 Q64.9272 778.387 64.9272 781.792 Q64.9272 790.322 59.9619 795.32 Q54.9967 800.285 46.5303 800.285 Q37.7774 800.285 32.6531 795.574 Q27.4968 790.832 27.4968 782.811 Q27.4968 775.618 32.1438 771.448 Q36.7589 767.247 44.7161 767.247 M42.9973 773.103 Q38.1912 773.167 35.3266 775.809 Q32.4621 778.419 32.4621 782.747 Q32.4621 787.649 35.2312 790.609 Q38.0002 793.537 43.0292 793.983 L42.9973 773.103 Z" fill="#000000" fill-rule="nonzero" fill-opacity="1"></path><path clip-path="url(#clip430)" d="M29.4065 734.909 L34.9447 734.909 Q33.6716 737.392 33.035 740.065 Q32.3984 742.739 32.3984 745.603 Q32.3984 749.964 33.7352 752.16 Q35.072 754.324 37.7456 754.324 Q39.7826 754.324 40.9603 752.765 Q42.1061 751.205 43.1565 746.495 L43.6021 744.489 Q44.9389 738.251 47.3897 735.641 Q49.8086 732.999 54.1691 732.999 Q59.1344 732.999 62.0308 736.946 Q64.9272 740.861 64.9272 747.736 Q64.9272 750.6 64.3543 753.72 Q63.8132 756.807 62.6992 760.244 L56.6518 760.244 Q58.3387 756.998 59.198 753.847 Q60.0256 750.696 60.0256 747.609 Q60.0256 743.471 58.6251 741.243 Q57.1929 739.015 54.6147 739.015 Q52.2276 739.015 50.9545 740.638 Q49.6813 742.23 48.5037 747.672 L48.0262 749.709 Q46.8804 755.152 44.5251 757.571 Q42.138 759.99 38.0002 759.99 Q32.9713 759.99 30.2341 756.425 Q27.4968 752.86 27.4968 746.304 Q27.4968 743.057 27.9743 740.192 Q28.4517 737.328 29.4065 734.909 Z" fill="#000000" fill-rule="nonzero" fill-opacity="1"></path><path clip-path="url(#clip430)" d="M29.4065 700.948 L34.9447 700.948 Q33.6716 703.431 33.035 706.104 Q32.3984 708.778 32.3984 711.642 Q32.3984 716.003 33.7352 718.199 Q35.072 720.363 37.7456 720.363 Q39.7826 720.363 40.9603 718.804 Q42.1061 717.244 43.1565 712.533 L43.6021 710.528 Q44.9389 704.29 47.3897 701.68 Q49.8086 699.038 54.1691 699.038 Q59.1344 699.038 62.0308 702.985 Q64.9272 706.9 64.9272 713.775 Q64.9272 716.639 64.3543 719.759 Q63.8132 722.846 62.6992 726.283 L56.6518 726.283 Q58.3387 723.037 59.198 719.886 Q60.0256 716.735 60.0256 713.647 Q60.0256 709.51 58.6251 707.282 Q57.1929 705.054 54.6147 705.054 Q52.2276 705.054 50.9545 706.677 Q49.6813 708.268 48.5037 713.711 L48.0262 715.748 Q46.8804 721.191 44.5251 723.61 Q42.138 726.029 38.0002 726.029 Q32.9713 726.029 30.2341 722.464 Q27.4968 718.899 27.4968 712.343 Q27.4968 709.096 27.9743 706.231 Q28.4517 703.367 29.4065 700.948 Z" fill="#000000" fill-rule="nonzero" fill-opacity="1"></path><path clip-path="url(#clip430)" d="M28.3562 689.712 L28.3562 683.856 L64.0042 683.856 L64.0042 689.712 L28.3562 689.712 M14.479 689.712 L14.479 683.856 L21.895 683.856 L21.895 689.712 L14.479 689.712 Z" fill="#000000" fill-rule="nonzero" fill-opacity="1"></path><path clip-path="url(#clip430)" d="M32.4621 657.788 Q32.4621 662.499 36.1542 665.236 Q39.8145 667.974 46.212 667.974 Q52.6095 667.974 56.3017 665.268 Q59.9619 662.531 59.9619 657.788 Q59.9619 653.11 56.2698 650.372 Q52.5777 647.635 46.212 647.635 Q39.8781 647.635 36.186 650.372 Q32.4621 653.11 32.4621 657.788 M27.4968 657.788 Q27.4968 650.15 32.4621 645.789 Q37.4273 641.429 46.212 641.429 Q54.9649 641.429 59.9619 645.789 Q64.9272 650.15 64.9272 657.788 Q64.9272 665.459 59.9619 669.82 Q54.9649 674.148 46.212 674.148 Q37.4273 674.148 32.4621 669.82 Q27.4968 665.459 27.4968 657.788 Z" fill="#000000" fill-rule="nonzero" fill-opacity="1"></path><path clip-path="url(#clip430)" d="M42.4881 602.088 L64.0042 602.088 L64.0042 607.945 L42.679 607.945 Q37.6183 607.945 35.1038 609.918 Q32.5894 611.892 32.5894 615.838 Q32.5894 620.581 35.6131 623.318 Q38.6368 626.055 43.8567 626.055 L64.0042 626.055 L64.0042 631.944 L28.3562 631.944 L28.3562 626.055 L33.8944 626.055 Q30.6797 623.955 29.0883 621.122 Q27.4968 618.257 27.4968 614.533 Q27.4968 608.391 31.3163 605.24 Q35.1038 602.088 42.4881 602.088 Z" fill="#000000" fill-rule="nonzero" fill-opacity="1"></path><path clip-path="url(#clip430)" d="M1033.3 28.5427 L1033.3 35.5912 Q1030.14 33.9709 1026.74 33.1607 Q1023.34 32.3505 1019.69 32.3505 Q1014.14 32.3505 1011.35 34.0519 Q1008.59 35.7533 1008.59 39.156 Q1008.59 41.7486 1010.58 43.2475 Q1012.56 44.7058 1018.56 46.0426 L1021.11 46.6097 Q1029.05 48.3111 1032.37 51.4303 Q1035.73 54.509 1035.73 60.0587 Q1035.73 66.3781 1030.71 70.0644 Q1025.73 73.7508 1016.98 73.7508 Q1013.33 73.7508 1009.36 73.0216 Q1005.43 72.3329 1001.06 70.9151 L1001.06 63.2184 Q1005.19 65.3654 1009.2 66.4591 Q1013.21 67.5124 1017.14 67.5124 Q1022.41 67.5124 1025.24 65.73 Q1028.08 63.9071 1028.08 60.6258 Q1028.08 57.5877 1026.01 55.9673 Q1023.99 54.3469 1017.06 52.8481 L1014.47 52.2405 Q1007.54 50.7821 1004.46 47.7845 Q1001.38 44.7463 1001.38 39.4801 Q1001.38 33.0797 1005.92 29.5959 Q1010.46 26.1121 1018.8 26.1121 Q1022.93 26.1121 1026.58 26.7198 Q1030.22 27.3274 1033.3 28.5427 Z" fill="#000000" fill-rule="nonzero" fill-opacity="1"></path><path clip-path="url(#clip430)" d="M1086.41 48.0275 L1086.41 51.6733 L1052.14 51.6733 Q1052.63 59.3701 1056.76 63.421 Q1060.93 67.4314 1068.34 67.4314 Q1072.64 67.4314 1076.65 66.3781 Q1080.7 65.3249 1084.67 63.2184 L1084.67 70.267 Q1080.66 71.9684 1076.45 72.8596 Q1072.23 73.7508 1067.9 73.7508 Q1057.04 73.7508 1050.68 67.4314 Q1044.36 61.1119 1044.36 50.3365 Q1044.36 39.1965 1050.36 32.6746 Q1056.39 26.1121 1066.6 26.1121 Q1075.76 26.1121 1081.06 32.0264 Q1086.41 37.9003 1086.41 48.0275 M1078.96 45.84 Q1078.88 39.7232 1075.51 36.0774 Q1072.19 32.4315 1066.68 32.4315 Q1060.44 32.4315 1056.68 35.9558 Q1052.95 39.4801 1052.38 45.8805 L1078.96 45.84 Z" fill="#000000" fill-rule="nonzero" fill-opacity="1"></path><path clip-path="url(#clip430)" d="M1131.29 28.9478 L1131.29 35.9153 Q1128.13 34.1734 1124.93 33.3227 Q1121.77 32.4315 1118.53 32.4315 Q1111.28 32.4315 1107.27 37.0496 Q1103.26 41.6271 1103.26 49.9314 Q1103.26 58.2358 1107.27 62.8538 Q1111.28 67.4314 1118.53 67.4314 Q1121.77 67.4314 1124.93 66.5807 Q1128.13 65.6895 1131.29 63.9476 L1131.29 70.8341 Q1128.18 72.2924 1124.81 73.0216 Q1121.49 73.7508 1117.72 73.7508 Q1107.48 73.7508 1101.44 67.3098 Q1095.4 60.8689 1095.4 49.9314 Q1095.4 38.832 1101.48 32.472 Q1107.6 26.1121 1118.21 26.1121 Q1121.65 26.1121 1124.93 26.8413 Q1128.22 27.5299 1131.29 28.9478 Z" fill="#000000" fill-rule="nonzero" fill-opacity="1"></path><path clip-path="url(#clip430)" d="M1161.84 32.4315 Q1155.84 32.4315 1152.36 37.1306 Q1148.88 41.7891 1148.88 49.9314 Q1148.88 58.0738 1152.32 62.7728 Q1155.8 67.4314 1161.84 67.4314 Q1167.79 67.4314 1171.28 62.7323 Q1174.76 58.0333 1174.76 49.9314 Q1174.76 41.8701 1171.28 37.1711 Q1167.79 32.4315 1161.84 32.4315 M1161.84 26.1121 Q1171.56 26.1121 1177.11 32.4315 Q1182.66 38.7509 1182.66 49.9314 Q1182.66 61.0714 1177.11 67.4314 Q1171.56 73.7508 1161.84 73.7508 Q1152.08 73.7508 1146.53 67.4314 Q1141.02 61.0714 1141.02 49.9314 Q1141.02 38.7509 1146.53 32.4315 Q1152.08 26.1121 1161.84 26.1121 Z" fill="#000000" fill-rule="nonzero" fill-opacity="1"></path><path clip-path="url(#clip430)" d="M1232.73 45.1919 L1232.73 72.576 L1225.28 72.576 L1225.28 45.4349 Q1225.28 38.994 1222.76 35.7938 Q1220.25 32.5936 1215.23 32.5936 Q1209.19 32.5936 1205.71 36.4419 Q1202.23 40.2903 1202.23 46.9338 L1202.23 72.576 L1194.73 72.576 L1194.73 27.2059 L1202.23 27.2059 L1202.23 34.2544 Q1204.9 30.163 1208.5 28.1376 Q1212.15 26.1121 1216.89 26.1121 Q1224.71 26.1121 1228.72 30.9732 Q1232.73 35.7938 1232.73 45.1919 Z" fill="#000000" fill-rule="nonzero" fill-opacity="1"></path><path clip-path="url(#clip430)" d="M1277.45 34.0924 L1277.45 9.54393 L1284.9 9.54393 L1284.9 72.576 L1277.45 72.576 L1277.45 65.7705 Q1275.1 69.8214 1271.5 71.8063 Q1267.93 73.7508 1262.91 73.7508 Q1254.69 73.7508 1249.5 67.1883 Q1244.36 60.6258 1244.36 49.9314 Q1244.36 39.2371 1249.5 32.6746 Q1254.69 26.1121 1262.91 26.1121 Q1267.93 26.1121 1271.5 28.0971 Q1275.1 30.0415 1277.45 34.0924 M1252.05 49.9314 Q1252.05 58.1548 1255.41 62.8538 Q1258.82 67.5124 1264.73 67.5124 Q1270.65 67.5124 1274.05 62.8538 Q1277.45 58.1548 1277.45 49.9314 Q1277.45 41.7081 1274.05 37.0496 Q1270.65 32.3505 1264.73 32.3505 Q1258.82 32.3505 1255.41 37.0496 Q1252.05 41.7081 1252.05 49.9314 Z" fill="#000000" fill-rule="nonzero" fill-opacity="1"></path><path clip-path="url(#clip430)" d="M1356.48 34.0924 L1356.48 9.54393 L1363.94 9.54393 L1363.94 72.576 L1356.48 72.576 L1356.48 65.7705 Q1354.13 69.8214 1350.53 71.8063 Q1346.96 73.7508 1341.94 73.7508 Q1333.72 73.7508 1328.53 67.1883 Q1323.39 60.6258 1323.39 49.9314 Q1323.39 39.2371 1328.53 32.6746 Q1333.72 26.1121 1341.94 26.1121 Q1346.96 26.1121 1350.53 28.0971 Q1354.13 30.0415 1356.48 34.0924 M1331.09 49.9314 Q1331.09 58.1548 1334.45 62.8538 Q1337.85 67.5124 1343.76 67.5124 Q1349.68 67.5124 1353.08 62.8538 Q1356.48 58.1548 1356.48 49.9314 Q1356.48 41.7081 1353.08 37.0496 Q1349.68 32.3505 1343.76 32.3505 Q1337.85 32.3505 1334.45 37.0496 Q1331.09 41.7081 1331.09 49.9314 Z" fill="#000000" fill-rule="nonzero" fill-opacity="1"></path><path clip-path="url(#clip430)" d="M1418.1 48.0275 L1418.1 51.6733 L1383.83 51.6733 Q1384.31 59.3701 1388.45 63.421 Q1392.62 67.4314 1400.03 67.4314 Q1404.33 67.4314 1408.34 66.3781 Q1412.39 65.3249 1416.36 63.2184 L1416.36 70.267 Q1412.35 71.9684 1408.13 72.8596 Q1403.92 73.7508 1399.59 73.7508 Q1388.73 73.7508 1382.37 67.4314 Q1376.05 61.1119 1376.05 50.3365 Q1376.05 39.1965 1382.05 32.6746 Q1388.08 26.1121 1398.29 26.1121 Q1407.44 26.1121 1412.75 32.0264 Q1418.1 37.9003 1418.1 48.0275 M1410.64 45.84 Q1410.56 39.7232 1407.2 36.0774 Q1403.88 32.4315 1398.37 32.4315 Q1392.13 32.4315 1388.36 35.9558 Q1384.64 39.4801 1384.07 45.8805 L1410.64 45.84 Z" fill="#000000" fill-rule="nonzero" fill-opacity="1"></path><path clip-path="url(#clip430)" d="M1459.26 28.5427 L1459.26 35.5912 Q1456.1 33.9709 1452.69 33.1607 Q1449.29 32.3505 1445.64 32.3505 Q1440.09 32.3505 1437.3 34.0519 Q1434.55 35.7533 1434.55 39.156 Q1434.55 41.7486 1436.53 43.2475 Q1438.52 44.7058 1444.51 46.0426 L1447.06 46.6097 Q1455 48.3111 1458.32 51.4303 Q1461.69 54.509 1461.69 60.0587 Q1461.69 66.3781 1456.66 70.0644 Q1451.68 73.7508 1442.93 73.7508 Q1439.28 73.7508 1435.31 73.0216 Q1431.39 72.3329 1427.01 70.9151 L1427.01 63.2184 Q1431.14 65.3654 1435.15 66.4591 Q1439.16 67.5124 1443.09 67.5124 Q1448.36 67.5124 1451.19 65.73 Q1454.03 63.9071 1454.03 60.6258 Q1454.03 57.5877 1451.96 55.9673 Q1449.94 54.3469 1443.01 52.8481 L1440.42 52.2405 Q1433.49 50.7821 1430.41 47.7845 Q1427.33 44.7463 1427.33 39.4801 Q1427.33 33.0797 1431.87 29.5959 Q1436.41 26.1121 1444.75 26.1121 Q1448.89 26.1121 1452.53 26.7198 Q1456.18 27.3274 1459.26 28.5427 Z" fill="#000000" fill-rule="nonzero" fill-opacity="1"></path><path clip-path="url(#clip430)" d="M1473.56 27.2059 L1481.01 27.2059 L1481.01 72.576 L1473.56 72.576 L1473.56 27.2059 M1473.56 9.54393 L1481.01 9.54393 L1481.01 18.9825 L1473.56 18.9825 L1473.56 9.54393 Z" fill="#000000" fill-rule="nonzero" fill-opacity="1"></path><path clip-path="url(#clip430)" d="M1526.46 49.3643 Q1526.46 41.2625 1523.1 36.8065 Q1519.78 32.3505 1513.74 32.3505 Q1507.75 32.3505 1504.38 36.8065 Q1501.06 41.2625 1501.06 49.3643 Q1501.06 57.4256 1504.38 61.8816 Q1507.75 66.3376 1513.74 66.3376 Q1519.78 66.3376 1523.1 61.8816 Q1526.46 57.4256 1526.46 49.3643 M1533.91 66.9452 Q1533.91 78.5308 1528.77 84.1616 Q1523.62 89.8329 1513.01 89.8329 Q1509.08 89.8329 1505.6 89.2252 Q1502.11 88.6581 1498.83 87.4428 L1498.83 80.1917 Q1502.11 81.9741 1505.31 82.8248 Q1508.51 83.6755 1511.84 83.6755 Q1519.17 83.6755 1522.81 79.8271 Q1526.46 76.0193 1526.46 68.282 L1526.46 64.5957 Q1524.15 68.6061 1520.55 70.5911 Q1516.94 72.576 1511.92 72.576 Q1503.57 72.576 1498.47 66.2161 Q1493.36 59.8562 1493.36 49.3643 Q1493.36 38.832 1498.47 32.472 Q1503.57 26.1121 1511.92 26.1121 Q1516.94 26.1121 1520.55 28.0971 Q1524.15 30.082 1526.46 34.0924 L1526.46 27.2059 L1533.91 27.2059 L1533.91 66.9452 Z" fill="#000000" fill-rule="nonzero" fill-opacity="1"></path><path clip-path="url(#clip430)" d="M1586.98 45.1919 L1586.98 72.576 L1579.53 72.576 L1579.53 45.4349 Q1579.53 38.994 1577.02 35.7938 Q1574.5 32.5936 1569.48 32.5936 Q1563.45 32.5936 1559.96 36.4419 Q1556.48 40.2903 1556.48 46.9338 L1556.48 72.576 L1548.98 72.576 L1548.98 27.2059 L1556.48 27.2059 L1556.48 34.2544 Q1559.15 30.163 1562.76 28.1376 Q1566.4 26.1121 1571.14 26.1121 Q1578.96 26.1121 1582.97 30.9732 Q1586.98 35.7938 1586.98 45.1919 Z" fill="#000000" fill-rule="nonzero" fill-opacity="1"></path><polyline clip-path="url(#clip432)" style="stroke:#009af9; stroke-linecap:round; stroke-linejoin:round; stroke-width:4; stroke-opacity:1; fill:none" points="295.211,1351.11 297.209,1351.11 299.207,1355.52 301.204,1355.52 303.202,1362.14 305.199,1362.14 307.197,1364.34 309.195,1364.34 311.192,1364.34 313.19,1366.55 315.187,1366.55 317.185,1368.75 319.183,1373.16 321.18,1375.37 323.178,1377.57 325.176,1379.78 327.173,1377.57 329.171,1379.78 331.168,1379.78 333.166,1379.78 335.164,1381.99 337.161,1384.19 339.159,1384.19 341.157,1384.19 343.154,1384.19 345.152,1384.19 347.149,1384.19 349.147,1386.4 351.145,1386.4 353.142,1386.4 355.14,1386.4 357.137,1386.4 359.135,1386.4 361.133,1386.4 363.13,1386.4 365.128,1386.4 367.126,1386.4 369.123,1386.4 371.121,1386.4 373.118,1386.4 375.116,1386.4 377.114,1386.4 379.111,1386.4 381.109,1386.4 383.106,1386.4 385.104,1386.4 387.102,1386.4 389.099,1386.4 391.097,1386.4 393.095,1386.4 395.092,1386.4 397.09,1386.4 399.087,1386.4 401.085,1386.4 403.083,1386.4 405.08,1386.4 407.078,1386.4 409.075,1386.4 411.073,1386.4 413.071,1386.4 415.068,1386.4 417.066,1386.4 419.064,1386.4 421.061,1386.4 423.059,1386.4 425.056,1386.4 427.054,1386.4 429.052,1386.4 431.049,1386.4 433.047,1386.4 435.044,1386.4 437.042,1386.4 439.04,1386.4 441.037,1386.4 443.035,1386.4 445.033,1386.4 447.03,1384.19 449.028,1384.19 451.025,1381.99 453.023,1370.96 455.021,1368.75 457.018,1368.75 459.016,1368.75 461.013,1362.14 463.011,1359.93 465.009,1351.11 467.006,1324.65 469.004,1318.03 471.002,1304.8 472.999,1287.16 474.997,1276.13 476.994,1265.1 478.992,1238.64 480.99,1216.59 482.987,1201.15 484.985,1187.92 486.982,1187.92 488.98,1181.3 490.978,1163.66 492.975,1148.22 494.973,1123.97 496.971,1090.89 498.968,1071.04 500.966,1051.19 502.963,1020.32 504.961,1000.47 506.959,960.775 508.956,947.544 510.954,945.338 512.951,947.544 514.949,923.285 516.947,899.027 518.944,848.306 520.942,788.763 522.94,777.737 524.937,744.657 526.935,727.015 528.932,687.32 530.93,654.241 532.928,627.777 534.925,610.135 536.923,605.724 538.92,563.824 540.918,524.129 542.916,521.923 544.913,510.897 546.911,488.844 548.909,457.97 550.906,462.381 552.904,427.096 554.901,409.454 556.899,380.785 558.897,400.633 560.894,400.633 562.892,449.149 564.89,409.454 566.887,387.401 568.885,365.348 570.882,369.759 572.88,332.269 574.878,349.911 576.875,349.911 578.873,365.348 580.87,349.911 582.868,356.527 584.866,354.322 586.863,378.58 588.861,431.507 590.859,471.202 592.856,513.102 594.854,552.797 596.851,616.751 598.849,665.267 600.847,704.962 602.844,755.684 604.842,793.174 606.839,828.458 608.837,863.743 610.835,896.822 612.832,934.312 614.83,965.186 616.828,1002.68 618.825,1026.93 620.823,1046.78 622.82,1068.83 624.818,1084.27 626.816,1104.12 628.813,1126.17 630.811,1134.99 632.808,1148.22 634.806,1163.66 636.804,1176.89 638.801,1187.92 640.799,1194.54 642.797,1205.56 644.794,1221 646.792,1232.03 648.789,1251.87 650.787,1265.1 652.785,1271.72 654.782,1284.95 656.78,1291.57 658.777,1295.98 660.775,1298.18 662.773,1302.59 664.77,1309.21 666.768,1320.24 668.766,1324.65 670.763,1329.06 672.761,1331.26 674.758,1340.08 676.756,1342.29 678.754,1344.5 680.751,1344.5 682.749,1351.11 684.746,1351.11 686.744,1357.73 688.742,1357.73 690.739,1362.14 692.737,1362.14 694.735,1362.14 696.732,1362.14 698.73,1364.34 700.727,1364.34 702.725,1364.34 704.723,1366.55 706.72,1366.55 708.718,1366.55 710.715,1368.75 712.713,1368.75 714.711,1368.75 716.708,1370.96 718.706,1370.96 720.704,1370.96 722.701,1370.96 724.699,1370.96 726.696,1373.16 728.694,1373.16 730.692,1373.16 732.689,1373.16 734.687,1373.16 736.684,1373.16 738.682,1373.16 740.68,1373.16 742.677,1375.37 744.675,1375.37 746.673,1377.57 748.67,1379.78 750.668,1379.78 752.665,1381.99 754.663,1381.99 756.661,1381.99 758.658,1381.99 760.656,1381.99 762.653,1381.99 764.651,1381.99 766.649,1381.99 768.646,1381.99 770.644,1381.99 772.642,1384.19 774.639,1384.19 776.637,1384.19 778.634,1384.19 780.632,1384.19 782.63,1384.19 784.627,1384.19 786.625,1386.4 788.623,1386.4 790.62,1386.4 792.618,1386.4 794.615,1386.4 796.613,1386.4 798.611,1386.4 800.608,1386.4 802.606,1386.4 804.603,1386.4 806.601,1386.4 808.599,1386.4 810.596,1386.4 812.594,1386.4 814.592,1386.4 816.589,1386.4 818.587,1386.4 820.584,1386.4 822.582,1386.4 824.58,1386.4 826.577,1386.4 828.575,1386.4 830.572,1386.4 832.57,1386.4 834.568,1386.4 836.565,1386.4 838.563,1386.4 840.561,1386.4 842.558,1386.4 844.556,1386.4 846.553,1386.4 848.551,1386.4 850.549,1386.4 852.546,1386.4 854.544,1386.4 856.541,1386.4 858.539,1386.4 860.537,1386.4 862.534,1384.19 864.532,1384.19 866.53,1379.78 868.527,1368.75 870.525,1342.29 872.522,1331.26 874.52,1307.01 876.518,1295.98 878.515,1269.52 880.513,1238.64 882.51,1209.97 884.508,1183.51 886.506,1148.22 888.503,1121.76 890.501,1066.63 892.499,1020.32 894.496,969.596 896.494,932.107 898.491,883.59 900.489,843.895 902.487,795.379 904.484,755.684 906.482,696.141 908.479,634.393 910.477,590.287 912.475,552.797 914.472,537.36 916.47,532.95 918.468,491.049 920.465,493.255 922.463,475.612 924.46,477.818 926.458,440.328 928.456,420.48 930.453,409.454 932.451,407.248 934.448,429.301 936.446,418.275 938.444,389.606 940.441,330.063 942.439,288.163 944.437,252.878 946.434,252.878 948.432,257.289 950.429,274.931 952.427,277.136 954.425,279.342 956.422,257.289 958.42,228.62 960.417,228.62 962.415,204.362 964.413,173.488 966.41,166.872 968.408,169.077 970.406,188.925 972.403,213.183 974.401,202.157 976.398,215.388 978.396,226.415 980.394,235.236 982.391,226.415 984.389,222.004 986.386,197.746 988.384,208.773 990.382,202.157 992.379,224.21 994.377,197.746 996.375,195.541 998.372,160.256 1000.37,182.309 1002.37,195.541 1004.37,219.799 1006.36,263.905 1008.36,345.5 1010.36,391.811 1012.36,438.122 1014.35,504.281 1016.35,539.566 1018.35,592.492 1020.35,658.651 1022.34,698.346 1024.34,757.889 1026.34,793.174 1028.34,839.485 1030.33,870.359 1032.33,914.464 1034.33,940.928 1036.33,985.033 1038.32,1024.73 1040.32,1044.58 1042.32,1064.42 1044.32,1101.91 1046.31,1123.97 1048.31,1143.81 1050.31,1152.64 1052.31,1163.66 1054.31,1172.48 1056.3,1181.3 1058.3,1196.74 1060.3,1216.59 1062.3,1232.03 1064.29,1243.05 1066.29,1254.08 1068.29,1265.1 1070.29,1278.34 1072.28,1287.16 1074.28,1291.57 1076.28,1300.39 1078.28,1307.01 1080.27,1315.83 1082.27,1322.44 1084.27,1329.06 1086.27,1333.47 1088.26,1340.08 1090.26,1344.5 1092.26,1346.7 1094.26,1355.52 1096.26,1355.52 1098.25,1359.93 1100.25,1364.34 1102.25,1368.75 1104.25,1373.16 1106.24,1373.16 1108.24,1373.16 1110.24,1373.16 1112.24,1375.37 1114.23,1377.57 1116.23,1377.57 1118.23,1379.78 1120.23,1379.78 1122.22,1381.99 1124.22,1381.99 1126.22,1381.99 1128.22,1381.99 1130.21,1381.99 1132.21,1381.99 1134.21,1381.99 1136.21,1381.99 1138.21,1381.99 1140.2,1381.99 1142.2,1381.99 1144.2,1381.99 1146.2,1384.19 1148.19,1384.19 1150.19,1384.19 1152.19,1384.19 1154.19,1384.19 1156.18,1384.19 1158.18,1384.19 1160.18,1384.19 1162.18,1384.19 1164.17,1384.19 1166.17,1384.19 1168.17,1384.19 1170.17,1384.19 1172.16,1384.19 1174.16,1384.19 1176.16,1384.19 1178.16,1384.19 1180.16,1384.19 1182.15,1384.19 1184.15,1384.19 1186.15,1384.19 1188.15,1384.19 1190.14,1384.19 1192.14,1384.19 1194.14,1384.19 1196.14,1386.4 1198.13,1386.4 1200.13,1386.4 1202.13,1386.4 1204.13,1386.4 1206.12,1386.4 1208.12,1386.4 1210.12,1386.4 1212.12,1386.4 1214.11,1386.4 1216.11,1386.4 1218.11,1386.4 1220.11,1386.4 1222.11,1386.4 1224.1,1386.4 1226.1,1384.19 1228.1,1384.19 1230.1,1384.19 1232.09,1384.19 1234.09,1384.19 1236.09,1370.96 1238.09,1351.11 1240.08,1331.26 1242.08,1326.85 1244.08,1309.21 1246.08,1273.93 1248.07,1256.28 1250.07,1218.79 1252.07,1194.54 1254.07,1163.66 1256.06,1146.02 1258.06,1132.79 1260.06,1101.91 1262.06,1086.48 1264.06,1048.99 1266.05,1022.52 1268.05,971.802 1270.05,943.133 1272.05,890.206 1274.04,861.537 1276.04,824.048 1278.04,773.326 1280.04,729.22 1282.03,689.525 1284.03,669.678 1286.03,638.804 1288.03,632.188 1290.02,583.671 1292.02,590.287 1294.02,561.618 1296.02,517.513 1298.01,482.228 1300.01,449.149 1302.01,427.096 1304.01,435.917 1306.01,422.685 1308,391.811 1310,387.401 1312,382.99 1314,349.911 1315.99,354.322 1317.99,349.911 1319.99,316.832 1321.99,332.269 1323.98,305.805 1325.98,319.037 1327.98,312.421 1329.98,301.395 1331.97,299.189 1333.97,285.958 1335.97,268.315 1337.97,246.262 1339.96,219.799 1341.96,219.799 1343.96,210.978 1345.96,199.951 1347.96,193.336 1349.95,177.899 1351.95,177.899 1353.95,173.488 1355.95,171.283 1357.94,171.283 1359.94,199.951 1361.94,199.951 1363.94,199.951 1365.93,222.004 1367.93,257.289 1369.93,283.752 1371.93,316.832 1373.92,365.348 1375.92,416.07 1377.92,460.175 1379.92,532.95 1381.91,588.082 1383.91,643.214 1385.91,685.115 1387.91,753.478 1389.9,797.584 1391.9,841.69 1393.9,874.769 1395.9,901.233 1397.9,934.312 1399.89,965.186 1401.89,989.444 1403.89,1013.7 1405.89,1033.55 1407.88,1055.6 1409.88,1075.45 1411.88,1097.5 1413.88,1112.94 1415.87,1137.2 1417.87,1152.64 1419.87,1170.28 1421.87,1190.13 1423.86,1201.15 1425.86,1216.59 1427.86,1236.44 1429.86,1243.05 1431.85,1254.08 1433.85,1260.69 1435.85,1269.52 1437.85,1278.34 1439.85,1282.75 1441.84,1287.16 1443.84,1298.18 1445.84,1307.01 1447.84,1311.42 1449.83,1313.62 1451.83,1315.83 1453.83,1320.24 1455.83,1326.85 1457.82,1329.06 1459.82,1333.47 1461.82,1337.88 1463.82,1337.88 1465.81,1344.5 1467.81,1351.11 1469.81,1351.11 1471.81,1355.52 1473.8,1357.73 1475.8,1359.93 1477.8,1359.93 1479.8,1359.93 1481.8,1359.93 1483.79,1359.93 1485.79,1362.14 1487.79,1362.14 1489.79,1362.14 1491.78,1364.34 1493.78,1366.55 1495.78,1368.75 1497.78,1370.96 1499.77,1370.96 1501.77,1373.16 1503.77,1373.16 1505.77,1375.37 1507.76,1375.37 1509.76,1375.37 1511.76,1377.57 1513.76,1379.78 1515.75,1379.78 1517.75,1379.78 1519.75,1379.78 1521.75,1384.19 1523.75,1384.19 1525.74,1384.19 1527.74,1384.19 1529.74,1384.19 1531.74,1384.19 1533.73,1384.19 1535.73,1384.19 1537.73,1384.19 1539.73,1384.19 1541.72,1384.19 1543.72,1384.19 1545.72,1384.19 1547.72,1384.19 1549.71,1384.19 1551.71,1384.19 1553.71,1384.19 1555.71,1386.4 1557.7,1386.4 1559.7,1386.4 1561.7,1386.4 1563.7,1386.4 1565.7,1386.4 1567.69,1386.4 1569.69,1386.4 1571.69,1386.4 1573.69,1386.4 1575.68,1386.4 1577.68,1386.4 1579.68,1386.4 1581.68,1386.4 1583.67,1386.4 1585.67,1386.4 1587.67,1386.4 1589.67,1386.4 1591.66,1386.4 1593.66,1386.4 1595.66,1386.4 1597.66,1386.4 1599.65,1386.4 1601.65,1386.4 1603.65,1386.4 1605.65,1386.4 1607.65,1386.4 1609.64,1386.4 1611.64,1386.4 1613.64,1386.4 1615.64,1386.4 1617.63,1386.4 1619.63,1386.4 1621.63,1386.4 1623.63,1386.4 1625.62,1386.4 1627.62,1386.4 1629.62,1386.4 1631.62,1384.19 1633.61,1384.19 1635.61,1384.19 1637.61,1381.99 1639.61,1377.57 1641.6,1377.57 1643.6,1377.57 1645.6,1377.57 1647.6,1373.16 1649.6,1373.16 1651.59,1373.16 1653.59,1370.96 1655.59,1366.55 1657.59,1362.14 1659.58,1348.91 1661.58,1344.5 1663.58,1342.29 1665.58,1333.47 1667.57,1315.83 1669.57,1295.98 1671.57,1271.72 1673.57,1203.36 1675.56,1161.46 1677.56,1115.15 1679.56,1055.6 1681.56,998.265 1683.55,949.749 1685.55,923.285 1687.55,881.385 1689.55,826.253 1691.54,795.379 1693.54,790.968 1695.54,762.3 1697.54,733.631 1699.54,707.167 1701.53,665.267 1703.53,607.929 1705.53,539.566 1707.53,486.639 1709.52,466.791 1711.52,457.97 1713.52,433.712 1715.52,413.864 1717.51,396.222 1719.51,389.606 1721.51,354.322 1723.51,352.116 1725.5,374.169 1727.5,394.017 1729.5,422.685 1731.5,413.864 1733.49,420.48 1735.49,394.017 1737.49,358.732 1739.49,398.427 1741.49,405.043 1743.48,367.553 1745.48,356.527 1747.48,316.832 1749.48,308.011 1751.47,290.368 1753.47,296.984 1755.47,270.521 1757.47,244.057 1759.46,239.647 1761.46,244.057 1763.46,261.699 1765.46,288.163 1767.45,283.752 1769.45,277.136 1771.45,281.547 1773.45,281.547 1775.44,299.189 1777.44,338.885 1779.44,420.48 1781.44,466.791 1783.44,517.513 1785.43,581.466 1787.43,629.982 1789.43,676.293 1791.43,720.399 1793.42,762.3 1795.42,799.789 1797.42,837.279 1799.42,876.974 1801.41,914.464 1803.41,947.544 1805.41,976.212 1807.41,993.855 1809.4,1031.34 1811.4,1042.37 1813.4,1066.63 1815.4,1093.09 1817.39,1110.73 1819.39,1119.56 1821.39,1130.58 1823.39,1159.25 1825.39,1181.3 1827.38,1194.54 1829.38,1205.56 1831.38,1221 1833.38,1236.44 1835.37,1243.05 1837.37,1254.08 1839.37,1262.9 1841.37,1269.52 1843.36,1278.34 1845.36,1282.75 1847.36,1287.16 1849.36,1293.77 1851.35,1302.59 1853.35,1307.01 1855.35,1311.42 1857.35,1318.03 1859.34,1320.24 1861.34,1322.44 1863.34,1329.06 1865.34,1333.47 1867.34,1335.67 1869.33,1335.67 1871.33,1337.88 1873.33,1340.08 1875.33,1342.29 1877.32,1348.91 1879.32,1351.11 1881.32,1351.11 1883.32,1355.52 1885.31,1355.52 1887.31,1359.93 1889.31,1362.14 1891.31,1362.14 1893.3,1364.34 1895.3,1364.34 1897.3,1366.55 1899.3,1368.75 1901.29,1368.75 1903.29,1368.75 1905.29,1368.75 1907.29,1370.96 1909.29,1370.96 1911.28,1370.96 1913.28,1370.96 1915.28,1375.37 1917.28,1375.37 1919.27,1375.37 1921.27,1375.37 1923.27,1377.57 1925.27,1377.57 1927.26,1377.57 1929.26,1377.57 1931.26,1377.57 1933.26,1377.57 1935.25,1377.57 1937.25,1377.57 1939.25,1377.57 1941.25,1377.57 1943.24,1379.78 1945.24,1379.78 1947.24,1379.78 1949.24,1379.78 1951.24,1379.78 1953.23,1379.78 1955.23,1379.78 1957.23,1379.78 1959.23,1379.78 1961.22,1379.78 1963.22,1379.78 1965.22,1379.78 1967.22,1379.78 1969.21,1379.78 1971.21,1379.78 1973.21,1379.78 1975.21,1379.78 1977.2,1379.78 1979.2,1379.78 1981.2,1379.78 1983.2,1379.78 1985.19,1379.78 1987.19,1379.78 1989.19,1379.78 1991.19,1381.99 1993.19,1381.99 1995.18,1381.99 1997.18,1384.19 1999.18,1384.19 2001.18,1384.19 2003.17,1384.19 2005.17,1384.19 2007.17,1384.19 2009.17,1384.19 2011.16,1384.19 2013.16,1384.19 2015.16,1384.19 2017.16,1384.19 2019.15,1384.19 2021.15,1384.19 2023.15,1381.99 2025.15,1373.16 2027.14,1366.55 2029.14,1351.11 2031.14,1333.47 2033.14,1302.59 2035.13,1287.16 2037.13,1254.08 2039.13,1238.64 2041.13,1221 2043.13,1209.97 2045.12,1163.66 2047.12,1112.94 2049.12,1031.34 2051.12,998.265 2053.11,954.159 2055.11,890.206 2057.11,846.1 2059.11,801.995 2061.1,784.352 2063.1,735.836 2065.1,680.704 2067.1,674.088 2069.09,654.241 2071.09,610.135 2073.09,596.903 2075.09,577.055 2077.08,550.592 2079.08,515.307 2081.08,468.996 2083.08,442.533 2085.08,402.838 2087.07,380.785 2089.07,341.09 2091.07,349.911 2093.07,310.216 2095.06,290.368 2097.06,270.521 2099.06,255.084 2101.06,248.468 2103.05,222.004 2105.05,219.799 2107.05,193.336 2109.05,208.773 2111.04,230.825 2113.04,233.031 2115.04,208.773 2117.04,175.693 2119.03,208.773 2121.03,208.773 2123.03,215.388 2125.03,230.825 2127.03,208.773 2129.02,206.567 2131.02,173.488 2133.02,184.514 2135.02,184.514 2137.01,195.541 2139.01,195.541 2141.01,250.673 2143.01,321.242 2145,374.169 2147,424.891 2149,477.818 2151,539.566 2152.99,601.314 2154.99,636.598 2156.99,687.32 2158.99,722.604 2160.98,771.121 2162.98,817.432 2164.98,846.1 2166.98,883.59 2168.98,916.67 2170.97,949.749 2172.97,976.212 2174.97,1015.91 2176.97,1040.17 2178.96,1073.24 2180.96,1093.09 2182.96,1104.12 2184.96,1121.76 2186.95,1139.4 2188.95,1152.64 2190.95,1170.28 2192.95,1185.71 2194.94,1196.74 2196.94,1216.59 2198.94,1223.2 2200.94,1232.03 2202.93,1249.67 2204.93,1258.49 2206.93,1260.69 2208.93,1276.13 2210.93,1282.75 2212.92,1298.18 2214.92,1302.59 2216.92,1302.59 2218.92,1307.01 2220.91,1315.83 2222.91,1318.03 2224.91,1318.03 2226.91,1324.65 2228.9,1331.26 2230.9,1335.67 2232.9,1342.29 2234.9,1348.91 2236.89,1348.91 2238.89,1351.11 2240.89,1351.11 2242.89,1355.52 2244.88,1359.93 2246.88,1362.14 2248.88,1368.75 2250.88,1373.16 2252.88,1375.37 2254.87,1375.37 2256.87,1375.37 2258.87,1377.57 2260.87,1377.57 2262.86,1379.78 2264.86,1379.78 2266.86,1379.78 2268.86,1379.78 2270.85,1379.78 2272.85,1379.78 2274.85,1381.99 2276.85,1381.99 2278.84,1381.99 2280.84,1384.19 2282.84,1386.4 2284.84,1386.4 2286.83,1386.4 2288.83,1386.4 2290.83,1386.4 2292.83,1386.4 "></polyline>
</svg>