<svg xmlns="http://www.w3.org/2000/svg" xmlns:xlink="http://www.w3.org/1999/xlink" width="600" height="400" viewBox="0 0 2400 1600">
<defs>
  <clipPath id="clip350">
    <rect x="0" y="0" width="2400" height="1600"></rect>
  </clipPath>
</defs>
<path clip-path="url(#clip350)" d="M0 1600 L2400 1600 L2400 8.88178e-14 L0 8.88178e-14  Z" fill="#ffffff" fill-rule="evenodd" fill-opacity="1"></path>
<defs>
  <clipPath id="clip351">
    <rect x="480" y="0" width="1681" height="1600"></rect>
  </clipPath>
</defs>
<path clip-path="url(#clip350)" d="M318.014 1486.45 L2352.76 1486.45 L2352.76 47.2441 L318.014 47.2441  Z" fill="#ffffff" fill-rule="evenodd" fill-opacity="1"></path>
<defs>
  <clipPath id="clip352">
    <rect x="318" y="47" width="2036" height="1440"></rect>
  </clipPath>
</defs>
<polyline clip-path="url(#clip352)" style="stroke:#000000; stroke-linecap:round; stroke-linejoin:round; stroke-width:2; stroke-opacity:0.1; fill:none" points="649.825,1486.45 649.825,47.2441 "></polyline>
<polyline clip-path="url(#clip352)" style="stroke:#000000; stroke-linecap:round; stroke-linejoin:round; stroke-width:2; stroke-opacity:0.1; fill:none" points="992.605,1486.45 992.605,47.2441 "></polyline>
<polyline clip-path="url(#clip352)" style="stroke:#000000; stroke-linecap:round; stroke-linejoin:round; stroke-width:2; stroke-opacity:0.1; fill:none" points="1335.38,1486.45 1335.38,47.2441 "></polyline>
<polyline clip-path="url(#clip352)" style="stroke:#000000; stroke-linecap:round; stroke-linejoin:round; stroke-width:2; stroke-opacity:0.1; fill:none" points="1678.16,1486.45 1678.16,47.2441 "></polyline>
<polyline clip-path="url(#clip352)" style="stroke:#000000; stroke-linecap:round; stroke-linejoin:round; stroke-width:2; stroke-opacity:0.1; fill:none" points="2020.94,1486.45 2020.94,47.2441 "></polyline>
<polyline clip-path="url(#clip352)" style="stroke:#000000; stroke-linecap:round; stroke-linejoin:round; stroke-width:2; stroke-opacity:0.1; fill:none" points="318.014,1267.36 2352.76,1267.36 "></polyline>
<polyline clip-path="url(#clip352)" style="stroke:#000000; stroke-linecap:round; stroke-linejoin:round; stroke-width:2; stroke-opacity:0.1; fill:none" points="318.014,972.379 2352.76,972.379 "></polyline>
<polyline clip-path="url(#clip352)" style="stroke:#000000; stroke-linecap:round; stroke-linejoin:round; stroke-width:2; stroke-opacity:0.1; fill:none" points="318.014,677.401 2352.76,677.401 "></polyline>
<polyline clip-path="url(#clip352)" style="stroke:#000000; stroke-linecap:round; stroke-linejoin:round; stroke-width:2; stroke-opacity:0.1; fill:none" points="318.014,382.424 2352.76,382.424 "></polyline>
<polyline clip-path="url(#clip352)" style="stroke:#000000; stroke-linecap:round; stroke-linejoin:round; stroke-width:2; stroke-opacity:0.1; fill:none" points="318.014,87.4471 2352.76,87.4471 "></polyline>
<polyline clip-path="url(#clip350)" style="stroke:#000000; stroke-linecap:round; stroke-linejoin:round; stroke-width:4; stroke-opacity:1; fill:none" points="318.014,1486.45 2352.76,1486.45 "></polyline>
<polyline clip-path="url(#clip350)" style="stroke:#000000; stroke-linecap:round; stroke-linejoin:round; stroke-width:4; stroke-opacity:1; fill:none" points="649.825,1486.45 649.825,1467.55 "></polyline>
<polyline clip-path="url(#clip350)" style="stroke:#000000; stroke-linecap:round; stroke-linejoin:round; stroke-width:4; stroke-opacity:1; fill:none" points="992.605,1486.45 992.605,1467.55 "></polyline>
<polyline clip-path="url(#clip350)" style="stroke:#000000; stroke-linecap:round; stroke-linejoin:round; stroke-width:4; stroke-opacity:1; fill:none" points="1335.38,1486.45 1335.38,1467.55 "></polyline>
<polyline clip-path="url(#clip350)" style="stroke:#000000; stroke-linecap:round; stroke-linejoin:round; stroke-width:4; stroke-opacity:1; fill:none" points="1678.16,1486.45 1678.16,1467.55 "></polyline>
<polyline clip-path="url(#clip350)" style="stroke:#000000; stroke-linecap:round; stroke-linejoin:round; stroke-width:4; stroke-opacity:1; fill:none" points="2020.94,1486.45 2020.94,1467.55 "></polyline>
<path clip-path="url(#clip350)" d="M616.978 1544.91 L624.617 1544.91 L624.617 1518.55 L616.307 1520.21 L616.307 1515.95 L624.57 1514.29 L629.246 1514.29 L629.246 1544.91 L636.885 1544.91 L636.885 1548.85 L616.978 1548.85 L616.978 1544.91 Z" fill="#000000" fill-rule="nonzero" fill-opacity="1"></path><path clip-path="url(#clip350)" d="M646.33 1542.97 L651.214 1542.97 L651.214 1548.85 L646.33 1548.85 L646.33 1542.97 Z" fill="#000000" fill-rule="nonzero" fill-opacity="1"></path><path clip-path="url(#clip350)" d="M671.399 1517.37 Q667.788 1517.37 665.959 1520.93 Q664.154 1524.47 664.154 1531.6 Q664.154 1538.71 665.959 1542.27 Q667.788 1545.82 671.399 1545.82 Q675.033 1545.82 676.839 1542.27 Q678.667 1538.71 678.667 1531.6 Q678.667 1524.47 676.839 1520.93 Q675.033 1517.37 671.399 1517.37 M671.399 1513.66 Q677.209 1513.66 680.265 1518.27 Q683.343 1522.85 683.343 1531.6 Q683.343 1540.33 680.265 1544.94 Q677.209 1549.52 671.399 1549.52 Q665.589 1549.52 662.51 1544.94 Q659.454 1540.33 659.454 1531.6 Q659.454 1522.85 662.51 1518.27 Q665.589 1513.66 671.399 1513.66 Z" fill="#000000" fill-rule="nonzero" fill-opacity="1"></path><path clip-path="url(#clip350)" d="M960.256 1544.91 L967.894 1544.91 L967.894 1518.55 L959.584 1520.21 L959.584 1515.95 L967.848 1514.29 L972.524 1514.29 L972.524 1544.91 L980.163 1544.91 L980.163 1548.85 L960.256 1548.85 L960.256 1544.91 Z" fill="#000000" fill-rule="nonzero" fill-opacity="1"></path><path clip-path="url(#clip350)" d="M989.607 1542.97 L994.491 1542.97 L994.491 1548.85 L989.607 1548.85 L989.607 1542.97 Z" fill="#000000" fill-rule="nonzero" fill-opacity="1"></path><path clip-path="url(#clip350)" d="M1004.72 1514.29 L1023.08 1514.29 L1023.08 1518.22 L1009.01 1518.22 L1009.01 1526.7 Q1010.02 1526.35 1011.04 1526.19 Q1012.06 1526 1013.08 1526 Q1018.87 1526 1022.25 1529.17 Q1025.63 1532.34 1025.63 1537.76 Q1025.63 1543.34 1022.15 1546.44 Q1018.68 1549.52 1012.36 1549.52 Q1010.19 1549.52 1007.92 1549.15 Q1005.67 1548.78 1003.26 1548.04 L1003.26 1543.34 Q1005.35 1544.47 1007.57 1545.03 Q1009.79 1545.58 1012.27 1545.58 Q1016.27 1545.58 1018.61 1543.48 Q1020.95 1541.37 1020.95 1537.76 Q1020.95 1534.15 1018.61 1532.04 Q1016.27 1529.94 1012.27 1529.94 Q1010.39 1529.94 1008.52 1530.35 Q1006.67 1530.77 1004.72 1531.65 L1004.72 1514.29 Z" fill="#000000" fill-rule="nonzero" fill-opacity="1"></path><path clip-path="url(#clip350)" d="M1306.62 1544.91 L1322.94 1544.91 L1322.94 1548.85 L1301 1548.85 L1301 1544.91 Q1303.66 1542.16 1308.24 1537.53 Q1312.85 1532.88 1314.03 1531.53 Q1316.28 1529.01 1317.16 1527.27 Q1318.06 1525.51 1318.06 1523.82 Q1318.06 1521.07 1316.11 1519.33 Q1314.19 1517.6 1311.09 1517.6 Q1308.89 1517.6 1306.44 1518.36 Q1304.01 1519.13 1301.23 1520.68 L1301.23 1515.95 Q1304.05 1514.82 1306.51 1514.24 Q1308.96 1513.66 1311 1513.66 Q1316.37 1513.66 1319.56 1516.35 Q1322.76 1519.03 1322.76 1523.52 Q1322.76 1525.65 1321.95 1527.57 Q1321.16 1529.47 1319.05 1532.07 Q1318.48 1532.74 1315.37 1535.95 Q1312.27 1539.15 1306.62 1544.91 Z" fill="#000000" fill-rule="nonzero" fill-opacity="1"></path><path clip-path="url(#clip350)" d="M1332.76 1542.97 L1337.64 1542.97 L1337.64 1548.85 L1332.76 1548.85 L1332.76 1542.97 Z" fill="#000000" fill-rule="nonzero" fill-opacity="1"></path><path clip-path="url(#clip350)" d="M1357.83 1517.37 Q1354.22 1517.37 1352.39 1520.93 Q1350.58 1524.47 1350.58 1531.6 Q1350.58 1538.71 1352.39 1542.27 Q1354.22 1545.82 1357.83 1545.82 Q1361.46 1545.82 1363.27 1542.27 Q1365.1 1538.71 1365.1 1531.6 Q1365.1 1524.47 1363.27 1520.93 Q1361.46 1517.37 1357.83 1517.37 M1357.83 1513.66 Q1363.64 1513.66 1366.69 1518.27 Q1369.77 1522.85 1369.77 1531.6 Q1369.77 1540.33 1366.69 1544.94 Q1363.64 1549.52 1357.83 1549.52 Q1352.02 1549.52 1348.94 1544.94 Q1345.88 1540.33 1345.88 1531.6 Q1345.88 1522.85 1348.94 1518.27 Q1352.02 1513.66 1357.83 1513.66 Z" fill="#000000" fill-rule="nonzero" fill-opacity="1"></path><path clip-path="url(#clip350)" d="M1649.9 1544.91 L1666.22 1544.91 L1666.22 1548.85 L1644.28 1548.85 L1644.28 1544.91 Q1646.94 1542.16 1651.52 1537.53 Q1656.13 1532.88 1657.31 1531.53 Q1659.55 1529.01 1660.43 1527.27 Q1661.34 1525.51 1661.34 1523.82 Q1661.34 1521.07 1659.39 1519.33 Q1657.47 1517.6 1654.37 1517.6 Q1652.17 1517.6 1649.72 1518.36 Q1647.29 1519.13 1644.51 1520.68 L1644.51 1515.95 Q1647.33 1514.82 1649.79 1514.24 Q1652.24 1513.66 1654.28 1513.66 Q1659.65 1513.66 1662.84 1516.35 Q1666.04 1519.03 1666.04 1523.52 Q1666.04 1525.65 1665.23 1527.57 Q1664.44 1529.47 1662.33 1532.07 Q1661.75 1532.74 1658.65 1535.95 Q1655.55 1539.15 1649.9 1544.91 Z" fill="#000000" fill-rule="nonzero" fill-opacity="1"></path><path clip-path="url(#clip350)" d="M1676.04 1542.97 L1680.92 1542.97 L1680.92 1548.85 L1676.04 1548.85 L1676.04 1542.97 Z" fill="#000000" fill-rule="nonzero" fill-opacity="1"></path><path clip-path="url(#clip350)" d="M1691.15 1514.29 L1709.51 1514.29 L1709.51 1518.22 L1695.43 1518.22 L1695.43 1526.7 Q1696.45 1526.35 1697.47 1526.19 Q1698.49 1526 1699.51 1526 Q1705.29 1526 1708.67 1529.17 Q1712.05 1532.34 1712.05 1537.76 Q1712.05 1543.34 1708.58 1546.44 Q1705.11 1549.52 1698.79 1549.52 Q1696.61 1549.52 1694.35 1549.15 Q1692.1 1548.78 1689.69 1548.04 L1689.69 1543.34 Q1691.78 1544.47 1694 1545.03 Q1696.22 1545.58 1698.7 1545.58 Q1702.7 1545.58 1705.04 1543.48 Q1707.38 1541.37 1707.38 1537.76 Q1707.38 1534.15 1705.04 1532.04 Q1702.7 1529.94 1698.7 1529.94 Q1696.82 1529.94 1694.95 1530.35 Q1693.1 1530.77 1691.15 1531.65 L1691.15 1514.29 Z" fill="#000000" fill-rule="nonzero" fill-opacity="1"></path><path clip-path="url(#clip350)" d="M2002.25 1530.21 Q2005.61 1530.93 2007.48 1533.2 Q2009.38 1535.47 2009.38 1538.8 Q2009.38 1543.92 2005.86 1546.72 Q2002.35 1549.52 1995.86 1549.52 Q1993.69 1549.52 1991.37 1549.08 Q1989.08 1548.66 1986.63 1547.81 L1986.63 1543.29 Q1988.57 1544.43 1990.89 1545.01 Q1993.2 1545.58 1995.73 1545.58 Q2000.12 1545.58 2002.41 1543.85 Q2004.73 1542.11 2004.73 1538.8 Q2004.73 1535.75 2002.58 1534.03 Q2000.45 1532.3 1996.63 1532.3 L1992.6 1532.3 L1992.6 1528.45 L1996.81 1528.45 Q2000.26 1528.45 2002.09 1527.09 Q2003.92 1525.7 2003.92 1523.11 Q2003.92 1520.45 2002.02 1519.03 Q2000.15 1517.6 1996.63 1517.6 Q1994.71 1517.6 1992.51 1518.01 Q1990.31 1518.43 1987.67 1519.31 L1987.67 1515.14 Q1990.33 1514.4 1992.65 1514.03 Q1994.98 1513.66 1997.04 1513.66 Q2002.37 1513.66 2005.47 1516.09 Q2008.57 1518.5 2008.57 1522.62 Q2008.57 1525.49 2006.93 1527.48 Q2005.29 1529.45 2002.25 1530.21 Z" fill="#000000" fill-rule="nonzero" fill-opacity="1"></path><path clip-path="url(#clip350)" d="M2018.25 1542.97 L2023.13 1542.97 L2023.13 1548.85 L2018.25 1548.85 L2018.25 1542.97 Z" fill="#000000" fill-rule="nonzero" fill-opacity="1"></path><path clip-path="url(#clip350)" d="M2043.32 1517.37 Q2039.71 1517.37 2037.88 1520.93 Q2036.07 1524.47 2036.07 1531.6 Q2036.07 1538.71 2037.88 1542.27 Q2039.71 1545.82 2043.32 1545.82 Q2046.95 1545.82 2048.76 1542.27 Q2050.59 1538.71 2050.59 1531.6 Q2050.59 1524.47 2048.76 1520.93 Q2046.95 1517.37 2043.32 1517.37 M2043.32 1513.66 Q2049.13 1513.66 2052.18 1518.27 Q2055.26 1522.85 2055.26 1531.6 Q2055.26 1540.33 2052.18 1544.94 Q2049.13 1549.52 2043.32 1549.52 Q2037.51 1549.52 2034.43 1544.94 Q2031.37 1540.33 2031.37 1531.6 Q2031.37 1522.85 2034.43 1518.27 Q2037.51 1513.66 2043.32 1513.66 Z" fill="#000000" fill-rule="nonzero" fill-opacity="1"></path><polyline clip-path="url(#clip350)" style="stroke:#000000; stroke-linecap:round; stroke-linejoin:round; stroke-width:4; stroke-opacity:1; fill:none" points="318.014,1486.45 318.014,47.2441 "></polyline>
<polyline clip-path="url(#clip350)" style="stroke:#000000; stroke-linecap:round; stroke-linejoin:round; stroke-width:4; stroke-opacity:1; fill:none" points="318.014,1267.36 336.912,1267.36 "></polyline>
<polyline clip-path="url(#clip350)" style="stroke:#000000; stroke-linecap:round; stroke-linejoin:round; stroke-width:4; stroke-opacity:1; fill:none" points="318.014,972.379 336.912,972.379 "></polyline>
<polyline clip-path="url(#clip350)" style="stroke:#000000; stroke-linecap:round; stroke-linejoin:round; stroke-width:4; stroke-opacity:1; fill:none" points="318.014,677.401 336.912,677.401 "></polyline>
<polyline clip-path="url(#clip350)" style="stroke:#000000; stroke-linecap:round; stroke-linejoin:round; stroke-width:4; stroke-opacity:1; fill:none" points="318.014,382.424 336.912,382.424 "></polyline>
<polyline clip-path="url(#clip350)" style="stroke:#000000; stroke-linecap:round; stroke-linejoin:round; stroke-width:4; stroke-opacity:1; fill:none" points="318.014,87.4471 336.912,87.4471 "></polyline>
<path clip-path="url(#clip350)" d="M114.839 1267.81 L144.515 1267.81 L144.515 1271.74 L114.839 1271.74 L114.839 1267.81 Z" fill="#000000" fill-rule="nonzero" fill-opacity="1"></path><path clip-path="url(#clip350)" d="M164.607 1253.15 Q160.996 1253.15 159.167 1256.72 Q157.362 1260.26 157.362 1267.39 Q157.362 1274.5 159.167 1278.06 Q160.996 1281.6 164.607 1281.6 Q168.241 1281.6 170.047 1278.06 Q171.876 1274.5 171.876 1267.39 Q171.876 1260.26 170.047 1256.72 Q168.241 1253.15 164.607 1253.15 M164.607 1249.45 Q170.417 1249.45 173.473 1254.06 Q176.551 1258.64 176.551 1267.39 Q176.551 1276.12 173.473 1280.72 Q170.417 1285.31 164.607 1285.31 Q158.797 1285.31 155.718 1280.72 Q152.663 1276.12 152.663 1267.39 Q152.663 1258.64 155.718 1254.06 Q158.797 1249.45 164.607 1249.45 Z" fill="#000000" fill-rule="nonzero" fill-opacity="1"></path><path clip-path="url(#clip350)" d="M184.769 1278.76 L189.653 1278.76 L189.653 1284.64 L184.769 1284.64 L184.769 1278.76 Z" fill="#000000" fill-rule="nonzero" fill-opacity="1"></path><path clip-path="url(#clip350)" d="M209.838 1253.15 Q206.227 1253.15 204.399 1256.72 Q202.593 1260.26 202.593 1267.39 Q202.593 1274.5 204.399 1278.06 Q206.227 1281.6 209.838 1281.6 Q213.473 1281.6 215.278 1278.06 Q217.107 1274.5 217.107 1267.39 Q217.107 1260.26 215.278 1256.72 Q213.473 1253.15 209.838 1253.15 M209.838 1249.45 Q215.649 1249.45 218.704 1254.06 Q221.783 1258.64 221.783 1267.39 Q221.783 1276.12 218.704 1280.72 Q215.649 1285.31 209.838 1285.31 Q204.028 1285.31 200.95 1280.72 Q197.894 1276.12 197.894 1267.39 Q197.894 1258.64 200.95 1254.06 Q204.028 1249.45 209.838 1249.45 Z" fill="#000000" fill-rule="nonzero" fill-opacity="1"></path><path clip-path="url(#clip350)" d="M240 1253.15 Q236.389 1253.15 234.56 1256.72 Q232.755 1260.26 232.755 1267.39 Q232.755 1274.5 234.56 1278.06 Q236.389 1281.6 240 1281.6 Q243.634 1281.6 245.44 1278.06 Q247.269 1274.5 247.269 1267.39 Q247.269 1260.26 245.44 1256.72 Q243.634 1253.15 240 1253.15 M240 1249.45 Q245.81 1249.45 248.866 1254.06 Q251.945 1258.64 251.945 1267.39 Q251.945 1276.12 248.866 1280.72 Q245.81 1285.31 240 1285.31 Q234.19 1285.31 231.111 1280.72 Q228.056 1276.12 228.056 1267.39 Q228.056 1258.64 231.111 1254.06 Q234.19 1249.45 240 1249.45 Z" fill="#000000" fill-rule="nonzero" fill-opacity="1"></path><path clip-path="url(#clip350)" d="M270.162 1268.22 Q266.829 1268.22 264.907 1270.01 Q263.009 1271.79 263.009 1274.91 Q263.009 1278.04 264.907 1279.82 Q266.829 1281.6 270.162 1281.6 Q273.495 1281.6 275.417 1279.82 Q277.338 1278.02 277.338 1274.91 Q277.338 1271.79 275.417 1270.01 Q273.519 1268.22 270.162 1268.22 M265.486 1266.23 Q262.477 1265.49 260.787 1263.43 Q259.12 1261.37 259.12 1258.41 Q259.12 1254.27 262.06 1251.86 Q265.023 1249.45 270.162 1249.45 Q275.324 1249.45 278.264 1251.86 Q281.204 1254.27 281.204 1258.41 Q281.204 1261.37 279.514 1263.43 Q277.847 1265.49 274.861 1266.23 Q278.241 1267.02 280.116 1269.31 Q282.014 1271.6 282.014 1274.91 Q282.014 1279.94 278.935 1282.62 Q275.88 1285.31 270.162 1285.31 Q264.445 1285.31 261.366 1282.62 Q258.31 1279.94 258.31 1274.91 Q258.31 1271.6 260.208 1269.31 Q262.107 1267.02 265.486 1266.23 M263.773 1258.85 Q263.773 1261.53 265.44 1263.04 Q267.13 1264.54 270.162 1264.54 Q273.171 1264.54 274.861 1263.04 Q276.574 1261.53 276.574 1258.85 Q276.574 1256.16 274.861 1254.66 Q273.171 1253.15 270.162 1253.15 Q267.13 1253.15 265.44 1254.66 Q263.773 1256.16 263.773 1258.85 Z" fill="#000000" fill-rule="nonzero" fill-opacity="1"></path><path clip-path="url(#clip350)" d="M114.584 972.83 L144.26 972.83 L144.26 976.765 L114.584 976.765 L114.584 972.83 Z" fill="#000000" fill-rule="nonzero" fill-opacity="1"></path><path clip-path="url(#clip350)" d="M164.352 958.177 Q160.741 958.177 158.913 961.742 Q157.107 965.284 157.107 972.413 Q157.107 979.52 158.913 983.085 Q160.741 986.626 164.352 986.626 Q167.987 986.626 169.792 983.085 Q171.621 979.52 171.621 972.413 Q171.621 965.284 169.792 961.742 Q167.987 958.177 164.352 958.177 M164.352 954.474 Q170.163 954.474 173.218 959.08 Q176.297 963.663 176.297 972.413 Q176.297 981.14 173.218 985.747 Q170.163 990.33 164.352 990.33 Q158.542 990.33 155.464 985.747 Q152.408 981.14 152.408 972.413 Q152.408 963.663 155.464 959.08 Q158.542 954.474 164.352 954.474 Z" fill="#000000" fill-rule="nonzero" fill-opacity="1"></path><path clip-path="url(#clip350)" d="M184.514 983.779 L189.399 983.779 L189.399 989.659 L184.514 989.659 L184.514 983.779 Z" fill="#000000" fill-rule="nonzero" fill-opacity="1"></path><path clip-path="url(#clip350)" d="M209.584 958.177 Q205.973 958.177 204.144 961.742 Q202.338 965.284 202.338 972.413 Q202.338 979.52 204.144 983.085 Q205.973 986.626 209.584 986.626 Q213.218 986.626 215.024 983.085 Q216.852 979.52 216.852 972.413 Q216.852 965.284 215.024 961.742 Q213.218 958.177 209.584 958.177 M209.584 954.474 Q215.394 954.474 218.449 959.08 Q221.528 963.663 221.528 972.413 Q221.528 981.14 218.449 985.747 Q215.394 990.33 209.584 990.33 Q203.774 990.33 200.695 985.747 Q197.639 981.14 197.639 972.413 Q197.639 963.663 200.695 959.08 Q203.774 954.474 209.584 954.474 Z" fill="#000000" fill-rule="nonzero" fill-opacity="1"></path><path clip-path="url(#clip350)" d="M239.746 958.177 Q236.135 958.177 234.306 961.742 Q232.5 965.284 232.5 972.413 Q232.5 979.52 234.306 983.085 Q236.135 986.626 239.746 986.626 Q243.38 986.626 245.185 983.085 Q247.014 979.52 247.014 972.413 Q247.014 965.284 245.185 961.742 Q243.38 958.177 239.746 958.177 M239.746 954.474 Q245.556 954.474 248.611 959.08 Q251.69 963.663 251.69 972.413 Q251.69 981.14 248.611 985.747 Q245.556 990.33 239.746 990.33 Q233.935 990.33 230.857 985.747 Q227.801 981.14 227.801 972.413 Q227.801 963.663 230.857 959.08 Q233.935 954.474 239.746 954.474 Z" fill="#000000" fill-rule="nonzero" fill-opacity="1"></path><path clip-path="url(#clip350)" d="M270.486 970.515 Q267.338 970.515 265.486 972.668 Q263.658 974.821 263.658 978.571 Q263.658 982.298 265.486 984.473 Q267.338 986.626 270.486 986.626 Q273.634 986.626 275.463 984.473 Q277.315 982.298 277.315 978.571 Q277.315 974.821 275.463 972.668 Q273.634 970.515 270.486 970.515 M279.769 955.862 L279.769 960.122 Q278.009 959.288 276.204 958.849 Q274.421 958.409 272.662 958.409 Q268.032 958.409 265.579 961.534 Q263.148 964.659 262.801 970.978 Q264.167 968.964 266.227 967.899 Q268.287 966.811 270.764 966.811 Q275.972 966.811 278.981 969.983 Q282.014 973.131 282.014 978.571 Q282.014 983.895 278.866 987.112 Q275.718 990.33 270.486 990.33 Q264.491 990.33 261.32 985.747 Q258.148 981.14 258.148 972.413 Q258.148 964.219 262.037 959.358 Q265.926 954.474 272.477 954.474 Q274.236 954.474 276.019 954.821 Q277.824 955.168 279.769 955.862 Z" fill="#000000" fill-rule="nonzero" fill-opacity="1"></path><path clip-path="url(#clip350)" d="M114.26 677.853 L143.936 677.853 L143.936 681.788 L114.26 681.788 L114.26 677.853 Z" fill="#000000" fill-rule="nonzero" fill-opacity="1"></path><path clip-path="url(#clip350)" d="M164.028 663.2 Q160.417 663.2 158.589 666.765 Q156.783 670.307 156.783 677.436 Q156.783 684.543 158.589 688.107 Q160.417 691.649 164.028 691.649 Q167.663 691.649 169.468 688.107 Q171.297 684.543 171.297 677.436 Q171.297 670.307 169.468 666.765 Q167.663 663.2 164.028 663.2 M164.028 659.496 Q169.839 659.496 172.894 664.103 Q175.973 668.686 175.973 677.436 Q175.973 686.163 172.894 690.769 Q169.839 695.353 164.028 695.353 Q158.218 695.353 155.14 690.769 Q152.084 686.163 152.084 677.436 Q152.084 668.686 155.14 664.103 Q158.218 659.496 164.028 659.496 Z" fill="#000000" fill-rule="nonzero" fill-opacity="1"></path><path clip-path="url(#clip350)" d="M184.19 688.802 L189.075 688.802 L189.075 694.681 L184.19 694.681 L184.19 688.802 Z" fill="#000000" fill-rule="nonzero" fill-opacity="1"></path><path clip-path="url(#clip350)" d="M209.26 663.2 Q205.649 663.2 203.82 666.765 Q202.014 670.307 202.014 677.436 Q202.014 684.543 203.82 688.107 Q205.649 691.649 209.26 691.649 Q212.894 691.649 214.699 688.107 Q216.528 684.543 216.528 677.436 Q216.528 670.307 214.699 666.765 Q212.894 663.2 209.26 663.2 M209.26 659.496 Q215.07 659.496 218.125 664.103 Q221.204 668.686 221.204 677.436 Q221.204 686.163 218.125 690.769 Q215.07 695.353 209.26 695.353 Q203.449 695.353 200.371 690.769 Q197.315 686.163 197.315 677.436 Q197.315 668.686 200.371 664.103 Q203.449 659.496 209.26 659.496 Z" fill="#000000" fill-rule="nonzero" fill-opacity="1"></path><path clip-path="url(#clip350)" d="M239.422 663.2 Q235.81 663.2 233.982 666.765 Q232.176 670.307 232.176 677.436 Q232.176 684.543 233.982 688.107 Q235.81 691.649 239.422 691.649 Q243.056 691.649 244.861 688.107 Q246.69 684.543 246.69 677.436 Q246.69 670.307 244.861 666.765 Q243.056 663.2 239.422 663.2 M239.422 659.496 Q245.232 659.496 248.287 664.103 Q251.366 668.686 251.366 677.436 Q251.366 686.163 248.287 690.769 Q245.232 695.353 239.422 695.353 Q233.611 695.353 230.533 690.769 Q227.477 686.163 227.477 677.436 Q227.477 668.686 230.533 664.103 Q233.611 659.496 239.422 659.496 Z" fill="#000000" fill-rule="nonzero" fill-opacity="1"></path><path clip-path="url(#clip350)" d="M272.431 664.195 L260.625 682.644 L272.431 682.644 L272.431 664.195 M271.204 660.121 L277.083 660.121 L277.083 682.644 L282.014 682.644 L282.014 686.533 L277.083 686.533 L277.083 694.681 L272.431 694.681 L272.431 686.533 L256.829 686.533 L256.829 682.019 L271.204 660.121 Z" fill="#000000" fill-rule="nonzero" fill-opacity="1"></path><path clip-path="url(#clip350)" d="M116.343 382.876 L146.019 382.876 L146.019 386.811 L116.343 386.811 L116.343 382.876 Z" fill="#000000" fill-rule="nonzero" fill-opacity="1"></path><path clip-path="url(#clip350)" d="M166.112 368.223 Q162.501 368.223 160.672 371.788 Q158.866 375.329 158.866 382.459 Q158.866 389.565 160.672 393.13 Q162.501 396.672 166.112 396.672 Q169.746 396.672 171.552 393.13 Q173.38 389.565 173.38 382.459 Q173.38 375.329 171.552 371.788 Q169.746 368.223 166.112 368.223 M166.112 364.519 Q171.922 364.519 174.977 369.126 Q178.056 373.709 178.056 382.459 Q178.056 391.186 174.977 395.792 Q171.922 400.376 166.112 400.376 Q160.302 400.376 157.223 395.792 Q154.167 391.186 154.167 382.459 Q154.167 373.709 157.223 369.126 Q160.302 364.519 166.112 364.519 Z" fill="#000000" fill-rule="nonzero" fill-opacity="1"></path><path clip-path="url(#clip350)" d="M186.274 393.825 L191.158 393.825 L191.158 399.704 L186.274 399.704 L186.274 393.825 Z" fill="#000000" fill-rule="nonzero" fill-opacity="1"></path><path clip-path="url(#clip350)" d="M211.343 368.223 Q207.732 368.223 205.903 371.788 Q204.098 375.329 204.098 382.459 Q204.098 389.565 205.903 393.13 Q207.732 396.672 211.343 396.672 Q214.977 396.672 216.783 393.13 Q218.611 389.565 218.611 382.459 Q218.611 375.329 216.783 371.788 Q214.977 368.223 211.343 368.223 M211.343 364.519 Q217.153 364.519 220.209 369.126 Q223.287 373.709 223.287 382.459 Q223.287 391.186 220.209 395.792 Q217.153 400.376 211.343 400.376 Q205.533 400.376 202.454 395.792 Q199.399 391.186 199.399 382.459 Q199.399 373.709 202.454 369.126 Q205.533 364.519 211.343 364.519 Z" fill="#000000" fill-rule="nonzero" fill-opacity="1"></path><path clip-path="url(#clip350)" d="M241.505 368.223 Q237.894 368.223 236.065 371.788 Q234.26 375.329 234.26 382.459 Q234.26 389.565 236.065 393.13 Q237.894 396.672 241.505 396.672 Q245.139 396.672 246.945 393.13 Q248.773 389.565 248.773 382.459 Q248.773 375.329 246.945 371.788 Q245.139 368.223 241.505 368.223 M241.505 364.519 Q247.315 364.519 250.371 369.126 Q253.449 373.709 253.449 382.459 Q253.449 391.186 250.371 395.792 Q247.315 400.376 241.505 400.376 Q235.695 400.376 232.616 395.792 Q229.56 391.186 229.56 382.459 Q229.56 373.709 232.616 369.126 Q235.695 364.519 241.505 364.519 Z" fill="#000000" fill-rule="nonzero" fill-opacity="1"></path><path clip-path="url(#clip350)" d="M265.695 395.769 L282.014 395.769 L282.014 399.704 L260.07 399.704 L260.07 395.769 Q262.732 393.014 267.315 388.385 Q271.921 383.732 273.102 382.39 Q275.347 379.866 276.227 378.13 Q277.13 376.371 277.13 374.681 Q277.13 371.927 275.185 370.191 Q273.264 368.454 270.162 368.454 Q267.963 368.454 265.509 369.218 Q263.079 369.982 260.301 371.533 L260.301 366.811 Q263.125 365.677 265.579 365.098 Q268.032 364.519 270.07 364.519 Q275.44 364.519 278.634 367.204 Q281.829 369.89 281.829 374.38 Q281.829 376.51 281.019 378.431 Q280.231 380.329 278.125 382.922 Q277.546 383.593 274.444 386.811 Q271.343 390.005 265.695 395.769 Z" fill="#000000" fill-rule="nonzero" fill-opacity="1"></path><path clip-path="url(#clip350)" d="M164.515 73.2458 Q160.903 73.2458 159.075 76.8106 Q157.269 80.3522 157.269 87.4818 Q157.269 94.5883 159.075 98.1531 Q160.903 101.695 164.515 101.695 Q168.149 101.695 169.954 98.1531 Q171.783 94.5883 171.783 87.4818 Q171.783 80.3522 169.954 76.8106 Q168.149 73.2458 164.515 73.2458 M164.515 69.5421 Q170.325 69.5421 173.38 74.1486 Q176.459 78.7319 176.459 87.4818 Q176.459 96.2086 173.38 100.815 Q170.325 105.398 164.515 105.398 Q158.704 105.398 155.626 100.815 Q152.57 96.2086 152.57 87.4818 Q152.57 78.7319 155.626 74.1486 Q158.704 69.5421 164.515 69.5421 Z" fill="#000000" fill-rule="nonzero" fill-opacity="1"></path><path clip-path="url(#clip350)" d="M184.676 98.8475 L189.561 98.8475 L189.561 104.727 L184.676 104.727 L184.676 98.8475 Z" fill="#000000" fill-rule="nonzero" fill-opacity="1"></path><path clip-path="url(#clip350)" d="M209.746 73.2458 Q206.135 73.2458 204.306 76.8106 Q202.5 80.3522 202.5 87.4818 Q202.5 94.5883 204.306 98.1531 Q206.135 101.695 209.746 101.695 Q213.38 101.695 215.186 98.1531 Q217.014 94.5883 217.014 87.4818 Q217.014 80.3522 215.186 76.8106 Q213.38 73.2458 209.746 73.2458 M209.746 69.5421 Q215.556 69.5421 218.611 74.1486 Q221.69 78.7319 221.69 87.4818 Q221.69 96.2086 218.611 100.815 Q215.556 105.398 209.746 105.398 Q203.936 105.398 200.857 100.815 Q197.801 96.2086 197.801 87.4818 Q197.801 78.7319 200.857 74.1486 Q203.936 69.5421 209.746 69.5421 Z" fill="#000000" fill-rule="nonzero" fill-opacity="1"></path><path clip-path="url(#clip350)" d="M239.908 73.2458 Q236.297 73.2458 234.468 76.8106 Q232.662 80.3522 232.662 87.4818 Q232.662 94.5883 234.468 98.1531 Q236.297 101.695 239.908 101.695 Q243.542 101.695 245.347 98.1531 Q247.176 94.5883 247.176 87.4818 Q247.176 80.3522 245.347 76.8106 Q243.542 73.2458 239.908 73.2458 M239.908 69.5421 Q245.718 69.5421 248.773 74.1486 Q251.852 78.7319 251.852 87.4818 Q251.852 96.2086 248.773 100.815 Q245.718 105.398 239.908 105.398 Q234.097 105.398 231.019 100.815 Q227.963 96.2086 227.963 87.4818 Q227.963 78.7319 231.019 74.1486 Q234.097 69.5421 239.908 69.5421 Z" fill="#000000" fill-rule="nonzero" fill-opacity="1"></path><path clip-path="url(#clip350)" d="M270.07 73.2458 Q266.458 73.2458 264.63 76.8106 Q262.824 80.3522 262.824 87.4818 Q262.824 94.5883 264.63 98.1531 Q266.458 101.695 270.07 101.695 Q273.704 101.695 275.509 98.1531 Q277.338 94.5883 277.338 87.4818 Q277.338 80.3522 275.509 76.8106 Q273.704 73.2458 270.07 73.2458 M270.07 69.5421 Q275.88 69.5421 278.935 74.1486 Q282.014 78.7319 282.014 87.4818 Q282.014 96.2086 278.935 100.815 Q275.88 105.398 270.07 105.398 Q264.259 105.398 261.181 100.815 Q258.125 96.2086 258.125 87.4818 Q258.125 78.7319 261.181 74.1486 Q264.259 69.5421 270.07 69.5421 Z" fill="#000000" fill-rule="nonzero" fill-opacity="1"></path><path clip-path="url(#clip350)" d="M33.8307 852.926 Q33.2578 853.913 33.0032 855.091 Q32.7167 856.236 32.7167 857.637 Q32.7167 862.602 35.9632 865.276 Q39.1779 867.917 45.2253 867.917 L64.0042 867.917 L64.0042 873.806 L28.3562 873.806 L28.3562 867.917 L33.8944 867.917 Q30.6479 866.071 29.0883 863.111 Q27.4968 860.151 27.4968 855.918 Q27.4968 855.313 27.5923 854.581 Q27.656 853.849 27.8151 852.958 L33.8307 852.926 Z" fill="#000000" fill-rule="nonzero" fill-opacity="1"></path><path clip-path="url(#clip350)" d="M44.7161 817.724 L47.5806 817.724 L47.5806 844.651 Q53.6281 844.269 56.8109 841.022 Q59.9619 837.744 59.9619 831.919 Q59.9619 828.546 59.1344 825.395 Q58.3069 822.212 56.6518 819.093 L62.1899 819.093 Q63.5267 822.244 64.227 825.554 Q64.9272 828.864 64.9272 832.27 Q64.9272 840.8 59.9619 845.797 Q54.9967 850.762 46.5303 850.762 Q37.7774 850.762 32.6531 846.051 Q27.4968 841.309 27.4968 833.288 Q27.4968 826.095 32.1438 821.925 Q36.7589 817.724 44.7161 817.724 M42.9973 823.58 Q38.1912 823.644 35.3266 826.286 Q32.4621 828.896 32.4621 833.224 Q32.4621 838.126 35.2312 841.086 Q38.0002 844.014 43.0292 844.46 L42.9973 823.58 Z" fill="#000000" fill-rule="nonzero" fill-opacity="1"></path><path clip-path="url(#clip350)" d="M28.3562 811.517 L28.3562 805.661 L56.1743 798.34 L28.3562 791.052 L28.3562 784.145 L56.1743 776.824 L28.3562 769.535 L28.3562 763.679 L64.0042 773.005 L64.0042 779.912 L34.7856 787.582 L64.0042 795.285 L64.0042 802.192 L28.3562 811.517 Z" fill="#000000" fill-rule="nonzero" fill-opacity="1"></path><path clip-path="url(#clip350)" d="M46.0847 738.598 Q46.0847 745.696 47.7079 748.433 Q49.3312 751.17 53.2461 751.17 Q56.3653 751.17 58.2114 749.133 Q60.0256 747.065 60.0256 743.532 Q60.0256 738.662 56.5881 735.734 Q53.1188 732.774 47.3897 732.774 L46.0847 732.774 L46.0847 738.598 M43.6657 726.917 L64.0042 726.917 L64.0042 732.774 L58.5933 732.774 Q61.8398 734.779 63.3994 737.771 Q64.9272 740.763 64.9272 745.091 Q64.9272 750.566 61.8716 753.812 Q58.7843 757.027 53.6281 757.027 Q47.6125 757.027 44.5569 753.016 Q41.5014 748.974 41.5014 740.985 L41.5014 732.774 L40.9285 732.774 Q36.8862 732.774 34.6901 735.447 Q32.4621 738.089 32.4621 742.895 Q32.4621 745.951 33.1941 748.847 Q33.9262 751.743 35.3903 754.417 L29.9795 754.417 Q28.7381 751.202 28.1334 748.179 Q27.4968 745.155 27.4968 742.29 Q27.4968 734.556 31.5072 730.737 Q35.5176 726.917 43.6657 726.917 Z" fill="#000000" fill-rule="nonzero" fill-opacity="1"></path><path clip-path="url(#clip350)" d="M33.8307 694.197 Q33.2578 695.184 33.0032 696.362 Q32.7167 697.508 32.7167 698.908 Q32.7167 703.873 35.9632 706.547 Q39.1779 709.189 45.2253 709.189 L64.0042 709.189 L64.0042 715.077 L28.3562 715.077 L28.3562 709.189 L33.8944 709.189 Q30.6479 707.343 29.0883 704.382 Q27.4968 701.422 27.4968 697.189 Q27.4968 696.584 27.5923 695.852 Q27.656 695.12 27.8151 694.229 L33.8307 694.197 Z" fill="#000000" fill-rule="nonzero" fill-opacity="1"></path><path clip-path="url(#clip350)" d="M33.7671 665.743 L14.479 665.743 L14.479 659.886 L64.0042 659.886 L64.0042 665.743 L58.657 665.743 Q61.8398 667.589 63.3994 670.421 Q64.9272 673.222 64.9272 677.169 Q64.9272 683.63 59.771 687.704 Q54.6147 691.747 46.212 691.747 Q37.8093 691.747 32.6531 687.704 Q27.4968 683.63 27.4968 677.169 Q27.4968 673.222 29.0564 670.421 Q30.5842 667.589 33.7671 665.743 M46.212 685.699 Q52.6732 685.699 56.3653 683.057 Q60.0256 680.384 60.0256 675.737 Q60.0256 671.09 56.3653 668.416 Q52.6732 665.743 46.212 665.743 Q39.7508 665.743 36.0905 668.416 Q32.3984 671.09 32.3984 675.737 Q32.3984 680.384 36.0905 683.057 Q39.7508 685.699 46.212 685.699 Z" fill="#000000" fill-rule="nonzero" fill-opacity="1"></path><path clip-path="url(#clip352)" d="M655.352 1445.72 L655.246 1436.96 L654.972 1428.2 L654.561 1419.45 L654.056 1410.69 L653.509 1401.93 L652.977 1393.18 L652.513 1384.42 L652.165 1375.66 L651.975 1366.91 L651.977 1358.15 L652.195 1349.39 L652.641 1340.64 L653.318 1331.88 L654.211 1323.12 L655.288 1314.37 L656.499 1305.61 L657.777 1296.85 L659.044 1288.1 L660.216 1279.34 L661.218 1270.58 L661.987 1261.83 L662.484 1253.07 L662.697 1244.31 L662.64 1235.56 L662.345 1226.8 L661.857 1218.04 L661.223 1209.29 L660.487 1200.53 L659.68 1191.77 L658.828 1183.02 L657.946 1174.26 L657.048 1165.5 L656.146 1156.75 L655.259 1147.99 L654.408 1139.23 L653.616 1130.48 L652.91 1121.72 L652.311 1112.96 L651.84 1104.21 L651.511 1095.45 L651.332 1086.69 L651.308 1077.94 L651.436 1069.18 L651.705 1060.42 L652.101 1051.67 L652.599 1042.91 L653.166 1034.15 L653.764 1025.4 L654.351 1016.64 L654.886 1007.88 L655.336 999.126 L655.681 990.369 L655.921 981.613 L656.074 972.856 L656.18 964.099 L656.295 955.343 L656.477 946.586 L656.784 937.829 L657.257 929.073 L657.918 920.316 L658.759 911.559 L659.743 902.803 L660.814 894.046 L661.895 885.289 L662.908 876.533 L663.78 867.776 L664.454 859.019 L664.896 850.263 L665.097 841.506 L665.075 832.749 L664.87 823.993 L664.537 815.236 L664.141 806.479 L663.751 797.723 L663.435 788.966 L663.257 780.209 L663.277 771.453 L663.548 762.696 L664.116 753.939 L665.016 745.183 L666.268 736.426 L667.869 727.67 L669.788 718.913 L671.958 710.156 L674.277 701.4 L676.611 692.643 L678.807 683.886 L680.707 675.13 L682.171 666.373 L683.096 657.616 L683.428 648.86 L683.175 640.103 L682.403 631.346 L681.225 622.59 L679.78 613.833 L678.218 605.076 L676.675 596.32 L675.255 587.563 L674.025 578.806 L673.009 570.05 L672.192 561.293 L671.538 552.536 L670.994 543.78 L670.512 535.023 L670.059 526.266 L669.621 517.51 L669.208 508.753 L668.849 499.996 L668.581 491.24 L668.443 482.483 L668.459 473.726 L668.632 464.97 L668.942 456.213 L669.345 447.456 L669.786 438.7 L670.208 429.943 L670.572 421.186 L670.869 412.43 L671.133 403.673 L671.441 394.916 L671.912 386.16 L672.692 377.403 L673.941 368.646 L675.81 359.89 L678.422 351.133 L681.859 342.376 L686.152 333.62 L691.277 324.863 L697.166 316.106 L703.717 307.35 L710.813 298.593 L718.345 289.836 L726.232 281.08 L734.429 272.323 L742.943 263.566 L751.825 254.81 L761.16 246.053 L771.057 237.296 L781.625 228.54 L792.959 219.783 L805.117 211.027 L818.11 202.27 L831.876 193.513 L846.261 184.757 L860.998 176 L875.678 167.243 L889.739 158.487 L902.467 149.73 L913.024 140.973 L920.508 132.217 L924.049 123.46 L922.916 114.703 L916.639 105.947 L905.105 97.1899 L888.615 88.4333 L411.035 88.4333 L394.545 97.1899 L383.011 105.947 L376.734 114.703 L375.601 123.46 L379.142 132.217 L386.626 140.973 L397.183 149.73 L409.911 158.487 L423.972 167.243 L438.652 176 L453.389 184.757 L467.774 193.513 L481.54 202.27 L494.533 211.027 L506.691 219.783 L518.025 228.54 L528.593 237.296 L538.49 246.053 L547.825 254.81 L556.707 263.566 L565.221 272.323 L573.418 281.08 L581.304 289.836 L588.837 298.593 L595.933 307.35 L602.484 316.106 L608.373 324.863 L613.498 333.62 L617.791 342.376 L621.228 351.133 L623.84 359.89 L625.709 368.646 L626.958 377.403 L627.738 386.16 L628.208 394.916 L628.517 403.673 L628.78 412.43 L629.078 421.186 L629.442 429.943 L629.864 438.7 L630.305 447.456 L630.708 456.213 L631.018 464.97 L631.191 473.726 L631.207 482.483 L631.068 491.24 L630.801 499.996 L630.442 508.753 L630.029 517.51 L629.591 526.266 L629.138 535.023 L628.656 543.78 L628.112 552.536 L627.457 561.293 L626.641 570.05 L625.624 578.806 L624.395 587.563 L622.975 596.32 L621.432 605.076 L619.87 613.833 L618.425 622.59 L617.246 631.346 L616.475 640.103 L616.222 648.86 L616.554 657.616 L617.478 666.373 L618.942 675.13 L620.843 683.886 L623.038 692.643 L625.373 701.4 L627.692 710.156 L629.862 718.913 L631.781 727.67 L633.382 736.426 L634.634 745.183 L635.534 753.939 L636.102 762.696 L636.373 771.453 L636.393 780.209 L636.215 788.966 L635.899 797.723 L635.509 806.479 L635.113 815.236 L634.78 823.993 L634.575 832.749 L634.553 841.506 L634.754 850.263 L635.196 859.019 L635.87 867.776 L636.742 876.533 L637.755 885.289 L638.836 894.046 L639.906 902.803 L640.891 911.559 L641.732 920.316 L642.392 929.073 L642.866 937.829 L643.173 946.586 L643.355 955.343 L643.47 964.099 L643.576 972.856 L643.729 981.613 L643.968 990.369 L644.313 999.126 L644.763 1007.88 L645.299 1016.64 L645.886 1025.4 L646.484 1034.15 L647.051 1042.91 L647.549 1051.67 L647.944 1060.42 L648.214 1069.18 L648.341 1077.94 L648.317 1086.69 L648.139 1095.45 L647.81 1104.21 L647.339 1112.96 L646.74 1121.72 L646.033 1130.48 L645.242 1139.23 L644.39 1147.99 L643.504 1156.75 L642.602 1165.5 L641.704 1174.26 L640.822 1183.02 L639.97 1191.77 L639.163 1200.53 L638.426 1209.29 L637.793 1218.04 L637.305 1226.8 L637.01 1235.56 L636.952 1244.31 L637.166 1253.07 L637.663 1261.83 L638.432 1270.58 L639.433 1279.34 L640.606 1288.1 L641.873 1296.85 L643.151 1305.61 L644.362 1314.37 L645.439 1323.12 L646.332 1331.88 L647.008 1340.64 L647.455 1349.39 L647.673 1358.15 L647.675 1366.91 L647.485 1375.66 L647.137 1384.42 L646.673 1393.18 L646.14 1401.93 L645.594 1410.69 L645.089 1419.45 L644.678 1428.2 L644.404 1436.96 L644.297 1445.72 L655.352 1445.72  Z" fill="#009af9" fill-rule="evenodd" fill-opacity="1"></path>
<polyline clip-path="url(#clip352)" style="stroke:#000000; stroke-linecap:round; stroke-linejoin:round; stroke-width:4; stroke-opacity:1; fill:none" points="655.352,1445.72 655.246,1436.96 654.972,1428.2 654.561,1419.45 654.056,1410.69 653.509,1401.93 652.977,1393.18 652.513,1384.42 652.165,1375.66 651.975,1366.91 651.977,1358.15 652.195,1349.39 652.641,1340.64 653.318,1331.88 654.211,1323.12 655.288,1314.37 656.499,1305.61 657.777,1296.85 659.044,1288.1 660.216,1279.34 661.218,1270.58 661.987,1261.83 662.484,1253.07 662.697,1244.31 662.64,1235.56 662.345,1226.8 661.857,1218.04 661.223,1209.29 660.487,1200.53 659.68,1191.77 658.828,1183.02 657.946,1174.26 657.048,1165.5 656.146,1156.75 655.259,1147.99 654.408,1139.23 653.616,1130.48 652.91,1121.72 652.311,1112.96 651.84,1104.21 651.511,1095.45 651.332,1086.69 651.308,1077.94 651.436,1069.18 651.705,1060.42 652.101,1051.67 652.599,1042.91 653.166,1034.15 653.764,1025.4 654.351,1016.64 654.886,1007.88 655.336,999.126 655.681,990.369 655.921,981.613 656.074,972.856 656.18,964.099 656.295,955.343 656.477,946.586 656.784,937.829 657.257,929.073 657.918,920.316 658.759,911.559 659.743,902.803 660.814,894.046 661.895,885.289 662.908,876.533 663.78,867.776 664.454,859.019 664.896,850.263 665.097,841.506 665.075,832.749 664.87,823.993 664.537,815.236 664.141,806.479 663.751,797.723 663.435,788.966 663.257,780.209 663.277,771.453 663.548,762.696 664.116,753.939 665.016,745.183 666.268,736.426 667.869,727.67 669.788,718.913 671.958,710.156 674.277,701.4 676.611,692.643 678.807,683.886 680.707,675.13 682.171,666.373 683.096,657.616 683.428,648.86 683.175,640.103 682.403,631.346 681.225,622.59 679.78,613.833 678.218,605.076 676.675,596.32 675.255,587.563 674.025,578.806 673.009,570.05 672.192,561.293 671.538,552.536 670.994,543.78 670.512,535.023 670.059,526.266 669.621,517.51 669.208,508.753 668.849,499.996 668.581,491.24 668.443,482.483 668.459,473.726 668.632,464.97 668.942,456.213 669.345,447.456 669.786,438.7 670.208,429.943 670.572,421.186 670.869,412.43 671.133,403.673 671.441,394.916 671.912,386.16 672.692,377.403 673.941,368.646 675.81,359.89 678.422,351.133 681.859,342.376 686.152,333.62 691.277,324.863 697.166,316.106 703.717,307.35 710.813,298.593 718.345,289.836 726.232,281.08 734.429,272.323 742.943,263.566 751.825,254.81 761.16,246.053 771.057,237.296 781.625,228.54 792.959,219.783 805.117,211.027 818.11,202.27 831.876,193.513 846.261,184.757 860.998,176 875.678,167.243 889.739,158.487 902.467,149.73 913.024,140.973 920.508,132.217 924.049,123.46 922.916,114.703 916.639,105.947 905.105,97.1899 888.615,88.4333 411.035,88.4333 394.545,97.1899 383.011,105.947 376.734,114.703 375.601,123.46 379.142,132.217 386.626,140.973 397.183,149.73 409.911,158.487 423.972,167.243 438.652,176 453.389,184.757 467.774,193.513 481.54,202.27 494.533,211.027 506.691,219.783 518.025,228.54 528.593,237.296 538.49,246.053 547.825,254.81 556.707,263.566 565.221,272.323 573.418,281.08 581.304,289.836 588.837,298.593 595.933,307.35 602.484,316.106 608.373,324.863 613.498,333.62 617.791,342.376 621.228,351.133 623.84,359.89 625.709,368.646 626.958,377.403 627.738,386.16 628.208,394.916 628.517,403.673 628.78,412.43 629.078,421.186 629.442,429.943 629.864,438.7 630.305,447.456 630.708,456.213 631.018,464.97 631.191,473.726 631.207,482.483 631.068,491.24 630.801,499.996 630.442,508.753 630.029,517.51 629.591,526.266 629.138,535.023 628.656,543.78 628.112,552.536 627.457,561.293 626.641,570.05 625.624,578.806 624.395,587.563 622.975,596.32 621.432,605.076 619.87,613.833 618.425,622.59 617.246,631.346 616.475,640.103 616.222,648.86 616.554,657.616 617.478,666.373 618.942,675.13 620.843,683.886 623.038,692.643 625.373,701.4 627.692,710.156 629.862,718.913 631.781,727.67 633.382,736.426 634.634,745.183 635.534,753.939 636.102,762.696 636.373,771.453 636.393,780.209 636.215,788.966 635.899,797.723 635.509,806.479 635.113,815.236 634.78,823.993 634.575,832.749 634.553,841.506 634.754,850.263 635.196,859.019 635.87,867.776 636.742,876.533 637.755,885.289 638.836,894.046 639.906,902.803 640.891,911.559 641.732,920.316 642.392,929.073 642.866,937.829 643.173,946.586 643.355,955.343 643.47,964.099 643.576,972.856 643.729,981.613 643.968,990.369 644.313,999.126 644.763,1007.88 645.299,1016.64 645.886,1025.4 646.484,1034.15 647.051,1042.91 647.549,1051.67 647.944,1060.42 648.214,1069.18 648.341,1077.94 648.317,1086.69 648.139,1095.45 647.81,1104.21 647.339,1112.96 646.74,1121.72 646.033,1130.48 645.242,1139.23 644.39,1147.99 643.504,1156.75 642.602,1165.5 641.704,1174.26 640.822,1183.02 639.97,1191.77 639.163,1200.53 638.426,1209.29 637.793,1218.04 637.305,1226.8 637.01,1235.56 636.952,1244.31 637.166,1253.07 637.663,1261.83 638.432,1270.58 639.433,1279.34 640.606,1288.1 641.873,1296.85 643.151,1305.61 644.362,1314.37 645.439,1323.12 646.332,1331.88 647.008,1340.64 647.455,1349.39 647.673,1358.15 647.675,1366.91 647.485,1375.66 647.137,1384.42 646.673,1393.18 646.14,1401.93 645.594,1410.69 645.089,1419.45 644.678,1428.2 644.404,1436.96 644.297,1445.72 655.352,1445.72 "></polyline>
<path clip-path="url(#clip352)" d="M1346.2 311.248 L1346.88 309.544 L1347.52 307.839 L1348.1 306.135 L1348.61 304.431 L1349.05 302.726 L1349.43 301.022 L1349.72 299.318 L1349.95 297.613 L1350.1 295.909 L1350.18 294.204 L1350.19 292.5 L1350.13 290.796 L1350.02 289.091 L1349.86 287.387 L1349.65 285.683 L1349.41 283.978 L1349.14 282.274 L1348.87 280.57 L1348.59 278.865 L1348.32 277.161 L1348.08 275.456 L1347.87 273.752 L1347.71 272.048 L1347.59 270.343 L1347.52 268.639 L1347.51 266.935 L1347.56 265.23 L1347.66 263.526 L1347.8 261.821 L1348 260.117 L1348.23 258.413 L1348.49 256.708 L1348.79 255.004 L1349.11 253.3 L1349.47 251.595 L1349.84 249.891 L1350.25 248.187 L1350.68 246.482 L1351.13 244.778 L1351.61 243.073 L1352.11 241.369 L1352.63 239.665 L1353.15 237.96 L1353.68 236.256 L1354.19 234.552 L1354.69 232.847 L1355.15 231.143 L1355.58 229.439 L1355.96 227.734 L1356.3 226.03 L1356.6 224.325 L1356.87 222.621 L1357.12 220.917 L1357.37 219.212 L1357.63 217.508 L1357.94 215.804 L1358.3 214.099 L1358.75 212.395 L1359.31 210.691 L1359.97 208.986 L1360.76 207.282 L1361.66 205.577 L1362.67 203.873 L1363.78 202.169 L1364.95 200.464 L1366.18 198.76 L1367.42 197.056 L1368.65 195.351 L1369.84 193.647 L1370.98 191.943 L1372.04 190.238 L1373.02 188.534 L1373.93 186.829 L1374.77 185.125 L1375.56 183.421 L1376.33 181.716 L1377.12 180.012 L1377.96 178.308 L1378.89 176.603 L1379.94 174.899 L1381.15 173.195 L1382.55 171.49 L1384.14 169.786 L1385.93 168.081 L1387.93 166.377 L1390.12 164.673 L1392.48 162.968 L1394.97 161.264 L1397.57 159.56 L1400.23 157.855 L1402.91 156.151 L1405.58 154.447 L1408.19 152.742 L1410.72 151.038 L1413.16 149.333 L1415.48 147.629 L1417.71 145.925 L1419.85 144.22 L1421.95 142.516 L1424.04 140.812 L1426.19 139.107 L1428.48 137.403 L1431 135.698 L1433.83 133.994 L1437.1 132.29 L1440.9 130.585 L1445.35 128.881 L1450.55 127.177 L1456.59 125.472 L1463.54 123.768 L1471.46 122.064 L1480.35 120.359 L1490.19 118.655 L1500.92 116.95 L1512.39 115.246 L1524.45 113.542 L1536.85 111.837 L1549.32 110.133 L1561.53 108.429 L1573.12 106.724 L1583.73 105.02 L1592.96 103.316 L1600.47 101.611 L1605.91 99.9068 L1609.03 98.2025 L1609.61 96.4981 L1607.53 94.7937 L1602.76 93.0894 L1595.36 91.385 L1585.5 89.6806 L1573.4 87.9763 L1097.37 87.9763 L1085.27 89.6806 L1075.41 91.385 L1068.01 93.0894 L1063.24 94.7937 L1061.16 96.4981 L1061.74 98.2025 L1064.86 99.9068 L1070.3 101.611 L1077.81 103.316 L1087.04 105.02 L1097.65 106.724 L1109.24 108.429 L1121.45 110.133 L1133.92 111.837 L1146.32 113.542 L1158.38 115.246 L1169.85 116.95 L1180.58 118.655 L1190.42 120.359 L1199.31 122.064 L1207.23 123.768 L1214.18 125.472 L1220.22 127.177 L1225.42 128.881 L1229.87 130.585 L1233.67 132.29 L1236.94 133.994 L1239.77 135.698 L1242.29 137.403 L1244.58 139.107 L1246.73 140.812 L1248.82 142.516 L1250.92 144.22 L1253.06 145.925 L1255.29 147.629 L1257.61 149.333 L1260.05 151.038 L1262.58 152.742 L1265.19 154.447 L1267.86 156.151 L1270.54 157.855 L1273.2 159.56 L1275.8 161.264 L1278.29 162.968 L1280.65 164.673 L1282.84 166.377 L1284.84 168.081 L1286.63 169.786 L1288.22 171.49 L1289.62 173.195 L1290.83 174.899 L1291.88 176.603 L1292.81 178.308 L1293.65 180.012 L1294.44 181.716 L1295.21 183.421 L1296 185.125 L1296.84 186.829 L1297.75 188.534 L1298.73 190.238 L1299.79 191.943 L1300.93 193.647 L1302.12 195.351 L1303.35 197.056 L1304.59 198.76 L1305.82 200.464 L1306.99 202.169 L1308.1 203.873 L1309.11 205.577 L1310.01 207.282 L1310.8 208.986 L1311.46 210.691 L1312.01 212.395 L1312.47 214.099 L1312.83 215.804 L1313.14 217.508 L1313.4 219.212 L1313.65 220.917 L1313.9 222.621 L1314.17 224.325 L1314.47 226.03 L1314.81 227.734 L1315.19 229.439 L1315.62 231.143 L1316.08 232.847 L1316.58 234.552 L1317.09 236.256 L1317.62 237.96 L1318.14 239.665 L1318.66 241.369 L1319.16 243.073 L1319.64 244.778 L1320.09 246.482 L1320.52 248.187 L1320.93 249.891 L1321.3 251.595 L1321.65 253.3 L1321.98 255.004 L1322.28 256.708 L1322.54 258.413 L1322.77 260.117 L1322.97 261.821 L1323.11 263.526 L1323.21 265.23 L1323.26 266.935 L1323.25 268.639 L1323.18 270.343 L1323.06 272.048 L1322.9 273.752 L1322.69 275.456 L1322.45 277.161 L1322.18 278.865 L1321.9 280.57 L1321.63 282.274 L1321.36 283.978 L1321.12 285.683 L1320.91 287.387 L1320.75 289.091 L1320.64 290.796 L1320.58 292.5 L1320.59 294.204 L1320.67 295.909 L1320.82 297.613 L1321.05 299.318 L1321.34 301.022 L1321.72 302.726 L1322.16 304.431 L1322.67 306.135 L1323.25 307.839 L1323.89 309.544 L1324.57 311.248 L1346.2 311.248  Z" fill="#e26f46" fill-rule="evenodd" fill-opacity="1"></path>
<polyline clip-path="url(#clip352)" style="stroke:#000000; stroke-linecap:round; stroke-linejoin:round; stroke-width:4; stroke-opacity:1; fill:none" points="1346.2,311.248 1346.88,309.544 1347.52,307.839 1348.1,306.135 1348.61,304.431 1349.05,302.726 1349.43,301.022 1349.72,299.318 1349.95,297.613 1350.1,295.909 1350.18,294.204 1350.19,292.5 1350.13,290.796 1350.02,289.091 1349.86,287.387 1349.65,285.683 1349.41,283.978 1349.14,282.274 1348.87,280.57 1348.59,278.865 1348.32,277.161 1348.08,275.456 1347.87,273.752 1347.71,272.048 1347.59,270.343 1347.52,268.639 1347.51,266.935 1347.56,265.23 1347.66,263.526 1347.8,261.821 1348,260.117 1348.23,258.413 1348.49,256.708 1348.79,255.004 1349.11,253.3 1349.47,251.595 1349.84,249.891 1350.25,248.187 1350.68,246.482 1351.13,244.778 1351.61,243.073 1352.11,241.369 1352.63,239.665 1353.15,237.96 1353.68,236.256 1354.19,234.552 1354.69,232.847 1355.15,231.143 1355.58,229.439 1355.96,227.734 1356.3,226.03 1356.6,224.325 1356.87,222.621 1357.12,220.917 1357.37,219.212 1357.63,217.508 1357.94,215.804 1358.3,214.099 1358.75,212.395 1359.31,210.691 1359.97,208.986 1360.76,207.282 1361.66,205.577 1362.67,203.873 1363.78,202.169 1364.95,200.464 1366.18,198.76 1367.42,197.056 1368.65,195.351 1369.84,193.647 1370.98,191.943 1372.04,190.238 1373.02,188.534 1373.93,186.829 1374.77,185.125 1375.56,183.421 1376.33,181.716 1377.12,180.012 1377.96,178.308 1378.89,176.603 1379.94,174.899 1381.15,173.195 1382.55,171.49 1384.14,169.786 1385.93,168.081 1387.93,166.377 1390.12,164.673 1392.48,162.968 1394.97,161.264 1397.57,159.56 1400.23,157.855 1402.91,156.151 1405.58,154.447 1408.19,152.742 1410.72,151.038 1413.16,149.333 1415.48,147.629 1417.71,145.925 1419.85,144.22 1421.95,142.516 1424.04,140.812 1426.19,139.107 1428.48,137.403 1431,135.698 1433.83,133.994 1437.1,132.29 1440.9,130.585 1445.35,128.881 1450.55,127.177 1456.59,125.472 1463.54,123.768 1471.46,122.064 1480.35,120.359 1490.19,118.655 1500.92,116.95 1512.39,115.246 1524.45,113.542 1536.85,111.837 1549.32,110.133 1561.53,108.429 1573.12,106.724 1583.73,105.02 1592.96,103.316 1600.47,101.611 1605.91,99.9068 1609.03,98.2025 1609.61,96.4981 1607.53,94.7937 1602.76,93.0894 1595.36,91.385 1585.5,89.6806 1573.4,87.9763 1097.37,87.9763 1085.27,89.6806 1075.41,91.385 1068.01,93.0894 1063.24,94.7937 1061.16,96.4981 1061.74,98.2025 1064.86,99.9068 1070.3,101.611 1077.81,103.316 1087.04,105.02 1097.65,106.724 1109.24,108.429 1121.45,110.133 1133.92,111.837 1146.32,113.542 1158.38,115.246 1169.85,116.95 1180.58,118.655 1190.42,120.359 1199.31,122.064 1207.23,123.768 1214.18,125.472 1220.22,127.177 1225.42,128.881 1229.87,130.585 1233.67,132.29 1236.94,133.994 1239.77,135.698 1242.29,137.403 1244.58,139.107 1246.73,140.812 1248.82,142.516 1250.92,144.22 1253.06,145.925 1255.29,147.629 1257.61,149.333 1260.05,151.038 1262.58,152.742 1265.19,154.447 1267.86,156.151 1270.54,157.855 1273.2,159.56 1275.8,161.264 1278.29,162.968 1280.65,164.673 1282.84,166.377 1284.84,168.081 1286.63,169.786 1288.22,171.49 1289.62,173.195 1290.83,174.899 1291.88,176.603 1292.81,178.308 1293.65,180.012 1294.44,181.716 1295.21,183.421 1296,185.125 1296.84,186.829 1297.75,188.534 1298.73,190.238 1299.79,191.943 1300.93,193.647 1302.12,195.351 1303.35,197.056 1304.59,198.76 1305.82,200.464 1306.99,202.169 1308.1,203.873 1309.11,205.577 1310.01,207.282 1310.8,208.986 1311.46,210.691 1312.01,212.395 1312.47,214.099 1312.83,215.804 1313.14,217.508 1313.4,219.212 1313.65,220.917 1313.9,222.621 1314.17,224.325 1314.47,226.03 1314.81,227.734 1315.19,229.439 1315.62,231.143 1316.08,232.847 1316.58,234.552 1317.09,236.256 1317.62,237.96 1318.14,239.665 1318.66,241.369 1319.16,243.073 1319.64,244.778 1320.09,246.482 1320.52,248.187 1320.93,249.891 1321.3,251.595 1321.65,253.3 1321.98,255.004 1322.28,256.708 1322.54,258.413 1322.77,260.117 1322.97,261.821 1323.11,263.526 1323.21,265.23 1323.26,266.935 1323.25,268.639 1323.18,270.343 1323.06,272.048 1322.9,273.752 1322.69,275.456 1322.45,277.161 1322.18,278.865 1321.9,280.57 1321.63,282.274 1321.36,283.978 1321.12,285.683 1320.91,287.387 1320.75,289.091 1320.64,290.796 1320.58,292.5 1320.59,294.204 1320.67,295.909 1320.82,297.613 1321.05,299.318 1321.34,301.022 1321.72,302.726 1322.16,304.431 1322.67,306.135 1323.25,307.839 1323.89,309.544 1324.57,311.248 1346.2,311.248 "></polyline>
<path clip-path="url(#clip352)" d="M2033.44 1300.42 L2034.59 1290.79 L2035.76 1281.15 L2036.95 1271.51 L2038.15 1261.88 L2039.35 1252.24 L2040.53 1242.6 L2041.69 1232.96 L2042.81 1223.33 L2043.87 1213.69 L2044.87 1204.05 L2045.78 1194.42 L2046.61 1184.78 L2047.34 1175.14 L2047.96 1165.51 L2048.47 1155.87 L2048.87 1146.23 L2049.14 1136.6 L2049.29 1126.96 L2049.32 1117.32 L2049.22 1107.69 L2049.01 1098.05 L2048.69 1088.41 L2048.26 1078.78 L2047.74 1069.14 L2047.13 1059.5 L2046.44 1049.87 L2045.69 1040.23 L2044.9 1030.59 L2044.08 1020.96 L2043.26 1011.32 L2042.45 1001.68 L2041.67 992.045 L2040.95 982.409 L2040.31 972.772 L2039.76 963.135 L2039.32 953.498 L2039.01 943.861 L2038.84 934.225 L2038.8 924.588 L2038.92 914.951 L2039.18 905.314 L2039.59 895.678 L2040.14 886.041 L2040.82 876.404 L2041.62 866.767 L2042.52 857.13 L2043.51 847.494 L2044.56 837.857 L2045.65 828.22 L2046.77 818.583 L2047.9 808.947 L2049.01 799.31 L2050.08 789.673 L2051.1 780.036 L2052.06 770.399 L2052.93 760.763 L2053.71 751.126 L2054.39 741.489 L2054.97 731.852 L2055.43 722.216 L2055.79 712.579 L2056.04 702.942 L2056.19 693.305 L2056.25 683.668 L2056.22 674.032 L2056.11 664.395 L2055.95 654.758 L2055.74 645.121 L2055.49 635.485 L2055.24 625.848 L2054.98 616.211 L2054.75 606.574 L2054.55 596.937 L2054.41 587.301 L2054.34 577.664 L2054.36 568.027 L2054.48 558.39 L2054.7 548.753 L2055.05 539.117 L2055.51 529.48 L2056.11 519.843 L2056.83 510.206 L2057.68 500.57 L2058.65 490.933 L2059.74 481.296 L2060.95 471.659 L2062.27 462.022 L2063.72 452.386 L2065.28 442.749 L2066.98 433.112 L2068.83 423.475 L2070.84 413.839 L2073.06 404.202 L2075.5 394.565 L2078.22 384.928 L2081.27 375.291 L2084.69 365.655 L2088.56 356.018 L2092.93 346.381 L2097.87 336.744 L2103.45 327.108 L2109.73 317.471 L2116.78 307.834 L2124.62 298.197 L2133.3 288.56 L2142.83 278.924 L2153.18 269.287 L2164.31 259.65 L2176.14 250.013 L2188.55 240.377 L2201.37 230.74 L2214.41 221.103 L2227.42 211.466 L2240.14 201.829 L2252.26 192.193 L2263.47 182.556 L2273.44 172.919 L2281.87 163.282 L2288.46 153.646 L2292.96 144.009 L2295.17 134.372 L2294.95 124.735 L2292.22 115.098 L2287.01 105.462 L2279.39 95.8249 L1762.5 95.8249 L1754.88 105.462 L1749.67 115.098 L1746.94 124.735 L1746.72 134.372 L1748.93 144.009 L1753.43 153.646 L1760.02 163.282 L1768.45 172.919 L1778.42 182.556 L1789.63 192.193 L1801.75 201.829 L1814.47 211.466 L1827.48 221.103 L1840.52 230.74 L1853.34 240.377 L1865.75 250.013 L1877.58 259.65 L1888.71 269.287 L1899.06 278.924 L1908.59 288.56 L1917.27 298.197 L1925.11 307.834 L1932.15 317.471 L1938.44 327.108 L1944.02 336.744 L1948.96 346.381 L1953.33 356.018 L1957.19 365.655 L1960.62 375.291 L1963.67 384.928 L1966.39 394.565 L1968.83 404.202 L1971.05 413.839 L1973.06 423.475 L1974.91 433.112 L1976.61 442.749 L1978.17 452.386 L1979.62 462.022 L1980.94 471.659 L1982.15 481.296 L1983.24 490.933 L1984.21 500.57 L1985.06 510.206 L1985.78 519.843 L1986.38 529.48 L1986.84 539.117 L1987.19 548.753 L1987.41 558.39 L1987.53 568.027 L1987.55 577.664 L1987.48 587.301 L1987.34 596.937 L1987.14 606.574 L1986.91 616.211 L1986.65 625.848 L1986.39 635.485 L1986.15 645.121 L1985.94 654.758 L1985.78 664.395 L1985.67 674.032 L1985.64 683.668 L1985.7 693.305 L1985.85 702.942 L1986.1 712.579 L1986.46 722.216 L1986.92 731.852 L1987.5 741.489 L1988.18 751.126 L1988.96 760.763 L1989.83 770.399 L1990.79 780.036 L1991.81 789.673 L1992.88 799.31 L1993.99 808.947 L1995.12 818.583 L1996.24 828.22 L1997.33 837.857 L1998.38 847.494 L1999.37 857.13 L2000.27 866.767 L2001.07 876.404 L2001.75 886.041 L2002.3 895.678 L2002.71 905.314 L2002.97 914.951 L2003.09 924.588 L2003.05 934.225 L2002.88 943.861 L2002.56 953.498 L2002.13 963.135 L2001.58 972.772 L2000.94 982.409 L2000.22 992.045 L1999.44 1001.68 L1998.63 1011.32 L1997.81 1020.96 L1996.99 1030.59 L1996.2 1040.23 L1995.45 1049.87 L1994.76 1059.5 L1994.15 1069.14 L1993.63 1078.78 L1993.2 1088.41 L1992.88 1098.05 L1992.67 1107.69 L1992.57 1117.32 L1992.6 1126.96 L1992.75 1136.6 L1993.02 1146.23 L1993.42 1155.87 L1993.93 1165.51 L1994.55 1175.14 L1995.28 1184.78 L1996.11 1194.42 L1997.02 1204.05 L1998.02 1213.69 L1999.08 1223.33 L2000.2 1232.96 L2001.36 1242.6 L2002.54 1252.24 L2003.74 1261.88 L2004.94 1271.51 L2006.13 1281.15 L2007.3 1290.79 L2008.44 1300.42 L2033.44 1300.42  Z" fill="#3da44d" fill-rule="evenodd" fill-opacity="1"></path>
<polyline clip-path="url(#clip352)" style="stroke:#000000; stroke-linecap:round; stroke-linejoin:round; stroke-width:4; stroke-opacity:1; fill:none" points="2033.44,1300.42 2034.59,1290.79 2035.76,1281.15 2036.95,1271.51 2038.15,1261.88 2039.35,1252.24 2040.53,1242.6 2041.69,1232.96 2042.81,1223.33 2043.87,1213.69 2044.87,1204.05 2045.78,1194.42 2046.61,1184.78 2047.34,1175.14 2047.96,1165.51 2048.47,1155.87 2048.87,1146.23 2049.14,1136.6 2049.29,1126.96 2049.32,1117.32 2049.22,1107.69 2049.01,1098.05 2048.69,1088.41 2048.26,1078.78 2047.74,1069.14 2047.13,1059.5 2046.44,1049.87 2045.69,1040.23 2044.9,1030.59 2044.08,1020.96 2043.26,1011.32 2042.45,1001.68 2041.67,992.045 2040.95,982.409 2040.31,972.772 2039.76,963.135 2039.32,953.498 2039.01,943.861 2038.84,934.225 2038.8,924.588 2038.92,914.951 2039.18,905.314 2039.59,895.678 2040.14,886.041 2040.82,876.404 2041.62,866.767 2042.52,857.13 2043.51,847.494 2044.56,837.857 2045.65,828.22 2046.77,818.583 2047.9,808.947 2049.01,799.31 2050.08,789.673 2051.1,780.036 2052.06,770.399 2052.93,760.763 2053.71,751.126 2054.39,741.489 2054.97,731.852 2055.43,722.216 2055.79,712.579 2056.04,702.942 2056.19,693.305 2056.25,683.668 2056.22,674.032 2056.11,664.395 2055.95,654.758 2055.74,645.121 2055.49,635.485 2055.24,625.848 2054.98,616.211 2054.75,606.574 2054.55,596.937 2054.41,587.301 2054.34,577.664 2054.36,568.027 2054.48,558.39 2054.7,548.753 2055.05,539.117 2055.51,529.48 2056.11,519.843 2056.83,510.206 2057.68,500.57 2058.65,490.933 2059.74,481.296 2060.95,471.659 2062.27,462.022 2063.72,452.386 2065.28,442.749 2066.98,433.112 2068.83,423.475 2070.84,413.839 2073.06,404.202 2075.5,394.565 2078.22,384.928 2081.27,375.291 2084.69,365.655 2088.56,356.018 2092.93,346.381 2097.87,336.744 2103.45,327.108 2109.73,317.471 2116.78,307.834 2124.62,298.197 2133.3,288.56 2142.83,278.924 2153.18,269.287 2164.31,259.65 2176.14,250.013 2188.55,240.377 2201.37,230.74 2214.41,221.103 2227.42,211.466 2240.14,201.829 2252.26,192.193 2263.47,182.556 2273.44,172.919 2281.87,163.282 2288.46,153.646 2292.96,144.009 2295.17,134.372 2294.95,124.735 2292.22,115.098 2287.01,105.462 2279.39,95.8249 1762.5,95.8249 1754.88,105.462 1749.67,115.098 1746.94,124.735 1746.72,134.372 1748.93,144.009 1753.43,153.646 1760.02,163.282 1768.45,172.919 1778.42,182.556 1789.63,192.193 1801.75,201.829 1814.47,211.466 1827.48,221.103 1840.52,230.74 1853.34,240.377 1865.75,250.013 1877.58,259.65 1888.71,269.287 1899.06,278.924 1908.59,288.56 1917.27,298.197 1925.11,307.834 1932.15,317.471 1938.44,327.108 1944.02,336.744 1948.96,346.381 1953.33,356.018 1957.19,365.655 1960.62,375.291 1963.67,384.928 1966.39,394.565 1968.83,404.202 1971.05,413.839 1973.06,423.475 1974.91,433.112 1976.61,442.749 1978.17,452.386 1979.62,462.022 1980.94,471.659 1982.15,481.296 1983.24,490.933 1984.21,500.57 1985.06,510.206 1985.78,519.843 1986.38,529.48 1986.84,539.117 1987.19,548.753 1987.41,558.39 1987.53,568.027 1987.55,577.664 1987.48,587.301 1987.34,596.937 1987.14,606.574 1986.91,616.211 1986.65,625.848 1986.39,635.485 1986.15,645.121 1985.94,654.758 1985.78,664.395 1985.67,674.032 1985.64,683.668 1985.7,693.305 1985.85,702.942 1986.1,712.579 1986.46,722.216 1986.92,731.852 1987.5,741.489 1988.18,751.126 1988.96,760.763 1989.83,770.399 1990.79,780.036 1991.81,789.673 1992.88,799.31 1993.99,808.947 1995.12,818.583 1996.24,828.22 1997.33,837.857 1998.38,847.494 1999.37,857.13 2000.27,866.767 2001.07,876.404 2001.75,886.041 2002.3,895.678 2002.71,905.314 2002.97,914.951 2003.09,924.588 2003.05,934.225 2002.88,943.861 2002.56,953.498 2002.13,963.135 2001.58,972.772 2000.94,982.409 2000.22,992.045 1999.44,1001.68 1998.63,1011.32 1997.81,1020.96 1996.99,1030.59 1996.2,1040.23 1995.45,1049.87 1994.76,1059.5 1994.15,1069.14 1993.63,1078.78 1993.2,1088.41 1992.88,1098.05 1992.67,1107.69 1992.57,1117.32 1992.6,1126.96 1992.75,1136.6 1993.02,1146.23 1993.42,1155.87 1993.93,1165.51 1994.55,1175.14 1995.28,1184.78 1996.11,1194.42 1997.02,1204.05 1998.02,1213.69 1999.08,1223.33 2000.2,1232.96 2001.36,1242.6 2002.54,1252.24 2003.74,1261.88 2004.94,1271.51 2006.13,1281.15 2007.3,1290.79 2008.44,1300.42 2033.44,1300.42 "></polyline>
<path clip-path="url(#clip350)" d="M942.179 1438.47 L1728.59 1438.47 L1728.59 1231.11 L942.179 1231.11  Z" fill="#ffffff" fill-rule="evenodd" fill-opacity="1"></path>
<polyline clip-path="url(#clip350)" style="stroke:#000000; stroke-linecap:round; stroke-linejoin:round; stroke-width:4; stroke-opacity:1; fill:none" points="942.179,1438.47 1728.59,1438.47 1728.59,1231.11 942.179,1231.11 942.179,1438.47 "></polyline>
<path clip-path="url(#clip350)" d="M964.788 1303.69 L1100.44 1303.69 L1100.44 1262.22 L964.788 1262.22 L964.788 1303.69  Z" fill="#009af9" fill-rule="evenodd" fill-opacity="1"></path>
<polyline clip-path="url(#clip350)" style="stroke:#000000; stroke-linecap:round; stroke-linejoin:round; stroke-width:4; stroke-opacity:1; fill:none" points="964.788,1303.69 1100.44,1303.69 1100.44,1262.22 964.788,1262.22 964.788,1303.69 "></polyline>
<path clip-path="url(#clip350)" d="M1139.55 1264.22 L1139.55 1267.76 L1135.48 1267.76 Q1133.18 1267.76 1132.28 1268.68 Q1131.4 1269.61 1131.4 1272.02 L1131.4 1274.31 L1138.42 1274.31 L1138.42 1277.62 L1131.4 1277.62 L1131.4 1300.23 L1127.12 1300.23 L1127.12 1277.62 L1123.05 1277.62 L1123.05 1274.31 L1127.12 1274.31 L1127.12 1272.5 Q1127.12 1268.17 1129.13 1266.21 Q1131.15 1264.22 1135.52 1264.22 L1139.55 1264.22 Z" fill="#000000" fill-rule="nonzero" fill-opacity="1"></path><path clip-path="url(#clip350)" d="M1143.11 1274.31 L1147.37 1274.31 L1147.37 1300.23 L1143.11 1300.23 L1143.11 1274.31 M1143.11 1264.22 L1147.37 1264.22 L1147.37 1269.61 L1143.11 1269.61 L1143.11 1264.22 Z" fill="#000000" fill-rule="nonzero" fill-opacity="1"></path><path clip-path="url(#clip350)" d="M1171.31 1278.29 Q1170.59 1277.87 1169.73 1277.69 Q1168.9 1277.48 1167.88 1277.48 Q1164.27 1277.48 1162.33 1279.84 Q1160.41 1282.18 1160.41 1286.58 L1160.41 1300.23 L1156.12 1300.23 L1156.12 1274.31 L1160.41 1274.31 L1160.41 1278.34 Q1161.75 1275.98 1163.9 1274.84 Q1166.05 1273.68 1169.13 1273.68 Q1169.57 1273.68 1170.11 1273.75 Q1170.64 1273.8 1171.29 1273.92 L1171.31 1278.29 Z" fill="#000000" fill-rule="nonzero" fill-opacity="1"></path><path clip-path="url(#clip350)" d="M1192.3 1275.07 L1192.3 1279.1 Q1190.5 1278.17 1188.55 1277.71 Q1186.61 1277.25 1184.53 1277.25 Q1181.36 1277.25 1179.76 1278.22 Q1178.18 1279.19 1178.18 1281.14 Q1178.18 1282.62 1179.32 1283.48 Q1180.45 1284.31 1183.88 1285.07 L1185.34 1285.4 Q1189.87 1286.37 1191.77 1288.15 Q1193.69 1289.91 1193.69 1293.08 Q1193.69 1296.69 1190.82 1298.8 Q1187.98 1300.91 1182.98 1300.91 Q1180.89 1300.91 1178.62 1300.49 Q1176.38 1300.1 1173.88 1299.29 L1173.88 1294.89 Q1176.24 1296.11 1178.53 1296.74 Q1180.82 1297.34 1183.07 1297.34 Q1186.08 1297.34 1187.7 1296.32 Q1189.32 1295.28 1189.32 1293.41 Q1189.32 1291.67 1188.14 1290.74 Q1186.98 1289.82 1183.02 1288.96 L1181.54 1288.61 Q1177.58 1287.78 1175.82 1286.07 Q1174.06 1284.33 1174.06 1281.32 Q1174.06 1277.67 1176.66 1275.67 Q1179.25 1273.68 1184.02 1273.68 Q1186.38 1273.68 1188.46 1274.03 Q1190.55 1274.38 1192.3 1275.07 Z" fill="#000000" fill-rule="nonzero" fill-opacity="1"></path><path clip-path="url(#clip350)" d="M1204.69 1266.95 L1204.69 1274.31 L1213.46 1274.31 L1213.46 1277.62 L1204.69 1277.62 L1204.69 1291.69 Q1204.69 1294.86 1205.54 1295.77 Q1206.42 1296.67 1209.09 1296.67 L1213.46 1296.67 L1213.46 1300.23 L1209.09 1300.23 Q1204.16 1300.23 1202.28 1298.41 Q1200.41 1296.55 1200.41 1291.69 L1200.41 1277.62 L1197.28 1277.62 L1197.28 1274.31 L1200.41 1274.31 L1200.41 1266.95 L1204.69 1266.95 Z" fill="#000000" fill-rule="nonzero" fill-opacity="1"></path><path clip-path="url(#clip350)" d="M1251.19 1278.24 L1251.19 1264.22 L1255.45 1264.22 L1255.45 1300.23 L1251.19 1300.23 L1251.19 1296.35 Q1249.85 1298.66 1247.79 1299.79 Q1245.75 1300.91 1242.88 1300.91 Q1238.18 1300.91 1235.22 1297.16 Q1232.28 1293.41 1232.28 1287.29 Q1232.28 1281.18 1235.22 1277.43 Q1238.18 1273.68 1242.88 1273.68 Q1245.75 1273.68 1247.79 1274.82 Q1249.85 1275.93 1251.19 1278.24 M1236.68 1287.29 Q1236.68 1291.99 1238.6 1294.68 Q1240.54 1297.34 1243.92 1297.34 Q1247.3 1297.34 1249.25 1294.68 Q1251.19 1291.99 1251.19 1287.29 Q1251.19 1282.6 1249.25 1279.93 Q1247.3 1277.25 1243.92 1277.25 Q1240.54 1277.25 1238.6 1279.93 Q1236.68 1282.6 1236.68 1287.29 Z" fill="#000000" fill-rule="nonzero" fill-opacity="1"></path><path clip-path="url(#clip350)" d="M1286.4 1286.21 L1286.4 1288.29 L1266.82 1288.29 Q1267.1 1292.69 1269.46 1295 Q1271.84 1297.29 1276.08 1297.29 Q1278.53 1297.29 1280.82 1296.69 Q1283.14 1296.09 1285.41 1294.89 L1285.41 1298.91 Q1283.11 1299.89 1280.71 1300.4 Q1278.3 1300.91 1275.82 1300.91 Q1269.62 1300.91 1265.98 1297.29 Q1262.37 1293.68 1262.37 1287.53 Q1262.37 1281.16 1265.8 1277.43 Q1269.25 1273.68 1275.08 1273.68 Q1280.31 1273.68 1283.35 1277.06 Q1286.4 1280.42 1286.4 1286.21 M1282.14 1284.96 Q1282.1 1281.46 1280.17 1279.38 Q1278.28 1277.29 1275.13 1277.29 Q1271.56 1277.29 1269.41 1279.31 Q1267.28 1281.32 1266.96 1284.98 L1282.14 1284.96 Z" fill="#000000" fill-rule="nonzero" fill-opacity="1"></path><path clip-path="url(#clip350)" d="M1309.92 1275.07 L1309.92 1279.1 Q1308.11 1278.17 1306.17 1277.71 Q1304.22 1277.25 1302.14 1277.25 Q1298.97 1277.25 1297.37 1278.22 Q1295.8 1279.19 1295.8 1281.14 Q1295.8 1282.62 1296.93 1283.48 Q1298.07 1284.31 1301.49 1285.07 L1302.95 1285.4 Q1307.49 1286.37 1309.39 1288.15 Q1311.31 1289.91 1311.31 1293.08 Q1311.31 1296.69 1308.44 1298.8 Q1305.59 1300.91 1300.59 1300.91 Q1298.51 1300.91 1296.24 1300.49 Q1293.99 1300.1 1291.49 1299.29 L1291.49 1294.89 Q1293.85 1296.11 1296.15 1296.74 Q1298.44 1297.34 1300.68 1297.34 Q1303.69 1297.34 1305.31 1296.32 Q1306.93 1295.28 1306.93 1293.41 Q1306.93 1291.67 1305.75 1290.74 Q1304.6 1289.82 1300.64 1288.96 L1299.16 1288.61 Q1295.2 1287.78 1293.44 1286.07 Q1291.68 1284.33 1291.68 1281.32 Q1291.68 1277.67 1294.27 1275.67 Q1296.86 1273.68 1301.63 1273.68 Q1303.99 1273.68 1306.08 1274.03 Q1308.16 1274.38 1309.92 1275.07 Z" fill="#000000" fill-rule="nonzero" fill-opacity="1"></path><path clip-path="url(#clip350)" d="M1318.09 1274.31 L1322.35 1274.31 L1322.35 1300.23 L1318.09 1300.23 L1318.09 1274.31 M1318.09 1264.22 L1322.35 1264.22 L1322.35 1269.61 L1318.09 1269.61 L1318.09 1264.22 Z" fill="#000000" fill-rule="nonzero" fill-opacity="1"></path><path clip-path="url(#clip350)" d="M1348.32 1286.97 Q1348.32 1282.34 1346.4 1279.79 Q1344.5 1277.25 1341.05 1277.25 Q1337.63 1277.25 1335.71 1279.79 Q1333.81 1282.34 1333.81 1286.97 Q1333.81 1291.58 1335.71 1294.12 Q1337.63 1296.67 1341.05 1296.67 Q1344.5 1296.67 1346.4 1294.12 Q1348.32 1291.58 1348.32 1286.97 M1352.58 1297.02 Q1352.58 1303.64 1349.64 1306.85 Q1346.7 1310.1 1340.64 1310.1 Q1338.39 1310.1 1336.4 1309.75 Q1334.41 1309.42 1332.54 1308.73 L1332.54 1304.59 Q1334.41 1305.6 1336.24 1306.09 Q1338.07 1306.58 1339.97 1306.58 Q1344.16 1306.58 1346.24 1304.38 Q1348.32 1302.2 1348.32 1297.78 L1348.32 1295.67 Q1347 1297.97 1344.94 1299.1 Q1342.88 1300.23 1340.01 1300.23 Q1335.24 1300.23 1332.33 1296.6 Q1329.41 1292.97 1329.41 1286.97 Q1329.41 1280.95 1332.33 1277.32 Q1335.24 1273.68 1340.01 1273.68 Q1342.88 1273.68 1344.94 1274.82 Q1347 1275.95 1348.32 1278.24 L1348.32 1274.31 L1352.58 1274.31 L1352.58 1297.02 Z" fill="#000000" fill-rule="nonzero" fill-opacity="1"></path><path clip-path="url(#clip350)" d="M1382.91 1284.59 L1382.91 1300.23 L1378.65 1300.23 L1378.65 1284.73 Q1378.65 1281.04 1377.21 1279.22 Q1375.78 1277.39 1372.91 1277.39 Q1369.46 1277.39 1367.47 1279.59 Q1365.47 1281.79 1365.47 1285.58 L1365.47 1300.23 L1361.19 1300.23 L1361.19 1274.31 L1365.47 1274.31 L1365.47 1278.34 Q1367 1276 1369.06 1274.84 Q1371.15 1273.68 1373.85 1273.68 Q1378.32 1273.68 1380.61 1276.46 Q1382.91 1279.22 1382.91 1284.59 Z" fill="#000000" fill-rule="nonzero" fill-opacity="1"></path><path clip-path="url(#clip350)" d="M964.788 1355.53 L1100.44 1355.53 L1100.44 1314.06 L964.788 1314.06 L964.788 1355.53  Z" fill="#e26f46" fill-rule="evenodd" fill-opacity="1"></path>
<polyline clip-path="url(#clip350)" style="stroke:#000000; stroke-linecap:round; stroke-linejoin:round; stroke-width:4; stroke-opacity:1; fill:none" points="964.788,1355.53 1100.44,1355.53 1100.44,1314.06 964.788,1314.06 964.788,1355.53 "></polyline>
<path clip-path="url(#clip350)" d="M1141.47 1326.91 L1141.47 1330.94 Q1139.67 1330.01 1137.72 1329.55 Q1135.78 1329.09 1133.69 1329.09 Q1130.52 1329.09 1128.93 1330.06 Q1127.35 1331.03 1127.35 1332.98 Q1127.35 1334.46 1128.49 1335.32 Q1129.62 1336.15 1133.05 1336.91 L1134.5 1337.24 Q1139.04 1338.21 1140.94 1339.99 Q1142.86 1341.75 1142.86 1344.92 Q1142.86 1348.53 1139.99 1350.64 Q1137.14 1352.75 1132.14 1352.75 Q1130.06 1352.75 1127.79 1352.33 Q1125.55 1351.94 1123.05 1351.13 L1123.05 1346.73 Q1125.41 1347.95 1127.7 1348.58 Q1129.99 1349.18 1132.24 1349.18 Q1135.24 1349.18 1136.86 1348.16 Q1138.49 1347.12 1138.49 1345.25 Q1138.49 1343.51 1137.3 1342.58 Q1136.15 1341.66 1132.19 1340.8 L1130.71 1340.45 Q1126.75 1339.62 1124.99 1337.91 Q1123.23 1336.17 1123.23 1333.16 Q1123.23 1329.51 1125.82 1327.51 Q1128.42 1325.52 1133.18 1325.52 Q1135.55 1325.52 1137.63 1325.87 Q1139.71 1326.22 1141.47 1326.91 Z" fill="#000000" fill-rule="nonzero" fill-opacity="1"></path><path clip-path="url(#clip350)" d="M1171.82 1338.05 L1171.82 1340.13 L1152.24 1340.13 Q1152.51 1344.53 1154.87 1346.84 Q1157.26 1349.13 1161.49 1349.13 Q1163.95 1349.13 1166.24 1348.53 Q1168.55 1347.93 1170.82 1346.73 L1170.82 1350.75 Q1168.53 1351.73 1166.12 1352.24 Q1163.72 1352.75 1161.24 1352.75 Q1155.04 1352.75 1151.4 1349.13 Q1147.79 1345.52 1147.79 1339.37 Q1147.79 1333 1151.22 1329.27 Q1154.67 1325.52 1160.5 1325.52 Q1165.73 1325.52 1168.76 1328.9 Q1171.82 1332.26 1171.82 1338.05 M1167.56 1336.8 Q1167.51 1333.3 1165.59 1331.22 Q1163.69 1329.13 1160.55 1329.13 Q1156.98 1329.13 1154.83 1331.15 Q1152.7 1333.16 1152.37 1336.82 L1167.56 1336.8 Z" fill="#000000" fill-rule="nonzero" fill-opacity="1"></path><path clip-path="url(#clip350)" d="M1197.47 1327.14 L1197.47 1331.13 Q1195.66 1330.13 1193.83 1329.64 Q1192.03 1329.13 1190.17 1329.13 Q1186.03 1329.13 1183.74 1331.77 Q1181.45 1334.39 1181.45 1339.13 Q1181.45 1343.88 1183.74 1346.52 Q1186.03 1349.13 1190.17 1349.13 Q1192.03 1349.13 1193.83 1348.65 Q1195.66 1348.14 1197.47 1347.14 L1197.47 1351.08 Q1195.68 1351.91 1193.76 1352.33 Q1191.86 1352.75 1189.71 1352.75 Q1183.86 1352.75 1180.41 1349.07 Q1176.96 1345.38 1176.96 1339.13 Q1176.96 1332.79 1180.43 1329.16 Q1183.92 1325.52 1189.99 1325.52 Q1191.96 1325.52 1193.83 1325.94 Q1195.71 1326.33 1197.47 1327.14 Z" fill="#000000" fill-rule="nonzero" fill-opacity="1"></path><path clip-path="url(#clip350)" d="M1214.92 1329.13 Q1211.49 1329.13 1209.5 1331.82 Q1207.51 1334.48 1207.51 1339.13 Q1207.51 1343.79 1209.48 1346.47 Q1211.47 1349.13 1214.92 1349.13 Q1218.32 1349.13 1220.31 1346.45 Q1222.3 1343.76 1222.3 1339.13 Q1222.3 1334.53 1220.31 1331.84 Q1218.32 1329.13 1214.92 1329.13 M1214.92 1325.52 Q1220.48 1325.52 1223.65 1329.13 Q1226.82 1332.75 1226.82 1339.13 Q1226.82 1345.5 1223.65 1349.13 Q1220.48 1352.75 1214.92 1352.75 Q1209.34 1352.75 1206.17 1349.13 Q1203.02 1345.5 1203.02 1339.13 Q1203.02 1332.75 1206.17 1329.13 Q1209.34 1325.52 1214.92 1325.52 Z" fill="#000000" fill-rule="nonzero" fill-opacity="1"></path><path clip-path="url(#clip350)" d="M1255.43 1336.43 L1255.43 1352.07 L1251.17 1352.07 L1251.17 1336.57 Q1251.17 1332.88 1249.73 1331.06 Q1248.3 1329.23 1245.43 1329.23 Q1241.98 1329.23 1239.99 1331.43 Q1238 1333.63 1238 1337.42 L1238 1352.07 L1233.72 1352.07 L1233.72 1326.15 L1238 1326.15 L1238 1330.18 Q1239.53 1327.84 1241.59 1326.68 Q1243.67 1325.52 1246.38 1325.52 Q1250.85 1325.52 1253.14 1328.3 Q1255.43 1331.06 1255.43 1336.43 Z" fill="#000000" fill-rule="nonzero" fill-opacity="1"></path><path clip-path="url(#clip350)" d="M1280.98 1330.08 L1280.98 1316.06 L1285.24 1316.06 L1285.24 1352.07 L1280.98 1352.07 L1280.98 1348.19 Q1279.64 1350.5 1277.58 1351.63 Q1275.54 1352.75 1272.67 1352.75 Q1267.98 1352.75 1265.01 1349 Q1262.07 1345.25 1262.07 1339.13 Q1262.07 1333.02 1265.01 1329.27 Q1267.98 1325.52 1272.67 1325.52 Q1275.54 1325.52 1277.58 1326.66 Q1279.64 1327.77 1280.98 1330.08 M1266.47 1339.13 Q1266.47 1343.83 1268.39 1346.52 Q1270.34 1349.18 1273.72 1349.18 Q1277.1 1349.18 1279.04 1346.52 Q1280.98 1343.83 1280.98 1339.13 Q1280.98 1334.44 1279.04 1331.77 Q1277.1 1329.09 1273.72 1329.09 Q1270.34 1329.09 1268.39 1331.77 Q1266.47 1334.44 1266.47 1339.13 Z" fill="#000000" fill-rule="nonzero" fill-opacity="1"></path><path clip-path="url(#clip350)" d="M1326.15 1330.08 L1326.15 1316.06 L1330.41 1316.06 L1330.41 1352.07 L1326.15 1352.07 L1326.15 1348.19 Q1324.8 1350.5 1322.74 1351.63 Q1320.71 1352.75 1317.84 1352.75 Q1313.14 1352.75 1310.17 1349 Q1307.23 1345.25 1307.23 1339.13 Q1307.23 1333.02 1310.17 1329.27 Q1313.14 1325.52 1317.84 1325.52 Q1320.71 1325.52 1322.74 1326.66 Q1324.8 1327.77 1326.15 1330.08 M1311.63 1339.13 Q1311.63 1343.83 1313.55 1346.52 Q1315.5 1349.18 1318.88 1349.18 Q1322.26 1349.18 1324.2 1346.52 Q1326.15 1343.83 1326.15 1339.13 Q1326.15 1334.44 1324.2 1331.77 Q1322.26 1329.09 1318.88 1329.09 Q1315.5 1329.09 1313.55 1331.77 Q1311.63 1334.44 1311.63 1339.13 Z" fill="#000000" fill-rule="nonzero" fill-opacity="1"></path><path clip-path="url(#clip350)" d="M1361.35 1338.05 L1361.35 1340.13 L1341.77 1340.13 Q1342.05 1344.53 1344.41 1346.84 Q1346.79 1349.13 1351.03 1349.13 Q1353.48 1349.13 1355.78 1348.53 Q1358.09 1347.93 1360.36 1346.73 L1360.36 1350.75 Q1358.07 1351.73 1355.66 1352.24 Q1353.25 1352.75 1350.78 1352.75 Q1344.57 1352.75 1340.94 1349.13 Q1337.33 1345.52 1337.33 1339.37 Q1337.33 1333 1340.75 1329.27 Q1344.2 1325.52 1350.03 1325.52 Q1355.27 1325.52 1358.3 1328.9 Q1361.35 1332.26 1361.35 1338.05 M1357.1 1336.8 Q1357.05 1333.3 1355.13 1331.22 Q1353.23 1329.13 1350.08 1329.13 Q1346.52 1329.13 1344.36 1331.15 Q1342.23 1333.16 1341.91 1336.82 L1357.1 1336.8 Z" fill="#000000" fill-rule="nonzero" fill-opacity="1"></path><path clip-path="url(#clip350)" d="M1384.87 1326.91 L1384.87 1330.94 Q1383.07 1330.01 1381.12 1329.55 Q1379.18 1329.09 1377.09 1329.09 Q1373.92 1329.09 1372.33 1330.06 Q1370.75 1331.03 1370.75 1332.98 Q1370.75 1334.46 1371.89 1335.32 Q1373.02 1336.15 1376.45 1336.91 L1377.91 1337.24 Q1382.44 1338.21 1384.34 1339.99 Q1386.26 1341.75 1386.26 1344.92 Q1386.26 1348.53 1383.39 1350.64 Q1380.54 1352.75 1375.54 1352.75 Q1373.46 1352.75 1371.19 1352.33 Q1368.95 1351.94 1366.45 1351.13 L1366.45 1346.73 Q1368.81 1347.95 1371.1 1348.58 Q1373.39 1349.18 1375.64 1349.18 Q1378.65 1349.18 1380.27 1348.16 Q1381.89 1347.12 1381.89 1345.25 Q1381.89 1343.51 1380.71 1342.58 Q1379.55 1341.66 1375.59 1340.8 L1374.11 1340.45 Q1370.15 1339.62 1368.39 1337.91 Q1366.63 1336.17 1366.63 1333.16 Q1366.63 1329.51 1369.22 1327.51 Q1371.82 1325.52 1376.59 1325.52 Q1378.95 1325.52 1381.03 1325.87 Q1383.11 1326.22 1384.87 1326.91 Z" fill="#000000" fill-rule="nonzero" fill-opacity="1"></path><path clip-path="url(#clip350)" d="M1393.04 1326.15 L1397.3 1326.15 L1397.3 1352.07 L1393.04 1352.07 L1393.04 1326.15 M1393.04 1316.06 L1397.3 1316.06 L1397.3 1321.45 L1393.04 1321.45 L1393.04 1316.06 Z" fill="#000000" fill-rule="nonzero" fill-opacity="1"></path><path clip-path="url(#clip350)" d="M1423.28 1338.81 Q1423.28 1334.18 1421.35 1331.63 Q1419.46 1329.09 1416.01 1329.09 Q1412.58 1329.09 1410.66 1331.63 Q1408.76 1334.18 1408.76 1338.81 Q1408.76 1343.42 1410.66 1345.96 Q1412.58 1348.51 1416.01 1348.51 Q1419.46 1348.51 1421.35 1345.96 Q1423.28 1343.42 1423.28 1338.81 M1427.53 1348.86 Q1427.53 1355.48 1424.59 1358.69 Q1421.65 1361.94 1415.59 1361.94 Q1413.34 1361.94 1411.35 1361.59 Q1409.36 1361.26 1407.49 1360.57 L1407.49 1356.43 Q1409.36 1357.44 1411.19 1357.93 Q1413.02 1358.42 1414.92 1358.42 Q1419.11 1358.42 1421.19 1356.22 Q1423.28 1354.04 1423.28 1349.62 L1423.28 1347.51 Q1421.96 1349.81 1419.9 1350.94 Q1417.84 1352.07 1414.97 1352.07 Q1410.2 1352.07 1407.28 1348.44 Q1404.36 1344.81 1404.36 1338.81 Q1404.36 1332.79 1407.28 1329.16 Q1410.2 1325.52 1414.97 1325.52 Q1417.84 1325.52 1419.9 1326.66 Q1421.96 1327.79 1423.28 1330.08 L1423.28 1326.15 L1427.53 1326.15 L1427.53 1348.86 Z" fill="#000000" fill-rule="nonzero" fill-opacity="1"></path><path clip-path="url(#clip350)" d="M1457.86 1336.43 L1457.86 1352.07 L1453.6 1352.07 L1453.6 1336.57 Q1453.6 1332.88 1452.16 1331.06 Q1450.73 1329.23 1447.86 1329.23 Q1444.41 1329.23 1442.42 1331.43 Q1440.43 1333.63 1440.43 1337.42 L1440.43 1352.07 L1436.15 1352.07 L1436.15 1326.15 L1440.43 1326.15 L1440.43 1330.18 Q1441.96 1327.84 1444.02 1326.68 Q1446.1 1325.52 1448.81 1325.52 Q1453.28 1325.52 1455.57 1328.3 Q1457.86 1331.06 1457.86 1336.43 Z" fill="#000000" fill-rule="nonzero" fill-opacity="1"></path><path clip-path="url(#clip350)" d="M964.788 1407.37 L1100.44 1407.37 L1100.44 1365.9 L964.788 1365.9 L964.788 1407.37  Z" fill="#3da44d" fill-rule="evenodd" fill-opacity="1"></path>
<polyline clip-path="url(#clip350)" style="stroke:#000000; stroke-linecap:round; stroke-linejoin:round; stroke-width:4; stroke-opacity:1; fill:none" points="964.788,1407.37 1100.44,1407.37 1100.44,1365.9 964.788,1365.9 964.788,1407.37 "></polyline>
<path clip-path="url(#clip350)" d="M1141.96 1381.92 L1141.96 1367.9 L1146.22 1367.9 L1146.22 1403.91 L1141.96 1403.91 L1141.96 1400.03 Q1140.61 1402.34 1138.55 1403.47 Q1136.52 1404.59 1133.65 1404.59 Q1128.95 1404.59 1125.99 1400.84 Q1123.05 1397.09 1123.05 1390.97 Q1123.05 1384.86 1125.99 1381.11 Q1128.95 1377.36 1133.65 1377.36 Q1136.52 1377.36 1138.55 1378.5 Q1140.61 1379.61 1141.96 1381.92 M1127.44 1390.97 Q1127.44 1395.67 1129.36 1398.36 Q1131.31 1401.02 1134.69 1401.02 Q1138.07 1401.02 1140.01 1398.36 Q1141.96 1395.67 1141.96 1390.97 Q1141.96 1386.28 1140.01 1383.61 Q1138.07 1380.93 1134.69 1380.93 Q1131.31 1380.93 1129.36 1383.61 Q1127.44 1386.28 1127.44 1390.97 Z" fill="#000000" fill-rule="nonzero" fill-opacity="1"></path><path clip-path="url(#clip350)" d="M1177.17 1389.89 L1177.17 1391.97 L1157.58 1391.97 Q1157.86 1396.37 1160.22 1398.68 Q1162.61 1400.97 1166.84 1400.97 Q1169.3 1400.97 1171.59 1400.37 Q1173.9 1399.77 1176.17 1398.57 L1176.17 1402.59 Q1173.88 1403.57 1171.47 1404.08 Q1169.06 1404.59 1166.59 1404.59 Q1160.38 1404.59 1156.75 1400.97 Q1153.14 1397.36 1153.14 1391.21 Q1153.14 1384.84 1156.56 1381.11 Q1160.01 1377.36 1165.85 1377.36 Q1171.08 1377.36 1174.11 1380.74 Q1177.17 1384.1 1177.17 1389.89 M1172.91 1388.64 Q1172.86 1385.14 1170.94 1383.06 Q1169.04 1380.97 1165.89 1380.97 Q1162.33 1380.97 1160.17 1382.99 Q1158.05 1385 1157.72 1388.66 L1172.91 1388.64 Z" fill="#000000" fill-rule="nonzero" fill-opacity="1"></path><path clip-path="url(#clip350)" d="M1200.68 1378.75 L1200.68 1382.78 Q1198.88 1381.85 1196.93 1381.39 Q1194.99 1380.93 1192.91 1380.93 Q1189.73 1380.93 1188.14 1381.9 Q1186.56 1382.87 1186.56 1384.82 Q1186.56 1386.3 1187.7 1387.16 Q1188.83 1387.99 1192.26 1388.75 L1193.72 1389.08 Q1198.25 1390.05 1200.15 1391.83 Q1202.07 1393.59 1202.07 1396.76 Q1202.07 1400.37 1199.2 1402.48 Q1196.36 1404.59 1191.36 1404.59 Q1189.27 1404.59 1187 1404.17 Q1184.76 1403.78 1182.26 1402.97 L1182.26 1398.57 Q1184.62 1399.79 1186.91 1400.42 Q1189.2 1401.02 1191.45 1401.02 Q1194.46 1401.02 1196.08 1400 Q1197.7 1398.96 1197.7 1397.09 Q1197.7 1395.35 1196.52 1394.42 Q1195.36 1393.5 1191.4 1392.64 L1189.92 1392.29 Q1185.96 1391.46 1184.2 1389.75 Q1182.44 1388.01 1182.44 1385 Q1182.44 1381.35 1185.04 1379.35 Q1187.63 1377.36 1192.4 1377.36 Q1194.76 1377.36 1196.84 1377.71 Q1198.92 1378.06 1200.68 1378.75 Z" fill="#000000" fill-rule="nonzero" fill-opacity="1"></path><path clip-path="url(#clip350)" d="M1208.86 1377.99 L1213.11 1377.99 L1213.11 1403.91 L1208.86 1403.91 L1208.86 1377.99 M1208.86 1367.9 L1213.11 1367.9 L1213.11 1373.29 L1208.86 1373.29 L1208.86 1367.9 Z" fill="#000000" fill-rule="nonzero" fill-opacity="1"></path><path clip-path="url(#clip350)" d="M1239.09 1390.65 Q1239.09 1386.02 1237.17 1383.47 Q1235.27 1380.93 1231.82 1380.93 Q1228.39 1380.93 1226.47 1383.47 Q1224.57 1386.02 1224.57 1390.65 Q1224.57 1395.26 1226.47 1397.8 Q1228.39 1400.35 1231.82 1400.35 Q1235.27 1400.35 1237.17 1397.8 Q1239.09 1395.26 1239.09 1390.65 M1243.35 1400.7 Q1243.35 1407.32 1240.41 1410.53 Q1237.47 1413.78 1231.4 1413.78 Q1229.16 1413.78 1227.17 1413.43 Q1225.17 1413.1 1223.3 1412.41 L1223.3 1408.27 Q1225.17 1409.28 1227 1409.77 Q1228.83 1410.26 1230.73 1410.26 Q1234.92 1410.26 1237 1408.06 Q1239.09 1405.88 1239.09 1401.46 L1239.09 1399.35 Q1237.77 1401.65 1235.71 1402.78 Q1233.65 1403.91 1230.78 1403.91 Q1226.01 1403.91 1223.09 1400.28 Q1220.17 1396.65 1220.17 1390.65 Q1220.17 1384.63 1223.09 1381 Q1226.01 1377.36 1230.78 1377.36 Q1233.65 1377.36 1235.71 1378.5 Q1237.77 1379.63 1239.09 1381.92 L1239.09 1377.99 L1243.35 1377.99 L1243.35 1400.7 Z" fill="#000000" fill-rule="nonzero" fill-opacity="1"></path><path clip-path="url(#clip350)" d="M1273.67 1388.27 L1273.67 1403.91 L1269.41 1403.91 L1269.41 1388.41 Q1269.41 1384.72 1267.98 1382.9 Q1266.54 1381.07 1263.67 1381.07 Q1260.22 1381.07 1258.23 1383.27 Q1256.24 1385.47 1256.24 1389.26 L1256.24 1403.91 L1251.96 1403.91 L1251.96 1377.99 L1256.24 1377.99 L1256.24 1382.02 Q1257.77 1379.68 1259.83 1378.52 Q1261.91 1377.36 1264.62 1377.36 Q1269.09 1377.36 1271.38 1380.14 Q1273.67 1382.9 1273.67 1388.27 Z" fill="#000000" fill-rule="nonzero" fill-opacity="1"></path><path clip-path="url(#clip350)" d="M1313.76 1378.75 L1313.76 1382.78 Q1311.96 1381.85 1310.01 1381.39 Q1308.07 1380.93 1305.98 1380.93 Q1302.81 1380.93 1301.22 1381.9 Q1299.64 1382.87 1299.64 1384.82 Q1299.64 1386.3 1300.78 1387.16 Q1301.91 1387.99 1305.34 1388.75 L1306.79 1389.08 Q1311.33 1390.05 1313.23 1391.83 Q1315.15 1393.59 1315.15 1396.76 Q1315.15 1400.37 1312.28 1402.48 Q1309.43 1404.59 1304.43 1404.59 Q1302.35 1404.59 1300.08 1404.17 Q1297.84 1403.78 1295.34 1402.97 L1295.34 1398.57 Q1297.7 1399.79 1299.99 1400.42 Q1302.28 1401.02 1304.53 1401.02 Q1307.54 1401.02 1309.16 1400 Q1310.78 1398.96 1310.78 1397.09 Q1310.78 1395.35 1309.6 1394.42 Q1308.44 1393.5 1304.48 1392.64 L1303 1392.29 Q1299.04 1391.46 1297.28 1389.75 Q1295.52 1388.01 1295.52 1385 Q1295.52 1381.35 1298.11 1379.35 Q1300.71 1377.36 1305.47 1377.36 Q1307.84 1377.36 1309.92 1377.71 Q1312 1378.06 1313.76 1378.75 Z" fill="#000000" fill-rule="nonzero" fill-opacity="1"></path><path clip-path="url(#clip350)" d="M1321.93 1377.99 L1326.19 1377.99 L1326.19 1403.91 L1321.93 1403.91 L1321.93 1377.99 M1321.93 1367.9 L1326.19 1367.9 L1326.19 1373.29 L1321.93 1373.29 L1321.93 1367.9 Z" fill="#000000" fill-rule="nonzero" fill-opacity="1"></path><path clip-path="url(#clip350)" d="M1356.66 1388.27 L1356.66 1403.91 L1352.4 1403.91 L1352.4 1388.41 Q1352.4 1384.72 1350.96 1382.9 Q1349.53 1381.07 1346.66 1381.07 Q1343.21 1381.07 1341.22 1383.27 Q1339.22 1385.47 1339.22 1389.26 L1339.22 1403.91 L1334.94 1403.91 L1334.94 1377.99 L1339.22 1377.99 L1339.22 1382.02 Q1340.75 1379.68 1342.81 1378.52 Q1344.9 1377.36 1347.6 1377.36 Q1352.07 1377.36 1354.36 1380.14 Q1356.66 1382.9 1356.66 1388.27 Z" fill="#000000" fill-rule="nonzero" fill-opacity="1"></path><path clip-path="url(#clip350)" d="M1382.21 1390.65 Q1382.21 1386.02 1380.29 1383.47 Q1378.39 1380.93 1374.94 1380.93 Q1371.52 1380.93 1369.6 1383.47 Q1367.7 1386.02 1367.7 1390.65 Q1367.7 1395.26 1369.6 1397.8 Q1371.52 1400.35 1374.94 1400.35 Q1378.39 1400.35 1380.29 1397.8 Q1382.21 1395.26 1382.21 1390.65 M1386.47 1400.7 Q1386.47 1407.32 1383.53 1410.53 Q1380.59 1413.78 1374.53 1413.78 Q1372.28 1413.78 1370.29 1413.43 Q1368.3 1413.1 1366.42 1412.41 L1366.42 1408.27 Q1368.3 1409.28 1370.13 1409.77 Q1371.96 1410.26 1373.85 1410.26 Q1378.04 1410.26 1380.13 1408.06 Q1382.21 1405.88 1382.21 1401.46 L1382.21 1399.35 Q1380.89 1401.65 1378.83 1402.78 Q1376.77 1403.91 1373.9 1403.91 Q1369.13 1403.91 1366.22 1400.28 Q1363.3 1396.65 1363.3 1390.65 Q1363.3 1384.63 1366.22 1381 Q1369.13 1377.36 1373.9 1377.36 Q1376.77 1377.36 1378.83 1378.5 Q1380.89 1379.63 1382.21 1381.92 L1382.21 1377.99 L1386.47 1377.99 L1386.47 1400.7 Z" fill="#000000" fill-rule="nonzero" fill-opacity="1"></path><path clip-path="url(#clip350)" d="M1395.24 1367.9 L1399.5 1367.9 L1399.5 1403.91 L1395.24 1403.91 L1395.24 1367.9 Z" fill="#000000" fill-rule="nonzero" fill-opacity="1"></path><path clip-path="url(#clip350)" d="M1430.59 1389.89 L1430.59 1391.97 L1411.01 1391.97 Q1411.28 1396.37 1413.65 1398.68 Q1416.03 1400.97 1420.27 1400.97 Q1422.72 1400.97 1425.01 1400.37 Q1427.33 1399.77 1429.59 1398.57 L1429.59 1402.59 Q1427.3 1403.57 1424.9 1404.08 Q1422.49 1404.59 1420.01 1404.59 Q1413.81 1404.59 1410.17 1400.97 Q1406.56 1397.36 1406.56 1391.21 Q1406.56 1384.84 1409.99 1381.11 Q1413.44 1377.36 1419.27 1377.36 Q1424.5 1377.36 1427.53 1380.74 Q1430.59 1384.1 1430.59 1389.89 M1426.33 1388.64 Q1426.28 1385.14 1424.36 1383.06 Q1422.47 1380.97 1419.32 1380.97 Q1415.75 1380.97 1413.6 1382.99 Q1411.47 1385 1411.15 1388.66 L1426.33 1388.64 Z" fill="#000000" fill-rule="nonzero" fill-opacity="1"></path><path clip-path="url(#clip350)" d="M1435.43 1389.03 L1447.9 1389.03 L1447.9 1392.83 L1435.43 1392.83 L1435.43 1389.03 Z" fill="#000000" fill-rule="nonzero" fill-opacity="1"></path><path clip-path="url(#clip350)" d="M1471.21 1378.75 L1471.21 1382.78 Q1469.41 1381.85 1467.46 1381.39 Q1465.52 1380.93 1463.44 1380.93 Q1460.27 1380.93 1458.67 1381.9 Q1457.09 1382.87 1457.09 1384.82 Q1457.09 1386.3 1458.23 1387.16 Q1459.36 1387.99 1462.79 1388.75 L1464.25 1389.08 Q1468.78 1390.05 1470.68 1391.83 Q1472.6 1393.59 1472.6 1396.76 Q1472.6 1400.37 1469.73 1402.48 Q1466.89 1404.59 1461.89 1404.59 Q1459.8 1404.59 1457.53 1404.17 Q1455.29 1403.78 1452.79 1402.97 L1452.79 1398.57 Q1455.15 1399.79 1457.44 1400.42 Q1459.73 1401.02 1461.98 1401.02 Q1464.99 1401.02 1466.61 1400 Q1468.23 1398.96 1468.23 1397.09 Q1468.23 1395.35 1467.05 1394.42 Q1465.89 1393.5 1461.93 1392.64 L1460.45 1392.29 Q1456.49 1391.46 1454.73 1389.75 Q1452.97 1388.01 1452.97 1385 Q1452.97 1381.35 1455.57 1379.35 Q1458.16 1377.36 1462.93 1377.36 Q1465.29 1377.36 1467.37 1377.71 Q1469.46 1378.06 1471.21 1378.75 Z" fill="#000000" fill-rule="nonzero" fill-opacity="1"></path><path clip-path="url(#clip350)" d="M1483.6 1370.63 L1483.6 1377.99 L1492.37 1377.99 L1492.37 1381.3 L1483.6 1381.3 L1483.6 1395.37 Q1483.6 1398.54 1484.46 1399.45 Q1485.34 1400.35 1488 1400.35 L1492.37 1400.35 L1492.37 1403.91 L1488 1403.91 Q1483.07 1403.91 1481.19 1402.09 Q1479.32 1400.23 1479.32 1395.37 L1479.32 1381.3 L1476.19 1381.3 L1476.19 1377.99 L1479.32 1377.99 L1479.32 1370.63 L1483.6 1370.63 Z" fill="#000000" fill-rule="nonzero" fill-opacity="1"></path><path clip-path="url(#clip350)" d="M1520.15 1389.89 L1520.15 1391.97 L1500.57 1391.97 Q1500.84 1396.37 1503.21 1398.68 Q1505.59 1400.97 1509.83 1400.97 Q1512.28 1400.97 1514.57 1400.37 Q1516.89 1399.77 1519.15 1398.57 L1519.15 1402.59 Q1516.86 1403.57 1514.46 1404.08 Q1512.05 1404.59 1509.57 1404.59 Q1503.37 1404.59 1499.73 1400.97 Q1496.12 1397.36 1496.12 1391.21 Q1496.12 1384.84 1499.55 1381.11 Q1503 1377.36 1508.83 1377.36 Q1514.06 1377.36 1517.09 1380.74 Q1520.15 1384.1 1520.15 1389.89 M1515.89 1388.64 Q1515.84 1385.14 1513.92 1383.06 Q1512.02 1380.97 1508.88 1380.97 Q1505.31 1380.97 1503.16 1382.99 Q1501.03 1385 1500.71 1388.66 L1515.89 1388.64 Z" fill="#000000" fill-rule="nonzero" fill-opacity="1"></path><path clip-path="url(#clip350)" d="M1531.26 1400.03 L1531.26 1413.78 L1526.98 1413.78 L1526.98 1377.99 L1531.26 1377.99 L1531.26 1381.92 Q1532.6 1379.61 1534.64 1378.5 Q1536.7 1377.36 1539.55 1377.36 Q1544.27 1377.36 1547.21 1381.11 Q1550.17 1384.86 1550.17 1390.97 Q1550.17 1397.09 1547.21 1400.84 Q1544.27 1404.59 1539.55 1404.59 Q1536.7 1404.59 1534.64 1403.47 Q1532.6 1402.34 1531.26 1400.03 M1545.75 1390.97 Q1545.75 1386.28 1543.81 1383.61 Q1541.89 1380.93 1538.51 1380.93 Q1535.13 1380.93 1533.18 1383.61 Q1531.26 1386.28 1531.26 1390.97 Q1531.26 1395.67 1533.18 1398.36 Q1535.13 1401.02 1538.51 1401.02 Q1541.89 1401.02 1543.81 1398.36 Q1545.75 1395.67 1545.75 1390.97 Z" fill="#000000" fill-rule="nonzero" fill-opacity="1"></path><path clip-path="url(#clip350)" d="M1576.42 1400.03 L1576.42 1413.78 L1572.14 1413.78 L1572.14 1377.99 L1576.42 1377.99 L1576.42 1381.92 Q1577.77 1379.61 1579.8 1378.5 Q1581.86 1377.36 1584.71 1377.36 Q1589.43 1377.36 1592.37 1381.11 Q1595.33 1384.86 1595.33 1390.97 Q1595.33 1397.09 1592.37 1400.84 Q1589.43 1404.59 1584.71 1404.59 Q1581.86 1404.59 1579.8 1403.47 Q1577.77 1402.34 1576.42 1400.03 M1590.91 1390.97 Q1590.91 1386.28 1588.97 1383.61 Q1587.05 1380.93 1583.67 1380.93 Q1580.29 1380.93 1578.34 1383.61 Q1576.42 1386.28 1576.42 1390.97 Q1576.42 1395.67 1578.34 1398.36 Q1580.29 1401.02 1583.67 1401.02 Q1587.05 1401.02 1588.97 1398.36 Q1590.91 1395.67 1590.91 1390.97 Z" fill="#000000" fill-rule="nonzero" fill-opacity="1"></path><path clip-path="url(#clip350)" d="M1612.44 1380.97 Q1609.02 1380.97 1607.02 1383.66 Q1605.03 1386.32 1605.03 1390.97 Q1605.03 1395.63 1607 1398.31 Q1608.99 1400.97 1612.44 1400.97 Q1615.84 1400.97 1617.83 1398.29 Q1619.83 1395.6 1619.83 1390.97 Q1619.83 1386.37 1617.83 1383.68 Q1615.84 1380.97 1612.44 1380.97 M1612.44 1377.36 Q1618 1377.36 1621.17 1380.97 Q1624.34 1384.59 1624.34 1390.97 Q1624.34 1397.34 1621.17 1400.97 Q1618 1404.59 1612.44 1404.59 Q1606.86 1404.59 1603.69 1400.97 Q1600.54 1397.34 1600.54 1390.97 Q1600.54 1384.59 1603.69 1380.97 Q1606.86 1377.36 1612.44 1377.36 Z" fill="#000000" fill-rule="nonzero" fill-opacity="1"></path><path clip-path="url(#clip350)" d="M1631.4 1367.9 L1635.66 1367.9 L1635.66 1403.91 L1631.4 1403.91 L1631.4 1367.9 Z" fill="#000000" fill-rule="nonzero" fill-opacity="1"></path><path clip-path="url(#clip350)" d="M1644.57 1377.99 L1648.83 1377.99 L1648.83 1403.91 L1644.57 1403.91 L1644.57 1377.99 M1644.57 1367.9 L1648.83 1367.9 L1648.83 1373.29 L1644.57 1373.29 L1644.57 1367.9 Z" fill="#000000" fill-rule="nonzero" fill-opacity="1"></path><path clip-path="url(#clip350)" d="M1676.4 1378.98 L1676.4 1382.97 Q1674.59 1381.97 1672.76 1381.48 Q1670.96 1380.97 1669.11 1380.97 Q1664.96 1380.97 1662.67 1383.61 Q1660.38 1386.23 1660.38 1390.97 Q1660.38 1395.72 1662.67 1398.36 Q1664.96 1400.97 1669.11 1400.97 Q1670.96 1400.97 1672.76 1400.49 Q1674.59 1399.98 1676.4 1398.98 L1676.4 1402.92 Q1674.62 1403.75 1672.7 1404.17 Q1670.8 1404.59 1668.64 1404.59 Q1662.79 1404.59 1659.34 1400.91 Q1655.89 1397.22 1655.89 1390.97 Q1655.89 1384.63 1659.36 1381 Q1662.86 1377.36 1668.92 1377.36 Q1670.89 1377.36 1672.76 1377.78 Q1674.64 1378.17 1676.4 1378.98 Z" fill="#000000" fill-rule="nonzero" fill-opacity="1"></path><path clip-path="url(#clip350)" d="M1694.59 1406.32 Q1692.79 1410.95 1691.07 1412.36 Q1689.36 1413.78 1686.49 1413.78 L1683.09 1413.78 L1683.09 1410.21 L1685.59 1410.21 Q1687.35 1410.21 1688.32 1409.38 Q1689.29 1408.54 1690.47 1405.44 L1691.24 1403.5 L1680.75 1377.99 L1685.26 1377.99 L1693.37 1398.27 L1701.47 1377.99 L1705.98 1377.99 L1694.59 1406.32 Z" fill="#000000" fill-rule="nonzero" fill-opacity="1"></path></svg>